<svg xmlns="http://www.w3.org/2000/svg" width="672.06" height="545.275" viewBox="0 0 672.06 545.275">
  <g id="Grupo_18097" data-name="Grupo 18097" transform="translate(-634.421 -268.765)">
    <g id="Grupo_18082" data-name="Grupo 18082">
      <path id="Trazado_17226" data-name="Trazado 17226" d="M737.026,400.91l-.005-.005.038-.022a26.865,26.865,0,0,1,7.034-4.224l8.11-4.868q.588-.375,1.206-.724l.044-.026h0c10.762-6.08,27.875-6.154,49.209.874l89.711-7.62c.315-.081.633-.153.951-.226,6.194-3.383,44.959-22.524,46.719-23.016,4.63-3.725,13.4-4.293,25.1-.8.858.256,1.72.536,2.584.827,2.526-1.214,4.261-2.025,4.548-2.105,3.13-2.518,9.056-2.9,16.971-.539,15.406,4.6,32.486,17.84,38.15,29.576,3.557,7.371,1.762,12.392-3.882,13.97-.135.109-.987.565-2.331,1.259.129.252.266.506.388.758,5.262,10.9,2.606,18.331-5.741,20.664-.963.774-26.315,13.382-39.613,19.8l-.72,1.066a22.25,22.25,0,0,1,3.45,12.949l-.317,7a22.482,22.482,0,0,1-23.409,21.377l-.625-.028a22.239,22.239,0,0,1-6.209-1.183l-21.027,31.114c.861,12.54-3.814,21.582-12.821,26.509l.005.005-10.84,6.153a27.151,27.151,0,0,1-2.6,1.478l-.084.048,0-.005c-12.426,6.157-32.455,4.972-57.242-5.029-50.051-20.2-100.528-68.674-112.743-108.277C725.815,420.732,728.427,408.176,737.026,400.91Z" fill="#a8c4e5" opacity="0.4" style="mix-blend-mode: multiply;isolation: isolate"/>
      <path id="Trazado_17227" data-name="Trazado 17227" d="M835.558,536.58l15.9-9.021L748.949,334.578,729.437,346.2Z" fill="#e0465c"/>
      <path id="Trazado_17228" data-name="Trazado 17228" d="M936.431,320.781c1.09-.829,35.569-18.12,36.938-18.517,3.944-3,9.849-3.28,16.711-.107,13.355,6.177,25.257,23.064,26.585,37.717.835,9.2-2.7,15.335-8.759,17.094-1.089.829-35.569,18.12-36.937,18.518-3.945,3-9.849,3.28-16.711.106C940.9,369.415,929,352.529,927.672,337.875,926.838,328.671,930.376,322.54,936.431,320.781Z" fill="#ef487c"/>
      <path id="Trazado_17229" data-name="Trazado 17229" d="M932.318,322.4c1.089-.829,35.569-18.12,36.937-18.518,3.945-3,9.849-3.28,16.711-.106,13.355,6.177,25.258,23.063,26.586,37.717.834,9.2-2.7,15.335-8.759,17.094-1.09.829-35.569,18.12-36.938,18.518-3.944,3-9.849,3.28-16.711.106-13.355-6.177-25.257-23.063-26.585-37.717C922.724,330.294,926.263,324.163,932.318,322.4Z" fill="#d84177"/>
      <rect id="Rectángulo_3364" data-name="Rectángulo 3364" width="52.82" height="147.221" rx="23.53" transform="translate(913.396 332.655) rotate(2.596)" fill="#45446c"/>
      <path id="Trazado_17230" data-name="Trazado 17230" d="M886.619,331.15c1.611-1.226,52.611-26.8,54.635-27.39,5.834-4.439,14.568-4.851,24.718-.157,19.753,9.136,37.359,34.114,39.323,55.788,1.234,13.615-4,22.683-12.956,25.284-1.611,1.227-52.611,26.8-54.635,27.39-5.834,4.44-14.568,4.852-24.718.158-19.753-9.137-37.359-34.114-39.323-55.788C872.429,342.82,877.662,333.752,886.619,331.15Z" fill="#ef487c"/>
      <path id="Trazado_17231" data-name="Trazado 17231" d="M991.139,324.162c5.962,9.327,9.993,19.719,10.875,29.446,1.233,13.614-4,22.682-12.956,25.284-1.612,1.226-52.611,26.8-54.635,27.39-5.835,4.439-14.569,4.851-24.718.157-14.315-6.621-25.067-16.481-31.991-32.453Z" fill="#d84177"/>
      <path id="Trazado_17232" data-name="Trazado 17232" d="M886.568,330.841l-143.76,10.278L844.2,530.131,951.557,402.013C946.011,361.2,918.327,322.3,886.568,330.841Z" fill="#dcf1ff"/>
      <path id="Trazado_17233" data-name="Trazado 17233" d="M783.714,417.372,840.52,518.483s110.093-122.511,109.446-125.5c-3.407-15.72-9.98-30.634-18.648-42.036Z" fill="#d0e7f4"/>
      <ellipse id="Elipse_834" data-name="Elipse 834" cx="63.088" cy="109.272" rx="63.088" ry="109.272" transform="matrix(0.888, -0.46, 0.46, 0.888, 694.096, 362.989)" fill="#ef487c"/>
      <ellipse id="Elipse_835" data-name="Elipse 835" cx="63.089" cy="109.272" rx="63.089" ry="109.272" transform="matrix(0.888, -0.46, 0.46, 0.888, 679.372, 371.389)" fill="#d84177"/>
      <ellipse id="Elipse_836" data-name="Elipse 836" cx="58.503" cy="101.33" rx="58.503" ry="101.33" transform="translate(692.927 371.76) rotate(-27.405)" fill="#fff"/>
      <path id="Trazado_17234" data-name="Trazado 17234" d="M837.664,396.846c-14.3-23.84-33.643-39.022-42.337-44.581-38.5-24.616-71.382-7.568-73.453,38.077-.592,13.067-.071,27.78,11.554,58.235C749.831,397.137,794.815,387.553,837.664,396.846Z" fill="#dcf1ff"/>
      <path id="Trazado_17235" data-name="Trazado 17235" d="M855.113,447.069c.9-19.88-13.13-44.741-31.341-55.528-8.74-5.177-16.849-6.161-23.025-3.6l-.005-.008-.267.124c-.273.12-.544.244-.809.377l-22.73,10.587a16.392,16.392,0,0,0-2.6,1.212l-.006,0h0c-5.592,3.247-9.207,9.808-9.629,19.108-.9,19.881,13.13,44.742,31.341,55.529,8.576,5.08,16.548,6.129,22.679,3.745h0l.044-.021a16.482,16.482,0,0,0,1.96-.925l20.921-9.884a16.485,16.485,0,0,0,5.005-2.364l.013-.006,0,0C851.579,461.965,854.722,455.7,855.113,447.069Z" fill="#d0e7f4"/>
      <path id="Trazado_17236" data-name="Trazado 17236" d="M815.265,368.554c-.253.12-37.838,19.531-37.838,19.531a14.886,14.886,0,0,0-2.405,1.221l0,0h0c-5.171,3.267-8.53,9.84-8.952,19.139-.9,19.881,11.96,44.689,28.727,55.41,7.9,5.049,15.249,6.071,20.915,3.665v0l.042-.021a14.818,14.818,0,0,0,1.811-.933s38.563-20.492,39.96-21.556A166.084,166.084,0,0,0,815.265,368.554Z" fill="#59a8ff"/>
      <ellipse id="Elipse_837" data-name="Elipse 837" cx="17.373" cy="33.733" rx="17.373" ry="33.733" transform="translate(761.275 407.624) rotate(-29.366)" fill="#fff"/>
      <path id="Trazado_17237" data-name="Trazado 17237" d="M857.52,445.015s-2.517-19.511-17.4-44.16c-7.335-12.147-13.322-20.782-24.856-32.3l-7.005,3.612s31.031,30.555,40.018,77.971Z" fill="#5969c4"/>
      <path id="Trazado_17238" data-name="Trazado 17238" d="M897.148,333.931l-87.456,6.642,25.335,20.873,72.392-16.441Z" fill="#fff"/>
      <path id="Trazado_17239" data-name="Trazado 17239" d="M967.337,311.74l-45.606,24.015-11.575-7.329,46.431-23.552Z" fill="#fff" opacity="0.43"/>
    </g>
    <g id="Grupo_18084" data-name="Grupo 18084">
      <path id="Trazado_17240" data-name="Trazado 17240" d="M1229.113,610.783l.063-17.7h-.022c-.008-3.493-2.105-6.832-6.42-9.332l-159.49-92.408c-9.554-5.535-26.258-4.868-37.309,1.49L736.684,659.244c-5.748,3.307-8.808,7.5-9.1,11.545l-.048-.032.02.7c0,.186,0,.373.015.559l.42,14.736.016.013c-1.478,4.509.429,9.069,5.941,12.263l159.491,92.407c4.776,2.768,11.341,3.985,18.092,3.716a47.263,47.263,0,0,0,5.074-.48,43.6,43.6,0,0,0,9.758-2.609,34.669,34.669,0,0,0,4.384-2.116l289.251-166.409c5.878-3.382,8.943-7.691,9.115-11.818h0A8.511,8.511,0,0,0,1229.113,610.783Z" fill="#a8c4e5" opacity="0.4" style="mix-blend-mode: multiply;isolation: isolate"/>
      <g id="Grupo_18083" data-name="Grupo 18083">
        <path id="Trazado_17241" data-name="Trazado 17241" d="M707.153,674.978l-.456-15.992,20.619,13.38s-5.825,14.5-6.455,13.992S707.153,674.978,707.153,674.978Z" fill="#a8c4e5"/>
        <path id="Trazado_17242" data-name="Trazado 17242" d="M872.6,779.662,713.109,687.254c-9.554-5.536-8.34-15.177,2.712-21.535l289.25-166.409c11.051-6.358,27.755-7.025,37.309-1.49l159.491,92.408c9.553,5.536,8.339,15.177-2.712,21.535L909.909,778.172C898.857,784.53,882.153,785.2,872.6,779.662Z" fill="#bbd6f2"/>
        <path id="Trazado_17243" data-name="Trazado 17243" d="M890.112,691.11l114.959-191.8c11.051-6.358,27.755-7.025,37.309-1.49l159.491,92.408c9.553,5.536,8.339,15.177-2.712,21.535L909.909,778.172a42.812,42.812,0,0,1-19.216,5.205Z" fill="#8db0da"/>
        <path id="Trazado_17244" data-name="Trazado 17244" d="M1015.971,627.637l29.365-39.725,163-6.6-.066,18.631-178.218,56.494Z" fill="#8db0da"/>
        <ellipse id="Elipse_838" data-name="Elipse 838" cx="3.562" cy="6.169" rx="3.562" ry="6.169" transform="translate(853.37 758.714) rotate(-30.225)" fill="#45446c"/>
        <path id="Trazado_17245" data-name="Trazado 17245" d="M872.628,761.416,713.137,669.008c-9.554-5.536-8.34-15.177,2.711-21.535L1005.1,481.064c11.051-6.358,27.755-7.025,37.309-1.49l159.49,92.408c9.554,5.536,8.34,15.177-2.711,21.535L909.936,759.926C898.885,766.284,882.181,766.951,872.628,761.416Z" fill="#45446c"/>
        <path id="Trazado_17246" data-name="Trazado 17246" d="M1127.477,544.778l-44.038-25.515c-1.816-1.052-1.583-2.9.518-4.11h0a7.942,7.942,0,0,1,7.121-.284l44.038,25.515c1.815,1.052,1.583,2.9-.518,4.11h0A7.943,7.943,0,0,1,1127.477,544.778Z" fill="#5366c4"/>
        <path id="Trazado_17247" data-name="Trazado 17247" d="M807.108,735.908l-35.372-20.494a6.555,6.555,0,0,1-2.719-5.214h0c0-2,1.232-2.925,2.73-2.057l35.372,20.495a6.551,6.551,0,0,1,2.718,5.213h0C809.834,735.851,808.606,736.776,807.108,735.908Z" fill="#45446c"/>
        <path id="Trazado_17248" data-name="Trazado 17248" d="M1157.945,629.048l17.448-10.037a4.521,4.521,0,0,0,1.886-3.59h0c0-1.379-.843-2.02-1.878-1.425l-17.448,10.038a4.521,4.521,0,0,0-1.886,3.59h0C1156.065,629,1156.91,629.644,1157.945,629.048Z" fill="#45446c"/>
        <path id="Trazado_17249" data-name="Trazado 17249" d="M1133.2,644.537l17.448-10.038a4.523,4.523,0,0,0,1.886-3.59h0c0-1.379-.844-2.02-1.879-1.424l-17.447,10.037a4.521,4.521,0,0,0-1.886,3.59h0C1131.318,644.491,1132.163,645.132,1133.2,644.537Z" fill="#45446c"/>
        <path id="Trazado_17250" data-name="Trazado 17250" d="M1014.081,490.625,770.85,630.559a8.489,8.489,0,0,0-.023,14.7l147.414,85.411a8.491,8.491,0,0,0,8.489.013l243.232-139.934a8.489,8.489,0,0,0,.022-14.7l-147.413-85.41A8.488,8.488,0,0,0,1014.081,490.625Z" fill="#5eabff"/>
      </g>
    </g>
    <g id="Grupo_18085" data-name="Grupo 18085">
      <path id="Trazado_17251" data-name="Trazado 17251" d="M753.723,563.24c-23.515-14.1-62.009-14.741-85.979-1.428s-24.341,35.538-.827,49.64,61.588,14.752,86,1.71C779.757,598.824,777.237,577.342,753.723,563.24Z" fill="#a8c4e5" opacity="0.4" style="mix-blend-mode: multiply;isolation: isolate"/>
      <path id="Trazado_17252" data-name="Trazado 17252" d="M735.925,564.464c-22.332-13.393-58.89-14-81.655-1.356s-23.117,33.751-.785,47.144,58.491,14.01,81.678,1.623C760.651,598.259,758.257,577.857,735.925,564.464Z" fill="#cc963f"/>
      <path id="Trazado_17253" data-name="Trazado 17253" d="M733.383,550.578c-22.332-13.393-58.89-14-81.655-1.356s-23.117,33.751-.785,47.144,58.491,14.01,81.677,1.623C758.109,584.373,755.715,563.971,733.383,550.578Z" fill="#ebcd49"/>
      <path id="Trazado_17254" data-name="Trazado 17254" d="M711.827,556.4l.8,25.439a3.637,3.637,0,0,1-4.642,3.608l-36-10.371a3.637,3.637,0,0,1-.424-6.838l35.2-15.068A3.637,3.637,0,0,1,711.827,556.4Z" fill="#fff" stroke="#45446c" stroke-linecap="round" stroke-linejoin="round" stroke-width="1.877"/>
    </g>
    <g id="Grupo_18086" data-name="Grupo 18086">
      <path id="Trazado_17255" data-name="Trazado 17255" d="M1130.2,440.674l-40.962-23.649c-8.556-4.94-15.556-18.315-15.556-29.723V357.895c0-11.407,7-16.7,15.556-11.76l40.962,23.65c8.556,4.939,15.556,18.314,15.556,29.722v29.407C1145.761,440.322,1138.761,445.614,1130.2,440.674Z" fill="#c9457b"/>
      <path id="Trazado_17256" data-name="Trazado 17256" d="M1128.185,440.656v-37.5a6.621,6.621,0,0,0-2.754-5.263l-42.677-24.639a1.948,1.948,0,0,0-1.391-.28l-.05-.048-5.222,2.913L1080,389.21v23.627a6.623,6.623,0,0,0,2.754,5.263l6.848,3.953,11.137,25.662,16.246-8.793,2.046.122,2.736,6.935,5.07-2.951v-.012C1127.639,442.837,1128.185,441.99,1128.185,440.656Z" fill="#c9457b"/>
      <path id="Trazado_17257" data-name="Trazado 17257" d="M1086.062,425.984l9.635,19.938a3.813,3.813,0,0,0,6.015,1.146l9.256-8.52Z" fill="#ff5ea0"/>
      <path id="Trazado_17258" data-name="Trazado 17258" d="M1122.053,447.468l-40.963-23.65c-8.555-4.939-15.555-18.314-15.555-29.722V364.689c0-11.408,7-16.7,15.555-11.76l40.963,23.65c8.555,4.939,15.556,18.314,15.556,29.722v29.407C1137.609,447.115,1130.608,452.408,1122.053,447.468Z" fill="#ff5ea0"/>
      <path id="Trazado_17259" data-name="Trazado 17259" d="M1094.425,413.271a8.591,8.591,0,0,0,13.193,2.585l9.084-7.729c1.678-.969,2.7-2.928,2.671-5.685-.054-5.7-4.547-12.635-10.036-15.491-5.017-2.612-9.128-.908-9.755,3.758a20.2,20.2,0,0,0-9.924-14c-5.488-2.857-9.894-.552-9.84,5.147a15.394,15.394,0,0,0,1.524,6.173l-.021,0,.237.457c.122.249.252.5.385.742Z" fill="#fff"/>
    </g>
    <g id="Grupo_18087" data-name="Grupo 18087">
      <path id="Trazado_17260" data-name="Trazado 17260" d="M1183.653,416.9l17.539-6.5,85.953,103.406-21.507,7.8Z" fill="#5b5b84"/>
      <path id="Trazado_17261" data-name="Trazado 17261" d="M1204.466,479.588l56.283,32.295c22.145,12.708,47.5-4.96,45.635-31.8l-.184-2.665c-.865-12.457-7.729-23.764-18.007-29.661l-61.678-35.392c-21.435-12.3-45.975,4.8-44.172,30.781h0C1183.406,458.45,1191.839,472.342,1204.466,479.588Z" fill="#5969c4"/>
      <path id="Trazado_17262" data-name="Trazado 17262" d="M1205.315,486.643l-38.049,17.5a4.152,4.152,0,0,1-5.758-4.8l11.659-45.525Z" fill="#5969c4"/>
      <path id="Trazado_17263" data-name="Trazado 17263" d="M1187.206,485.971l56.283,32.295c22.146,12.708,47.5-4.96,45.636-31.8l-.185-2.665c-.865-12.457-7.729-23.764-18.007-29.661l-61.678-35.392c-21.435-12.3-45.975,4.8-44.171,30.782h0C1166.146,464.833,1174.579,478.725,1187.206,485.971Z" fill="#5eabff"/>
      <path id="Trazado_17264" data-name="Trazado 17264" d="M1245.83,478.163c-.359,6.222,3.293,13.528,8.156,16.319s9.1.008,9.454-6.214-3.294-13.528-8.156-16.318S1246.188,471.941,1245.83,478.163Z" fill="#fff"/>
      <path id="Trazado_17265" data-name="Trazado 17265" d="M1216.912,462.691c-.359,6.222,3.293,13.528,8.156,16.319s9.095.008,9.454-6.214-3.293-13.528-8.156-16.318S1217.27,456.469,1216.912,462.691Z" fill="#fff"/>
      <path id="Trazado_17266" data-name="Trazado 17266" d="M1190.775,448.878c-.359,6.222,3.293,13.527,8.156,16.318s9.095.008,9.454-6.214-3.293-13.528-8.156-16.318S1191.133,442.656,1190.775,448.878Z" fill="#fff"/>
    </g>
    <path id="Trazado_17267" data-name="Trazado 17267" d="M1209.627,371.734,1166.3,346.721c-9.049-5.225-16.453-19.371-16.453-31.436v-31.1c0-12.066,7.4-17.663,16.453-12.438l43.324,25.013c9.049,5.224,16.453,19.371,16.453,31.436v31.1C1226.08,371.361,1218.676,376.958,1209.627,371.734Z" fill="#fff" stroke="#45446c" stroke-miterlimit="10" stroke-width="1.877"/>
    <path id="Trazado_17268" data-name="Trazado 17268" d="M1209.627,371.734,1166.3,346.721c-9.049-5.225-16.453-19.371-16.453-31.436v-31.1c0-12.066,7.4-17.663,16.453-12.438l43.324,25.013c9.049,5.224,16.453,19.371,16.453,31.436v31.1C1226.08,371.361,1218.676,376.958,1209.627,371.734Z" fill="#45446c" opacity="0.16"/>
    <path id="Trazado_17269" data-name="Trazado 17269" d="M1207.49,371.715v-39.66a7,7,0,0,0-2.913-5.567l-45.137-26.06a2.062,2.062,0,0,0-1.472-.3l-.053-.05-5.523,3.08,4.134,14.14v24.989a7.005,7.005,0,0,0,2.914,5.567l7.242,4.181,11.779,27.141,17.184-9.3,2.163.128,2.894,7.336,5.363-3.122v-.012C1206.913,374.021,1207.49,373.126,1207.49,371.715Z" fill="#c9457b"/>
    <path id="Trazado_17270" data-name="Trazado 17270" d="M1201,303.942l-43.324-25.013c-9.049-5.224-16.453.373-16.453,12.438v31.1c0,12.065,7.4,26.212,16.453,31.436l5.757,3.324,9.692,20.054a4.032,4.032,0,0,0,6.362,1.212l8.01-7.373,13.5,7.8c9.049,5.225,16.453-.372,16.453-12.438v-31.1C1217.457,323.313,1210.053,309.167,1201,303.942Z" fill="#fff" stroke="#45446c" stroke-miterlimit="10" stroke-width="1.877"/>
    <path id="Trazado_17271" data-name="Trazado 17271" d="M1177.477,366.323" fill="#fff"/>
    <path id="Trazado_17272" data-name="Trazado 17272" d="M1174.308,305.538l-3.166,5.534a1.961,1.961,0,0,1-2.66.682l-7.081-2.908c-2.9-1.189-4.055,2.229-1.958,5.785l5.124,8.689a6.611,6.611,0,0,1,1.016,4.175l-1.209,7.394c-.495,3.026,2.534,7.3,5.126,7.233l6.333-.164a4.607,4.607,0,0,1,3.288,1.9l6.333,7.478c2.592,3.06,5.621,2.283,5.126-1.314l-1.21-8.791c-.2-1.429.184-2.551,1.016-3l5.124-2.773c2.1-1.134.94-5.889-1.958-8.045l-7.081-5.269a8.107,8.107,0,0,1-2.66-3.753l-3.167-9.191C1179.349,305.435,1175.6,303.273,1174.308,305.538Z" fill="#ebcd49"/>
    <g id="Grupo_18090" data-name="Grupo 18090">
      <path id="Trazado_17273" data-name="Trazado 17273" d="M1291.506,692.119c-12.22-24.689-56.793-38.985-99.555-31.93-37.823,6.24-61.556,27.093-58.078,48.912a27.909,27.909,0,0,0,2.777,17.041,39.323,39.323,0,0,0,6.628,9.371l-12.748,7.36a22.931,22.931,0,0,0-5.285-3.588c-4-1.906-7.453-1.758-9.769,0l0-.005-70.379,42.032h0c-2.59,1.486-4.045,4.7-3.686,9.232.676,8.534,7.49,18.438,15.221,22.12,3.431,1.634,6.462,1.762,8.717.659v0l.092-.055a6.306,6.306,0,0,0,.815-.488l69.876-41.807v0c3-1.3,4.724-4.668,4.336-9.567a21.107,21.107,0,0,0-.686-3.8l18.535-10.7c20,11.064,49.34,15.88,77.891,11.17,37.823-6.24,61.555-27.093,58.078-48.911A27.9,27.9,0,0,0,1291.506,692.119ZM1167.9,727.735q1.964,1.273,4.122,2.425Q1169.864,729.01,1167.9,727.735Zm102.354-10.867a25.6,25.6,0,0,0,2.527-4.861,25.6,25.6,0,0,1-2.527,4.861,30.918,30.918,0,0,1-2.337,3.091A30.918,30.918,0,0,0,1270.251,716.868ZM1183.835,735.1c1.521.488,3.083.932,4.672,1.344-1.589-.412-3.151-.856-4.672-1.344q-2.551-.819-4.963-1.776Q1181.28,734.28,1183.835,735.1Zm28.112,4.419c-2.992-.04-5.953-.208-8.862-.5C1205.994,739.31,1208.955,739.478,1211.947,739.518Zm18.145-1.351a78.686,78.686,0,0,0,25.865-8.676,78.686,78.686,0,0,1-25.865,8.676,102.333,102.333,0,0,1-12.128,1.258A102.333,102.333,0,0,0,1230.092,738.167Zm33.391-13.851q-1.656,1.391-3.541,2.687Q1261.826,725.709,1263.483,724.316Z" fill="#a8c4e5" opacity="0.4" style="mix-blend-mode: multiply;isolation: isolate"/>
      <g id="Grupo_18089" data-name="Grupo 18089">
        <path id="Trazado_17274" data-name="Trazado 17274" d="M1277.275,691.8c-12.22-24.689-56.793-38.985-99.555-31.93s-67.522,32.789-55.3,57.478,56.793,38.984,99.556,31.929S1289.5,716.489,1277.275,691.8Zm-136.624,21.926c-9.232-18.651,9.472-38.092,41.777-43.422s65.978,5.47,75.211,24.122-9.473,38.092-41.778,43.422S1149.883,732.378,1140.651,713.726Z" fill="#45446c"/>
        <path id="Trazado_17275" data-name="Trazado 17275" d="M1098.784,764.261,1081.4,754.226l59.734-34.487,17.381,10.035Z" fill="#a8c4e5"/>
        <path id="Trazado_17276" data-name="Trazado 17276" d="M1277.275,683.324c-12.22-24.689-56.793-38.984-99.555-31.93s-67.522,32.789-55.3,57.478,56.793,38.984,99.556,31.929S1289.5,708.013,1277.275,683.324ZM1140.651,705.25c-9.232-18.651,9.472-38.092,41.777-43.422s65.978,5.47,75.211,24.122-9.473,38.092-41.778,43.422S1149.883,723.9,1140.651,705.25Z" fill="#fff" stroke="#45446c" stroke-linecap="round" stroke-linejoin="round" stroke-width="1.877"/>
        <g id="Grupo_18088" data-name="Grupo 18088">
          <path id="Trazado_17277" data-name="Trazado 17277" d="M1127.232,754.234c-.676-8.534-7.491-18.438-15.221-22.12-4-1.906-7.453-1.757-9.769,0l0,0-70.378,42.031,20.253,32.013L1122.9,763.8v0C1125.893,762.505,1127.62,759.133,1127.232,754.234Z" fill="#fff" stroke="#45446c" stroke-linecap="round" stroke-linejoin="round" stroke-width="1.877"/>
          <ellipse id="Elipse_839" data-name="Elipse 839" cx="10.962" cy="18.986" rx="10.962" ry="18.986" transform="translate(1022.377 780.615) rotate(-34.54)" fill="#59a8ff"/>
        </g>
      </g>
      <path id="Trazado_17278" data-name="Trazado 17278" d="M1211.411,686.691l-45.361,4.445a4.239,4.239,0,0,1-4.631-3.8h0a4.239,4.239,0,0,1,3.805-4.632l45.361-4.445a4.239,4.239,0,0,1,4.631,3.8h0A4.238,4.238,0,0,1,1211.411,686.691Z" fill="#fff"/>
      <path id="Trazado_17279" data-name="Trazado 17279" d="M1211.79,699.6l-45.36,4.445a4.239,4.239,0,0,1-4.632-3.8h0a4.239,4.239,0,0,1,3.805-4.632l45.361-4.444a4.238,4.238,0,0,1,4.631,3.805h0A4.237,4.237,0,0,1,1211.79,699.6Z" fill="#fff"/>
    </g>
    <g id="Grupo_18092" data-name="Grupo 18092">
      <path id="Trazado_17280" data-name="Trazado 17280" d="M1017.222,489.968l38.192-21.695L1017.458,446.5,979.7,468.3Z" fill="#fff" stroke="#45446c" stroke-linecap="round" stroke-linejoin="round" stroke-width="1.877"/>
      <path id="Trazado_17281" data-name="Trazado 17281" d="M1055.1,468.236V596.174l-37.758,21.8V490.036Z" fill="#fff" stroke="#45446c" stroke-linecap="round" stroke-linejoin="round" stroke-width="1.877"/>
      <path id="Trazado_17282" data-name="Trazado 17282" d="M1017.211,490.036l.03,127.938-37.917-21.8V468.236Z" fill="#fff" stroke="#45446c" stroke-linecap="round" stroke-linejoin="round" stroke-width="1.877"/>
      <path id="Trazado_17283" data-name="Trazado 17283" d="M969.229,567.781l37.506-21.833-37.522-21.663-37.758,21.8Z" fill="#fff" stroke="#45446c" stroke-linecap="round" stroke-linejoin="round" stroke-width="1.877"/>
      <path id="Trazado_17284" data-name="Trazado 17284" d="M969.118,648.022l37.421-21.8V546.016l-37.421,21.8Z" fill="#fff" stroke="#45446c" stroke-linecap="round" stroke-linejoin="round" stroke-width="1.877"/>
      <path id="Trazado_17285" data-name="Trazado 17285" d="M969.118,648.022l-37.421-21.8V546.016l37.421,21.8Z" fill="#fff" stroke="#45446c" stroke-linecap="round" stroke-linejoin="round" stroke-width="1.877"/>
      <path id="Trazado_17286" data-name="Trazado 17286" d="M918.563,628.207l37.758-21.8L918.8,584.744l-37.758,21.8Z" fill="#fff" stroke="#45446c" stroke-linecap="round" stroke-linejoin="round" stroke-width="1.877"/>
      <path id="Trazado_17287" data-name="Trazado 17287" d="M919.224,679.192,880.67,656.08V606.5l38.555,21.8Z" fill="#fff" stroke="#45446c" stroke-linecap="round" stroke-linejoin="round" stroke-width="1.877"/>
      <g id="Grupo_18091" data-name="Grupo 18091">
        <path id="Trazado_17288" data-name="Trazado 17288" d="M918.507,679.1V628.206l37.758-21.8V657.3Z" fill="#fff" stroke="#45446c" stroke-linecap="round" stroke-linejoin="round" stroke-width="1.877"/>
      </g>
    </g>
    <path id="Trazado_17289" data-name="Trazado 17289" d="M1055.1,596.174l-37.758,21.8-.118-128.006,37.876-21.695Z" fill="#45446c" opacity="0.16"/>
    <path id="Trazado_17290" data-name="Trazado 17290" d="M1006.767,626.222l-37.758,21.8.22-80.24,37.506-21.833Z" fill="#45446c" opacity="0.16"/>
    <path id="Trazado_17291" data-name="Trazado 17291" d="M956.982,656.222l-37.758,21.8-.661-49.815,37.758-21.8Z" fill="#45446c" opacity="0.16"/>
    <g id="Grupo_18093" data-name="Grupo 18093">
      <path id="Trazado_17292" data-name="Trazado 17292" d="M1042.187,482.5a1.531,1.531,0,1,1-1.531-1.531A1.53,1.53,0,0,1,1042.187,482.5Z" fill="#45446c"/>
      <path id="Trazado_17293" data-name="Trazado 17293" d="M1047.875,479a1.531,1.531,0,1,1-1.531-1.531A1.531,1.531,0,0,1,1047.875,479Z" fill="#45446c"/>
      <path id="Trazado_17294" data-name="Trazado 17294" d="M1053.4,475.938a1.531,1.531,0,1,1-1.531-1.532A1.531,1.531,0,0,1,1053.4,475.938Z" fill="#45446c"/>
      <path id="Trazado_17295" data-name="Trazado 17295" d="M1042.187,490.188a1.531,1.531,0,1,1-1.531-1.532A1.531,1.531,0,0,1,1042.187,490.188Z" fill="#45446c"/>
      <path id="Trazado_17296" data-name="Trazado 17296" d="M1047.875,486.688a1.531,1.531,0,1,1-1.531-1.532A1.532,1.532,0,0,1,1047.875,486.688Z" fill="#45446c"/>
      <path id="Trazado_17297" data-name="Trazado 17297" d="M1053.4,483.625a1.531,1.531,0,1,1-1.531-1.531A1.53,1.53,0,0,1,1053.4,483.625Z" fill="#45446c"/>
      <path id="Trazado_17298" data-name="Trazado 17298" d="M1042.187,497.875a1.531,1.531,0,1,1-1.531-1.531A1.53,1.53,0,0,1,1042.187,497.875Z" fill="#45446c"/>
      <path id="Trazado_17299" data-name="Trazado 17299" d="M1047.875,494.375a1.531,1.531,0,1,1-1.531-1.531A1.531,1.531,0,0,1,1047.875,494.375Z" fill="#45446c"/>
      <path id="Trazado_17300" data-name="Trazado 17300" d="M1053.4,491.313a1.531,1.531,0,1,1-1.531-1.532A1.531,1.531,0,0,1,1053.4,491.313Z" fill="#45446c"/>
      <path id="Trazado_17301" data-name="Trazado 17301" d="M1042.187,505.563a1.531,1.531,0,1,1-1.531-1.532A1.531,1.531,0,0,1,1042.187,505.563Z" fill="#45446c"/>
      <path id="Trazado_17302" data-name="Trazado 17302" d="M1047.875,502.063a1.531,1.531,0,1,1-1.531-1.532A1.532,1.532,0,0,1,1047.875,502.063Z" fill="#45446c"/>
      <path id="Trazado_17303" data-name="Trazado 17303" d="M1053.4,499a1.531,1.531,0,1,1-1.531-1.531A1.53,1.53,0,0,1,1053.4,499Z" fill="#45446c"/>
      <path id="Trazado_17304" data-name="Trazado 17304" d="M1042.187,513.25a1.531,1.531,0,1,1-1.531-1.531A1.53,1.53,0,0,1,1042.187,513.25Z" fill="#45446c"/>
      <path id="Trazado_17305" data-name="Trazado 17305" d="M1047.875,509.75a1.531,1.531,0,1,1-1.531-1.531A1.531,1.531,0,0,1,1047.875,509.75Z" fill="#45446c"/>
      <path id="Trazado_17306" data-name="Trazado 17306" d="M1053.4,506.688a1.531,1.531,0,1,1-1.531-1.532A1.531,1.531,0,0,1,1053.4,506.688Z" fill="#45446c"/>
      <path id="Trazado_17307" data-name="Trazado 17307" d="M1042.187,520.938a1.531,1.531,0,1,1-1.531-1.532A1.531,1.531,0,0,1,1042.187,520.938Z" fill="#45446c"/>
      <path id="Trazado_17308" data-name="Trazado 17308" d="M1047.875,517.438a1.531,1.531,0,1,1-1.531-1.532A1.532,1.532,0,0,1,1047.875,517.438Z" fill="#45446c"/>
      <path id="Trazado_17309" data-name="Trazado 17309" d="M1053.4,514.375a1.531,1.531,0,1,1-1.531-1.531A1.53,1.53,0,0,1,1053.4,514.375Z" fill="#45446c"/>
      <path id="Trazado_17310" data-name="Trazado 17310" d="M1042.187,528.625a1.531,1.531,0,1,1-1.531-1.531A1.53,1.53,0,0,1,1042.187,528.625Z" fill="#45446c"/>
      <path id="Trazado_17311" data-name="Trazado 17311" d="M1047.875,525.125a1.531,1.531,0,1,1-1.531-1.531A1.531,1.531,0,0,1,1047.875,525.125Z" fill="#45446c"/>
      <path id="Trazado_17312" data-name="Trazado 17312" d="M1053.4,522.063a1.531,1.531,0,1,1-1.531-1.532A1.531,1.531,0,0,1,1053.4,522.063Z" fill="#45446c"/>
      <path id="Trazado_17313" data-name="Trazado 17313" d="M1042.187,536.313a1.531,1.531,0,1,1-1.531-1.532A1.531,1.531,0,0,1,1042.187,536.313Z" fill="#45446c"/>
      <path id="Trazado_17314" data-name="Trazado 17314" d="M1047.875,532.813a1.531,1.531,0,1,1-1.531-1.532A1.532,1.532,0,0,1,1047.875,532.813Z" fill="#45446c"/>
      <path id="Trazado_17315" data-name="Trazado 17315" d="M1053.4,529.75a1.531,1.531,0,1,1-1.531-1.531A1.53,1.53,0,0,1,1053.4,529.75Z" fill="#45446c"/>
      <path id="Trazado_17316" data-name="Trazado 17316" d="M1042.187,544a1.531,1.531,0,1,1-1.531-1.531A1.53,1.53,0,0,1,1042.187,544Z" fill="#45446c"/>
      <path id="Trazado_17317" data-name="Trazado 17317" d="M1047.875,540.5a1.531,1.531,0,1,1-1.531-1.531A1.531,1.531,0,0,1,1047.875,540.5Z" fill="#45446c"/>
      <path id="Trazado_17318" data-name="Trazado 17318" d="M1053.4,537.438a1.531,1.531,0,1,1-1.531-1.532A1.531,1.531,0,0,1,1053.4,537.438Z" fill="#45446c"/>
      <path id="Trazado_17319" data-name="Trazado 17319" d="M1042.187,551.688a1.531,1.531,0,1,1-1.531-1.532A1.531,1.531,0,0,1,1042.187,551.688Z" fill="#45446c"/>
      <path id="Trazado_17320" data-name="Trazado 17320" d="M1047.875,548.188a1.531,1.531,0,1,1-1.531-1.532A1.532,1.532,0,0,1,1047.875,548.188Z" fill="#45446c"/>
      <path id="Trazado_17321" data-name="Trazado 17321" d="M1053.4,545.125a1.531,1.531,0,1,1-1.531-1.531A1.53,1.53,0,0,1,1053.4,545.125Z" fill="#45446c"/>
      <path id="Trazado_17322" data-name="Trazado 17322" d="M1042.187,559.375a1.531,1.531,0,1,1-1.531-1.531A1.53,1.53,0,0,1,1042.187,559.375Z" fill="#45446c"/>
      <path id="Trazado_17323" data-name="Trazado 17323" d="M1047.875,555.875a1.531,1.531,0,1,1-1.531-1.531A1.531,1.531,0,0,1,1047.875,555.875Z" fill="#45446c"/>
      <path id="Trazado_17324" data-name="Trazado 17324" d="M1053.4,552.813a1.531,1.531,0,1,1-1.531-1.532A1.531,1.531,0,0,1,1053.4,552.813Z" fill="#45446c"/>
      <path id="Trazado_17325" data-name="Trazado 17325" d="M1042.187,567.063a1.531,1.531,0,1,1-1.531-1.532A1.531,1.531,0,0,1,1042.187,567.063Z" fill="#45446c"/>
      <path id="Trazado_17326" data-name="Trazado 17326" d="M1047.875,563.563a1.531,1.531,0,1,1-1.531-1.532A1.532,1.532,0,0,1,1047.875,563.563Z" fill="#45446c"/>
      <path id="Trazado_17327" data-name="Trazado 17327" d="M1053.4,560.5a1.531,1.531,0,1,1-1.531-1.531A1.53,1.53,0,0,1,1053.4,560.5Z" fill="#45446c"/>
      <path id="Trazado_17328" data-name="Trazado 17328" d="M1042.187,574.75a1.531,1.531,0,1,1-1.531-1.531A1.53,1.53,0,0,1,1042.187,574.75Z" fill="#45446c"/>
      <path id="Trazado_17329" data-name="Trazado 17329" d="M1047.875,571.25a1.531,1.531,0,1,1-1.531-1.531A1.531,1.531,0,0,1,1047.875,571.25Z" fill="#45446c"/>
      <path id="Trazado_17330" data-name="Trazado 17330" d="M1053.4,568.188a1.531,1.531,0,1,1-1.531-1.532A1.531,1.531,0,0,1,1053.4,568.188Z" fill="#45446c"/>
      <path id="Trazado_17331" data-name="Trazado 17331" d="M1042.187,582.438a1.531,1.531,0,1,1-1.531-1.532A1.531,1.531,0,0,1,1042.187,582.438Z" fill="#45446c"/>
      <path id="Trazado_17332" data-name="Trazado 17332" d="M1047.875,578.938a1.531,1.531,0,1,1-1.531-1.532A1.532,1.532,0,0,1,1047.875,578.938Z" fill="#45446c"/>
      <path id="Trazado_17333" data-name="Trazado 17333" d="M1053.4,575.875a1.531,1.531,0,1,1-1.531-1.531A1.53,1.53,0,0,1,1053.4,575.875Z" fill="#45446c"/>
      <path id="Trazado_17334" data-name="Trazado 17334" d="M1042.187,590.125a1.531,1.531,0,1,1-1.531-1.531A1.53,1.53,0,0,1,1042.187,590.125Z" fill="#45446c"/>
      <path id="Trazado_17335" data-name="Trazado 17335" d="M1047.875,586.625a1.531,1.531,0,1,1-1.531-1.531A1.531,1.531,0,0,1,1047.875,586.625Z" fill="#45446c"/>
      <path id="Trazado_17336" data-name="Trazado 17336" d="M1053.4,583.563a1.531,1.531,0,1,1-1.531-1.532A1.531,1.531,0,0,1,1053.4,583.563Z" fill="#45446c"/>
      <path id="Trazado_17337" data-name="Trazado 17337" d="M1042.187,597.813a1.531,1.531,0,1,1-1.531-1.532A1.531,1.531,0,0,1,1042.187,597.813Z" fill="#45446c"/>
      <path id="Trazado_17338" data-name="Trazado 17338" d="M1047.875,594.313a1.531,1.531,0,1,1-1.531-1.532A1.532,1.532,0,0,1,1047.875,594.313Z" fill="#45446c"/>
      <path id="Trazado_17339" data-name="Trazado 17339" d="M1053.4,591.25a1.531,1.531,0,1,1-1.531-1.531A1.53,1.53,0,0,1,1053.4,591.25Z" fill="#45446c"/>
    </g>
    <g id="Grupo_18094" data-name="Grupo 18094">
      <path id="Trazado_17340" data-name="Trazado 17340" d="M1118.132,751.212a1.531,1.531,0,1,1,.553-2.094A1.533,1.533,0,0,1,1118.132,751.212Z" fill="#45446c"/>
      <path id="Trazado_17341" data-name="Trazado 17341" d="M1124.017,754.367a1.531,1.531,0,1,1,.554-2.094A1.532,1.532,0,0,1,1124.017,754.367Z" fill="#45446c"/>
      <path id="Trazado_17342" data-name="Trazado 17342" d="M1111.488,755.079a1.531,1.531,0,1,1,.553-2.094A1.533,1.533,0,0,1,1111.488,755.079Z" fill="#45446c"/>
      <path id="Trazado_17343" data-name="Trazado 17343" d="M1117.373,758.234a1.531,1.531,0,1,1,.553-2.094A1.531,1.531,0,0,1,1117.373,758.234Z" fill="#45446c"/>
      <path id="Trazado_17344" data-name="Trazado 17344" d="M1122.8,761.468a1.531,1.531,0,1,1,.553-2.094A1.533,1.533,0,0,1,1122.8,761.468Z" fill="#45446c"/>
      <path id="Trazado_17345" data-name="Trazado 17345" d="M1104.844,758.946a1.531,1.531,0,1,1,.553-2.094A1.532,1.532,0,0,1,1104.844,758.946Z" fill="#45446c"/>
      <path id="Trazado_17346" data-name="Trazado 17346" d="M1110.729,762.1a1.531,1.531,0,1,1,.553-2.094A1.531,1.531,0,0,1,1110.729,762.1Z" fill="#45446c"/>
      <path id="Trazado_17347" data-name="Trazado 17347" d="M1116.155,765.335a1.531,1.531,0,1,1,.553-2.094A1.532,1.532,0,0,1,1116.155,765.335Z" fill="#45446c"/>
      <path id="Trazado_17348" data-name="Trazado 17348" d="M1098.2,762.813a1.531,1.531,0,1,1,.553-2.094A1.533,1.533,0,0,1,1098.2,762.813Z" fill="#45446c"/>
      <path id="Trazado_17349" data-name="Trazado 17349" d="M1104.085,765.968a1.531,1.531,0,1,1,.554-2.094A1.531,1.531,0,0,1,1104.085,765.968Z" fill="#45446c"/>
      <path id="Trazado_17350" data-name="Trazado 17350" d="M1109.511,769.2a1.531,1.531,0,1,1,.553-2.093A1.531,1.531,0,0,1,1109.511,769.2Z" fill="#45446c"/>
      <path id="Trazado_17351" data-name="Trazado 17351" d="M1091.556,766.68a1.531,1.531,0,1,1,.553-2.094A1.532,1.532,0,0,1,1091.556,766.68Z" fill="#45446c"/>
      <path id="Trazado_17352" data-name="Trazado 17352" d="M1097.441,769.835a1.531,1.531,0,1,1,.553-2.094A1.531,1.531,0,0,1,1097.441,769.835Z" fill="#45446c"/>
      <path id="Trazado_17353" data-name="Trazado 17353" d="M1102.867,773.068a1.531,1.531,0,1,1,.553-2.093A1.531,1.531,0,0,1,1102.867,773.068Z" fill="#45446c"/>
      <path id="Trazado_17354" data-name="Trazado 17354" d="M1084.912,770.547a1.531,1.531,0,1,1,.553-2.094A1.532,1.532,0,0,1,1084.912,770.547Z" fill="#45446c"/>
      <path id="Trazado_17355" data-name="Trazado 17355" d="M1090.8,773.7a1.531,1.531,0,1,1,.553-2.093A1.53,1.53,0,0,1,1090.8,773.7Z" fill="#45446c"/>
      <path id="Trazado_17356" data-name="Trazado 17356" d="M1096.222,776.935a1.531,1.531,0,1,1,.554-2.093A1.53,1.53,0,0,1,1096.222,776.935Z" fill="#45446c"/>
      <path id="Trazado_17357" data-name="Trazado 17357" d="M1078.268,774.414a1.531,1.531,0,1,1,.553-2.094A1.532,1.532,0,0,1,1078.268,774.414Z" fill="#45446c"/>
      <path id="Trazado_17358" data-name="Trazado 17358" d="M1084.153,777.568a1.531,1.531,0,1,1,.553-2.093A1.53,1.53,0,0,1,1084.153,777.568Z" fill="#45446c"/>
      <path id="Trazado_17359" data-name="Trazado 17359" d="M1089.578,780.8a1.531,1.531,0,1,1,.554-2.093A1.53,1.53,0,0,1,1089.578,780.8Z" fill="#45446c"/>
      <path id="Trazado_17360" data-name="Trazado 17360" d="M1071.624,778.281a1.531,1.531,0,1,1,.553-2.094A1.532,1.532,0,0,1,1071.624,778.281Z" fill="#45446c"/>
      <path id="Trazado_17361" data-name="Trazado 17361" d="M1077.509,781.435a1.531,1.531,0,1,1,.553-2.093A1.531,1.531,0,0,1,1077.509,781.435Z" fill="#45446c"/>
      <path id="Trazado_17362" data-name="Trazado 17362" d="M1082.934,784.669a1.531,1.531,0,1,1,.554-2.093A1.53,1.53,0,0,1,1082.934,784.669Z" fill="#45446c"/>
      <path id="Trazado_17363" data-name="Trazado 17363" d="M1064.979,782.147a1.531,1.531,0,1,1,.554-2.093A1.53,1.53,0,0,1,1064.979,782.147Z" fill="#45446c"/>
      <path id="Trazado_17364" data-name="Trazado 17364" d="M1070.865,785.3a1.531,1.531,0,1,1,.553-2.093A1.531,1.531,0,0,1,1070.865,785.3Z" fill="#45446c"/>
      <path id="Trazado_17365" data-name="Trazado 17365" d="M1076.29,788.536a1.531,1.531,0,1,1,.554-2.093A1.53,1.53,0,0,1,1076.29,788.536Z" fill="#45446c"/>
      <path id="Trazado_17366" data-name="Trazado 17366" d="M1058.335,786.014a1.531,1.531,0,1,1,.554-2.093A1.53,1.53,0,0,1,1058.335,786.014Z" fill="#45446c"/>
      <path id="Trazado_17367" data-name="Trazado 17367" d="M1064.221,789.169a1.531,1.531,0,1,1,.553-2.093A1.531,1.531,0,0,1,1064.221,789.169Z" fill="#45446c"/>
      <path id="Trazado_17368" data-name="Trazado 17368" d="M1069.646,792.4a1.531,1.531,0,1,1,.554-2.093A1.53,1.53,0,0,1,1069.646,792.4Z" fill="#45446c"/>
      <path id="Trazado_17369" data-name="Trazado 17369" d="M1057.577,793.036a1.531,1.531,0,1,1,.553-2.093A1.531,1.531,0,0,1,1057.577,793.036Z" fill="#45446c"/>
      <path id="Trazado_17370" data-name="Trazado 17370" d="M1063,796.27a1.531,1.531,0,1,1,.554-2.093A1.53,1.53,0,0,1,1063,796.27Z" fill="#45446c"/>
      <path id="Trazado_17371" data-name="Trazado 17371" d="M1056.358,800.137a1.531,1.531,0,1,1,.554-2.093A1.53,1.53,0,0,1,1056.358,800.137Z" fill="#45446c"/>
    </g>
    <g id="Grupo_18095" data-name="Grupo 18095">
      <path id="Trazado_17372" data-name="Trazado 17372" d="M992.312,560.75a1.531,1.531,0,1,1-1.531-1.531A1.53,1.53,0,0,1,992.312,560.75Z" fill="#45446c"/>
      <path id="Trazado_17373" data-name="Trazado 17373" d="M998,557.25a1.531,1.531,0,1,1-1.531-1.531A1.531,1.531,0,0,1,998,557.25Z" fill="#45446c"/>
      <path id="Trazado_17374" data-name="Trazado 17374" d="M1003.524,554.188a1.531,1.531,0,1,1-1.531-1.532A1.531,1.531,0,0,1,1003.524,554.188Z" fill="#45446c"/>
      <path id="Trazado_17375" data-name="Trazado 17375" d="M992.312,568.438a1.531,1.531,0,1,1-1.531-1.532A1.531,1.531,0,0,1,992.312,568.438Z" fill="#45446c"/>
      <path id="Trazado_17376" data-name="Trazado 17376" d="M998,564.938a1.531,1.531,0,1,1-1.531-1.532A1.532,1.532,0,0,1,998,564.938Z" fill="#45446c"/>
      <path id="Trazado_17377" data-name="Trazado 17377" d="M1003.524,561.875a1.531,1.531,0,1,1-1.531-1.531A1.53,1.53,0,0,1,1003.524,561.875Z" fill="#45446c"/>
      <path id="Trazado_17378" data-name="Trazado 17378" d="M992.312,576.125a1.531,1.531,0,1,1-1.531-1.531A1.53,1.53,0,0,1,992.312,576.125Z" fill="#45446c"/>
      <path id="Trazado_17379" data-name="Trazado 17379" d="M998,572.625a1.531,1.531,0,1,1-1.531-1.531A1.531,1.531,0,0,1,998,572.625Z" fill="#45446c"/>
      <path id="Trazado_17380" data-name="Trazado 17380" d="M1003.524,569.563a1.531,1.531,0,1,1-1.531-1.532A1.531,1.531,0,0,1,1003.524,569.563Z" fill="#45446c"/>
      <path id="Trazado_17381" data-name="Trazado 17381" d="M992.312,583.813a1.531,1.531,0,1,1-1.531-1.532A1.531,1.531,0,0,1,992.312,583.813Z" fill="#45446c"/>
      <path id="Trazado_17382" data-name="Trazado 17382" d="M998,580.313a1.531,1.531,0,1,1-1.531-1.532A1.532,1.532,0,0,1,998,580.313Z" fill="#45446c"/>
      <path id="Trazado_17383" data-name="Trazado 17383" d="M1003.524,577.25a1.531,1.531,0,1,1-1.531-1.531A1.53,1.53,0,0,1,1003.524,577.25Z" fill="#45446c"/>
      <path id="Trazado_17384" data-name="Trazado 17384" d="M992.312,591.5a1.531,1.531,0,1,1-1.531-1.531A1.53,1.53,0,0,1,992.312,591.5Z" fill="#45446c"/>
      <path id="Trazado_17385" data-name="Trazado 17385" d="M998,588a1.531,1.531,0,1,1-1.531-1.531A1.531,1.531,0,0,1,998,588Z" fill="#45446c"/>
      <path id="Trazado_17386" data-name="Trazado 17386" d="M1003.524,584.938a1.531,1.531,0,1,1-1.531-1.532A1.531,1.531,0,0,1,1003.524,584.938Z" fill="#45446c"/>
      <path id="Trazado_17387" data-name="Trazado 17387" d="M992.312,599.188a1.531,1.531,0,1,1-1.531-1.532A1.531,1.531,0,0,1,992.312,599.188Z" fill="#45446c"/>
      <path id="Trazado_17388" data-name="Trazado 17388" d="M998,595.688a1.531,1.531,0,1,1-1.531-1.532A1.532,1.532,0,0,1,998,595.688Z" fill="#45446c"/>
      <path id="Trazado_17389" data-name="Trazado 17389" d="M1003.524,592.625a1.531,1.531,0,1,1-1.531-1.531A1.53,1.53,0,0,1,1003.524,592.625Z" fill="#45446c"/>
      <path id="Trazado_17390" data-name="Trazado 17390" d="M992.312,606.875a1.531,1.531,0,1,1-1.531-1.531A1.53,1.53,0,0,1,992.312,606.875Z" fill="#45446c"/>
      <path id="Trazado_17391" data-name="Trazado 17391" d="M998,603.375a1.531,1.531,0,1,1-1.531-1.531A1.531,1.531,0,0,1,998,603.375Z" fill="#45446c"/>
      <path id="Trazado_17392" data-name="Trazado 17392" d="M1003.524,600.313a1.531,1.531,0,1,1-1.531-1.532A1.531,1.531,0,0,1,1003.524,600.313Z" fill="#45446c"/>
      <path id="Trazado_17393" data-name="Trazado 17393" d="M992.312,614.563a1.531,1.531,0,1,1-1.531-1.532A1.531,1.531,0,0,1,992.312,614.563Z" fill="#45446c"/>
      <path id="Trazado_17394" data-name="Trazado 17394" d="M998,611.063a1.531,1.531,0,1,1-1.531-1.532A1.532,1.532,0,0,1,998,611.063Z" fill="#45446c"/>
      <path id="Trazado_17395" data-name="Trazado 17395" d="M1003.524,608a1.531,1.531,0,1,1-1.531-1.531A1.53,1.53,0,0,1,1003.524,608Z" fill="#45446c"/>
      <path id="Trazado_17396" data-name="Trazado 17396" d="M992.312,622.25a1.531,1.531,0,1,1-1.531-1.531A1.53,1.53,0,0,1,992.312,622.25Z" fill="#45446c"/>
      <path id="Trazado_17397" data-name="Trazado 17397" d="M998,618.75a1.531,1.531,0,1,1-1.531-1.531A1.531,1.531,0,0,1,998,618.75Z" fill="#45446c"/>
      <path id="Trazado_17398" data-name="Trazado 17398" d="M1003.524,615.688a1.531,1.531,0,1,1-1.531-1.532A1.531,1.531,0,0,1,1003.524,615.688Z" fill="#45446c"/>
      <path id="Trazado_17399" data-name="Trazado 17399" d="M992.312,629.938a1.531,1.531,0,1,1-1.531-1.532A1.531,1.531,0,0,1,992.312,629.938Z" fill="#45446c"/>
      <path id="Trazado_17400" data-name="Trazado 17400" d="M998,626.438a1.531,1.531,0,1,1-1.531-1.532A1.532,1.532,0,0,1,998,626.438Z" fill="#45446c"/>
      <path id="Trazado_17401" data-name="Trazado 17401" d="M1003.524,623.375a1.531,1.531,0,1,1-1.531-1.531A1.53,1.53,0,0,1,1003.524,623.375Z" fill="#45446c"/>
    </g>
    <g id="Grupo_18096" data-name="Grupo 18096">
      <path id="Trazado_17402" data-name="Trazado 17402" d="M941.656,622.25a1.531,1.531,0,1,1-1.531-1.531A1.531,1.531,0,0,1,941.656,622.25Z" fill="#45446c"/>
      <path id="Trazado_17403" data-name="Trazado 17403" d="M947.343,618.75a1.531,1.531,0,1,1-1.531-1.531A1.53,1.53,0,0,1,947.343,618.75Z" fill="#45446c"/>
      <path id="Trazado_17404" data-name="Trazado 17404" d="M952.868,615.688a1.531,1.531,0,1,1-1.531-1.532A1.532,1.532,0,0,1,952.868,615.688Z" fill="#45446c"/>
      <path id="Trazado_17405" data-name="Trazado 17405" d="M941.656,629.938a1.531,1.531,0,1,1-1.531-1.532A1.532,1.532,0,0,1,941.656,629.938Z" fill="#45446c"/>
      <path id="Trazado_17406" data-name="Trazado 17406" d="M947.343,626.438a1.531,1.531,0,1,1-1.531-1.532A1.531,1.531,0,0,1,947.343,626.438Z" fill="#45446c"/>
      <path id="Trazado_17407" data-name="Trazado 17407" d="M952.868,623.375a1.531,1.531,0,1,1-1.531-1.531A1.531,1.531,0,0,1,952.868,623.375Z" fill="#45446c"/>
      <path id="Trazado_17408" data-name="Trazado 17408" d="M941.656,637.625a1.531,1.531,0,1,1-1.531-1.531A1.531,1.531,0,0,1,941.656,637.625Z" fill="#45446c"/>
      <path id="Trazado_17409" data-name="Trazado 17409" d="M947.343,634.125a1.531,1.531,0,1,1-1.531-1.531A1.53,1.53,0,0,1,947.343,634.125Z" fill="#45446c"/>
      <path id="Trazado_17410" data-name="Trazado 17410" d="M952.868,631.063a1.531,1.531,0,1,1-1.531-1.532A1.532,1.532,0,0,1,952.868,631.063Z" fill="#45446c"/>
      <path id="Trazado_17411" data-name="Trazado 17411" d="M941.656,645.313a1.531,1.531,0,1,1-1.531-1.532A1.532,1.532,0,0,1,941.656,645.313Z" fill="#45446c"/>
      <path id="Trazado_17412" data-name="Trazado 17412" d="M947.343,641.813a1.531,1.531,0,1,1-1.531-1.532A1.531,1.531,0,0,1,947.343,641.813Z" fill="#45446c"/>
      <path id="Trazado_17413" data-name="Trazado 17413" d="M952.868,638.75a1.531,1.531,0,1,1-1.531-1.531A1.531,1.531,0,0,1,952.868,638.75Z" fill="#45446c"/>
      <path id="Trazado_17414" data-name="Trazado 17414" d="M941.656,653a1.531,1.531,0,1,1-1.531-1.531A1.531,1.531,0,0,1,941.656,653Z" fill="#45446c"/>
      <path id="Trazado_17415" data-name="Trazado 17415" d="M947.343,649.5a1.531,1.531,0,1,1-1.531-1.531A1.53,1.53,0,0,1,947.343,649.5Z" fill="#45446c"/>
      <path id="Trazado_17416" data-name="Trazado 17416" d="M952.868,646.438a1.531,1.531,0,1,1-1.531-1.532A1.532,1.532,0,0,1,952.868,646.438Z" fill="#45446c"/>
      <path id="Trazado_17417" data-name="Trazado 17417" d="M941.656,660.688a1.531,1.531,0,1,1-1.531-1.532A1.532,1.532,0,0,1,941.656,660.688Z" fill="#45446c"/>
      <path id="Trazado_17418" data-name="Trazado 17418" d="M947.343,657.188a1.531,1.531,0,1,1-1.531-1.532A1.531,1.531,0,0,1,947.343,657.188Z" fill="#45446c"/>
      <path id="Trazado_17419" data-name="Trazado 17419" d="M952.868,654.125a1.531,1.531,0,1,1-1.531-1.531A1.531,1.531,0,0,1,952.868,654.125Z" fill="#45446c"/>
    </g>
    <path id="Trazado_17420" data-name="Trazado 17420" d="M918.507,679.1l47.972,28.718,141.453-81.38L1055.1,596.174Z" fill="#a8c4e5" opacity="0.4" style="mix-blend-mode: multiply;isolation: isolate"/>
  </g>
</svg>
