<svg xmlns="http://www.w3.org/2000/svg" width="824.121" height="421.176" viewBox="0 0 824.121 421.176">
  <g id="Grupo_18069" data-name="Grupo 18069" transform="translate(-2906.879 2870)">
    <path id="Trazado_17222" data-name="Trazado 17222" d="M0,0H360V151H0Z" transform="translate(2991 -2870)" fill="#df6448"/>
    <path id="Trazado_17223" data-name="Trazado 17223" d="M0,0H360V151H0Z" transform="translate(2991 -2692)" fill="#b52426"/>
    <path id="Trazado_17224" data-name="Trazado 17224" d="M0,0H360V151H0Z" transform="translate(3371 -2870)" fill="#d64626"/>
    <path id="Trazado_17225" data-name="Trazado 17225" d="M0,0H360V151H0Z" transform="translate(3371 -2692)" fill="#97181a"/>
    <path id="Trazado_17226" data-name="Trazado 17226" d="M115.915,17V4.3h4.6a7.166,7.166,0,0,1,2.65.457,4.881,4.881,0,0,1,1.9,1.3,5.64,5.64,0,0,1,1.125,2,8.255,8.255,0,0,1,.382,2.593,8.286,8.286,0,0,1-.382,2.6,5.64,5.64,0,0,1-1.125,2,4.881,4.881,0,0,1-1.9,1.3,7.166,7.166,0,0,1-2.65.457Zm2.637-2.329h1.828a3.12,3.12,0,0,0,2.566-1.033,4.629,4.629,0,0,0,.844-2.993,4.629,4.629,0,0,0-.844-2.993A3.12,3.12,0,0,0,120.38,6.62h-1.828ZM130,6.611a1.421,1.421,0,0,1-1.037-.426,1.4,1.4,0,0,1-.431-1.033,1.382,1.382,0,0,1,.435-1.024A1.425,1.425,0,0,1,130,3.7a1.463,1.463,0,0,1,1.45,1.45A1.463,1.463,0,0,1,130,6.611ZM128.7,17V7.965h2.549V17ZM138.969,5.521h-.053q-.246,0-.374,0t-.36.031a1.459,1.459,0,0,0-.365.079,1.859,1.859,0,0,0-.3.163.809.809,0,0,0-.264.264,1.593,1.593,0,0,0-.158.391,2.042,2.042,0,0,0-.066.545v.967h1.942V9.907h-1.942V17H134.5V9.907h-1.767V7.965H134.5V6.989a5.284,5.284,0,0,1,.114-1.151,3.5,3.5,0,0,1,.308-.875,2.047,2.047,0,0,1,.514-.628,3.034,3.034,0,0,1,.668-.422,3.817,3.817,0,0,1,.831-.255,7.285,7.285,0,0,1,.954-.127q.47-.031,1.077-.031Zm9.9,6.829-.026.606h-6.7a2.339,2.339,0,0,0,.721,1.652,2.3,2.3,0,0,0,1.591.571,2.221,2.221,0,0,0,1.191-.312,1.918,1.918,0,0,0,.76-.91l2.32.343a3.945,3.945,0,0,1-1.582,2.118,4.7,4.7,0,0,1-2.672.756,4.891,4.891,0,0,1-3.52-1.244,4.538,4.538,0,0,1-1.305-3.45,4.565,4.565,0,0,1,1.31-3.45,4.746,4.746,0,0,1,3.437-1.261,4.536,4.536,0,0,1,3.243,1.151A4.517,4.517,0,0,1,148.865,12.351Zm-4.456-2.786a2,2,0,0,0-2.2,1.74h4.148a1.9,1.9,0,0,0-.624-1.292A1.978,1.978,0,0,0,144.409,9.564Zm8.807-.167A2.933,2.933,0,0,1,154.4,8.312a3.62,3.62,0,0,1,1.767-.453v2.259a3.423,3.423,0,0,0-2.162.545,2.379,2.379,0,0,0-.668,1.934V17H150.79V7.965h2.426ZM166.1,12.351l-.026.606h-6.7a2.339,2.339,0,0,0,.721,1.652,2.3,2.3,0,0,0,1.591.571,2.221,2.221,0,0,0,1.191-.312,1.918,1.918,0,0,0,.76-.91l2.32.343a3.945,3.945,0,0,1-1.582,2.118,4.7,4.7,0,0,1-2.672.756,4.891,4.891,0,0,1-3.52-1.244,4.538,4.538,0,0,1-1.305-3.45,4.565,4.565,0,0,1,1.31-3.45,4.746,4.746,0,0,1,3.437-1.261,4.536,4.536,0,0,1,3.243,1.151A4.517,4.517,0,0,1,166.1,12.351Zm-4.456-2.786a2,2,0,0,0-2.2,1.74H163.6a1.9,1.9,0,0,0-.624-1.292A1.978,1.978,0,0,0,161.645,9.564ZM173.36,7.789a3.522,3.522,0,0,1,2.5.813,3.014,3.014,0,0,1,.87,2.316V17h-2.54V11.463a1.574,1.574,0,0,0-.453-1.248,1.705,1.705,0,0,0-1.165-.4,2.379,2.379,0,0,0-.756.114,1.942,1.942,0,0,0-.633.356,1.573,1.573,0,0,0-.453.681,3.15,3.15,0,0,0-.171,1.046V17h-2.531V7.965h2.531v1A3.481,3.481,0,0,1,173.36,7.789Zm9.905,9.378a4.827,4.827,0,0,1-3.489-1.3,4.493,4.493,0,0,1-1.354-3.393,4.483,4.483,0,0,1,1.349-3.393,5.364,5.364,0,0,1,6.42-.422,3.885,3.885,0,0,1,1.512,2.452l-2.338.255a2,2,0,0,0-.756-1.187,2.3,2.3,0,0,0-1.371-.4,2.072,2.072,0,0,0-1.652.738,2.894,2.894,0,0,0-.633,1.951,2.9,2.9,0,0,0,.633,1.947,2.067,2.067,0,0,0,1.652.743,2.278,2.278,0,0,0,1.367-.4,2.05,2.05,0,0,0,.76-1.187l2.338.255a3.9,3.9,0,0,1-1.525,2.452A4.8,4.8,0,0,1,183.266,17.167ZM190.8,6.611a1.421,1.421,0,0,1-1.037-.426,1.4,1.4,0,0,1-.431-1.033,1.382,1.382,0,0,1,.435-1.024A1.425,1.425,0,0,1,190.8,3.7a1.463,1.463,0,0,1,1.45,1.45,1.463,1.463,0,0,1-1.45,1.459ZM189.506,17V7.965h2.549V17Zm12.577-2.452a8.453,8.453,0,0,0,.22,2.206V17h-2.364l-.2-.984a2.938,2.938,0,0,1-1.266.87,4.664,4.664,0,0,1-1.635.29,4.3,4.3,0,0,1-.844-.079,2.868,2.868,0,0,1-.76-.268,2.307,2.307,0,0,1-.628-.47,2.062,2.062,0,0,1-.422-.716,2.853,2.853,0,0,1-.158-.98,2.718,2.718,0,0,1,.167-.98,2.3,2.3,0,0,1,.439-.734,2.666,2.666,0,0,1,.712-.536,5.447,5.447,0,0,1,.9-.387,10.712,10.712,0,0,1,1.072-.281l1.485-.334a1.638,1.638,0,0,0,.672-.286.57.57,0,0,0,.2-.453.932.932,0,0,0-.444-.87,2.073,2.073,0,0,0-1.077-.264,1.549,1.549,0,0,0-1.767,1.38l-2.241-.4a3.034,3.034,0,0,1,1.31-2.061,5.2,5.2,0,0,1,2.839-.664q3.8,0,3.8,3.261Zm-4.456.914a2.036,2.036,0,0,0,1.564-.655,2.759,2.759,0,0,0,.606-1.938l-2.145.606a2.534,2.534,0,0,0-.9.369.758.758,0,0,0-.312.65.842.842,0,0,0,.334.716A1.382,1.382,0,0,0,197.627,15.462Zm10.8,1.705a4.827,4.827,0,0,1-3.489-1.3,4.493,4.493,0,0,1-1.354-3.393,4.483,4.483,0,0,1,1.349-3.393,5.364,5.364,0,0,1,6.42-.422,3.885,3.885,0,0,1,1.512,2.452l-2.338.255a2,2,0,0,0-.756-1.187,2.3,2.3,0,0,0-1.371-.4,2.072,2.072,0,0,0-1.652.738,2.894,2.894,0,0,0-.633,1.951,2.9,2.9,0,0,0,.633,1.947,2.067,2.067,0,0,0,1.652.743,2.278,2.278,0,0,0,1.367-.4,2.05,2.05,0,0,0,.76-1.187l2.338.255a3.9,3.9,0,0,1-1.525,2.452A4.8,4.8,0,0,1,208.429,17.167Zm7.532-10.556a1.421,1.421,0,0,1-1.037-.426,1.4,1.4,0,0,1-.431-1.033,1.382,1.382,0,0,1,.435-1.024,1.425,1.425,0,0,1,1.033-.426,1.463,1.463,0,0,1,1.45,1.45,1.463,1.463,0,0,1-1.45,1.459ZM214.669,17V7.965h2.549V17Zm8.6-10.266,2.3-3.234,1.248.879-2,2.355Zm.782,10.441a5.681,5.681,0,0,1-2.558-.554A4.138,4.138,0,0,1,219.736,15a4.846,4.846,0,0,1-.637-2.522,4.42,4.42,0,0,1,1.371-3.428,5.731,5.731,0,0,1,7.163,0A4.42,4.42,0,0,1,229,12.474a4.444,4.444,0,0,1-1.371,3.441A5.088,5.088,0,0,1,224.047,17.176Zm-.026-2.013a2.319,2.319,0,0,0,1.789-.738,2.764,2.764,0,0,0,.681-1.951,2.764,2.764,0,0,0-.681-1.951,2.319,2.319,0,0,0-1.789-.738,2.234,2.234,0,0,0-1.736.743,2.789,2.789,0,0,0-.672,1.947,2.789,2.789,0,0,0,.672,1.947A2.234,2.234,0,0,0,224.021,15.163Zm12.2-7.374a3.522,3.522,0,0,1,2.5.813,3.014,3.014,0,0,1,.87,2.316V17h-2.54V11.463a1.574,1.574,0,0,0-.453-1.248,1.705,1.705,0,0,0-1.165-.4,2.379,2.379,0,0,0-.756.114,1.942,1.942,0,0,0-.633.356,1.573,1.573,0,0,0-.453.681,3.15,3.15,0,0,0-.171,1.046V17h-2.531V7.965h2.531v1A3.481,3.481,0,0,1,236.22,7.789Z" transform="translate(2991 -2806)" fill="#fff"/>
    <path id="Trazado_17227" data-name="Trazado 17227" d="M78.087,17.176a6.136,6.136,0,0,1-3.524-.971,3.9,3.9,0,0,1-1.714-2.72l2.725-.624a2.314,2.314,0,0,0,.839,1.6,2.785,2.785,0,0,0,1.78.558,2.3,2.3,0,0,0,1.389-.391,1.319,1.319,0,0,0,.527-1.156,1.233,1.233,0,0,0-.448-.94,2.929,2.929,0,0,0-.892-.576q-.444-.171-1.428-.47-.132-.044-.193-.062-.5-.158-.809-.264t-.76-.294a5.063,5.063,0,0,1-.738-.369,5.405,5.405,0,0,1-.611-.457,2.394,2.394,0,0,1-.51-.584,3.1,3.1,0,0,1-.308-.729,3.219,3.219,0,0,1-.123-.905,3.4,3.4,0,0,1,.593-2,3.633,3.633,0,0,1,1.6-1.274,5.822,5.822,0,0,1,2.29-.426,7.233,7.233,0,0,1,1.657.185,5.8,5.8,0,0,1,1.481.567A3.628,3.628,0,0,1,82.09,5.921a3.933,3.933,0,0,1,.672,1.542L80.214,8.1a2.065,2.065,0,0,0-2.285-1.819,2.5,2.5,0,0,0-1.415.369,1.251,1.251,0,0,0-.554,1.116q0,.694.923,1.125a13.752,13.752,0,0,0,1.767.606q.519.158.844.264t.817.308a5.68,5.68,0,0,1,.8.391,5.918,5.918,0,0,1,.668.488,2.627,2.627,0,0,1,.567.633,3.422,3.422,0,0,1,.347.787,3.288,3.288,0,0,1,.141.98,3.85,3.85,0,0,1-.255,1.433,3.118,3.118,0,0,1-.7,1.081,4.058,4.058,0,0,1-1.05.743,5.1,5.1,0,0,1-1.292.439A7.431,7.431,0,0,1,78.087,17.176Zm15.346-4.825-.026.606h-6.7a2.339,2.339,0,0,0,.721,1.652,2.3,2.3,0,0,0,1.591.571,2.221,2.221,0,0,0,1.191-.312,1.918,1.918,0,0,0,.76-.91l2.32.343A3.945,3.945,0,0,1,91.71,16.42a4.7,4.7,0,0,1-2.672.756,4.891,4.891,0,0,1-3.52-1.244,4.538,4.538,0,0,1-1.305-3.45,4.565,4.565,0,0,1,1.31-3.45,4.746,4.746,0,0,1,3.437-1.261A4.536,4.536,0,0,1,92.2,8.923,4.517,4.517,0,0,1,93.433,12.351ZM88.977,9.564a2,2,0,0,0-2.2,1.74h4.148a1.9,1.9,0,0,0-.624-1.292A1.978,1.978,0,0,0,88.977,9.564Zm12.6-1.6h2.408v8.358a6.759,6.759,0,0,1-.338,2.25,3.711,3.711,0,0,1-.98,1.542,4.085,4.085,0,0,1-1.5.866,6.336,6.336,0,0,1-1.969.281q-3.577,0-4.658-2.8l2.1-.9a3.065,3.065,0,0,0,.976,1.31,2.487,2.487,0,0,0,1.485.422q2.347,0,2.347-2.786V15.453a2.846,2.846,0,0,1-1.138.892,3.784,3.784,0,0,1-1.6.338,4.046,4.046,0,0,1-2.9-1.217,4.174,4.174,0,0,1-.892-1.419,5.247,5.247,0,0,1,0-3.661,4.006,4.006,0,0,1,.9-1.4,4.125,4.125,0,0,1,1.318-.879,4.069,4.069,0,0,1,1.6-.316,3.674,3.674,0,0,1,1.674.374,2.67,2.67,0,0,1,1.121,1ZM97.7,13.941a2.319,2.319,0,0,0,3.318-.009,2.526,2.526,0,0,0,0-3.437,2.34,2.34,0,0,0-3.331-.013,2.4,2.4,0,0,0-.664,1.736A2.379,2.379,0,0,0,97.7,13.941Zm19.622-6.152a3.452,3.452,0,0,1,2.329.734,2.626,2.626,0,0,1,.853,2.1V17h-2.531V11.349a1.509,1.509,0,0,0-.4-1.143,1.416,1.416,0,0,0-1.02-.387,1.633,1.633,0,0,0-1.23.492,2.235,2.235,0,0,0-.475,1.591V17h-2.558V11.375a1.549,1.549,0,0,0-.4-1.165,1.441,1.441,0,0,0-1.046-.391,1.581,1.581,0,0,0-1.222.519,2.476,2.476,0,0,0-.475,1.7V17h-2.522V7.965h2.522V9.028a3.072,3.072,0,0,1,2.619-1.239,3.863,3.863,0,0,1,1.7.347,2.315,2.315,0,0,1,1.068,1.006A3.2,3.2,0,0,1,117.321,7.789Zm14.142,4.562-.026.606h-6.7a2.339,2.339,0,0,0,.721,1.652,2.3,2.3,0,0,0,1.591.571,2.221,2.221,0,0,0,1.191-.312,1.918,1.918,0,0,0,.76-.91l2.32.343a3.945,3.945,0,0,1-1.582,2.118,4.7,4.7,0,0,1-2.672.756,4.891,4.891,0,0,1-3.52-1.244,4.538,4.538,0,0,1-1.305-3.45,4.565,4.565,0,0,1,1.31-3.45,4.746,4.746,0,0,1,3.437-1.261,4.536,4.536,0,0,1,3.243,1.151A4.517,4.517,0,0,1,131.463,12.351Zm-4.456-2.786a2,2,0,0,0-2.2,1.74h4.148a1.9,1.9,0,0,0-.624-1.292A1.978,1.978,0,0,0,127.007,9.564Zm11.716-1.775a3.522,3.522,0,0,1,2.5.813,3.014,3.014,0,0,1,.87,2.316V17h-2.54V11.463a1.574,1.574,0,0,0-.453-1.248,1.705,1.705,0,0,0-1.165-.4,2.379,2.379,0,0,0-.756.114,1.942,1.942,0,0,0-.633.356,1.573,1.573,0,0,0-.453.681,3.15,3.15,0,0,0-.171,1.046V17h-2.531V7.965h2.531v1A3.481,3.481,0,0,1,138.723,7.789ZM147.907,17a2.729,2.729,0,0,1-2.039-.734,2.854,2.854,0,0,1-.721-2.087V9.907h-1.775V7.965h.571a1.491,1.491,0,0,0,1.125-.378,1.946,1.946,0,0,0,.36-1.345v-1.2h2.285V7.965h1.863V9.907h-1.863v4q0,1.169,1.046,1.169h.817V17Zm11-2.452a8.453,8.453,0,0,0,.22,2.206V17h-2.364l-.2-.984a2.938,2.938,0,0,1-1.266.87,4.664,4.664,0,0,1-1.635.29,4.3,4.3,0,0,1-.844-.079,2.868,2.868,0,0,1-.76-.268,2.307,2.307,0,0,1-.628-.47,2.062,2.062,0,0,1-.422-.716,2.853,2.853,0,0,1-.158-.98,2.718,2.718,0,0,1,.167-.98,2.3,2.3,0,0,1,.439-.734,2.666,2.666,0,0,1,.712-.536,5.447,5.447,0,0,1,.9-.387,10.712,10.712,0,0,1,1.072-.281l1.485-.334a1.638,1.638,0,0,0,.672-.286.57.57,0,0,0,.2-.453.932.932,0,0,0-.444-.87,2.073,2.073,0,0,0-1.077-.264,1.549,1.549,0,0,0-1.767,1.38l-2.241-.4a3.034,3.034,0,0,1,1.31-2.061,5.2,5.2,0,0,1,2.839-.664q3.8,0,3.8,3.261Zm-4.456.914a2.036,2.036,0,0,0,1.564-.655,2.759,2.759,0,0,0,.606-1.938l-2.145.606a2.534,2.534,0,0,0-.9.369.758.758,0,0,0-.312.65.842.842,0,0,0,.334.716A1.382,1.382,0,0,0,154.455,15.462Zm10.8,1.705a4.827,4.827,0,0,1-3.489-1.3,4.493,4.493,0,0,1-1.354-3.393,4.483,4.483,0,0,1,1.349-3.393,5.364,5.364,0,0,1,6.42-.422,3.885,3.885,0,0,1,1.512,2.452l-2.338.255a2,2,0,0,0-.756-1.187,2.3,2.3,0,0,0-1.371-.4,2.072,2.072,0,0,0-1.652.738,2.894,2.894,0,0,0-.633,1.951,2.9,2.9,0,0,0,.633,1.947,2.067,2.067,0,0,0,1.652.743,2.278,2.278,0,0,0,1.367-.4,2.05,2.05,0,0,0,.76-1.187l2.338.255a3.9,3.9,0,0,1-1.525,2.452A4.8,4.8,0,0,1,165.257,17.167Zm7.532-10.556a1.421,1.421,0,0,1-1.037-.426,1.4,1.4,0,0,1-.431-1.033,1.382,1.382,0,0,1,.435-1.024,1.425,1.425,0,0,1,1.033-.426,1.463,1.463,0,0,1,1.45,1.45,1.463,1.463,0,0,1-1.45,1.459ZM171.5,17V7.965h2.549V17Zm8.6-10.266L182.4,3.5l1.248.879-2,2.355Zm.782,10.441a5.681,5.681,0,0,1-2.558-.554A4.138,4.138,0,0,1,176.564,15a4.846,4.846,0,0,1-.637-2.522A4.42,4.42,0,0,1,177.3,9.046a5.731,5.731,0,0,1,7.163,0,4.42,4.42,0,0,1,1.371,3.428,4.444,4.444,0,0,1-1.371,3.441A5.088,5.088,0,0,1,180.875,17.176Zm-.026-2.013a2.319,2.319,0,0,0,1.789-.738,2.764,2.764,0,0,0,.681-1.951,2.764,2.764,0,0,0-.681-1.951,2.319,2.319,0,0,0-1.789-.738,2.234,2.234,0,0,0-1.736.743,2.789,2.789,0,0,0-.672,1.947,2.789,2.789,0,0,0,.672,1.947A2.234,2.234,0,0,0,180.849,15.163Zm12.2-7.374a3.522,3.522,0,0,1,2.5.813,3.014,3.014,0,0,1,.87,2.316V17h-2.54V11.463a1.574,1.574,0,0,0-.453-1.248,1.705,1.705,0,0,0-1.165-.4,2.379,2.379,0,0,0-.756.114,1.942,1.942,0,0,0-.633.356,1.573,1.573,0,0,0-.453.681,3.15,3.15,0,0,0-.171,1.046V17h-2.531V7.965h2.531v1A3.481,3.481,0,0,1,193.048,7.789Zm18.993,4.562-.026.606h-6.7a2.339,2.339,0,0,0,.721,1.652,2.3,2.3,0,0,0,1.591.571,2.221,2.221,0,0,0,1.191-.312,1.918,1.918,0,0,0,.76-.91l2.32.343a3.945,3.945,0,0,1-1.582,2.118,4.7,4.7,0,0,1-2.672.756,4.891,4.891,0,0,1-3.52-1.244,4.538,4.538,0,0,1-1.305-3.45,4.565,4.565,0,0,1,1.31-3.45,4.746,4.746,0,0,1,3.437-1.261,4.536,4.536,0,0,1,3.243,1.151A4.517,4.517,0,0,1,212.041,12.351Zm-4.456-2.786a2,2,0,0,0-2.2,1.74h4.148a1.9,1.9,0,0,0-.624-1.292A1.978,1.978,0,0,0,207.585,9.564ZM219.3,7.789a3.522,3.522,0,0,1,2.5.813,3.014,3.014,0,0,1,.87,2.316V17h-2.54V11.463a1.574,1.574,0,0,0-.453-1.248,1.705,1.705,0,0,0-1.165-.4,2.379,2.379,0,0,0-.756.114,1.942,1.942,0,0,0-.633.356,1.573,1.573,0,0,0-.453.681,3.15,3.15,0,0,0-.171,1.046V17h-2.531V7.965H216.5v1A3.481,3.481,0,0,1,219.3,7.789Zm10.916-2.268h-.053q-.246,0-.374,0t-.36.031a1.459,1.459,0,0,0-.365.079,1.859,1.859,0,0,0-.3.163.809.809,0,0,0-.264.264,1.593,1.593,0,0,0-.158.391,2.042,2.042,0,0,0-.066.545v.967h1.942V9.907h-1.942V17h-2.522V9.907h-1.767V7.965h1.767V6.989a5.284,5.284,0,0,1,.114-1.151,3.5,3.5,0,0,1,.308-.875,2.047,2.047,0,0,1,.514-.628,3.034,3.034,0,0,1,.668-.422,3.817,3.817,0,0,1,.831-.255,7.285,7.285,0,0,1,.954-.127q.47-.031,1.077-.031Zm5.607,11.654a5.681,5.681,0,0,1-2.558-.554A4.138,4.138,0,0,1,231.513,15a4.846,4.846,0,0,1-.637-2.522,4.42,4.42,0,0,1,1.371-3.428,5.731,5.731,0,0,1,7.163,0,4.42,4.42,0,0,1,1.371,3.428,4.444,4.444,0,0,1-1.371,3.441A5.088,5.088,0,0,1,235.824,17.176Zm-.026-2.013a2.319,2.319,0,0,0,1.789-.738,2.764,2.764,0,0,0,.681-1.951,2.764,2.764,0,0,0-.681-1.951,2.319,2.319,0,0,0-1.789-.738,2.234,2.234,0,0,0-1.736.743,2.789,2.789,0,0,0-.672,1.947,2.789,2.789,0,0,0,.672,1.947A2.234,2.234,0,0,0,235.8,15.163Zm10.951,2a4.827,4.827,0,0,1-3.489-1.3,4.493,4.493,0,0,1-1.354-3.393,4.483,4.483,0,0,1,1.349-3.393,5.364,5.364,0,0,1,6.42-.422,3.885,3.885,0,0,1,1.512,2.452l-2.338.255a2,2,0,0,0-.756-1.187,2.3,2.3,0,0,0-1.371-.4,2.072,2.072,0,0,0-1.652.738,2.894,2.894,0,0,0-.633,1.951,2.9,2.9,0,0,0,.633,1.947,2.067,2.067,0,0,0,1.652.743,2.278,2.278,0,0,0,1.367-.4,2.05,2.05,0,0,0,.76-1.187l2.338.255a3.9,3.9,0,0,1-1.525,2.452A4.8,4.8,0,0,1,246.749,17.167ZM260.4,14.548a8.453,8.453,0,0,0,.22,2.206V17h-2.364l-.2-.984a2.938,2.938,0,0,1-1.266.87,4.664,4.664,0,0,1-1.635.29,4.3,4.3,0,0,1-.844-.079,2.868,2.868,0,0,1-.76-.268,2.307,2.307,0,0,1-.628-.47,2.062,2.062,0,0,1-.422-.716,2.853,2.853,0,0,1-.158-.98,2.718,2.718,0,0,1,.167-.98,2.3,2.3,0,0,1,.439-.734,2.666,2.666,0,0,1,.712-.536,5.447,5.447,0,0,1,.9-.387,10.712,10.712,0,0,1,1.072-.281l1.485-.334a1.638,1.638,0,0,0,.672-.286.57.57,0,0,0,.2-.453.932.932,0,0,0-.444-.87,2.073,2.073,0,0,0-1.077-.264,1.549,1.549,0,0,0-1.767,1.38l-2.241-.4a3.034,3.034,0,0,1,1.31-2.061,5.2,5.2,0,0,1,2.839-.664q3.8,0,3.8,3.261Zm-4.456.914a2.036,2.036,0,0,0,1.564-.655,2.759,2.759,0,0,0,.606-1.938l-2.145.606a2.534,2.534,0,0,0-.9.369.758.758,0,0,0-.312.65.842.842,0,0,0,.334.716A1.382,1.382,0,0,0,255.942,15.462ZM269.064,3.5H271.6V17h-2.4l-.062-1.178a2.58,2.58,0,0,1-1.147,1.024,3.861,3.861,0,0,1-1.692.365,4.394,4.394,0,0,1-1.687-.325,4.064,4.064,0,0,1-2.32-2.408,5.5,5.5,0,0,1-.343-1.978,5.137,5.137,0,0,1,.6-2.518,4.1,4.1,0,0,1,1.578-1.639,4.345,4.345,0,0,1,2.175-.554,3.957,3.957,0,0,1,1.639.33,2.559,2.559,0,0,1,1.129.936Zm-2.188,11.61a2.253,2.253,0,0,0,1.709-.721,2.638,2.638,0,0,0,.681-1.89,2.644,2.644,0,0,0-.686-1.894,2.251,2.251,0,0,0-1.705-.725,2.277,2.277,0,0,0-1.718.712,2.644,2.644,0,0,0-.681,1.907,2.631,2.631,0,0,0,.681,1.9A2.277,2.277,0,0,0,266.876,15.11Zm14.748-.562a8.453,8.453,0,0,0,.22,2.206V17h-2.364l-.2-.984a2.938,2.938,0,0,1-1.266.87,4.664,4.664,0,0,1-1.635.29,4.3,4.3,0,0,1-.844-.079,2.868,2.868,0,0,1-.76-.268,2.307,2.307,0,0,1-.628-.47,2.062,2.062,0,0,1-.422-.716,2.853,2.853,0,0,1-.158-.98,2.718,2.718,0,0,1,.167-.98,2.3,2.3,0,0,1,.439-.734,2.666,2.666,0,0,1,.712-.536,5.447,5.447,0,0,1,.9-.387,10.712,10.712,0,0,1,1.072-.281l1.485-.334a1.638,1.638,0,0,0,.672-.286.57.57,0,0,0,.2-.453.932.932,0,0,0-.444-.87,2.073,2.073,0,0,0-1.077-.264,1.549,1.549,0,0,0-1.767,1.38l-2.241-.4a3.034,3.034,0,0,1,1.31-2.061,5.2,5.2,0,0,1,2.839-.664q3.8,0,3.8,3.261Zm-4.456.914a2.036,2.036,0,0,0,1.564-.655,2.759,2.759,0,0,0,.606-1.938l-2.145.606a2.534,2.534,0,0,0-.9.369.758.758,0,0,0-.312.65.842.842,0,0,0,.334.716A1.382,1.382,0,0,0,277.168,15.462ZM122.3,38.548a8.453,8.453,0,0,0,.22,2.206V41h-2.364l-.2-.984a2.938,2.938,0,0,1-1.266.87,4.664,4.664,0,0,1-1.635.29,4.3,4.3,0,0,1-.844-.079,2.868,2.868,0,0,1-.76-.268,2.307,2.307,0,0,1-.628-.47,2.062,2.062,0,0,1-.422-.716,2.853,2.853,0,0,1-.158-.98,2.718,2.718,0,0,1,.167-.98,2.3,2.3,0,0,1,.439-.734,2.666,2.666,0,0,1,.712-.536,5.447,5.447,0,0,1,.9-.387,10.712,10.712,0,0,1,1.072-.281l1.485-.334a1.638,1.638,0,0,0,.672-.286.57.57,0,0,0,.2-.453.932.932,0,0,0-.444-.87,2.072,2.072,0,0,0-1.077-.264,1.549,1.549,0,0,0-1.767,1.38l-2.241-.4a3.034,3.034,0,0,1,1.31-2.061,5.2,5.2,0,0,1,2.839-.664q3.8,0,3.8,3.261Zm-4.456.914a2.036,2.036,0,0,0,1.564-.655,2.759,2.759,0,0,0,.606-1.938l-2.145.606a2.534,2.534,0,0,0-.9.369.758.758,0,0,0-.312.65.842.842,0,0,0,.334.716A1.382,1.382,0,0,0,117.84,39.462Zm17.578-7.5h2.531V41h-2.4l-.062-1.09a3.45,3.45,0,0,1-2.874,1.266,3.522,3.522,0,0,1-2.5-.813,3.014,3.014,0,0,1-.87-2.316V31.965h2.54V37.5a1.562,1.562,0,0,0,.453,1.239,1.718,1.718,0,0,0,1.173.4,2.038,2.038,0,0,0,1.437-.514,2.209,2.209,0,0,0,.567-1.674Zm10.485-.176a3.522,3.522,0,0,1,2.5.813,3.014,3.014,0,0,1,.87,2.316V41h-2.54V35.463a1.574,1.574,0,0,0-.453-1.248,1.705,1.705,0,0,0-1.165-.4,2.379,2.379,0,0,0-.756.114,1.942,1.942,0,0,0-.633.356,1.573,1.573,0,0,0-.453.681,3.15,3.15,0,0,0-.171,1.046V41h-2.531V31.965H143.1v1A3.481,3.481,0,0,1,145.9,31.789Zm13.676,9.387a5.049,5.049,0,0,1-2.637-.633,2.675,2.675,0,0,1-1.292-1.881l2.118-.6a1.7,1.7,0,0,0,1.811,1.345,1.87,1.87,0,0,0,.923-.207.719.719,0,0,0,.36-.7.739.739,0,0,0-.149-.466,1.183,1.183,0,0,0-.461-.334,5.749,5.749,0,0,0-.615-.237q-.3-.1-.8-.233T158,36.975a5.593,5.593,0,0,1-.8-.338,3.393,3.393,0,0,1-.659-.466,1.878,1.878,0,0,1-.492-.708,2.552,2.552,0,0,1-.171-.967,2.308,2.308,0,0,1,.98-2.021,4.379,4.379,0,0,1,2.562-.686,4.489,4.489,0,0,1,2.364.58A2.625,2.625,0,0,1,163,34.18l-1.96.439a1.535,1.535,0,0,0-1.608-1.143,1.761,1.761,0,0,0-.888.2.649.649,0,0,0-.352.6.685.685,0,0,0,.053.272.539.539,0,0,0,.185.22,2.692,2.692,0,0,0,.255.167,1.923,1.923,0,0,0,.36.145q.237.075.4.114l.461.119.47.123q.483.132.848.264a4.967,4.967,0,0,1,.778.369,2.792,2.792,0,0,1,.681.532,2.372,2.372,0,0,1,.444.747,2.759,2.759,0,0,1,.176,1.006,2.718,2.718,0,0,1-.3,1.31,2.276,2.276,0,0,1-.831.883,4.043,4.043,0,0,1-1.173.475A6.087,6.087,0,0,1,159.579,41.176Zm14.036-4.825-.026.606h-6.7a2.339,2.339,0,0,0,.721,1.652,2.3,2.3,0,0,0,1.591.571,2.221,2.221,0,0,0,1.191-.312,1.918,1.918,0,0,0,.76-.91l2.32.343a3.945,3.945,0,0,1-1.582,2.118,4.7,4.7,0,0,1-2.672.756,4.891,4.891,0,0,1-3.52-1.244,4.538,4.538,0,0,1-1.305-3.45,4.565,4.565,0,0,1,1.31-3.45,4.746,4.746,0,0,1,3.437-1.261,4.136,4.136,0,0,1,4.474,4.579Zm-4.456-2.786a2,2,0,0,0-2.2,1.74h4.148a1.9,1.9,0,0,0-.624-1.292A1.978,1.978,0,0,0,169.159,33.564Zm12.6-1.6h2.408v8.358a6.759,6.759,0,0,1-.338,2.25,3.711,3.711,0,0,1-.98,1.542,4.085,4.085,0,0,1-1.5.866,6.336,6.336,0,0,1-1.969.281q-3.577,0-4.658-2.8l2.1-.9a3.065,3.065,0,0,0,.976,1.31,2.487,2.487,0,0,0,1.485.422q2.347,0,2.347-2.786V39.453a2.846,2.846,0,0,1-1.138.892,3.784,3.784,0,0,1-1.6.338,4.046,4.046,0,0,1-2.9-1.217,4.174,4.174,0,0,1-.892-1.419,5.247,5.247,0,0,1,0-3.661,4.006,4.006,0,0,1,.9-1.4,4.125,4.125,0,0,1,1.318-.879,4.069,4.069,0,0,1,1.6-.316,3.674,3.674,0,0,1,1.674.374,2.67,2.67,0,0,1,1.121,1Zm-3.88,5.977a2.319,2.319,0,0,0,3.318-.009,2.526,2.526,0,0,0,0-3.437,2.34,2.34,0,0,0-3.331-.013,2.4,2.4,0,0,0-.664,1.736A2.379,2.379,0,0,0,177.882,37.941ZM197.5,31.789a3.452,3.452,0,0,1,2.329.734,2.626,2.626,0,0,1,.853,2.1V41h-2.531V35.349a1.509,1.509,0,0,0-.4-1.143,1.416,1.416,0,0,0-1.02-.387,1.633,1.633,0,0,0-1.23.492,2.235,2.235,0,0,0-.475,1.591V41h-2.558V35.375a1.549,1.549,0,0,0-.4-1.165,1.441,1.441,0,0,0-1.046-.391,1.581,1.581,0,0,0-1.222.519,2.476,2.476,0,0,0-.475,1.7V41H186.8V31.965h2.522v1.063a3.072,3.072,0,0,1,2.619-1.239,3.863,3.863,0,0,1,1.7.347,2.315,2.315,0,0,1,1.068,1.006A3.2,3.2,0,0,1,197.5,31.789Zm14.142,4.562-.026.606h-6.7a2.339,2.339,0,0,0,.721,1.652,2.3,2.3,0,0,0,1.591.571,2.221,2.221,0,0,0,1.191-.312,1.918,1.918,0,0,0,.76-.91l2.32.343a3.945,3.945,0,0,1-1.582,2.118,4.7,4.7,0,0,1-2.672.756,4.891,4.891,0,0,1-3.52-1.244,4.538,4.538,0,0,1-1.305-3.45,4.565,4.565,0,0,1,1.31-3.45,4.746,4.746,0,0,1,3.437-1.261,4.136,4.136,0,0,1,4.474,4.579Zm-4.456-2.786a2,2,0,0,0-2.2,1.74h4.148a1.9,1.9,0,0,0-.624-1.292A1.978,1.978,0,0,0,207.189,33.564Zm11.716-1.775a3.522,3.522,0,0,1,2.5.813,3.014,3.014,0,0,1,.87,2.316V41h-2.54V35.463a1.574,1.574,0,0,0-.453-1.248,1.705,1.705,0,0,0-1.165-.4,2.379,2.379,0,0,0-.756.114,1.942,1.942,0,0,0-.633.356,1.573,1.573,0,0,0-.453.681,3.15,3.15,0,0,0-.171,1.046V41H213.57V31.965H216.1v1A3.481,3.481,0,0,1,218.905,31.789ZM228.09,41a2.729,2.729,0,0,1-2.039-.734,2.854,2.854,0,0,1-.721-2.087V33.907h-1.775V31.965h.571a1.491,1.491,0,0,0,1.125-.378,1.946,1.946,0,0,0,.36-1.345v-1.2H227.9v2.918h1.863v1.942H227.9v4q0,1.169,1.046,1.169h.817V41Zm7.8.176a5.681,5.681,0,0,1-2.558-.554A4.138,4.138,0,0,1,231.583,39a4.846,4.846,0,0,1-.637-2.522,4.42,4.42,0,0,1,1.371-3.428,5.731,5.731,0,0,1,7.163,0,4.42,4.42,0,0,1,1.371,3.428,4.444,4.444,0,0,1-1.371,3.441A5.088,5.088,0,0,1,235.895,41.176Zm-.026-2.013a2.319,2.319,0,0,0,1.789-.738,3.135,3.135,0,0,0,0-3.9,2.319,2.319,0,0,0-1.789-.738,2.234,2.234,0,0,0-1.736.743,3.155,3.155,0,0,0,0,3.894A2.234,2.234,0,0,0,235.868,39.163Z" transform="translate(2991 -2639)" fill="#fff"/>
    <path id="Trazado_17228" data-name="Trazado 17228" d="M96.825,14.671h3.981V17H94.188V4.3h2.637Zm6.952-8.06a1.421,1.421,0,0,1-1.037-.426,1.4,1.4,0,0,1-.431-1.033,1.382,1.382,0,0,1,.435-1.024,1.425,1.425,0,0,1,1.033-.426,1.463,1.463,0,0,1,1.45,1.45,1.463,1.463,0,0,1-1.45,1.459ZM102.485,17V7.965h2.549V17ZM114.061,3.5h2.531V17h-2.4l-.062-1.178a2.58,2.58,0,0,1-1.147,1.024,3.861,3.861,0,0,1-1.692.365,4.394,4.394,0,0,1-1.687-.325,4.064,4.064,0,0,1-2.32-2.408,5.5,5.5,0,0,1-.343-1.978,5.137,5.137,0,0,1,.6-2.518,4.1,4.1,0,0,1,1.578-1.639,4.345,4.345,0,0,1,2.175-.554,3.957,3.957,0,0,1,1.639.33,2.559,2.559,0,0,1,1.129.936Zm-2.188,11.61a2.253,2.253,0,0,0,1.709-.721,2.638,2.638,0,0,0,.681-1.89,2.644,2.644,0,0,0-.686-1.894,2.251,2.251,0,0,0-1.705-.725,2.277,2.277,0,0,0-1.718.712,2.644,2.644,0,0,0-.681,1.907,2.631,2.631,0,0,0,.681,1.9A2.277,2.277,0,0,0,111.872,15.11Zm15.838-2.76-.026.606h-6.7a2.339,2.339,0,0,0,.721,1.652,2.3,2.3,0,0,0,1.591.571,2.221,2.221,0,0,0,1.191-.312,1.918,1.918,0,0,0,.76-.91l2.32.343a3.945,3.945,0,0,1-1.582,2.118,4.7,4.7,0,0,1-2.672.756,4.891,4.891,0,0,1-3.52-1.244,4.538,4.538,0,0,1-1.305-3.45,4.565,4.565,0,0,1,1.31-3.45,4.746,4.746,0,0,1,3.437-1.261,4.536,4.536,0,0,1,3.243,1.151A4.517,4.517,0,0,1,127.71,12.351Zm-4.456-2.786a2,2,0,0,0-2.2,1.74h4.148a1.9,1.9,0,0,0-.624-1.292A1.978,1.978,0,0,0,123.254,9.564Zm8.807-.167a2.933,2.933,0,0,1,1.187-1.085,3.62,3.62,0,0,1,1.767-.453v2.259a3.423,3.423,0,0,0-2.162.545,2.379,2.379,0,0,0-.668,1.934V17h-2.549V7.965h2.426Zm11.795,5.15a8.453,8.453,0,0,0,.22,2.206V17h-2.364l-.2-.984a2.938,2.938,0,0,1-1.266.87,4.664,4.664,0,0,1-1.635.29,4.3,4.3,0,0,1-.844-.079,2.868,2.868,0,0,1-.76-.268,2.307,2.307,0,0,1-.628-.47,2.062,2.062,0,0,1-.422-.716,2.853,2.853,0,0,1-.158-.98,2.718,2.718,0,0,1,.167-.98,2.3,2.3,0,0,1,.439-.734,2.666,2.666,0,0,1,.712-.536,5.447,5.447,0,0,1,.9-.387,10.712,10.712,0,0,1,1.072-.281l1.485-.334a1.638,1.638,0,0,0,.672-.286.57.57,0,0,0,.2-.453.932.932,0,0,0-.444-.87,2.073,2.073,0,0,0-1.077-.264,1.549,1.549,0,0,0-1.767,1.38l-2.241-.4a3.034,3.034,0,0,1,1.31-2.061,5.2,5.2,0,0,1,2.839-.664q3.8,0,3.8,3.261Zm-4.456.914a2.036,2.036,0,0,0,1.564-.655,2.759,2.759,0,0,0,.606-1.938l-2.145.606a2.534,2.534,0,0,0-.9.369.758.758,0,0,0-.312.65.842.842,0,0,0,.334.716A1.382,1.382,0,0,0,139.4,15.462Zm13.509-7.5-3.973,7.084h3.85V17h-7.444L149.3,9.916h-3.647V7.965Zm7.646,0h2.408v8.358a6.759,6.759,0,0,1-.338,2.25,3.711,3.711,0,0,1-.98,1.542,4.085,4.085,0,0,1-1.5.866,6.336,6.336,0,0,1-1.969.281q-3.577,0-4.658-2.8l2.1-.9a3.065,3.065,0,0,0,.976,1.31,2.487,2.487,0,0,0,1.485.422q2.347,0,2.347-2.786V15.453a2.846,2.846,0,0,1-1.138.892,3.784,3.784,0,0,1-1.6.338,4.046,4.046,0,0,1-2.9-1.217,4.174,4.174,0,0,1-.892-1.419,5.247,5.247,0,0,1,0-3.661,4.006,4.006,0,0,1,.9-1.4,4.125,4.125,0,0,1,1.318-.879,4.069,4.069,0,0,1,1.6-.316,3.674,3.674,0,0,1,1.674.374,2.67,2.67,0,0,1,1.121,1Zm-3.88,5.977a2.319,2.319,0,0,0,3.318-.009,2.526,2.526,0,0,0,0-3.437,2.34,2.34,0,0,0-3.331-.013A2.4,2.4,0,0,0,156,12.219,2.379,2.379,0,0,0,156.674,13.941ZM169.8,17.176a5.681,5.681,0,0,1-2.558-.554A4.138,4.138,0,0,1,165.49,15a4.846,4.846,0,0,1-.637-2.522,4.42,4.42,0,0,1,1.371-3.428,5.731,5.731,0,0,1,7.163,0,4.42,4.42,0,0,1,1.371,3.428,4.444,4.444,0,0,1-1.371,3.441A5.088,5.088,0,0,1,169.8,17.176Zm-.026-2.013a2.319,2.319,0,0,0,1.789-.738,2.764,2.764,0,0,0,.681-1.951,2.764,2.764,0,0,0-.681-1.951,2.319,2.319,0,0,0-1.789-.738,2.234,2.234,0,0,0-1.736.743,2.789,2.789,0,0,0-.672,1.947,2.789,2.789,0,0,0,.672,1.947A2.234,2.234,0,0,0,169.774,15.163Zm20.039-2.812-.026.606h-6.7a2.339,2.339,0,0,0,.721,1.652,2.3,2.3,0,0,0,1.591.571,2.221,2.221,0,0,0,1.191-.312,1.918,1.918,0,0,0,.76-.91l2.32.343a3.945,3.945,0,0,1-1.582,2.118,4.7,4.7,0,0,1-2.672.756,4.891,4.891,0,0,1-3.52-1.244,4.538,4.538,0,0,1-1.305-3.45,4.565,4.565,0,0,1,1.31-3.45,4.746,4.746,0,0,1,3.437-1.261,4.536,4.536,0,0,1,3.243,1.151A4.517,4.517,0,0,1,189.813,12.351Zm-4.456-2.786a2,2,0,0,0-2.2,1.74h4.148a1.9,1.9,0,0,0-.624-1.292A1.978,1.978,0,0,0,185.357,9.564Zm11.716-1.775a3.522,3.522,0,0,1,2.5.813,3.014,3.014,0,0,1,.87,2.316V17H197.9V11.463a1.574,1.574,0,0,0-.453-1.248,1.705,1.705,0,0,0-1.165-.4,2.379,2.379,0,0,0-.756.114,1.942,1.942,0,0,0-.633.356,1.573,1.573,0,0,0-.453.681,3.15,3.15,0,0,0-.171,1.046V17h-2.531V7.965h2.531v1A3.481,3.481,0,0,1,197.073,7.789Zm14.581,9.378a4.827,4.827,0,0,1-3.489-1.3,4.493,4.493,0,0,1-1.354-3.393,4.483,4.483,0,0,1,1.349-3.393,5.364,5.364,0,0,1,6.42-.422,3.885,3.885,0,0,1,1.512,2.452l-2.338.255A2,2,0,0,0,213,10.18a2.3,2.3,0,0,0-1.371-.4,2.072,2.072,0,0,0-1.652.738,2.894,2.894,0,0,0-.633,1.951,2.9,2.9,0,0,0,.633,1.947,2.067,2.067,0,0,0,1.652.743,2.278,2.278,0,0,0,1.367-.4,2.05,2.05,0,0,0,.76-1.187l2.338.255a3.9,3.9,0,0,1-1.525,2.452A4.8,4.8,0,0,1,211.654,17.167Zm10.45.009a5.681,5.681,0,0,1-2.558-.554A4.138,4.138,0,0,1,217.793,15a4.846,4.846,0,0,1-.637-2.522,4.42,4.42,0,0,1,1.371-3.428,5.731,5.731,0,0,1,7.163,0,4.42,4.42,0,0,1,1.371,3.428,4.444,4.444,0,0,1-1.371,3.441A5.088,5.088,0,0,1,222.1,17.176Zm-.026-2.013a2.319,2.319,0,0,0,1.789-.738,2.764,2.764,0,0,0,.681-1.951,2.764,2.764,0,0,0-.681-1.951,2.319,2.319,0,0,0-1.789-.738,2.234,2.234,0,0,0-1.736.743,2.789,2.789,0,0,0-.672,1.947,2.789,2.789,0,0,0,.672,1.947A2.234,2.234,0,0,0,222.078,15.163Zm10.046,2.013a5.049,5.049,0,0,1-2.637-.633,2.675,2.675,0,0,1-1.292-1.881l2.118-.6a1.7,1.7,0,0,0,1.811,1.345,1.87,1.87,0,0,0,.923-.207.719.719,0,0,0,.36-.7.739.739,0,0,0-.149-.466,1.183,1.183,0,0,0-.461-.334,5.749,5.749,0,0,0-.615-.237q-.3-.1-.8-.233t-.835-.259a5.593,5.593,0,0,1-.8-.338,3.393,3.393,0,0,1-.659-.466,1.878,1.878,0,0,1-.492-.708,2.552,2.552,0,0,1-.171-.967,2.308,2.308,0,0,1,.98-2.021,4.379,4.379,0,0,1,2.562-.686,4.489,4.489,0,0,1,2.364.58,2.625,2.625,0,0,1,1.213,1.811l-1.96.439a1.535,1.535,0,0,0-1.608-1.143,1.761,1.761,0,0,0-.888.2.649.649,0,0,0-.352.6.685.685,0,0,0,.053.272.539.539,0,0,0,.185.22,2.692,2.692,0,0,0,.255.167,1.923,1.923,0,0,0,.36.145q.237.075.4.114l.461.119.47.123q.483.132.848.264a4.967,4.967,0,0,1,.778.369,2.792,2.792,0,0,1,.681.532,2.372,2.372,0,0,1,.444.747,2.759,2.759,0,0,1,.176,1.006,2.718,2.718,0,0,1-.3,1.31,2.276,2.276,0,0,1-.831.883,4.043,4.043,0,0,1-1.173.475A6.087,6.087,0,0,1,232.124,17.176Zm8.9-.176a2.729,2.729,0,0,1-2.039-.734,2.854,2.854,0,0,1-.721-2.087V9.907h-1.775V7.965h.571a1.491,1.491,0,0,0,1.125-.378,1.946,1.946,0,0,0,.36-1.345v-1.2h2.285V7.965H242.7V9.907h-1.863v4q0,1.169,1.046,1.169h.817V17Zm12.094-4.649-.026.606h-6.7a2.339,2.339,0,0,0,.721,1.652,2.3,2.3,0,0,0,1.591.571,2.221,2.221,0,0,0,1.191-.312,1.918,1.918,0,0,0,.76-.91l2.32.343A3.945,3.945,0,0,1,251.4,16.42a4.7,4.7,0,0,1-2.672.756,4.891,4.891,0,0,1-3.52-1.244,4.538,4.538,0,0,1-1.305-3.45,4.565,4.565,0,0,1,1.31-3.45,4.746,4.746,0,0,1,3.437-1.261,4.536,4.536,0,0,1,3.243,1.151A4.517,4.517,0,0,1,253.121,12.351Zm-4.456-2.786a2,2,0,0,0-2.2,1.74h4.148a1.9,1.9,0,0,0-.624-1.292A1.978,1.978,0,0,0,248.665,9.564Zm9.563,7.611a5.049,5.049,0,0,1-2.637-.633,2.675,2.675,0,0,1-1.292-1.881l2.118-.6a1.7,1.7,0,0,0,1.811,1.345,1.87,1.87,0,0,0,.923-.207.719.719,0,0,0,.36-.7.739.739,0,0,0-.149-.466,1.183,1.183,0,0,0-.461-.334,5.749,5.749,0,0,0-.615-.237q-.3-.1-.8-.233t-.835-.259a5.593,5.593,0,0,1-.8-.338,3.393,3.393,0,0,1-.659-.466,1.878,1.878,0,0,1-.492-.708,2.552,2.552,0,0,1-.171-.967,2.308,2.308,0,0,1,.98-2.021,4.379,4.379,0,0,1,2.562-.686,4.489,4.489,0,0,1,2.364.58,2.625,2.625,0,0,1,1.213,1.811l-1.96.439a1.535,1.535,0,0,0-1.608-1.143,1.761,1.761,0,0,0-.888.2.649.649,0,0,0-.352.6.685.685,0,0,0,.053.272.539.539,0,0,0,.185.22,2.692,2.692,0,0,0,.255.167,1.923,1.923,0,0,0,.36.145q.237.075.4.114l.461.119.47.123q.483.132.848.264a4.967,4.967,0,0,1,.778.369,2.792,2.792,0,0,1,.681.532,2.372,2.372,0,0,1,.444.747,2.759,2.759,0,0,1,.176,1.006,2.718,2.718,0,0,1-.3,1.31,2.276,2.276,0,0,1-.831.883,4.043,4.043,0,0,1-1.173.475A6.087,6.087,0,0,1,258.228,17.176Z" transform="translate(3371 -2806)" fill="#fff"/>
    <path id="Trazado_17229" data-name="Trazado 17229" d="M63.638,17.176a6.136,6.136,0,0,1-3.524-.971,3.9,3.9,0,0,1-1.714-2.72l2.725-.624a2.314,2.314,0,0,0,.839,1.6,2.785,2.785,0,0,0,1.78.558,2.3,2.3,0,0,0,1.389-.391,1.319,1.319,0,0,0,.527-1.156,1.233,1.233,0,0,0-.448-.94,2.929,2.929,0,0,0-.892-.576q-.444-.171-1.428-.47-.132-.044-.193-.062-.5-.158-.809-.264t-.76-.294a5.063,5.063,0,0,1-.738-.369,5.405,5.405,0,0,1-.611-.457,2.394,2.394,0,0,1-.51-.584,3.1,3.1,0,0,1-.308-.729,3.219,3.219,0,0,1-.123-.905,3.4,3.4,0,0,1,.593-2,3.633,3.633,0,0,1,1.6-1.274,5.822,5.822,0,0,1,2.29-.426,7.233,7.233,0,0,1,1.657.185,5.8,5.8,0,0,1,1.481.567,3.628,3.628,0,0,1,1.182,1.046,3.933,3.933,0,0,1,.672,1.542L65.765,8.1a2.065,2.065,0,0,0-2.285-1.819,2.5,2.5,0,0,0-1.415.369,1.251,1.251,0,0,0-.554,1.116q0,.694.923,1.125a13.752,13.752,0,0,0,1.767.606q.519.158.844.264t.817.308a5.68,5.68,0,0,1,.8.391,5.918,5.918,0,0,1,.668.488,2.627,2.627,0,0,1,.567.633,3.422,3.422,0,0,1,.347.787,3.288,3.288,0,0,1,.141.98,3.85,3.85,0,0,1-.255,1.433,3.118,3.118,0,0,1-.7,1.081,4.058,4.058,0,0,1-1.05.743,5.1,5.1,0,0,1-1.292.439A7.431,7.431,0,0,1,63.638,17.176Zm15.346-4.825-.026.606h-6.7a2.339,2.339,0,0,0,.721,1.652,2.3,2.3,0,0,0,1.591.571,2.221,2.221,0,0,0,1.191-.312,1.918,1.918,0,0,0,.76-.91l2.32.343a3.945,3.945,0,0,1-1.582,2.118,4.7,4.7,0,0,1-2.672.756,4.891,4.891,0,0,1-3.52-1.244,4.538,4.538,0,0,1-1.305-3.45,4.565,4.565,0,0,1,1.31-3.45A4.746,4.746,0,0,1,74.51,7.771a4.536,4.536,0,0,1,3.243,1.151A4.517,4.517,0,0,1,78.983,12.351ZM74.527,9.564a2,2,0,0,0-2.2,1.74h4.148a1.9,1.9,0,0,0-.624-1.292A1.978,1.978,0,0,0,74.527,9.564Zm12.6-1.6h2.408v8.358a6.759,6.759,0,0,1-.338,2.25,3.711,3.711,0,0,1-.98,1.542,4.085,4.085,0,0,1-1.5.866,6.336,6.336,0,0,1-1.969.281q-3.577,0-4.658-2.8l2.1-.9a3.065,3.065,0,0,0,.976,1.31,2.487,2.487,0,0,0,1.485.422Q87,19.294,87,16.508V15.453a2.846,2.846,0,0,1-1.138.892,3.784,3.784,0,0,1-1.6.338,4.046,4.046,0,0,1-2.9-1.217,4.174,4.174,0,0,1-.892-1.419,5.247,5.247,0,0,1,0-3.661,4.006,4.006,0,0,1,.9-1.4,4.125,4.125,0,0,1,1.318-.879,4.069,4.069,0,0,1,1.6-.316,3.674,3.674,0,0,1,1.674.374,2.67,2.67,0,0,1,1.121,1Zm-3.88,5.977a2.319,2.319,0,0,0,3.318-.009,2.526,2.526,0,0,0,0-3.437,2.34,2.34,0,0,0-3.331-.013,2.4,2.4,0,0,0-.664,1.736A2.379,2.379,0,0,0,83.25,13.941Zm19.622-6.152a3.452,3.452,0,0,1,2.329.734,2.626,2.626,0,0,1,.853,2.1V17h-2.531V11.349a1.509,1.509,0,0,0-.4-1.143,1.416,1.416,0,0,0-1.02-.387,1.633,1.633,0,0,0-1.23.492,2.235,2.235,0,0,0-.475,1.591V17H97.836V11.375a1.549,1.549,0,0,0-.4-1.165,1.441,1.441,0,0,0-1.046-.391,1.581,1.581,0,0,0-1.222.519,2.476,2.476,0,0,0-.475,1.7V17H92.167V7.965h2.522V9.028a3.072,3.072,0,0,1,2.619-1.239,3.863,3.863,0,0,1,1.7.347,2.315,2.315,0,0,1,1.068,1.006A3.2,3.2,0,0,1,102.872,7.789Zm14.142,4.562-.026.606h-6.7a2.339,2.339,0,0,0,.721,1.652,2.3,2.3,0,0,0,1.591.571,2.221,2.221,0,0,0,1.191-.312,1.918,1.918,0,0,0,.76-.91l2.32.343a3.945,3.945,0,0,1-1.582,2.118,4.7,4.7,0,0,1-2.672.756,4.891,4.891,0,0,1-3.52-1.244,4.538,4.538,0,0,1-1.305-3.45,4.565,4.565,0,0,1,1.31-3.45,4.746,4.746,0,0,1,3.437-1.261,4.536,4.536,0,0,1,3.243,1.151A4.517,4.517,0,0,1,117.014,12.351Zm-4.456-2.786a2,2,0,0,0-2.2,1.74h4.148a1.9,1.9,0,0,0-.624-1.292A1.978,1.978,0,0,0,112.558,9.564Zm11.716-1.775a3.522,3.522,0,0,1,2.5.813,3.014,3.014,0,0,1,.87,2.316V17H125.1V11.463a1.574,1.574,0,0,0-.453-1.248,1.705,1.705,0,0,0-1.165-.4,2.379,2.379,0,0,0-.756.114,1.942,1.942,0,0,0-.633.356,1.573,1.573,0,0,0-.453.681,3.15,3.15,0,0,0-.171,1.046V17h-2.531V7.965h2.531v1A3.481,3.481,0,0,1,124.273,7.789ZM133.458,17a2.729,2.729,0,0,1-2.039-.734,2.854,2.854,0,0,1-.721-2.087V9.907h-1.775V7.965h.571a1.491,1.491,0,0,0,1.125-.378,1.946,1.946,0,0,0,.36-1.345v-1.2h2.285V7.965h1.863V9.907h-1.863v4q0,1.169,1.046,1.169h.817V17Zm11-2.452a8.453,8.453,0,0,0,.22,2.206V17h-2.364l-.2-.984a2.938,2.938,0,0,1-1.266.87,4.664,4.664,0,0,1-1.635.29,4.3,4.3,0,0,1-.844-.079,2.868,2.868,0,0,1-.76-.268,2.307,2.307,0,0,1-.628-.47,2.062,2.062,0,0,1-.422-.716,2.853,2.853,0,0,1-.158-.98,2.718,2.718,0,0,1,.167-.98,2.3,2.3,0,0,1,.439-.734,2.666,2.666,0,0,1,.712-.536,5.447,5.447,0,0,1,.9-.387,10.712,10.712,0,0,1,1.072-.281l1.485-.334a1.638,1.638,0,0,0,.672-.286.57.57,0,0,0,.2-.453.932.932,0,0,0-.444-.87,2.073,2.073,0,0,0-1.077-.264,1.549,1.549,0,0,0-1.767,1.38l-2.241-.4a3.034,3.034,0,0,1,1.31-2.061,5.2,5.2,0,0,1,2.839-.664q3.8,0,3.8,3.261Zm-4.456.914a2.036,2.036,0,0,0,1.564-.655,2.759,2.759,0,0,0,.606-1.938l-2.145.606a2.534,2.534,0,0,0-.9.369.758.758,0,0,0-.312.65.842.842,0,0,0,.334.716A1.382,1.382,0,0,0,140.006,15.462Zm10.8,1.705a4.827,4.827,0,0,1-3.489-1.3,4.493,4.493,0,0,1-1.354-3.393,4.483,4.483,0,0,1,1.349-3.393,5.364,5.364,0,0,1,6.42-.422,3.885,3.885,0,0,1,1.512,2.452l-2.338.255a2,2,0,0,0-.756-1.187,2.3,2.3,0,0,0-1.371-.4,2.072,2.072,0,0,0-1.652.738,2.894,2.894,0,0,0-.633,1.951,2.9,2.9,0,0,0,.633,1.947,2.067,2.067,0,0,0,1.652.743,2.278,2.278,0,0,0,1.367-.4,2.05,2.05,0,0,0,.76-1.187l2.338.255a3.9,3.9,0,0,1-1.525,2.452A4.8,4.8,0,0,1,150.808,17.167ZM158.34,6.611a1.421,1.421,0,0,1-1.037-.426,1.4,1.4,0,0,1-.431-1.033,1.382,1.382,0,0,1,.435-1.024A1.425,1.425,0,0,1,158.34,3.7a1.463,1.463,0,0,1,1.45,1.45,1.463,1.463,0,0,1-1.45,1.459ZM157.048,17V7.965H159.6V17Zm8.6-10.266,2.3-3.234,1.248.879-2,2.355Zm.782,10.441a5.681,5.681,0,0,1-2.558-.554A4.138,4.138,0,0,1,162.115,15a4.846,4.846,0,0,1-.637-2.522,4.42,4.42,0,0,1,1.371-3.428,5.731,5.731,0,0,1,7.163,0,4.42,4.42,0,0,1,1.371,3.428,4.444,4.444,0,0,1-1.371,3.441A5.088,5.088,0,0,1,166.426,17.176Zm-.026-2.013a2.319,2.319,0,0,0,1.789-.738,2.764,2.764,0,0,0,.681-1.951,2.764,2.764,0,0,0-.681-1.951,2.319,2.319,0,0,0-1.789-.738,2.234,2.234,0,0,0-1.736.743,2.789,2.789,0,0,0-.672,1.947,2.789,2.789,0,0,0,.672,1.947A2.234,2.234,0,0,0,166.4,15.163Zm12.2-7.374a3.522,3.522,0,0,1,2.5.813,3.014,3.014,0,0,1,.87,2.316V17h-2.54V11.463a1.574,1.574,0,0,0-.453-1.248,1.705,1.705,0,0,0-1.165-.4,2.379,2.379,0,0,0-.756.114,1.942,1.942,0,0,0-.633.356,1.573,1.573,0,0,0-.453.681,3.15,3.15,0,0,0-.171,1.046V17h-2.531V7.965h2.531v1A3.481,3.481,0,0,1,178.6,7.789Zm14.581,9.378a4.827,4.827,0,0,1-3.489-1.3,4.493,4.493,0,0,1-1.354-3.393,4.483,4.483,0,0,1,1.349-3.393,5.364,5.364,0,0,1,6.42-.422,3.885,3.885,0,0,1,1.512,2.452l-2.338.255a2,2,0,0,0-.756-1.187,2.3,2.3,0,0,0-1.371-.4,2.072,2.072,0,0,0-1.652.738,2.894,2.894,0,0,0-.633,1.951,2.9,2.9,0,0,0,.633,1.947,2.067,2.067,0,0,0,1.652.743,2.278,2.278,0,0,0,1.367-.4,2.05,2.05,0,0,0,.76-1.187l2.338.255a3.9,3.9,0,0,1-1.525,2.452A4.8,4.8,0,0,1,193.18,17.167Zm10.45.009a5.681,5.681,0,0,1-2.558-.554A4.138,4.138,0,0,1,199.319,15a4.846,4.846,0,0,1-.637-2.522,4.42,4.42,0,0,1,1.371-3.428,5.731,5.731,0,0,1,7.163,0,4.42,4.42,0,0,1,1.371,3.428,4.444,4.444,0,0,1-1.371,3.441A5.088,5.088,0,0,1,203.63,17.176Zm-.026-2.013a2.319,2.319,0,0,0,1.789-.738,2.764,2.764,0,0,0,.681-1.951,2.764,2.764,0,0,0-.681-1.951,2.319,2.319,0,0,0-1.789-.738,2.234,2.234,0,0,0-1.736.743,2.789,2.789,0,0,0-.672,1.947,2.789,2.789,0,0,0,.672,1.947A2.234,2.234,0,0,0,203.6,15.163Zm12.2-7.374a3.522,3.522,0,0,1,2.5.813,3.014,3.014,0,0,1,.87,2.316V17h-2.54V11.463a1.574,1.574,0,0,0-.453-1.248,1.705,1.705,0,0,0-1.165-.4,2.379,2.379,0,0,0-.756.114,1.942,1.942,0,0,0-.633.356,1.573,1.573,0,0,0-.453.681A3.15,3.15,0,0,0,213,12.017V17h-2.531V7.965H213v1A3.481,3.481,0,0,1,215.8,7.789ZM234.8,12.351l-.026.606h-6.7a2.339,2.339,0,0,0,.721,1.652,2.3,2.3,0,0,0,1.591.571,2.221,2.221,0,0,0,1.191-.312,1.918,1.918,0,0,0,.76-.91l2.32.343a3.945,3.945,0,0,1-1.582,2.118,4.7,4.7,0,0,1-2.672.756,4.891,4.891,0,0,1-3.52-1.244,4.538,4.538,0,0,1-1.305-3.45,4.565,4.565,0,0,1,1.31-3.45,4.746,4.746,0,0,1,3.437-1.261,4.536,4.536,0,0,1,3.243,1.151A4.517,4.517,0,0,1,234.8,12.351ZM230.34,9.564a2,2,0,0,0-2.2,1.74h4.148a1.9,1.9,0,0,0-.624-1.292A1.978,1.978,0,0,0,230.34,9.564Zm11.716-1.775a3.522,3.522,0,0,1,2.5.813,3.014,3.014,0,0,1,.87,2.316V17h-2.54V11.463a1.574,1.574,0,0,0-.453-1.248,1.705,1.705,0,0,0-1.165-.4,2.379,2.379,0,0,0-.756.114,1.942,1.942,0,0,0-.633.356,1.573,1.573,0,0,0-.453.681,3.15,3.15,0,0,0-.171,1.046V17h-2.531V7.965h2.531v1A3.481,3.481,0,0,1,242.056,7.789Zm10.916-2.268h-.053q-.246,0-.374,0t-.36.031a1.459,1.459,0,0,0-.365.079,1.859,1.859,0,0,0-.3.163.809.809,0,0,0-.264.264,1.593,1.593,0,0,0-.158.391,2.042,2.042,0,0,0-.066.545v.967h1.942V9.907h-1.942V17h-2.522V9.907H246.74V7.965h1.767V6.989a5.284,5.284,0,0,1,.114-1.151,3.5,3.5,0,0,1,.308-.875,2.047,2.047,0,0,1,.514-.628,3.034,3.034,0,0,1,.668-.422,3.817,3.817,0,0,1,.831-.255,7.285,7.285,0,0,1,.954-.127q.47-.031,1.077-.031Zm5.607,11.654a5.681,5.681,0,0,1-2.558-.554A4.138,4.138,0,0,1,254.268,15a4.846,4.846,0,0,1-.637-2.522A4.42,4.42,0,0,1,255,9.046a5.731,5.731,0,0,1,7.163,0,4.42,4.42,0,0,1,1.371,3.428,4.444,4.444,0,0,1-1.371,3.441A5.088,5.088,0,0,1,258.579,17.176Zm-.026-2.013a2.319,2.319,0,0,0,1.789-.738,2.764,2.764,0,0,0,.681-1.951,2.764,2.764,0,0,0-.681-1.951,2.319,2.319,0,0,0-1.789-.738,2.234,2.234,0,0,0-1.736.743,2.789,2.789,0,0,0-.672,1.947,2.789,2.789,0,0,0,.672,1.947A2.234,2.234,0,0,0,258.553,15.163Zm13.395-7.2h2.4v13.43h-2.531V15.945a2.605,2.605,0,0,1-1.134.932,3.9,3.9,0,0,1-1.626.334,4.394,4.394,0,0,1-1.687-.325,4.223,4.223,0,0,1-1.384-.914,4.135,4.135,0,0,1-.936-1.49,5.531,5.531,0,0,1-.343-1.982,5.531,5.531,0,0,1,.343-1.982,4.135,4.135,0,0,1,.936-1.49,4.223,4.223,0,0,1,1.384-.914,4.394,4.394,0,0,1,1.688-.325,3.941,3.941,0,0,1,1.692.356,2.493,2.493,0,0,1,1.138,1.006Zm-2.32,7.146a2.264,2.264,0,0,0,1.718-.721,2.638,2.638,0,0,0,.681-1.89,2.629,2.629,0,0,0-.686-1.89,2.408,2.408,0,0,0-3.423-.013,2.628,2.628,0,0,0-.681,1.9,2.628,2.628,0,0,0,.681,1.9A2.274,2.274,0,0,0,269.627,15.11ZM282.96,7.965h2.531V17h-2.4l-.062-1.09a3.45,3.45,0,0,1-2.874,1.266,3.522,3.522,0,0,1-2.5-.813,3.014,3.014,0,0,1-.87-2.316V7.965h2.54V13.5a1.562,1.562,0,0,0,.453,1.239,1.718,1.718,0,0,0,1.173.4,2.038,2.038,0,0,0,1.437-.514,2.209,2.209,0,0,0,.567-1.674Zm13.649,4.386-.026.606h-6.7a2.339,2.339,0,0,0,.721,1.652,2.3,2.3,0,0,0,1.591.571,2.221,2.221,0,0,0,1.191-.312,1.918,1.918,0,0,0,.76-.91l2.32.343a3.945,3.945,0,0,1-1.582,2.118,4.7,4.7,0,0,1-2.672.756,4.891,4.891,0,0,1-3.52-1.244,4.538,4.538,0,0,1-1.305-3.45,4.565,4.565,0,0,1,1.31-3.45,4.746,4.746,0,0,1,3.437-1.261,4.536,4.536,0,0,1,3.243,1.151A4.517,4.517,0,0,1,296.609,12.351Zm-4.456-2.786a2,2,0,0,0-2.2,1.74H294.1a1.9,1.9,0,0,0-.624-1.292A1.978,1.978,0,0,0,292.153,9.564ZM118.257,27.5h2.531V41h-2.4l-.062-1.178a2.58,2.58,0,0,1-1.147,1.024,3.861,3.861,0,0,1-1.692.365,4.394,4.394,0,0,1-1.687-.325,4.064,4.064,0,0,1-2.32-2.408,5.5,5.5,0,0,1-.343-1.978,5.137,5.137,0,0,1,.6-2.518,4.1,4.1,0,0,1,1.578-1.639,4.345,4.345,0,0,1,2.175-.554,3.957,3.957,0,0,1,1.639.33,2.559,2.559,0,0,1,1.129.936Zm-2.188,11.61a2.253,2.253,0,0,0,1.709-.721,2.96,2.96,0,0,0,0-3.784,2.251,2.251,0,0,0-1.705-.725,2.277,2.277,0,0,0-1.718.712,3,3,0,0,0,0,3.806A2.277,2.277,0,0,0,116.069,39.11Zm15.838-2.76-.026.606h-6.7a2.339,2.339,0,0,0,.721,1.652,2.3,2.3,0,0,0,1.591.571,2.221,2.221,0,0,0,1.191-.312,1.918,1.918,0,0,0,.76-.91l2.32.343a3.945,3.945,0,0,1-1.582,2.118,4.7,4.7,0,0,1-2.672.756,4.891,4.891,0,0,1-3.52-1.244,4.538,4.538,0,0,1-1.305-3.45,4.565,4.565,0,0,1,1.31-3.45,4.746,4.746,0,0,1,3.437-1.261,4.136,4.136,0,0,1,4.474,4.579Zm-4.456-2.786a2,2,0,0,0-2.2,1.74H129.4a1.9,1.9,0,0,0-.624-1.292A1.978,1.978,0,0,0,127.451,33.564Zm15.144,7.6a4.827,4.827,0,0,1-3.489-1.3,4.934,4.934,0,0,1,0-6.785,5.364,5.364,0,0,1,6.42-.422,3.885,3.885,0,0,1,1.512,2.452l-2.338.255a2,2,0,0,0-.756-1.187,2.3,2.3,0,0,0-1.371-.4,2.072,2.072,0,0,0-1.652.738,3.318,3.318,0,0,0,0,3.9,2.067,2.067,0,0,0,1.652.743,2.278,2.278,0,0,0,1.367-.4,2.05,2.05,0,0,0,.76-1.187l2.338.255a3.9,3.9,0,0,1-1.525,2.452A4.8,4.8,0,0,1,142.594,41.167Zm10.45.009a5.681,5.681,0,0,1-2.558-.554A4.138,4.138,0,0,1,148.733,39a4.846,4.846,0,0,1-.637-2.522,4.42,4.42,0,0,1,1.371-3.428,5.731,5.731,0,0,1,7.163,0A4.42,4.42,0,0,1,158,36.474a4.444,4.444,0,0,1-1.371,3.441A5.088,5.088,0,0,1,153.044,41.176Zm-.026-2.013a2.319,2.319,0,0,0,1.789-.738,3.135,3.135,0,0,0,0-3.9,2.319,2.319,0,0,0-1.789-.738,2.234,2.234,0,0,0-1.736.743,3.155,3.155,0,0,0,0,3.894A2.234,2.234,0,0,0,153.018,39.163Zm10.046,2.013a5.049,5.049,0,0,1-2.637-.633,2.675,2.675,0,0,1-1.292-1.881l2.118-.6a1.7,1.7,0,0,0,1.811,1.345,1.87,1.87,0,0,0,.923-.207.719.719,0,0,0,.36-.7.739.739,0,0,0-.149-.466,1.183,1.183,0,0,0-.461-.334,5.749,5.749,0,0,0-.615-.237q-.3-.1-.8-.233t-.835-.259a5.593,5.593,0,0,1-.8-.338,3.393,3.393,0,0,1-.659-.466,1.878,1.878,0,0,1-.492-.708,2.552,2.552,0,0,1-.171-.967,2.308,2.308,0,0,1,.98-2.021,4.379,4.379,0,0,1,2.562-.686,4.489,4.489,0,0,1,2.364.58,2.625,2.625,0,0,1,1.213,1.811l-1.96.439a1.535,1.535,0,0,0-1.608-1.143,1.761,1.761,0,0,0-.888.2.649.649,0,0,0-.352.6.685.685,0,0,0,.053.272.539.539,0,0,0,.185.22,2.692,2.692,0,0,0,.255.167,1.923,1.923,0,0,0,.36.145q.237.075.4.114l.461.119.47.123q.483.132.848.264a4.967,4.967,0,0,1,.778.369,2.792,2.792,0,0,1,.681.532,2.372,2.372,0,0,1,.444.747,2.759,2.759,0,0,1,.176,1.006,2.718,2.718,0,0,1-.3,1.31,2.276,2.276,0,0,1-.831.883,4.043,4.043,0,0,1-1.173.475A6.087,6.087,0,0,1,163.064,41.176Zm8.9-.176a2.729,2.729,0,0,1-2.039-.734,2.854,2.854,0,0,1-.721-2.087V33.907h-1.775V31.965H168a1.491,1.491,0,0,0,1.125-.378,1.946,1.946,0,0,0,.36-1.345v-1.2h2.285v2.918h1.863v1.942h-1.863v4q0,1.169,1.046,1.169h.817V41Zm12.094-4.649-.026.606h-6.7a2.339,2.339,0,0,0,.721,1.652,2.3,2.3,0,0,0,1.591.571,2.221,2.221,0,0,0,1.191-.312,1.918,1.918,0,0,0,.76-.91l2.32.343a3.945,3.945,0,0,1-1.582,2.118,4.7,4.7,0,0,1-2.672.756,4.891,4.891,0,0,1-3.52-1.244,4.538,4.538,0,0,1-1.305-3.45,4.565,4.565,0,0,1,1.31-3.45,4.746,4.746,0,0,1,3.437-1.261,4.136,4.136,0,0,1,4.474,4.579ZM179.6,33.564a2,2,0,0,0-2.2,1.74h4.148a1.9,1.9,0,0,0-.624-1.292A1.978,1.978,0,0,0,179.6,33.564Zm9.563,7.611a5.049,5.049,0,0,1-2.637-.633,2.675,2.675,0,0,1-1.292-1.881l2.118-.6a1.7,1.7,0,0,0,1.811,1.345,1.87,1.87,0,0,0,.923-.207.719.719,0,0,0,.36-.7.739.739,0,0,0-.149-.466,1.183,1.183,0,0,0-.461-.334,5.749,5.749,0,0,0-.615-.237q-.3-.1-.8-.233t-.835-.259a5.593,5.593,0,0,1-.8-.338,3.393,3.393,0,0,1-.659-.466,1.878,1.878,0,0,1-.492-.708,2.552,2.552,0,0,1-.171-.967,2.308,2.308,0,0,1,.98-2.021,4.379,4.379,0,0,1,2.562-.686,4.489,4.489,0,0,1,2.364.58,2.625,2.625,0,0,1,1.213,1.811l-1.96.439a1.535,1.535,0,0,0-1.608-1.143,1.761,1.761,0,0,0-.888.2.649.649,0,0,0-.352.6.685.685,0,0,0,.053.272.539.539,0,0,0,.185.22,2.692,2.692,0,0,0,.255.167,1.923,1.923,0,0,0,.36.145q.237.075.4.114l.461.119.47.123q.483.132.848.264a4.967,4.967,0,0,1,.778.369,2.792,2.792,0,0,1,.681.532,2.372,2.372,0,0,1,.444.747,2.759,2.759,0,0,1,.176,1.006,2.718,2.718,0,0,1-.3,1.31,2.276,2.276,0,0,1-.831.883,4.043,4.043,0,0,1-1.173.475A6.087,6.087,0,0,1,189.167,41.176Zm15.521-9.387a4.372,4.372,0,0,1,1.679.325,4.064,4.064,0,0,1,2.32,2.408,5.876,5.876,0,0,1,0,3.955,4.064,4.064,0,0,1-2.32,2.408,4.372,4.372,0,0,1-1.679.325,3.9,3.9,0,0,1-1.709-.365,2.527,2.527,0,0,1-1.138-1.024L201.78,41h-2.4V27.5h2.531v5.563a2.522,2.522,0,0,1,1.129-.94A3.973,3.973,0,0,1,204.689,31.789ZM204.1,39.11a2.277,2.277,0,0,0,1.718-.712,3,3,0,0,0,0-3.806,2.277,2.277,0,0,0-1.718-.712,2.251,2.251,0,0,0-1.705.725,2.96,2.96,0,0,0,0,3.784A2.253,2.253,0,0,0,204.1,39.11Zm14.247-.562a8.453,8.453,0,0,0,.22,2.206V41H216.2l-.2-.984a2.938,2.938,0,0,1-1.266.87,4.664,4.664,0,0,1-1.635.29,4.3,4.3,0,0,1-.844-.079,2.868,2.868,0,0,1-.76-.268,2.307,2.307,0,0,1-.628-.47,2.062,2.062,0,0,1-.422-.716,2.853,2.853,0,0,1-.158-.98,2.718,2.718,0,0,1,.167-.98,2.3,2.3,0,0,1,.439-.734,2.666,2.666,0,0,1,.712-.536,5.447,5.447,0,0,1,.9-.387,10.712,10.712,0,0,1,1.072-.281l1.485-.334a1.638,1.638,0,0,0,.672-.286.57.57,0,0,0,.2-.453.932.932,0,0,0-.444-.87,2.072,2.072,0,0,0-1.077-.264,1.549,1.549,0,0,0-1.767,1.38l-2.241-.4a3.034,3.034,0,0,1,1.31-2.061,5.2,5.2,0,0,1,2.839-.664q3.8,0,3.8,3.261Zm-4.456.914a2.036,2.036,0,0,0,1.564-.655,2.759,2.759,0,0,0,.606-1.938l-2.145.606a2.534,2.534,0,0,0-.9.369.758.758,0,0,0-.312.65.842.842,0,0,0,.334.716A1.382,1.382,0,0,0,213.891,39.462Zm8.218-8.851a1.421,1.421,0,0,1-1.037-.426,1.4,1.4,0,0,1-.431-1.033,1.382,1.382,0,0,1,.435-1.024,1.425,1.425,0,0,1,1.033-.426,1.455,1.455,0,0,1,0,2.909Zm-3.146,14.625V43.259a2.912,2.912,0,0,0,.949-.127,1.061,1.061,0,0,0,.563-.453,2,2,0,0,0,.268-.778,8.77,8.77,0,0,0,.066-1.208V31.965h2.566v8.728a4.908,4.908,0,0,1-1.028,3.454A4.487,4.487,0,0,1,218.962,45.236Zm11.25-4.061a5.681,5.681,0,0,1-2.558-.554A4.138,4.138,0,0,1,225.9,39a4.846,4.846,0,0,1-.637-2.522,4.42,4.42,0,0,1,1.371-3.428,5.731,5.731,0,0,1,7.163,0,4.42,4.42,0,0,1,1.371,3.428,4.444,4.444,0,0,1-1.371,3.441A5.088,5.088,0,0,1,230.212,41.176Zm-.026-2.013a2.319,2.319,0,0,0,1.789-.738,3.135,3.135,0,0,0,0-3.9,2.319,2.319,0,0,0-1.789-.738,2.234,2.234,0,0,0-1.736.743,3.155,3.155,0,0,0,0,3.894A2.234,2.234,0,0,0,230.186,39.163Zm10.046,2.013a5.049,5.049,0,0,1-2.637-.633,2.675,2.675,0,0,1-1.292-1.881l2.118-.6a1.7,1.7,0,0,0,1.811,1.345,1.87,1.87,0,0,0,.923-.207.719.719,0,0,0,.36-.7.739.739,0,0,0-.149-.466,1.183,1.183,0,0,0-.461-.334,5.749,5.749,0,0,0-.615-.237q-.3-.1-.8-.233t-.835-.259a5.593,5.593,0,0,1-.8-.338,3.393,3.393,0,0,1-.659-.466,1.878,1.878,0,0,1-.492-.708,2.552,2.552,0,0,1-.171-.967,2.308,2.308,0,0,1,.98-2.021,4.379,4.379,0,0,1,2.562-.686,4.489,4.489,0,0,1,2.364.58,2.625,2.625,0,0,1,1.213,1.811l-1.96.439a1.535,1.535,0,0,0-1.608-1.143,1.761,1.761,0,0,0-.888.2.649.649,0,0,0-.352.6.685.685,0,0,0,.053.272.539.539,0,0,0,.185.22,2.692,2.692,0,0,0,.255.167,1.923,1.923,0,0,0,.36.145q.237.075.4.114l.461.119.47.123q.483.132.848.264a4.967,4.967,0,0,1,.778.369,2.792,2.792,0,0,1,.681.532,2.372,2.372,0,0,1,.444.747,2.759,2.759,0,0,1,.176,1.006,2.718,2.718,0,0,1-.3,1.31,2.276,2.276,0,0,1-.831.883,4.043,4.043,0,0,1-1.173.475A6.087,6.087,0,0,1,240.232,41.176Z" transform="translate(3371 -2639)" fill="#fff"/>
    <path id="Trazado_17230" data-name="Trazado 17230" d="M41.884,6.058H36.857v4.052h4.43v1.415h-4.43v4.043h5.027V17H35.249V4.625h6.636ZM43.282,17,46.6,12.676,43.282,8.36h1.872l2.391,3.3,2.391-3.3h1.846L48.45,12.676,51.781,17H49.926l-2.373-3.287L45.154,17Zm13.614.158A4.161,4.161,0,0,1,53.8,15.919a4.421,4.421,0,0,1-1.222-3.243A4.43,4.43,0,0,1,53.8,9.433a4.5,4.5,0,0,1,5.6-.483,3.815,3.815,0,0,1,1.455,2.1l-1.424.229a2.63,2.63,0,0,0-.976-1.345,2.656,2.656,0,0,0-1.564-.475,2.554,2.554,0,0,0-2,.888,3.382,3.382,0,0,0-.787,2.329A3.365,3.365,0,0,0,54.888,15a2.56,2.56,0,0,0,2,.883,2.656,2.656,0,0,0,1.564-.475,2.63,2.63,0,0,0,.976-1.345l1.424.237a3.819,3.819,0,0,1-1.463,2.1A4.185,4.185,0,0,1,56.9,17.158Zm6.2-.158V3.5H64.63V17ZM73.1,8.36h1.521V17H73.165l-.035-1.143a2.7,2.7,0,0,1-1.072.971,3.3,3.3,0,0,1-1.512.338,3.005,3.005,0,0,1-2.175-.782,2.918,2.918,0,0,1-.813-2.206V8.36h1.521v5.476a2.05,2.05,0,0,0,.532,1.547,1.882,1.882,0,0,0,1.358.51,2.067,2.067,0,0,0,1.534-.6,2.434,2.434,0,0,0,.6-1.767Zm7.348,8.807a4.1,4.1,0,0,1-2.329-.624,2.581,2.581,0,0,1-1.134-1.775l1.327-.378a1.851,1.851,0,0,0,.708,1.2,2.3,2.3,0,0,0,1.419.426,2.832,2.832,0,0,0,.831-.114,1.331,1.331,0,0,0,.637-.426,1.189,1.189,0,0,0,.185-1.143,1.526,1.526,0,0,0-.141-.286.87.87,0,0,0-.246-.237,3.245,3.245,0,0,0-.3-.185,3.067,3.067,0,0,0-.391-.163q-.259-.092-.417-.141t-.483-.141q-.325-.092-.5-.145a9.372,9.372,0,0,1-.9-.316,3.932,3.932,0,0,1-.729-.417,1.679,1.679,0,0,1-.567-.681,2.3,2.3,0,0,1-.189-.967,2.234,2.234,0,0,1,.422-1.38,2.374,2.374,0,0,1,1.094-.813,4.374,4.374,0,0,1,1.534-.25,3.754,3.754,0,0,1,2.1.563,2.4,2.4,0,0,1,1.05,1.688l-1.248.316a1.655,1.655,0,0,0-.659-1.094,2.1,2.1,0,0,0-1.239-.365,2.139,2.139,0,0,0-1.16.3,1.019,1.019,0,0,0-.483.927.923.923,0,0,0,.127.479,1.521,1.521,0,0,0,.259.338,1.594,1.594,0,0,0,.475.259q.343.136.51.185t.633.163q.088.026.132.035.51.132.831.233a5.105,5.105,0,0,1,.747.316,2.484,2.484,0,0,1,.672.47,2.178,2.178,0,0,1,.422.668,2.358,2.358,0,0,1,.176.932,2.516,2.516,0,0,1-.259,1.165,2.028,2.028,0,0,1-.708.8,3.422,3.422,0,0,1-1.006.435A4.8,4.8,0,0,1,80.451,17.167ZM86.8,6.33A1.035,1.035,0,0,1,85.768,5.3a.975.975,0,0,1,.3-.721,1,1,0,0,1,.725-.3.987.987,0,0,1,.716.3.975.975,0,0,1,.3.721.989.989,0,0,1-.3.725A.979.979,0,0,1,86.8,6.33ZM86.023,17V8.36h1.529V17ZM96.034,8.36H97.66L94.144,17H92.852l-3.5-8.64h1.617L93.5,15.233Zm4.2-2.03A1.035,1.035,0,0,1,99.207,5.3a.975.975,0,0,1,.3-.721,1,1,0,0,1,.725-.3.987.987,0,0,1,.716.3.975.975,0,0,1,.3.721.989.989,0,0,1-.3.725A.979.979,0,0,1,100.235,6.33ZM99.461,17V8.36h1.529V17Zm11-13.5h1.521V17h-1.468l-.035-1.679a3.179,3.179,0,0,1-1.23,1.362,3.429,3.429,0,0,1-1.828.5,3.926,3.926,0,0,1-2.852-1.217,4.16,4.16,0,0,1-.87-1.428,5.225,5.225,0,0,1-.321-1.854,4.543,4.543,0,0,1,1.173-3.243,3.788,3.788,0,0,1,2.87-1.248,3.443,3.443,0,0,1,1.806.488A3.2,3.2,0,0,1,110.465,10Zm-2.725,12.366a2.587,2.587,0,0,0,2.008-.91,3.283,3.283,0,0,0,.813-2.272,3.277,3.277,0,0,0-.817-2.268,2.586,2.586,0,0,0-2-.914,2.644,2.644,0,0,0-2.021.883,3.25,3.25,0,0,0-.817,2.3,3.25,3.25,0,0,0,.817,2.3A2.644,2.644,0,0,0,107.741,15.866Zm9.334,1.3a2.94,2.94,0,0,1-1.894-.593,2.13,2.13,0,0,1-.743-1.771,2.517,2.517,0,0,1,.237-1.129,1.991,1.991,0,0,1,.7-.787,4.218,4.218,0,0,1,1.015-.488,9.384,9.384,0,0,1,1.314-.312l1.4-.229q.765-.141.765-.8a1.51,1.51,0,0,0-.541-1.288,2.2,2.2,0,0,0-1.367-.409,2.243,2.243,0,0,0-1.354.4,1.655,1.655,0,0,0-.642,1.213l-1.371-.29a2.639,2.639,0,0,1,1.081-1.85,4.039,4.039,0,0,1,2.355-.62,4.777,4.777,0,0,1,1.252.154,3.4,3.4,0,0,1,1.046.483,2.168,2.168,0,0,1,.747.932,3.466,3.466,0,0,1,.268,1.419v3.568a1.46,1.46,0,0,0,.2.9.854.854,0,0,0,.681.233h.141V17h-.756a1.442,1.442,0,0,1-1.635-1.169h-.07A3.3,3.3,0,0,1,117.075,17.167Zm.352-1.23a2.305,2.305,0,0,0,1.854-.835,3.438,3.438,0,0,0,.7-2.285l-2.285.439a3.076,3.076,0,0,0-1.34.479,1.114,1.114,0,0,0-.435.945,1.1,1.1,0,0,0,.417.949A1.785,1.785,0,0,0,117.426,15.937ZM130.715,3.5h1.521V17h-1.468l-.035-1.679a3.179,3.179,0,0,1-1.23,1.362,3.429,3.429,0,0,1-1.828.5,3.926,3.926,0,0,1-2.852-1.217,4.16,4.16,0,0,1-.87-1.428,5.225,5.225,0,0,1-.321-1.854A4.543,4.543,0,0,1,124.8,9.441a3.788,3.788,0,0,1,2.87-1.248,3.443,3.443,0,0,1,1.806.488A3.2,3.2,0,0,1,130.715,10Zm-2.725,12.366a2.587,2.587,0,0,0,2.008-.91,3.283,3.283,0,0,0,.813-2.272,3.277,3.277,0,0,0-.817-2.268,2.586,2.586,0,0,0-2-.914,2.644,2.644,0,0,0-2.021.883,3.25,3.25,0,0,0-.817,2.3,3.25,3.25,0,0,0,.817,2.3A2.644,2.644,0,0,0,127.991,15.866Zm16.576-7.673a3.93,3.93,0,0,1,1.564.316,3.849,3.849,0,0,1,1.283.888,4.149,4.149,0,0,1,.866,1.424,5.25,5.25,0,0,1,.321,1.863,4.568,4.568,0,0,1-1.165,3.261,3.782,3.782,0,0,1-2.87,1.239,3.42,3.42,0,0,1-1.806-.492,3.226,3.226,0,0,1-1.235-1.327v5.985h-1.521V8.36h1.468l.035,1.679a3.163,3.163,0,0,1,1.23-1.349A3.452,3.452,0,0,1,144.567,8.193Zm-.3,7.673a2.623,2.623,0,0,0,2-.875,3.253,3.253,0,0,0,.813-2.307,3.237,3.237,0,0,0-.813-2.3,2.726,2.726,0,0,0-4.03.04,3.24,3.24,0,0,0-.826,2.263,3.252,3.252,0,0,0,.826,2.272A2.636,2.636,0,0,0,144.268,15.866Zm14.291-3.357-.018.413h-6.75a3.053,3.053,0,0,0,.826,2.21,2.713,2.713,0,0,0,1.969.769,2.59,2.59,0,0,0,1.433-.413A2.68,2.68,0,0,0,157,14.346l1.371.29A3.9,3.9,0,0,1,156.9,16.49a4.028,4.028,0,0,1-2.294.677,4.174,4.174,0,0,1-3.111-1.2,4.479,4.479,0,0,1-1.187-3.287A4.458,4.458,0,0,1,151.5,9.4a4.122,4.122,0,0,1,3.063-1.2,3.9,3.9,0,0,1,2.9,1.107A4.376,4.376,0,0,1,158.559,12.509Zm-4-3.146a2.694,2.694,0,0,0-1.8.611,2.8,2.8,0,0,0-.91,1.78h5.177a2.567,2.567,0,0,0-.756-1.78A2.441,2.441,0,0,0,154.56,9.362Zm7.866.519a2.612,2.612,0,0,1,1.072-1.16,3.229,3.229,0,0,1,1.661-.457V9.7a2.846,2.846,0,0,0-2.008.642,2.68,2.68,0,0,0-.69,2.048V17h-1.521V8.36h1.485Zm8,7.277a4.161,4.161,0,0,1-3.094-1.239,4.421,4.421,0,0,1-1.222-3.243,4.43,4.43,0,0,1,1.217-3.243,4.5,4.5,0,0,1,5.6-.483,3.815,3.815,0,0,1,1.455,2.1l-1.424.229a2.63,2.63,0,0,0-.976-1.345,2.656,2.656,0,0,0-1.564-.475,2.554,2.554,0,0,0-2,.888,3.382,3.382,0,0,0-.787,2.329A3.365,3.365,0,0,0,168.416,15a2.56,2.56,0,0,0,2,.883,2.656,2.656,0,0,0,1.564-.475,2.63,2.63,0,0,0,.976-1.345l1.424.237a3.819,3.819,0,0,1-1.463,2.1A4.185,4.185,0,0,1,170.424,17.158Zm6.97-10.828A1.035,1.035,0,0,1,176.366,5.3a.975.975,0,0,1,.3-.721,1,1,0,0,1,.725-.3.987.987,0,0,1,.716.3.975.975,0,0,1,.3.721.989.989,0,0,1-.3.725A.979.979,0,0,1,177.394,6.33ZM176.621,17V8.36h1.529V17Zm9.2-8.807a3.764,3.764,0,0,1,2.856,1.248,4.553,4.553,0,0,1,1.169,3.243,4.586,4.586,0,0,1-1.16,3.252,3.756,3.756,0,0,1-2.865,1.248,3.467,3.467,0,0,1-1.841-.5,3.171,3.171,0,0,1-1.235-1.362L182.711,17h-1.468V3.5h1.512l.009,6.513A3.184,3.184,0,0,1,184,8.681,3.476,3.476,0,0,1,185.823,8.193Zm-.334,7.673a2.644,2.644,0,0,0,2.021-.883,3.25,3.25,0,0,0,.817-2.3,3.25,3.25,0,0,0-.817-2.3,2.644,2.644,0,0,0-2.021-.883,2.586,2.586,0,0,0-2,.914,3.277,3.277,0,0,0-.817,2.268,3.283,3.283,0,0,0,.813,2.272A2.587,2.587,0,0,0,185.489,15.866Zm7.523-9.536A1.035,1.035,0,0,1,191.984,5.3a.975.975,0,0,1,.3-.721,1,1,0,0,1,.725-.3.987.987,0,0,1,.716.3.975.975,0,0,1,.3.721.989.989,0,0,1-.3.725A.979.979,0,0,1,193.012,6.33ZM192.239,17V8.36h1.529V17Zm11-13.5h1.521V17H203.3l-.035-1.679a3.179,3.179,0,0,1-1.23,1.362,3.429,3.429,0,0,1-1.828.5,3.926,3.926,0,0,1-2.852-1.217,4.16,4.16,0,0,1-.87-1.428,5.225,5.225,0,0,1-.321-1.854,4.543,4.543,0,0,1,1.173-3.243,3.788,3.788,0,0,1,2.87-1.248,3.443,3.443,0,0,1,1.806.488A3.2,3.2,0,0,1,203.243,10Zm-2.725,12.366a2.587,2.587,0,0,0,2.008-.91,3.283,3.283,0,0,0,.813-2.272,3.277,3.277,0,0,0-.817-2.268,2.586,2.586,0,0,0-2-.914,2.644,2.644,0,0,0-2.021.883,3.25,3.25,0,0,0-.817,2.3,3.25,3.25,0,0,0,.817,2.3A2.644,2.644,0,0,0,200.518,15.866Zm9.334,1.3a2.94,2.94,0,0,1-1.894-.593,2.13,2.13,0,0,1-.743-1.771,2.517,2.517,0,0,1,.237-1.129,1.991,1.991,0,0,1,.7-.787,4.218,4.218,0,0,1,1.015-.488,9.384,9.384,0,0,1,1.314-.312l1.4-.229q.765-.141.765-.8a1.51,1.51,0,0,0-.541-1.288,2.2,2.2,0,0,0-1.367-.409,2.243,2.243,0,0,0-1.354.4,1.655,1.655,0,0,0-.642,1.213l-1.371-.29a2.639,2.639,0,0,1,1.081-1.85,4.039,4.039,0,0,1,2.355-.62,4.777,4.777,0,0,1,1.252.154,3.4,3.4,0,0,1,1.046.483,2.168,2.168,0,0,1,.747.932,3.466,3.466,0,0,1,.268,1.419v3.568a1.46,1.46,0,0,0,.2.9A.854.854,0,0,0,215,15.9h.141V17h-.756a1.442,1.442,0,0,1-1.635-1.169h-.07A3.3,3.3,0,0,1,209.852,17.167Zm.352-1.23a2.305,2.305,0,0,0,1.854-.835,3.438,3.438,0,0,0,.7-2.285l-2.285.439a3.076,3.076,0,0,0-1.34.479,1.114,1.114,0,0,0-.435.945,1.1,1.1,0,0,0,.417.949A1.785,1.785,0,0,0,210.2,15.937Zm16.321-7.743a3.93,3.93,0,0,1,1.564.316,3.849,3.849,0,0,1,1.283.888,4.149,4.149,0,0,1,.866,1.424,5.25,5.25,0,0,1,.321,1.863,4.568,4.568,0,0,1-1.165,3.261,3.782,3.782,0,0,1-2.87,1.239,3.42,3.42,0,0,1-1.806-.492,3.226,3.226,0,0,1-1.235-1.327v5.985h-1.521V8.36h1.468l.035,1.679A3.163,3.163,0,0,1,224.7,8.69,3.452,3.452,0,0,1,226.525,8.193Zm-.3,7.673a2.623,2.623,0,0,0,2-.875,3.253,3.253,0,0,0,.813-2.307,3.237,3.237,0,0,0-.813-2.3,2.726,2.726,0,0,0-4.03.04,3.24,3.24,0,0,0-.826,2.263,3.252,3.252,0,0,0,.826,2.272A2.636,2.636,0,0,0,226.226,15.866Zm10.371,1.3a4.554,4.554,0,0,1-2.215-.536,3.9,3.9,0,0,1-1.56-1.569,4.819,4.819,0,0,1-.576-2.386,4.4,4.4,0,0,1,1.226-3.256,4.6,4.6,0,0,1,6.253,0,4.41,4.41,0,0,1,1.222,3.256,4.413,4.413,0,0,1-1.226,3.265A4.232,4.232,0,0,1,236.6,17.167Zm-.009-1.266a2.654,2.654,0,0,0,2.043-.888,3.326,3.326,0,0,0,.813-2.338,3.314,3.314,0,0,0-.813-2.329,2.654,2.654,0,0,0-2.043-.888,2.617,2.617,0,0,0-2.026.888,3.336,3.336,0,0,0-.8,2.329,3.348,3.348,0,0,0,.8,2.338A2.617,2.617,0,0,0,236.588,15.9Zm8.227-6.021a2.612,2.612,0,0,1,1.072-1.16,3.229,3.229,0,0,1,1.661-.457V9.7a2.846,2.846,0,0,0-2.008.642,2.68,2.68,0,0,0-.69,2.048V17H243.33V8.36h1.485Zm16.752,2.628-.018.413H254.8a3.053,3.053,0,0,0,.826,2.21,2.713,2.713,0,0,0,1.969.769,2.59,2.59,0,0,0,1.433-.413,2.68,2.68,0,0,0,.984-1.143l1.371.29a3.9,3.9,0,0,1-1.477,1.854,4.028,4.028,0,0,1-2.294.677,4.174,4.174,0,0,1-3.111-1.2,4.479,4.479,0,0,1-1.187-3.287A4.458,4.458,0,0,1,254.5,9.4a4.122,4.122,0,0,1,3.063-1.2,3.9,3.9,0,0,1,2.9,1.107A4.376,4.376,0,0,1,261.567,12.509Zm-4-3.146a2.694,2.694,0,0,0-1.8.611,2.8,2.8,0,0,0-.91,1.78h5.177a2.567,2.567,0,0,0-.756-1.78A2.441,2.441,0,0,0,257.568,9.362ZM263.949,17V3.5h1.538V17Zm12.894.158a4.161,4.161,0,0,1-3.094-1.239,4.421,4.421,0,0,1-1.222-3.243,4.43,4.43,0,0,1,1.217-3.243,4.5,4.5,0,0,1,5.6-.483,3.815,3.815,0,0,1,1.455,2.1l-1.424.229a2.63,2.63,0,0,0-.976-1.345,2.656,2.656,0,0,0-1.564-.475,2.554,2.554,0,0,0-2,.888,3.382,3.382,0,0,0-.787,2.329A3.365,3.365,0,0,0,274.834,15a2.56,2.56,0,0,0,2,.883,2.656,2.656,0,0,0,1.564-.475,2.63,2.63,0,0,0,.976-1.345l1.424.237a3.819,3.819,0,0,1-1.463,2.1A4.185,4.185,0,0,1,276.842,17.158Zm6.2-.158V3.5h1.538V17Zm5.405-10.67A1.035,1.035,0,0,1,287.416,5.3a.975.975,0,0,1,.3-.721,1,1,0,0,1,.725-.3.987.987,0,0,1,.716.3.975.975,0,0,1,.3.721.989.989,0,0,1-.3.725A.979.979,0,0,1,288.444,6.33ZM287.67,17V8.36H289.2V17Zm12.182-4.491-.018.413h-6.75a3.053,3.053,0,0,0,.826,2.21,2.713,2.713,0,0,0,1.969.769,2.59,2.59,0,0,0,1.433-.413,2.68,2.68,0,0,0,.984-1.143l1.371.29a3.9,3.9,0,0,1-1.477,1.854,4.028,4.028,0,0,1-2.294.677,4.174,4.174,0,0,1-3.111-1.2,4.479,4.479,0,0,1-1.187-3.287A4.458,4.458,0,0,1,292.79,9.4a4.122,4.122,0,0,1,3.063-1.2,3.9,3.9,0,0,1,2.9,1.107A4.376,4.376,0,0,1,299.852,12.509Zm-4-3.146a2.694,2.694,0,0,0-1.8.611,2.8,2.8,0,0,0-.91,1.78h5.177a2.567,2.567,0,0,0-.756-1.78A2.441,2.441,0,0,0,295.853,9.362Zm10.459-1.169a3.005,3.005,0,0,1,2.175.782,2.918,2.918,0,0,1,.813,2.206V17H307.78V11.524a2.043,2.043,0,0,0-.527-1.547,1.885,1.885,0,0,0-1.354-.5,2.09,2.09,0,0,0-1.538.593,2.407,2.407,0,0,0-.606,1.762V17h-1.521V8.36h1.521V9.468A2.885,2.885,0,0,1,306.312,8.193ZM315,17a2.271,2.271,0,0,1-1.687-.62,2.344,2.344,0,0,1-.615-1.727V9.573h-1.767V8.36h.65a1.249,1.249,0,0,0,.954-.3,1.492,1.492,0,0,0,.277-1.015V5.478h1.415V8.36h1.986V9.573h-1.986V14.5a1.31,1.31,0,0,0,.33.954,1.154,1.154,0,0,0,.866.338h.791V17Zm10.863-4.491-.018.413h-6.75a3.053,3.053,0,0,0,.826,2.21,2.713,2.713,0,0,0,1.969.769,2.59,2.59,0,0,0,1.433-.413,2.68,2.68,0,0,0,.984-1.143l1.371.29A3.9,3.9,0,0,1,324.2,16.49a4.028,4.028,0,0,1-2.294.677,4.174,4.174,0,0,1-3.111-1.2,4.479,4.479,0,0,1-1.187-3.287A4.458,4.458,0,0,1,318.8,9.4a4.122,4.122,0,0,1,3.063-1.2,3.9,3.9,0,0,1,2.9,1.107A4.376,4.376,0,0,1,325.859,12.509Zm-4-3.146a2.694,2.694,0,0,0-1.8.611,2.8,2.8,0,0,0-.91,1.78h5.177a2.567,2.567,0,0,0-.756-1.78A2.441,2.441,0,0,0,321.86,9.362Z" transform="translate(2991 -2513)" fill="#00223d"/>
    <path id="Trazado_17231" data-name="Trazado 17231" d="M276.52,4.3h2.8L274.63,17h-2.9L267.063,4.3h2.795l3.331,9.624ZM288.6,6.62h-4.711V9.5h4.175V11.8h-4.175v2.874H288.6V17H281.23V4.3H288.6ZM299.986,4.3h2.628V17h-3.05l-5.625-9.079V17h-2.628V4.3h3.015l5.66,9.026Zm13.28,0V6.62h-3.015V17h-2.61V6.62h-3.032V4.3ZM322.68,17l-.923-2.619h-5.335L315.5,17h-2.7l4.676-12.7H320.7L325.378,17ZM317.2,12.175h3.788l-1.89-5.388Zm12.023,5a7.182,7.182,0,0,1-3.357-.879l1.116-2.171a3.317,3.317,0,0,0,1.925.677,1.389,1.389,0,0,0,1.178-.505,2.653,2.653,0,0,0,.387-1.6V4.3H333.1v8.886a3.949,3.949,0,0,1-1.059,2.949A3.855,3.855,0,0,1,329.219,17.176ZM344.688,17l-.923-2.619H338.43L337.507,17h-2.7l4.676-12.7h3.226L347.386,17ZM339.2,12.175h3.788L341.1,6.787ZM361.334,6.62h-4.711V9.5H360.8V11.8h-4.175v2.874h4.711V17h-7.365V4.3h7.365Zm6.935,10.556a6.136,6.136,0,0,1-3.524-.971,3.9,3.9,0,0,1-1.714-2.72l2.725-.624a2.314,2.314,0,0,0,.839,1.6,2.785,2.785,0,0,0,1.78.558,2.3,2.3,0,0,0,1.389-.391,1.319,1.319,0,0,0,.527-1.156,1.233,1.233,0,0,0-.448-.94,2.929,2.929,0,0,0-.892-.576q-.444-.171-1.428-.47-.132-.044-.193-.062-.5-.158-.809-.264t-.76-.294a5.063,5.063,0,0,1-.738-.369,5.405,5.405,0,0,1-.611-.457,2.394,2.394,0,0,1-.51-.584,3.1,3.1,0,0,1-.308-.729,3.219,3.219,0,0,1-.123-.905,3.4,3.4,0,0,1,.593-2,3.633,3.633,0,0,1,1.6-1.274,5.822,5.822,0,0,1,2.29-.426,7.233,7.233,0,0,1,1.657.185,5.8,5.8,0,0,1,1.481.567,3.628,3.628,0,0,1,1.182,1.046,3.933,3.933,0,0,1,.672,1.542L370.4,8.1a2.065,2.065,0,0,0-2.285-1.819,2.5,2.5,0,0,0-1.415.369,1.251,1.251,0,0,0-.554,1.116q0,.694.923,1.125a13.752,13.752,0,0,0,1.767.606q.519.158.844.264t.817.308a5.68,5.68,0,0,1,.8.391,5.918,5.918,0,0,1,.668.488,2.627,2.627,0,0,1,.567.633,3.422,3.422,0,0,1,.347.787,3.288,3.288,0,0,1,.141.98,3.85,3.85,0,0,1-.255,1.433,3.118,3.118,0,0,1-.7,1.081,4.058,4.058,0,0,1-1.05.743,5.1,5.1,0,0,1-1.292.439A7.431,7.431,0,0,1,368.269,17.176ZM382.762,4.3V6.62h-3.015V17h-2.61V6.62H374.1V4.3Zm8.7,12.7-3.3-5.59h-.765V17h-2.637V4.3h4.605a5.327,5.327,0,0,1,1.846.294,3.191,3.191,0,0,1,1.279.817,3.5,3.5,0,0,1,.721,1.2,4.388,4.388,0,0,1,.242,1.485,3.1,3.1,0,0,1-.694,2.087,3.5,3.5,0,0,1-2,1.094L394.583,17ZM387.394,6.488V9.521h1.556q1.978,0,1.978-1.512a1.377,1.377,0,0,0-.483-1.116,2.3,2.3,0,0,0-1.494-.4ZM405.121,17l-.923-2.619h-5.335L397.94,17h-2.7l4.676-12.7h3.226L407.819,17Zm-5.484-4.825h3.788l-1.89-5.388ZM416.011,4.3V6.62H413V17h-2.61V6.62h-3.032V4.3ZM424.519.767l-2,2.347h-1.556l2.3-3.234Zm.853,5.854H420.66V9.5h4.175V11.8H420.66v2.874h4.711V17h-7.365V4.3h7.365ZM433.1,17.176a6.867,6.867,0,0,1-2.536-.461,5.945,5.945,0,0,1-2.021-1.3,5.824,5.824,0,0,1-1.327-2.057,7.282,7.282,0,0,1-.479-2.681,7.26,7.26,0,0,1,.492-2.711A5.9,5.9,0,0,1,428.579,5.9,6.052,6.052,0,0,1,430.64,4.59a7.089,7.089,0,0,1,2.588-.466,6.921,6.921,0,0,1,3.3.778,5.657,5.657,0,0,1,2.29,2.21l-2.312,1.23a3.388,3.388,0,0,0-1.34-1.441,3.844,3.844,0,0,0-1.938-.483,3.683,3.683,0,0,0-2.773,1.116,4.258,4.258,0,0,0-1.077,3.085,4.391,4.391,0,0,0,1.072,3.1,3.724,3.724,0,0,0,2.874,1.16,4.247,4.247,0,0,0,1.547-.272,3.086,3.086,0,0,0,1.23-.883,3.2,3.2,0,0,0,.7-1.507h-3.472V10.1H439.3V17h-2.074V15.242A4.633,4.633,0,0,1,433.1,17.176ZM442.035,17V4.3h2.637V17Zm11.54.176a7.089,7.089,0,0,1-2.588-.466,6.087,6.087,0,0,1-2.061-1.3,5.864,5.864,0,0,1-1.354-2.065,7.2,7.2,0,0,1-.492-2.7,6.879,6.879,0,0,1,.844-3.45,5.744,5.744,0,0,1,2.316-2.281,6.935,6.935,0,0,1,3.335-.791A6.739,6.739,0,0,1,457.3,5.152a5.629,5.629,0,0,1,2.276,2.83l-2.461.9a3.479,3.479,0,0,0-1.362-1.714,3.891,3.891,0,0,0-2.18-.615A3.73,3.73,0,0,0,450.8,7.657a4.075,4.075,0,0,0-1.09,2.988,4.081,4.081,0,0,0,1.094,2.993,3.726,3.726,0,0,0,2.773,1.112,3.876,3.876,0,0,0,2.175-.62,3.5,3.5,0,0,0,1.367-1.718l2.461.9a5.652,5.652,0,0,1-2.276,2.834A6.718,6.718,0,0,1,453.575,17.176ZM470.239,17l-.923-2.619h-5.335L463.059,17h-2.7l4.676-12.7h3.226L472.938,17Zm-5.484-4.825h3.788l-1.89-5.388Z" transform="translate(2991 -2466)" fill="#00223d"/>
    <path id="Trazado_17232" data-name="Trazado 17232" d="M64.753,17.176a6.9,6.9,0,0,1-3.335-.8,5.766,5.766,0,0,1-2.316-2.29,6.886,6.886,0,0,1-.844-3.445A6.879,6.879,0,0,1,59.1,7.2a5.744,5.744,0,0,1,2.316-2.281,7.418,7.418,0,0,1,6.667,0A5.752,5.752,0,0,1,70.4,7.2a6.879,6.879,0,0,1,.844,3.45,6.886,6.886,0,0,1-.844,3.445,5.766,5.766,0,0,1-2.316,2.29A6.885,6.885,0,0,1,64.753,17.176Zm-2.777-3.529a4.025,4.025,0,0,0,5.555,0,4.1,4.1,0,0,0,1.09-3,4.075,4.075,0,0,0-1.09-2.988,4.036,4.036,0,0,0-5.555,0,4.075,4.075,0,0,0-1.09,2.988A4.1,4.1,0,0,0,61.976,13.647Zm18.51-3.353a2.971,2.971,0,0,1,2.391,3.146,3.41,3.41,0,0,1-1.011,2.606A4.176,4.176,0,0,1,78.895,17H73.665V4.3h4.113a4.66,4.66,0,0,1,3.107.918A3.186,3.186,0,0,1,81.962,7.78a2.988,2.988,0,0,1-.374,1.507A2.46,2.46,0,0,1,80.485,10.294ZM77.8,6.488h-1.6V9.477h1.714a1.606,1.606,0,0,0,1.213-.422,1.534,1.534,0,0,0,.4-1.107A1.363,1.363,0,0,0,79.1,6.888,1.859,1.859,0,0,0,77.8,6.488Zm.6,8.253a2.025,2.025,0,0,0,1.455-.448,1.524,1.524,0,0,0,.461-1.143,1.6,1.6,0,0,0-.466-1.178,2.061,2.061,0,0,0-1.5-.466H76.205v3.234Zm8.754,2.435A7.182,7.182,0,0,1,83.8,16.3l1.116-2.171a3.317,3.317,0,0,0,1.925.677,1.389,1.389,0,0,0,1.178-.505,2.653,2.653,0,0,0,.387-1.6V4.3h2.637v8.886a3.949,3.949,0,0,1-1.059,2.949A3.855,3.855,0,0,1,87.156,17.176ZM101.491,6.62H96.78V9.5h4.175V11.8H96.78v2.874h4.711V17H94.126V4.3h7.365ZM111.572,4.3V6.62h-3.015V17h-2.61V6.62h-3.032V4.3Zm2,12.7V4.3H116.2V17ZM127.56,4.3h2.8L125.67,17h-2.9L118.1,4.3H120.9l3.331,9.624Zm9.7,12.876a6.9,6.9,0,0,1-3.335-.8,5.766,5.766,0,0,1-2.316-2.29,6.886,6.886,0,0,1-.844-3.445,6.879,6.879,0,0,1,.844-3.45,5.744,5.744,0,0,1,2.316-2.281,7.418,7.418,0,0,1,6.667,0A5.752,5.752,0,0,1,142.905,7.2a6.879,6.879,0,0,1,.844,3.45,6.886,6.886,0,0,1-.844,3.445,5.766,5.766,0,0,1-2.316,2.29A6.885,6.885,0,0,1,137.263,17.176Zm-2.777-3.529a4.025,4.025,0,0,0,5.555,0,4.1,4.1,0,0,0,1.09-3,4.075,4.075,0,0,0-1.09-2.988,4.036,4.036,0,0,0-5.555,0,4.075,4.075,0,0,0-1.09,2.988A4.1,4.1,0,0,0,134.485,13.647Zm23.73-7.027H153.5V9.5h4.175V11.8H153.5v2.874h4.711V17h-7.365V4.3h7.365Zm6.935,10.556a6.136,6.136,0,0,1-3.524-.971,3.9,3.9,0,0,1-1.714-2.72l2.725-.624a2.314,2.314,0,0,0,.839,1.6,2.785,2.785,0,0,0,1.78.558,2.3,2.3,0,0,0,1.389-.391,1.319,1.319,0,0,0,.527-1.156,1.233,1.233,0,0,0-.448-.94,2.929,2.929,0,0,0-.892-.576q-.444-.171-1.428-.47-.132-.044-.193-.062-.5-.158-.809-.264t-.76-.294a5.063,5.063,0,0,1-.738-.369,5.405,5.405,0,0,1-.611-.457,2.394,2.394,0,0,1-.51-.584,3.1,3.1,0,0,1-.308-.729,3.219,3.219,0,0,1-.123-.905,3.4,3.4,0,0,1,.593-2,3.633,3.633,0,0,1,1.6-1.274,5.822,5.822,0,0,1,2.29-.426,7.233,7.233,0,0,1,1.657.185,5.8,5.8,0,0,1,1.481.567,3.628,3.628,0,0,1,1.182,1.046,3.933,3.933,0,0,1,.672,1.542l-2.549.633a2.065,2.065,0,0,0-2.285-1.819,2.5,2.5,0,0,0-1.415.369,1.251,1.251,0,0,0-.554,1.116q0,.694.923,1.125a13.752,13.752,0,0,0,1.767.606q.519.158.844.264t.817.308a5.68,5.68,0,0,1,.8.391,5.918,5.918,0,0,1,.668.488,2.627,2.627,0,0,1,.567.633,3.422,3.422,0,0,1,.347.787,3.288,3.288,0,0,1,.141.98,3.85,3.85,0,0,1-.255,1.433,3.118,3.118,0,0,1-.7,1.081,4.058,4.058,0,0,1-1.05.743,5.1,5.1,0,0,1-1.292.439A7.431,7.431,0,0,1,165.15,17.176ZM179.644,4.3V6.62h-3.015V17h-2.61V6.62h-3.032V4.3Zm8.7,12.7-3.3-5.59h-.765V17h-2.637V4.3h4.605a5.327,5.327,0,0,1,1.846.294,3.191,3.191,0,0,1,1.279.817,3.5,3.5,0,0,1,.721,1.2,4.388,4.388,0,0,1,.242,1.485,3.1,3.1,0,0,1-.694,2.087,3.5,3.5,0,0,1-2,1.094L191.465,17ZM184.275,6.488V9.521h1.556q1.978,0,1.978-1.512a1.377,1.377,0,0,0-.483-1.116,2.3,2.3,0,0,0-1.494-.4ZM202,17l-.923-2.619h-5.335L194.822,17h-2.7L196.8,4.3h3.226L204.7,17Zm-5.484-4.825h3.788l-1.89-5.388ZM212.893,4.3V6.62h-3.015V17h-2.61V6.62h-3.032V4.3ZM221.4.767l-2,2.347H217.85l2.3-3.234Zm.853,5.854h-4.711V9.5h4.175V11.8h-4.175v2.874h4.711V17h-7.365V4.3h7.365Zm7.726,10.556a6.867,6.867,0,0,1-2.536-.461,5.945,5.945,0,0,1-2.021-1.3,5.824,5.824,0,0,1-1.327-2.057,7.282,7.282,0,0,1-.479-2.681,7.26,7.26,0,0,1,.492-2.711A5.9,5.9,0,0,1,225.461,5.9a6.052,6.052,0,0,1,2.061-1.305,7.089,7.089,0,0,1,2.588-.466,6.921,6.921,0,0,1,3.3.778,5.657,5.657,0,0,1,2.29,2.21l-2.312,1.23a3.388,3.388,0,0,0-1.34-1.441,3.844,3.844,0,0,0-1.938-.483,3.683,3.683,0,0,0-2.773,1.116,4.258,4.258,0,0,0-1.077,3.085,4.391,4.391,0,0,0,1.072,3.1,3.724,3.724,0,0,0,2.874,1.16,4.247,4.247,0,0,0,1.547-.272,3.086,3.086,0,0,0,1.23-.883,3.2,3.2,0,0,0,.7-1.507h-3.472V10.1h5.968V17h-2.074V15.242A4.633,4.633,0,0,1,229.979,17.176ZM238.917,17V4.3h2.637V17Zm11.54.176a7.089,7.089,0,0,1-2.588-.466,6.087,6.087,0,0,1-2.061-1.3,5.864,5.864,0,0,1-1.354-2.065,7.2,7.2,0,0,1-.492-2.7,6.879,6.879,0,0,1,.844-3.45,5.744,5.744,0,0,1,2.316-2.281,6.935,6.935,0,0,1,3.335-.791,6.739,6.739,0,0,1,3.727,1.028,5.629,5.629,0,0,1,2.276,2.83l-2.461.9a3.479,3.479,0,0,0-1.362-1.714,3.891,3.891,0,0,0-2.18-.615,3.73,3.73,0,0,0-2.777,1.107,4.075,4.075,0,0,0-1.09,2.988,4.081,4.081,0,0,0,1.094,2.993,3.726,3.726,0,0,0,2.773,1.112,3.876,3.876,0,0,0,2.175-.62A3.5,3.5,0,0,0,254,12.412l2.461.9a5.652,5.652,0,0,1-2.276,2.834A6.718,6.718,0,0,1,250.457,17.176Zm13.79,0a6.9,6.9,0,0,1-3.335-.8,5.766,5.766,0,0,1-2.316-2.29,6.886,6.886,0,0,1-.844-3.445A6.879,6.879,0,0,1,258.6,7.2a5.744,5.744,0,0,1,2.316-2.281,7.418,7.418,0,0,1,6.667,0A5.752,5.752,0,0,1,269.89,7.2a6.879,6.879,0,0,1,.844,3.45,6.886,6.886,0,0,1-.844,3.445,5.766,5.766,0,0,1-2.316,2.29A6.885,6.885,0,0,1,264.247,17.176Zm-2.777-3.529a4.025,4.025,0,0,0,5.555,0,4.1,4.1,0,0,0,1.09-3,4.075,4.075,0,0,0-1.09-2.988,4.036,4.036,0,0,0-5.555,0,4.075,4.075,0,0,0-1.09,2.988A4.1,4.1,0,0,0,261.47,13.647Z" transform="translate(2907 -2541) rotate(-90)" fill="#00223d"/>
    <path id="Trazado_17233" data-name="Trazado 17233" d="M8.316,17.167a5.648,5.648,0,0,1-3.23-.875,3.7,3.7,0,0,1-1.613-2.4l1.591-.378A2.609,2.609,0,0,0,6.181,15.2a3.775,3.775,0,0,0,2.188.615,4.566,4.566,0,0,0,.817-.07,3.127,3.127,0,0,0,.743-.233,2.274,2.274,0,0,0,.611-.4,1.669,1.669,0,0,0,.4-.606,2.076,2.076,0,0,0,.141-.826,1.786,1.786,0,0,0-.11-.584,1.855,1.855,0,0,0-.246-.461,1.657,1.657,0,0,0-.417-.374,5.6,5.6,0,0,0-.5-.3,4.529,4.529,0,0,0-.62-.25q-.391-.132-.655-.207l-.712-.2q-.088-.026-.132-.035-.51-.132-.831-.229t-.769-.268a5.06,5.06,0,0,1-.734-.338,4.968,4.968,0,0,1-.6-.422,2.161,2.161,0,0,1-.5-.549,2.9,2.9,0,0,1-.3-.7,3.11,3.11,0,0,1-.119-.879,3.138,3.138,0,0,1,.576-1.9A3.368,3.368,0,0,1,5.9,4.827a5.392,5.392,0,0,1,2.043-.369,5.6,5.6,0,0,1,2.975.76A3.388,3.388,0,0,1,12.5,7.464l-1.529.387A2.328,2.328,0,0,0,9.942,6.33a3.523,3.523,0,0,0-1.934-.51,3.83,3.83,0,0,0-.949.114,2.82,2.82,0,0,0-.822.352,1.706,1.706,0,0,0-.593.646,1.965,1.965,0,0,0-.22.945,1.519,1.519,0,0,0,.088.523,1.605,1.605,0,0,0,.22.417,1.564,1.564,0,0,0,.378.343,3.839,3.839,0,0,0,.461.272,4.676,4.676,0,0,0,.576.224q.36.119.615.193t.677.18a14.318,14.318,0,0,1,2.382.791A3.014,3.014,0,0,1,12.658,13.1a3.924,3.924,0,0,1,.035.536,3.458,3.458,0,0,1-.356,1.6,2.885,2.885,0,0,1-.976,1.107,4.664,4.664,0,0,1-1.389.62A6.368,6.368,0,0,1,8.316,17.167Zm10.591,0a4.554,4.554,0,0,1-2.215-.536,3.9,3.9,0,0,1-1.56-1.569,4.819,4.819,0,0,1-.576-2.386,4.4,4.4,0,0,1,1.226-3.256,4.232,4.232,0,0,1,3.125-1.226,4.228,4.228,0,0,1,3.129,1.226,4.41,4.41,0,0,1,1.222,3.256,4.413,4.413,0,0,1-1.226,3.265A4.232,4.232,0,0,1,18.907,17.167ZM18.9,15.9a2.654,2.654,0,0,0,2.043-.888,3.326,3.326,0,0,0,.813-2.338,3.314,3.314,0,0,0-.813-2.329A2.654,2.654,0,0,0,18.9,9.459a2.617,2.617,0,0,0-2.026.888,3.336,3.336,0,0,0-.8,2.329,3.348,3.348,0,0,0,.8,2.338A2.617,2.617,0,0,0,18.9,15.9ZM25.64,17V3.5h1.538V17Zm8.271.167a4.554,4.554,0,0,1-2.215-.536,3.9,3.9,0,0,1-1.56-1.569,4.819,4.819,0,0,1-.576-2.386,4.4,4.4,0,0,1,1.226-3.256,4.6,4.6,0,0,1,6.253,0,4.41,4.41,0,0,1,1.222,3.256,4.413,4.413,0,0,1-1.226,3.265A4.232,4.232,0,0,1,33.91,17.167ZM33.9,15.9a2.654,2.654,0,0,0,2.043-.888,3.326,3.326,0,0,0,.813-2.338,3.314,3.314,0,0,0-.813-2.329A2.654,2.654,0,0,0,33.9,9.459a2.617,2.617,0,0,0-2.026.888,3.336,3.336,0,0,0-.8,2.329,3.348,3.348,0,0,0,.8,2.338A2.617,2.617,0,0,0,33.9,15.9ZM50.7,8.36h1.521V17H50.759l-.035-1.143a2.7,2.7,0,0,1-1.072.971,3.3,3.3,0,0,1-1.512.338,3.005,3.005,0,0,1-2.175-.782,2.918,2.918,0,0,1-.813-2.206V8.36h1.521v5.476a2.05,2.05,0,0,0,.532,1.547,1.882,1.882,0,0,0,1.358.51,2.067,2.067,0,0,0,1.534-.6,2.434,2.434,0,0,0,.6-1.767Zm8.692-.167a3.005,3.005,0,0,1,2.175.782,2.918,2.918,0,0,1,.813,2.206V17H60.857V11.524a2.043,2.043,0,0,0-.527-1.547,1.885,1.885,0,0,0-1.354-.5,2.09,2.09,0,0,0-1.538.593,2.407,2.407,0,0,0-.606,1.762V17H55.312V8.36h1.521V9.468A2.885,2.885,0,0,1,59.39,8.193Zm13.333,8.974a4.1,4.1,0,0,1-2.329-.624,2.581,2.581,0,0,1-1.134-1.775l1.327-.378a1.851,1.851,0,0,0,.708,1.2,2.3,2.3,0,0,0,1.419.426,2.832,2.832,0,0,0,.831-.114,1.331,1.331,0,0,0,.637-.426,1.189,1.189,0,0,0,.185-1.143,1.526,1.526,0,0,0-.141-.286.87.87,0,0,0-.246-.237,3.245,3.245,0,0,0-.3-.185,3.067,3.067,0,0,0-.391-.163q-.259-.092-.417-.141t-.483-.141q-.325-.092-.5-.145a9.372,9.372,0,0,1-.9-.316,3.932,3.932,0,0,1-.729-.417,1.679,1.679,0,0,1-.567-.681,2.3,2.3,0,0,1-.189-.967,2.234,2.234,0,0,1,.422-1.38,2.374,2.374,0,0,1,1.094-.813,4.374,4.374,0,0,1,1.534-.25,3.754,3.754,0,0,1,2.1.563,2.4,2.4,0,0,1,1.05,1.688l-1.248.316A1.655,1.655,0,0,0,73.8,9.683a2.1,2.1,0,0,0-1.239-.365,2.139,2.139,0,0,0-1.16.3,1.019,1.019,0,0,0-.483.927.923.923,0,0,0,.127.479,1.521,1.521,0,0,0,.259.338,1.594,1.594,0,0,0,.475.259q.343.136.51.185t.633.163q.088.026.132.035.51.132.831.233a5.105,5.105,0,0,1,.747.316,2.484,2.484,0,0,1,.672.47,2.178,2.178,0,0,1,.422.668,2.358,2.358,0,0,1,.176.932,2.516,2.516,0,0,1-.259,1.165,2.028,2.028,0,0,1-.708.8,3.422,3.422,0,0,1-1.006.435A4.8,4.8,0,0,1,72.723,17.167Zm13.131-4.658-.018.413h-6.75a3.053,3.053,0,0,0,.826,2.21,2.713,2.713,0,0,0,1.969.769,2.59,2.59,0,0,0,1.433-.413,2.68,2.68,0,0,0,.984-1.143l1.371.29a3.9,3.9,0,0,1-1.477,1.854,4.028,4.028,0,0,1-2.294.677,4.174,4.174,0,0,1-3.111-1.2A4.479,4.479,0,0,1,77.6,12.676,4.458,4.458,0,0,1,78.792,9.4a4.122,4.122,0,0,1,3.063-1.2,3.9,3.9,0,0,1,2.9,1.107A4.376,4.376,0,0,1,85.854,12.509Zm-4-3.146a2.694,2.694,0,0,0-1.8.611,2.8,2.8,0,0,0-.91,1.78h5.177a2.567,2.567,0,0,0-.756-1.78A2.441,2.441,0,0,0,81.854,9.362Zm12.639-1H95.97v8.2a4.706,4.706,0,0,1-1.116,3.366,4.648,4.648,0,0,1-7.286-1.468l1.257-.615a2.856,2.856,0,0,0,2.892,2A2.48,2.48,0,0,0,93.742,19a3.591,3.591,0,0,0,.7-2.355v-1.6a3.045,3.045,0,0,1-1.23,1.244,3.58,3.58,0,0,1-1.8.47,3.7,3.7,0,0,1-2.795-1.217,4.293,4.293,0,0,1-1.151-3.072A4.253,4.253,0,0,1,88.618,9.4a3.74,3.74,0,0,1,2.808-1.208,3.49,3.49,0,0,1,1.811.483,3.112,3.112,0,0,1,1.222,1.274Zm-2.742,7.1a2.614,2.614,0,0,0,1.991-.888,3.136,3.136,0,0,0,0-4.228,2.708,2.708,0,0,0-3.986-.026,3,3,0,0,0-.813,2.145,2.978,2.978,0,0,0,.822,2.131A2.634,2.634,0,0,0,91.751,15.462ZM107.9,8.193a2.785,2.785,0,0,1,2.013.734,2.722,2.722,0,0,1,.765,2.061V17h-1.521V11.384a1.952,1.952,0,0,0-.475-1.424,1.616,1.616,0,0,0-1.2-.483,1.706,1.706,0,0,0-1.318.545,2.343,2.343,0,0,0-.5,1.635V17h-1.547V11.445a2.042,2.042,0,0,0-.479-1.472,1.629,1.629,0,0,0-1.226-.5,1.69,1.69,0,0,0-1.314.558,2.424,2.424,0,0,0-.505,1.674V17H99.063V8.36h1.521V9.477a2.625,2.625,0,0,1,.989-.949,2.82,2.82,0,0,1,1.375-.334,2.935,2.935,0,0,1,1.477.365,2.271,2.271,0,0,1,.958,1.05,2.689,2.689,0,0,1,1.037-1.05A2.966,2.966,0,0,1,107.9,8.193Zm13.28,4.315-.018.413h-6.75a3.053,3.053,0,0,0,.826,2.21,2.713,2.713,0,0,0,1.969.769,2.59,2.59,0,0,0,1.433-.413,2.68,2.68,0,0,0,.984-1.143l1.371.29a3.9,3.9,0,0,1-1.477,1.854,4.028,4.028,0,0,1-2.294.677,4.174,4.174,0,0,1-3.111-1.2,4.479,4.479,0,0,1-1.187-3.287A4.458,4.458,0,0,1,114.115,9.4a4.122,4.122,0,0,1,3.063-1.2,3.9,3.9,0,0,1,2.9,1.107A4.376,4.376,0,0,1,121.177,12.509Zm-4-3.146a2.694,2.694,0,0,0-1.8.611,2.8,2.8,0,0,0-.91,1.78h5.177a2.567,2.567,0,0,0-.756-1.78A2.441,2.441,0,0,0,117.178,9.362Zm10.459-1.169a3.005,3.005,0,0,1,2.175.782,2.918,2.918,0,0,1,.813,2.206V17H129.1V11.524a2.043,2.043,0,0,0-.527-1.547,1.885,1.885,0,0,0-1.354-.5,2.09,2.09,0,0,0-1.538.593,2.407,2.407,0,0,0-.606,1.762V17h-1.521V8.36h1.521V9.468A2.885,2.885,0,0,1,127.637,8.193ZM136.32,17a2.271,2.271,0,0,1-1.687-.62,2.344,2.344,0,0,1-.615-1.727V9.573h-1.767V8.36h.65a1.249,1.249,0,0,0,.954-.3,1.492,1.492,0,0,0,.277-1.015V5.478h1.415V8.36h1.986V9.573h-1.986V14.5a1.31,1.31,0,0,0,.33.954,1.154,1.154,0,0,0,.866.338h.791V17Zm6.943.167a4.554,4.554,0,0,1-2.215-.536,3.9,3.9,0,0,1-1.56-1.569,4.819,4.819,0,0,1-.576-2.386,4.4,4.4,0,0,1,1.226-3.256,4.6,4.6,0,0,1,6.253,0,4.41,4.41,0,0,1,1.222,3.256,4.413,4.413,0,0,1-1.226,3.265A4.232,4.232,0,0,1,143.264,17.167Zm-.009-1.266a2.654,2.654,0,0,0,2.043-.888,3.326,3.326,0,0,0,.813-2.338,3.314,3.314,0,0,0-.813-2.329,2.654,2.654,0,0,0-2.043-.888,2.617,2.617,0,0,0-2.026.888,3.336,3.336,0,0,0-.8,2.329,3.348,3.348,0,0,0,.8,2.338A2.617,2.617,0,0,0,143.255,15.9Z" transform="translate(2949 -2541) rotate(-90)" fill="#00223d"/>
    <path id="Trazado_17234" data-name="Trazado 17234" d="M24.4,4.625V6.058H21.232V17H19.667V6.058H16.486V4.625Zm4.236,12.542a4.554,4.554,0,0,1-2.215-.536,3.9,3.9,0,0,1-1.56-1.569,4.819,4.819,0,0,1-.576-2.386,4.4,4.4,0,0,1,1.226-3.256,4.232,4.232,0,0,1,3.125-1.226A4.228,4.228,0,0,1,31.77,9.419a4.41,4.41,0,0,1,1.222,3.256,4.413,4.413,0,0,1-1.226,3.265A4.232,4.232,0,0,1,28.641,17.167ZM28.632,15.9a2.654,2.654,0,0,0,2.043-.888,3.326,3.326,0,0,0,.813-2.338,3.314,3.314,0,0,0-.813-2.329,2.654,2.654,0,0,0-2.043-.888,2.617,2.617,0,0,0-2.026.888,3.336,3.336,0,0,0-.8,2.329,3.348,3.348,0,0,0,.8,2.338A2.617,2.617,0,0,0,28.632,15.9ZM41.754,3.5h1.521V17H41.807l-.035-1.679a3.179,3.179,0,0,1-1.23,1.362,3.429,3.429,0,0,1-1.828.5,3.926,3.926,0,0,1-2.852-1.217,4.16,4.16,0,0,1-.87-1.428,5.225,5.225,0,0,1-.321-1.854,4.543,4.543,0,0,1,1.173-3.243,3.788,3.788,0,0,1,2.87-1.248,3.443,3.443,0,0,1,1.806.488A3.2,3.2,0,0,1,41.754,10ZM39.03,15.866a2.587,2.587,0,0,0,2.008-.91,3.283,3.283,0,0,0,.813-2.272,3.277,3.277,0,0,0-.817-2.268,2.586,2.586,0,0,0-2-.914,2.644,2.644,0,0,0-2.021.883,3.25,3.25,0,0,0-.817,2.3,3.25,3.25,0,0,0,.817,2.3A2.644,2.644,0,0,0,39.03,15.866Zm10.978,1.3a4.554,4.554,0,0,1-2.215-.536,3.9,3.9,0,0,1-1.56-1.569,4.819,4.819,0,0,1-.576-2.386,4.4,4.4,0,0,1,1.226-3.256,4.6,4.6,0,0,1,6.253,0,4.41,4.41,0,0,1,1.222,3.256,4.413,4.413,0,0,1-1.226,3.265A4.232,4.232,0,0,1,50.007,17.167ZM50,15.9a2.654,2.654,0,0,0,2.043-.888,3.326,3.326,0,0,0,.813-2.338,3.314,3.314,0,0,0-.813-2.329A2.654,2.654,0,0,0,50,9.459a2.617,2.617,0,0,0-2.026.888,3.336,3.336,0,0,0-.8,2.329,3.348,3.348,0,0,0,.8,2.338A2.617,2.617,0,0,0,50,15.9Zm16.8-7.541h1.521V17H66.856l-.035-1.143a2.7,2.7,0,0,1-1.072.971,3.3,3.3,0,0,1-1.512.338,3.005,3.005,0,0,1-2.175-.782,2.918,2.918,0,0,1-.813-2.206V8.36h1.521v5.476a2.05,2.05,0,0,0,.532,1.547,1.882,1.882,0,0,0,1.358.51,2.067,2.067,0,0,0,1.534-.6,2.434,2.434,0,0,0,.6-1.767Zm8.692-.167a3.005,3.005,0,0,1,2.175.782,2.918,2.918,0,0,1,.813,2.206V17H76.955V11.524a2.043,2.043,0,0,0-.527-1.547,1.885,1.885,0,0,0-1.354-.5,2.09,2.09,0,0,0-1.538.593,2.407,2.407,0,0,0-.606,1.762V17H71.409V8.36h1.521V9.468A2.885,2.885,0,0,1,75.487,8.193ZM88.82,17.167a4.1,4.1,0,0,1-2.329-.624,2.581,2.581,0,0,1-1.134-1.775l1.327-.378a1.851,1.851,0,0,0,.708,1.2,2.3,2.3,0,0,0,1.419.426,2.832,2.832,0,0,0,.831-.114,1.331,1.331,0,0,0,.637-.426,1.189,1.189,0,0,0,.185-1.143,1.526,1.526,0,0,0-.141-.286.87.87,0,0,0-.246-.237,3.245,3.245,0,0,0-.3-.185,3.067,3.067,0,0,0-.391-.163q-.259-.092-.417-.141t-.483-.141q-.325-.092-.5-.145a9.372,9.372,0,0,1-.9-.316,3.932,3.932,0,0,1-.729-.417,1.679,1.679,0,0,1-.567-.681,2.3,2.3,0,0,1-.189-.967,2.234,2.234,0,0,1,.422-1.38,2.374,2.374,0,0,1,1.094-.813,4.374,4.374,0,0,1,1.534-.25,3.754,3.754,0,0,1,2.1.563,2.4,2.4,0,0,1,1.05,1.688l-1.248.316A1.655,1.655,0,0,0,89.9,9.683a2.1,2.1,0,0,0-1.239-.365,2.139,2.139,0,0,0-1.16.3,1.019,1.019,0,0,0-.483.927.923.923,0,0,0,.127.479,1.521,1.521,0,0,0,.259.338,1.594,1.594,0,0,0,.475.259q.343.136.51.185t.633.163q.088.026.132.035.51.132.831.233a5.105,5.105,0,0,1,.747.316,2.484,2.484,0,0,1,.672.47,2.178,2.178,0,0,1,.422.668,2.358,2.358,0,0,1,.176.932,2.516,2.516,0,0,1-.259,1.165,2.028,2.028,0,0,1-.708.8,3.422,3.422,0,0,1-1.006.435A4.8,4.8,0,0,1,88.82,17.167Zm13.131-4.658-.018.413h-6.75a3.053,3.053,0,0,0,.826,2.21,2.713,2.713,0,0,0,1.969.769,2.59,2.59,0,0,0,1.433-.413,2.68,2.68,0,0,0,.984-1.143l1.371.29a3.9,3.9,0,0,1-1.477,1.854A4.028,4.028,0,0,1,98,17.167a4.174,4.174,0,0,1-3.111-1.2A4.479,4.479,0,0,1,93.7,12.676,4.458,4.458,0,0,1,94.889,9.4a4.122,4.122,0,0,1,3.063-1.2,3.9,3.9,0,0,1,2.9,1.107A4.376,4.376,0,0,1,101.951,12.509Zm-4-3.146a2.694,2.694,0,0,0-1.8.611,2.8,2.8,0,0,0-.91,1.78h5.177a2.567,2.567,0,0,0-.756-1.78A2.441,2.441,0,0,0,97.952,9.362Zm9.967,7.8a4.161,4.161,0,0,1-3.094-1.239,4.421,4.421,0,0,1-1.222-3.243,4.43,4.43,0,0,1,1.217-3.243,4.5,4.5,0,0,1,5.6-.483,3.815,3.815,0,0,1,1.455,2.1l-1.424.229a2.63,2.63,0,0,0-.976-1.345,2.656,2.656,0,0,0-1.564-.475,2.554,2.554,0,0,0-2,.888,3.382,3.382,0,0,0-.787,2.329A3.365,3.365,0,0,0,105.91,15a2.56,2.56,0,0,0,2,.883,2.656,2.656,0,0,0,1.564-.475,2.63,2.63,0,0,0,.976-1.345l1.424.237a3.819,3.819,0,0,1-1.463,2.1A4.185,4.185,0,0,1,107.918,17.158ZM116.875,17a2.271,2.271,0,0,1-1.687-.62,2.344,2.344,0,0,1-.615-1.727V9.573h-1.767V8.36h.65a1.249,1.249,0,0,0,.954-.3,1.492,1.492,0,0,0,.277-1.015V5.478H116.1V8.36h1.986V9.573H116.1V14.5a1.31,1.31,0,0,0,.33.954,1.154,1.154,0,0,0,.866.338h.791V17Zm6.943.167a4.554,4.554,0,0,1-2.215-.536,3.9,3.9,0,0,1-1.56-1.569,4.819,4.819,0,0,1-.576-2.386,4.4,4.4,0,0,1,1.226-3.256,4.6,4.6,0,0,1,6.253,0,4.41,4.41,0,0,1,1.222,3.256,4.413,4.413,0,0,1-1.226,3.265A4.232,4.232,0,0,1,123.818,17.167Zm-.009-1.266a2.654,2.654,0,0,0,2.043-.888,3.326,3.326,0,0,0,.813-2.338,3.314,3.314,0,0,0-.813-2.329,2.654,2.654,0,0,0-2.043-.888,2.617,2.617,0,0,0-2.026.888,3.336,3.336,0,0,0-.8,2.329,3.348,3.348,0,0,0,.8,2.338A2.617,2.617,0,0,0,123.809,15.9Zm8.227-6.021a2.612,2.612,0,0,1,1.072-1.16,3.229,3.229,0,0,1,1.661-.457V9.7a2.846,2.846,0,0,0-2.008.642,2.68,2.68,0,0,0-.69,2.048V17H130.55V8.36h1.485Z" transform="translate(2949 -2719) rotate(-90)" fill="#00223d"/>
    <path id="Trazado_17235" data-name="Trazado 17235" d="M62.481,4.625a3.664,3.664,0,0,1,1.938.514,3.473,3.473,0,0,1,1.3,1.375,4.036,4.036,0,0,1,.453,1.907,3.755,3.755,0,0,1-1.024,2.694,3.514,3.514,0,0,1-2.667,1.077H59.37V17H57.8V4.625Zm-.229,6.2a2.25,2.25,0,0,0,1.723-.664A2.455,2.455,0,0,0,64.6,8.4a2.463,2.463,0,0,0-.624-1.745,2.234,2.234,0,0,0-1.723-.672H59.37v4.834ZM71.4,17.167a4.554,4.554,0,0,1-2.215-.536,3.9,3.9,0,0,1-1.56-1.569,4.819,4.819,0,0,1-.576-2.386,4.4,4.4,0,0,1,1.226-3.256,4.6,4.6,0,0,1,6.253,0,4.41,4.41,0,0,1,1.222,3.256,4.413,4.413,0,0,1-1.226,3.265A4.232,4.232,0,0,1,71.4,17.167ZM71.394,15.9a2.654,2.654,0,0,0,2.043-.888,3.326,3.326,0,0,0,.813-2.338,3.314,3.314,0,0,0-.813-2.329,2.654,2.654,0,0,0-2.043-.888,2.617,2.617,0,0,0-2.026.888,3.336,3.336,0,0,0-.8,2.329,3.348,3.348,0,0,0,.8,2.338A2.617,2.617,0,0,0,71.394,15.9Zm9.475,1.266a4.1,4.1,0,0,1-2.329-.624,2.581,2.581,0,0,1-1.134-1.775l1.327-.378a1.851,1.851,0,0,0,.708,1.2,2.3,2.3,0,0,0,1.419.426,2.832,2.832,0,0,0,.831-.114,1.331,1.331,0,0,0,.637-.426,1.189,1.189,0,0,0,.185-1.143,1.526,1.526,0,0,0-.141-.286.87.87,0,0,0-.246-.237,3.245,3.245,0,0,0-.3-.185,3.067,3.067,0,0,0-.391-.163q-.259-.092-.417-.141t-.483-.141q-.325-.092-.5-.145a9.372,9.372,0,0,1-.9-.316,3.932,3.932,0,0,1-.729-.417,1.679,1.679,0,0,1-.567-.681,2.3,2.3,0,0,1-.189-.967,2.234,2.234,0,0,1,.422-1.38,2.374,2.374,0,0,1,1.094-.813,4.374,4.374,0,0,1,1.534-.25,3.754,3.754,0,0,1,2.1.563,2.4,2.4,0,0,1,1.05,1.688l-1.248.316a1.655,1.655,0,0,0-.659-1.094,2.1,2.1,0,0,0-1.239-.365,2.139,2.139,0,0,0-1.16.3,1.019,1.019,0,0,0-.483.927.923.923,0,0,0,.127.479,1.521,1.521,0,0,0,.259.338,1.594,1.594,0,0,0,.475.259q.343.136.51.185t.633.163q.088.026.132.035.51.132.831.233a5.105,5.105,0,0,1,.747.316,2.484,2.484,0,0,1,.672.47,2.178,2.178,0,0,1,.422.668,2.358,2.358,0,0,1,.176.932,2.516,2.516,0,0,1-.259,1.165,2.028,2.028,0,0,1-.708.8,3.422,3.422,0,0,1-1.006.435A4.8,4.8,0,0,1,80.868,17.167ZM87.214,6.33A1.035,1.035,0,0,1,86.186,5.3a.975.975,0,0,1,.3-.721,1,1,0,0,1,.725-.3.987.987,0,0,1,.716.3.975.975,0,0,1,.3.721.989.989,0,0,1-.3.725A.979.979,0,0,1,87.214,6.33ZM86.44,17V8.36H87.97V17Zm8.209.158a4.161,4.161,0,0,1-3.094-1.239,4.421,4.421,0,0,1-1.222-3.243,4.43,4.43,0,0,1,1.217-3.243,4.5,4.5,0,0,1,5.6-.483,3.815,3.815,0,0,1,1.455,2.1l-1.424.229a2.63,2.63,0,0,0-.976-1.345,2.656,2.656,0,0,0-1.564-.475,2.554,2.554,0,0,0-2,.888,3.382,3.382,0,0,0-.787,2.329A3.365,3.365,0,0,0,92.641,15a2.56,2.56,0,0,0,2,.883,2.656,2.656,0,0,0,1.564-.475,2.63,2.63,0,0,0,.976-1.345L98.6,14.3a3.819,3.819,0,0,1-1.463,2.1A4.185,4.185,0,0,1,94.649,17.158Zm6.97-10.828A1.035,1.035,0,0,1,100.591,5.3a.975.975,0,0,1,.3-.721,1,1,0,0,1,.725-.3.987.987,0,0,1,.716.3.975.975,0,0,1,.3.721.989.989,0,0,1-.3.725A.979.979,0,0,1,101.619,6.33ZM100.846,17V8.36h1.529V17Zm8.262.167a4.554,4.554,0,0,1-2.215-.536,3.9,3.9,0,0,1-1.56-1.569,4.819,4.819,0,0,1-.576-2.386,4.4,4.4,0,0,1,1.226-3.256,4.6,4.6,0,0,1,6.253,0,4.41,4.41,0,0,1,1.222,3.256,4.413,4.413,0,0,1-1.226,3.265A4.232,4.232,0,0,1,109.107,17.167ZM109.1,15.9a2.654,2.654,0,0,0,2.043-.888,3.326,3.326,0,0,0,.813-2.338,3.314,3.314,0,0,0-.813-2.329,2.654,2.654,0,0,0-2.043-.888,2.617,2.617,0,0,0-2.026.888,3.336,3.336,0,0,0-.8,2.329,3.348,3.348,0,0,0,.8,2.338A2.617,2.617,0,0,0,109.1,15.9Zm10.819-7.708a3.005,3.005,0,0,1,2.175.782,2.918,2.918,0,0,1,.813,2.206V17h-1.521V11.524a2.043,2.043,0,0,0-.527-1.547,1.885,1.885,0,0,0-1.354-.5,2.09,2.09,0,0,0-1.538.593,2.407,2.407,0,0,0-.606,1.762V17H115.84V8.36h1.521V9.468A2.885,2.885,0,0,1,119.918,8.193Zm7.919,8.974a2.94,2.94,0,0,1-1.894-.593A2.13,2.13,0,0,1,125.2,14.8a2.517,2.517,0,0,1,.237-1.129,1.991,1.991,0,0,1,.7-.787,4.218,4.218,0,0,1,1.015-.488,9.384,9.384,0,0,1,1.314-.312l1.4-.229q.765-.141.765-.8a1.51,1.51,0,0,0-.541-1.288,2.2,2.2,0,0,0-1.367-.409,2.243,2.243,0,0,0-1.354.4,1.655,1.655,0,0,0-.642,1.213l-1.371-.29a2.639,2.639,0,0,1,1.081-1.85,4.039,4.039,0,0,1,2.355-.62,4.777,4.777,0,0,1,1.252.154,3.4,3.4,0,0,1,1.046.483,2.168,2.168,0,0,1,.747.932,3.466,3.466,0,0,1,.268,1.419v3.568a1.46,1.46,0,0,0,.2.9.854.854,0,0,0,.681.233h.141V17h-.756a1.442,1.442,0,0,1-1.635-1.169h-.07A3.3,3.3,0,0,1,127.837,17.167Zm.352-1.23a2.305,2.305,0,0,0,1.854-.835,3.438,3.438,0,0,0,.7-2.285l-2.285.439a3.076,3.076,0,0,0-1.34.479,1.114,1.114,0,0,0-.435.945,1.1,1.1,0,0,0,.417.949A1.785,1.785,0,0,0,128.188,15.937Zm15.917-7.743a2.785,2.785,0,0,1,2.013.734,2.722,2.722,0,0,1,.765,2.061V17h-1.521V11.384a1.952,1.952,0,0,0-.475-1.424,1.616,1.616,0,0,0-1.2-.483,1.706,1.706,0,0,0-1.318.545,2.343,2.343,0,0,0-.5,1.635V17h-1.547V11.445a2.042,2.042,0,0,0-.479-1.472,1.629,1.629,0,0,0-1.226-.5,1.69,1.69,0,0,0-1.314.558,2.424,2.424,0,0,0-.505,1.674V17h-1.521V8.36h1.521V9.477a2.625,2.625,0,0,1,.989-.949,2.82,2.82,0,0,1,1.375-.334,2.935,2.935,0,0,1,1.477.365,2.271,2.271,0,0,1,.958,1.05,2.689,2.689,0,0,1,1.037-1.05A2.966,2.966,0,0,1,144.105,8.193Zm6.5-1.863A1.035,1.035,0,0,1,149.572,5.3a.975.975,0,0,1,.3-.721,1,1,0,0,1,.725-.3.987.987,0,0,1,.716.3.975.975,0,0,1,.3.721.989.989,0,0,1-.3.725A.979.979,0,0,1,150.6,6.33ZM149.827,17V8.36h1.529V17Zm12.182-4.491-.018.413h-6.75a3.053,3.053,0,0,0,.826,2.21,2.713,2.713,0,0,0,1.969.769,2.59,2.59,0,0,0,1.433-.413,2.68,2.68,0,0,0,.984-1.143l1.371.29a3.9,3.9,0,0,1-1.477,1.854,4.028,4.028,0,0,1-2.294.677,4.174,4.174,0,0,1-3.111-1.2,4.479,4.479,0,0,1-1.187-3.287A4.458,4.458,0,0,1,154.947,9.4a4.122,4.122,0,0,1,3.063-1.2,3.9,3.9,0,0,1,2.9,1.107A4.376,4.376,0,0,1,162.009,12.509Zm-4-3.146a2.694,2.694,0,0,0-1.8.611,2.8,2.8,0,0,0-.91,1.78h5.177a2.567,2.567,0,0,0-.756-1.78A2.441,2.441,0,0,0,158.01,9.362Zm10.459-1.169a3.005,3.005,0,0,1,2.175.782,2.918,2.918,0,0,1,.813,2.206V17h-1.521V11.524a2.043,2.043,0,0,0-.527-1.547,1.885,1.885,0,0,0-1.354-.5,2.09,2.09,0,0,0-1.538.593,2.407,2.407,0,0,0-.606,1.762V17h-1.521V8.36h1.521V9.468A2.885,2.885,0,0,1,168.469,8.193ZM177.152,17a2.271,2.271,0,0,1-1.687-.62,2.344,2.344,0,0,1-.615-1.727V9.573h-1.767V8.36h.65a1.249,1.249,0,0,0,.954-.3,1.492,1.492,0,0,0,.277-1.015V5.478h1.415V8.36h1.986V9.573h-1.986V14.5a1.31,1.31,0,0,0,.33.954,1.154,1.154,0,0,0,.866.338h.791V17Zm6.943.167a4.554,4.554,0,0,1-2.215-.536,3.9,3.9,0,0,1-1.56-1.569,4.819,4.819,0,0,1-.576-2.386,4.4,4.4,0,0,1,1.226-3.256,4.6,4.6,0,0,1,6.253,0,4.41,4.41,0,0,1,1.222,3.256,4.413,4.413,0,0,1-1.226,3.265A4.232,4.232,0,0,1,184.1,17.167Zm-.009-1.266a2.654,2.654,0,0,0,2.043-.888,3.326,3.326,0,0,0,.813-2.338,3.314,3.314,0,0,0-.813-2.329,2.654,2.654,0,0,0-2.043-.888,2.617,2.617,0,0,0-2.026.888,3.336,3.336,0,0,0-.8,2.329,3.348,3.348,0,0,0,.8,2.338A2.617,2.617,0,0,0,184.087,15.9Zm17.8-12.4h1.521V17h-1.468l-.035-1.679a3.179,3.179,0,0,1-1.23,1.362,3.429,3.429,0,0,1-1.828.5,3.926,3.926,0,0,1-2.852-1.217,4.16,4.16,0,0,1-.87-1.428,5.225,5.225,0,0,1-.321-1.854,4.543,4.543,0,0,1,1.173-3.243,3.788,3.788,0,0,1,2.87-1.248,3.443,3.443,0,0,1,1.806.488A3.2,3.2,0,0,1,201.885,10ZM199.16,15.866a2.587,2.587,0,0,0,2.008-.91,3.283,3.283,0,0,0,.813-2.272,3.277,3.277,0,0,0-.817-2.268,2.586,2.586,0,0,0-2-.914,2.644,2.644,0,0,0-2.021.883,3.25,3.25,0,0,0-.817,2.3,3.25,3.25,0,0,0,.817,2.3A2.644,2.644,0,0,0,199.16,15.866Zm14.9-3.357-.018.413h-6.75a3.053,3.053,0,0,0,.826,2.21,2.713,2.713,0,0,0,1.969.769,2.59,2.59,0,0,0,1.433-.413,2.68,2.68,0,0,0,.984-1.143l1.371.29A3.9,3.9,0,0,1,212.4,16.49a4.028,4.028,0,0,1-2.294.677,4.174,4.174,0,0,1-3.111-1.2,4.479,4.479,0,0,1-1.187-3.287A4.458,4.458,0,0,1,207,9.4a4.122,4.122,0,0,1,3.063-1.2,3.9,3.9,0,0,1,2.9,1.107A4.376,4.376,0,0,1,214.058,12.509Zm-4-3.146a2.694,2.694,0,0,0-1.8.611,2.8,2.8,0,0,0-.91,1.78h5.177a2.567,2.567,0,0,0-.756-1.78A2.441,2.441,0,0,0,210.059,9.362Zm15.636-1.169a3.764,3.764,0,0,1,2.856,1.248,4.553,4.553,0,0,1,1.169,3.243,4.586,4.586,0,0,1-1.16,3.252,3.756,3.756,0,0,1-2.865,1.248,3.467,3.467,0,0,1-1.841-.5,3.171,3.171,0,0,1-1.235-1.362L222.583,17h-1.468V3.5h1.512l.009,6.513a3.184,3.184,0,0,1,1.235-1.332A3.476,3.476,0,0,1,225.694,8.193Zm-.334,7.673a2.644,2.644,0,0,0,2.021-.883,3.25,3.25,0,0,0,.817-2.3,3.25,3.25,0,0,0-.817-2.3A2.644,2.644,0,0,0,225.36,9.5a2.586,2.586,0,0,0-2,.914,3.277,3.277,0,0,0-.817,2.268,3.283,3.283,0,0,0,.813,2.272A2.587,2.587,0,0,0,225.36,15.866Zm8.745,1.3a2.94,2.94,0,0,1-1.894-.593,2.13,2.13,0,0,1-.743-1.771,2.517,2.517,0,0,1,.237-1.129,1.991,1.991,0,0,1,.7-.787,4.218,4.218,0,0,1,1.015-.488,9.384,9.384,0,0,1,1.314-.312l1.4-.229q.765-.141.765-.8a1.51,1.51,0,0,0-.541-1.288,2.2,2.2,0,0,0-1.367-.409,2.243,2.243,0,0,0-1.354.4A1.655,1.655,0,0,0,233,10.971l-1.371-.29a2.639,2.639,0,0,1,1.081-1.85,4.039,4.039,0,0,1,2.355-.62,4.777,4.777,0,0,1,1.252.154,3.4,3.4,0,0,1,1.046.483,2.168,2.168,0,0,1,.747.932,3.466,3.466,0,0,1,.268,1.419v3.568a1.46,1.46,0,0,0,.2.9.854.854,0,0,0,.681.233h.141V17h-.756a1.442,1.442,0,0,1-1.635-1.169h-.07A3.3,3.3,0,0,1,234.105,17.167Zm.352-1.23a2.305,2.305,0,0,0,1.854-.835,3.438,3.438,0,0,0,.7-2.285l-2.285.439a3.076,3.076,0,0,0-1.34.479,1.114,1.114,0,0,0-.435.945,1.1,1.1,0,0,0,.417.949A1.785,1.785,0,0,0,234.457,15.937Zm7.866-9.606A1.035,1.035,0,0,1,241.295,5.3a.975.975,0,0,1,.3-.721,1,1,0,0,1,.725-.3.987.987,0,0,1,.716.3.975.975,0,0,1,.3.721.989.989,0,0,1-.3.725A.979.979,0,0,1,242.323,6.33Zm-2.769,14.713V19.751a2.472,2.472,0,0,0,1.239-.246,1.348,1.348,0,0,0,.58-.844,7.105,7.105,0,0,0,.167-1.784V8.36h1.538v8.517a5.025,5.025,0,0,1-.8,3.226A3.413,3.413,0,0,1,239.555,21.043Zm10.266-3.876a4.554,4.554,0,0,1-2.215-.536,3.9,3.9,0,0,1-1.56-1.569,4.819,4.819,0,0,1-.576-2.386A4.4,4.4,0,0,1,246.7,9.419a4.6,4.6,0,0,1,6.253,0,4.41,4.41,0,0,1,1.222,3.256,4.413,4.413,0,0,1-1.226,3.265A4.232,4.232,0,0,1,249.82,17.167Zm-.009-1.266a2.654,2.654,0,0,0,2.043-.888,3.326,3.326,0,0,0,.813-2.338,3.314,3.314,0,0,0-.813-2.329,2.654,2.654,0,0,0-2.043-.888,2.617,2.617,0,0,0-2.026.888,3.336,3.336,0,0,0-.8,2.329,3.348,3.348,0,0,0,.8,2.338A2.617,2.617,0,0,0,249.812,15.9Zm15,1.257a4.161,4.161,0,0,1-3.094-1.239,4.421,4.421,0,0,1-1.222-3.243,4.43,4.43,0,0,1,1.217-3.243,4.5,4.5,0,0,1,5.6-.483,3.815,3.815,0,0,1,1.455,2.1l-1.424.229a2.63,2.63,0,0,0-.976-1.345,2.656,2.656,0,0,0-1.564-.475,2.554,2.554,0,0,0-2,.888,3.382,3.382,0,0,0-.787,2.329A3.365,3.365,0,0,0,262.806,15a2.56,2.56,0,0,0,2,.883,2.656,2.656,0,0,0,1.564-.475,2.63,2.63,0,0,0,.976-1.345l1.424.237a3.819,3.819,0,0,1-1.463,2.1A4.185,4.185,0,0,1,264.814,17.158Zm9.835.009a4.554,4.554,0,0,1-2.215-.536,3.9,3.9,0,0,1-1.56-1.569,4.819,4.819,0,0,1-.576-2.386,4.4,4.4,0,0,1,1.226-3.256,4.6,4.6,0,0,1,6.253,0A4.41,4.41,0,0,1,279,12.676a4.413,4.413,0,0,1-1.226,3.265A4.232,4.232,0,0,1,274.649,17.167Zm-.009-1.266a2.654,2.654,0,0,0,2.043-.888,3.326,3.326,0,0,0,.813-2.338,3.314,3.314,0,0,0-.813-2.329,2.654,2.654,0,0,0-2.043-.888,2.617,2.617,0,0,0-2.026.888,3.336,3.336,0,0,0-.8,2.329,3.348,3.348,0,0,0,.8,2.338A2.617,2.617,0,0,0,274.641,15.9Zm9.475,1.266a4.1,4.1,0,0,1-2.329-.624,2.581,2.581,0,0,1-1.134-1.775l1.327-.378a1.851,1.851,0,0,0,.708,1.2,2.3,2.3,0,0,0,1.419.426,2.832,2.832,0,0,0,.831-.114,1.331,1.331,0,0,0,.637-.426,1.189,1.189,0,0,0,.185-1.143,1.526,1.526,0,0,0-.141-.286.87.87,0,0,0-.246-.237,3.245,3.245,0,0,0-.3-.185,3.067,3.067,0,0,0-.391-.163q-.259-.092-.417-.141t-.483-.141q-.325-.092-.5-.145a9.372,9.372,0,0,1-.9-.316,3.932,3.932,0,0,1-.729-.417,1.679,1.679,0,0,1-.567-.681,2.3,2.3,0,0,1-.189-.967,2.234,2.234,0,0,1,.422-1.38,2.374,2.374,0,0,1,1.094-.813,4.374,4.374,0,0,1,1.534-.25,3.754,3.754,0,0,1,2.1.563,2.4,2.4,0,0,1,1.05,1.688l-1.248.316a1.655,1.655,0,0,0-.659-1.094,2.1,2.1,0,0,0-1.239-.365,2.139,2.139,0,0,0-1.16.3,1.019,1.019,0,0,0-.483.927.923.923,0,0,0,.127.479,1.521,1.521,0,0,0,.259.338,1.594,1.594,0,0,0,.475.259q.343.136.51.185t.633.163q.088.026.132.035.51.132.831.233a5.105,5.105,0,0,1,.747.316,2.484,2.484,0,0,1,.672.47,2.178,2.178,0,0,1,.422.668,2.358,2.358,0,0,1,.176.932,2.516,2.516,0,0,1-.259,1.165,2.028,2.028,0,0,1-.708.8,3.422,3.422,0,0,1-1.006.435A4.8,4.8,0,0,1,284.115,17.167ZM292.447,17a2.271,2.271,0,0,1-1.687-.62,2.344,2.344,0,0,1-.615-1.727V9.573h-1.767V8.36h.65a1.249,1.249,0,0,0,.954-.3,1.492,1.492,0,0,0,.277-1.015V5.478h1.415V8.36h1.986V9.573h-1.986V14.5a1.31,1.31,0,0,0,.33.954,1.154,1.154,0,0,0,.866.338h.791V17Zm10.863-4.491-.018.413h-6.75a3.053,3.053,0,0,0,.826,2.21,2.713,2.713,0,0,0,1.969.769,2.59,2.59,0,0,0,1.433-.413,2.68,2.68,0,0,0,.984-1.143l1.371.29a3.9,3.9,0,0,1-1.477,1.854,4.028,4.028,0,0,1-2.294.677,4.174,4.174,0,0,1-3.111-1.2,4.479,4.479,0,0,1-1.187-3.287A4.458,4.458,0,0,1,296.249,9.4a4.122,4.122,0,0,1,3.063-1.2,3.9,3.9,0,0,1,2.9,1.107A4.376,4.376,0,0,1,303.311,12.509Zm-4-3.146a2.694,2.694,0,0,0-1.8.611,2.8,2.8,0,0,0-.91,1.78h5.177a2.567,2.567,0,0,0-.756-1.78A2.441,2.441,0,0,0,299.312,9.362Z" transform="translate(3371 -2513)" fill="#00223d"/>
  </g>
</svg>
