<svg xmlns="http://www.w3.org/2000/svg" width="536" height="232.386" viewBox="0 0 536 232.386">
  <g id="Grupo_18069" data-name="Grupo 18069" transform="translate(-3213 2672)">
    <path id="Trazado_17223" data-name="Trazado 17223" d="M22.935,6.058h-5.08V10.1h4.43v1.424h-4.43V17H16.246V4.625h6.688Zm7.638,2.3h1.521V17H30.634L30.6,15.857a2.7,2.7,0,0,1-1.072.971,3.3,3.3,0,0,1-1.512.338,3.005,3.005,0,0,1-2.175-.782,2.918,2.918,0,0,1-.813-2.206V8.36h1.521v5.476a2.05,2.05,0,0,0,.532,1.547,1.882,1.882,0,0,0,1.358.51,2.067,2.067,0,0,0,1.534-.6,2.434,2.434,0,0,0,.6-1.767Zm12.173,4.148-.018.413h-6.75a3.053,3.053,0,0,0,.826,2.21,2.713,2.713,0,0,0,1.969.769,2.59,2.59,0,0,0,1.433-.413,2.68,2.68,0,0,0,.984-1.143l1.371.29a3.9,3.9,0,0,1-1.477,1.854,4.028,4.028,0,0,1-2.294.677,4.174,4.174,0,0,1-3.111-1.2,4.479,4.479,0,0,1-1.187-3.287A4.458,4.458,0,0,1,35.683,9.4a4.122,4.122,0,0,1,3.063-1.2,3.9,3.9,0,0,1,2.9,1.107A4.376,4.376,0,0,1,42.745,12.509Zm-4-3.146a2.694,2.694,0,0,0-1.8.611,2.8,2.8,0,0,0-.91,1.78h5.177a2.567,2.567,0,0,0-.756-1.78A2.441,2.441,0,0,0,38.746,9.362ZM49.205,8.193a3.005,3.005,0,0,1,2.175.782,2.918,2.918,0,0,1,.813,2.206V17H50.673V11.524a2.043,2.043,0,0,0-.527-1.547,1.885,1.885,0,0,0-1.354-.5,2.09,2.09,0,0,0-1.538.593,2.407,2.407,0,0,0-.606,1.762V17H45.127V8.36h1.521V9.468A2.885,2.885,0,0,1,49.205,8.193ZM57.889,17a2.271,2.271,0,0,1-1.687-.62,2.344,2.344,0,0,1-.615-1.727V9.573H53.819V8.36h.65a1.249,1.249,0,0,0,.954-.3A1.492,1.492,0,0,0,55.7,7.042V5.478h1.415V8.36H59.1V9.573H57.115V14.5a1.31,1.31,0,0,0,.33.954,1.154,1.154,0,0,0,.866.338H59.1V17Zm10.863-4.491-.018.413h-6.75a3.053,3.053,0,0,0,.826,2.21,2.713,2.713,0,0,0,1.969.769,2.59,2.59,0,0,0,1.433-.413,2.68,2.68,0,0,0,.984-1.143l1.371.29a3.9,3.9,0,0,1-1.477,1.854,4.028,4.028,0,0,1-2.294.677,4.174,4.174,0,0,1-3.111-1.2A4.479,4.479,0,0,1,60.5,12.676,4.458,4.458,0,0,1,61.69,9.4a4.122,4.122,0,0,1,3.063-1.2,3.9,3.9,0,0,1,2.9,1.107A4.376,4.376,0,0,1,68.752,12.509Zm-4-3.146a2.694,2.694,0,0,0-1.8.611,2.8,2.8,0,0,0-.91,1.78h5.177a2.567,2.567,0,0,0-.756-1.78A2.441,2.441,0,0,0,64.753,9.362Zm7.62,1.7a.987.987,0,0,1-.716-.3,1.022,1.022,0,0,1,.716-1.74.989.989,0,0,1,.725.3,1,1,0,0,1,0,1.437A1,1,0,0,1,72.373,11.059Zm0,6.117a.987.987,0,0,1-.716-.3,1.022,1.022,0,0,1,.716-1.74.989.989,0,0,1,.725.3,1,1,0,0,1,0,1.437A1,1,0,0,1,72.373,17.176ZM94.9,17H93.37L92.544,6.787,88.589,17h-.94L83.72,6.822,82.885,17H81.347l.94-12.375h2.074l3.753,9.65,3.762-9.65h2.092Zm4.9.167a2.94,2.94,0,0,1-1.894-.593,2.13,2.13,0,0,1-.743-1.771,2.517,2.517,0,0,1,.237-1.129,1.991,1.991,0,0,1,.7-.787,4.218,4.218,0,0,1,1.015-.488,9.384,9.384,0,0,1,1.314-.312l1.4-.229q.765-.141.765-.8a1.51,1.51,0,0,0-.541-1.288,2.2,2.2,0,0,0-1.367-.409,2.243,2.243,0,0,0-1.354.4,1.655,1.655,0,0,0-.642,1.213l-1.371-.29A2.639,2.639,0,0,1,98.4,8.831a4.039,4.039,0,0,1,2.355-.62,4.777,4.777,0,0,1,1.252.154,3.4,3.4,0,0,1,1.046.483,2.168,2.168,0,0,1,.747.932,3.466,3.466,0,0,1,.268,1.419v3.568a1.46,1.46,0,0,0,.2.9.854.854,0,0,0,.681.233h.141V17h-.756a1.442,1.442,0,0,1-1.635-1.169h-.07A3.3,3.3,0,0,1,99.795,17.167Zm.352-1.23A2.305,2.305,0,0,0,102,15.1a3.438,3.438,0,0,0,.7-2.285l-2.285.439a3.076,3.076,0,0,0-1.34.479,1.114,1.114,0,0,0-.435.945,1.1,1.1,0,0,0,.417.949A1.785,1.785,0,0,0,100.146,15.937ZM109.938,17a2.271,2.271,0,0,1-1.687-.62,2.344,2.344,0,0,1-.615-1.727V9.573h-1.767V8.36h.65a1.249,1.249,0,0,0,.954-.3,1.492,1.492,0,0,0,.277-1.015V5.478h1.415V8.36h1.986V9.573h-1.986V14.5a1.31,1.31,0,0,0,.33.954,1.154,1.154,0,0,0,.866.338h.791V17Zm4.9-7.119a2.612,2.612,0,0,1,1.072-1.16,3.229,3.229,0,0,1,1.661-.457V9.7a2.846,2.846,0,0,0-2.008.642,2.68,2.68,0,0,0-.69,2.048V17h-1.521V8.36h1.485Zm5.291-3.551A1.035,1.035,0,0,1,119.1,5.3a.975.975,0,0,1,.3-.721,1,1,0,0,1,.725-.3.987.987,0,0,1,.716.3.975.975,0,0,1,.3.721.989.989,0,0,1-.3.725A.979.979,0,0,1,120.124,6.33ZM119.351,17V8.36h1.529V17Zm5.818-1.23h4.605V17h-6.891l4.553-7.4h-4.289V8.36h6.618ZM142.94,3.5h1.521V17h-1.468l-.035-1.679a3.179,3.179,0,0,1-1.23,1.362,3.429,3.429,0,0,1-1.828.5,3.926,3.926,0,0,1-2.852-1.217,4.16,4.16,0,0,1-.87-1.428,5.225,5.225,0,0,1-.321-1.854,4.543,4.543,0,0,1,1.173-3.243,3.788,3.788,0,0,1,2.87-1.248,3.443,3.443,0,0,1,1.806.488A3.2,3.2,0,0,1,142.94,10Zm-2.725,12.366a2.587,2.587,0,0,0,2.008-.91,3.283,3.283,0,0,0,.813-2.272,3.277,3.277,0,0,0-.817-2.268,2.586,2.586,0,0,0-2-.914,2.644,2.644,0,0,0-2.021.883,3.25,3.25,0,0,0-.817,2.3,3.25,3.25,0,0,0,.817,2.3A2.644,2.644,0,0,0,140.216,15.866Zm14.9-3.357-.018.413h-6.75a3.053,3.053,0,0,0,.826,2.21,2.713,2.713,0,0,0,1.969.769,2.59,2.59,0,0,0,1.433-.413,2.68,2.68,0,0,0,.984-1.143l1.371.29a3.9,3.9,0,0,1-1.477,1.854,4.028,4.028,0,0,1-2.294.677,4.174,4.174,0,0,1-3.111-1.2,4.479,4.479,0,0,1-1.187-3.287A4.458,4.458,0,0,1,148.051,9.4a4.122,4.122,0,0,1,3.063-1.2,3.9,3.9,0,0,1,2.9,1.107A4.376,4.376,0,0,1,155.113,12.509Zm-4-3.146a2.694,2.694,0,0,0-1.8.611,2.8,2.8,0,0,0-.91,1.78h5.177a2.567,2.567,0,0,0-.756-1.78A2.441,2.441,0,0,0,151.114,9.362ZM170.512,17l-1.063-2.962h-5.6L162.795,17h-1.644l4.562-12.375h1.881L172.155,17Zm-6.161-4.351h4.605l-2.3-6.442Zm13.957-4.456a3.005,3.005,0,0,1,2.175.782,2.918,2.918,0,0,1,.813,2.206V17h-1.521V11.524a2.043,2.043,0,0,0-.527-1.547,1.885,1.885,0,0,0-1.354-.5,2.09,2.09,0,0,0-1.538.593,2.407,2.407,0,0,0-.606,1.762V17h-1.521V8.36h1.521V9.468A2.885,2.885,0,0,1,178.308,8.193Zm8.657,8.974a4.1,4.1,0,0,1-2.329-.624,2.581,2.581,0,0,1-1.134-1.775l1.327-.378a1.851,1.851,0,0,0,.708,1.2,2.3,2.3,0,0,0,1.419.426,2.832,2.832,0,0,0,.831-.114,1.331,1.331,0,0,0,.637-.426,1.189,1.189,0,0,0,.185-1.143,1.526,1.526,0,0,0-.141-.286.87.87,0,0,0-.246-.237,3.245,3.245,0,0,0-.3-.185,3.067,3.067,0,0,0-.391-.163q-.259-.092-.417-.141t-.483-.141q-.325-.092-.5-.145a9.372,9.372,0,0,1-.9-.316,3.932,3.932,0,0,1-.729-.417,1.679,1.679,0,0,1-.567-.681,2.3,2.3,0,0,1-.189-.967,2.234,2.234,0,0,1,.422-1.38,2.374,2.374,0,0,1,1.094-.813,4.374,4.374,0,0,1,1.534-.25,3.754,3.754,0,0,1,2.1.563,2.4,2.4,0,0,1,1.05,1.688l-1.248.316a1.655,1.655,0,0,0-.659-1.094,2.1,2.1,0,0,0-1.239-.365,2.139,2.139,0,0,0-1.16.3,1.019,1.019,0,0,0-.483.927.923.923,0,0,0,.127.479,1.521,1.521,0,0,0,.259.338,1.594,1.594,0,0,0,.475.259q.343.136.51.185t.633.163q.088.026.132.035.51.132.831.233a5.105,5.105,0,0,1,.747.316,2.484,2.484,0,0,1,.672.47,2.178,2.178,0,0,1,.422.668,2.358,2.358,0,0,1,.176.932,2.516,2.516,0,0,1-.259,1.165,2.028,2.028,0,0,1-.708.8,3.422,3.422,0,0,1-1.006.435A4.8,4.8,0,0,1,186.965,17.167Zm9.211,0a4.554,4.554,0,0,1-2.215-.536,3.9,3.9,0,0,1-1.56-1.569,4.819,4.819,0,0,1-.576-2.386,4.4,4.4,0,0,1,1.226-3.256,4.6,4.6,0,0,1,6.253,0,4.41,4.41,0,0,1,1.222,3.256,4.413,4.413,0,0,1-1.226,3.265A4.232,4.232,0,0,1,196.176,17.167Zm-.009-1.266a2.654,2.654,0,0,0,2.043-.888,3.326,3.326,0,0,0,.813-2.338,3.314,3.314,0,0,0-.813-2.329,2.654,2.654,0,0,0-2.043-.888,2.617,2.617,0,0,0-2.026.888,3.336,3.336,0,0,0-.8,2.329,3.348,3.348,0,0,0,.8,2.338A2.617,2.617,0,0,0,196.167,15.9Zm7.189,1.1V9.573h-1.67V8.36h1.67V6.55a4.969,4.969,0,0,1,.092-1.006,3.264,3.264,0,0,1,.246-.76,1.806,1.806,0,0,1,.409-.549,2.4,2.4,0,0,1,.532-.374,2.639,2.639,0,0,1,.655-.22,6.146,6.146,0,0,1,.743-.11q.365-.031.839-.031V4.774h-.33q-.1,0-.316.018a2.028,2.028,0,0,0-.316.044q-.1.026-.272.088a.7.7,0,0,0-.259.149q-.088.088-.2.224a.918.918,0,0,0-.171.316,3.025,3.025,0,0,0-.1.422,3.364,3.364,0,0,0-.04.541V8.36h4.043V6.55A4.969,4.969,0,0,1,209,5.543a3.264,3.264,0,0,1,.246-.76,1.806,1.806,0,0,1,.409-.549,2.4,2.4,0,0,1,.532-.374,2.639,2.639,0,0,1,.655-.22,6.146,6.146,0,0,1,.743-.11q.365-.031.839-.031V4.774h-.33q-.1,0-.316.018a2.028,2.028,0,0,0-.316.044q-.1.026-.272.088a.7.7,0,0,0-.259.149q-.088.088-.2.224a.918.918,0,0,0-.171.316,3.025,3.025,0,0,0-.1.422,3.364,3.364,0,0,0-.04.541V8.36h2V9.573h-2V17h-1.512V9.573h-4.043V17Zm18.694,4.386a7.3,7.3,0,0,1-2.711-3.573,15.468,15.468,0,0,1-.989-5.779,15.519,15.519,0,0,1,.989-5.774,7.3,7.3,0,0,1,2.711-3.586l.809,1a6.166,6.166,0,0,0-2.312,3.133,14.5,14.5,0,0,0-.853,5.225,14.48,14.48,0,0,0,.848,5.225,6.122,6.122,0,0,0,2.316,3.116ZM228.4,4.625h1.424V17h-1.5V6.286l-2.971,2.575V7.235Zm10.02-.141a4.324,4.324,0,0,1,3.072,1.165,3.927,3.927,0,0,1,1.244,3,4.873,4.873,0,0,1-1.081,2.971L237.511,17h-1.819l3.419-4.307a3.992,3.992,0,0,1-1.037.132,3.8,3.8,0,0,1-3.331-1.9,4.225,4.225,0,0,1-.589-2.167,4.445,4.445,0,0,1,.321-1.745,3.84,3.84,0,0,1,.91-1.354A4.235,4.235,0,0,1,236.75,4.8,4.476,4.476,0,0,1,238.416,4.484Zm-1.964,6.372a2.805,2.805,0,0,0,2.026.773,2.646,2.646,0,0,0,2.017-.848,2.85,2.85,0,0,0,.778-2.07,2.763,2.763,0,0,0-.8-2.057,3.066,3.066,0,0,0-4.056.04,2.733,2.733,0,0,0-.787,2.087A2.8,2.8,0,0,0,236.452,10.856Zm11.834-1.819a4.8,4.8,0,0,1,3.375,1.042,3.778,3.778,0,0,1,1.116,2.9,4.107,4.107,0,0,1-1.147,3.01,4.026,4.026,0,0,1-3,1.165,4.769,4.769,0,0,1-1.551-.25,4.19,4.19,0,0,1-1.31-.721,3.3,3.3,0,0,1-.914-1.217,4,4,0,0,1-.338-1.67,5.645,5.645,0,0,1,.044-.633l1.556-.132a6.186,6.186,0,0,0-.07.694,2.794,2.794,0,0,0,.224,1.151,1.968,1.968,0,0,0,.6.787,2.738,2.738,0,0,0,.813.426,2.968,2.968,0,0,0,.918.141,2.538,2.538,0,0,0,1.92-.756,2.69,2.69,0,0,0,.725-1.942,2.559,2.559,0,0,0-.751-1.951,3.368,3.368,0,0,0-2.377-.712H244.99l.765-5.73h6.486V6.058h-5.2l-.4,2.979ZM254.5,4.625h8.464V5.9L256.917,17h-1.74l6.1-10.969H254.5Zm10.459,16.761-.809-1.011a6.122,6.122,0,0,0,2.316-3.116,14.48,14.48,0,0,0,.848-5.225,14.5,14.5,0,0,0-.853-5.225,6.166,6.166,0,0,0-2.312-3.133l.809-1A7.3,7.3,0,0,1,267.67,6.26a15.519,15.519,0,0,1,.989,5.774,15.468,15.468,0,0,1-.989,5.779A7.3,7.3,0,0,1,264.959,21.386Z" transform="translate(3333 -2461)" fill="#00223d"/>
    <path id="Trazado_17229" data-name="Trazado 17229" d="M0,0H265V57H0Z" transform="translate(3213 -2672)" fill="#97181a"/>
    <path id="Trazado_17227" data-name="Trazado 17227" d="M0,0H265V57H0Z" transform="translate(3484 -2672)" fill="#d64626" opacity="0.37"/>
    <path id="Trazado_17230" data-name="Trazado 17230" d="M0,0H265V57H0Z" transform="translate(3213 -2609)" fill="#d64626" opacity="0.37"/>
    <path id="Trazado_17224" data-name="Trazado 17224" d="M0,0H265V57H0Z" transform="translate(3484 -2609)" fill="#eef0f2"/>
    <path id="Trazado_17222" data-name="Trazado 17222" d="M0,0H265V57H0Z" transform="translate(3484 -2547)" fill="#eef0f2"/>
    <path id="Trazado_17231" data-name="Trazado 17231" d="M0,0H265V57H0Z" transform="translate(3213 -2547)" fill="#d64626" opacity="0.37"/>
    <path id="Trazado_17232" data-name="Trazado 17232" d="M21.6,23h-3.5L16.98,10.238,12.691,23H10.418L6.129,10.238,5,23H1.488L2.906,6.066H7.922L11.531,16.7,15.188,6.066H20.2Zm13.043-3.27a11.27,11.27,0,0,0,.293,2.941V23H31.781l-.27-1.312a3.917,3.917,0,0,1-1.687,1.16,6.219,6.219,0,0,1-2.18.387,5.732,5.732,0,0,1-1.125-.105,3.824,3.824,0,0,1-1.014-.357,3.076,3.076,0,0,1-.838-.627,2.749,2.749,0,0,1-.562-.955,3.8,3.8,0,0,1-.211-1.307,3.623,3.623,0,0,1,.223-1.307A3.063,3.063,0,0,1,24.7,17.6a3.554,3.554,0,0,1,.949-.715,7.263,7.263,0,0,1,1.2-.516,14.282,14.282,0,0,1,1.43-.375l1.98-.445a2.184,2.184,0,0,0,.9-.381.76.76,0,0,0,.264-.6,1.243,1.243,0,0,0-.592-1.16,2.763,2.763,0,0,0-1.436-.352,2.066,2.066,0,0,0-2.355,1.84l-2.988-.539A4.045,4.045,0,0,1,25.793,11.6a6.94,6.94,0,0,1,3.785-.885q5.063,0,5.063,4.348ZM28.7,20.949a2.714,2.714,0,0,0,2.086-.873,3.679,3.679,0,0,0,.809-2.584l-2.859.809a3.379,3.379,0,0,0-1.2.492,1.011,1.011,0,0,0-.416.867,1.122,1.122,0,0,0,.445.955A1.843,1.843,0,0,0,28.7,20.949ZM42.246,23a3.638,3.638,0,0,1-2.719-.979,3.806,3.806,0,0,1-.961-2.783v-5.7H36.2v-2.59h.762a1.988,1.988,0,0,0,1.5-.5,2.6,2.6,0,0,0,.48-1.793V7.063h3.047v3.891h2.484v2.59H41.988v5.332q0,1.559,1.395,1.559h1.09V23ZM50.32,12.863A3.911,3.911,0,0,1,51.9,11.416a4.827,4.827,0,0,1,2.355-.6v3.012a4.564,4.564,0,0,0-2.883.727,3.172,3.172,0,0,0-.891,2.578V23h-3.4V10.953H50.32Zm7.641-3.715a1.9,1.9,0,0,1-1.383-.568A1.866,1.866,0,0,1,56,7.2a1.843,1.843,0,0,1,.58-1.365,1.9,1.9,0,0,1,1.377-.568A1.951,1.951,0,0,1,59.895,7.2a1.951,1.951,0,0,1-1.934,1.945ZM56.238,23V10.953h3.4V23Zm15.68-12.047-5.3,9.445h5.133V23H61.828L67.1,13.555H62.238v-2.6Z" transform="translate(3304 -2658)" fill="#fff"/>
    <path id="Trazado_17233" data-name="Trazado 17233" d="M10.905,4.3a3.822,3.822,0,0,1,2.927,1.182A4.112,4.112,0,0,1,14.939,8.4a4.011,4.011,0,0,1-1.1,2.9,3.891,3.891,0,0,1-2.936,1.138H8.26V17H5.623V4.3Zm-.439,5.941a1.938,1.938,0,0,0,1.45-.5A1.889,1.889,0,0,0,12.4,8.369a1.873,1.873,0,0,0-.488-1.358,1.92,1.92,0,0,0-1.446-.505H8.26v3.735Zm8.78-.844a2.933,2.933,0,0,1,1.187-1.085A3.62,3.62,0,0,1,22.2,7.859v2.259a3.423,3.423,0,0,0-2.162.545,2.379,2.379,0,0,0-.668,1.934V17H16.82V7.965h2.426Zm8.6,7.778a5.681,5.681,0,0,1-2.558-.554A4.138,4.138,0,0,1,23.531,15a4.846,4.846,0,0,1-.637-2.522,4.42,4.42,0,0,1,1.371-3.428,5.086,5.086,0,0,1,3.577-1.257,5.1,5.1,0,0,1,3.586,1.257A4.42,4.42,0,0,1,32.8,12.474a4.444,4.444,0,0,1-1.371,3.441A5.088,5.088,0,0,1,27.842,17.176Zm-.026-2.013a2.319,2.319,0,0,0,1.789-.738,2.764,2.764,0,0,0,.681-1.951,2.764,2.764,0,0,0-.681-1.951,2.319,2.319,0,0,0-1.789-.738,2.234,2.234,0,0,0-1.736.743,2.789,2.789,0,0,0-.672,1.947,2.789,2.789,0,0,0,.672,1.947A2.234,2.234,0,0,0,27.815,15.163ZM41.087,3.5h2.531V17h-2.4l-.062-1.178a2.58,2.58,0,0,1-1.147,1.024,3.861,3.861,0,0,1-1.692.365,4.394,4.394,0,0,1-1.687-.325,4.064,4.064,0,0,1-2.32-2.408,5.5,5.5,0,0,1-.343-1.978,5.137,5.137,0,0,1,.6-2.518,4.1,4.1,0,0,1,1.578-1.639,4.345,4.345,0,0,1,2.175-.554,3.957,3.957,0,0,1,1.639.33,2.559,2.559,0,0,1,1.129.936ZM38.9,15.11a2.253,2.253,0,0,0,1.709-.721,2.638,2.638,0,0,0,.681-1.89,2.644,2.644,0,0,0-.686-1.894A2.251,2.251,0,0,0,38.9,9.881a2.277,2.277,0,0,0-1.718.712A2.644,2.644,0,0,0,36.5,12.5a2.631,2.631,0,0,0,.681,1.9A2.277,2.277,0,0,0,38.9,15.11ZM52.223,7.965h2.531V17h-2.4l-.062-1.09a3.45,3.45,0,0,1-2.874,1.266,3.522,3.522,0,0,1-2.5-.813,3.014,3.014,0,0,1-.87-2.316V7.965h2.54V13.5a1.562,1.562,0,0,0,.453,1.239,1.718,1.718,0,0,0,1.173.4,2.038,2.038,0,0,0,1.437-.514,2.209,2.209,0,0,0,.567-1.674Zm9.237,9.2a4.827,4.827,0,0,1-3.489-1.3,4.493,4.493,0,0,1-1.354-3.393,4.483,4.483,0,0,1,1.349-3.393,5.364,5.364,0,0,1,6.42-.422A3.885,3.885,0,0,1,65.9,11.111l-2.338.255A2,2,0,0,0,62.8,10.18a2.3,2.3,0,0,0-1.371-.4,2.072,2.072,0,0,0-1.652.738,2.894,2.894,0,0,0-.633,1.951,2.9,2.9,0,0,0,.633,1.947,2.067,2.067,0,0,0,1.652.743,2.278,2.278,0,0,0,1.367-.4,2.05,2.05,0,0,0,.76-1.187l2.338.255a3.9,3.9,0,0,1-1.525,2.452A4.8,4.8,0,0,1,61.46,17.167ZM71.066,17a2.729,2.729,0,0,1-2.039-.734,2.854,2.854,0,0,1-.721-2.087V9.907H66.531V7.965H67.1a1.491,1.491,0,0,0,1.125-.378,1.946,1.946,0,0,0,.36-1.345v-1.2h2.285V7.965h1.863V9.907H70.873v4q0,1.169,1.046,1.169h.817V17Zm7.8.176a5.681,5.681,0,0,1-2.558-.554A4.138,4.138,0,0,1,74.56,15a4.846,4.846,0,0,1-.637-2.522,4.42,4.42,0,0,1,1.371-3.428,5.731,5.731,0,0,1,7.163,0,4.42,4.42,0,0,1,1.371,3.428,4.444,4.444,0,0,1-1.371,3.441A5.088,5.088,0,0,1,78.871,17.176Zm-.026-2.013a2.319,2.319,0,0,0,1.789-.738,2.764,2.764,0,0,0,.681-1.951,2.764,2.764,0,0,0-.681-1.951,2.319,2.319,0,0,0-1.789-.738,2.234,2.234,0,0,0-1.736.743,2.789,2.789,0,0,0-.672,1.947,2.789,2.789,0,0,0,.672,1.947A2.234,2.234,0,0,0,78.845,15.163Zm10.046,2.013a5.049,5.049,0,0,1-2.637-.633,2.675,2.675,0,0,1-1.292-1.881l2.118-.6a1.7,1.7,0,0,0,1.811,1.345,1.87,1.87,0,0,0,.923-.207.719.719,0,0,0,.36-.7.739.739,0,0,0-.149-.466,1.183,1.183,0,0,0-.461-.334,5.749,5.749,0,0,0-.615-.237q-.3-.1-.8-.233t-.835-.259a5.593,5.593,0,0,1-.8-.338,3.393,3.393,0,0,1-.659-.466,1.878,1.878,0,0,1-.492-.708,2.552,2.552,0,0,1-.171-.967,2.308,2.308,0,0,1,.98-2.021,4.379,4.379,0,0,1,2.562-.686,4.489,4.489,0,0,1,2.364.58A2.625,2.625,0,0,1,92.31,10.18l-1.96.439a1.535,1.535,0,0,0-1.608-1.143,1.761,1.761,0,0,0-.888.2.649.649,0,0,0-.352.6.685.685,0,0,0,.053.272.539.539,0,0,0,.185.22,2.692,2.692,0,0,0,.255.167,1.923,1.923,0,0,0,.36.145q.237.075.4.114l.461.119.47.123q.483.132.848.264a4.967,4.967,0,0,1,.778.369,2.792,2.792,0,0,1,.681.532,2.372,2.372,0,0,1,.444.747,2.759,2.759,0,0,1,.176,1.006,2.718,2.718,0,0,1-.3,1.31,2.276,2.276,0,0,1-.831.883,4.043,4.043,0,0,1-1.173.475A6.087,6.087,0,0,1,88.891,17.176ZM107.6,12.351l-.026.606h-6.7a2.339,2.339,0,0,0,.721,1.652,2.3,2.3,0,0,0,1.591.571,2.221,2.221,0,0,0,1.191-.312,1.918,1.918,0,0,0,.76-.91l2.32.343a3.945,3.945,0,0,1-1.582,2.118,4.7,4.7,0,0,1-2.672.756,4.891,4.891,0,0,1-3.52-1.244,4.538,4.538,0,0,1-1.305-3.45,4.565,4.565,0,0,1,1.31-3.45,4.746,4.746,0,0,1,3.437-1.261,4.536,4.536,0,0,1,3.243,1.151A4.517,4.517,0,0,1,107.6,12.351Zm-4.456-2.786a2,2,0,0,0-2.2,1.74H105.1a1.9,1.9,0,0,0-.624-1.292A1.978,1.978,0,0,0,103.146,9.564Zm4.8,7.436,3.709-4.526-3.709-4.509h3.164l2.074,2.848,2.092-2.848h3.138L114.7,12.482,118.413,17h-3.138L113.2,14.17,111.118,17ZM121.094,6.611a1.421,1.421,0,0,1-1.037-.426,1.4,1.4,0,0,1-.431-1.033,1.382,1.382,0,0,1,.435-1.024,1.425,1.425,0,0,1,1.033-.426,1.463,1.463,0,0,1,1.45,1.45,1.463,1.463,0,0,1-1.45,1.459ZM119.8,17V7.965h2.549V17Zm8.35.176a5.049,5.049,0,0,1-2.637-.633,2.675,2.675,0,0,1-1.292-1.881l2.118-.6a1.7,1.7,0,0,0,1.811,1.345,1.87,1.87,0,0,0,.923-.207.719.719,0,0,0,.36-.7.739.739,0,0,0-.149-.466,1.183,1.183,0,0,0-.461-.334,5.749,5.749,0,0,0-.615-.237q-.3-.1-.8-.233t-.835-.259a5.593,5.593,0,0,1-.8-.338,3.393,3.393,0,0,1-.659-.466,1.878,1.878,0,0,1-.492-.708,2.552,2.552,0,0,1-.171-.967,2.308,2.308,0,0,1,.98-2.021,4.379,4.379,0,0,1,2.562-.686,4.489,4.489,0,0,1,2.364.58,2.625,2.625,0,0,1,1.213,1.811l-1.96.439A1.535,1.535,0,0,0,128,9.477a1.761,1.761,0,0,0-.888.2.649.649,0,0,0-.352.6.685.685,0,0,0,.053.272.539.539,0,0,0,.185.22,2.692,2.692,0,0,0,.255.167,1.923,1.923,0,0,0,.36.145q.237.075.4.114l.461.119.47.123q.483.132.848.264a4.967,4.967,0,0,1,.778.369,2.792,2.792,0,0,1,.681.532,2.372,2.372,0,0,1,.444.747,2.759,2.759,0,0,1,.176,1.006,2.718,2.718,0,0,1-.3,1.31,2.276,2.276,0,0,1-.831.883,4.043,4.043,0,0,1-1.173.475A6.087,6.087,0,0,1,128.151,17.176Zm8.9-.176a2.729,2.729,0,0,1-2.039-.734,2.854,2.854,0,0,1-.721-2.087V9.907H132.52V7.965h.571a1.491,1.491,0,0,0,1.125-.378,1.946,1.946,0,0,0,.36-1.345v-1.2h2.285V7.965h1.863V9.907h-1.863v4q0,1.169,1.046,1.169h.817V17Zm12.094-4.649-.026.606h-6.7a2.339,2.339,0,0,0,.721,1.652,2.3,2.3,0,0,0,1.591.571,2.221,2.221,0,0,0,1.191-.312,1.918,1.918,0,0,0,.76-.91l2.32.343a3.945,3.945,0,0,1-1.582,2.118,4.7,4.7,0,0,1-2.672.756,4.891,4.891,0,0,1-3.52-1.244,4.538,4.538,0,0,1-1.305-3.45,4.565,4.565,0,0,1,1.31-3.45,4.746,4.746,0,0,1,3.437-1.261,4.536,4.536,0,0,1,3.243,1.151A4.517,4.517,0,0,1,149.148,12.351Zm-4.456-2.786a2,2,0,0,0-2.2,1.74h4.148a1.9,1.9,0,0,0-.624-1.292A1.978,1.978,0,0,0,144.692,9.564Zm11.716-1.775a3.522,3.522,0,0,1,2.5.813,3.014,3.014,0,0,1,.87,2.316V17h-2.54V11.463a1.574,1.574,0,0,0-.453-1.248,1.705,1.705,0,0,0-1.165-.4,2.379,2.379,0,0,0-.756.114,1.942,1.942,0,0,0-.633.356,1.573,1.573,0,0,0-.453.681,3.15,3.15,0,0,0-.171,1.046V17h-2.531V7.965H153.6v1A3.481,3.481,0,0,1,156.408,7.789ZM165.593,17a2.729,2.729,0,0,1-2.039-.734,2.854,2.854,0,0,1-.721-2.087V9.907h-1.775V7.965h.571a1.491,1.491,0,0,0,1.125-.378,1.946,1.946,0,0,0,.36-1.345v-1.2H165.4V7.965h1.863V9.907H165.4v4q0,1.169,1.046,1.169h.817V17Zm12.094-4.649-.026.606h-6.7a2.339,2.339,0,0,0,.721,1.652,2.3,2.3,0,0,0,1.591.571,2.221,2.221,0,0,0,1.191-.312,1.918,1.918,0,0,0,.76-.91l2.32.343a3.945,3.945,0,0,1-1.582,2.118,4.7,4.7,0,0,1-2.672.756,4.891,4.891,0,0,1-3.52-1.244,4.538,4.538,0,0,1-1.305-3.45,4.565,4.565,0,0,1,1.31-3.45,4.746,4.746,0,0,1,3.437-1.261,4.536,4.536,0,0,1,3.243,1.151A4.517,4.517,0,0,1,177.687,12.351ZM173.23,9.564a2,2,0,0,0-2.2,1.74h4.148a1.9,1.9,0,0,0-.624-1.292A1.978,1.978,0,0,0,173.23,9.564Zm9.563,7.611a5.049,5.049,0,0,1-2.637-.633,2.675,2.675,0,0,1-1.292-1.881l2.118-.6a1.7,1.7,0,0,0,1.811,1.345,1.87,1.87,0,0,0,.923-.207.719.719,0,0,0,.36-.7.739.739,0,0,0-.149-.466,1.183,1.183,0,0,0-.461-.334,5.749,5.749,0,0,0-.615-.237q-.3-.1-.8-.233t-.835-.259a5.593,5.593,0,0,1-.8-.338,3.393,3.393,0,0,1-.659-.466,1.878,1.878,0,0,1-.492-.708,2.552,2.552,0,0,1-.171-.967,2.308,2.308,0,0,1,.98-2.021,4.379,4.379,0,0,1,2.562-.686,4.489,4.489,0,0,1,2.364.58,2.625,2.625,0,0,1,1.213,1.811l-1.96.439a1.535,1.535,0,0,0-1.608-1.143,1.761,1.761,0,0,0-.888.2.649.649,0,0,0-.352.6.685.685,0,0,0,.053.272.539.539,0,0,0,.185.22,2.692,2.692,0,0,0,.255.167,1.923,1.923,0,0,0,.36.145q.237.075.4.114l.461.119.47.123q.483.132.848.264a4.967,4.967,0,0,1,.778.369,2.792,2.792,0,0,1,.681.532,2.372,2.372,0,0,1,.444.747,2.759,2.759,0,0,1,.176,1.006,2.718,2.718,0,0,1-.3,1.31,2.276,2.276,0,0,1-.831.883,4.043,4.043,0,0,1-1.173.475A6.087,6.087,0,0,1,182.793,17.176Z" transform="translate(3250 -2591)" fill="#00223d"/>
    <path id="Trazado_17234" data-name="Trazado 17234" d="M26.356,4.3h2.628V17h-3.05L20.31,7.921V17H17.682V4.3H20.7l5.66,9.026ZM37.923,7.965h2.531V17h-2.4l-.062-1.09a3.45,3.45,0,0,1-2.874,1.266,3.522,3.522,0,0,1-2.5-.813,3.014,3.014,0,0,1-.87-2.316V7.965h2.54V13.5a1.562,1.562,0,0,0,.453,1.239,1.718,1.718,0,0,0,1.173.4,2.038,2.038,0,0,0,1.437-.514,2.209,2.209,0,0,0,.567-1.674Zm13.649,4.386-.026.606h-6.7a2.339,2.339,0,0,0,.721,1.652,2.3,2.3,0,0,0,1.591.571,2.221,2.221,0,0,0,1.191-.312,1.918,1.918,0,0,0,.76-.91l2.32.343A3.945,3.945,0,0,1,49.85,16.42a4.7,4.7,0,0,1-2.672.756,4.891,4.891,0,0,1-3.52-1.244,4.538,4.538,0,0,1-1.305-3.45,4.565,4.565,0,0,1,1.31-3.45A4.746,4.746,0,0,1,47.1,7.771a4.536,4.536,0,0,1,3.243,1.151A4.517,4.517,0,0,1,51.572,12.351ZM47.116,9.564a2,2,0,0,0-2.2,1.74h4.148a1.9,1.9,0,0,0-.624-1.292A1.978,1.978,0,0,0,47.116,9.564Zm11.9-1.6H61.7L57.848,17h-2.2L51.845,7.965h2.663l2.25,6.179Zm7.857,9.211a5.681,5.681,0,0,1-2.558-.554A4.138,4.138,0,0,1,62.563,15a4.846,4.846,0,0,1-.637-2.522A4.42,4.42,0,0,1,63.3,9.046a5.731,5.731,0,0,1,7.163,0,4.42,4.42,0,0,1,1.371,3.428,4.444,4.444,0,0,1-1.371,3.441A5.088,5.088,0,0,1,66.874,17.176Zm-.026-2.013a2.319,2.319,0,0,0,1.789-.738,2.764,2.764,0,0,0,.681-1.951,2.764,2.764,0,0,0-.681-1.951,2.319,2.319,0,0,0-1.789-.738,2.234,2.234,0,0,0-1.736.743,2.789,2.789,0,0,0-.672,1.947,2.789,2.789,0,0,0,.672,1.947A2.234,2.234,0,0,0,66.848,15.163Zm10.046,2.013a5.049,5.049,0,0,1-2.637-.633,2.675,2.675,0,0,1-1.292-1.881l2.118-.6a1.7,1.7,0,0,0,1.811,1.345,1.87,1.87,0,0,0,.923-.207.719.719,0,0,0,.36-.7.739.739,0,0,0-.149-.466,1.183,1.183,0,0,0-.461-.334,5.749,5.749,0,0,0-.615-.237q-.3-.1-.8-.233t-.835-.259a5.593,5.593,0,0,1-.8-.338,3.393,3.393,0,0,1-.659-.466,1.878,1.878,0,0,1-.492-.708,2.552,2.552,0,0,1-.171-.967,2.308,2.308,0,0,1,.98-2.021,4.379,4.379,0,0,1,2.562-.686,4.489,4.489,0,0,1,2.364.58,2.625,2.625,0,0,1,1.213,1.811l-1.96.439a1.535,1.535,0,0,0-1.608-1.143,1.761,1.761,0,0,0-.888.2.649.649,0,0,0-.352.6.685.685,0,0,0,.053.272.539.539,0,0,0,.185.22,2.692,2.692,0,0,0,.255.167,1.923,1.923,0,0,0,.36.145q.237.075.4.114l.461.119.47.123q.483.132.848.264a4.967,4.967,0,0,1,.778.369,2.792,2.792,0,0,1,.681.532,2.372,2.372,0,0,1,.444.747,2.759,2.759,0,0,1,.176,1.006,2.718,2.718,0,0,1-.3,1.31,2.276,2.276,0,0,1-.831.883,4.043,4.043,0,0,1-1.173.475A6.087,6.087,0,0,1,76.894,17.176ZM92.406,7.789a4.394,4.394,0,0,1,1.688.325,4.223,4.223,0,0,1,1.384.914,4.135,4.135,0,0,1,.936,1.49,5.531,5.531,0,0,1,.343,1.982,5.531,5.531,0,0,1-.343,1.982,4.135,4.135,0,0,1-.936,1.49,4.223,4.223,0,0,1-1.384.914,4.394,4.394,0,0,1-1.687.325,3.921,3.921,0,0,1-1.635-.334,2.562,2.562,0,0,1-1.134-.949v5.467H87.106V7.965h2.4l.07,1.213a2.475,2.475,0,0,1,1.129-1.024A3.881,3.881,0,0,1,92.406,7.789Zm-.571,7.321a2.274,2.274,0,0,0,1.709-.708,2.628,2.628,0,0,0,.681-1.9,2.628,2.628,0,0,0-.681-1.9,2.419,2.419,0,0,0-3.432.013,2.629,2.629,0,0,0-.686,1.89,2.629,2.629,0,0,0,.686,1.89A2.278,2.278,0,0,0,91.835,15.11ZM101.09,9.4a2.933,2.933,0,0,1,1.187-1.085,3.62,3.62,0,0,1,1.767-.453v2.259a3.423,3.423,0,0,0-2.162.545,2.379,2.379,0,0,0-.668,1.934V17H98.664V7.965h2.426Zm8.6,7.778a5.681,5.681,0,0,1-2.558-.554A4.138,4.138,0,0,1,105.375,15a4.846,4.846,0,0,1-.637-2.522,4.42,4.42,0,0,1,1.371-3.428,5.731,5.731,0,0,1,7.163,0,4.42,4.42,0,0,1,1.371,3.428,4.444,4.444,0,0,1-1.371,3.441A5.088,5.088,0,0,1,109.686,17.176Zm-.026-2.013a2.319,2.319,0,0,0,1.789-.738,2.764,2.764,0,0,0,.681-1.951,2.764,2.764,0,0,0-.681-1.951,2.319,2.319,0,0,0-1.789-.738,2.234,2.234,0,0,0-1.736.743,2.789,2.789,0,0,0-.672,1.947,2.789,2.789,0,0,0,.672,1.947A2.234,2.234,0,0,0,109.659,15.163ZM122.931,3.5h2.531V17h-2.4L123,15.822a2.58,2.58,0,0,1-1.147,1.024,3.861,3.861,0,0,1-1.692.365,4.394,4.394,0,0,1-1.687-.325,4.064,4.064,0,0,1-2.32-2.408,5.5,5.5,0,0,1-.343-1.978,5.137,5.137,0,0,1,.6-2.518,4.1,4.1,0,0,1,1.578-1.639,4.345,4.345,0,0,1,2.175-.554,3.957,3.957,0,0,1,1.639.33,2.559,2.559,0,0,1,1.129.936Zm-2.188,11.61a2.253,2.253,0,0,0,1.709-.721,2.638,2.638,0,0,0,.681-1.89,2.644,2.644,0,0,0-.686-1.894,2.251,2.251,0,0,0-1.705-.725,2.277,2.277,0,0,0-1.718.712,2.644,2.644,0,0,0-.681,1.907,2.631,2.631,0,0,0,.681,1.9A2.277,2.277,0,0,0,120.742,15.11Zm13.324-7.146H136.6V17h-2.4l-.062-1.09a3.45,3.45,0,0,1-2.874,1.266,3.522,3.522,0,0,1-2.5-.813,3.014,3.014,0,0,1-.87-2.316V7.965h2.54V13.5a1.562,1.562,0,0,0,.453,1.239,1.718,1.718,0,0,0,1.173.4,2.038,2.038,0,0,0,1.437-.514,2.209,2.209,0,0,0,.567-1.674Zm9.237,9.2a4.827,4.827,0,0,1-3.489-1.3,4.493,4.493,0,0,1-1.354-3.393,4.483,4.483,0,0,1,1.349-3.393,5.364,5.364,0,0,1,6.42-.422,3.885,3.885,0,0,1,1.512,2.452l-2.338.255a2,2,0,0,0-.756-1.187,2.3,2.3,0,0,0-1.371-.4,2.072,2.072,0,0,0-1.652.738,2.894,2.894,0,0,0-.633,1.951,2.9,2.9,0,0,0,.633,1.947,2.067,2.067,0,0,0,1.652.743,2.278,2.278,0,0,0,1.367-.4,2.05,2.05,0,0,0,.76-1.187l2.338.255a3.9,3.9,0,0,1-1.525,2.452A4.8,4.8,0,0,1,143.3,17.167ZM152.91,17a2.729,2.729,0,0,1-2.039-.734,2.854,2.854,0,0,1-.721-2.087V9.907h-1.775V7.965h.571a1.491,1.491,0,0,0,1.125-.378,1.946,1.946,0,0,0,.36-1.345v-1.2h2.285V7.965h1.863V9.907h-1.863v4q0,1.169,1.046,1.169h.817V17Zm7.8.176a5.681,5.681,0,0,1-2.558-.554A4.138,4.138,0,0,1,156.4,15a4.846,4.846,0,0,1-.637-2.522,4.42,4.42,0,0,1,1.371-3.428,5.731,5.731,0,0,1,7.163,0,4.42,4.42,0,0,1,1.371,3.428,4.444,4.444,0,0,1-1.371,3.441A5.088,5.088,0,0,1,160.715,17.176Zm-.026-2.013a2.319,2.319,0,0,0,1.789-.738,2.764,2.764,0,0,0,.681-1.951,2.764,2.764,0,0,0-.681-1.951,2.319,2.319,0,0,0-1.789-.738,2.234,2.234,0,0,0-1.736.743,2.789,2.789,0,0,0-.672,1.947,2.789,2.789,0,0,0,.672,1.947A2.234,2.234,0,0,0,160.688,15.163Zm10.046,2.013a5.049,5.049,0,0,1-2.637-.633,2.675,2.675,0,0,1-1.292-1.881l2.118-.6a1.7,1.7,0,0,0,1.811,1.345,1.87,1.87,0,0,0,.923-.207.719.719,0,0,0,.36-.7.739.739,0,0,0-.149-.466,1.183,1.183,0,0,0-.461-.334,5.749,5.749,0,0,0-.615-.237q-.3-.1-.8-.233t-.835-.259a5.593,5.593,0,0,1-.8-.338,3.393,3.393,0,0,1-.659-.466,1.878,1.878,0,0,1-.492-.708,2.552,2.552,0,0,1-.171-.967,2.308,2.308,0,0,1,.98-2.021,4.379,4.379,0,0,1,2.562-.686,4.489,4.489,0,0,1,2.364.58,2.625,2.625,0,0,1,1.213,1.811l-1.96.439a1.535,1.535,0,0,0-1.608-1.143,1.761,1.761,0,0,0-.888.2.649.649,0,0,0-.352.6.685.685,0,0,0,.053.272.539.539,0,0,0,.185.22,2.692,2.692,0,0,0,.255.167,1.923,1.923,0,0,0,.36.145q.237.075.4.114l.461.119.47.123q.483.132.848.264a4.967,4.967,0,0,1,.778.369,2.792,2.792,0,0,1,.681.532,2.372,2.372,0,0,1,.444.747,2.759,2.759,0,0,1,.176,1.006,2.718,2.718,0,0,1-.3,1.31,2.276,2.276,0,0,1-.831.883,4.043,4.043,0,0,1-1.173.475A6.087,6.087,0,0,1,170.734,17.176Z" transform="translate(3250 -2529)" fill="#00223d"/>
    <path id="Trazado_17225" data-name="Trazado 17225" d="M20.392,17V4.625h3.99a5.917,5.917,0,0,1,3.151.8A4.879,4.879,0,0,1,29.466,7.6a7.642,7.642,0,0,1,.628,3.2,8.1,8.1,0,0,1-.365,2.5,5.664,5.664,0,0,1-1.068,1.956,4.685,4.685,0,0,1-1.8,1.283A6.391,6.391,0,0,1,24.382,17Zm1.573-1.433h2.364A3.769,3.769,0,0,0,27.418,14.3a5.35,5.35,0,0,0,1.042-3.5,5.305,5.305,0,0,0-1.046-3.48,3.771,3.771,0,0,0-3.085-1.266H21.965Zm18.352-3.059-.018.413h-6.75a3.053,3.053,0,0,0,.826,2.21,2.713,2.713,0,0,0,1.969.769,2.59,2.59,0,0,0,1.433-.413,2.68,2.68,0,0,0,.984-1.143l1.371.29a3.9,3.9,0,0,1-1.477,1.854,4.028,4.028,0,0,1-2.294.677,4.174,4.174,0,0,1-3.111-1.2,4.479,4.479,0,0,1-1.187-3.287A4.458,4.458,0,0,1,33.254,9.4a4.122,4.122,0,0,1,3.063-1.2,3.9,3.9,0,0,1,2.9,1.107A4.376,4.376,0,0,1,40.316,12.509Zm-4-3.146a2.694,2.694,0,0,0-1.8.611,2.8,2.8,0,0,0-.91,1.78h5.177a2.567,2.567,0,0,0-.756-1.78A2.441,2.441,0,0,0,36.317,9.362Zm9.114,7.8a4.1,4.1,0,0,1-2.329-.624,2.581,2.581,0,0,1-1.134-1.775L43.3,14.39a1.851,1.851,0,0,0,.708,1.2,2.3,2.3,0,0,0,1.419.426,2.832,2.832,0,0,0,.831-.114,1.331,1.331,0,0,0,.637-.426,1.189,1.189,0,0,0,.185-1.143,1.526,1.526,0,0,0-.141-.286.87.87,0,0,0-.246-.237,3.245,3.245,0,0,0-.3-.185A3.067,3.067,0,0,0,46,13.462q-.259-.092-.417-.141t-.483-.141q-.325-.092-.5-.145a9.372,9.372,0,0,1-.9-.316,3.932,3.932,0,0,1-.729-.417,1.679,1.679,0,0,1-.567-.681,2.3,2.3,0,0,1-.189-.967,2.234,2.234,0,0,1,.422-1.38,2.374,2.374,0,0,1,1.094-.813,4.374,4.374,0,0,1,1.534-.25,3.754,3.754,0,0,1,2.1.563,2.4,2.4,0,0,1,1.05,1.688l-1.248.316a1.655,1.655,0,0,0-.659-1.094,2.1,2.1,0,0,0-1.239-.365,2.139,2.139,0,0,0-1.16.3,1.019,1.019,0,0,0-.483.927.923.923,0,0,0,.127.479,1.521,1.521,0,0,0,.259.338,1.594,1.594,0,0,0,.475.259q.343.136.51.185t.633.163q.088.026.132.035.51.132.831.233a5.105,5.105,0,0,1,.747.316,2.484,2.484,0,0,1,.672.47,2.178,2.178,0,0,1,.422.668,2.358,2.358,0,0,1,.176.932,2.516,2.516,0,0,1-.259,1.165,2.028,2.028,0,0,1-.708.8,3.422,3.422,0,0,1-1.006.435A4.8,4.8,0,0,1,45.432,17.167Zm7.567,0a2.94,2.94,0,0,1-1.894-.593,2.13,2.13,0,0,1-.743-1.771,2.517,2.517,0,0,1,.237-1.129,1.991,1.991,0,0,1,.7-.787,4.218,4.218,0,0,1,1.015-.488,9.384,9.384,0,0,1,1.314-.312l1.4-.229q.765-.141.765-.8a1.51,1.51,0,0,0-.541-1.288,2.2,2.2,0,0,0-1.367-.409,2.243,2.243,0,0,0-1.354.4,1.655,1.655,0,0,0-.642,1.213l-1.371-.29A2.639,2.639,0,0,1,51.6,8.831a4.039,4.039,0,0,1,2.355-.62,4.777,4.777,0,0,1,1.252.154,3.4,3.4,0,0,1,1.046.483A2.168,2.168,0,0,1,57,9.78a3.466,3.466,0,0,1,.268,1.419v3.568a1.46,1.46,0,0,0,.2.9.854.854,0,0,0,.681.233h.141V17h-.756A1.442,1.442,0,0,1,55.9,15.831h-.07A3.3,3.3,0,0,1,53,17.167Zm.352-1.23a2.305,2.305,0,0,0,1.854-.835,3.438,3.438,0,0,0,.7-2.285l-2.285.439a3.076,3.076,0,0,0-1.34.479,1.114,1.114,0,0,0-.435.945,1.1,1.1,0,0,0,.417.949A1.785,1.785,0,0,0,53.351,15.937ZM61.92,9.881a2.612,2.612,0,0,1,1.072-1.16,3.229,3.229,0,0,1,1.661-.457V9.7a2.846,2.846,0,0,0-2.008.642,2.68,2.68,0,0,0-.69,2.048V17H60.435V8.36H61.92Zm6,0A2.612,2.612,0,0,1,69,8.721a3.229,3.229,0,0,1,1.661-.457V9.7a2.846,2.846,0,0,0-2.008.642,2.68,2.68,0,0,0-.69,2.048V17H66.438V8.36h1.485Zm8.051,7.286a4.554,4.554,0,0,1-2.215-.536,3.9,3.9,0,0,1-1.56-1.569,4.819,4.819,0,0,1-.576-2.386,4.4,4.4,0,0,1,1.226-3.256,4.6,4.6,0,0,1,6.253,0,4.41,4.41,0,0,1,1.222,3.256A4.413,4.413,0,0,1,79.1,15.941,4.232,4.232,0,0,1,75.974,17.167ZM75.965,15.9a2.654,2.654,0,0,0,2.043-.888,3.326,3.326,0,0,0,.813-2.338,3.314,3.314,0,0,0-.813-2.329,2.654,2.654,0,0,0-2.043-.888,2.617,2.617,0,0,0-2.026.888,3.336,3.336,0,0,0-.8,2.329,3.348,3.348,0,0,0,.8,2.338A2.617,2.617,0,0,0,75.965,15.9ZM82.706,17V3.5h1.538V17Zm4.632,0V3.5h1.538V17Zm8.271.167a4.554,4.554,0,0,1-2.215-.536,3.9,3.9,0,0,1-1.56-1.569,4.819,4.819,0,0,1-.576-2.386,4.4,4.4,0,0,1,1.226-3.256,4.6,4.6,0,0,1,6.253,0,4.41,4.41,0,0,1,1.222,3.256,4.413,4.413,0,0,1-1.226,3.265A4.232,4.232,0,0,1,95.608,17.167ZM95.6,15.9a2.654,2.654,0,0,0,2.043-.888,3.326,3.326,0,0,0,.813-2.338,3.314,3.314,0,0,0-.813-2.329A2.654,2.654,0,0,0,95.6,9.459a2.617,2.617,0,0,0-2.026.888,3.336,3.336,0,0,0-.8,2.329,3.348,3.348,0,0,0,.8,2.338A2.617,2.617,0,0,0,95.6,15.9ZM113.4,3.5h1.521V17H113.45l-.035-1.679a3.179,3.179,0,0,1-1.23,1.362,3.429,3.429,0,0,1-1.828.5,3.926,3.926,0,0,1-2.852-1.217,4.16,4.16,0,0,1-.87-1.428,5.225,5.225,0,0,1-.321-1.854,4.543,4.543,0,0,1,1.173-3.243,3.788,3.788,0,0,1,2.87-1.248,3.443,3.443,0,0,1,1.806.488A3.2,3.2,0,0,1,113.4,10Zm-2.725,12.366a2.587,2.587,0,0,0,2.008-.91,3.283,3.283,0,0,0,.813-2.272,3.277,3.277,0,0,0-.817-2.268,2.586,2.586,0,0,0-2-.914,2.644,2.644,0,0,0-2.021.883,3.25,3.25,0,0,0-.817,2.3,3.25,3.25,0,0,0,.817,2.3A2.644,2.644,0,0,0,110.673,15.866Zm14.9-3.357-.018.413H118.8a3.053,3.053,0,0,0,.826,2.21,2.713,2.713,0,0,0,1.969.769,2.59,2.59,0,0,0,1.433-.413,2.68,2.68,0,0,0,.984-1.143l1.371.29a3.9,3.9,0,0,1-1.477,1.854,4.028,4.028,0,0,1-2.294.677,4.174,4.174,0,0,1-3.111-1.2,4.479,4.479,0,0,1-1.187-3.287A4.458,4.458,0,0,1,118.508,9.4a4.122,4.122,0,0,1,3.063-1.2,3.9,3.9,0,0,1,2.9,1.107A4.376,4.376,0,0,1,125.57,12.509Zm-4-3.146a2.694,2.694,0,0,0-1.8.611,2.8,2.8,0,0,0-.91,1.78h5.177a2.567,2.567,0,0,0-.756-1.78A2.441,2.441,0,0,0,121.571,9.362Zm15.618-1.169a3.93,3.93,0,0,1,1.564.316,3.849,3.849,0,0,1,1.283.888,4.149,4.149,0,0,1,.866,1.424,5.25,5.25,0,0,1,.321,1.863,4.568,4.568,0,0,1-1.165,3.261,3.782,3.782,0,0,1-2.87,1.239,3.42,3.42,0,0,1-1.806-.492,3.226,3.226,0,0,1-1.235-1.327v5.985h-1.521V8.36H134.1l.035,1.679a3.163,3.163,0,0,1,1.23-1.349A3.452,3.452,0,0,1,137.189,8.193Zm-.3,7.673a2.623,2.623,0,0,0,2-.875,3.253,3.253,0,0,0,.813-2.307,3.237,3.237,0,0,0-.813-2.3,2.726,2.726,0,0,0-4.03.04,3.24,3.24,0,0,0-.826,2.263,3.252,3.252,0,0,0,.826,2.272A2.636,2.636,0,0,0,136.891,15.866Zm8.218-5.985a2.612,2.612,0,0,1,1.072-1.16,3.229,3.229,0,0,1,1.661-.457V9.7a2.846,2.846,0,0,0-2.008.642,2.68,2.68,0,0,0-.69,2.048V17h-1.521V8.36h1.485Zm8.051,7.286a4.554,4.554,0,0,1-2.215-.536,3.9,3.9,0,0,1-1.56-1.569,4.819,4.819,0,0,1-.576-2.386,4.4,4.4,0,0,1,1.226-3.256,4.6,4.6,0,0,1,6.253,0,4.41,4.41,0,0,1,1.222,3.256,4.413,4.413,0,0,1-1.226,3.265A4.232,4.232,0,0,1,153.159,17.167ZM153.15,15.9a2.654,2.654,0,0,0,2.043-.888,3.326,3.326,0,0,0,.813-2.338,3.314,3.314,0,0,0-.813-2.329,2.654,2.654,0,0,0-2.043-.888,2.617,2.617,0,0,0-2.026.888,3.336,3.336,0,0,0-.8,2.329,3.348,3.348,0,0,0,.8,2.338A2.617,2.617,0,0,0,153.15,15.9ZM166.272,3.5h1.521V17h-1.468l-.035-1.679a3.179,3.179,0,0,1-1.23,1.362,3.429,3.429,0,0,1-1.828.5,3.926,3.926,0,0,1-2.852-1.217,4.16,4.16,0,0,1-.87-1.428,5.225,5.225,0,0,1-.321-1.854,4.543,4.543,0,0,1,1.173-3.243,3.788,3.788,0,0,1,2.87-1.248,3.443,3.443,0,0,1,1.806.488A3.2,3.2,0,0,1,166.272,10Zm-2.725,12.366a2.587,2.587,0,0,0,2.008-.91,3.283,3.283,0,0,0,.813-2.272,3.277,3.277,0,0,0-.817-2.268,2.586,2.586,0,0,0-2-.914,2.644,2.644,0,0,0-2.021.883,3.25,3.25,0,0,0-.817,2.3,3.25,3.25,0,0,0,.817,2.3A2.644,2.644,0,0,0,163.548,15.866ZM176.266,8.36h1.521V17h-1.459l-.035-1.143a2.7,2.7,0,0,1-1.072.971,3.3,3.3,0,0,1-1.512.338,3.005,3.005,0,0,1-2.175-.782,2.918,2.918,0,0,1-.813-2.206V8.36h1.521v5.476a2.05,2.05,0,0,0,.532,1.547,1.882,1.882,0,0,0,1.358.51,2.067,2.067,0,0,0,1.534-.6,2.434,2.434,0,0,0,.6-1.767Zm8.2,8.8a4.161,4.161,0,0,1-3.094-1.239,4.421,4.421,0,0,1-1.222-3.243,4.43,4.43,0,0,1,1.217-3.243,4.5,4.5,0,0,1,5.6-.483,3.815,3.815,0,0,1,1.455,2.1L187,11.278a2.63,2.63,0,0,0-.976-1.345,2.656,2.656,0,0,0-1.564-.475,2.554,2.554,0,0,0-2,.888,3.382,3.382,0,0,0-.787,2.329A3.365,3.365,0,0,0,182.458,15a2.56,2.56,0,0,0,2,.883,2.656,2.656,0,0,0,1.564-.475A2.63,2.63,0,0,0,187,14.064l1.424.237a3.819,3.819,0,0,1-1.463,2.1A4.185,4.185,0,0,1,184.466,17.158ZM193.422,17a2.271,2.271,0,0,1-1.687-.62,2.344,2.344,0,0,1-.615-1.727V9.573h-1.767V8.36H190a1.249,1.249,0,0,0,.954-.3,1.492,1.492,0,0,0,.277-1.015V5.478h1.415V8.36h1.986V9.573h-1.986V14.5a1.31,1.31,0,0,0,.33.954,1.154,1.154,0,0,0,.866.338h.791V17Zm6.943.167a4.554,4.554,0,0,1-2.215-.536,3.9,3.9,0,0,1-1.56-1.569,4.819,4.819,0,0,1-.576-2.386,4.4,4.4,0,0,1,1.226-3.256,4.6,4.6,0,0,1,6.253,0,4.41,4.41,0,0,1,1.222,3.256,4.413,4.413,0,0,1-1.226,3.265A4.232,4.232,0,0,1,200.365,17.167Zm-.009-1.266a2.654,2.654,0,0,0,2.043-.888,3.326,3.326,0,0,0,.813-2.338,3.314,3.314,0,0,0-.813-2.329,2.654,2.654,0,0,0-2.043-.888,2.617,2.617,0,0,0-2.026.888,3.336,3.336,0,0,0-.8,2.329,3.348,3.348,0,0,0,.8,2.338A2.617,2.617,0,0,0,200.356,15.9Z" transform="translate(3505 -2529)" fill="#00223d"/>
    <path id="Trazado_17226" data-name="Trazado 17226" d="M19.913,4.625a3.664,3.664,0,0,1,1.938.514,3.473,3.473,0,0,1,1.3,1.375A4.036,4.036,0,0,1,23.6,8.422a3.755,3.755,0,0,1-1.024,2.694,3.514,3.514,0,0,1-2.667,1.077H16.8V17H15.228V4.625Zm-.229,6.2a2.25,2.25,0,0,0,1.723-.664A2.455,2.455,0,0,0,22.031,8.4a2.463,2.463,0,0,0-.624-1.745,2.234,2.234,0,0,0-1.723-.672H16.8v4.834Zm13.069,1.688-.018.413h-6.75a3.053,3.053,0,0,0,.826,2.21,2.713,2.713,0,0,0,1.969.769,2.59,2.59,0,0,0,1.433-.413,2.68,2.68,0,0,0,.984-1.143l1.371.29a3.9,3.9,0,0,1-1.477,1.854,4.028,4.028,0,0,1-2.294.677,4.174,4.174,0,0,1-3.111-1.2A4.479,4.479,0,0,1,24.5,12.676,4.458,4.458,0,0,1,25.691,9.4a4.122,4.122,0,0,1,3.063-1.2,3.9,3.9,0,0,1,2.9,1.107A4.376,4.376,0,0,1,32.753,12.509Zm-4-3.146a2.694,2.694,0,0,0-1.8.611,2.8,2.8,0,0,0-.91,1.78h5.177a2.567,2.567,0,0,0-.756-1.78A2.441,2.441,0,0,0,28.754,9.362ZM39.213,8.193a3.005,3.005,0,0,1,2.175.782,2.918,2.918,0,0,1,.813,2.206V17H40.681V11.524a2.043,2.043,0,0,0-.527-1.547,1.885,1.885,0,0,0-1.354-.5,2.09,2.09,0,0,0-1.538.593,2.407,2.407,0,0,0-.606,1.762V17H35.135V8.36h1.521V9.468A2.885,2.885,0,0,1,39.213,8.193ZM52.7,12.509l-.018.413h-6.75a3.053,3.053,0,0,0,.826,2.21,2.713,2.713,0,0,0,1.969.769,2.59,2.59,0,0,0,1.433-.413,2.68,2.68,0,0,0,.984-1.143l1.371.29a3.9,3.9,0,0,1-1.477,1.854,4.028,4.028,0,0,1-2.294.677,4.174,4.174,0,0,1-3.111-1.2,4.479,4.479,0,0,1-1.187-3.287A4.458,4.458,0,0,1,45.634,9.4a4.122,4.122,0,0,1,3.063-1.2A3.9,3.9,0,0,1,51.6,9.3,4.376,4.376,0,0,1,52.7,12.509Zm-4-3.146a2.694,2.694,0,0,0-1.8.611,2.8,2.8,0,0,0-.91,1.78h5.177a2.567,2.567,0,0,0-.756-1.78A2.441,2.441,0,0,0,48.7,9.362ZM57.837,17a2.271,2.271,0,0,1-1.687-.62,2.344,2.344,0,0,1-.615-1.727V9.573H53.768V8.36h.65a1.249,1.249,0,0,0,.954-.3,1.492,1.492,0,0,0,.277-1.015V5.478h1.415V8.36H59.05V9.573H57.064V14.5a1.31,1.31,0,0,0,.33.954,1.154,1.154,0,0,0,.866.338h.791V17Zm4.9-7.119a2.612,2.612,0,0,1,1.072-1.16,3.229,3.229,0,0,1,1.661-.457V9.7a2.846,2.846,0,0,0-2.008.642,2.68,2.68,0,0,0-.69,2.048V17H61.248V8.36h1.485Zm6.407,7.286a2.94,2.94,0,0,1-1.894-.593A2.13,2.13,0,0,1,66.5,14.8a2.517,2.517,0,0,1,.237-1.129,1.991,1.991,0,0,1,.7-.787,4.218,4.218,0,0,1,1.015-.488,9.384,9.384,0,0,1,1.314-.312l1.4-.229q.765-.141.765-.8a1.51,1.51,0,0,0-.541-1.288,2.2,2.2,0,0,0-1.367-.409,2.243,2.243,0,0,0-1.354.4,1.655,1.655,0,0,0-.642,1.213l-1.371-.29a2.639,2.639,0,0,1,1.081-1.85,4.039,4.039,0,0,1,2.355-.62,4.777,4.777,0,0,1,1.252.154,3.4,3.4,0,0,1,1.046.483,2.168,2.168,0,0,1,.747.932,3.466,3.466,0,0,1,.268,1.419v3.568a1.46,1.46,0,0,0,.2.9.854.854,0,0,0,.681.233h.141V17h-.756a1.442,1.442,0,0,1-1.635-1.169h-.07A3.3,3.3,0,0,1,69.14,17.167Zm.352-1.23a2.305,2.305,0,0,0,1.854-.835,3.438,3.438,0,0,0,.7-2.285l-2.285.439a3.076,3.076,0,0,0-1.34.479,1.114,1.114,0,0,0-.435.945,1.1,1.1,0,0,0,.417.949A1.785,1.785,0,0,0,69.492,15.937Zm10.494,1.222a4.161,4.161,0,0,1-3.094-1.239,4.421,4.421,0,0,1-1.222-3.243,4.43,4.43,0,0,1,1.217-3.243,4.5,4.5,0,0,1,5.6-.483,3.815,3.815,0,0,1,1.455,2.1l-1.424.229a2.63,2.63,0,0,0-.976-1.345,2.656,2.656,0,0,0-1.564-.475,2.554,2.554,0,0,0-2,.888,3.382,3.382,0,0,0-.787,2.329A3.365,3.365,0,0,0,77.978,15a2.56,2.56,0,0,0,2,.883,2.656,2.656,0,0,0,1.564-.475,2.63,2.63,0,0,0,.976-1.345l1.424.237a3.819,3.819,0,0,1-1.463,2.1A4.185,4.185,0,0,1,79.986,17.158ZM86.956,6.33A1.035,1.035,0,0,1,85.927,5.3a.975.975,0,0,1,.3-.721,1,1,0,0,1,.725-.3.987.987,0,0,1,.716.3.975.975,0,0,1,.3.721.989.989,0,0,1-.3.725A.979.979,0,0,1,86.956,6.33ZM86.182,17V8.36h1.529V17ZM93.864,6.875,96.07,4.01l.809.589L94.91,6.875Zm.58,10.292a4.554,4.554,0,0,1-2.215-.536,3.9,3.9,0,0,1-1.56-1.569,4.819,4.819,0,0,1-.576-2.386,4.4,4.4,0,0,1,1.226-3.256,4.6,4.6,0,0,1,6.253,0,4.41,4.41,0,0,1,1.222,3.256,4.413,4.413,0,0,1-1.226,3.265A4.232,4.232,0,0,1,94.444,17.167ZM94.435,15.9a2.654,2.654,0,0,0,2.043-.888,3.326,3.326,0,0,0,.813-2.338,3.314,3.314,0,0,0-.813-2.329,2.654,2.654,0,0,0-2.043-.888,2.617,2.617,0,0,0-2.026.888,3.336,3.336,0,0,0-.8,2.329,3.348,3.348,0,0,0,.8,2.338A2.617,2.617,0,0,0,94.435,15.9Zm10.819-7.708a3.005,3.005,0,0,1,2.175.782,2.918,2.918,0,0,1,.813,2.206V17h-1.521V11.524a2.043,2.043,0,0,0-.527-1.547,1.885,1.885,0,0,0-1.354-.5,2.09,2.09,0,0,0-1.538.593,2.407,2.407,0,0,0-.606,1.762V17h-1.521V8.36H102.7V9.468A2.885,2.885,0,0,1,105.254,8.193ZM122.235,3.5h1.521V17h-1.468l-.035-1.679a3.179,3.179,0,0,1-1.23,1.362,3.429,3.429,0,0,1-1.828.5,3.926,3.926,0,0,1-2.852-1.217,4.16,4.16,0,0,1-.87-1.428,5.225,5.225,0,0,1-.321-1.854,4.543,4.543,0,0,1,1.173-3.243,3.788,3.788,0,0,1,2.87-1.248A3.443,3.443,0,0,1,121,8.681,3.2,3.2,0,0,1,122.235,10ZM119.51,15.866a2.587,2.587,0,0,0,2.008-.91,3.283,3.283,0,0,0,.813-2.272,3.277,3.277,0,0,0-.817-2.268,2.586,2.586,0,0,0-2-.914,2.644,2.644,0,0,0-2.021.883,3.25,3.25,0,0,0-.817,2.3,3.25,3.25,0,0,0,.817,2.3A2.644,2.644,0,0,0,119.51,15.866Zm14.9-3.357-.018.413h-6.75a3.053,3.053,0,0,0,.826,2.21,2.713,2.713,0,0,0,1.969.769,2.59,2.59,0,0,0,1.433-.413,2.68,2.68,0,0,0,.984-1.143l1.371.29a3.9,3.9,0,0,1-1.477,1.854,4.028,4.028,0,0,1-2.294.677,4.174,4.174,0,0,1-3.111-1.2,4.479,4.479,0,0,1-1.187-3.287A4.458,4.458,0,0,1,127.346,9.4a4.122,4.122,0,0,1,3.063-1.2,3.9,3.9,0,0,1,2.9,1.107A4.376,4.376,0,0,1,134.408,12.509Zm-4-3.146a2.694,2.694,0,0,0-1.8.611,2.8,2.8,0,0,0-.91,1.78h5.177a2.567,2.567,0,0,0-.756-1.78A2.441,2.441,0,0,0,130.409,9.362ZM150.3,8.193a2.785,2.785,0,0,1,2.013.734,2.722,2.722,0,0,1,.765,2.061V17h-1.521V11.384a1.952,1.952,0,0,0-.475-1.424,1.616,1.616,0,0,0-1.2-.483,1.706,1.706,0,0,0-1.318.545,2.343,2.343,0,0,0-.5,1.635V17H146.51V11.445a2.042,2.042,0,0,0-.479-1.472,1.629,1.629,0,0,0-1.226-.5,1.69,1.69,0,0,0-1.314.558,2.424,2.424,0,0,0-.505,1.674V17h-1.521V8.36h1.521V9.477a2.625,2.625,0,0,1,.989-.949,2.82,2.82,0,0,1,1.375-.334,2.935,2.935,0,0,1,1.477.365,2.271,2.271,0,0,1,.958,1.05,2.689,2.689,0,0,1,1.037-1.05A2.966,2.966,0,0,1,150.3,8.193Zm13.28,4.315-.018.413h-6.75a3.053,3.053,0,0,0,.826,2.21,2.713,2.713,0,0,0,1.969.769,2.59,2.59,0,0,0,1.433-.413,2.68,2.68,0,0,0,.984-1.143l1.371.29a3.9,3.9,0,0,1-1.477,1.854,4.028,4.028,0,0,1-2.294.677,4.174,4.174,0,0,1-3.111-1.2,4.479,4.479,0,0,1-1.187-3.287A4.458,4.458,0,0,1,156.517,9.4a4.122,4.122,0,0,1,3.063-1.2,3.9,3.9,0,0,1,2.9,1.107A4.376,4.376,0,0,1,163.579,12.509Zm-4-3.146a2.694,2.694,0,0,0-1.8.611,2.8,2.8,0,0,0-.91,1.78h5.177a2.567,2.567,0,0,0-.756-1.78A2.441,2.441,0,0,0,159.58,9.362Zm7.866.519a2.612,2.612,0,0,1,1.072-1.16,3.229,3.229,0,0,1,1.661-.457V9.7a2.846,2.846,0,0,0-2.008.642,2.68,2.68,0,0,0-.69,2.048V17H165.96V8.36h1.485Zm8,7.277a4.161,4.161,0,0,1-3.094-1.239,4.421,4.421,0,0,1-1.222-3.243,4.43,4.43,0,0,1,1.217-3.243,4.5,4.5,0,0,1,5.6-.483,3.815,3.815,0,0,1,1.455,2.1l-1.424.229A2.63,2.63,0,0,0,177,9.934a2.656,2.656,0,0,0-1.564-.475,2.554,2.554,0,0,0-2,.888,3.382,3.382,0,0,0-.787,2.329A3.365,3.365,0,0,0,173.436,15a2.56,2.56,0,0,0,2,.883A2.656,2.656,0,0,0,177,15.409a2.63,2.63,0,0,0,.976-1.345l1.424.237a3.819,3.819,0,0,1-1.463,2.1A4.185,4.185,0,0,1,175.444,17.158Zm8.191.009a2.94,2.94,0,0,1-1.894-.593A2.13,2.13,0,0,1,181,14.8a2.517,2.517,0,0,1,.237-1.129,1.991,1.991,0,0,1,.7-.787,4.218,4.218,0,0,1,1.015-.488,9.384,9.384,0,0,1,1.314-.312l1.4-.229q.765-.141.765-.8a1.51,1.51,0,0,0-.541-1.288,2.2,2.2,0,0,0-1.367-.409,2.243,2.243,0,0,0-1.354.4,1.655,1.655,0,0,0-.642,1.213l-1.371-.29a2.639,2.639,0,0,1,1.081-1.85,4.039,4.039,0,0,1,2.355-.62,4.777,4.777,0,0,1,1.252.154,3.4,3.4,0,0,1,1.046.483,2.168,2.168,0,0,1,.747.932,3.466,3.466,0,0,1,.268,1.419v3.568a1.46,1.46,0,0,0,.2.9.854.854,0,0,0,.681.233h.141V17h-.756a1.442,1.442,0,0,1-1.635-1.169h-.07A3.3,3.3,0,0,1,183.635,17.167Zm.352-1.23a2.305,2.305,0,0,0,1.854-.835,3.438,3.438,0,0,0,.7-2.285l-2.285.439a3.076,3.076,0,0,0-1.34.479,1.114,1.114,0,0,0-.435.945,1.1,1.1,0,0,0,.417.949A1.785,1.785,0,0,0,183.987,15.937ZM197.276,3.5H198.8V17h-1.468l-.035-1.679a3.179,3.179,0,0,1-1.23,1.362,3.429,3.429,0,0,1-1.828.5,3.926,3.926,0,0,1-2.852-1.217,4.16,4.16,0,0,1-.87-1.428,5.225,5.225,0,0,1-.321-1.854,4.543,4.543,0,0,1,1.173-3.243,3.788,3.788,0,0,1,2.87-1.248,3.443,3.443,0,0,1,1.806.488A3.2,3.2,0,0,1,197.276,10Zm-2.725,12.366a2.587,2.587,0,0,0,2.008-.91,3.283,3.283,0,0,0,.813-2.272,3.277,3.277,0,0,0-.817-2.268,2.586,2.586,0,0,0-2-.914,2.644,2.644,0,0,0-2.021.883,3.25,3.25,0,0,0-.817,2.3,3.25,3.25,0,0,0,.817,2.3A2.644,2.644,0,0,0,194.551,15.866Zm10.978,1.3a4.554,4.554,0,0,1-2.215-.536,3.9,3.9,0,0,1-1.56-1.569,4.819,4.819,0,0,1-.576-2.386A4.4,4.4,0,0,1,202.4,9.419a4.6,4.6,0,0,1,6.253,0,4.41,4.41,0,0,1,1.222,3.256,4.413,4.413,0,0,1-1.226,3.265A4.232,4.232,0,0,1,205.529,17.167ZM205.52,15.9a2.654,2.654,0,0,0,2.043-.888,3.326,3.326,0,0,0,.813-2.338,3.314,3.314,0,0,0-.813-2.329,2.654,2.654,0,0,0-2.043-.888,2.617,2.617,0,0,0-2.026.888,3.336,3.336,0,0,0-.8,2.329,3.348,3.348,0,0,0,.8,2.338A2.617,2.617,0,0,0,205.52,15.9Z" transform="translate(3505 -2591)" fill="#00223d"/>
    <path id="Trazado_17228" data-name="Trazado 17228" d="M23.339,17H20.711l-.835-9.571L16.659,17H14.954L11.737,7.429,10.894,17H8.257L9.32,4.3h3.762l2.707,7.972L18.531,4.3h3.762Zm10.872-4.649-.026.606h-6.7a2.339,2.339,0,0,0,.721,1.652,2.3,2.3,0,0,0,1.591.571,2.221,2.221,0,0,0,1.191-.312,1.918,1.918,0,0,0,.76-.91l2.32.343a3.945,3.945,0,0,1-1.582,2.118,4.7,4.7,0,0,1-2.672.756,4.891,4.891,0,0,1-3.52-1.244,4.538,4.538,0,0,1-1.305-3.45,4.565,4.565,0,0,1,1.31-3.45,4.746,4.746,0,0,1,3.437-1.261A4.536,4.536,0,0,1,32.98,8.923,4.517,4.517,0,0,1,34.211,12.351ZM29.755,9.564a2,2,0,0,0-2.2,1.74h4.148a1.9,1.9,0,0,0-.624-1.292A1.978,1.978,0,0,0,29.755,9.564ZM38.562,9.4a2.933,2.933,0,0,1,1.187-1.085,3.62,3.62,0,0,1,1.767-.453v2.259a3.423,3.423,0,0,0-2.162.545,2.379,2.379,0,0,0-.668,1.934V17H36.136V7.965h2.426Zm8.473,7.77a4.827,4.827,0,0,1-3.489-1.3,4.493,4.493,0,0,1-1.354-3.393,4.483,4.483,0,0,1,1.349-3.393,5.364,5.364,0,0,1,6.42-.422,3.885,3.885,0,0,1,1.512,2.452l-2.338.255a2,2,0,0,0-.756-1.187,2.3,2.3,0,0,0-1.371-.4,2.072,2.072,0,0,0-1.652.738,2.894,2.894,0,0,0-.633,1.951,2.9,2.9,0,0,0,.633,1.947,2.067,2.067,0,0,0,1.652.743,2.278,2.278,0,0,0,1.367-.4,2.05,2.05,0,0,0,.76-1.187l2.338.255a3.9,3.9,0,0,1-1.525,2.452A4.8,4.8,0,0,1,47.034,17.167Zm13.649-2.619a8.453,8.453,0,0,0,.22,2.206V17H58.539l-.2-.984a2.938,2.938,0,0,1-1.266.87,4.664,4.664,0,0,1-1.635.29,4.3,4.3,0,0,1-.844-.079,2.868,2.868,0,0,1-.76-.268,2.307,2.307,0,0,1-.628-.47,2.062,2.062,0,0,1-.422-.716,2.853,2.853,0,0,1-.158-.98,2.718,2.718,0,0,1,.167-.98,2.3,2.3,0,0,1,.439-.734,2.666,2.666,0,0,1,.712-.536,5.447,5.447,0,0,1,.9-.387,10.712,10.712,0,0,1,1.072-.281L57.4,11.41a1.638,1.638,0,0,0,.672-.286.57.57,0,0,0,.2-.453.932.932,0,0,0-.444-.87,2.073,2.073,0,0,0-1.077-.264,1.549,1.549,0,0,0-1.767,1.38l-2.241-.4a3.034,3.034,0,0,1,1.31-2.061,5.2,5.2,0,0,1,2.839-.664q3.8,0,3.8,3.261Zm-4.456.914a2.036,2.036,0,0,0,1.564-.655,2.759,2.759,0,0,0,.606-1.938l-2.145.606a2.534,2.534,0,0,0-.9.369.758.758,0,0,0-.312.65.842.842,0,0,0,.334.716A1.382,1.382,0,0,0,56.228,15.462ZM69.35,3.5h2.531V17h-2.4l-.062-1.178a2.58,2.58,0,0,1-1.147,1.024,3.861,3.861,0,0,1-1.692.365,4.394,4.394,0,0,1-1.687-.325,4.064,4.064,0,0,1-2.32-2.408A5.5,5.5,0,0,1,62.23,12.5a5.137,5.137,0,0,1,.6-2.518,4.1,4.1,0,0,1,1.578-1.639,4.345,4.345,0,0,1,2.175-.554,3.957,3.957,0,0,1,1.639.33,2.559,2.559,0,0,1,1.129.936ZM67.161,15.11a2.253,2.253,0,0,0,1.709-.721,2.638,2.638,0,0,0,.681-1.89,2.644,2.644,0,0,0-.686-1.894,2.251,2.251,0,0,0-1.705-.725,2.277,2.277,0,0,0-1.718.712,2.644,2.644,0,0,0-.681,1.907,2.631,2.631,0,0,0,.681,1.9A2.277,2.277,0,0,0,67.161,15.11ZM78.71,17.176a5.681,5.681,0,0,1-2.558-.554A4.138,4.138,0,0,1,74.4,15a4.846,4.846,0,0,1-.637-2.522,4.42,4.42,0,0,1,1.371-3.428,5.731,5.731,0,0,1,7.163,0,4.42,4.42,0,0,1,1.371,3.428A4.444,4.444,0,0,1,82.3,15.915,5.088,5.088,0,0,1,78.71,17.176Zm-.026-2.013a2.319,2.319,0,0,0,1.789-.738,2.764,2.764,0,0,0,.681-1.951,2.764,2.764,0,0,0-.681-1.951,2.319,2.319,0,0,0-1.789-.738,2.234,2.234,0,0,0-1.736.743,2.789,2.789,0,0,0-.672,1.947,2.789,2.789,0,0,0,.672,1.947A2.234,2.234,0,0,0,78.684,15.163Zm10.046,2.013a5.049,5.049,0,0,1-2.637-.633A2.675,2.675,0,0,1,84.8,14.662l2.118-.6a1.7,1.7,0,0,0,1.811,1.345,1.87,1.87,0,0,0,.923-.207.719.719,0,0,0,.36-.7.739.739,0,0,0-.149-.466A1.183,1.183,0,0,0,89.4,13.7a5.749,5.749,0,0,0-.615-.237q-.3-.1-.8-.233t-.835-.259a5.593,5.593,0,0,1-.8-.338,3.393,3.393,0,0,1-.659-.466,1.878,1.878,0,0,1-.492-.708,2.552,2.552,0,0,1-.171-.967,2.308,2.308,0,0,1,.98-2.021,4.379,4.379,0,0,1,2.562-.686,4.489,4.489,0,0,1,2.364.58,2.625,2.625,0,0,1,1.213,1.811l-1.96.439A1.535,1.535,0,0,0,88.58,9.477a1.761,1.761,0,0,0-.888.2.649.649,0,0,0-.352.6.685.685,0,0,0,.053.272.539.539,0,0,0,.185.22,2.692,2.692,0,0,0,.255.167,1.923,1.923,0,0,0,.36.145q.237.075.4.114l.461.119.47.123q.483.132.848.264a4.967,4.967,0,0,1,.778.369,2.792,2.792,0,0,1,.681.532,2.372,2.372,0,0,1,.444.747,2.759,2.759,0,0,1,.176,1.006,2.718,2.718,0,0,1-.3,1.31,2.276,2.276,0,0,1-.831.883,4.043,4.043,0,0,1-1.173.475A6.087,6.087,0,0,1,88.729,17.176Zm18.712-4.825-.026.606h-6.7a2.339,2.339,0,0,0,.721,1.652,2.3,2.3,0,0,0,1.591.571,2.221,2.221,0,0,0,1.191-.312,1.918,1.918,0,0,0,.76-.91l2.32.343a3.945,3.945,0,0,1-1.582,2.118,4.7,4.7,0,0,1-2.672.756,4.891,4.891,0,0,1-3.52-1.244,4.538,4.538,0,0,1-1.305-3.45,4.565,4.565,0,0,1,1.31-3.45,4.746,4.746,0,0,1,3.437-1.261,4.536,4.536,0,0,1,3.243,1.151A4.517,4.517,0,0,1,107.441,12.351Zm-4.456-2.786a2,2,0,0,0-2.2,1.74h4.148a1.9,1.9,0,0,0-.624-1.292A1.978,1.978,0,0,0,102.985,9.564Zm4.8,7.436,3.709-4.526-3.709-4.509h3.164l2.074,2.848,2.092-2.848h3.138l-3.718,4.518L118.252,17h-3.138l-2.074-2.83L110.957,17ZM120.933,6.611a1.421,1.421,0,0,1-1.037-.426,1.4,1.4,0,0,1-.431-1.033,1.382,1.382,0,0,1,.435-1.024,1.425,1.425,0,0,1,1.033-.426,1.463,1.463,0,0,1,1.45,1.45,1.463,1.463,0,0,1-1.45,1.459ZM119.641,17V7.965h2.549V17Zm8.35.176a5.049,5.049,0,0,1-2.637-.633,2.675,2.675,0,0,1-1.292-1.881l2.118-.6a1.7,1.7,0,0,0,1.811,1.345,1.87,1.87,0,0,0,.923-.207.719.719,0,0,0,.36-.7.739.739,0,0,0-.149-.466,1.183,1.183,0,0,0-.461-.334,5.749,5.749,0,0,0-.615-.237q-.3-.1-.8-.233t-.835-.259a5.593,5.593,0,0,1-.8-.338,3.393,3.393,0,0,1-.659-.466,1.878,1.878,0,0,1-.492-.708,2.552,2.552,0,0,1-.171-.967,2.308,2.308,0,0,1,.98-2.021,4.379,4.379,0,0,1,2.562-.686,4.489,4.489,0,0,1,2.364.58,2.625,2.625,0,0,1,1.213,1.811l-1.96.439a1.535,1.535,0,0,0-1.608-1.143,1.761,1.761,0,0,0-.888.2.649.649,0,0,0-.352.6.685.685,0,0,0,.053.272.539.539,0,0,0,.185.22,2.692,2.692,0,0,0,.255.167,1.923,1.923,0,0,0,.36.145q.237.075.4.114l.461.119.47.123q.483.132.848.264a4.967,4.967,0,0,1,.778.369,2.792,2.792,0,0,1,.681.532,2.372,2.372,0,0,1,.444.747,2.759,2.759,0,0,1,.176,1.006,2.718,2.718,0,0,1-.3,1.31,2.276,2.276,0,0,1-.831.883,4.043,4.043,0,0,1-1.173.475A6.087,6.087,0,0,1,127.99,17.176Zm8.9-.176a2.729,2.729,0,0,1-2.039-.734,2.854,2.854,0,0,1-.721-2.087V9.907h-1.775V7.965h.571a1.491,1.491,0,0,0,1.125-.378,1.946,1.946,0,0,0,.36-1.345v-1.2H136.7V7.965h1.863V9.907H136.7v4q0,1.169,1.046,1.169h.817V17Zm12.094-4.649-.026.606h-6.7a2.339,2.339,0,0,0,.721,1.652,2.3,2.3,0,0,0,1.591.571,2.221,2.221,0,0,0,1.191-.312,1.918,1.918,0,0,0,.76-.91l2.32.343a3.945,3.945,0,0,1-1.582,2.118,4.7,4.7,0,0,1-2.672.756,4.891,4.891,0,0,1-3.52-1.244,4.538,4.538,0,0,1-1.305-3.45,4.565,4.565,0,0,1,1.31-3.45,4.746,4.746,0,0,1,3.437-1.261,4.536,4.536,0,0,1,3.243,1.151A4.517,4.517,0,0,1,148.987,12.351Zm-4.456-2.786a2,2,0,0,0-2.2,1.74h4.148a1.9,1.9,0,0,0-.624-1.292A1.978,1.978,0,0,0,144.531,9.564Zm11.716-1.775a3.522,3.522,0,0,1,2.5.813,3.014,3.014,0,0,1,.87,2.316V17h-2.54V11.463a1.574,1.574,0,0,0-.453-1.248,1.705,1.705,0,0,0-1.165-.4,2.379,2.379,0,0,0-.756.114,1.942,1.942,0,0,0-.633.356,1.573,1.573,0,0,0-.453.681,3.15,3.15,0,0,0-.171,1.046V17h-2.531V7.965h2.531v1A3.481,3.481,0,0,1,156.247,7.789ZM165.432,17a2.729,2.729,0,0,1-2.039-.734,2.854,2.854,0,0,1-.721-2.087V9.907H160.9V7.965h.571a1.491,1.491,0,0,0,1.125-.378,1.946,1.946,0,0,0,.36-1.345v-1.2h2.285V7.965H167.1V9.907h-1.863v4q0,1.169,1.046,1.169h.817V17Zm12.094-4.649-.026.606h-6.7a2.339,2.339,0,0,0,.721,1.652,2.3,2.3,0,0,0,1.591.571,2.221,2.221,0,0,0,1.191-.312,1.918,1.918,0,0,0,.76-.91l2.32.343A3.945,3.945,0,0,1,175.8,16.42a4.7,4.7,0,0,1-2.672.756,4.891,4.891,0,0,1-3.52-1.244,4.538,4.538,0,0,1-1.305-3.45,4.565,4.565,0,0,1,1.31-3.45,4.746,4.746,0,0,1,3.437-1.261,4.536,4.536,0,0,1,3.243,1.151A4.517,4.517,0,0,1,177.525,12.351Zm-4.456-2.786a2,2,0,0,0-2.2,1.74h4.148a1.9,1.9,0,0,0-.624-1.292A1.978,1.978,0,0,0,173.069,9.564Zm9.563,7.611A5.049,5.049,0,0,1,180,16.543a2.675,2.675,0,0,1-1.292-1.881l2.118-.6a1.7,1.7,0,0,0,1.811,1.345,1.87,1.87,0,0,0,.923-.207.719.719,0,0,0,.36-.7.739.739,0,0,0-.149-.466,1.183,1.183,0,0,0-.461-.334,5.749,5.749,0,0,0-.615-.237q-.3-.1-.8-.233t-.835-.259a5.593,5.593,0,0,1-.8-.338,3.393,3.393,0,0,1-.659-.466,1.878,1.878,0,0,1-.492-.708,2.552,2.552,0,0,1-.171-.967,2.308,2.308,0,0,1,.98-2.021,4.379,4.379,0,0,1,2.562-.686,4.489,4.489,0,0,1,2.364.58,2.625,2.625,0,0,1,1.213,1.811l-1.96.439a1.535,1.535,0,0,0-1.608-1.143,1.761,1.761,0,0,0-.888.2.649.649,0,0,0-.352.6.685.685,0,0,0,.053.272.539.539,0,0,0,.185.22,2.692,2.692,0,0,0,.255.167,1.923,1.923,0,0,0,.36.145q.237.075.4.114l.461.119.47.123q.483.132.848.264a4.967,4.967,0,0,1,.778.369,2.792,2.792,0,0,1,.681.532,2.372,2.372,0,0,1,.444.747,2.759,2.759,0,0,1,.176,1.006,2.718,2.718,0,0,1-.3,1.31,2.276,2.276,0,0,1-.831.883,4.043,4.043,0,0,1-1.173.475A6.087,6.087,0,0,1,182.632,17.176Z" transform="translate(3520 -2653)" fill="#00223d"/>
  </g>
</svg>
