<svg xmlns="http://www.w3.org/2000/svg" width="917.187" height="529.078" viewBox="0 0 917.187 529.078">
  <g id="Grupo_18072" data-name="Grupo 18072" transform="translate(-2754.684 671)">
    <path id="Trazado_17226" data-name="Trazado 17226" d="M0,0H218.564V56.493H0Z" transform="translate(2797.615 -671)" fill="#e6e6e6"/>
    <path id="Trazado_17227" data-name="Trazado 17227" d="M0,0H218.564V56.493H0Z" transform="translate(3016.179 -671)" fill="#d64626"/>
    <path id="Trazado_17228" data-name="Trazado 17228" d="M0,0H218.564V56.493H0Z" transform="translate(3234.743 -671)" fill="#b52426"/>
    <path id="Trazado_17229" data-name="Trazado 17229" d="M0,0H218.564V56.493H0Z" transform="translate(3453.307 -671)" fill="#97181a"/>
    <path id="Trazado_17230" data-name="Trazado 17230" d="M8.411-12.375v1.433H5.238V0H3.674V-10.942H.492v-1.433ZM10.846,0V-12.375h1.573V0ZM22.939-10.942H17.912v4.052h4.43v1.415h-4.43v4.043h5.027V0H16.3V-12.375h6.636ZM39.041,0H37.512l-.826-10.213L32.73,0h-.94L27.861-10.178,27.026,0H25.488l.94-12.375H28.5l3.753,9.65,3.762-9.65h2.092Zm8.1-12.375a3.664,3.664,0,0,1,1.938.514,3.473,3.473,0,0,1,1.3,1.375,4.036,4.036,0,0,1,.453,1.907,3.755,3.755,0,0,1-1.024,2.694,3.514,3.514,0,0,1-2.667,1.077H44.033V0H42.46V-12.375Zm-.229,6.2a2.25,2.25,0,0,0,1.723-.664A2.455,2.455,0,0,0,49.263-8.6a2.463,2.463,0,0,0-.624-1.745,2.234,2.234,0,0,0-1.723-.672H44.033v4.834ZM58.9.167a6.574,6.574,0,0,1-2.435-.444,5.879,5.879,0,0,1-1.956-1.248,5.567,5.567,0,0,1-1.3-2.008,7.263,7.263,0,0,1-.47-2.663,7.144,7.144,0,0,1,.475-2.65,5.7,5.7,0,0,1,1.3-2.008A5.741,5.741,0,0,1,56.461-12.1a6.633,6.633,0,0,1,2.435-.439,6.526,6.526,0,0,1,2.417.444,5.831,5.831,0,0,1,1.951,1.248,5.652,5.652,0,0,1,1.3,2,7.144,7.144,0,0,1,.475,2.65,7.213,7.213,0,0,1-.475,2.659,5.638,5.638,0,0,1-1.3,2.013A5.831,5.831,0,0,1,61.313-.277,6.526,6.526,0,0,1,58.9.167Zm0-1.485a4.422,4.422,0,0,0,3.274-1.305,4.847,4.847,0,0,0,1.3-3.573,5.674,5.674,0,0,0-.356-2.057,4.236,4.236,0,0,0-.976-1.529,4.28,4.28,0,0,0-1.45-.932,4.862,4.862,0,0,0-1.789-.325,4.921,4.921,0,0,0-1.8.325,4.318,4.318,0,0,0-1.459.932,4.206,4.206,0,0,0-.98,1.529A5.674,5.674,0,0,0,54.3-6.2a5.771,5.771,0,0,0,.356,2.074,4.194,4.194,0,0,0,.98,1.538,4.374,4.374,0,0,0,1.459.936A4.863,4.863,0,0,0,58.9-1.318Z" transform="translate(3182.88 -142.089)"/>
    <path id="Trazado_17231" data-name="Trazado 17231" d="M9.554-12.375h1.661L6.68,0H5.063L.527-12.375H2.18L5.871-1.969ZM20.32-10.942H15.293v4.052h4.43v1.415h-4.43v4.043H20.32V0H13.685V-12.375H20.32Zm11.329-1.433h1.564V0H31.553L24.882-10.011V0H23.335V-12.375h1.644l6.671,9.967Zm11.918,0v1.433H40.395V0H38.83V-10.942H35.648v-1.433ZM52.972,0,51.908-2.962h-5.6L45.255,0H43.611l4.562-12.375h1.881L54.615,0ZM46.811-4.351h4.605l-2.3-6.442ZM60.908.167a5.648,5.648,0,0,1-3.23-.875,3.7,3.7,0,0,1-1.613-2.4l1.591-.378A2.609,2.609,0,0,0,58.772-1.8a3.775,3.775,0,0,0,2.188.615,4.566,4.566,0,0,0,.817-.07,3.127,3.127,0,0,0,.743-.233,2.274,2.274,0,0,0,.611-.4,1.669,1.669,0,0,0,.4-.606,2.076,2.076,0,0,0,.141-.826,1.786,1.786,0,0,0-.11-.584,1.855,1.855,0,0,0-.246-.461,1.657,1.657,0,0,0-.417-.374,5.6,5.6,0,0,0-.5-.3,4.529,4.529,0,0,0-.62-.25q-.391-.132-.655-.207l-.712-.2q-.088-.026-.132-.035-.51-.132-.831-.229t-.769-.268a5.06,5.06,0,0,1-.734-.338,4.968,4.968,0,0,1-.6-.422,2.161,2.161,0,0,1-.5-.549,2.9,2.9,0,0,1-.3-.7,3.11,3.11,0,0,1-.119-.879,3.138,3.138,0,0,1,.576-1.9,3.368,3.368,0,0,1,1.485-1.16,5.392,5.392,0,0,1,2.043-.369,5.6,5.6,0,0,1,2.975.76,3.388,3.388,0,0,1,1.578,2.246l-1.529.387a2.328,2.328,0,0,0-1.028-1.521,3.523,3.523,0,0,0-1.934-.51,3.83,3.83,0,0,0-.949.114,2.82,2.82,0,0,0-.822.352,1.706,1.706,0,0,0-.593.646,1.965,1.965,0,0,0-.22.945A1.519,1.519,0,0,0,58.1-8.6a1.605,1.605,0,0,0,.22.417,1.564,1.564,0,0,0,.378.343,3.839,3.839,0,0,0,.461.272,4.676,4.676,0,0,0,.576.224q.36.119.615.193t.677.18a14.318,14.318,0,0,1,2.382.791A3.014,3.014,0,0,1,65.25-3.9a3.924,3.924,0,0,1,.035.536,3.458,3.458,0,0,1-.356,1.6,2.885,2.885,0,0,1-.976,1.107,4.664,4.664,0,0,1-1.389.62A6.368,6.368,0,0,1,60.908.167Z" transform="translate(2767.226 -343.597) rotate(-90)"/>
    <path id="Trazado_17232" data-name="Trazado 17232" d="M46.614,16V4.711h2.344V16ZM59.583,4.711h2.336V16H59.208l-5-8.07V16H51.872V4.711h2.68l5.031,8.023Zm11.8,0V6.773h-2.68V16h-2.32V6.773h-2.7V4.711ZM79.122,16l-2.937-4.969H75.5V16H73.161V4.711h4.094a4.735,4.735,0,0,1,1.641.262,2.837,2.837,0,0,1,1.137.727,3.112,3.112,0,0,1,.641,1.066,3.9,3.9,0,0,1,.215,1.32,2.757,2.757,0,0,1-.617,1.855,3.11,3.11,0,0,1-1.773.973L81.9,16ZM75.5,6.656v2.7h1.383q1.758,0,1.758-1.344a1.224,1.224,0,0,0-.43-.992,2.043,2.043,0,0,0-1.328-.359Zm12.82,9.5a6.137,6.137,0,0,1-2.965-.707A5.125,5.125,0,0,1,83.3,13.414a6.121,6.121,0,0,1-.75-3.062,6.115,6.115,0,0,1,.75-3.066A5.106,5.106,0,0,1,85.36,5.258a6.594,6.594,0,0,1,5.926,0,5.113,5.113,0,0,1,2.055,2.027,6.115,6.115,0,0,1,.75,3.066,6.121,6.121,0,0,1-.75,3.063,5.125,5.125,0,0,1-2.059,2.035A6.12,6.12,0,0,1,88.325,16.156ZM85.856,13.02a3.578,3.578,0,0,0,4.938,0,3.646,3.646,0,0,0,.969-2.668A3.622,3.622,0,0,0,90.794,7.7a3.588,3.588,0,0,0-4.937,0,3.622,3.622,0,0,0-.969,2.656A3.646,3.646,0,0,0,85.856,13.02ZM96.247,16V4.711h4.086a6.37,6.37,0,0,1,2.355.406,4.339,4.339,0,0,1,1.688,1.152,5.013,5.013,0,0,1,1,1.777,7.338,7.338,0,0,1,.34,2.3,7.365,7.365,0,0,1-.34,2.313,5.013,5.013,0,0,1-1,1.777,4.339,4.339,0,0,1-1.687,1.152,6.37,6.37,0,0,1-2.355.406Zm2.344-2.07h1.625a2.773,2.773,0,0,0,2.281-.918,4.114,4.114,0,0,0,.75-2.66,4.114,4.114,0,0,0-.75-2.66,2.773,2.773,0,0,0-2.281-.918H98.591Zm13.5,2.227a5.842,5.842,0,0,1-1.738-.246,4.092,4.092,0,0,1-1.395-.738,3.3,3.3,0,0,1-.941-1.289,4.646,4.646,0,0,1-.34-1.836V4.711h2.344v7.016a2.454,2.454,0,0,0,.566,1.789,2.273,2.273,0,0,0,3.016,0,2.435,2.435,0,0,0,.574-1.785V4.711h2.344v7.336a4.646,4.646,0,0,1-.34,1.836,3.286,3.286,0,0,1-.945,1.289,4.134,4.134,0,0,1-1.4.738A5.87,5.87,0,0,1,112.091,16.156Zm12.117,0a6.3,6.3,0,0,1-2.3-.414,5.41,5.41,0,0,1-1.832-1.156,5.212,5.212,0,0,1-1.2-1.836,6.4,6.4,0,0,1-.437-2.4,6.115,6.115,0,0,1,.75-3.066,5.106,5.106,0,0,1,2.059-2.027,6.164,6.164,0,0,1,2.965-.7,5.99,5.99,0,0,1,3.313.914,5,5,0,0,1,2.023,2.516l-2.188.8a3.092,3.092,0,0,0-1.211-1.523,3.459,3.459,0,0,0-1.937-.547,3.316,3.316,0,0,0-2.469.984,3.622,3.622,0,0,0-.969,2.656,3.627,3.627,0,0,0,.973,2.66,3.312,3.312,0,0,0,2.465.988,3.446,3.446,0,0,0,1.934-.551,3.106,3.106,0,0,0,1.215-1.527l2.188.8a5.024,5.024,0,0,1-2.023,2.52A5.971,5.971,0,0,1,124.208,16.156Zm12.258,0a6.3,6.3,0,0,1-2.3-.414,5.41,5.41,0,0,1-1.832-1.156,5.212,5.212,0,0,1-1.2-1.836,6.4,6.4,0,0,1-.437-2.4,6.115,6.115,0,0,1,.75-3.066A5.106,5.106,0,0,1,133.5,5.258a6.164,6.164,0,0,1,2.965-.7,5.99,5.99,0,0,1,3.313.914A5,5,0,0,1,141.8,7.984l-2.187.8A3.092,3.092,0,0,0,138.4,7.258a3.459,3.459,0,0,0-1.937-.547A3.316,3.316,0,0,0,134,7.7a3.622,3.622,0,0,0-.969,2.656,3.627,3.627,0,0,0,.973,2.66,3.312,3.312,0,0,0,2.465.988,3.446,3.446,0,0,0,1.934-.551,3.107,3.107,0,0,0,1.215-1.527l2.188.8a5.024,5.024,0,0,1-2.023,2.52A5.971,5.971,0,0,1,136.466,16.156ZM143.723,16V4.711h2.344V16Zm9.563-12.344L155.333.781l1.109.789-1.773,2.086Zm.7,12.5a6.136,6.136,0,0,1-2.965-.707,5.125,5.125,0,0,1-2.059-2.035,6.121,6.121,0,0,1-.75-3.062,6.115,6.115,0,0,1,.75-3.066,5.106,5.106,0,0,1,2.059-2.027,6.594,6.594,0,0,1,5.926,0A5.113,5.113,0,0,1,159,7.285a6.115,6.115,0,0,1,.75,3.066,6.121,6.121,0,0,1-.75,3.063,5.125,5.125,0,0,1-2.059,2.035A6.12,6.12,0,0,1,153.981,16.156Zm-2.469-3.137a3.578,3.578,0,0,0,4.938,0,3.646,3.646,0,0,0,.969-2.668A3.622,3.622,0,0,0,156.45,7.7a3.588,3.588,0,0,0-4.937,0,3.622,3.622,0,0,0-.969,2.656A3.646,3.646,0,0,0,151.512,13.02Zm18.1-8.309h2.336V16h-2.711l-5-8.07V16H161.9V4.711h2.68l5.031,8.023Z" transform="translate(2797.615 -651.776)"/>
    <path id="Trazado_17233" data-name="Trazado 17233" d="M59.653,16.156a6.3,6.3,0,0,1-2.3-.414,5.41,5.41,0,0,1-1.832-1.156,5.212,5.212,0,0,1-1.2-1.836,6.4,6.4,0,0,1-.437-2.4,6.115,6.115,0,0,1,.75-3.066,5.106,5.106,0,0,1,2.059-2.027,6.164,6.164,0,0,1,2.965-.7,5.99,5.99,0,0,1,3.313.914,5,5,0,0,1,2.023,2.516l-2.187.8a3.092,3.092,0,0,0-1.211-1.523,3.459,3.459,0,0,0-1.937-.547,3.316,3.316,0,0,0-2.469.984,3.622,3.622,0,0,0-.969,2.656,3.627,3.627,0,0,0,.973,2.66A3.312,3.312,0,0,0,59.653,14a3.446,3.446,0,0,0,1.934-.551A3.107,3.107,0,0,0,62.8,11.922l2.188.8a5.024,5.024,0,0,1-2.023,2.52A5.971,5.971,0,0,1,59.653,16.156ZM72.872,16l-2.937-4.969h-.68V16H66.911V4.711H71a4.735,4.735,0,0,1,1.641.262,2.837,2.837,0,0,1,1.137.727,3.112,3.112,0,0,1,.641,1.066,3.9,3.9,0,0,1,.215,1.32,2.757,2.757,0,0,1-.617,1.855,3.11,3.11,0,0,1-1.773.973L75.645,16ZM69.255,6.656v2.7h1.383q1.758,0,1.758-1.344a1.224,1.224,0,0,0-.43-.992,2.043,2.043,0,0,0-1.328-.359Zm14.656.117H79.723V9.336h3.711v2.039H79.723V13.93h4.188V16H77.364V4.711h6.547ZM90.9,16.156a6.3,6.3,0,0,1-2.3-.414,5.41,5.41,0,0,1-1.832-1.156,5.212,5.212,0,0,1-1.2-1.836,6.4,6.4,0,0,1-.437-2.4,6.115,6.115,0,0,1,.75-3.066A5.106,5.106,0,0,1,87.93,5.258a6.164,6.164,0,0,1,2.965-.7,5.99,5.99,0,0,1,3.313.914,5,5,0,0,1,2.023,2.516l-2.187.8a3.092,3.092,0,0,0-1.211-1.523A3.459,3.459,0,0,0,90.9,6.711a3.316,3.316,0,0,0-2.469.984,3.622,3.622,0,0,0-.969,2.656,3.627,3.627,0,0,0,.973,2.66A3.312,3.312,0,0,0,90.9,14a3.446,3.446,0,0,0,1.934-.551,3.106,3.106,0,0,0,1.215-1.527l2.188.8a5.024,5.024,0,0,1-2.023,2.52A5.971,5.971,0,0,1,90.9,16.156ZM98.153,16V4.711H100.5V16Zm18.2,0h-2.336l-.742-8.508L110.411,16H108.9l-2.859-8.508L105.286,16h-2.344l.945-11.289h3.344l2.406,7.086,2.438-7.086h3.344Zm2.453,0V4.711h2.344V16Zm11.8-9.227h-4.188V9.336h3.711v2.039h-3.711V13.93h4.188V16h-6.547V4.711h6.547Zm10.125-2.062h2.336V16h-2.711l-5-8.07V16H133.02V4.711h2.68l5.031,8.023Zm11.8,0V6.773h-2.68V16h-2.32V6.773h-2.7V4.711Zm6.375,11.445a6.136,6.136,0,0,1-2.965-.707,5.125,5.125,0,0,1-2.059-2.035,6.121,6.121,0,0,1-.75-3.062,6.115,6.115,0,0,1,.75-3.066,5.106,5.106,0,0,1,2.059-2.027,6.594,6.594,0,0,1,5.926,0,5.113,5.113,0,0,1,2.055,2.027,6.115,6.115,0,0,1,.75,3.066,6.121,6.121,0,0,1-.75,3.063,5.125,5.125,0,0,1-2.059,2.035A6.12,6.12,0,0,1,158.911,16.156Zm-2.469-3.137a3.578,3.578,0,0,0,4.938,0,3.646,3.646,0,0,0,.969-2.668A3.622,3.622,0,0,0,161.38,7.7a3.588,3.588,0,0,0-4.937,0,3.622,3.622,0,0,0-.969,2.656A3.646,3.646,0,0,0,156.442,13.02Z" transform="translate(3016.179 -651.776)" fill="#fff"/>
    <path id="Trazado_17234" data-name="Trazado 17234" d="M84.328,16H81.992L81.25,7.492,78.391,16H76.875L74.016,7.492,73.266,16H70.922l.945-11.289h3.344L77.617,11.8l2.438-7.086H83.4Zm10.008,0-.82-2.328H88.774L87.953,16h-2.4L89.711,4.711h2.867L96.735,16Zm-4.875-4.289h3.367l-1.68-4.789ZM98.43,16V4.711h4.086a6.37,6.37,0,0,1,2.355.406,4.339,4.339,0,0,1,1.688,1.152,5.013,5.013,0,0,1,1,1.777,7.338,7.338,0,0,1,.34,2.3,7.365,7.365,0,0,1-.34,2.313,5.013,5.013,0,0,1-1,1.777,4.339,4.339,0,0,1-1.687,1.152,6.37,6.37,0,0,1-2.355.406Zm2.344-2.07H102.4a2.773,2.773,0,0,0,2.281-.918,4.114,4.114,0,0,0,.75-2.66,4.114,4.114,0,0,0-.75-2.66,2.773,2.773,0,0,0-2.281-.918h-1.625Zm13.5,2.227a5.842,5.842,0,0,1-1.738-.246,4.092,4.092,0,0,1-1.395-.738,3.3,3.3,0,0,1-.941-1.289,4.646,4.646,0,0,1-.34-1.836V4.711H112.2v7.016a2.454,2.454,0,0,0,.566,1.789,2.273,2.273,0,0,0,3.016,0,2.435,2.435,0,0,0,.574-1.785V4.711H118.7v7.336a4.646,4.646,0,0,1-.34,1.836,3.286,3.286,0,0,1-.945,1.289,4.134,4.134,0,0,1-1.4.738A5.87,5.87,0,0,1,114.274,16.156ZM127.352,16l-2.937-4.969h-.68V16h-2.344V4.711h4.094a4.735,4.735,0,0,1,1.641.262,2.837,2.837,0,0,1,1.137.727,3.112,3.112,0,0,1,.641,1.066,3.9,3.9,0,0,1,.215,1.32,2.757,2.757,0,0,1-.617,1.855,3.11,3.11,0,0,1-1.773.973l3.4,5.086Zm-3.617-9.344v2.7h1.383q1.758,0,1.758-1.344a1.224,1.224,0,0,0-.43-.992,2.043,2.043,0,0,0-1.328-.359Zm14.656.117H134.2V9.336h3.711v2.039H134.2V13.93h4.188V16h-6.547V4.711h6.547Zm4.469,7.156h5.422V16h-8.227V14.148l5.352-7.375h-5.344V4.711h8.117V6.563Z" transform="translate(3234.408 -651.776)" fill="#fff"/>
    <path id="Trazado_17235" data-name="Trazado 17235" d="M77.887,16V4.711h4.086a6.37,6.37,0,0,1,2.355.406A4.339,4.339,0,0,1,86.016,6.27a5.013,5.013,0,0,1,1,1.777,7.338,7.338,0,0,1,.34,2.3,7.365,7.365,0,0,1-.34,2.313,5.013,5.013,0,0,1-1,1.777,4.339,4.339,0,0,1-1.687,1.152A6.37,6.37,0,0,1,81.973,16Zm2.344-2.07h1.625a2.773,2.773,0,0,0,2.281-.918,4.114,4.114,0,0,0,.75-2.66,4.114,4.114,0,0,0-.75-2.66,2.773,2.773,0,0,0-2.281-.918H80.231ZM96.1,6.773H91.911V9.336h3.711v2.039H91.911V13.93H96.1V16H89.551V4.711H96.1Zm6.984,9.383a6.3,6.3,0,0,1-2.3-.414,5.41,5.41,0,0,1-1.832-1.156,5.212,5.212,0,0,1-1.2-1.836,6.4,6.4,0,0,1-.437-2.4,6.115,6.115,0,0,1,.75-3.066,5.106,5.106,0,0,1,2.059-2.027,6.164,6.164,0,0,1,2.965-.7,5.99,5.99,0,0,1,3.313.914,5,5,0,0,1,2.023,2.516l-2.187.8a3.092,3.092,0,0,0-1.211-1.523,3.459,3.459,0,0,0-1.937-.547,3.316,3.316,0,0,0-2.469.984,3.622,3.622,0,0,0-.969,2.656,3.627,3.627,0,0,0,.973,2.66,3.312,3.312,0,0,0,2.465.988,3.446,3.446,0,0,0,1.934-.551,3.106,3.106,0,0,0,1.215-1.527l2.188.8a5.024,5.024,0,0,1-2.023,2.52A5.971,5.971,0,0,1,103.083,16.156Zm9.6-2.227h3.539V16h-5.883V4.711h2.344ZM118.012,16V4.711h2.344V16ZM130.45,4.711h2.492L128.77,16h-2.578L122.044,4.711h2.484l2.961,8.555Zm10.734,2.063H137V9.336h3.711v2.039H137V13.93h4.188V16h-6.547V4.711h6.547Z" transform="translate(3453.307 -651.776)" fill="#fff"/>
    <path id="Trazado_17222" data-name="Trazado 17222" d="M111.882,1095.355l-.971-4.588c1.264-.266,127.511-27.464,217.762-86.72,93.588-61.447,142.333-113.989,209.8-186.712,35.407-38.166,70.18-64.921,106.3-81.8,34.442-16.088,70.23-23.2,109.435-21.75,35.728,1.322,79.135,16,119.1,40.277,39.444,23.961,69.353,53.317,82.058,80.542l-4.249,1.985c-12.321-26.409-41.57-55.026-80.243-78.519-39.3-23.872-81.88-38.3-116.833-39.6-78.51-2.9-143.955,28.564-212.129,102.051-67.689,72.964-116.6,125.681-210.661,187.441C240.245,1067.715,113.155,1095.085,111.882,1095.355Z" transform="translate(2686.218 -1270.441)" fill="#ed1c24"/>
    <path id="Trazado_17223" data-name="Trazado 17223" d="M961.167,1108.771H110.222v-420.3h3.126v417.175H961.167Z" transform="translate(2685.83 -1284.588)"/>
    <path id="Trazado_17224" data-name="Trazado 17224" d="M107.832,695.983l5.3-5.3,5.3,5.3v-4.5l-5.3-5.3-5.3,5.3Z" transform="translate(2684.484 -1285.874)"/>
    <path id="Trazado_17225" data-name="Trazado 17225" d="M650.73,963.615l5.3-5.3-5.3-5.3h4.5l5.3,5.3-5.3,5.3Z" transform="translate(2990.041 -1135.695)"/>
    <path id="Trazado_17236" data-name="Trazado 17236" d="M0,0H1.563V428.792H0Z" transform="translate(3015.397 -606.172)" fill="#666"/>
    <path id="Trazado_17237" data-name="Trazado 17237" d="M0,0H1.563V428.792H0Z" transform="translate(3233.961 -606.172)" fill="#666"/>
    <path id="Trazado_17238" data-name="Trazado 17238" d="M0,0H1.563V428.792H0Z" transform="translate(3452.525 -606.172)" fill="#666"/>
  </g>
</svg>
