<svg xmlns="http://www.w3.org/2000/svg" width="73.014" height="75.014" viewBox="0 0 73.014 75.014">
  <g id="Grupo_18080" data-name="Grupo 18080" transform="translate(-235 -12785)">
    <circle id="Elipse_797" data-name="Elipse 797" cx="30.5" cy="30.5" r="30.5" transform="translate(235 12785)" fill="#efd6d0"/>
    <g id="market_1_" data-name="market (1)" transform="translate(243 12795)">
      <path id="Trazado_17165" data-name="Trazado 17165" d="M45.13,11.13a2.067,2.067,0,0,1,2.065,2.065H49.26a4.126,4.126,0,0,0-3.1-3.983V7H44.1V9.065H41v4.13a4.134,4.134,0,0,0,4.13,4.13,2.067,2.067,0,0,1,2.065,2.065v2.065H45.13a2.067,2.067,0,0,1-2.065-2.065H41a4.126,4.126,0,0,0,3.1,3.983v2.212h2.065V23.52h3.1V19.39a4.134,4.134,0,0,0-4.13-4.13,2.067,2.067,0,0,1-2.065-2.065V11.13Z" transform="translate(1.299 0.195)" fill="#97181a"/>
      <path id="Trazado_17166" data-name="Trazado 17166" d="M65.014,28.877A27.909,27.909,0,0,0,37.137,1H36.1V29.91H49.527V42.3a2.067,2.067,0,0,1-2.065,2.065H42.185a7.22,7.22,0,0,0-5.048-12.39H29.91V5.13H28.877A27.877,27.877,0,0,0,23.715,60.4v4.613H45.4V54.779a1.549,1.549,0,0,1,1.272-1.525l3.3-.6a8.256,8.256,0,0,0,6.782-8.126V29.91h8.26ZM38.139,55.325l-1,1-1-1,.636-8.9H37.5ZM42.3,39.2a5.162,5.162,0,1,1-5.162-5.162A5.168,5.168,0,0,1,42.3,39.2ZM9.961,50.463A25.832,25.832,0,0,1,3.112,34.04H26.385ZM27.845,7.216V31.975H3.091A25.842,25.842,0,0,1,27.845,7.216ZM11.416,51.928,29.3,34.04h2.784a7.2,7.2,0,0,0,.353,10.645,11.368,11.368,0,0,0-8.727,11.037v2.553A25.605,25.605,0,0,1,11.416,51.928Zm43.274-7.4A6.192,6.192,0,0,1,49.6,50.622l-3.3.6a3.613,3.613,0,0,0-2.967,3.557v8.17H30.942V51.592H28.877V62.949h-3.1V55.722a9.3,9.3,0,0,1,8.92-9.274l-.691,9.669,3.128,3.128,3.128-3.128-.692-9.688h7.888a4.134,4.134,0,0,0,4.13-4.13V28.361a1.549,1.549,0,1,1,3.1,0ZM56.7,27.845a3.6,3.6,0,0,0-7.122,0H38.17V3.086A25.846,25.846,0,0,1,62.929,27.845Z" fill="#97181a"/>
      <path id="Trazado_17167" data-name="Trazado 17167" d="M0,0H2.065V2.065H0Z" transform="translate(17.638 48.971) rotate(-45)" fill="#97181a"/>
      <path id="Trazado_17168" data-name="Trazado 17168" d="M0,0H1.961V2.065H0Z" transform="translate(20.558 46.05) rotate(-45)" fill="#97181a"/>
      <path id="Trazado_17169" data-name="Trazado 17169" d="M0,0H2.065V2.065H0Z" transform="translate(14.718 51.891) rotate(-45)" fill="#97181a"/>
      <path id="Trazado_17170" data-name="Trazado 17170" d="M25.585,29.325V19H7V29.325Zm-16.52-8.26H23.52V27.26H9.065Z" transform="translate(0.195 0.585)" fill="#97181a"/>
      <path id="Trazado_17171" data-name="Trazado 17171" d="M11,23h2.065v2.065H11Z" transform="translate(0.325 0.715)" fill="#97181a"/>
      <path id="Trazado_17172" data-name="Trazado 17172" d="M15,23h2.065v2.065H15Z" transform="translate(0.455 0.715)" fill="#97181a"/>
      <path id="Trazado_17173" data-name="Trazado 17173" d="M19,23h2.065v2.065H19Z" transform="translate(0.585 0.715)" fill="#97181a"/>
      <path id="Trazado_17174" data-name="Trazado 17174" d="M23,13h2.065v2.065H23Z" transform="translate(0.715 0.39)" fill="#97181a"/>
      <path id="Trazado_17175" data-name="Trazado 17175" d="M23,9h2.065v2.065H23Z" transform="translate(0.715 0.26)" fill="#97181a"/>
      <path id="Trazado_17176" data-name="Trazado 17176" d="M7.391,35.714l-2.033.363c.126.706.286,1.415.476,2.105l1.992-.546c-.172-.632-.319-1.278-.435-1.922Z" transform="translate(0.142 1.128)" fill="#97181a"/>
      <path id="Trazado_17177" data-name="Trazado 17177" d="M8.4,39.389l-1.932.73c.254.673.54,1.34.851,1.98l1.858-.9c-.284-.585-.545-1.195-.777-1.811Z" transform="translate(0.178 1.247)" fill="#97181a"/>
      <path id="Trazado_17178" data-name="Trazado 17178" d="M10.054,42.82,8.285,43.884c.367.61.769,1.214,1.2,1.8l1.665-1.22c-.389-.531-.757-1.083-1.092-1.64Z" transform="translate(0.237 1.359)" fill="#97181a"/>
      <path id="Trazado_17179" data-name="Trazado 17179" d="M54.462,18.013l1.811-.992c-.344-.626-.721-1.246-1.122-1.842L53.438,16.33c.365.545.71,1.112,1.024,1.683Z" transform="translate(1.704 0.461)" fill="#97181a"/>
      <path id="Trazado_17180" data-name="Trazado 17180" d="M56.818,25.212l2.045-.28c-.1-.71-.228-1.425-.388-2.123l-2.012.464C56.61,23.91,56.729,24.562,56.818,25.212Z" transform="translate(1.802 0.708)" fill="#97181a"/>
      <path id="Trazado_17181" data-name="Trazado 17181" d="M55.971,21.5l1.961-.645c-.224-.68-.482-1.359-.769-2.017l-1.894.823C55.53,20.266,55.767,20.884,55.971,21.5Z" transform="translate(1.763 0.58)" fill="#97181a"/>
    </g>
  </g>
</svg>
