<svg xmlns="http://www.w3.org/2000/svg" width="65" height="76" viewBox="0 0 65 76">
  <g id="Grupo_13443" data-name="Grupo 13443" transform="translate(-235 -16791)">
    <circle id="Elipse_797" data-name="Elipse 797" cx="30.5" cy="30.5" r="30.5" transform="translate(235 16791)" fill="#efd6d0"/>
    <g id="rinse" transform="translate(238 16805)">
      <path id="Trazado_15061" data-name="Trazado 15061" d="M62.645,9.145l-2.416-.8,1.139-2.278L57.582,2.277,55.3,3.416,54.5,1H49.146l-.8,2.416L46.064,2.277,42.278,6.063l1.139,2.278L41,9.145V14.5l2.416.8-1.139,2.278,3.786,3.786,2.278-1.139.8,2.417H54.5l.8-2.416,2.278,1.139,3.786-3.786L60.228,15.3l2.417-.8Zm-1.968,3.935-2.259.753-.165.436c-.048.127-.1.25-.152.372l-.191.426,1.064,2.127-1.78,1.78-2.127-1.064-.426.191c-.122.054-.245.1-.372.152l-.436.165-.753,2.259H50.563l-.753-2.259-.436-.165c-.127-.048-.25-.1-.372-.152l-.426-.191L46.45,18.974l-1.78-1.78,1.064-2.127-.191-.426c-.054-.122-.1-.245-.152-.372l-.165-.436-2.258-.753V10.563l2.259-.753.165-.436c.048-.127.1-.25.152-.372l.191-.426L44.671,6.451l1.78-1.78,2.127,1.064L49,5.544c.122-.054.245-.1.372-.152l.436-.165.753-2.259h2.518l.753,2.259.436.165c.127.048.25.1.372.152l.426.191L57.2,4.671l1.78,1.78L57.912,8.578,58.1,9c.054.122.1.245.152.372l.165.436,2.258.753Z" transform="translate(-0.645)" fill="#97181a"/>
      <path id="Trazado_15062" data-name="Trazado 15062" d="M51.919,7a4.919,4.919,0,1,0,4.919,4.919A4.925,4.925,0,0,0,51.919,7Zm0,7.871a2.952,2.952,0,1,1,2.952-2.952A2.955,2.955,0,0,1,51.919,14.871Z" transform="translate(-0.742 -0.097)" fill="#97181a"/>
      <path id="Trazado_15063" data-name="Trazado 15063" d="M21.368,46.063l-3.786-3.786L15.3,43.416,14.5,41H9.145l-.8,2.416L6.063,42.277,2.277,46.063l1.139,2.278L1,49.145V54.5l2.416.8L2.277,57.581l3.786,3.786,2.278-1.139.8,2.417H14.5l.8-2.416,2.278,1.139,3.786-3.786L20.228,55.3l2.417-.8V49.146l-2.416-.8Zm-.691,4.5v2.518l-2.259.753-.165.436c-.048.127-.1.25-.152.372l-.191.426L18.974,57.2l-1.78,1.78-2.127-1.064-.426.191c-.122.054-.245.1-.372.152l-.436.165-.753,2.258H10.563l-.753-2.259-.436-.165c-.127-.048-.25-.1-.372-.152l-.426-.191L6.451,58.974l-1.78-1.78,1.064-2.127-.191-.426c-.054-.122-.1-.245-.152-.372l-.165-.436-2.259-.753V50.563l2.259-.753.165-.436c.048-.127.1-.25.152-.372l.191-.426L4.671,46.451l1.78-1.78,2.127,1.064L9,45.544c.122-.054.245-.1.372-.152l.436-.165.753-2.259h2.518l.753,2.259.436.165c.127.048.25.1.372.152l.426.191L17.2,44.671l1.78,1.78-1.064,2.127L18.1,49c.054.122.1.245.152.372l.165.436Z" transform="translate(0 -0.645)" fill="#97181a"/>
      <path id="Trazado_15064" data-name="Trazado 15064" d="M11.919,47a4.919,4.919,0,1,0,4.919,4.919A4.925,4.925,0,0,0,11.919,47Zm0,7.871a2.952,2.952,0,1,1,2.952-2.952A2.955,2.955,0,0,1,11.919,54.871Z" transform="translate(-0.097 -0.742)" fill="#97181a"/>
      <path id="Trazado_15065" data-name="Trazado 15065" d="M27.919,37.956v2.706a2.955,2.955,0,0,0,2.952,2.952h1.968a2.955,2.955,0,0,0,2.952-2.952V37.915a1.9,1.9,0,0,1,.848-1.614,8.856,8.856,0,1,0-9.547.014A1.934,1.934,0,0,1,27.919,37.956Zm5.9,2.706a.984.984,0,0,1-.984.984H30.871a.984.984,0,0,1-.984-.984v-.984h3.935ZM30.871,28.855a.984.984,0,1,1,.984.984A.984.984,0,0,1,30.871,28.855Zm-5.844-.911a6.911,6.911,0,0,1,6.021-5.93,7.136,7.136,0,0,1,.816-.047,6.806,6.806,0,0,1,4.577,1.749,6.884,6.884,0,0,1-.866,10.931,3.836,3.836,0,0,0-1.739,3.063h-1V31.625a2.952,2.952,0,1,0-1.968,0V37.71h-1a3.835,3.835,0,0,0-1.721-3.053,6.859,6.859,0,0,1-3.125-6.713Z" transform="translate(-0.355 -0.306)" fill="#97181a"/>
      <path id="Trazado_15066" data-name="Trazado 15066" d="M54.01,28.256a2.823,2.823,0,0,0-4.7,0l-5.1,7.655a2.5,2.5,0,0,0,2.076,3.878h1.441v7.871H31v1.968H47.726a1.97,1.97,0,0,0,1.968-1.968V37.823H46.284A.526.526,0,0,1,45.847,37l5.1-7.655a.886.886,0,0,1,1.422,0L57.477,37a.521.521,0,0,1,.089.292.528.528,0,0,1-.527.526H53.629V49.629a3.939,3.939,0,0,1-3.935,3.935H31v1.968H49.694a5.909,5.909,0,0,0,5.9-5.9V39.79h1.441a2.494,2.494,0,0,0,2.075-3.877Z" transform="translate(-0.484 -0.419)" fill="#97181a"/>
      <path id="Trazado_15067" data-name="Trazado 15067" d="M27,54h1.968v1.968H27Z" transform="translate(-0.419 -0.855)" fill="#97181a"/>
      <path id="Trazado_15068" data-name="Trazado 15068" d="M9.522,35.276a2.823,2.823,0,0,0,4.7,0l5.1-7.655a2.5,2.5,0,0,0-2.076-3.878H15.806V15.871H32.532V13.9H15.806a1.97,1.97,0,0,0-1.968,1.968V25.71h3.409a.526.526,0,0,1,.438.819l-5.1,7.655a.886.886,0,0,1-1.422,0l-5.1-7.656a.521.521,0,0,1-.089-.292.527.527,0,0,1,.526-.526H9.9V13.9a3.939,3.939,0,0,1,3.935-3.935H32.532V8H13.839a5.909,5.909,0,0,0-5.9,5.9v9.839H6.494a2.494,2.494,0,0,0-2.075,3.877Z" transform="translate(-0.048 -0.113)" fill="#97181a"/>
      <path id="Trazado_15069" data-name="Trazado 15069" d="M35,8h1.968V9.968H35Z" transform="translate(-0.548 -0.113)" fill="#97181a"/>
    </g>
  </g>
</svg>
