<svg xmlns="http://www.w3.org/2000/svg" width="68.848" height="74.897" viewBox="0 0 68.848 74.897">
  <g id="Grupo_18078" data-name="Grupo 18078" transform="translate(-235 -11584)">
    <circle id="Elipse_797" data-name="Elipse 797" cx="30.5" cy="30.5" r="30.5" transform="translate(235 11584)" fill="#efd6d0"/>
    <g id="online-marketing" transform="translate(229 11565.935)">
      <path id="Trazado_17183" data-name="Trazado 17183" d="M20.9,83.155H36.381L34.654,91.79a.981.981,0,0,0,.962,1.173H55.232a.981.981,0,0,0,.962-1.173l-1.727-8.635H69.944a4.909,4.909,0,0,0,4.9-4.9V44.9a4.909,4.909,0,0,0-4.9-4.9H20.9A4.909,4.909,0,0,0,16,44.9V78.251a4.909,4.909,0,0,0,4.9,4.9ZM36.812,91l1.569-7.846H52.466L54.035,91ZM17.962,44.9A2.946,2.946,0,0,1,20.9,41.962h49.04A2.946,2.946,0,0,1,72.886,44.9V73.347H17.962Zm0,30.4H72.886v2.942a2.946,2.946,0,0,1-2.942,2.942H20.9a2.946,2.946,0,0,1-2.942-2.942Z" fill="#97181a"/>
      <path id="Trazado_17184" data-name="Trazado 17184" d="M62.763,137.339a9.808,9.808,0,1,0,4.8,9.782A9.808,9.808,0,0,0,62.763,137.339ZM50.945,149.55a7.842,7.842,0,0,1,10.835-10.513c.1.06.2.123.3.186a.966.966,0,0,0-.086.09L57.174,145.1Zm13.689.21a7.846,7.846,0,0,1-12.551,1.388l5.966-4.261,7.112,1.778a7.87,7.87,0,0,1-.526,1.1Zm1-3L59.6,145.254l3.9-4.684a.971.971,0,0,0,.074-.1,7.884,7.884,0,0,1,2.057,6.293Z" transform="translate(-28.116 -84.249)" fill="#97181a"/>
      <path id="Trazado_17185" data-name="Trazado 17185" d="M280.52,159.846v-6.866a.981.981,0,0,0-.981-.981h-3.923a.981.981,0,0,0-.981.981v6.866h-1.962v-4.9a.981.981,0,0,0-.981-.981H267.77a.981.981,0,0,0-.981.981v4.9h-1.962V156.9a.981.981,0,0,0-.981-.981h-3.923a.981.981,0,0,0-.981.981v2.942h-1.962a.981.981,0,0,0,0,1.962H280.52a.981.981,0,1,0,0-1.962Zm-17.654,0H260.9v-1.962h1.962Zm7.846,0H268.75v-3.923h1.962Zm7.846,0H276.6v-5.885h1.962Z" transform="translate(-210.576 -98.269)" fill="#97181a"/>
      <path id="Trazado_17186" data-name="Trazado 17186" d="M257.981,249.962h10.666a.981.981,0,1,0,0-1.962H257.981a.981.981,0,1,0,0,1.962Z" transform="translate(-211.454 -182.499)" fill="#97181a"/>
      <path id="Trazado_17187" data-name="Trazado 17187" d="M274.532,280H257.981a.981.981,0,0,0,0,1.962h16.551a.981.981,0,0,0,0-1.962Z" transform="translate(-211.454 -210.576)" fill="#97181a"/>
      <path id="Trazado_17188" data-name="Trazado 17188" d="M426.942,248h-1.962a.981.981,0,0,0,0,1.962h1.962a.981.981,0,1,0,0-1.962Z" transform="translate(-357.98 -182.499)" fill="#97181a"/>
      <path id="Trazado_17189" data-name="Trazado 17189" d="M224.981,88a.981.981,0,0,0-.981.981V112.52a.981.981,0,0,0,1.962,0V88.981A.981.981,0,0,0,224.981,88Z" transform="translate(-182.499 -42.115)" fill="#97181a"/>
      <path id="Trazado_17190" data-name="Trazado 17190" d="M426.942,280h-1.962a.981.981,0,0,0,0,1.962h1.962a.981.981,0,0,0,0-1.962Z" transform="translate(-357.98 -210.576)" fill="#97181a"/>
      <circle id="Elipse_831" data-name="Elipse 831" cx="0.5" cy="0.5" r="0.5" transform="translate(20 44.066)" fill="#97181a"/>
      <ellipse id="Elipse_832" data-name="Elipse 832" cx="1" cy="0.5" rx="1" ry="0.5" transform="translate(24 44.066)" fill="#97181a"/>
      <ellipse id="Elipse_833" data-name="Elipse 833" cx="1" cy="0.5" rx="1" ry="0.5" transform="translate(28 44.066)" fill="#97181a"/>
      <path id="Trazado_17191" data-name="Trazado 17191" d="M48.981,105.962H52.9a.981.981,0,0,0,0-1.962H48.981a.981.981,0,0,0,0,1.962Z" transform="translate(-28.077 -56.154)" fill="#97181a"/>
      <path id="Trazado_17192" data-name="Trazado 17192" d="M112.981,105.962H116.9a.981.981,0,0,0,0-1.962h-3.923a.981.981,0,0,0,0,1.962Z" transform="translate(-84.23 -56.154)" fill="#97181a"/>
      <path id="Trazado_17193" data-name="Trazado 17193" d="M272.98,97.806a.977.977,0,0,0,.405-.088l9.4-4.273v1.419a.981.981,0,0,0,1.387.893l8.741-3.973-.27.809a.981.981,0,0,0,1.861.62l.981-2.942h0a.973.973,0,0,0-.618-1.24l-2.942-.981a.981.981,0,1,0-.62,1.861l.573.191-7.128,3.24V91.921a.981.981,0,0,0-1.387-.893l-10.789,4.9a.981.981,0,0,0,.407,1.874Z" transform="translate(-224.613 -42.113)" fill="#97181a"/>
      <path id="Trazado_17194" data-name="Trazado 17194" d="M240.981,345.962h1.962a.981.981,0,0,0,0-1.962h-1.962a.981.981,0,0,0,0,1.962Z" transform="translate(-196.538 -266.73)" fill="#97181a"/>
    </g>
  </g>
</svg>
