<svg xmlns="http://www.w3.org/2000/svg" width="386" height="561.173" viewBox="0 0 386 561.173">
  <g id="Grupo_18066" data-name="Grupo 18066" transform="translate(337 3211)">
    <path id="Trazado_17222" data-name="Trazado 17222" d="M119.77,6.058h-5.08V10.1h4.43v1.424h-4.43V17h-1.608V4.625h6.688Zm7.638,2.3h1.521V17h-1.459l-.035-1.143a2.7,2.7,0,0,1-1.072.971,3.3,3.3,0,0,1-1.512.338,3.005,3.005,0,0,1-2.175-.782,2.918,2.918,0,0,1-.813-2.206V8.36h1.521v5.476a2.05,2.05,0,0,0,.532,1.547,1.882,1.882,0,0,0,1.358.51,2.067,2.067,0,0,0,1.534-.6,2.434,2.434,0,0,0,.6-1.767Zm12.173,4.148-.018.413h-6.75a3.053,3.053,0,0,0,.826,2.21,2.713,2.713,0,0,0,1.969.769,2.59,2.59,0,0,0,1.433-.413,2.68,2.68,0,0,0,.984-1.143l1.371.29a3.9,3.9,0,0,1-1.477,1.854,4.028,4.028,0,0,1-2.294.677,4.174,4.174,0,0,1-3.111-1.2,4.479,4.479,0,0,1-1.187-3.287A4.458,4.458,0,0,1,132.518,9.4a4.122,4.122,0,0,1,3.063-1.2,3.9,3.9,0,0,1,2.9,1.107A4.376,4.376,0,0,1,139.58,12.509Zm-4-3.146a2.694,2.694,0,0,0-1.8.611,2.8,2.8,0,0,0-.91,1.78h5.177a2.567,2.567,0,0,0-.756-1.78A2.441,2.441,0,0,0,135.581,9.362ZM146.04,8.193a3.005,3.005,0,0,1,2.175.782,2.918,2.918,0,0,1,.813,2.206V17h-1.521V11.524a2.043,2.043,0,0,0-.527-1.547,1.885,1.885,0,0,0-1.354-.5,2.09,2.09,0,0,0-1.538.593,2.407,2.407,0,0,0-.606,1.762V17h-1.521V8.36h1.521V9.468A2.885,2.885,0,0,1,146.04,8.193ZM154.724,17a2.271,2.271,0,0,1-1.687-.62,2.344,2.344,0,0,1-.615-1.727V9.573h-1.767V8.36h.65a1.249,1.249,0,0,0,.954-.3,1.492,1.492,0,0,0,.277-1.015V5.478h1.415V8.36h1.986V9.573H153.95V14.5a1.31,1.31,0,0,0,.33.954,1.154,1.154,0,0,0,.866.338h.791V17Zm10.863-4.491-.018.413h-6.75a3.053,3.053,0,0,0,.826,2.21,2.713,2.713,0,0,0,1.969.769,2.59,2.59,0,0,0,1.433-.413,2.68,2.68,0,0,0,.984-1.143l1.371.29a3.9,3.9,0,0,1-1.477,1.854,4.028,4.028,0,0,1-2.294.677,4.174,4.174,0,0,1-3.111-1.2,4.479,4.479,0,0,1-1.187-3.287A4.458,4.458,0,0,1,158.525,9.4a4.122,4.122,0,0,1,3.063-1.2,3.9,3.9,0,0,1,2.9,1.107A4.376,4.376,0,0,1,165.587,12.509Zm-4-3.146a2.694,2.694,0,0,0-1.8.611,2.8,2.8,0,0,0-.91,1.78h5.177a2.567,2.567,0,0,0-.756-1.78A2.441,2.441,0,0,0,161.588,9.362Zm7.62,1.7a.987.987,0,0,1-.716-.3,1.022,1.022,0,0,1,.716-1.74.989.989,0,0,1,.725.3,1,1,0,0,1,0,1.437A1,1,0,0,1,169.208,11.059Zm0,6.117a.987.987,0,0,1-.716-.3,1.022,1.022,0,0,1,.716-1.74.989.989,0,0,1,.725.3,1,1,0,0,1,0,1.437A1,1,0,0,1,169.208,17.176ZM183.332,4.625a3.664,3.664,0,0,1,1.938.514,3.473,3.473,0,0,1,1.3,1.375,4.036,4.036,0,0,1,.453,1.907A3.755,3.755,0,0,1,186,11.116a3.514,3.514,0,0,1-2.667,1.077h-3.111V17h-1.573V4.625Zm-.229,6.2a2.25,2.25,0,0,0,1.723-.664A2.455,2.455,0,0,0,185.45,8.4a2.463,2.463,0,0,0-.624-1.745,2.234,2.234,0,0,0-1.723-.672h-2.883v4.834Zm7.77-.94a2.612,2.612,0,0,1,1.072-1.16,3.229,3.229,0,0,1,1.661-.457V9.7a2.846,2.846,0,0,0-2.008.642,2.68,2.68,0,0,0-.69,2.048V17h-1.521V8.36h1.485Zm5.291-3.551A1.035,1.035,0,0,1,195.136,5.3a.975.975,0,0,1,.3-.721,1,1,0,0,1,.725-.3.987.987,0,0,1,.716.3.975.975,0,0,1,.3.721.989.989,0,0,1-.3.725A.979.979,0,0,1,196.164,6.33ZM195.391,17V8.36h1.529V17Zm12.182-4.491-.018.413H200.8a3.053,3.053,0,0,0,.826,2.21,2.713,2.713,0,0,0,1.969.769,2.59,2.59,0,0,0,1.433-.413,2.68,2.68,0,0,0,.984-1.143l1.371.29a3.9,3.9,0,0,1-1.477,1.854,4.028,4.028,0,0,1-2.294.677,4.174,4.174,0,0,1-3.111-1.2,4.479,4.479,0,0,1-1.187-3.287A4.458,4.458,0,0,1,200.51,9.4a4.122,4.122,0,0,1,3.063-1.2,3.9,3.9,0,0,1,2.9,1.107A4.376,4.376,0,0,1,207.572,12.509Zm-4-3.146a2.694,2.694,0,0,0-1.8.611,2.8,2.8,0,0,0-.91,1.78h5.177a2.567,2.567,0,0,0-.756-1.78A2.441,2.441,0,0,0,203.573,9.362ZM212.714,17a2.271,2.271,0,0,1-1.687-.62,2.344,2.344,0,0,1-.615-1.727V9.573h-1.767V8.36h.65a1.249,1.249,0,0,0,.954-.3,1.492,1.492,0,0,0,.277-1.015V5.478h1.415V8.36h1.986V9.573H211.94V14.5a1.31,1.31,0,0,0,.33.954,1.154,1.154,0,0,0,.866.338h.791V17Zm6.943.167a4.554,4.554,0,0,1-2.215-.536,3.9,3.9,0,0,1-1.56-1.569,4.819,4.819,0,0,1-.576-2.386,4.4,4.4,0,0,1,1.226-3.256,4.6,4.6,0,0,1,6.253,0,4.41,4.41,0,0,1,1.222,3.256,4.413,4.413,0,0,1-1.226,3.265A4.232,4.232,0,0,1,219.657,17.167Zm-.009-1.266a2.654,2.654,0,0,0,2.043-.888,3.326,3.326,0,0,0,.813-2.338,3.314,3.314,0,0,0-.813-2.329,2.654,2.654,0,0,0-2.043-.888,2.617,2.617,0,0,0-2.026.888,3.336,3.336,0,0,0-.8,2.329,3.348,3.348,0,0,0,.8,2.338A2.617,2.617,0,0,0,219.648,15.9Zm7.031,4.271h-1.107l1.072-5.449h1.591Zm10.714-4.57h6.161V17h-8.35V15.849l4.957-5.124a5.872,5.872,0,0,0,1.116-1.468,2.928,2.928,0,0,0,.308-1.274,2.136,2.136,0,0,0-.624-1.639,2.548,2.548,0,0,0-3.309.053,2.741,2.741,0,0,0-.628,1.991V9.3L235.5,9.16V8.4a3.912,3.912,0,0,1,1.046-2.94,4.33,4.33,0,0,1,5.48-.075,3.27,3.27,0,0,1,1.05,2.566,3.892,3.892,0,0,1-.417,1.789,7.689,7.689,0,0,1-1.34,1.78Zm12.138,1.564a3.447,3.447,0,0,1-3.05-1.617,8.623,8.623,0,0,1-1.072-4.746,8.662,8.662,0,0,1,1.059-4.737,3.705,3.705,0,0,1,6.113,0,8.637,8.637,0,0,1,1.063,4.733,8.6,8.6,0,0,1-1.077,4.742A3.44,3.44,0,0,1,249.531,17.167Zm0-1.406a2.093,2.093,0,0,0,1.925-1.239,8.08,8.08,0,0,0,.668-3.718,7.851,7.851,0,0,0-.681-3.713,2.115,2.115,0,0,0-3.828,0,7.891,7.891,0,0,0-.677,3.718,8.122,8.122,0,0,0,.664,3.722A2.091,2.091,0,0,0,249.531,15.761ZM259.753,4.625h1.424V17h-1.5V6.286L256.7,8.861V7.235Zm9.958,12.542q-4.122,0-4.122-4.4l1.547-.079a3.864,3.864,0,0,0,.58,2.329,2.339,2.339,0,0,0,2,.773,2.742,2.742,0,0,0,1.92-.668,2.254,2.254,0,0,0,.734-1.749,2.232,2.232,0,0,0-.708-1.74,2.537,2.537,0,0,0-1.771-.642h-.615V9.7h.6a1.831,1.831,0,0,0,1.354-.571,1.927,1.927,0,0,0,.563-1.406,1.733,1.733,0,0,0-.6-1.362,2.188,2.188,0,0,0-1.5-.527,2.392,2.392,0,0,0-.989.185,1.388,1.388,0,0,0-.628.541,2.548,2.548,0,0,0-.316.787,4.611,4.611,0,0,0-.1,1l-1.547-.053a4.007,4.007,0,0,1,.927-2.839,3.436,3.436,0,0,1,2.641-.993,3.669,3.669,0,0,1,2.536.905,2.893,2.893,0,0,1,1.015,2.25,2.71,2.71,0,0,1-.492,1.608,2.812,2.812,0,0,1-1.239,1,3.421,3.421,0,0,1,1.74,1.134,3.179,3.179,0,0,1,.677,2.083,3.4,3.4,0,0,1-1.182,2.7A4.434,4.434,0,0,1,269.711,17.167Z" transform="translate(-337 -2670)" fill="#00223d"/>
    <path id="Trazado_17223" data-name="Trazado 17223" d="M32,0H354a32,32,0,0,1,0,64H32A32,32,0,0,1,32,0Z" transform="translate(-337 -3200)" fill="#e6eef3"/>
    <path id="Trazado_17224" data-name="Trazado 17224" d="M32,0H354a32,32,0,0,1,0,64H32A32,32,0,0,1,32,0Z" transform="translate(-337 -3211)" fill="#d64626"/>
    <path id="Trazado_17225" data-name="Trazado 17225" d="M12.456,17l-2.9-4.14A4.028,4.028,0,0,0,12.24,8.882c0-2.79-2.052-4.482-5.364-4.482H1.692V17h2.34V13.328H6.876a4.386,4.386,0,0,0,.486-.018L9.936,17ZM9.882,8.882c0,1.584-1.062,2.52-3.114,2.52H4.032V6.38H6.768C8.82,6.38,9.882,7.3,9.882,8.882ZM23.67,12.248A4.687,4.687,0,0,0,18.81,7.28a4.78,4.78,0,0,0-4.968,4.914c0,2.862,2.088,4.932,5.31,4.932a4.872,4.872,0,0,0,3.87-1.566l-1.206-1.386a3.445,3.445,0,0,1-2.61,1.044,2.909,2.909,0,0,1-3.114-2.3h7.542C23.652,12.7,23.67,12.428,23.67,12.248ZM18.81,9.08a2.617,2.617,0,0,1,2.718,2.34H16.074A2.657,2.657,0,0,1,18.81,9.08Zm9.99,8.046c2.7,0,4.356-1.17,4.356-2.97,0-3.762-5.94-2.034-5.94-3.978,0-.63.648-1.08,2.016-1.08a5.261,5.261,0,0,1,2.754.72l.864-1.71a7.65,7.65,0,0,0-3.6-.828c-2.592,0-4.23,1.188-4.23,3.006,0,3.834,5.94,2.106,5.94,3.942,0,.666-.594,1.062-2.016,1.062a6.467,6.467,0,0,1-3.348-.954l-.864,1.71A7.637,7.637,0,0,0,28.8,17.126ZM42.156,7.388v4.86c0,1.926-1.062,2.9-2.628,2.9-1.422,0-2.25-.828-2.25-2.574V7.388h-2.25v5.49c0,2.9,1.674,4.248,4.14,4.248a3.927,3.927,0,0,0,3.1-1.35V17h2.142V7.388ZM59.49,7.28a4.486,4.486,0,0,0-3.6,1.6,3.6,3.6,0,0,0-3.24-1.6A3.981,3.981,0,0,0,49.5,8.612V7.388H47.358V17h2.25V12.122c0-1.908,1.008-2.88,2.5-2.88,1.368,0,2.16.828,2.16,2.538V17h2.25V12.122c0-1.908,1.026-2.88,2.5-2.88,1.368,0,2.16.828,2.16,2.538V17h2.25V11.492C63.432,8.594,61.812,7.28,59.49,7.28Zm15.948,4.968a4.687,4.687,0,0,0-4.86-4.968,4.78,4.78,0,0,0-4.968,4.914c0,2.862,2.088,4.932,5.31,4.932a4.872,4.872,0,0,0,3.87-1.566l-1.206-1.386a3.445,3.445,0,0,1-2.61,1.044,2.909,2.909,0,0,1-3.114-2.3H75.4C75.42,12.7,75.438,12.428,75.438,12.248ZM70.578,9.08A2.617,2.617,0,0,1,73.3,11.42H67.842A2.657,2.657,0,0,1,70.578,9.08Zm12.474-1.8A4.179,4.179,0,0,0,79.74,8.63V7.388H77.6V17h2.25V12.14c0-1.926,1.08-2.9,2.682-2.9,1.44,0,2.286.828,2.286,2.538V17h2.25V11.492C87.066,8.594,85.356,7.28,83.052,7.28Zm20.88,4.968a4.687,4.687,0,0,0-4.86-4.968A4.78,4.78,0,0,0,94.1,12.194c0,2.862,2.088,4.932,5.31,4.932a4.872,4.872,0,0,0,3.87-1.566l-1.206-1.386a3.445,3.445,0,0,1-2.61,1.044,2.909,2.909,0,0,1-3.114-2.3H103.9C103.914,12.7,103.932,12.428,103.932,12.248ZM99.072,9.08a2.617,2.617,0,0,1,2.718,2.34H96.336A2.657,2.657,0,0,1,99.072,9.08ZM107.316,5.8a1.381,1.381,0,0,0,1.44-1.4,1.34,1.34,0,0,0-1.44-1.3,1.353,1.353,0,1,0,0,2.7ZM105.1,20.618a3.119,3.119,0,0,0,3.348-3.438V7.388H106.2v9.846c0,1.026-.468,1.53-1.3,1.53a2.221,2.221,0,0,1-1.314-.378l-.648,1.674A3.678,3.678,0,0,0,105.1,20.618Zm15.336-8.37a4.687,4.687,0,0,0-4.86-4.968,4.78,4.78,0,0,0-4.968,4.914c0,2.862,2.088,4.932,5.31,4.932a4.872,4.872,0,0,0,3.87-1.566l-1.206-1.386a3.445,3.445,0,0,1-2.61,1.044,2.909,2.909,0,0,1-3.114-2.3H120.4C120.42,12.7,120.438,12.428,120.438,12.248Zm-4.86-3.168a2.617,2.617,0,0,1,2.718,2.34h-5.454A2.657,2.657,0,0,1,115.578,9.08Zm11.43,8.046a4.37,4.37,0,0,0,4.1-2.25l-1.728-1.008A2.72,2.72,0,0,1,126.99,15.2a2.811,2.811,0,0,1-2.916-3.006,2.821,2.821,0,0,1,2.916-3.006,2.72,2.72,0,0,1,2.394,1.332l1.728-1.008a4.325,4.325,0,0,0-4.1-2.232,4.864,4.864,0,0,0-5.2,4.914A4.878,4.878,0,0,0,127.008,17.126Zm13.1-9.738v4.86c0,1.926-1.062,2.9-2.628,2.9-1.422,0-2.25-.828-2.25-2.574V7.388h-2.25v5.49c0,2.9,1.674,4.248,4.14,4.248a3.927,3.927,0,0,0,3.1-1.35V17h2.142V7.388Zm10.35,7.488a2.023,2.023,0,0,1-1.26.4c-.864,0-1.332-.5-1.332-1.44V9.26h2.574V7.46H147.87v-2.2h-2.25v2.2h-1.584v1.8h1.584v4.626c0,2.124,1.206,3.24,3.312,3.24a3.535,3.535,0,0,0,2.16-.648ZM154.08,5.8a1.381,1.381,0,0,0,1.44-1.4,1.34,1.34,0,0,0-1.44-1.3,1.353,1.353,0,1,0,0,2.7ZM152.946,17h2.25V7.388h-2.25Zm12.042-9.612-3.078,7.128-2.988-7.128h-2.34L160.7,17h2.322l4.122-9.612Zm7.614,9.738a4.847,4.847,0,0,0,5.13-4.932,5.125,5.125,0,0,0-10.242,0A4.852,4.852,0,0,0,172.6,17.126Zm0-1.926a2.8,2.8,0,0,1-2.844-3.006,2.857,2.857,0,1,1,5.706,0A2.8,2.8,0,0,1,172.6,15.2Z" transform="translate(-266 -3189)" fill="#fff"/>
    <path id="Trazado_17226" data-name="Trazado 17226" d="M22,0A22,22,0,1,1,0,22,22,22,0,0,1,22,0Z" transform="translate(-326 -3200)" fill="#fff"/>
    <g id="Grupo_11305" data-name="Grupo 11305" transform="translate(-306.383 -3188)">
      <path id="Trazado_10732" data-name="Trazado 10732" d="M419.032,411.973h0a1.89,1.89,0,0,1,0-2.672l4.789-4.789a2.551,2.551,0,0,0,0-3.607l-4.79-4.79a1.889,1.889,0,0,1,0-2.671h0a1.889,1.889,0,0,1,2.672,0l8.113,8.112a1.631,1.631,0,0,1,0,2.3l-8.112,8.112a1.89,1.89,0,0,1-2.672,0Z" transform="translate(-418.479 -392.89)" fill="#ff8f00"/>
    </g>
    <g id="Grupo_11306" data-name="Grupo 11306" transform="translate(-313 -3184.244)">
      <path id="Trazado_10733" data-name="Trazado 10733" d="M406.589,411.523h0a1.89,1.89,0,0,1,0-2.672l1.542-1.541a1.831,1.831,0,0,0,0-2.589l-1.542-1.541a1.89,1.89,0,0,1,0-2.672h0a1.888,1.888,0,0,1,2.672,0l4.355,4.355a1.63,1.63,0,0,1,0,2.305l-4.355,4.355A1.89,1.89,0,0,1,406.589,411.523Z" transform="translate(-406.036 -399.954)" fill="#ff8f00"/>
    </g>
    <path id="Trazado_17227" data-name="Trazado 17227" d="M32,0H354a32,32,0,0,1,0,64H32A32,32,0,0,1,32,0Z" transform="translate(-337 -3112)" fill="#e6eef3"/>
    <path id="Trazado_17228" data-name="Trazado 17228" d="M32,0H354a32,32,0,0,1,0,64H32A32,32,0,0,1,32,0Z" transform="translate(-337 -3123)" fill="#d64626"/>
    <path id="Trazado_17229" data-name="Trazado 17229" d="M22,0A22,22,0,1,1,0,22,22,22,0,0,1,22,0Z" transform="translate(-326 -3112)" fill="#fff"/>
    <g id="Grupo_11307" data-name="Grupo 11307" transform="translate(-719.036 -3492.891)">
      <g id="Grupo_11305-2" data-name="Grupo 11305" transform="translate(412.653 392.89)">
        <path id="Trazado_10732-2" data-name="Trazado 10732" d="M419.032,411.973h0a1.89,1.89,0,0,1,0-2.672l4.789-4.789a2.551,2.551,0,0,0,0-3.607l-4.79-4.79a1.889,1.889,0,0,1,0-2.671h0a1.889,1.889,0,0,1,2.672,0l8.113,8.112a1.631,1.631,0,0,1,0,2.3l-8.112,8.112a1.89,1.89,0,0,1-2.672,0Z" transform="translate(-418.479 -392.89)" fill="#ff8f00"/>
      </g>
      <g id="Grupo_11306-2" data-name="Grupo 11306" transform="translate(406.036 396.647)">
        <path id="Trazado_10733-2" data-name="Trazado 10733" d="M406.589,411.523h0a1.89,1.89,0,0,1,0-2.672l1.542-1.541a1.831,1.831,0,0,0,0-2.589l-1.542-1.541a1.89,1.89,0,0,1,0-2.672h0a1.888,1.888,0,0,1,2.672,0l4.355,4.355a1.63,1.63,0,0,1,0,2.305l-4.355,4.355A1.89,1.89,0,0,1,406.589,411.523Z" transform="translate(-406.036 -399.954)" fill="#ff8f00"/>
      </g>
    </g>
    <path id="Trazado_17230" data-name="Trazado 17230" d="M11.124,17h2.448L7.884,4.4H5.58L-.09,17H2.322l1.242-2.916h6.3ZM4.356,12.248,6.714,6.74,9.09,12.248ZM20.412,7.28A4.179,4.179,0,0,0,17.1,8.63V7.388H14.958V17h2.25V12.14c0-1.926,1.08-2.9,2.682-2.9,1.44,0,2.286.828,2.286,2.538V17h2.25V11.492C24.426,8.594,22.716,7.28,20.412,7.28Zm14.31-3.672H32.076l-2.43,2.466H31.59ZM30.96,7.28a6.758,6.758,0,0,0-4.068,1.188l.882,1.638a4.759,4.759,0,0,1,2.916-.954c1.6,0,2.394.774,2.394,2.088v.144H30.6c-2.916,0-4,1.26-4,2.862,0,1.674,1.386,2.88,3.582,2.88a3.406,3.406,0,0,0,3.024-1.3V17h2.124V11.366C35.334,8.594,33.732,7.28,30.96,7.28Zm-.306,8.208c-1.152,0-1.836-.522-1.836-1.332,0-.7.414-1.278,1.944-1.278h2.322v1.116A2.45,2.45,0,0,1,30.654,15.488ZM38.214,17h2.25V3.644h-2.25ZM44.55,5.8a1.381,1.381,0,0,0,1.44-1.4,1.34,1.34,0,0,0-1.44-1.3,1.353,1.353,0,1,0,0,2.7ZM43.416,17h2.25V7.388h-2.25Zm8.172.126c2.7,0,4.356-1.17,4.356-2.97,0-3.762-5.94-2.034-5.94-3.978,0-.63.648-1.08,2.016-1.08a5.261,5.261,0,0,1,2.754.72l.864-1.71a7.65,7.65,0,0,0-3.6-.828c-2.592,0-4.23,1.188-4.23,3.006,0,3.834,5.94,2.106,5.94,3.942,0,.666-.594,1.062-2.016,1.062a6.467,6.467,0,0,1-3.348-.954l-.864,1.71A7.637,7.637,0,0,0,51.588,17.126ZM59.022,5.8a1.381,1.381,0,0,0,1.44-1.4,1.34,1.34,0,0,0-1.44-1.3,1.353,1.353,0,1,0,0,2.7ZM57.888,17h2.25V7.388h-2.25Zm8.172.126c2.7,0,4.356-1.17,4.356-2.97,0-3.762-5.94-2.034-5.94-3.978,0-.63.648-1.08,2.016-1.08a5.261,5.261,0,0,1,2.754.72l.864-1.71a7.65,7.65,0,0,0-3.6-.828c-2.592,0-4.23,1.188-4.23,3.006,0,3.834,5.94,2.106,5.94,3.942,0,.666-.594,1.062-2.016,1.062a6.467,6.467,0,0,1-3.348-.954l-.864,1.71A7.637,7.637,0,0,0,66.06,17.126ZM84.492,3.644V8.576a3.936,3.936,0,0,0-3.1-1.3,4.663,4.663,0,0,0-4.86,4.914,4.678,4.678,0,0,0,4.86,4.932,3.963,3.963,0,0,0,3.186-1.368V17h2.16V3.644ZM81.666,15.2A2.809,2.809,0,0,1,78.8,12.194a2.865,2.865,0,1,1,5.724,0A2.809,2.809,0,0,1,81.666,15.2ZM98.73,12.248A4.687,4.687,0,0,0,93.87,7.28,4.78,4.78,0,0,0,88.9,12.194c0,2.862,2.088,4.932,5.31,4.932a4.872,4.872,0,0,0,3.87-1.566l-1.206-1.386a3.445,3.445,0,0,1-2.61,1.044,2.909,2.909,0,0,1-3.114-2.3h7.542C98.712,12.7,98.73,12.428,98.73,12.248ZM93.87,9.08a2.617,2.617,0,0,1,2.718,2.34H91.134A2.657,2.657,0,0,1,93.87,9.08ZM105.858,17h2.25V3.644h-2.25Zm8.874-9.72a6.758,6.758,0,0,0-4.068,1.188l.882,1.638a4.759,4.759,0,0,1,2.916-.954c1.6,0,2.394.774,2.394,2.088v.144h-2.484c-2.916,0-4,1.26-4,2.862,0,1.674,1.386,2.88,3.582,2.88a3.406,3.406,0,0,0,3.024-1.3V17h2.124V11.366C119.106,8.594,117.5,7.28,114.732,7.28Zm-.306,8.208c-1.152,0-1.836-.522-1.836-1.332,0-.7.414-1.278,1.944-1.278h2.322v1.116A2.45,2.45,0,0,1,114.426,15.488Zm15.5,1.638c2.7,0,4.356-1.17,4.356-2.97,0-3.762-5.94-2.034-5.94-3.978,0-.63.648-1.08,2.016-1.08a5.261,5.261,0,0,1,2.754.72l.864-1.71a7.65,7.65,0,0,0-3.6-.828c-2.592,0-4.23,1.188-4.23,3.006,0,3.834,5.94,2.106,5.94,3.942,0,.666-.594,1.062-2.016,1.062a6.467,6.467,0,0,1-3.348-.954l-.864,1.71A7.637,7.637,0,0,0,129.924,17.126ZM137.358,5.8a1.381,1.381,0,0,0,1.44-1.4,1.34,1.34,0,0,0-1.44-1.3,1.353,1.353,0,1,0,0,2.7ZM136.224,17h2.25V7.388h-2.25Zm10.35-2.124a2.023,2.023,0,0,1-1.26.4c-.864,0-1.332-.5-1.332-1.44V9.26h2.574V7.46h-2.574v-2.2h-2.25v2.2h-1.584v1.8h1.584v4.626c0,2.124,1.206,3.24,3.312,3.24a3.535,3.535,0,0,0,2.16-.648Zm9.54-7.488v4.86c0,1.926-1.062,2.9-2.628,2.9-1.422,0-2.25-.828-2.25-2.574V7.388h-2.25v5.49c0,2.9,1.674,4.248,4.14,4.248a3.927,3.927,0,0,0,3.1-1.35V17h2.142V7.388Zm8.874-.108a6.758,6.758,0,0,0-4.068,1.188l.882,1.638a4.759,4.759,0,0,1,2.916-.954c1.6,0,2.394.774,2.394,2.088v.144h-2.484c-2.916,0-4,1.26-4,2.862,0,1.674,1.386,2.88,3.582,2.88a3.406,3.406,0,0,0,3.024-1.3V17h2.124V11.366C169.362,8.594,167.76,7.28,164.988,7.28Zm-.306,8.208c-1.152,0-1.836-.522-1.836-1.332,0-.7.414-1.278,1.944-1.278h2.322v1.116A2.45,2.45,0,0,1,164.682,15.488Zm12.06,1.638a4.37,4.37,0,0,0,4.1-2.25l-1.728-1.008a2.72,2.72,0,0,1-2.394,1.332,2.811,2.811,0,0,1-2.916-3.006,2.821,2.821,0,0,1,2.916-3.006,2.72,2.72,0,0,1,2.394,1.332l1.728-1.008a4.325,4.325,0,0,0-4.1-2.232,4.864,4.864,0,0,0-5.2,4.914A4.878,4.878,0,0,0,176.742,17.126ZM183.924,5.8a1.381,1.381,0,0,0,1.44-1.4,1.34,1.34,0,0,0-1.44-1.3,1.353,1.353,0,1,0,0,2.7ZM182.79,17h2.25V7.388h-2.25Zm7.992-10.926h1.944l3.132-2.466h-2.646Zm1.53,11.052a4.847,4.847,0,0,0,5.13-4.932,5.125,5.125,0,0,0-10.242,0A4.852,4.852,0,0,0,192.312,17.126Zm0-1.926a2.8,2.8,0,0,1-2.844-3.006,2.857,2.857,0,1,1,5.706,0A2.8,2.8,0,0,1,192.312,15.2Zm12.744-7.92a4.179,4.179,0,0,0-3.312,1.35V7.388H199.6V17h2.25V12.14c0-1.926,1.08-2.9,2.682-2.9,1.44,0,2.286.828,2.286,2.538V17h2.25V11.492C209.07,8.594,207.36,7.28,205.056,7.28Z" transform="translate(-266 -3102)" fill="#fff"/>
    <path id="Trazado_17231" data-name="Trazado 17231" d="M32,0H354a32,32,0,0,1,0,64H32A32,32,0,0,1,32,0Z" transform="translate(-337 -3024)" fill="#e6eef3"/>
    <path id="Trazado_17232" data-name="Trazado 17232" d="M32,0H354a32,32,0,0,1,0,64H32A32,32,0,0,1,32,0Z" transform="translate(-337 -3035)" fill="#d64626"/>
    <path id="Trazado_17233" data-name="Trazado 17233" d="M22,0A22,22,0,1,1,0,22,22,22,0,0,1,22,0Z" transform="translate(-326 -3024)" fill="#fff"/>
    <g id="Grupo_11307-2" data-name="Grupo 11307" transform="translate(-719.036 -3404.891)">
      <g id="Grupo_11305-3" data-name="Grupo 11305" transform="translate(412.653 392.89)">
        <path id="Trazado_10732-3" data-name="Trazado 10732" d="M419.032,411.973h0a1.89,1.89,0,0,1,0-2.672l4.789-4.789a2.551,2.551,0,0,0,0-3.607l-4.79-4.79a1.889,1.889,0,0,1,0-2.671h0a1.889,1.889,0,0,1,2.672,0l8.113,8.112a1.631,1.631,0,0,1,0,2.3l-8.112,8.112a1.89,1.89,0,0,1-2.672,0Z" transform="translate(-418.479 -392.89)" fill="#ff8f00"/>
      </g>
      <g id="Grupo_11306-3" data-name="Grupo 11306" transform="translate(406.036 396.647)">
        <path id="Trazado_10733-3" data-name="Trazado 10733" d="M406.589,411.523h0a1.89,1.89,0,0,1,0-2.672l1.542-1.541a1.831,1.831,0,0,0,0-2.589l-1.542-1.541a1.89,1.89,0,0,1,0-2.672h0a1.888,1.888,0,0,1,2.672,0l4.355,4.355a1.63,1.63,0,0,1,0,2.305l-4.355,4.355A1.89,1.89,0,0,1,406.589,411.523Z" transform="translate(-406.036 -399.954)" fill="#ff8f00"/>
      </g>
    </g>
    <path id="Trazado_17234" data-name="Trazado 17234" d="M7.578,17.18a6.487,6.487,0,1,0,0-12.96,6.487,6.487,0,1,0,0,12.96Zm0-2.052A4.294,4.294,0,0,1,3.15,10.7,4.294,4.294,0,0,1,7.578,6.272,4.294,4.294,0,0,1,12.006,10.7,4.294,4.294,0,0,1,7.578,15.128ZM21.96,7.28a4,4,0,0,0-3.078,1.278V3.644h-2.25V17h2.142V15.758a3.963,3.963,0,0,0,3.186,1.368,4.682,4.682,0,0,0,4.878-4.932A4.667,4.667,0,0,0,21.96,7.28Zm-.252,7.92a2.809,2.809,0,0,1-2.862-3.006,2.857,2.857,0,1,1,5.706,0A2.8,2.8,0,0,1,21.708,15.2Zm8.5-9.4a1.381,1.381,0,0,0,1.44-1.4A1.34,1.34,0,0,0,30.2,3.1a1.353,1.353,0,1,0,0,2.7ZM27.99,20.618a3.119,3.119,0,0,0,3.348-3.438V7.388h-2.25v9.846c0,1.026-.468,1.53-1.3,1.53a2.221,2.221,0,0,1-1.314-.378L25.83,20.06A3.678,3.678,0,0,0,27.99,20.618Zm15.336-8.37a4.687,4.687,0,0,0-4.86-4.968A4.78,4.78,0,0,0,33.5,12.194c0,2.862,2.088,4.932,5.31,4.932a4.872,4.872,0,0,0,3.87-1.566l-1.206-1.386a3.445,3.445,0,0,1-2.61,1.044,2.909,2.909,0,0,1-3.114-2.3H43.29C43.308,12.7,43.326,12.428,43.326,12.248ZM38.466,9.08a2.617,2.617,0,0,1,2.718,2.34H35.73A2.657,2.657,0,0,1,38.466,9.08Zm12.168,5.8a2.023,2.023,0,0,1-1.26.4c-.864,0-1.332-.5-1.332-1.44V9.26h2.574V7.46H48.042v-2.2h-2.25v2.2H44.208v1.8h1.584v4.626c0,2.124,1.206,3.24,3.312,3.24a3.536,3.536,0,0,0,2.16-.648ZM54.252,5.8a1.381,1.381,0,0,0,1.44-1.4,1.34,1.34,0,0,0-1.44-1.3,1.353,1.353,0,1,0,0,2.7ZM53.118,17h2.25V7.388h-2.25ZM65.16,7.388l-3.078,7.128L59.094,7.388h-2.34L60.876,17H63.2L67.32,7.388Zm7.614,9.738a4.847,4.847,0,0,0,5.13-4.932,5.125,5.125,0,0,0-10.242,0A4.852,4.852,0,0,0,72.774,17.126Zm0-1.926a2.8,2.8,0,0,1-2.844-3.006,2.857,2.857,0,1,1,5.706,0A2.8,2.8,0,0,1,72.774,15.2Zm10.26,1.926c2.7,0,4.356-1.17,4.356-2.97,0-3.762-5.94-2.034-5.94-3.978,0-.63.648-1.08,2.016-1.08a5.261,5.261,0,0,1,2.754.72l.864-1.71a7.65,7.65,0,0,0-3.6-.828c-2.592,0-4.23,1.188-4.23,3.006,0,3.834,5.94,2.106,5.94,3.942,0,.666-.594,1.062-2.016,1.062a6.467,6.467,0,0,1-3.348-.954l-.864,1.71A7.637,7.637,0,0,0,83.034,17.126Z" transform="translate(-266 -3012)" fill="#fff"/>
    <path id="Trazado_17235" data-name="Trazado 17235" d="M32,0H354a32,32,0,0,1,0,64H32A32,32,0,0,1,32,0Z" transform="translate(-337 -2935)" fill="#e6eef3"/>
    <path id="Trazado_17236" data-name="Trazado 17236" d="M32,0H354a32,32,0,0,1,0,64H32A32,32,0,0,1,32,0Z" transform="translate(-337 -2946)" fill="#d64626"/>
    <path id="Trazado_17237" data-name="Trazado 17237" d="M22,0A22,22,0,1,1,0,22,22,22,0,0,1,22,0Z" transform="translate(-326 -2935)" fill="#fff"/>
    <g id="Grupo_11307-3" data-name="Grupo 11307" transform="translate(-719.036 -3315.891)">
      <g id="Grupo_11305-4" data-name="Grupo 11305" transform="translate(412.653 392.89)">
        <path id="Trazado_10732-4" data-name="Trazado 10732" d="M419.032,411.973h0a1.89,1.89,0,0,1,0-2.672l4.789-4.789a2.551,2.551,0,0,0,0-3.607l-4.79-4.79a1.889,1.889,0,0,1,0-2.671h0a1.889,1.889,0,0,1,2.672,0l8.113,8.112a1.631,1.631,0,0,1,0,2.3l-8.112,8.112a1.89,1.89,0,0,1-2.672,0Z" transform="translate(-418.479 -392.89)" fill="#ff8f00"/>
      </g>
      <g id="Grupo_11306-4" data-name="Grupo 11306" transform="translate(406.036 396.647)">
        <path id="Trazado_10733-4" data-name="Trazado 10733" d="M406.589,411.523h0a1.89,1.89,0,0,1,0-2.672l1.542-1.541a1.831,1.831,0,0,0,0-2.589l-1.542-1.541a1.89,1.89,0,0,1,0-2.672h0a1.888,1.888,0,0,1,2.672,0l4.355,4.355a1.63,1.63,0,0,1,0,2.305l-4.355,4.355A1.89,1.89,0,0,1,406.589,411.523Z" transform="translate(-406.036 -399.954)" fill="#ff8f00"/>
      </g>
    </g>
    <path id="Trazado_17238" data-name="Trazado 17238" d="M4.032,15.038V11.564h6.084V9.638H4.032V6.362H10.89V4.4h-9.2V17h9.45V15.038Zm12.384,2.088c2.7,0,4.356-1.17,4.356-2.97,0-3.762-5.94-2.034-5.94-3.978,0-.63.648-1.08,2.016-1.08a5.261,5.261,0,0,1,2.754.72l.864-1.71a7.65,7.65,0,0,0-3.6-.828c-2.592,0-4.23,1.188-4.23,3.006,0,3.834,5.94,2.106,5.94,3.942,0,.666-.594,1.062-2.016,1.062a6.467,6.467,0,0,1-3.348-.954l-.864,1.71A7.637,7.637,0,0,0,16.416,17.126Zm11.448-2.25a2.023,2.023,0,0,1-1.26.4c-.864,0-1.332-.5-1.332-1.44V9.26h2.574V7.46H25.272v-2.2h-2.25v2.2H21.438v1.8h1.584v4.626c0,2.124,1.206,3.24,3.312,3.24a3.536,3.536,0,0,0,2.16-.648ZM32.49,8.792v-1.4H30.348V17H32.6V12.338c0-1.962,1.08-2.97,2.79-2.97a2.856,2.856,0,0,1,.522.054V7.28A3.782,3.782,0,0,0,32.49,8.792ZM41.436,7.28a6.758,6.758,0,0,0-4.068,1.188l.882,1.638a4.759,4.759,0,0,1,2.916-.954c1.6,0,2.394.774,2.394,2.088v.144H41.076c-2.916,0-4,1.26-4,2.862,0,1.674,1.386,2.88,3.582,2.88a3.406,3.406,0,0,0,3.024-1.3V17H45.81V11.366C45.81,8.594,44.208,7.28,41.436,7.28Zm-.306,8.208c-1.152,0-1.836-.522-1.836-1.332,0-.7.414-1.278,1.944-1.278H43.56v1.116A2.45,2.45,0,0,1,41.13,15.488Zm12.708-.612a2.023,2.023,0,0,1-1.26.4c-.864,0-1.332-.5-1.332-1.44V9.26H53.82V7.46H51.246v-2.2H49v2.2H47.412v1.8H49v4.626c0,2.124,1.206,3.24,3.312,3.24a3.536,3.536,0,0,0,2.16-.648Zm11.2-2.628a4.687,4.687,0,0,0-4.86-4.968,4.78,4.78,0,0,0-4.968,4.914c0,2.862,2.088,4.932,5.31,4.932a4.872,4.872,0,0,0,3.87-1.566L63.18,14.174a3.445,3.445,0,0,1-2.61,1.044,2.909,2.909,0,0,1-3.114-2.3H65C65.016,12.7,65.034,12.428,65.034,12.248ZM60.174,9.08a2.617,2.617,0,0,1,2.718,2.34H57.438A2.657,2.657,0,0,1,60.174,9.08ZM74.592,7.388V8.666a4.162,4.162,0,0,0-3.33-1.386,4.563,4.563,0,0,0-4.86,4.626,4.592,4.592,0,0,0,4.86,4.662,4.231,4.231,0,0,0,3.222-1.278v.5c0,1.944-.936,2.916-3.06,2.916a5.806,5.806,0,0,1-3.546-1.152L66.87,19.25a7.64,7.64,0,0,0,4.68,1.368c3.366,0,5.184-1.584,5.184-5.076V7.388ZM71.6,14.66a2.742,2.742,0,1,1,2.916-2.754A2.725,2.725,0,0,1,71.6,14.66ZM80.82,5.8a1.381,1.381,0,0,0,1.44-1.4,1.34,1.34,0,0,0-1.44-1.3,1.353,1.353,0,1,0,0,2.7ZM79.686,17h2.25V7.388h-2.25ZM88.56,7.28a6.758,6.758,0,0,0-4.068,1.188l.882,1.638a4.759,4.759,0,0,1,2.916-.954c1.6,0,2.394.774,2.394,2.088v.144H88.2c-2.916,0-4,1.26-4,2.862,0,1.674,1.386,2.88,3.582,2.88a3.406,3.406,0,0,0,3.024-1.3V17h2.124V11.366C92.934,8.594,91.332,7.28,88.56,7.28Zm-.306,8.208c-1.152,0-1.836-.522-1.836-1.332,0-.7.414-1.278,1.944-1.278h2.322v1.116A2.45,2.45,0,0,1,88.254,15.488Zm10.53,1.638c2.7,0,4.356-1.17,4.356-2.97,0-3.762-5.94-2.034-5.94-3.978,0-.63.648-1.08,2.016-1.08a5.261,5.261,0,0,1,2.754.72l.864-1.71a7.65,7.65,0,0,0-3.6-.828C96.642,7.28,95,8.468,95,10.286c0,3.834,5.94,2.106,5.94,3.942,0,.666-.594,1.062-2.016,1.062a6.467,6.467,0,0,1-3.348-.954l-.864,1.71A7.637,7.637,0,0,0,98.784,17.126ZM117.216,3.644V8.576a3.936,3.936,0,0,0-3.1-1.3,4.663,4.663,0,0,0-4.86,4.914,4.678,4.678,0,0,0,4.86,4.932,3.963,3.963,0,0,0,3.186-1.368V17h2.16V3.644ZM114.39,15.2a2.809,2.809,0,0,1-2.862-3.006,2.865,2.865,0,1,1,5.724,0A2.809,2.809,0,0,1,114.39,15.2Zm17.064-2.952a4.687,4.687,0,0,0-4.86-4.968,4.78,4.78,0,0,0-4.968,4.914c0,2.862,2.088,4.932,5.31,4.932a4.872,4.872,0,0,0,3.87-1.566L129.6,14.174a3.445,3.445,0,0,1-2.61,1.044,2.909,2.909,0,0,1-3.114-2.3h7.542C131.436,12.7,131.454,12.428,131.454,12.248Zm-4.86-3.168a2.617,2.617,0,0,1,2.718,2.34h-5.454A2.657,2.657,0,0,1,126.594,9.08Zm24.12-1.8a4.486,4.486,0,0,0-3.6,1.6,3.6,3.6,0,0,0-3.24-1.6,3.981,3.981,0,0,0-3.15,1.332V7.388h-2.142V17h2.25V12.122c0-1.908,1.008-2.88,2.5-2.88,1.368,0,2.16.828,2.16,2.538V17h2.25V12.122c0-1.908,1.026-2.88,2.5-2.88,1.368,0,2.16.828,2.16,2.538V17h2.25V11.492C154.656,8.594,153.036,7.28,150.714,7.28Zm15.948,4.968A4.687,4.687,0,0,0,161.8,7.28a4.78,4.78,0,0,0-4.968,4.914c0,2.862,2.088,4.932,5.31,4.932a4.872,4.872,0,0,0,3.87-1.566l-1.206-1.386a3.445,3.445,0,0,1-2.61,1.044,2.909,2.909,0,0,1-3.114-2.3h7.542C166.644,12.7,166.662,12.428,166.662,12.248ZM161.8,9.08a2.617,2.617,0,0,1,2.718,2.34h-5.454A2.657,2.657,0,0,1,161.8,9.08Zm9.162-.288v-1.4h-2.142V17h2.25V12.338c0-1.962,1.08-2.97,2.79-2.97a2.856,2.856,0,0,1,.522.054V7.28A3.782,3.782,0,0,0,170.964,8.792Zm9.648,8.334a4.37,4.37,0,0,0,4.1-2.25l-1.728-1.008a2.72,2.72,0,0,1-2.394,1.332,2.811,2.811,0,0,1-2.916-3.006,2.821,2.821,0,0,1,2.916-3.006,2.72,2.72,0,0,1,2.394,1.332l1.728-1.008a4.325,4.325,0,0,0-4.1-2.232,4.864,4.864,0,0,0-5.2,4.914A4.878,4.878,0,0,0,180.612,17.126Zm9.72-9.846a6.758,6.758,0,0,0-4.068,1.188l.882,1.638a4.759,4.759,0,0,1,2.916-.954c1.6,0,2.394.774,2.394,2.088v.144h-2.484c-2.916,0-4,1.26-4,2.862,0,1.674,1.386,2.88,3.582,2.88a3.406,3.406,0,0,0,3.024-1.3V17h2.124V11.366C194.706,8.594,193.1,7.28,190.332,7.28Zm-.306,8.208c-1.152,0-1.836-.522-1.836-1.332,0-.7.414-1.278,1.944-1.278h2.322v1.116A2.45,2.45,0,0,1,190.026,15.488ZM204.84,3.644V8.576a3.936,3.936,0,0,0-3.1-1.3,4.663,4.663,0,0,0-4.86,4.914,4.678,4.678,0,0,0,4.86,4.932,3.963,3.963,0,0,0,3.186-1.368V17h2.16V3.644ZM202.014,15.2a2.809,2.809,0,0,1-2.862-3.006,2.865,2.865,0,1,1,5.724,0A2.809,2.809,0,0,1,202.014,15.2Zm17.064-2.952a4.687,4.687,0,0,0-4.86-4.968,4.78,4.78,0,0,0-4.968,4.914c0,2.862,2.088,4.932,5.31,4.932a4.872,4.872,0,0,0,3.87-1.566l-1.206-1.386a3.445,3.445,0,0,1-2.61,1.044,2.909,2.909,0,0,1-3.114-2.3h7.542C219.06,12.7,219.078,12.428,219.078,12.248Zm-4.86-3.168a2.617,2.617,0,0,1,2.718,2.34h-5.454A2.657,2.657,0,0,1,214.218,9.08Zm11.34,8.046a4.847,4.847,0,0,0,5.13-4.932,5.125,5.125,0,0,0-10.242,0A4.852,4.852,0,0,0,225.558,17.126Zm0-1.926a2.8,2.8,0,0,1-2.844-3.006,2.857,2.857,0,1,1,5.706,0A2.8,2.8,0,0,1,225.558,15.2Z" transform="translate(-266 -2925)" fill="#fff"/>
    <path id="Trazado_17239" data-name="Trazado 17239" d="M32,0H354a32,32,0,0,1,0,64H32A32,32,0,0,1,32,0Z" transform="translate(-337 -2847)" fill="#e6eef3"/>
    <path id="Trazado_17240" data-name="Trazado 17240" d="M32,0H354a32,32,0,0,1,0,64H32A32,32,0,0,1,32,0Z" transform="translate(-337 -2858)" fill="#d64626"/>
    <path id="Trazado_17241" data-name="Trazado 17241" d="M22,0A22,22,0,1,1,0,22,22,22,0,0,1,22,0Z" transform="translate(-326 -2847)" fill="#fff"/>
    <g id="Grupo_11307-4" data-name="Grupo 11307" transform="translate(-719.036 -3227.891)">
      <g id="Grupo_11305-5" data-name="Grupo 11305" transform="translate(412.653 392.89)">
        <path id="Trazado_10732-5" data-name="Trazado 10732" d="M419.032,411.973h0a1.89,1.89,0,0,1,0-2.672l4.789-4.789a2.551,2.551,0,0,0,0-3.607l-4.79-4.79a1.889,1.889,0,0,1,0-2.671h0a1.889,1.889,0,0,1,2.672,0l8.113,8.112a1.631,1.631,0,0,1,0,2.3l-8.112,8.112a1.89,1.89,0,0,1-2.672,0Z" transform="translate(-418.479 -392.89)" fill="#ff8f00"/>
      </g>
      <g id="Grupo_11306-5" data-name="Grupo 11306" transform="translate(406.036 396.647)">
        <path id="Trazado_10733-5" data-name="Trazado 10733" d="M406.589,411.523h0a1.89,1.89,0,0,1,0-2.672l1.542-1.541a1.831,1.831,0,0,0,0-2.589l-1.542-1.541a1.89,1.89,0,0,1,0-2.672h0a1.888,1.888,0,0,1,2.672,0l4.355,4.355a1.63,1.63,0,0,1,0,2.305l-4.355,4.355A1.89,1.89,0,0,1,406.589,411.523Z" transform="translate(-406.036 -399.954)" fill="#ff8f00"/>
      </g>
    </g>
    <path id="Trazado_17242" data-name="Trazado 17242" d="M6.876,4.4H1.692V17h2.34V13.364H6.876c3.312,0,5.364-1.71,5.364-4.482C12.24,6.092,10.188,4.4,6.876,4.4Zm-.108,6.984H4.032v-5H6.768c2.052,0,3.114.918,3.114,2.5S8.82,11.384,6.768,11.384ZM14.544,17h2.25V3.644h-2.25Zm8.874-9.72A6.758,6.758,0,0,0,19.35,8.468l.882,1.638a4.759,4.759,0,0,1,2.916-.954c1.6,0,2.394.774,2.394,2.088v.144H23.058c-2.916,0-4,1.26-4,2.862,0,1.674,1.386,2.88,3.582,2.88a3.406,3.406,0,0,0,3.024-1.3V17h2.124V11.366C27.792,8.594,26.19,7.28,23.418,7.28Zm-.306,8.208c-1.152,0-1.836-.522-1.836-1.332,0-.7.414-1.278,1.944-1.278h2.322v1.116A2.45,2.45,0,0,1,23.112,15.488ZM36.126,7.28a4.179,4.179,0,0,0-3.312,1.35V7.388H30.672V17h2.25V12.14c0-1.926,1.08-2.9,2.682-2.9,1.44,0,2.286.828,2.286,2.538V17h2.25V11.492C40.14,8.594,38.43,7.28,36.126,7.28Zm16,4.968a4.687,4.687,0,0,0-4.86-4.968A4.78,4.78,0,0,0,42.3,12.194c0,2.862,2.088,4.932,5.31,4.932a4.872,4.872,0,0,0,3.87-1.566l-1.206-1.386a3.445,3.445,0,0,1-2.61,1.044,2.909,2.909,0,0,1-3.114-2.3h7.542C52.11,12.7,52.128,12.428,52.128,12.248ZM47.268,9.08a2.617,2.617,0,0,1,2.718,2.34H44.532A2.657,2.657,0,0,1,47.268,9.08Zm9.99,8.046c2.7,0,4.356-1.17,4.356-2.97,0-3.762-5.94-2.034-5.94-3.978,0-.63.648-1.08,2.016-1.08a5.261,5.261,0,0,1,2.754.72l.864-1.71a7.65,7.65,0,0,0-3.6-.828c-2.592,0-4.23,1.188-4.23,3.006,0,3.834,5.94,2.106,5.94,3.942,0,.666-.594,1.062-2.016,1.062a6.467,6.467,0,0,1-3.348-.954l-.864,1.71A7.637,7.637,0,0,0,57.258,17.126ZM75.69,3.644V8.576a3.936,3.936,0,0,0-3.1-1.3,4.663,4.663,0,0,0-4.86,4.914,4.678,4.678,0,0,0,4.86,4.932,3.963,3.963,0,0,0,3.186-1.368V17h2.16V3.644ZM72.864,15.2A2.809,2.809,0,0,1,70,12.194a2.865,2.865,0,1,1,5.724,0A2.809,2.809,0,0,1,72.864,15.2Zm17.064-2.952a4.687,4.687,0,0,0-4.86-4.968A4.78,4.78,0,0,0,80.1,12.194c0,2.862,2.088,4.932,5.31,4.932a4.872,4.872,0,0,0,3.87-1.566l-1.206-1.386a3.445,3.445,0,0,1-2.61,1.044,2.909,2.909,0,0,1-3.114-2.3h7.542C89.91,12.7,89.928,12.428,89.928,12.248ZM85.068,9.08a2.617,2.617,0,0,1,2.718,2.34H82.332A2.657,2.657,0,0,1,85.068,9.08Zm15.66-1.8A6.758,6.758,0,0,0,96.66,8.468l.882,1.638a4.759,4.759,0,0,1,2.916-.954c1.6,0,2.394.774,2.394,2.088v.144h-2.484c-2.916,0-4,1.26-4,2.862,0,1.674,1.386,2.88,3.582,2.88a3.406,3.406,0,0,0,3.024-1.3V17H105.1V11.366C105.1,8.594,103.5,7.28,100.728,7.28Zm-.306,8.208c-1.152,0-1.836-.522-1.836-1.332,0-.7.414-1.278,1.944-1.278h2.322v1.116A2.45,2.45,0,0,1,100.422,15.488Zm12.06,1.638a4.37,4.37,0,0,0,4.1-2.25l-1.728-1.008a2.72,2.72,0,0,1-2.394,1.332,2.811,2.811,0,0,1-2.916-3.006,2.821,2.821,0,0,1,2.916-3.006,2.72,2.72,0,0,1,2.394,1.332l1.728-1.008a4.325,4.325,0,0,0-4.1-2.232,4.864,4.864,0,0,0-5.2,4.914A4.878,4.878,0,0,0,112.482,17.126Zm10.314,0a4.37,4.37,0,0,0,4.1-2.25l-1.728-1.008a2.72,2.72,0,0,1-2.394,1.332,2.811,2.811,0,0,1-2.916-3.006,2.821,2.821,0,0,1,2.916-3.006,2.72,2.72,0,0,1,2.394,1.332L126.9,9.512a4.325,4.325,0,0,0-4.1-2.232,4.864,4.864,0,0,0-5.2,4.914A4.878,4.878,0,0,0,122.8,17.126ZM129.978,5.8a1.381,1.381,0,0,0,1.44-1.4,1.34,1.34,0,0,0-1.44-1.3,1.353,1.353,0,1,0,0,2.7ZM128.844,17h2.25V7.388h-2.25Zm7.992-10.926h1.944l3.132-2.466h-2.646Zm1.53,11.052a4.847,4.847,0,0,0,5.13-4.932,5.125,5.125,0,0,0-10.242,0A4.852,4.852,0,0,0,138.366,17.126Zm0-1.926a2.8,2.8,0,0,1-2.844-3.006,2.857,2.857,0,1,1,5.706,0A2.8,2.8,0,0,1,138.366,15.2ZM151.11,7.28A4.179,4.179,0,0,0,147.8,8.63V7.388h-2.142V17h2.25V12.14c0-1.926,1.08-2.9,2.682-2.9,1.44,0,2.286.828,2.286,2.538V17h2.25V11.492C155.124,8.594,153.414,7.28,151.11,7.28Zm19.008-3.636V8.576a3.936,3.936,0,0,0-3.1-1.3,4.663,4.663,0,0,0-4.86,4.914,4.678,4.678,0,0,0,4.86,4.932,3.963,3.963,0,0,0,3.186-1.368V17h2.16V3.644ZM167.292,15.2a2.809,2.809,0,0,1-2.862-3.006,2.865,2.865,0,1,1,5.724,0A2.809,2.809,0,0,1,167.292,15.2Zm17.064-2.952A4.687,4.687,0,0,0,179.5,7.28a4.78,4.78,0,0,0-4.968,4.914c0,2.862,2.088,4.932,5.31,4.932a4.872,4.872,0,0,0,3.87-1.566L182.5,14.174a3.445,3.445,0,0,1-2.61,1.044,2.909,2.909,0,0,1-3.114-2.3h7.542C184.338,12.7,184.356,12.428,184.356,12.248ZM179.5,9.08a2.617,2.617,0,0,1,2.718,2.34H176.76A2.657,2.657,0,0,1,179.5,9.08Zm24.12-1.8a4.486,4.486,0,0,0-3.6,1.6,3.6,3.6,0,0,0-3.24-1.6,3.981,3.981,0,0,0-3.15,1.332V7.388h-2.142V17h2.25V12.122c0-1.908,1.008-2.88,2.5-2.88,1.368,0,2.16.828,2.16,2.538V17h2.25V12.122c0-1.908,1.026-2.88,2.5-2.88,1.368,0,2.16.828,2.16,2.538V17h2.25V11.492C207.558,8.594,205.938,7.28,203.616,7.28Zm15.948,4.968A4.687,4.687,0,0,0,214.7,7.28a4.78,4.78,0,0,0-4.968,4.914c0,2.862,2.088,4.932,5.31,4.932a4.872,4.872,0,0,0,3.87-1.566l-1.206-1.386a3.445,3.445,0,0,1-2.61,1.044,2.909,2.909,0,0,1-3.114-2.3h7.542C219.546,12.7,219.564,12.428,219.564,12.248ZM214.7,9.08a2.617,2.617,0,0,1,2.718,2.34h-5.454A2.657,2.657,0,0,1,214.7,9.08Zm9.162-.288v-1.4h-2.142V17h2.25V12.338c0-1.962,1.08-2.97,2.79-2.97a2.856,2.856,0,0,1,.522.054V7.28A3.782,3.782,0,0,0,223.866,8.792Zm9.648,8.334a4.37,4.37,0,0,0,4.1-2.25l-1.728-1.008A2.72,2.72,0,0,1,233.5,15.2a2.811,2.811,0,0,1-2.916-3.006A2.821,2.821,0,0,1,233.5,9.188a2.72,2.72,0,0,1,2.394,1.332l1.728-1.008a4.325,4.325,0,0,0-4.1-2.232,4.864,4.864,0,0,0-5.2,4.914A4.878,4.878,0,0,0,233.514,17.126Zm9.72-9.846a6.758,6.758,0,0,0-4.068,1.188l.882,1.638a4.759,4.759,0,0,1,2.916-.954c1.6,0,2.394.774,2.394,2.088v.144h-2.484c-2.916,0-4,1.26-4,2.862,0,1.674,1.386,2.88,3.582,2.88a3.406,3.406,0,0,0,3.024-1.3V17h2.124V11.366C247.608,8.594,246.006,7.28,243.234,7.28Zm-.306,8.208c-1.152,0-1.836-.522-1.836-1.332,0-.7.414-1.278,1.944-1.278h2.322v1.116A2.45,2.45,0,0,1,242.928,15.488ZM257.742,3.644V8.576a3.936,3.936,0,0,0-3.1-1.3,4.663,4.663,0,0,0-4.86,4.914,4.678,4.678,0,0,0,4.86,4.932,3.963,3.963,0,0,0,3.186-1.368V17h2.16V3.644ZM254.916,15.2a2.809,2.809,0,0,1-2.862-3.006,2.865,2.865,0,1,1,5.724,0A2.809,2.809,0,0,1,254.916,15.2Zm17.064-2.952a4.687,4.687,0,0,0-4.86-4.968,4.78,4.78,0,0,0-4.968,4.914c0,2.862,2.088,4.932,5.31,4.932a4.872,4.872,0,0,0,3.87-1.566l-1.206-1.386a3.445,3.445,0,0,1-2.61,1.044,2.909,2.909,0,0,1-3.114-2.3h7.542C271.962,12.7,271.98,12.428,271.98,12.248ZM267.12,9.08a2.617,2.617,0,0,1,2.718,2.34h-5.454A2.657,2.657,0,0,1,267.12,9.08Zm11.34,8.046a4.847,4.847,0,0,0,5.13-4.932,5.125,5.125,0,0,0-10.242,0A4.852,4.852,0,0,0,278.46,17.126Zm0-1.926a2.8,2.8,0,0,1-2.844-3.006,2.857,2.857,0,1,1,5.706,0A2.8,2.8,0,0,1,278.46,15.2Z" transform="translate(-266 -2836)" fill="#fff"/>
    <path id="Trazado_17243" data-name="Trazado 17243" d="M32,0H354a32,32,0,0,1,0,64H32A32,32,0,0,1,32,0Z" transform="translate(-337 -2759)" fill="#e6eef3"/>
    <path id="Trazado_17244" data-name="Trazado 17244" d="M32,0H354a32,32,0,0,1,0,64H32A32,32,0,0,1,32,0Z" transform="translate(-337 -2770)" fill="#d64626"/>
    <path id="Trazado_17245" data-name="Trazado 17245" d="M22,0A22,22,0,1,1,0,22,22,22,0,0,1,22,0Z" transform="translate(-326 -2759)" fill="#fff"/>
    <g id="Grupo_11307-5" data-name="Grupo 11307" transform="translate(-719.036 -3139.891)">
      <g id="Grupo_11305-6" data-name="Grupo 11305" transform="translate(412.653 392.89)">
        <path id="Trazado_10732-6" data-name="Trazado 10732" d="M419.032,411.973h0a1.89,1.89,0,0,1,0-2.672l4.789-4.789a2.551,2.551,0,0,0,0-3.607l-4.79-4.79a1.889,1.889,0,0,1,0-2.671h0a1.889,1.889,0,0,1,2.672,0l8.113,8.112a1.631,1.631,0,0,1,0,2.3l-8.112,8.112a1.89,1.89,0,0,1-2.672,0Z" transform="translate(-418.479 -392.89)" fill="#ff8f00"/>
      </g>
      <g id="Grupo_11306-6" data-name="Grupo 11306" transform="translate(406.036 396.647)">
        <path id="Trazado_10733-6" data-name="Trazado 10733" d="M406.589,411.523h0a1.89,1.89,0,0,1,0-2.672l1.542-1.541a1.831,1.831,0,0,0,0-2.589l-1.542-1.541a1.89,1.89,0,0,1,0-2.672h0a1.888,1.888,0,0,1,2.672,0l4.355,4.355a1.63,1.63,0,0,1,0,2.305l-4.355,4.355A1.89,1.89,0,0,1,406.589,411.523Z" transform="translate(-406.036 -399.954)" fill="#ff8f00"/>
      </g>
    </g>
    <path id="Trazado_17246" data-name="Trazado 17246" d="M4.032,15.038V11.564h6.084V9.638H4.032V6.362H10.89V4.4h-9.2V17h9.45V15.038ZM20.25,7.388l-3.078,7.128L14.184,7.388h-2.34L15.966,17h2.322L22.41,7.388Zm6.93-.108a6.758,6.758,0,0,0-4.068,1.188l.882,1.638a4.759,4.759,0,0,1,2.916-.954c1.6,0,2.394.774,2.394,2.088v.144H26.82c-2.916,0-4,1.26-4,2.862,0,1.674,1.386,2.88,3.582,2.88a3.406,3.406,0,0,0,3.024-1.3V17h2.124V11.366C31.554,8.594,29.952,7.28,27.18,7.28Zm-.306,8.208c-1.152,0-1.836-.522-1.836-1.332,0-.7.414-1.278,1.944-1.278H29.3v1.116A2.45,2.45,0,0,1,26.874,15.488ZM34.434,17h2.25V3.644h-2.25ZM46.692,7.388v4.86c0,1.926-1.062,2.9-2.628,2.9-1.422,0-2.25-.828-2.25-2.574V7.388h-2.25v5.49c0,2.9,1.674,4.248,4.14,4.248a3.927,3.927,0,0,0,3.1-1.35V17h2.142V7.388Zm8.874-.108A6.758,6.758,0,0,0,51.5,8.468l.882,1.638A4.759,4.759,0,0,1,55.3,9.152c1.6,0,2.394.774,2.394,2.088v.144H55.206c-2.916,0-4,1.26-4,2.862,0,1.674,1.386,2.88,3.582,2.88a3.406,3.406,0,0,0,3.024-1.3V17H59.94V11.366C59.94,8.594,58.338,7.28,55.566,7.28Zm-.306,8.208c-1.152,0-1.836-.522-1.836-1.332,0-.7.414-1.278,1.944-1.278H57.69v1.116A2.45,2.45,0,0,1,55.26,15.488Zm12.06,1.638a4.37,4.37,0,0,0,4.1-2.25L69.7,13.868A2.72,2.72,0,0,1,67.3,15.2a2.811,2.811,0,0,1-2.916-3.006A2.821,2.821,0,0,1,67.3,9.188,2.72,2.72,0,0,1,69.7,10.52l1.728-1.008a4.325,4.325,0,0,0-4.1-2.232,4.864,4.864,0,0,0-5.2,4.914A4.878,4.878,0,0,0,67.32,17.126ZM74.5,5.8a1.381,1.381,0,0,0,1.44-1.4A1.34,1.34,0,0,0,74.5,3.1a1.353,1.353,0,1,0,0,2.7ZM73.368,17h2.25V7.388h-2.25ZM81.36,6.074H83.3l3.132-2.466H83.79Zm1.53,11.052a4.847,4.847,0,0,0,5.13-4.932,5.125,5.125,0,0,0-10.242,0A4.852,4.852,0,0,0,82.89,17.126Zm0-1.926a2.8,2.8,0,0,1-2.844-3.006,2.857,2.857,0,1,1,5.706,0A2.8,2.8,0,0,1,82.89,15.2ZM95.634,7.28a4.179,4.179,0,0,0-3.312,1.35V7.388H90.18V17h2.25V12.14c0-1.926,1.08-2.9,2.682-2.9,1.44,0,2.286.828,2.286,2.538V17h2.25V11.492C99.648,8.594,97.938,7.28,95.634,7.28Zm18.684.108-3.042,7.11-3.024-7.11h-2.34l4.194,9.648-.162.378c-.432.954-.9,1.332-1.692,1.332a2.438,2.438,0,0,1-1.656-.666l-.9,1.656a3.978,3.978,0,0,0,2.574.882c1.6,0,2.826-.666,3.708-2.844l4.5-10.386Zm12.942,9.738a4.37,4.37,0,0,0,4.1-2.25l-1.728-1.008a2.72,2.72,0,0,1-2.394,1.332,2.811,2.811,0,0,1-2.916-3.006,2.821,2.821,0,0,1,2.916-3.006,2.72,2.72,0,0,1,2.394,1.332l1.728-1.008a4.325,4.325,0,0,0-4.1-2.232,4.864,4.864,0,0,0-5.2,4.914A4.878,4.878,0,0,0,127.26,17.126Zm10.224,0a4.847,4.847,0,0,0,5.13-4.932,5.125,5.125,0,0,0-10.242,0A4.852,4.852,0,0,0,137.484,17.126Zm0-1.926a2.8,2.8,0,0,1-2.844-3.006,2.857,2.857,0,1,1,5.706,0A2.8,2.8,0,0,1,137.484,15.2Zm12.744-7.92a4.179,4.179,0,0,0-3.312,1.35V7.388h-2.142V17h2.25V12.14c0-1.926,1.08-2.9,2.682-2.9,1.44,0,2.286.828,2.286,2.538V17h2.25V11.492C154.242,8.594,152.532,7.28,150.228,7.28Zm12.024,7.6a2.023,2.023,0,0,1-1.26.4c-.864,0-1.332-.5-1.332-1.44V9.26h2.574V7.46H159.66v-2.2h-2.25v2.2h-1.584v1.8h1.584v4.626c0,2.124,1.206,3.24,3.312,3.24a3.535,3.535,0,0,0,2.16-.648Zm4.626-6.084v-1.4h-2.142V17h2.25V12.338c0-1.962,1.08-2.97,2.79-2.97a2.856,2.856,0,0,1,.522.054V7.28A3.782,3.782,0,0,0,166.878,8.792Zm9.558,8.334a4.847,4.847,0,0,0,5.13-4.932,5.125,5.125,0,0,0-10.242,0A4.852,4.852,0,0,0,176.436,17.126Zm0-1.926a2.8,2.8,0,0,1-2.844-3.006,2.857,2.857,0,1,1,5.706,0A2.8,2.8,0,0,1,176.436,15.2Zm7.29,1.8h2.25V3.644h-2.25ZM201.06,3.644V8.576a3.936,3.936,0,0,0-3.1-1.3,4.663,4.663,0,0,0-4.86,4.914,4.678,4.678,0,0,0,4.86,4.932,3.963,3.963,0,0,0,3.186-1.368V17h2.16V3.644ZM198.234,15.2a2.809,2.809,0,0,1-2.862-3.006,2.865,2.865,0,1,1,5.724,0A2.809,2.809,0,0,1,198.234,15.2ZM215.3,12.248a4.687,4.687,0,0,0-4.86-4.968,4.78,4.78,0,0,0-4.968,4.914c0,2.862,2.088,4.932,5.31,4.932a4.872,4.872,0,0,0,3.87-1.566l-1.206-1.386a3.445,3.445,0,0,1-2.61,1.044,2.909,2.909,0,0,1-3.114-2.3h7.542C215.28,12.7,215.3,12.428,215.3,12.248Zm-4.86-3.168a2.617,2.617,0,0,1,2.718,2.34H207.7A2.657,2.657,0,0,1,210.438,9.08Zm7.02,7.92h2.25V3.644h-2.25Zm15.5-9.72a3.963,3.963,0,0,0-3.186,1.368V7.388h-2.142v13.1h2.25V15.83a3.949,3.949,0,0,0,3.078,1.3,4.682,4.682,0,0,0,4.878-4.932A4.677,4.677,0,0,0,232.956,7.28ZM232.7,15.2a2.809,2.809,0,0,1-2.862-3.006,2.857,2.857,0,1,1,5.706,0A2.8,2.8,0,0,1,232.7,15.2Zm7.272,1.8h2.25V3.644h-2.25Zm8.874-9.72a6.758,6.758,0,0,0-4.068,1.188l.882,1.638a4.759,4.759,0,0,1,2.916-.954c1.6,0,2.394.774,2.394,2.088v.144H248.49c-2.916,0-4,1.26-4,2.862,0,1.674,1.386,2.88,3.582,2.88a3.406,3.406,0,0,0,3.024-1.3V17h2.124V11.366C253.224,8.594,251.622,7.28,248.85,7.28Zm-.306,8.208c-1.152,0-1.836-.522-1.836-1.332,0-.7.414-1.278,1.944-1.278h2.322v1.116A2.45,2.45,0,0,1,248.544,15.488ZM261.558,7.28a4.179,4.179,0,0,0-3.312,1.35V7.388H256.1V17h2.25V12.14c0-1.926,1.08-2.9,2.682-2.9,1.44,0,2.286.828,2.286,2.538V17h2.25V11.492C265.572,8.594,263.862,7.28,261.558,7.28Z" transform="translate(-266 -2749)" fill="#fff"/>
  </g>
</svg>
