<svg xmlns="http://www.w3.org/2000/svg" width="349.578" height="340.896" viewBox="0 0 349.578 340.896">
  <g id="Grupo_12956" data-name="Grupo 12956" transform="translate(3371.551 -868.209)">
    <g id="Grupo_12858" data-name="Grupo 12858" transform="translate(-3360.669 873.612)">
      <path id="Trazado_12352" data-name="Trazado 12352" d="M-3179.682,1546.214c0,16.6-30.237,30.049-67.538,30.049s-67.536-13.453-67.536-30.049,30.238-30.049,67.536-30.049S-3179.682,1529.618-3179.682,1546.214Z" transform="translate(3314.756 -1397.412)" fill="#e7edfb"/>
      <g id="Grupo_12857" data-name="Grupo 12857" transform="translate(31.858)">
        <g id="Grupo_12836" data-name="Grupo 12836" transform="translate(2.321 11.248)">
          <g id="Grupo_12830" data-name="Grupo 12830" transform="translate(1.081 88.307)">
            <path id="Trazado_12353" data-name="Trazado 12353" d="M-3125.437,1463.8l-2.649,1.1-2.654-1.757v-47.174h5.3Z" transform="translate(3130.741 -1415.973)" fill="#c7c9cb"/>
            <path id="Trazado_12354" data-name="Trazado 12354" d="M-3128.087,1464.9l-2.654-1.757v-47.174h2.654Z" transform="translate(3130.741 -1415.973)" fill="#c7c9cb" style="mix-blend-mode: multiply;isolation: isolate"/>
          </g>
          <g id="Grupo_12831" data-name="Grupo 12831" transform="translate(26.026 104.991)">
            <path id="Trazado_12355" data-name="Trazado 12355" d="M-2995.25,1550.873l-2.65,1.1-2.653-1.757v-47.174h5.3Z" transform="translate(3000.553 -1503.047)" fill="#c7c9cb"/>
            <path id="Trazado_12356" data-name="Trazado 12356" d="M-2997.9,1551.978l-2.653-1.757v-47.174h2.653Z" transform="translate(3000.553 -1503.047)" fill="#c7c9cb" style="mix-blend-mode: multiply;isolation: isolate"/>
          </g>
          <g id="Grupo_12832" data-name="Grupo 12832" transform="translate(38.876 72.395)">
            <path id="Trazado_12357" data-name="Trazado 12357" d="M-2928.185,1380.755l-2.649,1.1-2.653-1.757v-47.174h5.3Z" transform="translate(2933.487 -1332.928)" fill="#c7c9cb"/>
            <path id="Trazado_12358" data-name="Trazado 12358" d="M-2930.834,1381.86l-2.653-1.757v-47.174h2.653Z" transform="translate(2933.487 -1332.928)" fill="#c7c9cb" style="mix-blend-mode: multiply;isolation: isolate"/>
          </g>
          <g id="Grupo_12833" data-name="Grupo 12833" transform="translate(63.821 89.079)">
            <path id="Trazado_12359" data-name="Trazado 12359" d="M-2798,1467.83l-2.649,1.1-2.654-1.757V1420h5.3Z" transform="translate(2803.303 -1420.003)" fill="#c7c9cb"/>
            <path id="Trazado_12360" data-name="Trazado 12360" d="M-2800.649,1468.934l-2.654-1.757V1420h2.654Z" transform="translate(2803.303 -1420.003)" fill="#c7c9cb" style="mix-blend-mode: multiply;isolation: isolate"/>
          </g>
          <g id="Grupo_12834" data-name="Grupo 12834" transform="translate(0.307 67.796)">
            <path id="Trazado_12361" data-name="Trazado 12361" d="M-3065.186,1330.6l-32.1-21.665-37.495,15.645,32.093,21.663Z" transform="translate(3134.776 -1308.931)" fill="#4262ab"/>
            <path id="Trazado_12362" data-name="Trazado 12362" d="M-3102.684,1412.244l-32.093-21.663v8.864l32.093,21.663.039-.017v-8.863Z" transform="translate(3134.776 -1374.935)" fill="#283876"/>
            <path id="Trazado_12363" data-name="Trazado 12363" d="M-2967.671,1437.64l-.091-.06v8.864l.091.06,37.5-15.644V1422Z" transform="translate(2999.763 -1400.332)" fill="#184084"/>
          </g>
          <g id="Grupo_12835" data-name="Grupo 12835">
            <path id="Trazado_12364" data-name="Trazado 12364" d="M-2877.381,1003.931" transform="translate(2927.008 -994.576)" fill="#0094ac"/>
            <path id="Trazado_12365" data-name="Trazado 12365" d="M-3129.239,1043.773l-6.681-4.461c-2.172-17.822,4.056-61.279,4.056-61.279a18.212,18.212,0,0,1,9.919-12.327l23.7-9.889s12.345-4.386,11.488,8.646l-42.252,79.213" transform="translate(3136.38 -955.107)" fill="#283876"/>
            <path id="Trazado_12366" data-name="Trazado 12366" d="M-3056.867,986.8c-3.037,11.4-7.268,33.557-4.656,62.16l-37.588,15.8c.733-39.121,3.9-57.851,5.816-65.74,1.253-6.029,6.06-6.86,6.06-6.86l26.086-10.957S-3055.664,979.692-3056.867,986.8Z" transform="translate(3106.252 -976.094)" fill="#184084"/>
          </g>
        </g>
        <g id="Grupo_12856" data-name="Grupo 12856">
          <g id="Grupo_12838" data-name="Grupo 12838" transform="translate(65.251 154.385)">
            <g id="Grupo_12837" data-name="Grupo 12837">
              <path id="Trazado_12367" data-name="Trazado 12367" d="M-2804.232,1707.4a16.061,16.061,0,0,0,5.517,3.217,4.709,4.709,0,0,0,4.6-1.19.881.881,0,0,0-.134-1.347c-6.1-4.64-7.93-5.955-7.93-5.955h-5.6a12.77,12.77,0,0,0-.122,3.162,4.852,4.852,0,0,0,3.074,1.862c.115.02.331-.149.439-.1Z" transform="translate(2807.95 -1702.128)" fill="#121315"/>
            </g>
            <path id="Trazado_12368" data-name="Trazado 12368" d="M-2794.21,1716.775a1.56,1.56,0,0,1-.117.383,3.07,3.07,0,0,1-2.836,1.42,8.211,8.211,0,0,1-3.489-1.184,15.548,15.548,0,0,1-2.889-1.959,8.7,8.7,0,0,0-2.185-1.094,11.086,11.086,0,0,1-2.2-1.485c0,.6.039,1.106.039,1.106a4.849,4.849,0,0,0,3.074,1.862c.115.02.331-.149.439-.1l.162.356a16.061,16.061,0,0,0,5.517,3.217,4.709,4.709,0,0,0,4.6-1.19A.878.878,0,0,0-2794.21,1716.775Z" transform="translate(2807.935 -1710.8)"/>
          </g>
          <g id="Grupo_12840" data-name="Grupo 12840" transform="translate(46.516 163.127)">
            <g id="Grupo_12839" data-name="Grupo 12839">
              <path id="Trazado_12369" data-name="Trazado 12369" d="M-2902.009,1753.028a16.051,16.051,0,0,0,5.517,3.217,4.709,4.709,0,0,0,4.6-1.19.88.88,0,0,0-.134-1.347c-6.1-4.64-7.931-5.955-7.931-5.955h-5.6a12.766,12.766,0,0,0-.122,3.161,4.85,4.85,0,0,0,3.074,1.862c.115.02.331-.149.439-.1Z" transform="translate(2905.727 -1747.753)" fill="#121315"/>
            </g>
            <path id="Trazado_12370" data-name="Trazado 12370" d="M-2891.988,1762.4a1.556,1.556,0,0,1-.117.383,3.07,3.07,0,0,1-2.836,1.42,8.216,8.216,0,0,1-3.489-1.184,15.55,15.55,0,0,1-2.889-1.959,8.7,8.7,0,0,0-2.184-1.094,11.055,11.055,0,0,1-2.2-1.485c0,.6.038,1.106.038,1.106a4.85,4.85,0,0,0,3.074,1.862c.115.021.331-.149.439-.1l.162.356a16.057,16.057,0,0,0,5.517,3.217,4.71,4.71,0,0,0,4.6-1.19A.878.878,0,0,0-2891.988,1762.4Z" transform="translate(2905.712 -1756.425)"/>
          </g>
          <path id="Trazado_12371" data-name="Trazado 12371" d="M-3021.25,1305.1a14.935,14.935,0,0,0,0,14.421c4.213,7.622,17.077,4.844,17.114-5.028C-3004.1,1304.736-3012.973,1301.007-3021.25,1305.1Z" transform="translate(3047.144 -1225.463)" fill="#08111f"/>
          <path id="Trazado_12372" data-name="Trazado 12372" d="M-3069.458,1228.393c-1.113,3.957-5.7,19.057-5.7,19.057,16.422,19.648,28.794,2.456,28.957.664.2-2.145-2.2-10.336-2.632-19.17C-3048.833,1228.944-3053.311,1222.05-3069.458,1228.393Z" transform="translate(3089.209 -1162.612)" fill="#f5916e"/>
          <path id="Trazado_12373" data-name="Trazado 12373" d="M-3046.416,1300.893c.779-5.293-.835-10.629-1.666-15.977h-24.057c-1.539,5.127-3.139,10.4-3.139,10.4s-1.029,12.131,9.272,13.584C-3066.006,1308.9-3048.052,1312.008-3046.416,1300.893Z" transform="translate(3089.33 -1210.473)" fill="#08111f"/>
          <path id="Trazado_12374" data-name="Trazado 12374" d="M-2955.688,1343.6c-12.227-4.64-37.549-20.021-37.549-20.021s-1.256-3.424,2.6-10.334c3.87-6.93,7.661-3.83,7.11-4.142a275.326,275.326,0,0,1,32.968,25.625S-2950.346,1341.567-2955.688,1343.6Z" transform="translate(3023.143 -1229.681)" fill="#08111f"/>
          <path id="Trazado_12375" data-name="Trazado 12375" d="M-2815.646,1487.375c.919-1.291,1.248-45.99,1.248-45.99.016-6.879-8.454-3.708-8.454-3.708a41.259,41.259,0,0,0-3.314,18.224c.056,3.351,2.3,29.953,2.339,32.087C-2823.827,1487.987-2818.276,1491.069-2815.646,1487.375Z" transform="translate(2887.936 -1333.374)" fill="#08111f"/>
          <path id="Trazado_12376" data-name="Trazado 12376" d="M-3028.34,1363.817c-11.467-6.286-36.223-24.994-36.223-24.994s-1.245-3.465,3.534-9.776c4.79-6.327,13.036-2.291,12.532-2.676,0,0,22.258,23.518,27.4,30.888C-3021.1,1357.259-3020.623,1363.689-3028.34,1363.817Z" transform="translate(3080.763 -1243.244)" fill="#0e1828"/>
          <g id="Grupo_12843" data-name="Grupo 12843" transform="translate(37.731 29.666)">
            <path id="Trazado_12377" data-name="Trazado 12377" d="M-2951.02,1068.238s2.893,20.542,5.734,28.542c0,0,4.682,1,6.2-1.65,0,0-.521-17.559-1.129-28.139C-2940.217,1066.992-2945.983,1060.489-2951.02,1068.238Z" transform="translate(2951.127 -1061.908)" fill="#df7e61"/>
            <path id="Trazado_12378" data-name="Trazado 12378" d="M-2942.822,1060.953a5.475,5.475,0,0,1-7.647-1.01,5.4,5.4,0,0,1,1.054-7.6,5.477,5.477,0,0,1,7.648,1.01A5.4,5.4,0,0,1-2942.822,1060.953Z" transform="translate(2951.578 -1051.23)" fill="#df7e61"/>
            <g id="Grupo_12842" data-name="Grupo 12842" transform="translate(5.812 30.769)">
              <path id="Trazado_12379" data-name="Trazado 12379" d="M-2914.955,1213.175s5.542,16.051,8.281,22.181c0,0-.289,2.006-1.728.98-2.4-1.716-13.487-18.881-12.816-20.423C-2918.09,1208.715-2914.955,1213.175-2914.955,1213.175Z" transform="translate(2921.246 -1211.809)" fill="#df7e61"/>
              <g id="Grupo_12841" data-name="Grupo 12841" transform="translate(11.578 21.706)">
                <path id="Trazado_12380" data-name="Trazado 12380" d="M-2849.606,1350.96l1.419,2.05.163,3.568s.784.218.912-1.041l-.048-2.985-1.392-2.411Z" transform="translate(2851.755 -1345.341)" fill="#df7e61"/>
                <path id="Trazado_12381" data-name="Trazado 12381" d="M-2844.6,1353.1l1.532,1.968.362,3.552s.794.175.851-1.09l-.215-2.978-1.524-2.328Z" transform="translate(2847.711 -1347.024)" fill="#df7e61"/>
                <path id="Trazado_12382" data-name="Trazado 12382" d="M-2855,1330.435l-1.671-2.371-2.017-2.973-2.133.71.977,3.7.706,1.849.991,2.511.278.832s.725-.106.6-1.588l-.614-2.525,1.747,1.359.82,3.5s1,1.545,1.183.684l-.527-5.221Z" transform="translate(2860.82 -1325.091)" fill="#df7e61"/>
              </g>
            </g>
          </g>
          <path id="Trazado_12383" data-name="Trazado 12383" d="M-2946.587,1051.131a7.176,7.176,0,0,1,5.21,6.879l.8,20.635a19.363,19.363,0,0,1-11.338,2.722S-2959.3,1053.809-2946.587,1051.131Z" transform="translate(2991.304 -1021.484)" fill="#00aeb9"/>
          <path id="Trazado_12384" data-name="Trazado 12384" d="M-2956.98,924.068c.635-.563,1.871-2.278,1.809-3.159-.018-.263-.279-.471-.279-.8s.149-.474.272-.751a3.237,3.237,0,0,0,.312-1.586c0-.482.091-1.426-.238-1.809-.488-.568-1.459-.1-1.971.2-1.063.633-1.663,1.663-2.764,2.271a4.427,4.427,0,0,0-1.763,2.042c-.661,1.136-1.214,3.241.2,4.1A4.084,4.084,0,0,0-2956.98,924.068Z" transform="translate(2997.965 -911.996)" fill="#2d1a10"/>
          <path id="Trazado_12385" data-name="Trazado 12385" d="M-3027.2,936.178s-.967-1.861-3.1-5.431c0,0-4.542-4.664-2-10.526,0,0,1.4-4.9,9.969-4.19C-3022.325,916.03-3021.505,929.522-3027.2,936.178Z" transform="translate(3055.185 -912.213)" fill="#f68c68"/>
          <path id="Trazado_12386" data-name="Trazado 12386" d="M-3011.081,981.609s1.442,13.447-1.634,14.464l10.967-.653s-1.724-4.063.281-7.06Z" transform="translate(3038.731 -965.283)" fill="#f5916e"/>
          <path id="Trazado_12387" data-name="Trazado 12387" d="M-2995.457,993.071c-.183-3.072.2-3.7.883-4.711l-9.614-6.751a65.492,65.492,0,0,1,.3,8.281A10.4,10.4,0,0,0-2995.457,993.071Z" transform="translate(3031.838 -965.283)" fill="#d9705a"/>
          <path id="Trazado_12388" data-name="Trazado 12388" d="M-3052.637,1046.478c2.443,1.784,2.723,6.05,1.851,8.716-1,3.061-1.4,6.967-2.4,11.394-1.358,6-2.278,10.619-3.792,16.576-1.253,4.927-21.051.957-21.051.957l-7.1-24.247s-1.221-6.33,4.513-8.436a85.755,85.755,0,0,1,10.463-4.759,19.081,19.081,0,0,1,9.329-1.2A46.342,46.342,0,0,1-3052.637,1046.478Z" transform="translate(3097.355 -1016.831)" fill="#f5916e"/>
          <path id="Trazado_12389" data-name="Trazado 12389" d="M-3007.283,936.964l.456-1.52s1.154-5.621,1.154-5.622a5.7,5.7,0,0,0-.09-2.336,5.742,5.742,0,0,1-.2-2.4,6.97,6.97,0,0,0-1.5-6.131c-2.512-3.57-8.025-3.29-8.025-3.29-6.8.679-7.044,7.308-7.044,7.308-.887,4.443,2.789,7.923,2.8,7.93.294.277.223,1.729.328,2.136.448,1.733,2.178,2.725,3.7,3.392a16.388,16.388,0,0,0,5.523,1.575C-3009.49,938.037-3007.544,937.836-3007.283,936.964Z" transform="translate(3046.779 -911.971)" fill="#f68c68"/>
          <path id="Trazado_12390" data-name="Trazado 12390" d="M-3032.423,907.424c2.038-2.494,5.963-.239,8.491-1.777,1.18-.718,1.162-2.005,2.7-2.008,3.289-.005,2.9-3.539,1.074-4.569a6.1,6.1,0,0,0-1.109.047c-.911.1-1.5.5-2.42.171a25.243,25.243,0,0,1-2.691-1.454,9.569,9.569,0,0,0-3.708-1.426c-1.656-.076-2.183,1.135-3.409,1.928a12.167,12.167,0,0,1-2.729.794,23.192,23.192,0,0,0-3.763,2.035c-.856.5-2.025,1.178-1.9,2.338.114,1.1,1.233,1.352.892,2.546a9.875,9.875,0,0,0,.571,6.174,18.424,18.424,0,0,0,1.6,3.513,13.777,13.777,0,0,0,2.633,2.913,11.514,11.514,0,0,1,1.863,1.722c.064-2.71-.481-2.487.229-3.837.275-.525-.029-.966-.224-1.486s-.647-.95-.579-1.514c.352.112.685.16.876,0,.335-.282.062-1.221.118-1.589a11.665,11.665,0,0,1,.973-3.728A4.863,4.863,0,0,1-3032.423,907.424Z" transform="translate(3062.322 -896.404)" fill="#2d1a10"/>
          <g id="Grupo_12852" data-name="Grupo 12852" transform="translate(24.862 16.095)">
            <g id="Grupo_12848" data-name="Grupo 12848">
              <g id="Grupo_12847" data-name="Grupo 12847">
                <g id="Grupo_12846" data-name="Grupo 12846">
                  <g id="Grupo_12845" data-name="Grupo 12845">
                    <g id="Grupo_12844" data-name="Grupo 12844">
                      <path id="Trazado_12391" data-name="Trazado 12391" d="M-3015.5,984.446a1.516,1.516,0,0,1-.935.413,2.217,2.217,0,0,1-2.277-2.018,2.032,2.032,0,0,1,1.645-2.43,1.921,1.921,0,0,1,1.415.45,2.764,2.764,0,0,1,.683,2.186A2.084,2.084,0,0,1-3015.5,984.446Z" transform="translate(3018.738 -980.402)" fill="#f68c68"/>
                    </g>
                  </g>
                </g>
              </g>
            </g>
            <g id="Grupo_12851" data-name="Grupo 12851" transform="translate(0.949 0.724)">
              <g id="Grupo_12849" data-name="Grupo 12849">
                <path id="Trazado_12392" data-name="Trazado 12392" d="M-3012.49,984.559c-.142-.639-1.374.137-1.133.476a1.991,1.991,0,0,0,.585.447.959.959,0,0,1,.487.658c.01.037.03.148,0,.179-.156.137-.785-.427-.924-.545a1.091,1.091,0,0,1-.282-1.014.655.655,0,0,1,.66-.572c.294-.018.6-.034.623.334,0,.007-.005.069-.013.037Z" transform="translate(3013.787 -984.18)" fill="#e3755b"/>
              </g>
              <g id="Grupo_12850" data-name="Grupo 12850" transform="translate(0.335 1.019)">
                <path id="Trazado_12393" data-name="Trazado 12393" d="M-3011.414,989.58c.12-.153.262-.055.414.029a.614.614,0,0,1,.281.352,1.529,1.529,0,0,1-.033,1.1.822.822,0,0,1-.657.459c-.4.035-.553-.3-.609-.63-.015-.089-.048-.3.033-.365s.172.067.242.123a.548.548,0,0,0,.349.085.715.715,0,0,0,.555-.332.386.386,0,0,0,.047-.108q.039.326-.017.15a.612.612,0,0,0-.093-.145c-.109-.14-.276-.225-.4-.356-.056-.06-.176-.284-.116-.362Z" transform="translate(3012.038 -989.5)" fill="#e3755b"/>
              </g>
            </g>
          </g>
          <path id="Trazado_12394" data-name="Trazado 12394" d="M-2960.394,976.237l-1.854.716s2.5.156,2.6-.571c0,0-.378-1.419-.788-2.761C-2960.439,973.621-2960.119,976.131-2960.394,976.237Z" transform="translate(2997.934 -958.825)" fill="#e3755b"/>
          <g id="Grupo_12853" data-name="Grupo 12853" transform="translate(31.641 11.993)">
            <path id="Trazado_12395" data-name="Trazado 12395" d="M-2973.521,970.633c0,.392-.216.708-.482.708s-.481-.316-.481-.708.215-.708.481-.708S-2973.521,970.242-2973.521,970.633Z" transform="translate(2976.185 -967.83)" fill="#2d1a10"/>
            <path id="Trazado_12396" data-name="Trazado 12396" d="M-2945.615,967.532c0,.393-.216.708-.482.708s-.481-.316-.481-.708.215-.708.481-.708S-2945.615,967.141-2945.615,967.532Z" transform="translate(2953.626 -965.323)" fill="#2d1a10"/>
            <path id="Trazado_12397" data-name="Trazado 12397" d="M-2980.2,962.9c.173.035.216-.2.216-.2a.809.809,0,0,0-.012-.415.4.4,0,0,0-.206-.21,5.873,5.873,0,0,0-2.048.268c-.406.122-1.065.423-1.108.8-.013.112-.024.305.1.339A16.689,16.689,0,0,1-2980.2,962.9Z" transform="translate(2983.362 -961.477)" fill="#2d1a10"/>
            <path id="Trazado_12398" data-name="Trazado 12398" d="M-2946.726,959.812a14.522,14.522,0,0,0-2.391.25c-.157.082-.26-.13-.261-.13a.815.815,0,0,1-.1-.4.4.4,0,0,1,.141-.257,4.341,4.341,0,0,1,1.772-.277,3.469,3.469,0,0,1,.891.12A1.728,1.728,0,0,1-2946.726,959.812Z" transform="translate(2955.972 -958.993)" fill="#2d1a10"/>
          </g>
          <g id="Grupo_12854" data-name="Grupo 12854" transform="translate(34.756 19.675)">
            <path id="Trazado_12399" data-name="Trazado 12399" d="M-2963.283,999.088c.152,0,.233.069.176.179a2.79,2.79,0,0,1-1.835,1.394,2.815,2.815,0,0,1-2.121-.916c-.093-.1-.012-.206.177-.231C-2966.886,999.515-2964.871,999.258-2963.283,999.088Z" transform="translate(2967.102 -999.088)" fill="#fff"/>
          </g>
          <path id="Trazado_12400" data-name="Trazado 12400" d="M-3074.39,1307.2a14.934,14.934,0,0,0,0,14.421c4.214,7.622,17.077,4.844,17.114-5.028C-3057.238,1306.841-3066.113,1303.112-3074.39,1307.2Z" transform="translate(3090.103 -1227.164)" fill="#0e1828"/>
          <path id="Trazado_12401" data-name="Trazado 12401" d="M-3060.82,1045.91a46.363,46.363,0,0,1,8.183,1c2.443,1.783,2.723,6.05,1.851,8.716-1,3.061-1.4,6.967-2.4,11.394-1.358,6-1.238,10.666-2.752,16.624-1.253,4.927-24.448.546-24.448.546l-4.739-23.884s-1.221-6.331,4.513-8.436a79.2,79.2,0,0,1,10.189-4.665s-.69,4.665,6.913,3.376C-3063.51,1050.581-3058.865,1049.461-3060.82,1045.91Z" transform="translate(3097.355 -1017.263)" fill="#34b5ba"/>
          <path id="Trazado_12402" data-name="Trazado 12402" d="M-3074.284,1230.8c-1.111,3.957-3.4,16.47-3.4,16.47,3.011,12.49,30.718,3.5,30.883,1.712.195-2.145-2.215-11.55-2.648-20.384C-3049.451,1228.594-3058.135,1224.452-3074.284,1230.8Z" transform="translate(3091.252 -1163.869)" fill="#34b5ba"/>
          <path id="Trazado_12403" data-name="Trazado 12403" d="M-3126.064,1092.83c-2.709,3.073-12.369,17.173-15.22,19.437-.757.6-7.241,3.341-7.167-1.674,8-17.787,13.855-25.886,13.855-25.886s6.375-2.919,9.436,2.215C-3125.16,1086.923-3124.165,1090.707-3126.064,1092.83Z" transform="translate(3148.459 -1047.959)" fill="#f5916e"/>
          <path id="Trazado_12404" data-name="Trazado 12404" d="M-3075,1084.166a6.482,6.482,0,0,1-5.313,7.469,6.481,6.481,0,0,1-7.469-5.312,6.482,6.482,0,0,1,5.313-7.469A6.481,6.481,0,0,1-3075,1084.166Z" transform="translate(3099.49 -1043.82)" fill="#f5916e"/>
          <path id="Trazado_12405" data-name="Trazado 12405" d="M-3110.271,1071.244s-5.382,2.094-7.84,6.109l-6.417,9.926s2.627,7.5,9.164,9.057l10.267-12.477S-3099.29,1076.546-3110.271,1071.244Z" transform="translate(3129.12 -1037.743)" fill="#34b5ba"/>
          <g id="Grupo_12855" data-name="Grupo 12855" transform="translate(0 61.512)">
            <path id="Trazado_12406" data-name="Trazado 12406" d="M-3140.806,1219.018a221.266,221.266,0,0,1,6.182,23.444s-.533,2.475-2.233,1.383-11.946-22.073-11.627-23.987C-3147.665,1214.943-3140.806,1219.018-3140.806,1219.018Z" transform="translate(3148.492 -1217.432)" fill="#f5916e"/>
            <path id="Trazado_12407" data-name="Trazado 12407" d="M-3085.537,1348.059l2.964,1.535,3.938.931a1.888,1.888,0,0,1-2.254,1.03,39.268,39.268,0,0,1,2.176,3.987c.571.792-.286.992-.286.992a18.259,18.259,0,0,1-3.328-3.108,44.787,44.787,0,0,0,2.976,3.861c.351.736-.49.762-.49.762-1.886-.435-3.5-3.7-3.5-3.7a25.9,25.9,0,0,0,2.443,3.6c-.017.587-.331.488-.331.488-1.547-.116-3.092-3.258-3.092-3.258l.609,1.162c.976,1.516-.189,1.414-.189,1.414l-.635-.714a10.511,10.511,0,0,1-2.3-4.61l-.94-2.989Z" transform="translate(3099.406 -1323.03)" fill="#f5916e"/>
          </g>
          <path id="Trazado_12408" data-name="Trazado 12408" d="M-2906.2,1528.324c.485-1.507,6.977-48.318,6.977-48.318.08-6.359-8.287-4.8-8.287-4.8-3,5.33-3.7,7.82-4.818,16.234-.442,3.323-1.293,34.058-1.566,36.174A8.541,8.541,0,0,0-2906.2,1528.324Z" transform="translate(2958.842 -1364.166)" fill="#0e1828"/>
        </g>
      </g>
    </g>
    <g id="Grupo_12888" data-name="Grupo 12888" transform="translate(-3164.585 868.209)">
      <path id="Trazado_12409" data-name="Trazado 12409" d="M-2291.414,1458.869c0,16.6,30.238,30.05,67.538,30.05s67.536-13.454,67.536-30.05-30.238-30.05-67.536-30.05S-2291.414,1442.272-2291.414,1458.869Z" transform="translate(2291.414 -1321.4)" fill="#e7edfb"/>
      <g id="Grupo_12887" data-name="Grupo 12887" transform="translate(28.358)">
        <g id="Grupo_12865" data-name="Grupo 12865" transform="translate(5.17 1.066)">
          <g id="Grupo_12859" data-name="Grupo 12859" transform="translate(63.513 88.307)">
            <path id="Trazado_12410" data-name="Trazado 12410" d="M-1784.961,1382.466l2.649,1.1,2.654-1.757v-47.174h-5.3Z" transform="translate(1784.961 -1334.639)" fill="#c7c9cb"/>
            <path id="Trazado_12411" data-name="Trazado 12411" d="M-1771.134,1383.57l2.654-1.757v-47.174h-2.654Z" transform="translate(1773.783 -1334.639)" fill="#c7c9cb" style="mix-blend-mode: multiply;isolation: isolate"/>
          </g>
          <g id="Grupo_12860" data-name="Grupo 12860" transform="translate(38.569 104.991)">
            <path id="Trazado_12412" data-name="Trazado 12412" d="M-1915.144,1469.537l2.649,1.1,2.653-1.757v-47.174h-5.3Z" transform="translate(1915.144 -1421.711)" fill="#c7c9cb"/>
            <path id="Trazado_12413" data-name="Trazado 12413" d="M-1901.317,1470.642l2.653-1.757v-47.174h-2.653Z" transform="translate(1903.966 -1421.711)" fill="#c7c9cb" style="mix-blend-mode: multiply;isolation: isolate"/>
          </g>
          <g id="Grupo_12861" data-name="Grupo 12861" transform="translate(25.718 72.395)">
            <path id="Trazado_12414" data-name="Trazado 12414" d="M-1982.211,1299.422l2.649,1.1,2.654-1.757V1251.6h-5.3Z" transform="translate(1982.211 -1251.595)" fill="#c7c9cb"/>
            <path id="Trazado_12415" data-name="Trazado 12415" d="M-1968.384,1300.527l2.654-1.757V1251.6h-2.654Z" transform="translate(1971.034 -1251.595)" fill="#c7c9cb" style="mix-blend-mode: multiply;isolation: isolate"/>
          </g>
          <g id="Grupo_12862" data-name="Grupo 12862" transform="translate(0.773 89.079)">
            <path id="Trazado_12416" data-name="Trazado 12416" d="M-2112.394,1386.494l2.648,1.1,2.654-1.757v-47.174h-5.3Z" transform="translate(2112.394 -1338.667)" fill="#c7c9cb"/>
            <path id="Trazado_12417" data-name="Trazado 12417" d="M-2098.572,1387.6l2.654-1.757v-47.174h-2.654Z" transform="translate(2101.22 -1338.667)" fill="#c7c9cb" style="mix-blend-mode: multiply;isolation: isolate"/>
          </g>
          <g id="Grupo_12863" data-name="Grupo 12863" transform="translate(0 67.796)">
            <path id="Trazado_12418" data-name="Trazado 12418" d="M-2116.43,1249.259l32.1-21.664,37.494,15.645-32.093,21.663Z" transform="translate(2116.43 -1227.594)" fill="#4262ab"/>
            <path id="Trazado_12419" data-name="Trazado 12419" d="M-1920.9,1330.91l32.093-21.663v8.864l-32.093,21.663-.038-.017v-8.863Z" transform="translate(1958.397 -1293.601)" fill="#283876"/>
            <path id="Trazado_12420" data-name="Trazado 12420" d="M-2078.934,1356.3l.092-.061v8.864l-.092.061-37.5-15.644v-8.864Z" transform="translate(2116.43 -1318.995)" fill="#184084"/>
          </g>
          <g id="Grupo_12864" data-name="Grupo 12864" transform="translate(20.228)">
            <path id="Trazado_12421" data-name="Trazado 12421" d="M-2010.641,922.595" transform="translate(2010.684 -913.24)" fill="#0094ac"/>
            <path id="Trazado_12422" data-name="Trazado 12422" d="M-1968.336,962.438l6.681-4.461c2.173-17.823-4.055-61.279-4.055-61.279a18.212,18.212,0,0,0-9.919-12.328l-23.7-9.889s-12.345-4.386-11.488,8.645l42.253,79.214" transform="translate(2010.864 -873.772)" fill="#283876"/>
            <path id="Trazado_12423" data-name="Trazado 12423" d="M-2010.11,905.468c3.037,11.4,7.268,33.556,4.657,62.159l37.587,15.8c-.732-39.12-3.9-57.852-5.815-65.74-1.253-6.029-6.061-6.86-6.061-6.86l-26.085-10.958S-2011.314,898.355-2010.11,905.468Z" transform="translate(2010.394 -894.758)" fill="#184084"/>
          </g>
        </g>
        <g id="Grupo_12886" data-name="Grupo 12886">
          <g id="Grupo_12868" data-name="Grupo 12868" transform="translate(0 141.584)">
            <path id="Trazado_12424" data-name="Trazado 12424" d="M-2095.161,1637.279l-.483-.09-.484-4.061,1.27-1.5Z" transform="translate(2105.188 -1626.931)" fill="#420b29"/>
            <g id="Grupo_12867" data-name="Grupo 12867">
              <path id="Trazado_12425" data-name="Trazado 12425" d="M-2090.5,1631.779l-.582.33.092-6.647,1.026-.233Z" transform="translate(2101.107 -1621.76)" fill="#0e1828"/>
              <g id="Grupo_12866" data-name="Grupo 12866">
                <path id="Trazado_12426" data-name="Trazado 12426" d="M-2129.674,1608.779l-1.079,3.563a23.98,23.98,0,0,1-2.678,4.787s-2.186,3,1.9,2.8c0,0,4.362-.233,4.3-3.03-.057-2.406,2.155-5.393,2.155-5.393a2.435,2.435,0,0,0-.285-2.872l-.756-.864-3.668-.641Z" transform="translate(2135.817 -1607.126)" fill="#df7e61"/>
                <path id="Trazado_12427" data-name="Trazado 12427" d="M-2133.668,1620.94a5.494,5.494,0,0,0,4.75-1.438c1.135-1.117,2.429-5.2,2-3.846-.177.561,1.156-4.408.8-5.184l.756.864a2.538,2.538,0,0,1,.36,2.948s-2.286,2.911-2.229,5.317c.066,2.8-4.3,3.03-4.3,3.03-2.454.12-2.647-.912-2.409-1.756A2.657,2.657,0,0,0-2133.668,1620.94Z" transform="translate(2135.814 -1609.831)" fill="#0e1828"/>
                <path id="Trazado_12428" data-name="Trazado 12428" d="M-2143.322,1650.342s-.617,1.164,1.338,1.164c0,0,7.318-.465,7.315-3.609l0-2.532s-.576,3.615-5.1,3.623c0,0-2.006,0-.97-1.279Z" transform="translate(2143.415 -1638.037)" fill="#0e1828"/>
              </g>
            </g>
          </g>
          <path id="Trazado_12429" data-name="Trazado 12429" d="M-1915.935,873.079a4.87,4.87,0,0,0,4.87,4.87,4.87,4.87,0,0,0,4.869-4.87,4.87,4.87,0,0,0-4.869-4.87A4.87,4.87,0,0,0-1915.935,873.079Z" transform="translate(1959.522 -868.209)" fill="#0b1d41"/>
          <path id="Trazado_12430" data-name="Trazado 12430" d="M-1949.453,952.4h-9.592c.436-1.4,1.34-5.012-.059-7.472l9.69-6.364S-1951.136,949.241-1949.453,952.4Z" transform="translate(1994.42 -925.082)" fill="#f5916e"/>
          <path id="Trazado_12431" data-name="Trazado 12431" d="M-1950.528,946.372a4.218,4.218,0,0,1-3.02,2.663,10.132,10.132,0,0,1-4.871.361,7.583,7.583,0,0,0-.685-4.47l9.69-6.364s-.525,3.257-.711,6.705C-1950.256,945.635-1950.384,946-1950.528,946.372Z" transform="translate(1994.42 -925.082)" fill="#d9705a"/>
          <path id="Trazado_12432" data-name="Trazado 12432" d="M-1976.814,895.3l-.508-1.443-1.244-4.244a4.279,4.279,0,0,1-.02-2.254,6.808,6.808,0,0,0,.2-3.522c-.789-3.862.925-5.879.925-5.879,2.255-3.552,7.574-3.535,7.574-3.535,6.578.342,7.115,6.711,7.115,6.711,1.057,4.238-2.323,7.755-2.328,7.761a4.676,4.676,0,0,0-.679,1.718,5.3,5.3,0,0,1-.965,1.609,11.842,11.842,0,0,1-3.372,2.707,13.017,13.017,0,0,1-5.072,1.2C-1975.863,896.117-1976.522,896.124-1976.814,895.3Z" transform="translate(2010.285 -873.231)" fill="#f5916e"/>
          <g id="Grupo_12871" data-name="Grupo 12871" transform="translate(26.034 150.512)">
            <path id="Trazado_12433" data-name="Trazado 12433" d="M-1971.146,1678.149l-.487.069-1.761-3.69.721-1.832Z" transform="translate(1979.938 -1669.06)" fill="#420b29"/>
            <g id="Grupo_12870" data-name="Grupo 12870">
              <path id="Trazado_12434" data-name="Trazado 12434" d="M-1969.85,1671.645l-.445.5-2.047-6.325.9-.55Z" transform="translate(1979.087 -1663.057)" fill="#0e1828"/>
              <g id="Grupo_12869" data-name="Grupo 12869">
                <path id="Trazado_12435" data-name="Trazado 12435" d="M-1999.778,1655.819c.1,2.97.317,6.3-.881,9.115,0,0-1.109,3.539,2.7,2.037,0,0,4.056-1.619,3.1-4.247-.827-2.261.309-5.8.309-5.8a2.433,2.433,0,0,0-1.19-2.629l-.994-.577h-3.813Z" transform="translate(2002.1 -1653.719)" fill="#f5916e"/>
                <path id="Trazado_12436" data-name="Trazado 12436" d="M-2000.512,1666.056a5.494,5.494,0,0,0,4.037-2.885c.717-1.422.63-5.708.659-4.285.012.588-.319-4.546-.9-5.167l.994.577a2.54,2.54,0,0,1,1.286,2.677s-1.232,3.49-.405,5.751c.959,2.628-3.1,4.247-3.1,4.247-2.286.9-2.8-.014-2.846-.889A2.641,2.641,0,0,0-2000.512,1666.056Z" transform="translate(2002.083 -1653.719)" fill="#0e1828"/>
                <path id="Trazado_12437" data-name="Trazado 12437" d="M-2007.537,1695.847s-.21,1.3,1.641.673c0,0,6.783-2.787,5.77-5.765l-.809-2.4s.615,3.609-3.663,5.067c0,0-1.9.644-1.328-.9Z" transform="translate(2007.544 -1681.718)" fill="#0e1828"/>
              </g>
            </g>
          </g>
          <path id="Trazado_12438" data-name="Trazado 12438" d="M-2052.092,1461.171c-.719-1.75-12.05-41-12.05-41s-1.281-3.982-.219-4.674c5.34-3.478,6.536-2.18,8.655,1.734,4.864,8.982,5.726,12.638,6.591,19.466.5,3.972,1.324,20.126,1.844,22.623C-2047.272,1459.324-2050.181,1462.791-2052.092,1461.171Z" transform="translate(2079.85 -1309.001)" fill="#161d25"/>
          <path id="Trazado_12439" data-name="Trazado 12439" d="M-1992.053,1154.977s-3.739,15.82-3.236,17.549c1.445,4.977,14.856,11.962,27.085,1.776a90.517,90.517,0,0,0-8.6-21.6S-1978.938,1154.906-1992.053,1154.977Z" transform="translate(2023.709 -1098.191)" fill="#161d25"/>
          <path id="Trazado_12440" data-name="Trazado 12440" d="M-1998.109,995.9s-4.893,9.458-7.076,14.646c.914,6.082,4.22,15.105,5.548,17.008,2.911,4.17,16.217.447,16.217.447l3.836-12.8c-11.2-4.02-5.3-15.818-5.3-15.818l-1.755-1.108s-1.791,5.8-9.077,5.592c0,0-2.394-1.559-.633-8.173A10.358,10.358,0,0,0-1998.109,995.9Z" transform="translate(2031.671 -971.266)" fill="#484092"/>
          <path id="Trazado_12441" data-name="Trazado 12441" d="M-2102.309,1226.363s-20.542,15.2-34.147,20.262c-2.028.755-5.047-7.207-5.047-7.207s14.388-17.083,21.574-22.668c4.062-3.156,13.8-8.77,13.8-8.77S-2095,1218.419-2102.309,1226.363Z" transform="translate(2141.869 -1142.876)" fill="#10171f"/>
          <path id="Trazado_12442" data-name="Trazado 12442" d="M-2132.912,1367.441c3.656,8.5,3.908,12.562,3.758,18.993-.093,4-2.032,23.556-1.854,26.1,0,0-4.642,2.209-5.78,0-.866-1.683-4.665-45.674-4.665-45.674A6.876,6.876,0,0,1-2132.912,1367.441Z" transform="translate(2141.829 -1270.308)" fill="#10171f"/>
          <g id="Grupo_12872" data-name="Grupo 12872" transform="translate(16.324 24.842)">
            <path id="Trazado_12443" data-name="Trazado 12443" d="M-2010.989,1002.38a5.625,5.625,0,0,1-4.547,6.528c-3.059.547-10.441.842-9.234-2.021,2.329-5.523,4.878-8.388,7.936-8.936S-2011.536,999.321-2010.989,1002.38Z" transform="translate(2031.286 -997.858)" fill="#df7e61"/>
            <path id="Trazado_12444" data-name="Trazado 12444" d="M-2040.532,1022.953l-2.57-5.059-5.828-.108s-7.518,13.839-8.929,17.954c-1.5,4.383,2.034,2.737,3.523,2.241C-2054.335,1037.981-2042.021,1026.255-2040.532,1022.953Z" transform="translate(2058.222 -1013.968)" fill="#df7e61"/>
          </g>
          <path id="Trazado_12445" data-name="Trazado 12445" d="M-1976.394,1001.9a5.9,5.9,0,0,1,1.917,7.184l-7.412,18s-12.02,4.088-14.931-.081c-1.328-1.9-2.558-6.95-4.172-14.228-1.1-4.947-1.171-13.588,1.614-16.147,1.605-1.476,6.8-1.446,6.84-1.62l8.421,2.711Z" transform="translate(2028.852 -970.715)" fill="#f5916e"/>
          <path id="Trazado_12446" data-name="Trazado 12446" d="M-1984.023,1150.092c-.712-.128-4.556,1.389-4.556,1.389s-2.768,11.8-2.925,13.59,12.178,11.079,25.959,5.792c0,0-6.959-16.412-7.976-19.845C-1974.687,1147.078-1984.023,1150.092-1984.023,1150.092Z" transform="translate(2020.612 -1095.189)" fill="#f5916e"/>
          <path id="Trazado_12447" data-name="Trazado 12447" d="M-2006.029,1034.876s-4.068,4.79-4.409,8.348c-.19,1.982,2.313,5.3,3.564,6.521C-2005.988,1050.611-2000.734,1038.182-2006.029,1034.876Z" transform="translate(2035.926 -1002.941)" fill="#484092"/>
          <path id="Trazado_12448" data-name="Trazado 12448" d="M-1933.819,1238.822s4.86,1.08,4.421,9.986c-.428,8.7-16.263,10.506-18.3,1.743C-1949.882,1241.118-1942.466,1235.589-1933.819,1238.822Z" transform="translate(1985.509 -1167.058)" fill="#161d25"/>
          <path id="Trazado_12449" data-name="Trazado 12449" d="M-1965.906,888.545c.034-3-.042-2.819-.042-2.819-.072-.878-1.792,1.014-1.757-.129.163-5.233-1.739-7.725-2.482-8.127a9.21,9.21,0,0,0-5.838-1.107c-2.647.469-2.546,3.993-2.546,3.993-2.255-12.9,12.13-8.776,12.13-8.776a7.972,7.972,0,0,1,6.283,8.442c.859,7.088-5.857,11.184-5.857,11.184Z" transform="translate(2010.35 -870.427)" fill="#162e5d"/>
          <g id="Grupo_12881" data-name="Grupo 12881" transform="translate(43.276 13.175)">
            <g id="Grupo_12877" data-name="Grupo 12877">
              <g id="Grupo_12876" data-name="Grupo 12876">
                <g id="Grupo_12875" data-name="Grupo 12875">
                  <g id="Grupo_12874" data-name="Grupo 12874">
                    <g id="Grupo_12873" data-name="Grupo 12873">
                      <path id="Trazado_12450" data-name="Trazado 12450" d="M-1916.853,940.889a1.412,1.412,0,0,0,.913.278,2.072,2.072,0,0,0,1.889-2.127,1.9,1.9,0,0,0-1.8-2.071,1.788,1.788,0,0,0-1.262.577,2.578,2.578,0,0,0-.389,2.106A1.95,1.95,0,0,0-1916.853,940.889Z" transform="translate(1917.56 -936.968)" fill="#f68c68"/>
                    </g>
                  </g>
                </g>
              </g>
            </g>
            <g id="Grupo_12880" data-name="Grupo 12880" transform="translate(1.059 0.666)">
              <g id="Grupo_12878" data-name="Grupo 12878" transform="translate(0.224)">
                <path id="Trazado_12451" data-name="Trazado 12451" d="M-1910.85,940.857c.06-.609,1.292-.027,1.105.316a1.876,1.876,0,0,1-.494.48.893.893,0,0,0-.377.666c0,.034-.012.14.023.165.16.11.683-.484.8-.609a1.016,1.016,0,0,0,.148-.973.61.61,0,0,0-.675-.456c-.276.016-.558.035-.542.378,0,.007.013.064.016.033Z" transform="translate(1910.866 -940.444)" fill="#e3755b"/>
              </g>
              <g id="Grupo_12879" data-name="Grupo 12879" transform="translate(0 0.986)">
                <path id="Trazado_12452" data-name="Trazado 12452" d="M-1911.4,945.649c-.129-.128-.252-.021-.382.073a.582.582,0,0,0-.221.358,1.43,1.43,0,0,0,.154,1.016.767.767,0,0,0,.66.351c.371-.01.481-.338.495-.652,0-.082.011-.282-.07-.334s-.153.082-.212.141a.521.521,0,0,1-.313.118.674.674,0,0,1-.552-.246.31.31,0,0,1-.056-.1c0,.205.012.25.033.138a.546.546,0,0,1,.07-.145c.085-.142.23-.239.326-.374.046-.062.133-.283.069-.349Z" transform="translate(1912.033 -945.59)" fill="#e3755b"/>
              </g>
            </g>
          </g>
          <g id="Grupo_12883" data-name="Grupo 12883" transform="translate(31.804 9.804)">
            <path id="Trazado_12453" data-name="Trazado 12453" d="M-1944.338,931.445c-.035.364.136.679.384.7s.477-.252.512-.616-.136-.679-.384-.7S-1944.3,931.08-1944.338,931.445Z" transform="translate(1950.683 -928.632)" fill="#2d1a10"/>
            <path id="Trazado_12454" data-name="Trazado 12454" d="M-1970.73,927.765c-.012.367.177.67.426.68s.461-.28.473-.646-.177-.67-.424-.679S-1970.716,927.4-1970.73,927.765Z" transform="translate(1972.014 -925.635)" fill="#2d1a10"/>
            <path id="Trazado_12455" data-name="Trazado 12455" d="M-1946.877,924.093c-.952-1-3.188-.919-3.188-.919s-.149-.007-.11-.463c0,0,.011-.4.335-.365C-1949.84,922.346-1947,922.157-1946.877,924.093Z" transform="translate(1955.403 -921.772)" fill="#162e5d"/>
            <path id="Trazado_12456" data-name="Trazado 12456" d="M-1977.43,919.782c.993-.8,2.819-.177,2.819-.177.322.047.227.439.227.439-.081.45-.227.418-.227.418a6.161,6.161,0,0,0-2.692-.19C-1977.347,920.11-1977.391,919.948-1977.43,919.782Z" transform="translate(1977.43 -919.373)" fill="#162e5d"/>
            <g id="Grupo_12882" data-name="Grupo 12882" transform="translate(1.72 7.433)">
              <path id="Trazado_12457" data-name="Trazado 12457" d="M-1968.251,958.164l3.6.666c.189.036.265.148.162.249a2.837,2.837,0,0,1-2.2.818,2.814,2.814,0,0,1-1.751-1.559C-1968.492,958.22-1968.4,958.153-1968.251,958.164Z" transform="translate(1968.455 -958.163)" fill="#fff"/>
            </g>
            <path id="Trazado_12458" data-name="Trazado 12458" d="M-1962.28,941.184c-1.888-.137-1.99-.632-1.99-.632l.99-1.99S-1963.508,940.553-1962.28,941.184Z" transform="translate(1966.792 -934.886)" fill="#e3755b"/>
          </g>
          <g id="Grupo_12884" data-name="Grupo 12884" transform="translate(8.767 41.809)">
            <path id="Trazado_12459" data-name="Trazado 12459" d="M-2078.908,1115.2l-13.021-5.616-5.73-23.176,13.98,5.612Z" transform="translate(2097.659 -1086.406)" fill="#b9e6fb"/>
            <path id="Trazado_12460" data-name="Trazado 12460" d="M-2089.768,1141.088a6.391,6.391,0,0,0,1.584,2.059c.788.624,2.107.435,2.615.891.884.795.256,2.94-1.61,5.09-1.619,1.868-2.814-.576-3.358-2.079-.8-2.221-.752-3.212.166-5Z" transform="translate(2092.358 -1130.61)" fill="#df7e61"/>
          </g>
          <path id="Trazado_12461" data-name="Trazado 12461" d="M-2026.338,1250.365s-18.91,17.157-31.6,24.2c-1.891,1.051-6.606-5.062-6.606-5.062s14.434-20,20.7-26.6c3.543-3.73,9.478-10.547,9.478-10.547S-2020.9,1244.445-2026.338,1250.365Z" transform="translate(2079.66 -1162.584)" fill="#161d25"/>
          <path id="Trazado_12462" data-name="Trazado 12462" d="M-1992.053,1154.977s-3.739,15.82-3.236,17.549c1.445,4.977,14.856,11.962,27.085,1.776a90.517,90.517,0,0,0-8.6-21.6S-1978.938,1154.906-1992.053,1154.977Z" transform="translate(2023.709 -1098.191)" fill="#161d25"/>
          <path id="Trazado_12463" data-name="Trazado 12463" d="M-1983.42,1028.005s-13.685,4.217-16.595.047c-1.329-1.9-4.256-11.419-5.17-17.5,2.183-5.188,7.076-14.646,7.076-14.646a10.358,10.358,0,0,1,1.759-.211c-1.761,6.614.633,8.173.633,8.173,7.286.208,9.077-5.592,9.077-5.592l1.755,1.108s-5.428,11.274,5.048,16.432C-1979.837,1015.815-1979.584,1027.91-1983.42,1028.005Z" transform="translate(2031.671 -971.266)" fill="#484092"/>
          <g id="Grupo_12885" data-name="Grupo 12885" transform="translate(46.039 31.245)">
            <path id="Trazado_12464" data-name="Trazado 12464" d="M-1903.087,1035.982a5.625,5.625,0,0,0,4.8,6.347c3.077.429,11.228-.37,9.486-2.944-3.423-5.058-5.535-7.626-8.611-8.055S-1902.659,1032.905-1903.087,1035.982Z" transform="translate(1903.141 -1031.273)" fill="#f5916e"/>
            <path id="Trazado_12465" data-name="Trazado 12465" d="M-1888.368,1055.449l2.375-5.154,5.817-.334s13.01,13.362,14.579,17.418c1.671,4.323-1.928,2.814-3.434,2.376C-1869.031,1069.756-1886.752,1058.692-1888.368,1055.449Z" transform="translate(1891.199 -1046.38)" fill="#f5916e"/>
            <path id="Trazado_12466" data-name="Trazado 12466" d="M-1829.569,1135.02s-6.081,9.432-12.366,15.251c0,0-2.806-.177-1.975-1.734,1.412-2.644,7.17-15,8.6-17.651C-1834.507,1129.394-1829.569,1135.02-1829.569,1135.02Z" transform="translate(1855.384 -1111.596)" fill="#f5916e"/>
            <path id="Trazado_12467" data-name="Trazado 12467" d="M-1878.417,1220.533l-3.177,1.026-1.468-1.775a8.487,8.487,0,0,1-.518,3.432,39.161,39.161,0,0,0-2.8,3.573c-.693.687.118,1.025.118,1.025a18.263,18.263,0,0,0,3.8-2.517,44.894,44.894,0,0,1-3.573,3.318c-.468.667.357.832.357.832,1.932-.118,4.062-3.069,4.062-3.069a25.936,25.936,0,0,1-3,3.143c-.08.582.245.536.245.536,1.545.141,3.587-2.7,3.587-2.7l-.792,1.045c-1.213,1.334-.048,1.427-.048,1.427l.743-.6a10.514,10.514,0,0,0,3.026-4.168l1.42-2.792Z" transform="translate(1889.82 -1183.663)" fill="#f5916e"/>
          </g>
          <path id="Trazado_12468" data-name="Trazado 12468" d="M-1914.12,955.907a.623.623,0,0,0,.624.624.624.624,0,0,0,.623-.624.624.624,0,0,0-.623-.624A.624.624,0,0,0-1914.12,955.907Z" transform="translate(1958.055 -938.599)" fill="#fff"/>
        </g>
      </g>
    </g>
    <g id="Grupo_12892" data-name="Grupo 12892" transform="translate(-3308.965 900.716)">
      <path id="Trazado_12469" data-name="Trazado 12469" d="M-2925.241,1769.736c-66.093,0-119.678-30.546-119.678-68.235s53.585-68.231,119.678-68.231,119.675,30.553,119.675,68.231S-2859.143,1769.736-2925.241,1769.736Z" transform="translate(3044.919 -1519.183)" fill="#e7edfb"/>
      <g id="Grupo_12891" data-name="Grupo 12891" transform="translate(15.414 0)">
        <g id="Grupo_12889" data-name="Grupo 12889" transform="translate(0 89.88)">
          <path id="Trazado_12470" data-name="Trazado 12470" d="M-2964.475,1817.168v24.074c0,32.834,46.683,59.447,104.263,59.447s104.26-26.612,104.26-59.447v-24.074Z" transform="translate(2964.475 -1757.724)" fill="#661b3a"/>
          <path id="Trazado_12471" data-name="Trazado 12471" d="M-2860.212,1625.822c-57.58,0-104.263-26.612-104.263-59.447s46.683-59.442,104.263-59.442,104.26,26.617,104.26,59.442S-2802.627,1625.822-2860.212,1625.822Z" transform="translate(2964.475 -1506.933)" fill="#bc386b"/>
          <path id="Trazado_12472" data-name="Trazado 12472" d="M-2766.839,1666.441c-45.358,0-82.131-20.962-82.131-46.828s36.773-46.824,82.131-46.824,82.129,20.967,82.129,46.824S-2721.478,1666.441-2766.839,1666.441Z" transform="translate(2871.102 -1560.17)" fill="#fff"/>
          <ellipse id="Elipse_679" data-name="Elipse 679" cx="62.192" cy="35.458" rx="62.192" ry="35.458" transform="translate(42.071 23.987)" fill="#bc386b"/>
          <path id="Trazado_12473" data-name="Trazado 12473" d="M-2592.5,1742.28c-22.537,0-40.808-10.415-40.808-23.266s18.271-23.265,40.808-23.265,40.806,10.417,40.806,23.265S-2569.961,1742.28-2592.5,1742.28Z" transform="translate(2696.761 -1659.57)" fill="#fff"/>
          <path id="Trazado_12474" data-name="Trazado 12474" d="M-2507.378,1779.307c-11.394,0-20.632-5.266-20.632-11.763s9.237-11.762,20.632-11.762,20.631,5.267,20.631,11.762S-2495.984,1779.307-2507.378,1779.307Z" transform="translate(2611.641 -1708.1)" fill="#bc386b"/>
          <path id="Trazado_12475" data-name="Trazado 12475" d="M-2449.768,1804.367c-3.854,0-6.977-1.78-6.977-3.978s3.123-3.977,6.977-3.977,6.975,1.781,6.975,3.977S-2445.916,1804.367-2449.768,1804.367Z" transform="translate(2554.031 -1740.945)" fill="#661b3a"/>
        </g>
        <g id="Grupo_12890" data-name="Grupo 12890" transform="translate(83.313)">
          <path id="Trazado_12476" data-name="Trazado 12476" d="M-2420.337,1094.145v-45.282l20.949-11v43.167Z" transform="translate(2441.287 -1037.859)" fill="#226db6"/>
          <path id="Trazado_12477" data-name="Trazado 12477" d="M-2508.72,1094.145v-45.282l-20.949-11v43.167Z" transform="translate(2529.669 -1037.859)" fill="#1ca1df"/>
          <rect id="Rectángulo_3056" data-name="Rectángulo 3056" width="7.618" height="141.638" transform="translate(17.14 8.676)" fill="#005c9c"/>
        </g>
      </g>
    </g>
    <g id="Grupo_12914" data-name="Grupo 12914" transform="translate(-3157.046 1039.093)">
      <path id="Trazado_12478" data-name="Trazado 12478" d="M-2116.994,2363.714c0,16.6-30.237,30.05-67.538,30.05s-67.535-13.453-67.535-30.05,30.237-30.049,67.535-30.049S-2116.994,2347.119-2116.994,2363.714Z" transform="translate(2252.068 -2223.752)" fill="#e7edfb"/>
      <g id="Grupo_12913" data-name="Grupo 12913" transform="translate(13.076 0)">
        <g id="Grupo_12894" data-name="Grupo 12894" transform="translate(34.841 67.208)">
          <g id="Grupo_12893" data-name="Grupo 12893" transform="translate(0 48.307)">
            <path id="Trazado_12479" data-name="Trazado 12479" d="M-1993.933,2368.783l1.371-.079c.468-.072.464.661.528.687a14.949,14.949,0,0,0,3.245,1.03s2.535-.329,2.806-1.1l-.356-4.7c-2.826-.238-5.776-.784-5.776-.784l-6.211-.873c-2.989-.312-3.532.77-3.532.77S-2003.688,2366.463-1993.933,2368.783Z" transform="translate(2001.994 -2362.904)" fill="#121315"/>
            <path id="Trazado_12480" data-name="Trazado 12480" d="M-1990.162,2370.509a7.485,7.485,0,0,0-1.606-.523c-3.064-.536-6.061-.84-8.612-2.81a2.523,2.523,0,0,1-1.107-1.792,1.109,1.109,0,0,0-.37.351s-1.83,2.733,7.925,5.053l1.371-.079c.468-.072.464.661.528.687a14.935,14.935,0,0,0,3.245,1.03s2.535-.329,2.806-1.1l-.086-1.145A4.9,4.9,0,0,1-1990.162,2370.509Z" transform="translate(2001.994 -2364.909)" fill="#050609"/>
          </g>
          <path id="Trazado_12481" data-name="Trazado 12481" d="M-1975.556,2161.156c-1.018-1.214-4.356-45.823-4.356-45.823.713-10.8,12.56,1.052,12.56,1.052,1.661,6.828-.01,6.619.512,15.09.206,3.345-.636,27.521-.512,29.652C-1967.352,2161.127-1972.645,2164.633-1975.556,2161.156Z" transform="translate(1984.143 -2110.792)" fill="#002d59"/>
        </g>
        <g id="Grupo_12900" data-name="Grupo 12900" transform="translate(32.218 76.297)">
          <g id="Grupo_12895" data-name="Grupo 12895" transform="translate(0.776 20.566)">
            <path id="Trazado_12482" data-name="Trazado 12482" d="M-2006.312,2313.512l-2.658,1.107-2.66-1.761v-47.3h5.318Z" transform="translate(2011.631 -2265.557)" fill="#c7c9cb"/>
            <path id="Trazado_12483" data-name="Trazado 12483" d="M-2008.97,2314.619l-2.66-1.761v-47.3h2.66Z" transform="translate(2011.631 -2265.557)" fill="#c7c9cb" style="mix-blend-mode: multiply;isolation: isolate"/>
          </g>
          <g id="Grupo_12896" data-name="Grupo 12896" transform="translate(25.788 37.295)">
            <path id="Trazado_12484" data-name="Trazado 12484" d="M-1875.779,2400.819l-2.657,1.107-2.661-1.762v-47.3h5.318Z" transform="translate(1881.097 -2352.864)" fill="#c7c9cb"/>
            <path id="Trazado_12485" data-name="Trazado 12485" d="M-1878.436,2401.927l-2.661-1.762v-47.3h2.661Z" transform="translate(1881.097 -2352.864)" fill="#c7c9cb" style="mix-blend-mode: multiply;isolation: isolate"/>
          </g>
          <g id="Grupo_12897" data-name="Grupo 12897" transform="translate(38.674 4.612)">
            <path id="Trazado_12486" data-name="Trazado 12486" d="M-1808.53,2230.247l-2.657,1.107-2.659-1.761v-47.3h5.316Z" transform="translate(1813.846 -2182.292)" fill="#c7c9cb"/>
            <path id="Trazado_12487" data-name="Trazado 12487" d="M-1811.187,2231.354l-2.659-1.761v-47.3h2.659Z" transform="translate(1813.846 -2182.292)" fill="#c7c9cb" style="mix-blend-mode: multiply;isolation: isolate"/>
          </g>
          <g id="Grupo_12898" data-name="Grupo 12898" transform="translate(63.685 21.34)">
            <path id="Trazado_12488" data-name="Trazado 12488" d="M-1678,2317.553l-2.657,1.107-2.661-1.762v-47.3H-1678Z" transform="translate(1683.318 -2269.598)" fill="#c7c9cb"/>
            <path id="Trazado_12489" data-name="Trazado 12489" d="M-1680.657,2318.66l-2.661-1.762v-47.3h2.661Z" transform="translate(1683.318 -2269.598)" fill="#c7c9cb" style="mix-blend-mode: multiply;isolation: isolate"/>
          </g>
          <g id="Grupo_12899" data-name="Grupo 12899">
            <path id="Trazado_12490" data-name="Trazado 12490" d="M-1945.906,2179.948l-32.182-21.723-37.6,15.687,32.179,21.722Z" transform="translate(2015.683 -2158.225)" fill="#4262ab"/>
            <path id="Trazado_12491" data-name="Trazado 12491" d="M-1983.5,2261.816l-32.179-21.722v8.888l32.179,21.721.039-.016V2261.8Z" transform="translate(2015.683 -2224.407)" fill="#283876"/>
            <path id="Trazado_12492" data-name="Trazado 12492" d="M-1848.129,2287.281l-.092-.062v8.889l.092.06,37.6-15.686v-8.888Z" transform="translate(1880.308 -2249.871)" fill="#184084"/>
          </g>
        </g>
        <path id="Trazado_12493" data-name="Trazado 12493" d="M-2171.078,2012.957" transform="translate(2173.521 -1964.495)" fill="#f68c68"/>
        <path id="Trazado_12494" data-name="Trazado 12494" d="M-2144.373,2018.373s-.767-2,1.892-2.722a33.029,33.029,0,0,0,9.422,3.527c6.509,2.187,19.914-.6,26.012-1.868,6.851-1.423,10.023,6.323,3.454,8.857-12.292,4.743-31.782-.411-40.849-7.541" transform="translate(2152.015 -1966.672)" fill="#f68c68"/>
        <path id="Trazado_12495" data-name="Trazado 12495" d="M-1970.845,2091.545c12.256,4.56,35.674,18.988,35.674,18.988s1.279,3.415-2.537,10.351c-3.825,6.955-7.635,3.879-7.083,4.187a343.9,343.9,0,0,1-33.436-26.4S-1978.613,2092.08-1970.845,2091.545Z" transform="translate(2017.625 -2028.024)" fill="#002d59"/>
        <path id="Trazado_12496" data-name="Trazado 12496" d="M-1865.009,2169.237c.779-5.292-.834-10.628-1.666-15.977h-24.057c-1.539,5.128-3.139,10.4-3.139,10.4s-1.029,12.131,9.273,13.583C-1884.6,2177.24-1866.644,2180.351-1865.009,2169.237Z" transform="translate(1949.453 -2077.914)" fill="#006d93"/>
        <g id="Grupo_12901" data-name="Grupo 12901" transform="translate(4.296 125.649)">
          <path id="Trazado_12497" data-name="Trazado 12497" d="M-2153.1,2421.367l1.363-.156c.463-.1.5.635.565.656a14.876,14.876,0,0,0,3.3.845s2.512-.472,2.741-1.254l-.623-4.677c-2.834-.078-5.809-.458-5.809-.458l-6.25-.522c-3-.143-3.482.967-3.482.967S-2162.972,2419.6-2153.1,2421.367Z" transform="translate(2161.406 -2415.789)" fill="#121315"/>
          <path id="Trazado_12498" data-name="Trazado 12498" d="M-2149.355,2423.444a7.473,7.473,0,0,0-1.633-.432c-3.089-.363-6.1-.5-8.756-2.321a2.52,2.52,0,0,1-1.205-1.727,1.1,1.1,0,0,0-.35.371s-1.674,2.831,8.2,4.6l1.363-.156c.463-.1.5.635.565.656a14.872,14.872,0,0,0,3.3.845s2.512-.472,2.741-1.254l-.151-1.139A4.9,4.9,0,0,1-2149.355,2423.444Z" transform="translate(2161.406 -2418.356)" fill="#050609"/>
        </g>
        <path id="Trazado_12499" data-name="Trazado 12499" d="M-1863.265,2179.271s-9.537,13.866-4.358,20.867c5.05,6.826,25.574-1.64,22.6-11.087C-1847.955,2179.749-1854.989,2175.182-1863.265,2179.271Z" transform="translate(1929.456 -2097.725)" fill="#154179"/>
        <path id="Trazado_12500" data-name="Trazado 12500" d="M-1888.052,2096.743c-1.113,3.957-5.7,19.056-5.7,19.056,12.571,11.854,28.794,2.456,28.958.663.2-2.145-2.2-10.335-2.634-19.169C-1867.426,2097.294-1871.9,2090.4-1888.052,2096.743Z" transform="translate(1949.332 -2030.058)" fill="#f5916e"/>
        <path id="Trazado_12501" data-name="Trazado 12501" d="M-1891.668,2454.866" transform="translate(1947.649 -2321.729)" fill="#0e1828"/>
        <path id="Trazado_12502" data-name="Trazado 12502" d="M-2056.644,2133.473c12.91,2.083,45.507,13.249,45.507,13.249s2.334,2.847-.054,10.394c-2.395,7.566-12.436,7.817-11.832,8.012a305.016,305.016,0,0,1-38.247-23.05S-2063.873,2136.179-2056.644,2133.473Z" transform="translate(2085.122 -2061.918)" fill="#154179"/>
        <path id="Trazado_12503" data-name="Trazado 12503" d="M-2111.03,2197.25c.137-1.578,9.066-48.767,9.066-48.767,2.4-5.892,8.557-1.421,8.557-1.421,1.063,4.655,3.759,11.869,1.521,20.055-.922,3.371-9.791,28.523-11.045,33.045C-2102.932,2200.161-2108.631,2202.328-2111.03,2197.25Z" transform="translate(2124.979 -2071.59)" fill="#154179"/>
        <g id="Grupo_12902" data-name="Grupo 12902" transform="translate(80.088 31.487)">
          <path id="Trazado_12504" data-name="Trazado 12504" d="M-1754.559,1940.017s1.244,20.936.45,29.388c0,0,0,3.841-6.764,5.766,0,0-2.461-23.309-4.464-33.715C-1765.338,1941.457-1761.342,1933.739-1754.559,1940.017Z" transform="translate(1765.436 -1935.029)" fill="#df7e61"/>
          <path id="Trazado_12505" data-name="Trazado 12505" d="M-1762.529,1934.762a5.475,5.475,0,0,0,7.167-2.853,5.4,5.4,0,0,0-2.884-7.106,5.477,5.477,0,0,0-7.167,2.855A5.4,5.4,0,0,0-1762.529,1934.762Z" transform="translate(1765.851 -1924.367)" fill="#df7e61"/>
        </g>
        <path id="Trazado_12506" data-name="Trazado 12506" d="M-1765.178,1919.478a7.175,7.175,0,0,1,5.209,6.879l.8,20.636a19.364,19.364,0,0,1-11.338,2.722S-1777.89,1922.157-1765.178,1919.478Z" transform="translate(1851.427 -1888.927)" fill="#ffc865"/>
        <path id="Trazado_12507" data-name="Trazado 12507" d="M-1914.743,2458.142" transform="translate(1966.302 -2324.378)" fill="#f5916e"/>
        <path id="Trazado_12508" data-name="Trazado 12508" d="M-1834.039,1851.1s-.044,7.371-.688,14.711l9.722-1.61a7.2,7.2,0,0,1,.58-6.349Z" transform="translate(1901.618 -1833.655)" fill="#f5916e"/>
        <path id="Trazado_12509" data-name="Trazado 12509" d="M-1871.229,1914.822c2.441,1.784,2.722,6.051,1.851,8.716-1,3.06-1.4,6.967-2.4,11.394-1.358,6-2.278,10.618-3.792,16.576-1.253,4.927-21.05.957-21.05.957l-7.1-24.247s-1.221-6.33,4.513-8.436a85.637,85.637,0,0,1,10.463-4.759,19.072,19.072,0,0,1,9.329-1.2A46.381,46.381,0,0,1-1871.229,1914.822Z" transform="translate(1957.478 -1884.271)" fill="#f5916e"/>
        <path id="Trazado_12510" data-name="Trazado 12510" d="M-1892.977,2175.548a14.932,14.932,0,0,0,0,14.42c4.213,7.622,17.075,4.844,17.114-5.028C-1875.826,2175.188-1884.7,2171.459-1892.977,2175.548Z" transform="translate(1950.221 -2094.608)" fill="#154179"/>
        <path id="Trazado_12511" data-name="Trazado 12511" d="M-1879.413,1914.254a46.334,46.334,0,0,1,8.184,1c2.541,1.856,2.5,5.5,2.005,8.261-.937,5.276-1.887,10.605-2.376,15.943-.218,2.365-.806,7.177-.982,9.545-.172,2.3-.9,3.562-3.249,4.776-1.787.922-3.115.19-5.061.243a98.273,98.273,0,0,1-14.743-1.013c-.207-.026-7.863,5.139-5.344,1.34l-2.738-25.7s-1.221-6.33,4.513-8.436a46.162,46.162,0,0,1,8.455-4.023S-1883.059,1916.387-1879.413,1914.254Z" transform="translate(1957.478 -1884.704)" fill="#ffc865"/>
        <path id="Trazado_12512" data-name="Trazado 12512" d="M-1854.341,1803.184l-.415-1.6-.984-5.9a5.935,5.935,0,0,1,.185-2.43,5.99,5.99,0,0,0,.3-2.491,7.26,7.26,0,0,1,1.8-6.326c2.755-3.621,8.486-3.115,8.489-3.113,2.972.449,5.569,1.677,7.047,4.389a11.059,11.059,0,0,1,1.276,8.2,16.628,16.628,0,0,1-4.79,7.493c-1.428,1.365-2.887,1.534-4.756,2.217a19.379,19.379,0,0,1-5.174.762C-1852.084,1804.39-1854.1,1804.1-1854.341,1803.184Z" transform="translate(1918.649 -1777.223)" fill="#f68c68"/>
        <path id="Trazado_12513" data-name="Trazado 12513" d="M-1847.759,1781.552l.913,3.664a1.781,1.781,0,0,1,1.317,2.23l-.331,3.026.823.316c-.068-1.212,1.613-1.229,1.613-1.229,1.229-.07,1.438.977,1.367,1.985-.182,2.618.771,6.777,2.967,7.508.867.289,2.5.59,2.775-.583.335-1.436,3.055-4.288,3.055-4.288,3.267-3.164,4.086-8.565,2.542-12.69a9.962,9.962,0,0,0-2.345-3.466,12.665,12.665,0,0,0-7.306-3.26s-3.725-.453-5.819,1.016a12.047,12.047,0,0,0-2.7,2.474S-1849.686,1779.936-1847.759,1781.552Z" transform="translate(1913.2 -1771.888)" fill="#301204"/>
        <g id="Grupo_12907" data-name="Grupo 12907" transform="translate(67.808 17.351)">
          <g id="Grupo_12906" data-name="Grupo 12906">
            <g id="Grupo_12905" data-name="Grupo 12905">
              <g id="Grupo_12904" data-name="Grupo 12904">
                <g id="Grupo_12903" data-name="Grupo 12903">
                  <path id="Trazado_12514" data-name="Trazado 12514" d="M-1829.308,1854.707a1.509,1.509,0,0,0,.956.358,2.215,2.215,0,0,0,2.16-2.143,2.032,2.032,0,0,0-1.779-2.333,1.917,1.917,0,0,0-1.386.53,2.759,2.759,0,0,0-.558,2.221A2.08,2.08,0,0,0-1829.308,1854.707Z" transform="translate(1829.942 -1850.588)" fill="#f68c68"/>
                </g>
              </g>
            </g>
          </g>
        </g>
        <g id="Grupo_12910" data-name="Grupo 12910" transform="translate(68.913 18.072)">
          <g id="Grupo_12908" data-name="Grupo 12908" transform="translate(0.338)">
            <path id="Trazado_12515" data-name="Trazado 12515" d="M-1822.394,1854.756c.106-.645,1.38.06,1.158.412a1.987,1.987,0,0,1-.559.48.958.958,0,0,0-.449.684c-.008.038-.021.151.015.179.162.128.76-.47.891-.6a1.091,1.091,0,0,0,.225-1.029.655.655,0,0,0-.691-.534c-.3,0-.6,0-.6.367,0,.009.01.069.014.036Z" transform="translate(1822.408 -1854.352)" fill="#e3755b"/>
          </g>
          <g id="Grupo_12909" data-name="Grupo 12909" transform="translate(0 1.033)">
            <path id="Trazado_12516" data-name="Trazado 12516" d="M-1823.444,1859.818c-.128-.146-.266-.041-.412.052a.619.619,0,0,0-.259.368,1.533,1.533,0,0,0,.094,1.1.824.824,0,0,0,.683.42c.4.013.535-.329.572-.662.01-.09.032-.3-.053-.363s-.167.078-.235.136a.546.546,0,0,1-.343.1.716.716,0,0,1-.573-.3.376.376,0,0,1-.052-.105q-.021.328.025.149a.547.547,0,0,1,.084-.149c.1-.146.262-.24.374-.378.052-.064.16-.293.095-.368Z" transform="translate(1824.174 -1859.746)" fill="#e3755b"/>
          </g>
        </g>
        <g id="Grupo_12911" data-name="Grupo 12911" transform="translate(1.509 45.31)">
          <path id="Trazado_12517" data-name="Trazado 12517" d="M-2174.06,1997.059c.846-.307.718-.88,1.563-.307.962.652,2.141.8,2.766,1.282,1.088.839,4.571,4.868.008,5.222-1.061.084-4.76,1.227-5.518-.461-1.119-2.492-.76-1.614,0-4.708Z" transform="translate(2175.952 -1996.508)" fill="#f5916e"/>
        </g>
        <path id="Trazado_12518" data-name="Trazado 12518" d="M-1900.267,1957.942a6.088,6.088,0,0,1-1.832,8.412,6.086,6.086,0,0,1-8.411-1.832,6.086,6.086,0,0,1,1.833-8.412A6.086,6.086,0,0,1-1900.267,1957.942Z" transform="translate(1963.661 -1917.759)" fill="#f5916e"/>
        <path id="Trazado_12519" data-name="Trazado 12519" d="M-1898.3,2077.413c-.789,8.3-1.3,28.628-1.3,28.628,2.946,7.861,31.045,1.226,31.208-.566.2-2.145-.38-17.25-.814-26.084A33.88,33.88,0,0,0-1898.3,2077.413Z" transform="translate(1954.057 -2014.673)" fill="#ffc865"/>
        <path id="Trazado_12520" data-name="Trazado 12520" d="M-1950.242,1944.148c-5.716-1.91-11.289,5.439-11.289,5.439l-11.356,9.93s2.878,10.339,8.127,11.837c0,0,13.02-6.819,17.478-14.7C-1947.282,1956.651-1944.008,1952.089-1950.242,1944.148Z" transform="translate(2013.305 -1908.614)" fill="#ffc865"/>
        <path id="Trazado_12521" data-name="Trazado 12521" d="M-1862.037,1769.615c.836.674,1.9.233,2.856.01,1.3,1.529-.257,3.057,1.718,3.8a21.864,21.864,0,0,0,3.75.692c.926.149,1.86-.065,2.522.626.717.748.038,3.077.884,3.523,1.479.781,2.64-3.269,4.526-2.948,1.609.274,1.893,2.826,1.33,4.082a1.9,1.9,0,0,1,.421-.286c.767-2,1.746-2.035,2.592-3.457,1.311-2.2,1.089-1.678,1.35-3.794,0-.019-.258-.926-.261-.937-.615-2.253-1.668-2.636-2.174-3.592a18.992,18.992,0,0,0-2.04-2.6,26.088,26.088,0,0,0-1.672-2.655,7.832,7.832,0,0,0-4.411-1.867c-1.629-.214-3.178.8-4.792.514-.662-.116-1.281-.718-1.946-.681-.81.046-1.371.85-2.07,1.164-1.3.585-3.351.349-4.463,1.265-1.23,1.012-.965,2.475-.208,3.715.424.7,1.284,1.1,1.667,1.817C-1862.352,1768.2-1862.064,1769.594-1862.037,1769.615Z" transform="translate(1925.901 -1760.037)" fill="#301204"/>
        <path id="Trazado_12522" data-name="Trazado 12522" d="M-2178.251,1987.261l-5.468-2.978s-1.2,1.124,4.47,4.167Z" transform="translate(2183.826 -1941.315)" fill="#f5916e"/>
        <g id="Grupo_12912" data-name="Grupo 12912" transform="translate(57.205 24.9)">
          <path id="Trazado_12523" data-name="Trazado 12523" d="M-1625.592,1938.942" transform="translate(1675.351 -1929.562)" fill="#0094ac"/>
          <path id="Trazado_12524" data-name="Trazado 12524" d="M-1878.12,1978.89l-6.7-4.473c-2.178-17.87,4.065-61.443,4.065-61.443a18.266,18.266,0,0,1,9.947-12.361l23.768-9.916s12.377-4.4,11.518,8.669l-42.365,79.426" transform="translate(1885.28 -1889.986)" fill="#283876"/>
          <path id="Trazado_12525" data-name="Trazado 12525" d="M-1805.557,1921.769c-3.045,11.433-7.287,33.646-4.669,62.326l-37.688,15.84c.735-39.225,3.914-58.007,5.83-65.916,1.259-6.046,6.078-6.878,6.078-6.878l26.156-10.987S-1804.349,1914.638-1805.557,1921.769Z" transform="translate(1855.074 -1911.03)" fill="#184084"/>
        </g>
      </g>
    </g>
    <g id="Grupo_12955" data-name="Grupo 12955" transform="translate(-3371.551 1043.866)">
      <path id="Trazado_12526" data-name="Trazado 12526" d="M-3371.551,2338.533c0,16.6,30.237,30.049,67.539,30.049s67.535-13.454,67.535-30.049-30.237-30.05-67.535-30.05S-3371.551,2321.937-3371.551,2338.533Z" transform="translate(3371.551 -2208.168)" fill="#e7edfb"/>
      <g id="Grupo_12954" data-name="Grupo 12954" transform="translate(22.044)">
        <g id="Grupo_12917" data-name="Grupo 12917" transform="translate(52.052 68.45)">
          <g id="Grupo_12916" data-name="Grupo 12916" transform="translate(2.032 42.405)">
            <g id="Grupo_12915" data-name="Grupo 12915" transform="translate(0.815)">
              <path id="Trazado_12527" data-name="Trazado 12527" d="M-2956.755,2366.25s3.127-.572,2.247,1.98c0,0-7.3,3.136-12.4,2.429a3.194,3.194,0,0,1-3.022-4.01l-.06-3.16,4.808.91-.273,3Z" transform="translate(2969.992 -2363.49)" fill="#df7e61"/>
            </g>
            <path id="Trazado_12528" data-name="Trazado 12528" d="M-2973.37,2376.823a2.018,2.018,0,0,0,.48,1.355c1.257,1.451,3.732,1.495,5.474,1.384a58.977,58.977,0,0,0,8.329-1.165c.6-.126.762-.321.768-.5a2.434,2.434,0,0,0-1.874-1.479l2.662-.34a6.712,6.712,0,0,1,4.146.847c.681,1.944-2.63,3.241-2.63,3.241a53.956,53.956,0,0,1-7.753,2.165s-9.347,2.2-10.477-.671Z" transform="translate(2974.245 -2373.663)" fill="#3c0e25"/>
          </g>
          <path id="Trazado_12529" data-name="Trazado 12529" d="M-2982.064,2145.02c-3.528,8.021-2.856,15.072-2.456,20.654.233,3.248,2.5,20.54,2.479,22.615a5.245,5.245,0,0,0,5.779.053c.293-1.51,3.438-43.8,3.438-43.8S-2972.4,2138.927-2982.064,2145.02Z" transform="translate(2984.85 -2142.182)" fill="#00377a"/>
        </g>
        <g id="Grupo_12921" data-name="Grupo 12921" transform="translate(66.709 70.36)">
          <g id="Grupo_12919" data-name="Grupo 12919" transform="translate(0 46.464)">
            <g id="Grupo_12918" data-name="Grupo 12918" transform="translate(0.815)">
              <path id="Trazado_12530" data-name="Trazado 12530" d="M-2890.867,2397.4s3.127-.572,2.248,1.979c0,0-7.3,3.136-12.4,2.429a3.193,3.193,0,0,1-3.022-4.009l-.06-3.16,4.809.91-.273,3Z" transform="translate(2904.104 -2394.641)" fill="#df7e61"/>
            </g>
            <path id="Trazado_12531" data-name="Trazado 12531" d="M-2907.482,2407.97a2.021,2.021,0,0,0,.48,1.355c1.258,1.451,3.732,1.5,5.474,1.384a59.079,59.079,0,0,0,8.329-1.165c.6-.126.762-.321.768-.5a2.435,2.435,0,0,0-1.874-1.478l2.662-.341a6.711,6.711,0,0,1,4.146.848c.68,1.943-2.631,3.24-2.631,3.24a53.989,53.989,0,0,1-7.753,2.166s-9.347,2.2-10.477-.671Z" transform="translate(2908.357 -2404.809)" fill="#3c0e25"/>
          </g>
          <g id="Grupo_12920" data-name="Grupo 12920" transform="translate(0.494)">
            <path id="Trazado_12532" data-name="Trazado 12532" d="M-2890.772,2156.51s-8.559,44.423-9.073,45.874c.226-.109-4.045,1.963-5.935-.711.322-2.049.5-24.614.752-27.86.429-5.58.369-10.788,5.045-18.2C-2899.983,2155.615-2888.3,2147.251-2890.772,2156.51Z" transform="translate(2905.78 -2152.149)" fill="#00479a"/>
          </g>
        </g>
        <g id="Grupo_12927" data-name="Grupo 12927" transform="translate(5.012 70.158)">
          <g id="Grupo_12922" data-name="Grupo 12922" transform="translate(63.683 20.566)">
            <path id="Trazado_12533" data-name="Trazado 12533" d="M-2897.992,2306.378l2.657,1.108,2.661-1.761v-47.3h-5.318Z" transform="translate(2897.992 -2258.424)" fill="#c7c9cb"/>
            <path id="Trazado_12534" data-name="Trazado 12534" d="M-2884.125,2307.486l2.661-1.761v-47.3h-2.661Z" transform="translate(2886.782 -2258.424)" fill="#c7c9cb" style="mix-blend-mode: multiply;isolation: isolate"/>
          </g>
          <g id="Grupo_12923" data-name="Grupo 12923" transform="translate(38.671 37.295)">
            <path id="Trazado_12535" data-name="Trazado 12535" d="M-3028.525,2393.687l2.657,1.107,2.661-1.762v-47.3h-5.318Z" transform="translate(3028.525 -2345.732)" fill="#c7c9cb"/>
            <path id="Trazado_12536" data-name="Trazado 12536" d="M-3014.658,2394.794l2.661-1.762v-47.3h-2.661Z" transform="translate(3017.315 -2345.732)" fill="#c7c9cb" style="mix-blend-mode: multiply;isolation: isolate"/>
          </g>
          <g id="Grupo_12924" data-name="Grupo 12924" transform="translate(25.787 4.611)">
            <path id="Trazado_12537" data-name="Trazado 12537" d="M-3095.766,2223.113l2.656,1.107,2.66-1.762v-47.3h-5.316Z" transform="translate(3095.766 -2175.158)" fill="#c7c9cb"/>
            <path id="Trazado_12538" data-name="Trazado 12538" d="M-3081.9,2224.22l2.66-1.762v-47.3h-2.66Z" transform="translate(3084.56 -2175.158)" fill="#c7c9cb" style="mix-blend-mode: multiply;isolation: isolate"/>
          </g>
          <g id="Grupo_12925" data-name="Grupo 12925" transform="translate(0.774 21.34)">
            <path id="Trazado_12539" data-name="Trazado 12539" d="M-3226.3,2310.419l2.657,1.108,2.661-1.762v-47.3h-5.319Z" transform="translate(3226.304 -2262.466)" fill="#c7c9cb"/>
            <path id="Trazado_12540" data-name="Trazado 12540" d="M-3212.438,2311.528l2.661-1.762v-47.3h-2.661Z" transform="translate(3215.095 -2262.466)" fill="#c7c9cb" style="mix-blend-mode: multiply;isolation: isolate"/>
          </g>
          <g id="Grupo_12926" data-name="Grupo 12926">
            <path id="Trazado_12541" data-name="Trazado 12541" d="M-3230.346,2172.815l32.18-21.722,37.6,15.687-32.179,21.721Z" transform="translate(3230.346 -2151.093)" fill="#4262ab"/>
            <path id="Trazado_12542" data-name="Trazado 12542" d="M-3034.292,2254.684l32.179-21.721v8.887l-32.179,21.721-.039-.016v-8.887Z" transform="translate(3071.89 -2217.275)" fill="#283876"/>
            <path id="Trazado_12543" data-name="Trazado 12543" d="M-3192.749,2280.145l.092-.061v8.888l-.092.06-37.6-15.685v-8.888Z" transform="translate(3230.346 -2242.736)" fill="#184084"/>
          </g>
        </g>
        <g id="Grupo_12928" data-name="Grupo 12928" transform="translate(20.416 63.218)">
          <path id="Trazado_12544" data-name="Trazado 12544" d="M-3144.326,2164.283a8.927,8.927,0,0,1,11.594,4.99,8.927,8.927,0,0,1-4.99,11.594,8.927,8.927,0,0,1-11.594-4.99A8.926,8.926,0,0,1-3144.326,2164.283Z" transform="translate(3149.952 -2154.303)" fill="#00377a"/>
          <path id="Trazado_12545" data-name="Trazado 12545" d="M-3076,2123.324s2.039-.945.6-4.71c0,0-.2-4.026-5.427-3.719-20.58,1.208-32.152,9.5-32.152,9.5s-1.351,10.4,5.051,17.044C-3107.934,2141.443-3091.348,2131.509-3076,2123.324Z" transform="translate(3120.164 -2114.878)" fill="#00377a"/>
        </g>
        <g id="Grupo_12929" data-name="Grupo 12929" transform="translate(31.253 66.144)">
          <path id="Trazado_12546" data-name="Trazado 12546" d="M-3012.9,2139.332s2.147-.663,1.224-4.588c0,0,.339-4.017-4.88-4.413-20.557-1.561-37.984,7.312-37.984,7.312s-1.914,10.038,3.541,17.477C-3051,2155.119-3029.2,2145.386-3012.9,2139.332Z" transform="translate(3062.246 -2130.146)" fill="#00479a"/>
          <path id="Trazado_12547" data-name="Trazado 12547" d="M-3077.186,2167.424a8.925,8.925,0,0,1-2.133,12.441,8.924,8.924,0,0,1-12.44-2.133,8.925,8.925,0,0,1,2.132-12.44A8.926,8.926,0,0,1-3077.186,2167.424Z" transform="translate(3093.399 -2157.233)" fill="#00479a"/>
        </g>
        <path id="Trazado_12548" data-name="Trazado 12548" d="M-3150.143,2132.954c1.079-9.925,6.058-14.532,6.058-14.532l17.253-2.179s4.774,10.124,5.271,18.559c.12,9.592-9.228,9.347-9.228,9.347S-3151.311,2146.38-3150.143,2132.954Z" transform="translate(3170.562 -2052.762)" fill="#00479a"/>
        <g id="Grupo_12932" data-name="Grupo 12932" transform="translate(12.726 23.756)">
          <g id="Grupo_12930" data-name="Grupo 12930" transform="translate(0.608 23.835)">
            <path id="Trazado_12549" data-name="Trazado 12549" d="M-3181.106,2033.321s3.142,3.7,9.394,12.636l-1.081,1.832s-10.707-5.394-14.122-11.447Z" transform="translate(3186.915 -2033.321)" fill="#df7e61"/>
          </g>
          <g id="Grupo_12931" data-name="Grupo 12931">
            <path id="Trazado_12550" data-name="Trazado 12550" d="M-3174.822,1919.521s-8.06,17.587-12.9,16.918c0,0-1.67.1-2.005-1.154,0,0-3.418-3.031,10.8-24.9a4.384,4.384,0,0,1,4.234-1.379S-3170.381,1911.859-3174.822,1919.521Z" transform="translate(3190.088 -1908.927)" fill="#df7e61"/>
          </g>
        </g>
        <g id="Grupo_12933" data-name="Grupo 12933" transform="translate(32.314 20.583)">
          <rect id="Rectángulo_3057" data-name="Rectángulo 3057" width="8.712" height="9.26" fill="#f3a67a"/>
        </g>
        <g id="Grupo_12934" data-name="Grupo 12934" transform="translate(27.624 1.288)">
          <path id="Trazado_12551" data-name="Trazado 12551" d="M-3093.546,1811.173l.326-1.48s.653-5.422.653-5.423a4.927,4.927,0,0,0-.323-2.2,5,5,0,0,1-.442-2.253,6.355,6.355,0,0,0-2.172-5.668c-2.974-3.155-8.7-2.4-8.7-2.4-2.961.563-5.5,1.815-6.832,4.36a9.24,9.24,0,0,0-.816,7.534,15.3,15.3,0,0,0,5.236,6.577c1.514,1.17,2.989,1.248,4.906,1.775a21.438,21.438,0,0,0,5.24.428C-3095.746,1812.385-3093.734,1812.023-3093.546,1811.173Z" transform="translate(3112.338 -1791.667)" fill="#f5916e"/>
        </g>
        <g id="Grupo_12935" data-name="Grupo 12935" transform="translate(42.448 15.774)">
          <path id="Trazado_12552" data-name="Trazado 12552" d="M-3034.972,1867.272" transform="translate(3034.972 -1867.272)" fill="#270b09"/>
        </g>
        <g id="Grupo_12936" data-name="Grupo 12936" transform="translate(26.695)">
          <path id="Trazado_12553" data-name="Trazado 12553" d="M-3101.432,1800.721c-.43-.61-1.995-.986-2-.986-1.892,0-1.645,2.525-1.823,3.618-.059.356-.127.722-.207,1.085-.9,3.21-3.6,3.182-5.9,3.571-.086-.05-.176-.1-.27-.153a9.257,9.257,0,0,0-1.745-2.9c-3.463-2.993-4.592-8.371-3.275-12.6a10.043,10.043,0,0,1,2.161-3.614,12.737,12.737,0,0,1,7.155-3.69c2.681-.5,12.27.8,9.653,6.62,0,0-3.946,4.552-3.75,9.055" transform="translate(3117.185 -1784.947)" fill="#270b09"/>
        </g>
        <g id="Grupo_12944" data-name="Grupo 12944" transform="translate(39.053 14.284)">
          <g id="Grupo_12940" data-name="Grupo 12940">
            <g id="Grupo_12937" data-name="Grupo 12937" transform="translate(0.21 0.176)">
              <path id="Trazado_12554" data-name="Trazado 12554" d="M-3048.409,1861.727a1.814,1.814,0,0,0-2.135-1.249,1.426,1.426,0,0,0-1.042,1.539c.014.156.048.309.063.465a3.279,3.279,0,0,0,2.027,2.294" transform="translate(3051.594 -1860.412)" fill="#f7a67b"/>
            </g>
            <g id="Grupo_12938" data-name="Grupo 12938" transform="translate(1.113 0.911)">
              <path id="Trazado_12555" data-name="Trazado 12555" d="M-3046.558,1864.365a.971.971,0,0,1,.421-.115c.636-.04,1.147.939.512,1.114a.361.361,0,0,0,.008.5c.218.238.512.579.446.914-.04.2-.26.305-.46.354-.16.04-.191-.085-.064-.146a.7.7,0,0,0,.242-.2c.005-.012.012-.022.018-.034a.084.084,0,0,0,.015-.026.207.207,0,0,0,.007-.144.391.391,0,0,1-.493-.006c-.121-.144-.029-.372-.07-.537a1.244,1.244,0,0,0-.146-.329.339.339,0,0,1,.234-.568,1.519,1.519,0,0,1,.192.015c.267-.138-.03-.538-.192-.6a.512.512,0,0,0-.555.1.79.79,0,0,0-.176.561,1.856,1.856,0,0,0,.172.672c.059.12.131.26.189.381s-.092.2-.158.059a3.943,3.943,0,0,1-.454-1.106A.839.839,0,0,1-3046.558,1864.365Z" transform="translate(3046.882 -1864.249)" fill="#d68a6a"/>
            </g>
            <g id="Grupo_12939" data-name="Grupo 12939">
              <path id="Trazado_12556" data-name="Trazado 12556" d="M-3049.294,1860.983s-.076-.109-.2-.3a2.483,2.483,0,0,0-.265-.3,2.067,2.067,0,0,0-.4-.312,1.644,1.644,0,0,0-.543-.2,1.379,1.379,0,0,0-.62.042,1.646,1.646,0,0,0-.315.133,1.494,1.494,0,0,0-.25.192,1.193,1.193,0,0,0-.331.564,1.682,1.682,0,0,0-.011.7l.023.19,0,.024v0c0-.011.005.028,0-.024v.006l0,.012.01.046.018.094a2.077,2.077,0,0,0,.091.336,2.741,2.741,0,0,0,.3.588,3.487,3.487,0,0,0,.381.472,4.32,4.32,0,0,0,.718.6c.19.125.308.189.308.189a2.14,2.14,0,0,1-.348-.114,3.625,3.625,0,0,1-.846-.484,2.865,2.865,0,0,1-.474-.465,2.487,2.487,0,0,1-.394-.647,2.575,2.575,0,0,1-.128-.38l-.023-.092-.012-.047,0-.012-.006-.037,0-.024-.028-.191a2.084,2.084,0,0,1,.009-.854,1.632,1.632,0,0,1,.466-.76c.057-.048.111-.1.172-.14l.2-.112a1.843,1.843,0,0,1,.384-.135,1.584,1.584,0,0,1,.785.012,1.706,1.706,0,0,1,.615.308,1.736,1.736,0,0,1,.384.415,2.558,2.558,0,0,1,.216.37C-3049.335,1860.856-3049.294,1860.983-3049.294,1860.983Z" transform="translate(3052.688 -1859.492)" fill="#d68a6a"/>
            </g>
          </g>
          <g id="Grupo_12943" data-name="Grupo 12943" transform="translate(2.306 3.606)">
            <g id="Grupo_12941" data-name="Grupo 12941">
              <path id="Trazado_12557" data-name="Trazado 12557" d="M-3040.655,1878.841a.529.529,0,0,0,.528.528.529.529,0,0,0,.528-.528.528.528,0,0,0-.528-.527A.528.528,0,0,0-3040.655,1878.841Z" transform="translate(3040.655 -1878.314)" fill="#fff"/>
            </g>
            <g id="Grupo_12942" data-name="Grupo 12942">
              <path id="Trazado_12558" data-name="Trazado 12558" d="M-3040.254,1879.123a.418.418,0,0,0,.418-.418.411.411,0,0,0-.291-.392h0a.528.528,0,0,1,.528.527.529.529,0,0,1-.528.528.529.529,0,0,1-.528-.528c0-.013,0-.025,0-.037A.411.411,0,0,0-3040.254,1879.123Z" transform="translate(3040.655 -1878.314)" fill="#e0e1e3"/>
            </g>
          </g>
        </g>
        <g id="Grupo_12945" data-name="Grupo 12945" transform="translate(18.226 23.771)">
          <path id="Trazado_12559" data-name="Trazado 12559" d="M-3161.285,1955.031l9.618-13.8c.449-2.028-.562-6.063-.562-6.063l-3.074-21.148c.364-2.424.531-5.5,3.812-4.951a20.323,20.323,0,0,1,4.2,1.17c-.418,1.964,2.972,3.226,2.972,3.226,4.664,2.014,5.741.687,5.741.687a69.09,69.09,0,0,1,6.526,3.664c1.132.931,1.817,2.381,1.461,4.822l-3.356,20.044.59,4.979,6.131,15.543a13.187,13.187,0,0,0-5.973-.714c-1.906.228-3.548,1.353-5.442,1.562-2.86.315-4.984-.718-7.144-2.086a34.474,34.474,0,0,1-8.269-2.906h-.179c-2.14.012-4.563-.026-6.143-1.7C-3160.71,1957.005-3161.689,1955.612-3161.285,1955.031Z" transform="translate(3161.381 -1909.003)" fill="#3c0e25"/>
        </g>
        <g id="Grupo_12946" data-name="Grupo 12946" transform="translate(41.83 32.546)">
          <path id="Trazado_12560" data-name="Trazado 12560" d="M-3028.512,1986.925l-.057-24.349c-.592-6.672-3.906-7.737-3.906-7.737-6.7-.784-5.666,11.626-5.666,11.626l2.8,20.977" transform="translate(3038.198 -1954.803)" fill="#f5916e"/>
        </g>
        <g id="Grupo_12947" data-name="Grupo 12947" transform="translate(54.087 25.451)">
          <path id="Trazado_12561" data-name="Trazado 12561" d="M-2960.887,1947.269l-13.34-5.753,10.5-23.745,14.323,5.75Z" transform="translate(2974.228 -1917.771)" fill="#fff"/>
        </g>
        <g id="Grupo_12948" data-name="Grupo 12948" transform="translate(65.925 45.434)">
          <path id="Trazado_12562" data-name="Trazado 12562" d="M-2906.347,2022.063a6.551,6.551,0,0,1-1.622,2.111c-.809.641-2.16.447-2.68.914-.907.814-3.721,4.607.338,4.619.944,0,4.194.012,4.751-1.531.825-2.278.771-3.294-.17-5.132Z" transform="translate(2912.445 -2022.063)" fill="#f5916e"/>
        </g>
        <g id="Grupo_12951" data-name="Grupo 12951" transform="translate(44.259 49.817)">
          <g id="Grupo_12949" data-name="Grupo 12949" transform="translate(0 13.14)">
            <path id="Trazado_12563" data-name="Trazado 12563" d="M-3025.519,2113.517" transform="translate(3025.519 -2113.517)" fill="#f7a67b"/>
          </g>
          <g id="Grupo_12950" data-name="Grupo 12950" transform="translate(0.132)">
            <path id="Trazado_12564" data-name="Trazado 12564" d="M-3022.076,2055.367l21.366-10.428c2.568.714,2.194,1.869,2.194,1.869l-13.121,10.5c-5.488,4.56-9.429,5.118-9.429,5.118s-3.446,1.254-3.761-3.682C-3024.827,2058.739-3024.946,2056.508-3022.076,2055.367Z" transform="translate(3024.828 -2044.939)" fill="#f5916e"/>
          </g>
        </g>
        <g id="Grupo_12952" data-name="Grupo 12952" transform="translate(19.554 0.294)">
          <path id="Trazado_12565" data-name="Trazado 12565" d="M-3129.71,1800.473c-.541,4.038.068,9.383-1.942,13.8-.9,1.965-1.884,2.938-1.347,5.217.439,1.866,1.321,3.626,1.8,5.558,1.056,4.264-.38,8.428-5.35,6.885-2.382-.74-2.648-.729-4.818.113a6.3,6.3,0,0,1-5.346.021c-2.808-1.368-1.964-3.435-3.537-5.507-1.2-1.578-2.895-1.539-3.8-3.659-1.09-2.56.208-3.926,1.538-6.1a7.988,7.988,0,0,0,1.149-6.48c-.382-2.292.184-3.451.942-5.559.779-2.159.44-4.04.808-6.206.729-4.281,3.069-10.093,7.555-11.348,2.2-.616,5.039-1.1,7.154-.321,2.881,1.056,6.088,2.183,5.963,5.725A58.365,58.365,0,0,1-3129.71,1800.473Z" transform="translate(3154.455 -1786.482)" fill="#270b09"/>
        </g>
        <path id="Trazado_12566" data-name="Trazado 12566" d="M-2905.112,2022.969s1.058,1.466,1.946-.514l-.092-2.617a.82.82,0,0,0-.546-.9s-.432,0-.53.746Z" transform="translate(2972.442 -1974.103)" fill="#f5916e"/>
        <g id="Grupo_12953" data-name="Grupo 12953" transform="translate(0 18.759)">
          <path id="Trazado_12567" data-name="Trazado 12567" d="M-3256.281,1931.809" transform="translate(3256.324 -1922.428)" fill="#0094ac"/>
          <path id="Trazado_12568" data-name="Trazado 12568" d="M-3213.86,1971.754l6.7-4.472c2.178-17.87-4.066-61.444-4.066-61.444a18.263,18.263,0,0,0-9.945-12.36l-23.77-9.917s-12.377-4.4-11.518,8.67l42.366,79.426" transform="translate(3256.504 -1882.85)" fill="#283876"/>
          <path id="Trazado_12569" data-name="Trazado 12569" d="M-3255.742,1914.634c3.044,11.433,7.287,33.646,4.667,62.326l37.69,15.84c-.735-39.224-3.915-58.006-5.831-65.916-1.258-6.046-32.233-17.865-32.233-17.865S-3256.95,1907.5-3255.742,1914.634Z" transform="translate(3256.028 -1903.895)" fill="#184084"/>
        </g>
      </g>
    </g>
  </g>
</svg>
