<svg xmlns="http://www.w3.org/2000/svg" width="108.795" height="103.234" viewBox="0 0 108.795 103.234">
  <g id="Grupo_11904" data-name="Grupo 11904" transform="translate(-347.418 -2322.384)">
    <path id="Trazado_12403" data-name="Trazado 12403" d="M-1875.37,363.37h71.6l37.192,50.053-37.192,53.181h-71.6Z" transform="translate(2222.788 1959.013)" fill="#ee8d3f"/>
    <path id="Trazado_14731" data-name="Trazado 14731" d="M11.973,39.391a8.8,8.8,0,0,1-7.588-3.652Q1.738,32.086,1.738,24.879q0-7.227,2.637-10.859a8.813,8.813,0,0,1,7.6-3.633,8.793,8.793,0,0,1,7.578,3.633q2.637,3.633,2.637,10.859,0,7.207-2.646,10.859A8.783,8.783,0,0,1,11.973,39.391Zm0-5.078A3.711,3.711,0,0,0,15.361,32q1.2-2.314,1.2-7.119T15.352,17.76a3.718,3.718,0,0,0-3.379-2.314q-4.609,0-4.609,9.434T11.973,34.313Zm21.738-.332H45.742V39H25.84V34.762L37.07,23.3a7.067,7.067,0,0,0,2.441-4.863,3.44,3.44,0,0,0-1.006-2.617,3.96,3.96,0,0,0-2.842-.957q-4,0-4,4.551V21.5l-5.605-.566V19.527a8.8,8.8,0,0,1,2.578-6.787,9.874,9.874,0,0,1,6.992-2.393,10.343,10.343,0,0,1,6.807,2.168,7.307,7.307,0,0,1,2.627,5.957,8.448,8.448,0,0,1-.889,3.867,16.164,16.164,0,0,1-2.822,3.77Z" transform="translate(368 2349)" fill="#fff"/>
  </g>
</svg>
