<svg id="Grupo_18080" data-name="Grupo 18080" xmlns="http://www.w3.org/2000/svg" width="64.144" height="60.865" viewBox="0 0 64.144 60.865">
  <path id="Trazado_12403" data-name="Trazado 12403" d="M-1875.37,363.37h42.217l21.928,29.511-21.928,31.355h-42.217Z" transform="translate(1875.37 -363.37)" fill="#97181a"/>
  <path id="Trazado_14731" data-name="Trazado 14731" d="M7.772,27.471A5.19,5.19,0,0,1,3.3,25.318q-1.56-2.153-1.56-6.4t1.555-6.4a5.2,5.2,0,0,1,4.48-2.142,5.184,5.184,0,0,1,4.468,2.142q1.555,2.142,1.555,6.4t-1.56,6.4A5.178,5.178,0,0,1,7.772,27.471Zm0-2.994a2.188,2.188,0,0,0,2-1.365,9.5,9.5,0,0,0,.708-4.2,9.433,9.433,0,0,0-.714-4.2,2.192,2.192,0,0,0-1.992-1.365q-2.718,0-2.718,5.562T7.772,24.477Zm12.817-.2h7.094v2.959H15.948v-2.5l6.621-6.76a4.167,4.167,0,0,0,1.439-2.867,2.028,2.028,0,0,0-.593-1.543,2.335,2.335,0,0,0-1.675-.564q-2.361,0-2.361,2.683v1.232l-3.3-.334V15.76a5.189,5.189,0,0,1,1.52-4,5.822,5.822,0,0,1,4.123-1.411,6.1,6.1,0,0,1,4.013,1.278,4.308,4.308,0,0,1,1.549,3.512,4.981,4.981,0,0,1-.524,2.28,9.53,9.53,0,0,1-1.664,2.222Z" transform="translate(11.422 11.446)" fill="#fff"/>
</svg>
