<svg xmlns="http://www.w3.org/2000/svg" width="821.611" height="423.22" viewBox="0 0 821.611 423.22">
  <g id="Grupo_13057" data-name="Grupo 13057" transform="translate(-281.389 -11122)">
    <rect id="Rectángulo_2963" data-name="Rectángulo 2963" width="360" height="151" transform="translate(363 11122)" fill="#df6448"/>
    <rect id="Rectángulo_3073" data-name="Rectángulo 3073" width="360" height="151" transform="translate(363 11300)" fill="#b52426"/>
    <rect id="Rectángulo_3072" data-name="Rectángulo 3072" width="360" height="151" transform="translate(743 11122)" fill="#d64626"/>
    <rect id="Rectángulo_3074" data-name="Rectángulo 3074" width="360" height="151" transform="translate(743 11300)" fill="#97181a"/>
    <path id="Trazado_17264" data-name="Trazado 17264" d="M118.029,19V6.4h4.465q6.715,0,6.715,6.144a6.212,6.212,0,0,1-1.833,4.7A6.757,6.757,0,0,1,122.494,19Zm2.839-10.292V16.7h1.406a3.8,3.8,0,0,0,2.9-1.107,4.2,4.2,0,0,0,1.05-3.015,3.812,3.812,0,0,0-1.042-2.834,3.971,3.971,0,0,0-2.922-1.033Zm11.566-.132a1.622,1.622,0,0,1-1.151-.417,1.345,1.345,0,0,1-.448-1.024,1.3,1.3,0,0,1,.448-1.02,1.88,1.88,0,0,1,2.307,0,1.3,1.3,0,0,1,.444,1.02,1.34,1.34,0,0,1-.444,1.037A1.65,1.65,0,0,1,132.434,8.576ZM133.805,19h-2.777V10h2.777Zm8.209-11.2a2.806,2.806,0,0,0-1.028-.211q-1.336,0-1.336,1.45V10h2.057v2.048H139.65V19h-2.769V12.048H135.37V10h1.512V8.884a3.24,3.24,0,0,1,1-2.479,3.821,3.821,0,0,1,2.725-.94,4.785,4.785,0,0,1,1.406.176Zm9.114,7.488h-5.871q.141,1.96,2.47,1.96a4.822,4.822,0,0,0,2.61-.7v2a6.858,6.858,0,0,1-3.243.668,4.565,4.565,0,0,1-3.384-1.208,4.566,4.566,0,0,1-1.2-3.371,4.816,4.816,0,0,1,1.3-3.551,4.334,4.334,0,0,1,3.2-1.31,3.933,3.933,0,0,1,3.045,1.169,4.5,4.5,0,0,1,1.077,3.173Zm-2.575-1.705q0-1.934-1.564-1.934a1.494,1.494,0,0,0-1.156.554,2.513,2.513,0,0,0-.593,1.38Zm10.1-1.081a2.409,2.409,0,0,0-1.169-.272,1.684,1.684,0,0,0-1.415.664,2.9,2.9,0,0,0-.51,1.806V19h-2.777V10h2.777v1.67h.035a2.4,2.4,0,0,1,2.373-1.828,1.788,1.788,0,0,1,.686.105Zm9.308,2.786h-5.871q.141,1.96,2.47,1.96a4.822,4.822,0,0,0,2.61-.7v2a6.858,6.858,0,0,1-3.243.668,4.565,4.565,0,0,1-3.384-1.208,4.566,4.566,0,0,1-1.2-3.371,4.816,4.816,0,0,1,1.3-3.551,4.334,4.334,0,0,1,3.2-1.31,3.933,3.933,0,0,1,3.045,1.169,4.5,4.5,0,0,1,1.077,3.173Zm-2.575-1.705q0-1.934-1.564-1.934a1.494,1.494,0,0,0-1.156.554,2.513,2.513,0,0,0-.593,1.38ZM178.3,19h-2.769V14q0-2.092-1.494-2.092a1.483,1.483,0,0,0-1.187.554,2.109,2.109,0,0,0-.466,1.406V19h-2.777V10h2.777v1.424h.035a3.183,3.183,0,0,1,2.892-1.644q2.988,0,2.988,3.709Zm9.018-.325a5.492,5.492,0,0,1-2.716.545,4.593,4.593,0,0,1-3.357-1.257,4.341,4.341,0,0,1-1.283-3.243,4.782,4.782,0,0,1,1.375-3.617,5.083,5.083,0,0,1,3.678-1.323,4.72,4.72,0,0,1,2.3.422v2.355a3.166,3.166,0,0,0-1.942-.65,2.559,2.559,0,0,0-1.894.7,2.607,2.607,0,0,0-.7,1.929,2.565,2.565,0,0,0,.668,1.876,2.455,2.455,0,0,0,1.837.681,3.666,3.666,0,0,0,2.03-.65Zm3.226-10.1a1.622,1.622,0,0,1-1.151-.417,1.345,1.345,0,0,1-.448-1.024,1.3,1.3,0,0,1,.448-1.02,1.88,1.88,0,0,1,2.307,0,1.3,1.3,0,0,1,.444,1.02,1.34,1.34,0,0,1-.444,1.037A1.65,1.65,0,0,1,190.547,8.576ZM191.918,19h-2.777V10h2.777Zm9.826,0h-2.628V17.708h-.035A2.933,2.933,0,0,1,196.4,19.22a2.8,2.8,0,0,1-2.061-.743,2.661,2.661,0,0,1-.751-1.982q0-2.619,3.1-3.023l2.443-.325q0-1.477-1.6-1.477a5.46,5.46,0,0,0-3.059.958V10.536a6.881,6.881,0,0,1,1.586-.527A8.339,8.339,0,0,1,197.9,9.78q3.85,0,3.85,3.841Zm-2.61-3.656v-.606l-1.635.211q-1.354.176-1.354,1.222a1.01,1.01,0,0,0,.33.778,1.266,1.266,0,0,0,.892.3,1.644,1.644,0,0,0,1.274-.541A1.952,1.952,0,0,0,199.134,15.344Zm11.628,3.331a5.492,5.492,0,0,1-2.716.545,4.593,4.593,0,0,1-3.357-1.257,4.341,4.341,0,0,1-1.283-3.243,4.782,4.782,0,0,1,1.375-3.617,5.083,5.083,0,0,1,3.678-1.323,4.72,4.72,0,0,1,2.3.422v2.355a3.166,3.166,0,0,0-1.942-.65,2.559,2.559,0,0,0-1.894.7,2.607,2.607,0,0,0-.7,1.929,2.565,2.565,0,0,0,.668,1.876,2.455,2.455,0,0,0,1.837.681,3.666,3.666,0,0,0,2.03-.65Zm3.226-10.1a1.622,1.622,0,0,1-1.151-.417,1.345,1.345,0,0,1-.448-1.024,1.3,1.3,0,0,1,.448-1.02,1.88,1.88,0,0,1,2.307,0,1.3,1.3,0,0,1,.444,1.02,1.34,1.34,0,0,1-.444,1.037A1.65,1.65,0,0,1,213.988,8.576ZM215.359,19h-2.777V10h2.777Zm6.627.22a4.838,4.838,0,0,1-3.538-1.261,4.573,4.573,0,0,1-1.288-3.423,4.573,4.573,0,0,1,1.336-3.494,5.048,5.048,0,0,1,3.612-1.261,4.78,4.78,0,0,1,3.516,1.261,4.483,4.483,0,0,1,1.274,3.335,4.759,4.759,0,0,1-1.314,3.542A4.892,4.892,0,0,1,221.986,19.22Zm.07-7.312a1.852,1.852,0,0,0-1.529.677,2.984,2.984,0,0,0-.545,1.916q0,2.593,2.092,2.593,2,0,2-2.663Q224.069,11.907,222.056,11.907Zm2.979-6.17-2.751,2.839h-2l2.285-2.839ZM237.384,19h-2.769V14q0-2.092-1.494-2.092a1.483,1.483,0,0,0-1.187.554,2.109,2.109,0,0,0-.466,1.406V19h-2.777V10h2.777v1.424h.035A3.183,3.183,0,0,1,234.4,9.78q2.988,0,2.988,3.709Z" transform="translate(363 11186)" fill="#fff"/>
    <path id="Trazado_17268" data-name="Trazado 17268" d="M76.826,18.517V15.7a5.4,5.4,0,0,0,1.661.962,5.34,5.34,0,0,0,1.811.321,4.015,4.015,0,0,0,.936-.1,2.193,2.193,0,0,0,.668-.268,1.169,1.169,0,0,0,.4-.4,1.009,1.009,0,0,0,.132-.505,1.092,1.092,0,0,0-.211-.659,2.27,2.27,0,0,0-.576-.536,6.015,6.015,0,0,0-.866-.475q-.5-.229-1.081-.466a5.517,5.517,0,0,1-2.2-1.5,3.281,3.281,0,0,1-.725-2.145,3.416,3.416,0,0,1,.4-1.692,3.359,3.359,0,0,1,1.077-1.165A4.828,4.828,0,0,1,79.823,6.4a8.106,8.106,0,0,1,1.9-.215,11.418,11.418,0,0,1,1.745.119,6.861,6.861,0,0,1,1.4.365V9.3a4.239,4.239,0,0,0-.69-.387,5.466,5.466,0,0,0-.769-.277,5.866,5.866,0,0,0-.787-.163,5.567,5.567,0,0,0-.743-.053A3.873,3.873,0,0,0,81,8.51a2.254,2.254,0,0,0-.668.259,1.29,1.29,0,0,0-.422.4.948.948,0,0,0-.149.523,1,1,0,0,0,.167.567,1.916,1.916,0,0,0,.475.475,5.037,5.037,0,0,0,.747.439q.439.215.993.444a11.067,11.067,0,0,1,1.358.672,4.827,4.827,0,0,1,1.033.8,3.133,3.133,0,0,1,.659,1.024,3.618,3.618,0,0,1,.229,1.34,3.59,3.59,0,0,1-.4,1.771,3.247,3.247,0,0,1-1.085,1.16,4.707,4.707,0,0,1-1.6.637,9.219,9.219,0,0,1-1.92.193,10.678,10.678,0,0,1-1.973-.176A5.956,5.956,0,0,1,76.826,18.517Zm18.483-3.226H89.438q.141,1.96,2.47,1.96a4.822,4.822,0,0,0,2.61-.7v2a6.858,6.858,0,0,1-3.243.668,4.565,4.565,0,0,1-3.384-1.208,4.566,4.566,0,0,1-1.2-3.371,4.816,4.816,0,0,1,1.3-3.551,4.334,4.334,0,0,1,3.2-1.31,3.933,3.933,0,0,1,3.045,1.169,4.5,4.5,0,0,1,1.077,3.173Zm-2.575-1.705q0-1.934-1.564-1.934a1.494,1.494,0,0,0-1.156.554,2.513,2.513,0,0,0-.593,1.38Zm13.052,4.386a5.092,5.092,0,0,1-1.45,3.88,5.877,5.877,0,0,1-4.2,1.375,6.659,6.659,0,0,1-2.883-.519V20.371a5.521,5.521,0,0,0,2.8.809,3.02,3.02,0,0,0,2.18-.743,2.665,2.665,0,0,0,.773-2.017v-.712h-.035a3.1,3.1,0,0,1-2.8,1.512,3.372,3.372,0,0,1-2.733-1.213,4.919,4.919,0,0,1-1.011-3.252,5.478,5.478,0,0,1,1.125-3.63,3.673,3.673,0,0,1,2.962-1.345,2.733,2.733,0,0,1,2.461,1.266h.035V10h2.777Zm-2.742-3.3v-.712a2.188,2.188,0,0,0-.505-1.455,1.635,1.635,0,0,0-1.314-.6,1.7,1.7,0,0,0-1.45.721,3.389,3.389,0,0,0-.527,2.03,2.86,2.86,0,0,0,.5,1.78,1.633,1.633,0,0,0,1.371.655,1.7,1.7,0,0,0,1.393-.664A2.721,2.721,0,0,0,103.043,14.676ZM122.4,19h-2.769V13.867q0-1.96-1.441-1.96a1.324,1.324,0,0,0-1.116.589,2.42,2.42,0,0,0-.431,1.468V19h-2.777V13.814q0-1.907-1.415-1.907a1.356,1.356,0,0,0-1.138.563A2.475,2.475,0,0,0,110.883,14v5h-2.777V10h2.777v1.406h.035a3.41,3.41,0,0,1,2.909-1.626,2.592,2.592,0,0,1,2.61,1.679,3.329,3.329,0,0,1,3.023-1.679q2.936,0,2.936,3.621Zm10.283-3.709h-5.871q.141,1.96,2.47,1.96a4.822,4.822,0,0,0,2.61-.7v2a6.858,6.858,0,0,1-3.243.668,4.565,4.565,0,0,1-3.384-1.208,4.566,4.566,0,0,1-1.2-3.371,4.816,4.816,0,0,1,1.3-3.551,4.334,4.334,0,0,1,3.2-1.31,3.933,3.933,0,0,1,3.045,1.169,4.5,4.5,0,0,1,1.077,3.173ZM130.1,13.586q0-1.934-1.564-1.934a1.494,1.494,0,0,0-1.156.554,2.513,2.513,0,0,0-.593,1.38ZM143.025,19h-2.769V14q0-2.092-1.494-2.092a1.483,1.483,0,0,0-1.187.554,2.109,2.109,0,0,0-.466,1.406V19h-2.777V10h2.777v1.424h.035a3.183,3.183,0,0,1,2.892-1.644q2.988,0,2.988,3.709Zm7.638-.105a4.105,4.105,0,0,1-1.854.325q-2.936,0-2.936-3.05V12.048h-1.459V10h1.459V8.058l2.769-.791V10h2.021v2.048h-2.021v3.639q0,1.406,1.116,1.406a1.882,1.882,0,0,0,.905-.255Zm9.053.105h-2.628V17.708h-.035a2.933,2.933,0,0,1-2.681,1.512,2.8,2.8,0,0,1-2.061-.743,2.661,2.661,0,0,1-.751-1.982q0-2.619,3.1-3.023l2.443-.325q0-1.477-1.6-1.477a5.46,5.46,0,0,0-3.059.958V10.536a6.881,6.881,0,0,1,1.586-.527,8.339,8.339,0,0,1,1.833-.229q3.85,0,3.85,3.841Zm-2.61-3.656v-.606l-1.635.211q-1.354.176-1.354,1.222a1.01,1.01,0,0,0,.33.778,1.266,1.266,0,0,0,.892.3,1.644,1.644,0,0,0,1.274-.541A1.952,1.952,0,0,0,157.1,15.344Zm11.628,3.331a5.492,5.492,0,0,1-2.716.545,4.593,4.593,0,0,1-3.357-1.257,4.341,4.341,0,0,1-1.283-3.243,4.782,4.782,0,0,1,1.375-3.617A5.083,5.083,0,0,1,166.43,9.78a4.72,4.72,0,0,1,2.3.422v2.355a3.166,3.166,0,0,0-1.942-.65,2.559,2.559,0,0,0-1.894.7,2.607,2.607,0,0,0-.7,1.929,2.565,2.565,0,0,0,.668,1.876,2.455,2.455,0,0,0,1.837.681,3.666,3.666,0,0,0,2.03-.65Zm3.226-10.1a1.622,1.622,0,0,1-1.151-.417,1.345,1.345,0,0,1-.448-1.024,1.3,1.3,0,0,1,.448-1.02,1.88,1.88,0,0,1,2.307,0,1.3,1.3,0,0,1,.444,1.02,1.34,1.34,0,0,1-.444,1.037A1.65,1.65,0,0,1,171.958,8.576ZM173.33,19h-2.777V10h2.777Zm6.627.22a4.838,4.838,0,0,1-3.538-1.261,4.573,4.573,0,0,1-1.288-3.423,4.573,4.573,0,0,1,1.336-3.494A5.048,5.048,0,0,1,180.08,9.78a4.78,4.78,0,0,1,3.516,1.261,4.483,4.483,0,0,1,1.274,3.335,4.759,4.759,0,0,1-1.314,3.542A4.892,4.892,0,0,1,179.957,19.22Zm.07-7.312a1.852,1.852,0,0,0-1.529.677,2.984,2.984,0,0,0-.545,1.916q0,2.593,2.092,2.593,2,0,2-2.663Q182.04,11.907,180.027,11.907Zm2.979-6.17-2.751,2.839h-2l2.285-2.839ZM195.355,19h-2.769V14q0-2.092-1.494-2.092a1.483,1.483,0,0,0-1.187.554,2.109,2.109,0,0,0-.466,1.406V19h-2.777V10h2.777v1.424h.035a3.183,3.183,0,0,1,2.892-1.644q2.988,0,2.988,3.709ZM210.6,15.291h-5.871q.141,1.96,2.47,1.96a4.822,4.822,0,0,0,2.61-.7v2a6.858,6.858,0,0,1-3.243.668,4.565,4.565,0,0,1-3.384-1.208,4.566,4.566,0,0,1-1.2-3.371,4.816,4.816,0,0,1,1.3-3.551,4.334,4.334,0,0,1,3.2-1.31,3.933,3.933,0,0,1,3.045,1.169,4.5,4.5,0,0,1,1.077,3.173Zm-2.575-1.705q0-1.934-1.564-1.934a1.494,1.494,0,0,0-1.156.554,2.513,2.513,0,0,0-.593,1.38ZM220.949,19H218.18V14q0-2.092-1.494-2.092a1.483,1.483,0,0,0-1.187.554,2.109,2.109,0,0,0-.466,1.406V19h-2.777V10h2.777v1.424h.035A3.183,3.183,0,0,1,217.96,9.78q2.988,0,2.988,3.709Zm8.068-11.2a2.806,2.806,0,0,0-1.028-.211q-1.336,0-1.336,1.45V10h2.057v2.048h-2.057V19h-2.769V12.048h-1.512V10h1.512V8.884a3.24,3.24,0,0,1,1-2.479,3.821,3.821,0,0,1,2.725-.94,4.785,4.785,0,0,1,1.406.176Zm5.317,11.417a4.838,4.838,0,0,1-3.538-1.261,4.573,4.573,0,0,1-1.288-3.423,4.573,4.573,0,0,1,1.336-3.494,5.048,5.048,0,0,1,3.612-1.261,4.78,4.78,0,0,1,3.516,1.261,4.483,4.483,0,0,1,1.274,3.335,4.759,4.759,0,0,1-1.314,3.542A4.892,4.892,0,0,1,234.334,19.22Zm.07-7.312a1.852,1.852,0,0,0-1.529.677,2.984,2.984,0,0,0-.545,1.916q0,2.593,2.092,2.593,2,0,2-2.663Q236.417,11.907,234.4,11.907Zm13.465,6.768a5.492,5.492,0,0,1-2.716.545,4.593,4.593,0,0,1-3.357-1.257,4.341,4.341,0,0,1-1.283-3.243,4.782,4.782,0,0,1,1.375-3.617,5.083,5.083,0,0,1,3.678-1.323,4.72,4.72,0,0,1,2.3.422v2.355a3.166,3.166,0,0,0-1.942-.65,2.559,2.559,0,0,0-1.894.7,2.607,2.607,0,0,0-.7,1.929A2.565,2.565,0,0,0,244,16.412a2.455,2.455,0,0,0,1.837.681,3.666,3.666,0,0,0,2.03-.65Zm9.308.325h-2.628V17.708h-.035a2.933,2.933,0,0,1-2.681,1.512,2.8,2.8,0,0,1-2.061-.743,2.661,2.661,0,0,1-.751-1.982q0-2.619,3.1-3.023l2.443-.325q0-1.477-1.6-1.477a5.46,5.46,0,0,0-3.059.958V10.536a6.881,6.881,0,0,1,1.586-.527,8.339,8.339,0,0,1,1.833-.229q3.85,0,3.85,3.841Zm-2.61-3.656v-.606l-1.635.211q-1.354.176-1.354,1.222a1.01,1.01,0,0,0,.33.778,1.266,1.266,0,0,0,.892.3,1.644,1.644,0,0,0,1.274-.541A1.952,1.952,0,0,0,254.567,15.344ZM268.181,19H265.4V17.761h-.035a3.114,3.114,0,0,1-2.786,1.459,3.412,3.412,0,0,1-2.716-1.191,4.93,4.93,0,0,1-1.028-3.327,5.366,5.366,0,0,1,1.134-3.577,3.7,3.7,0,0,1,2.971-1.345,2.527,2.527,0,0,1,2.426,1.248h.035V5.676h2.777Zm-2.725-4.377v-.677a2.13,2.13,0,0,0-.51-1.459,1.8,1.8,0,0,0-2.769.145,3.367,3.367,0,0,0-.519,1.991,2.914,2.914,0,0,0,.5,1.828,1.779,1.779,0,0,0,2.764-.035A2.821,2.821,0,0,0,265.457,14.623ZM278.007,19h-2.628V17.708h-.035a2.933,2.933,0,0,1-2.681,1.512,2.8,2.8,0,0,1-2.061-.743,2.661,2.661,0,0,1-.751-1.982q0-2.619,3.1-3.023l2.443-.325q0-1.477-1.6-1.477a5.46,5.46,0,0,0-3.059.958V10.536a6.881,6.881,0,0,1,1.586-.527,8.339,8.339,0,0,1,1.833-.229q3.85,0,3.85,3.841Zm-2.61-3.656v-.606l-1.635.211q-1.354.176-1.354,1.222a1.01,1.01,0,0,0,.33.778,1.266,1.266,0,0,0,.892.3,1.644,1.644,0,0,0,1.274-.541A1.952,1.952,0,0,0,275.4,15.344Z" transform="translate(363 11353)" fill="#fff"/>
    <path id="Trazado_17270" data-name="Trazado 17270" d="M103.681,19H96.175V6.4h2.839V16.7h4.667Zm2.83-10.424a1.622,1.622,0,0,1-1.151-.417,1.345,1.345,0,0,1-.448-1.024,1.3,1.3,0,0,1,.448-1.02,1.88,1.88,0,0,1,2.307,0,1.3,1.3,0,0,1,.444,1.02,1.34,1.34,0,0,1-.444,1.037A1.65,1.65,0,0,1,106.511,8.576ZM107.882,19H105.1V10h2.777Zm11.145,0h-2.777V17.761h-.035a3.114,3.114,0,0,1-2.786,1.459,3.412,3.412,0,0,1-2.716-1.191,4.93,4.93,0,0,1-1.028-3.327,5.366,5.366,0,0,1,1.134-3.577,3.7,3.7,0,0,1,2.971-1.345,2.527,2.527,0,0,1,2.426,1.248h.035V5.676h2.777ZM116.3,14.623v-.677a2.13,2.13,0,0,0-.51-1.459,1.8,1.8,0,0,0-2.769.145,3.367,3.367,0,0,0-.519,1.991,2.914,2.914,0,0,0,.5,1.828,1.779,1.779,0,0,0,2.764-.035A2.821,2.821,0,0,0,116.3,14.623Zm13.148.668h-5.871q.141,1.96,2.47,1.96a4.822,4.822,0,0,0,2.61-.7v2a6.858,6.858,0,0,1-3.243.668,4.565,4.565,0,0,1-3.384-1.208,4.566,4.566,0,0,1-1.2-3.371,4.816,4.816,0,0,1,1.3-3.551,4.334,4.334,0,0,1,3.2-1.31,3.933,3.933,0,0,1,3.045,1.169,4.5,4.5,0,0,1,1.077,3.173Zm-2.575-1.705q0-1.934-1.564-1.934a1.494,1.494,0,0,0-1.156.554,2.513,2.513,0,0,0-.593,1.38Zm10.1-1.081a2.409,2.409,0,0,0-1.169-.272,1.684,1.684,0,0,0-1.415.664,2.9,2.9,0,0,0-.51,1.806V19H131.1V10h2.777v1.67h.035a2.4,2.4,0,0,1,2.373-1.828,1.788,1.788,0,0,1,.686.105Zm8.78,6.5h-2.628V17.708h-.035a2.933,2.933,0,0,1-2.681,1.512,2.8,2.8,0,0,1-2.061-.743A2.661,2.661,0,0,1,137.6,16.5q0-2.619,3.1-3.023l2.443-.325q0-1.477-1.6-1.477a5.46,5.46,0,0,0-3.059.958V10.536a6.881,6.881,0,0,1,1.586-.527A8.339,8.339,0,0,1,141.9,9.78q3.85,0,3.85,3.841Zm-2.61-3.656v-.606l-1.635.211q-1.354.176-1.354,1.222a1.01,1.01,0,0,0,.33.778,1.266,1.266,0,0,0,.892.3,1.644,1.644,0,0,0,1.274-.541A1.952,1.952,0,0,0,143.144,15.344ZM155.079,19H147V17.849l4.518-5.8H147.45V10h7.594v1.371l-4.28,5.581h4.315ZM165.4,17.972a5.092,5.092,0,0,1-1.45,3.88,5.877,5.877,0,0,1-4.2,1.375,6.659,6.659,0,0,1-2.883-.519V20.371a5.521,5.521,0,0,0,2.8.809,3.02,3.02,0,0,0,2.18-.743,2.665,2.665,0,0,0,.773-2.017v-.712h-.035a3.1,3.1,0,0,1-2.8,1.512,3.372,3.372,0,0,1-2.733-1.213,4.919,4.919,0,0,1-1.011-3.252,5.478,5.478,0,0,1,1.125-3.63,3.673,3.673,0,0,1,2.962-1.345,2.733,2.733,0,0,1,2.461,1.266h.035V10H165.4Zm-2.742-3.3v-.712a2.188,2.188,0,0,0-.505-1.455,1.635,1.635,0,0,0-1.314-.6,1.7,1.7,0,0,0-1.45.721,3.389,3.389,0,0,0-.527,2.03,2.86,2.86,0,0,0,.5,1.78,1.633,1.633,0,0,0,1.371.655,1.7,1.7,0,0,0,1.393-.664A2.721,2.721,0,0,0,162.655,14.676Zm9.352,4.544a4.838,4.838,0,0,1-3.538-1.261,4.573,4.573,0,0,1-1.288-3.423,4.573,4.573,0,0,1,1.336-3.494A5.048,5.048,0,0,1,172.13,9.78a4.78,4.78,0,0,1,3.516,1.261,4.483,4.483,0,0,1,1.274,3.335,4.759,4.759,0,0,1-1.314,3.542A4.892,4.892,0,0,1,172.007,19.22Zm.07-7.312a1.852,1.852,0,0,0-1.529.677A2.984,2.984,0,0,0,170,14.5q0,2.593,2.092,2.593,2,0,2-2.663Q174.09,11.907,172.077,11.907Zm19.7,3.384H185.9q.141,1.96,2.47,1.96a4.822,4.822,0,0,0,2.61-.7v2a6.858,6.858,0,0,1-3.243.668,4.565,4.565,0,0,1-3.384-1.208,4.566,4.566,0,0,1-1.2-3.371,4.816,4.816,0,0,1,1.3-3.551,4.334,4.334,0,0,1,3.2-1.31,3.933,3.933,0,0,1,3.045,1.169,4.5,4.5,0,0,1,1.077,3.173ZM189.2,13.586q0-1.934-1.564-1.934a1.494,1.494,0,0,0-1.156.554,2.513,2.513,0,0,0-.593,1.38ZM202.118,19H199.35V14q0-2.092-1.494-2.092a1.483,1.483,0,0,0-1.187.554,2.109,2.109,0,0,0-.466,1.406V19h-2.777V10H196.2v1.424h.035A3.183,3.183,0,0,1,199.13,9.78q2.988,0,2.988,3.709Zm13.983-.325a5.492,5.492,0,0,1-2.716.545,4.593,4.593,0,0,1-3.357-1.257,4.341,4.341,0,0,1-1.283-3.243,4.782,4.782,0,0,1,1.375-3.617A5.083,5.083,0,0,1,213.8,9.78a4.72,4.72,0,0,1,2.3.422v2.355a3.166,3.166,0,0,0-1.942-.65,2.559,2.559,0,0,0-1.894.7,2.607,2.607,0,0,0-.7,1.929,2.565,2.565,0,0,0,.668,1.876,2.455,2.455,0,0,0,1.837.681,3.666,3.666,0,0,0,2.03-.65Zm6.108.545a4.838,4.838,0,0,1-3.538-1.261,4.573,4.573,0,0,1-1.288-3.423,4.573,4.573,0,0,1,1.336-3.494,5.048,5.048,0,0,1,3.612-1.261,4.78,4.78,0,0,1,3.516,1.261,4.483,4.483,0,0,1,1.274,3.335,4.759,4.759,0,0,1-1.314,3.542A4.892,4.892,0,0,1,222.21,19.22Zm.07-7.312a1.852,1.852,0,0,0-1.529.677,2.984,2.984,0,0,0-.545,1.916q0,2.593,2.092,2.593,2,0,2-2.663Q224.293,11.907,222.28,11.907Zm6.056,6.855v-2.25a5.913,5.913,0,0,0,1.367.615,4.531,4.531,0,0,0,1.288.2,2.762,2.762,0,0,0,1.165-.2.653.653,0,0,0,.426-.615.569.569,0,0,0-.193-.439,1.8,1.8,0,0,0-.5-.308,5.635,5.635,0,0,0-.664-.237q-.36-.105-.694-.237a6.653,6.653,0,0,1-.945-.435,2.731,2.731,0,0,1-.686-.541,2.125,2.125,0,0,1-.422-.712,2.841,2.841,0,0,1-.145-.958,2.466,2.466,0,0,1,.33-1.3,2.692,2.692,0,0,1,.879-.892,4.016,4.016,0,0,1,1.257-.51,6.553,6.553,0,0,1,1.472-.163,8.168,8.168,0,0,1,1.213.092,9.053,9.053,0,0,1,1.213.268v2.145a4.383,4.383,0,0,0-1.129-.461,4.764,4.764,0,0,0-1.182-.154,2.619,2.619,0,0,0-.514.048,1.693,1.693,0,0,0-.426.141.783.783,0,0,0-.29.237.546.546,0,0,0-.105.33.609.609,0,0,0,.158.422,1.374,1.374,0,0,0,.413.3,4.078,4.078,0,0,0,.567.229q.312.1.62.207a8.056,8.056,0,0,1,1,.422,3.2,3.2,0,0,1,.769.536,2.105,2.105,0,0,1,.492.721,2.884,2.884,0,0,1-.176,2.351,2.78,2.78,0,0,1-.923.923,4.185,4.185,0,0,1-1.327.519,7.357,7.357,0,0,1-1.56.163A8.042,8.042,0,0,1,228.336,18.763Zm13.948.132a4.105,4.105,0,0,1-1.854.325q-2.936,0-2.936-3.05V12.048h-1.459V10h1.459V8.058l2.769-.791V10h2.021v2.048h-2.021v3.639q0,1.406,1.116,1.406a1.882,1.882,0,0,0,.905-.255Zm9.58-3.6h-5.871q.141,1.96,2.47,1.96a4.822,4.822,0,0,0,2.61-.7v2a6.858,6.858,0,0,1-3.243.668,4.565,4.565,0,0,1-3.384-1.208,4.566,4.566,0,0,1-1.2-3.371,4.816,4.816,0,0,1,1.3-3.551,4.334,4.334,0,0,1,3.2-1.31,3.933,3.933,0,0,1,3.045,1.169,4.5,4.5,0,0,1,1.077,3.173Zm-2.575-1.705q0-1.934-1.564-1.934a1.494,1.494,0,0,0-1.156.554,2.513,2.513,0,0,0-.593,1.38Zm3.639,5.177v-2.25a5.913,5.913,0,0,0,1.367.615,4.531,4.531,0,0,0,1.288.2,2.762,2.762,0,0,0,1.165-.2.653.653,0,0,0,.426-.615.569.569,0,0,0-.193-.439,1.8,1.8,0,0,0-.5-.308,5.635,5.635,0,0,0-.664-.237q-.36-.105-.694-.237a6.653,6.653,0,0,1-.945-.435,2.731,2.731,0,0,1-.686-.541,2.125,2.125,0,0,1-.422-.712,2.841,2.841,0,0,1-.145-.958,2.466,2.466,0,0,1,.33-1.3,2.692,2.692,0,0,1,.879-.892,4.016,4.016,0,0,1,1.257-.51,6.553,6.553,0,0,1,1.472-.163,8.168,8.168,0,0,1,1.213.092,9.053,9.053,0,0,1,1.213.268v2.145a4.383,4.383,0,0,0-1.129-.461,4.764,4.764,0,0,0-1.182-.154,2.619,2.619,0,0,0-.514.048,1.693,1.693,0,0,0-.426.141.783.783,0,0,0-.29.237.546.546,0,0,0-.105.33.609.609,0,0,0,.158.422,1.374,1.374,0,0,0,.413.3,4.078,4.078,0,0,0,.567.229q.312.1.62.207a8.056,8.056,0,0,1,1,.422,3.2,3.2,0,0,1,.769.536,2.105,2.105,0,0,1,.492.721,2.884,2.884,0,0,1-.176,2.351,2.78,2.78,0,0,1-.923.923,4.185,4.185,0,0,1-1.327.519,7.357,7.357,0,0,1-1.56.163A8.042,8.042,0,0,1,252.928,18.763Z" transform="translate(743 11186)" fill="#fff"/>
    <path id="Trazado_17269" data-name="Trazado 17269" d="M62.768,18.517V15.7a5.4,5.4,0,0,0,1.661.962,5.34,5.34,0,0,0,1.811.321,4.015,4.015,0,0,0,.936-.1,2.193,2.193,0,0,0,.668-.268,1.169,1.169,0,0,0,.4-.4,1.009,1.009,0,0,0,.132-.505,1.092,1.092,0,0,0-.211-.659,2.27,2.27,0,0,0-.576-.536,6.015,6.015,0,0,0-.866-.475q-.5-.229-1.081-.466a5.517,5.517,0,0,1-2.2-1.5,3.281,3.281,0,0,1-.725-2.145,3.416,3.416,0,0,1,.4-1.692,3.359,3.359,0,0,1,1.077-1.165A4.828,4.828,0,0,1,65.765,6.4a8.106,8.106,0,0,1,1.9-.215,11.418,11.418,0,0,1,1.745.119,6.861,6.861,0,0,1,1.4.365V9.3a4.239,4.239,0,0,0-.69-.387,5.466,5.466,0,0,0-.769-.277,5.866,5.866,0,0,0-.787-.163,5.567,5.567,0,0,0-.743-.053,3.873,3.873,0,0,0-.879.092,2.254,2.254,0,0,0-.668.259,1.29,1.29,0,0,0-.422.4.948.948,0,0,0-.149.523,1,1,0,0,0,.167.567,1.916,1.916,0,0,0,.475.475,5.037,5.037,0,0,0,.747.439q.439.215.993.444a11.067,11.067,0,0,1,1.358.672,4.827,4.827,0,0,1,1.033.8,3.133,3.133,0,0,1,.659,1.024,3.618,3.618,0,0,1,.229,1.34,3.59,3.59,0,0,1-.4,1.771,3.247,3.247,0,0,1-1.085,1.16,4.707,4.707,0,0,1-1.6.637,9.219,9.219,0,0,1-1.92.193,10.678,10.678,0,0,1-1.973-.176A5.956,5.956,0,0,1,62.768,18.517Zm18.483-3.226H75.38q.141,1.96,2.47,1.96a4.822,4.822,0,0,0,2.61-.7v2a6.858,6.858,0,0,1-3.243.668,4.565,4.565,0,0,1-3.384-1.208,4.566,4.566,0,0,1-1.2-3.371,4.816,4.816,0,0,1,1.3-3.551,4.334,4.334,0,0,1,3.2-1.31,3.933,3.933,0,0,1,3.045,1.169,4.5,4.5,0,0,1,1.077,3.173Zm-2.575-1.705q0-1.934-1.564-1.934a1.494,1.494,0,0,0-1.156.554,2.513,2.513,0,0,0-.593,1.38Zm13.052,4.386a5.092,5.092,0,0,1-1.45,3.88,5.877,5.877,0,0,1-4.2,1.375,6.659,6.659,0,0,1-2.883-.519V20.371a5.521,5.521,0,0,0,2.8.809,3.02,3.02,0,0,0,2.18-.743,2.665,2.665,0,0,0,.773-2.017v-.712h-.035a3.1,3.1,0,0,1-2.8,1.512,3.372,3.372,0,0,1-2.733-1.213,4.919,4.919,0,0,1-1.011-3.252,5.478,5.478,0,0,1,1.125-3.63A3.673,3.673,0,0,1,86.454,9.78a2.733,2.733,0,0,1,2.461,1.266h.035V10h2.777Zm-2.742-3.3v-.712a2.188,2.188,0,0,0-.505-1.455,1.635,1.635,0,0,0-1.314-.6,1.7,1.7,0,0,0-1.45.721,3.389,3.389,0,0,0-.527,2.03,2.86,2.86,0,0,0,.5,1.78,1.633,1.633,0,0,0,1.371.655,1.7,1.7,0,0,0,1.393-.664A2.721,2.721,0,0,0,88.985,14.676ZM108.339,19H105.57V13.867q0-1.96-1.441-1.96a1.324,1.324,0,0,0-1.116.589,2.42,2.42,0,0,0-.431,1.468V19H99.8V13.814q0-1.907-1.415-1.907a1.356,1.356,0,0,0-1.138.563A2.475,2.475,0,0,0,96.825,14v5H94.048V10h2.777v1.406h.035A3.41,3.41,0,0,1,99.77,9.78a2.592,2.592,0,0,1,2.61,1.679A3.329,3.329,0,0,1,105.4,9.78q2.936,0,2.936,3.621Zm10.283-3.709h-5.871q.141,1.96,2.47,1.96a4.822,4.822,0,0,0,2.61-.7v2a6.858,6.858,0,0,1-3.243.668,4.565,4.565,0,0,1-3.384-1.208,4.566,4.566,0,0,1-1.2-3.371,4.816,4.816,0,0,1,1.3-3.551,4.334,4.334,0,0,1,3.2-1.31,3.933,3.933,0,0,1,3.045,1.169,4.5,4.5,0,0,1,1.077,3.173Zm-2.575-1.705q0-1.934-1.564-1.934a1.494,1.494,0,0,0-1.156.554,2.513,2.513,0,0,0-.593,1.38ZM128.967,19H126.2V14q0-2.092-1.494-2.092a1.483,1.483,0,0,0-1.187.554,2.109,2.109,0,0,0-.466,1.406V19h-2.777V10h2.777v1.424h.035a3.183,3.183,0,0,1,2.892-1.644q2.988,0,2.988,3.709Zm7.638-.105a4.105,4.105,0,0,1-1.854.325q-2.936,0-2.936-3.05V12.048h-1.459V10h1.459V8.058l2.769-.791V10H136.6v2.048h-2.021v3.639q0,1.406,1.116,1.406a1.882,1.882,0,0,0,.905-.255Zm9.053.105h-2.628V17.708h-.035a2.933,2.933,0,0,1-2.681,1.512,2.8,2.8,0,0,1-2.061-.743A2.661,2.661,0,0,1,137.5,16.5q0-2.619,3.1-3.023l2.443-.325q0-1.477-1.6-1.477a5.46,5.46,0,0,0-3.059.958V10.536a6.881,6.881,0,0,1,1.586-.527,8.339,8.339,0,0,1,1.833-.229q3.85,0,3.85,3.841Zm-2.61-3.656v-.606l-1.635.211q-1.354.176-1.354,1.222a1.01,1.01,0,0,0,.33.778,1.266,1.266,0,0,0,.892.3,1.644,1.644,0,0,0,1.274-.541A1.952,1.952,0,0,0,143.047,15.344Zm11.628,3.331a5.492,5.492,0,0,1-2.716.545,4.593,4.593,0,0,1-3.357-1.257,4.341,4.341,0,0,1-1.283-3.243,4.782,4.782,0,0,1,1.375-3.617,5.083,5.083,0,0,1,3.678-1.323,4.72,4.72,0,0,1,2.3.422v2.355a3.166,3.166,0,0,0-1.942-.65,2.559,2.559,0,0,0-1.894.7,2.607,2.607,0,0,0-.7,1.929,2.565,2.565,0,0,0,.668,1.876,2.455,2.455,0,0,0,1.837.681,3.666,3.666,0,0,0,2.03-.65Zm3.226-10.1a1.622,1.622,0,0,1-1.151-.417,1.345,1.345,0,0,1-.448-1.024,1.3,1.3,0,0,1,.448-1.02,1.88,1.88,0,0,1,2.307,0,1.3,1.3,0,0,1,.444,1.02,1.34,1.34,0,0,1-.444,1.037A1.65,1.65,0,0,1,157.9,8.576ZM159.271,19h-2.777V10h2.777Zm6.627.22a4.838,4.838,0,0,1-3.538-1.261,4.573,4.573,0,0,1-1.288-3.423,4.573,4.573,0,0,1,1.336-3.494,5.048,5.048,0,0,1,3.612-1.261,4.78,4.78,0,0,1,3.516,1.261,4.483,4.483,0,0,1,1.274,3.335,4.759,4.759,0,0,1-1.314,3.542A4.892,4.892,0,0,1,165.9,19.22Zm.07-7.312a1.852,1.852,0,0,0-1.529.677,2.984,2.984,0,0,0-.545,1.916q0,2.593,2.092,2.593,2,0,2-2.663Q167.981,11.907,165.969,11.907Zm2.979-6.17L166.2,8.576h-2l2.285-2.839ZM181.3,19h-2.769V14q0-2.092-1.494-2.092a1.483,1.483,0,0,0-1.187.554,2.109,2.109,0,0,0-.466,1.406V19H172.6V10h2.777v1.424h.035a3.183,3.183,0,0,1,2.892-1.644q2.988,0,2.988,3.709Zm13.983-.325a5.492,5.492,0,0,1-2.716.545,4.593,4.593,0,0,1-3.357-1.257,4.341,4.341,0,0,1-1.283-3.243A4.782,4.782,0,0,1,189.3,11.1a5.083,5.083,0,0,1,3.678-1.323,4.72,4.72,0,0,1,2.3.422v2.355a3.166,3.166,0,0,0-1.942-.65,2.559,2.559,0,0,0-1.894.7,2.607,2.607,0,0,0-.7,1.929,2.565,2.565,0,0,0,.668,1.876,2.455,2.455,0,0,0,1.837.681,3.666,3.666,0,0,0,2.03-.65Zm6.108.545a4.838,4.838,0,0,1-3.538-1.261,4.573,4.573,0,0,1-1.288-3.423,4.573,4.573,0,0,1,1.336-3.494,5.048,5.048,0,0,1,3.612-1.261,4.78,4.78,0,0,1,3.516,1.261,4.483,4.483,0,0,1,1.274,3.335,4.759,4.759,0,0,1-1.314,3.542A4.892,4.892,0,0,1,201.389,19.22Zm.07-7.312a1.852,1.852,0,0,0-1.529.677,2.984,2.984,0,0,0-.545,1.916q0,2.593,2.092,2.593,2,0,2-2.663Q203.472,11.907,201.459,11.907ZM216.8,19h-2.769V14q0-2.092-1.494-2.092a1.483,1.483,0,0,0-1.187.554,2.109,2.109,0,0,0-.466,1.406V19H208.1V10h2.777v1.424h.035a3.183,3.183,0,0,1,2.892-1.644q2.988,0,2.988,3.709Zm15.249-3.709h-5.871q.141,1.96,2.47,1.96a4.822,4.822,0,0,0,2.61-.7v2a6.858,6.858,0,0,1-3.243.668,4.565,4.565,0,0,1-3.384-1.208,4.566,4.566,0,0,1-1.2-3.371,4.816,4.816,0,0,1,1.3-3.551,4.334,4.334,0,0,1,3.2-1.31,3.933,3.933,0,0,1,3.045,1.169,4.5,4.5,0,0,1,1.077,3.173Zm-2.575-1.705q0-1.934-1.564-1.934a1.494,1.494,0,0,0-1.156.554,2.513,2.513,0,0,0-.593,1.38ZM242.39,19h-2.769V14q0-2.092-1.494-2.092a1.483,1.483,0,0,0-1.187.554,2.109,2.109,0,0,0-.466,1.406V19H233.7V10h2.777v1.424h.035A3.183,3.183,0,0,1,239.4,9.78q2.988,0,2.988,3.709Zm8.068-11.2a2.806,2.806,0,0,0-1.028-.211q-1.336,0-1.336,1.45V10h2.057v2.048h-2.057V19h-2.769V12.048h-1.512V10h1.512V8.884a3.24,3.24,0,0,1,1-2.479,3.821,3.821,0,0,1,2.725-.94,4.785,4.785,0,0,1,1.406.176Zm5.317,11.417a4.838,4.838,0,0,1-3.538-1.261,4.573,4.573,0,0,1-1.288-3.423,4.573,4.573,0,0,1,1.336-3.494A5.048,5.048,0,0,1,255.9,9.78a4.78,4.78,0,0,1,3.516,1.261,4.483,4.483,0,0,1,1.274,3.335,4.759,4.759,0,0,1-1.314,3.542A4.892,4.892,0,0,1,255.775,19.22Zm.07-7.312a1.852,1.852,0,0,0-1.529.677,2.984,2.984,0,0,0-.545,1.916q0,2.593,2.092,2.593,2,0,2-2.663Q257.858,11.907,255.846,11.907ZM271.3,23.14H268.52V17.761h-.035a3.085,3.085,0,0,1-2.769,1.459,3.446,3.446,0,0,1-2.729-1.182,4.881,4.881,0,0,1-1.033-3.318,5.394,5.394,0,0,1,1.134-3.595,3.679,3.679,0,0,1,2.953-1.345,2.678,2.678,0,0,1,2.443,1.266h.035V10H271.3ZM268.572,14.7v-.721a2.2,2.2,0,0,0-.51-1.477,1.643,1.643,0,0,0-1.31-.6,1.7,1.7,0,0,0-1.45.725,3.359,3.359,0,0,0-.527,2.008,2.835,2.835,0,0,0,.514,1.8,1.629,1.629,0,0,0,1.34.65,1.722,1.722,0,0,0,1.411-.659A2.673,2.673,0,0,0,268.572,14.7ZM282.187,19h-2.769V17.629h-.044a3.141,3.141,0,0,1-2.751,1.591q-3.129,0-3.129-3.788V10h2.769v5.186q0,1.907,1.512,1.907a1.5,1.5,0,0,0,1.2-.523,2.109,2.109,0,0,0,.448-1.419V10h2.769Zm10.424-3.709h-5.871q.141,1.96,2.47,1.96a4.822,4.822,0,0,0,2.61-.7v2a6.858,6.858,0,0,1-3.243.668,4.565,4.565,0,0,1-3.384-1.208,4.566,4.566,0,0,1-1.2-3.371,4.816,4.816,0,0,1,1.3-3.551,4.334,4.334,0,0,1,3.2-1.31,3.933,3.933,0,0,1,3.045,1.169,4.5,4.5,0,0,1,1.077,3.173Zm-2.575-1.705q0-1.934-1.564-1.934a1.494,1.494,0,0,0-1.156.554,2.513,2.513,0,0,0-.593,1.38Z" transform="translate(743 11353)" fill="#fff"/>
    <path id="Trazado_17271" data-name="Trazado 17271" d="M47.224,19h-6.68V6.4h6.4V7.732H42.021v4.192h4.553v1.327H42.021v4.412h5.2Zm8.807-9-3.023,4.553L55.978,19H54.3l-1.767-2.918q-.167-.272-.4-.686H52.1q-.044.079-.413.686L49.887,19H48.226l3.067-4.412L48.357,10h1.679l1.74,3.076q.193.343.378.7h.035L54.439,10Zm7.822,8.587a4.684,4.684,0,0,1-2.461.624,4.074,4.074,0,0,1-3.107-1.252A4.539,4.539,0,0,1,57.1,14.711a4.99,4.99,0,0,1,1.274-3.573,4.458,4.458,0,0,1,3.4-1.349,4.735,4.735,0,0,1,2.092.439v1.477a3.665,3.665,0,0,0-2.145-.7,2.9,2.9,0,0,0-2.263.989,3.752,3.752,0,0,0-.883,2.6,3.573,3.573,0,0,0,.831,2.5A2.863,2.863,0,0,0,61.638,18a3.613,3.613,0,0,0,2.215-.782ZM67.474,19H66.032V5.676h1.441Zm10.2,0H76.228V17.576h-.035a2.96,2.96,0,0,1-2.777,1.635q-3.217,0-3.217-3.832V10h1.433v5.15q0,2.848,2.18,2.848a2.205,2.205,0,0,0,1.736-.778,2.976,2.976,0,0,0,.681-2.035V10h1.441Zm2.364-.325V17.128a4.266,4.266,0,0,0,2.593.87q1.9,0,1.9-1.266a1.1,1.1,0,0,0-.163-.611,1.62,1.62,0,0,0-.439-.444,3.383,3.383,0,0,0-.65-.347q-.374-.154-.8-.321a10.357,10.357,0,0,1-1.05-.479,3.173,3.173,0,0,1-.756-.545,2.028,2.028,0,0,1-.457-.69,2.441,2.441,0,0,1-.154-.905,2.15,2.15,0,0,1,.29-1.121,2.572,2.572,0,0,1,.773-.817,3.607,3.607,0,0,1,1.1-.5A4.893,4.893,0,0,1,83.5,9.789a5.164,5.164,0,0,1,2.092.4v1.459A4.077,4.077,0,0,0,83.3,11a2.671,2.671,0,0,0-.729.092,1.786,1.786,0,0,0-.558.259,1.2,1.2,0,0,0-.36.4,1.053,1.053,0,0,0-.127.514,1.233,1.233,0,0,0,.127.589,1.3,1.3,0,0,0,.374.422,2.855,2.855,0,0,0,.6.334q.352.149.8.325a11.131,11.131,0,0,1,1.072.47,3.678,3.678,0,0,1,.809.545,2.129,2.129,0,0,1,.514.7,2.254,2.254,0,0,1,.18.94,2.217,2.217,0,0,1-.294,1.16,2.523,2.523,0,0,1-.787.817,3.6,3.6,0,0,1-1.134.483,5.6,5.6,0,0,1-1.345.158A5.106,5.106,0,0,1,80.033,18.675Zm8.921-10.96a.913.913,0,0,1-.659-.264.89.89,0,0,1-.272-.668.923.923,0,0,1,.932-.94.931.931,0,0,1,.672.268.939.939,0,0,1,0,1.332A.923.923,0,0,1,88.954,7.715ZM89.657,19H88.216V10h1.441Zm9.993-9-3.586,9H94.649l-3.41-9h1.582l2.285,6.539a5.869,5.869,0,0,1,.316,1.257h.035a5.943,5.943,0,0,1,.281-1.222L98.13,10Zm2.285-2.285a.913.913,0,0,1-.659-.264A.89.89,0,0,1,101,6.783a.923.923,0,0,1,.932-.94.931.931,0,0,1,.672.268.939.939,0,0,1,0,1.332A.923.923,0,0,1,101.936,7.715Zm.7,11.285H101.2V10h1.441Zm10.6,0H111.8V17.471h-.035a3.327,3.327,0,0,1-3.094,1.74A3.362,3.362,0,0,1,105.957,18a4.958,4.958,0,0,1-1.015-3.292,5.394,5.394,0,0,1,1.125-3.577,3.71,3.71,0,0,1,3-1.345,2.885,2.885,0,0,1,2.7,1.459h.035V5.676h1.441ZM111.8,14.931V13.6a2.575,2.575,0,0,0-.721-1.846A2.417,2.417,0,0,0,109.248,11a2.489,2.489,0,0,0-2.074.967,4.237,4.237,0,0,0-.756,2.672,3.81,3.81,0,0,0,.725,2.457,2.37,2.37,0,0,0,1.947.9,2.462,2.462,0,0,0,1.956-.87A3.242,3.242,0,0,0,111.8,14.931ZM122.6,19h-1.441V17.594h-.035a3.018,3.018,0,0,1-2.769,1.617,2.959,2.959,0,0,1-2.1-.712,2.466,2.466,0,0,1-.76-1.89q0-2.522,2.971-2.936l2.7-.378Q121.157,11,119.3,11a4.431,4.431,0,0,0-2.936,1.107V10.633a5.577,5.577,0,0,1,3.059-.844q3.173,0,3.173,3.357Zm-1.441-4.553-2.171.3a3.525,3.525,0,0,0-1.512.5,1.432,1.432,0,0,0-.51,1.261,1.374,1.374,0,0,0,.47,1.077,1.817,1.817,0,0,0,1.252.417,2.314,2.314,0,0,0,1.771-.751,2.685,2.685,0,0,0,.7-1.9ZM133,19h-1.441V17.471h-.035a3.327,3.327,0,0,1-3.094,1.74A3.362,3.362,0,0,1,125.714,18a4.958,4.958,0,0,1-1.015-3.292,5.394,5.394,0,0,1,1.125-3.577,3.71,3.71,0,0,1,3-1.345,2.885,2.885,0,0,1,2.7,1.459h.035V5.676H133Zm-1.441-4.069V13.6a2.575,2.575,0,0,0-.721-1.846A2.417,2.417,0,0,0,129.006,11a2.489,2.489,0,0,0-2.074.967,4.237,4.237,0,0,0-.756,2.672A3.81,3.81,0,0,0,126.9,17.1a2.37,2.37,0,0,0,1.947.9,2.462,2.462,0,0,0,1.956-.87A3.242,3.242,0,0,0,131.555,14.931ZM142.321,17.7h-.035v5.44h-1.441V10h1.441v1.582h.035a3.408,3.408,0,0,1,3.111-1.793A3.3,3.3,0,0,1,148.148,11a5.005,5.005,0,0,1,.976,3.239,5.578,5.578,0,0,1-1.1,3.617,3.658,3.658,0,0,1-3.006,1.358A3.011,3.011,0,0,1,142.321,17.7Zm-.035-3.63v1.257a2.676,2.676,0,0,0,.725,1.894A2.587,2.587,0,0,0,146.9,17a4.6,4.6,0,0,0,.743-2.786,3.629,3.629,0,0,0-.694-2.355A2.3,2.3,0,0,0,145.072,11a2.554,2.554,0,0,0-2.021.875A3.211,3.211,0,0,0,142.286,14.069Zm16.374.791h-6.354a3.366,3.366,0,0,0,.809,2.32,2.788,2.788,0,0,0,2.127.817,4.422,4.422,0,0,0,2.795-1V18.35a5.224,5.224,0,0,1-3.138.861,3.8,3.8,0,0,1-3-1.226,5.018,5.018,0,0,1-1.09-3.45A4.921,4.921,0,0,1,152,11.112a3.819,3.819,0,0,1,2.958-1.323,3.384,3.384,0,0,1,2.733,1.143,4.764,4.764,0,0,1,.967,3.173Zm-1.477-1.222a2.933,2.933,0,0,0-.6-1.942A2.051,2.051,0,0,0,154.934,11a2.328,2.328,0,0,0-1.731.729,3.31,3.31,0,0,0-.879,1.907Zm8.35-2.18a1.763,1.763,0,0,0-1.09-.29,1.839,1.839,0,0,0-1.542.87,4.023,4.023,0,0,0-.62,2.373V19H160.84V10h1.441v1.854h.035a3.143,3.143,0,0,1,.94-1.481,2.144,2.144,0,0,1,1.415-.532,2.353,2.353,0,0,1,.861.123Zm7.7,7.128a4.684,4.684,0,0,1-2.461.624,4.074,4.074,0,0,1-3.107-1.252,4.539,4.539,0,0,1-1.182-3.248,4.99,4.99,0,0,1,1.274-3.573,4.458,4.458,0,0,1,3.4-1.349,4.735,4.735,0,0,1,2.092.439v1.477a3.665,3.665,0,0,0-2.145-.7,2.9,2.9,0,0,0-2.263.989,3.752,3.752,0,0,0-.883,2.6,3.573,3.573,0,0,0,.831,2.5,2.863,2.863,0,0,0,2.228.914,3.613,3.613,0,0,0,2.215-.782ZM176.15,7.715a.913.913,0,0,1-.659-.264.89.89,0,0,1-.272-.668.923.923,0,0,1,.932-.94.931.931,0,0,1,.672.268.939.939,0,0,1,0,1.332A.923.923,0,0,1,176.15,7.715Zm.7,11.285h-1.441V10h1.441Zm4.395-1.3h-.035V19h-1.441V5.676h1.441v5.906h.035a3.408,3.408,0,0,1,3.111-1.793A3.3,3.3,0,0,1,187.071,11a4.99,4.99,0,0,1,.98,3.239,5.578,5.578,0,0,1-1.1,3.617,3.658,3.658,0,0,1-3.006,1.358A2.96,2.96,0,0,1,181.248,17.7Zm-.035-3.63v1.257a2.676,2.676,0,0,0,.725,1.894A2.587,2.587,0,0,0,185.832,17a4.6,4.6,0,0,0,.743-2.786,3.629,3.629,0,0,0-.694-2.355A2.3,2.3,0,0,0,184,11a2.554,2.554,0,0,0-2.021.875A3.211,3.211,0,0,0,181.213,14.069Zm9.879-6.354a.913.913,0,0,1-.659-.264.89.89,0,0,1-.272-.668.923.923,0,0,1,.932-.94.931.931,0,0,1,.672.268.939.939,0,0,1,0,1.332A.923.923,0,0,1,191.092,7.715Zm.7,11.285h-1.441V10h1.441Zm10.6,0h-1.441V17.471h-.035a3.327,3.327,0,0,1-3.094,1.74A3.362,3.362,0,0,1,195.113,18a4.958,4.958,0,0,1-1.015-3.292,5.394,5.394,0,0,1,1.125-3.577,3.71,3.71,0,0,1,3-1.345,2.885,2.885,0,0,1,2.7,1.459h.035V5.676h1.441Zm-1.441-4.069V13.6a2.575,2.575,0,0,0-.721-1.846A2.417,2.417,0,0,0,198.4,11a2.489,2.489,0,0,0-2.074.967,4.237,4.237,0,0,0-.756,2.672A3.81,3.81,0,0,0,196.3,17.1a2.37,2.37,0,0,0,1.947.9,2.462,2.462,0,0,0,1.956-.87A3.242,3.242,0,0,0,200.953,14.931ZM211.755,19h-1.441V17.594h-.035a3.018,3.018,0,0,1-2.769,1.617,2.959,2.959,0,0,1-2.1-.712,2.466,2.466,0,0,1-.76-1.89q0-2.522,2.971-2.936l2.7-.378q0-2.294-1.854-2.294a4.431,4.431,0,0,0-2.936,1.107V10.633a5.577,5.577,0,0,1,3.059-.844q3.173,0,3.173,3.357Zm-1.441-4.553-2.171.3a3.525,3.525,0,0,0-1.512.5,1.432,1.432,0,0,0-.51,1.261,1.374,1.374,0,0,0,.47,1.077,1.817,1.817,0,0,0,1.252.417,2.314,2.314,0,0,0,1.771-.751,2.685,2.685,0,0,0,.7-1.9ZM220.878,17.7h-.035v5.44H219.4V10h1.441v1.582h.035a3.408,3.408,0,0,1,3.111-1.793A3.3,3.3,0,0,1,226.705,11a5.005,5.005,0,0,1,.976,3.239,5.578,5.578,0,0,1-1.1,3.617,3.658,3.658,0,0,1-3.006,1.358A3.011,3.011,0,0,1,220.878,17.7Zm-.035-3.63v1.257a2.676,2.676,0,0,0,.725,1.894A2.587,2.587,0,0,0,225.461,17a4.6,4.6,0,0,0,.743-2.786,3.629,3.629,0,0,0-.694-2.355A2.3,2.3,0,0,0,223.629,11a2.554,2.554,0,0,0-2.021.875A3.211,3.211,0,0,0,220.843,14.069Zm12.9,5.142a4.175,4.175,0,0,1-3.186-1.261,4.672,4.672,0,0,1-1.191-3.344,4.867,4.867,0,0,1,1.239-3.542,4.455,4.455,0,0,1,3.349-1.274,4.037,4.037,0,0,1,3.142,1.239,4.914,4.914,0,0,1,1.129,3.437,4.835,4.835,0,0,1-1.217,3.45A4.265,4.265,0,0,1,233.745,19.211ZM233.851,11a2.742,2.742,0,0,0-2.2.945,3.88,3.88,0,0,0-.809,2.606,3.67,3.67,0,0,0,.817,2.522,2.778,2.778,0,0,0,2.188.923A2.635,2.635,0,0,0,236,17.093a3.928,3.928,0,0,0,.751-2.575,4,4,0,0,0-.751-2.6A2.623,2.623,0,0,0,233.851,11Zm11.373.457a1.763,1.763,0,0,0-1.09-.29,1.839,1.839,0,0,0-1.542.87,4.023,4.023,0,0,0-.62,2.373V19H240.53V10h1.441v1.854h.035a3.143,3.143,0,0,1,.94-1.481,2.144,2.144,0,0,1,1.415-.532,2.353,2.353,0,0,1,.861.123Zm13.729,3.4H252.6a3.366,3.366,0,0,0,.809,2.32,2.788,2.788,0,0,0,2.127.817,4.422,4.422,0,0,0,2.795-1V18.35a5.224,5.224,0,0,1-3.138.861,3.8,3.8,0,0,1-3-1.226,5.018,5.018,0,0,1-1.09-3.45,4.921,4.921,0,0,1,1.191-3.423,3.819,3.819,0,0,1,2.958-1.323,3.384,3.384,0,0,1,2.733,1.143,4.764,4.764,0,0,1,.967,3.173Zm-1.477-1.222a2.933,2.933,0,0,0-.6-1.942A2.051,2.051,0,0,0,255.226,11a2.328,2.328,0,0,0-1.731.729,3.31,3.31,0,0,0-.879,1.907Zm5.1,5.361h-1.441V5.676h1.441Zm13.983-.413a4.684,4.684,0,0,1-2.461.624,4.074,4.074,0,0,1-3.107-1.252,4.539,4.539,0,0,1-1.182-3.248,4.99,4.99,0,0,1,1.274-3.573,4.458,4.458,0,0,1,3.4-1.349,4.735,4.735,0,0,1,2.092.439v1.477a3.665,3.665,0,0,0-2.145-.7,2.9,2.9,0,0,0-2.263.989,3.752,3.752,0,0,0-.883,2.6,3.573,3.573,0,0,0,.831,2.5,2.863,2.863,0,0,0,2.228.914,3.613,3.613,0,0,0,2.215-.782Zm3.621.413h-1.441V5.676h1.441Zm3.656-11.285a.913.913,0,0,1-.659-.264.89.89,0,0,1-.272-.668.923.923,0,0,1,.932-.94.931.931,0,0,1,.672.268.939.939,0,0,1,0,1.332A.923.923,0,0,1,283.834,7.715Zm.7,11.285H283.1V10h1.441Zm10.151-4.14h-6.354a3.366,3.366,0,0,0,.809,2.32A2.788,2.788,0,0,0,291.27,18a4.422,4.422,0,0,0,2.795-1V18.35a5.224,5.224,0,0,1-3.138.861,3.8,3.8,0,0,1-3-1.226,5.018,5.018,0,0,1-1.09-3.45,4.921,4.921,0,0,1,1.191-3.423,3.819,3.819,0,0,1,2.958-1.323,3.384,3.384,0,0,1,2.733,1.143,4.764,4.764,0,0,1,.967,3.173Zm-1.477-1.222a2.933,2.933,0,0,0-.6-1.942A2.051,2.051,0,0,0,290.962,11a2.328,2.328,0,0,0-1.731.729,3.31,3.31,0,0,0-.879,1.907ZM304.339,19H302.9V13.867Q302.9,11,300.806,11a2.269,2.269,0,0,0-1.789.813,3.013,3.013,0,0,0-.708,2.052V19h-1.441V10h1.441v1.494h.035A3.248,3.248,0,0,1,301.3,9.789a2.753,2.753,0,0,1,2.259.954,4.248,4.248,0,0,1,.782,2.755Zm6.891-.088a2.779,2.779,0,0,1-1.345.281q-2.364,0-2.364-2.637V11.23h-1.547V10h1.547V7.8l1.441-.466V10h2.268v1.23h-2.268V16.3a2.1,2.1,0,0,0,.308,1.292,1.228,1.228,0,0,0,1.02.387,1.515,1.515,0,0,0,.94-.3Zm9.158-4.052h-6.354a3.366,3.366,0,0,0,.809,2.32,2.788,2.788,0,0,0,2.127.817,4.422,4.422,0,0,0,2.795-1V18.35a5.224,5.224,0,0,1-3.138.861,3.8,3.8,0,0,1-3-1.226,5.018,5.018,0,0,1-1.09-3.45,4.921,4.921,0,0,1,1.191-3.423,3.819,3.819,0,0,1,2.958-1.323,3.384,3.384,0,0,1,2.733,1.143,4.764,4.764,0,0,1,.967,3.173Zm-1.477-1.222a2.933,2.933,0,0,0-.6-1.942A2.051,2.051,0,0,0,316.661,11a2.328,2.328,0,0,0-1.731.729,3.31,3.31,0,0,0-.879,1.907Z" transform="translate(363 11479)" fill="#00223d"/>
    <path id="Trazado_17273" data-name="Trazado 17273" d="M282.224,6.4,277.882,19h-3.217L270.376,6.4h3.059l2.628,8.771a6.282,6.282,0,0,1,.255,1.257h.053a7.1,7.1,0,0,1,.272-1.292l2.61-8.736Zm9.07,12.6h-7.559V6.4H291V8.708h-4.43v2.8H290.7v2.3h-4.122V16.7h4.72Zm13.359,0h-2.865l-5.194-7.919a11.451,11.451,0,0,1-.633-1.046h-.035q.07.668.07,2.039V19h-2.681V6.4h3.059l5,7.673q.343.519.633,1.028h.035a13.476,13.476,0,0,1-.07-1.731V6.4h2.681ZM316.387,8.708h-3.595V19h-2.848V8.708h-3.577V6.4h10.02ZM327.909,19h-3.094l-.9-2.8h-4.482l-.888,2.8h-3.076l4.588-12.6h3.366Zm-4.641-4.983L321.915,9.78a5.521,5.521,0,0,1-.211-1.134h-.07a4.807,4.807,0,0,1-.22,1.1l-1.371,4.271ZM335.424,14a5.723,5.723,0,0,1-1.173,3.876,4.266,4.266,0,0,1-3.4,1.345,4.835,4.835,0,0,1-1.837-.343V16.214a2.637,2.637,0,0,0,1.635.554q1.942,0,1.942-2.883V6.4h2.83Zm13.307,5h-3.094l-.9-2.8h-4.482L339.37,19h-3.076l4.588-12.6h3.366Zm-4.641-4.983L342.736,9.78a5.521,5.521,0,0,1-.211-1.134h-.07a4.807,4.807,0,0,1-.22,1.1l-1.371,4.271ZM362.828,19H355.27V6.4h7.269V8.708h-4.43v2.8h4.122v2.3h-4.122V16.7h4.72Zm1.441-.483V15.7a5.4,5.4,0,0,0,1.661.962,5.34,5.34,0,0,0,1.811.321,4.015,4.015,0,0,0,.936-.1,2.193,2.193,0,0,0,.668-.268,1.169,1.169,0,0,0,.4-.4,1.009,1.009,0,0,0,.132-.505,1.092,1.092,0,0,0-.211-.659,2.27,2.27,0,0,0-.576-.536,6.015,6.015,0,0,0-.866-.475q-.5-.229-1.081-.466a5.517,5.517,0,0,1-2.2-1.5,3.281,3.281,0,0,1-.725-2.145,3.416,3.416,0,0,1,.4-1.692,3.359,3.359,0,0,1,1.077-1.165,4.828,4.828,0,0,1,1.578-.672,8.106,8.106,0,0,1,1.9-.215,11.418,11.418,0,0,1,1.745.119,6.861,6.861,0,0,1,1.4.365V9.3a4.239,4.239,0,0,0-.69-.387,5.466,5.466,0,0,0-.769-.277,5.866,5.866,0,0,0-.787-.163,5.567,5.567,0,0,0-.743-.053,3.873,3.873,0,0,0-.879.092,2.254,2.254,0,0,0-.668.259,1.29,1.29,0,0,0-.422.4.948.948,0,0,0-.149.523,1,1,0,0,0,.167.567,1.916,1.916,0,0,0,.475.475,5.037,5.037,0,0,0,.747.439q.439.215.993.444a11.067,11.067,0,0,1,1.358.672,4.827,4.827,0,0,1,1.033.8,3.133,3.133,0,0,1,.659,1.024,3.618,3.618,0,0,1,.229,1.34,3.59,3.59,0,0,1-.4,1.771,3.247,3.247,0,0,1-1.085,1.16,4.707,4.707,0,0,1-1.6.637,9.219,9.219,0,0,1-1.92.193,10.678,10.678,0,0,1-1.973-.176A5.956,5.956,0,0,1,364.27,18.517ZM383.79,8.708H380.2V19h-2.848V8.708h-3.577V6.4h10.02ZM396.06,19H392.8l-1.96-3.243q-.22-.369-.422-.659a3.662,3.662,0,0,0-.409-.5,1.625,1.625,0,0,0-.431-.316,1.093,1.093,0,0,0-.488-.11h-.765V19h-2.839V6.4h4.5q4.588,0,4.588,3.428a3.55,3.55,0,0,1-.2,1.217,3.382,3.382,0,0,1-.571,1.006,3.621,3.621,0,0,1-.892.773,4.6,4.6,0,0,1-1.165.51v.035a1.806,1.806,0,0,1,.545.286,3.9,3.9,0,0,1,.51.461,6.438,6.438,0,0,1,.47.567q.224.3.409.593ZM388.325,8.523V12.03h1.23a2.04,2.04,0,0,0,1.468-.527,1.76,1.76,0,0,0,.563-1.327q0-1.652-1.978-1.652ZM408.32,19h-3.094l-.9-2.8h-4.482L398.96,19h-3.076l4.588-12.6h3.366Zm-4.641-4.983L402.326,9.78a5.521,5.521,0,0,1-.211-1.134h-.07a4.807,4.807,0,0,1-.22,1.1l-1.371,4.271Zm13.808-5.309h-3.595V19h-2.848V8.708h-3.577V6.4h10.02ZM426.742,19h-7.559V6.4h7.269V8.708h-4.43v2.8h4.122v2.3h-4.122V16.7h4.72Zm-.791-16.611L423.2,5.228h-2l2.285-2.839Zm13.157,15.768a9.07,9.07,0,0,1-4.588,1.063,6.635,6.635,0,0,1-4.794-1.683,6.123,6.123,0,0,1-1.753-4.636,6.472,6.472,0,0,1,1.916-4.843,6.981,6.981,0,0,1,5.1-1.872,10.354,10.354,0,0,1,3.533.554V9.4a7.022,7.022,0,0,0-3.568-.844,3.831,3.831,0,0,0-2.878,1.147,4.213,4.213,0,0,0-1.112,3.063,4.226,4.226,0,0,0,1,3.006,3.516,3.516,0,0,0,2.694,1.063,3.75,3.75,0,0,0,1.617-.29V14.087h-2.522V11.819h5.361ZM444.4,19h-2.839V6.4H444.4Zm11.9-.448a8.311,8.311,0,0,1-3.6.668,6.074,6.074,0,0,1-4.562-1.705,6.233,6.233,0,0,1-1.661-4.544,6.659,6.659,0,0,1,1.868-4.9,6.533,6.533,0,0,1,4.847-1.881,9.065,9.065,0,0,1,3.111.466V9.385a5.513,5.513,0,0,0-2.883-.756,3.824,3.824,0,0,0-2.865,1.116,4.142,4.142,0,0,0-1.09,3.023,4.062,4.062,0,0,0,1.028,2.914,3.633,3.633,0,0,0,2.769,1.085,5.905,5.905,0,0,0,3.041-.809ZM469.58,19h-3.094l-.9-2.8h-4.482L460.22,19h-3.076l4.588-12.6H465.1Zm-4.641-4.983L463.586,9.78a5.521,5.521,0,0,1-.211-1.134h-.07a4.807,4.807,0,0,1-.22,1.1l-1.371,4.271Z" transform="translate(363 11526)" fill="#00223d"/>
    <path id="Trazado_17266" data-name="Trazado 17266" d="M68.049,19.22a5.867,5.867,0,0,1-4.412-1.762,6.327,6.327,0,0,1-1.705-4.592,6.779,6.779,0,0,1,1.731-4.834,6,6,0,0,1,4.588-1.846,5.721,5.721,0,0,1,4.364,1.767A6.513,6.513,0,0,1,74.28,12.61a6.671,6.671,0,0,1-1.727,4.79A5.928,5.928,0,0,1,68.049,19.22Zm.123-10.591A2.858,2.858,0,0,0,65.8,9.75a4.672,4.672,0,0,0-.879,2.966,4.586,4.586,0,0,0,.879,2.962,3.033,3.033,0,0,0,4.632.031,4.536,4.536,0,0,0,.861-2.94,4.915,4.915,0,0,0-.835-3.05A2.722,2.722,0,0,0,68.172,8.629ZM76.372,19V6.4H80.96A5.729,5.729,0,0,1,84.2,7.17a2.488,2.488,0,0,1,1.134,2.18,2.58,2.58,0,0,1-.69,1.784A3.625,3.625,0,0,1,82.885,12.2v.035a3.493,3.493,0,0,1,2.149.993,2.778,2.778,0,0,1,.8,2.013A3.364,3.364,0,0,1,84.6,17.985,5.186,5.186,0,0,1,81.215,19ZM79.211,8.488v2.988h1.248a2.08,2.08,0,0,0,1.384-.426,1.453,1.453,0,0,0,.505-1.173q0-1.389-2.074-1.389Zm0,5.1v3.322h1.538a2.367,2.367,0,0,0,1.542-.457A1.527,1.527,0,0,0,82.85,15.2a1.425,1.425,0,0,0-.549-1.187,2.43,2.43,0,0,0-1.534-.431ZM93.168,14a5.723,5.723,0,0,1-1.173,3.876,4.266,4.266,0,0,1-3.4,1.345,4.835,4.835,0,0,1-1.837-.343V16.214a2.637,2.637,0,0,0,1.635.554q1.942,0,1.942-2.883V6.4h2.83Zm10.318,5H95.928V6.4H103.2V8.708h-4.43v2.8h4.122v2.3H98.767V16.7h4.72Zm11.03-10.292h-3.595V19h-2.848V8.708H104.5V6.4h10.02ZM119.052,19h-2.839V6.4h2.839ZM132.411,6.4,128.069,19h-3.217L120.563,6.4h3.059l2.628,8.771a6.282,6.282,0,0,1,.255,1.257h.053a7.1,7.1,0,0,1,.272-1.292L129.44,6.4Zm6.8,12.823a5.867,5.867,0,0,1-4.412-1.762,6.327,6.327,0,0,1-1.705-4.592,6.779,6.779,0,0,1,1.731-4.834,6,6,0,0,1,4.588-1.846,5.721,5.721,0,0,1,4.364,1.767,6.513,6.513,0,0,1,1.666,4.658,6.671,6.671,0,0,1-1.727,4.79A5.928,5.928,0,0,1,139.214,19.22Zm.123-10.591a2.858,2.858,0,0,0-2.373,1.121,4.672,4.672,0,0,0-.879,2.966,4.586,4.586,0,0,0,.879,2.962,3.033,3.033,0,0,0,4.632.031,4.536,4.536,0,0,0,.861-2.94,4.915,4.915,0,0,0-.835-3.05A2.722,2.722,0,0,0,139.337,8.629ZM160.062,19H152.5V6.4h7.269V8.708h-4.43v2.8h4.122v2.3h-4.122V16.7h4.72Zm1.441-.483V15.7a5.4,5.4,0,0,0,1.661.962,5.34,5.34,0,0,0,1.811.321,4.015,4.015,0,0,0,.936-.1,2.193,2.193,0,0,0,.668-.268,1.169,1.169,0,0,0,.4-.4,1.009,1.009,0,0,0,.132-.505,1.092,1.092,0,0,0-.211-.659,2.27,2.27,0,0,0-.576-.536,6.015,6.015,0,0,0-.866-.475q-.5-.229-1.081-.466a5.517,5.517,0,0,1-2.2-1.5,3.281,3.281,0,0,1-.725-2.145,3.416,3.416,0,0,1,.4-1.692,3.359,3.359,0,0,1,1.077-1.165A4.828,4.828,0,0,1,164.5,6.4a8.106,8.106,0,0,1,1.9-.215,11.418,11.418,0,0,1,1.745.119,6.861,6.861,0,0,1,1.4.365V9.3a4.239,4.239,0,0,0-.69-.387,5.466,5.466,0,0,0-.769-.277,5.866,5.866,0,0,0-.787-.163,5.567,5.567,0,0,0-.743-.053,3.873,3.873,0,0,0-.879.092,2.254,2.254,0,0,0-.668.259,1.29,1.29,0,0,0-.422.4.948.948,0,0,0-.149.523,1,1,0,0,0,.167.567,1.916,1.916,0,0,0,.475.475,5.037,5.037,0,0,0,.747.439q.439.215.993.444a11.067,11.067,0,0,1,1.358.672,4.827,4.827,0,0,1,1.033.8,3.133,3.133,0,0,1,.659,1.024,3.618,3.618,0,0,1,.229,1.34,3.59,3.59,0,0,1-.4,1.771,3.247,3.247,0,0,1-1.085,1.16,4.707,4.707,0,0,1-1.6.637,9.219,9.219,0,0,1-1.92.193,10.678,10.678,0,0,1-1.973-.176A5.956,5.956,0,0,1,161.5,18.517Zm19.521-9.809h-3.595V19h-2.848V8.708H171V6.4h10.02ZM193.293,19h-3.261l-1.96-3.243q-.22-.369-.422-.659a3.662,3.662,0,0,0-.409-.5,1.625,1.625,0,0,0-.431-.316,1.093,1.093,0,0,0-.488-.11h-.765V19H182.72V6.4h4.5q4.588,0,4.588,3.428a3.55,3.55,0,0,1-.2,1.217,3.382,3.382,0,0,1-.571,1.006,3.621,3.621,0,0,1-.892.773,4.6,4.6,0,0,1-1.165.51v.035a1.806,1.806,0,0,1,.545.286,3.9,3.9,0,0,1,.51.461,6.438,6.438,0,0,1,.47.567q.224.3.409.593ZM185.559,8.523V12.03h1.23a2.04,2.04,0,0,0,1.468-.527,1.76,1.76,0,0,0,.563-1.327q0-1.652-1.978-1.652Zm20,10.477H202.46l-.9-2.8h-4.482l-.888,2.8h-3.076l4.588-12.6h3.366Zm-4.641-4.983L199.56,9.78a5.521,5.521,0,0,1-.211-1.134h-.07a4.807,4.807,0,0,1-.22,1.1l-1.371,4.271Zm13.808-5.309h-3.595V19h-2.848V8.708H204.7V6.4h10.02ZM223.976,19h-7.559V6.4h7.269V8.708h-4.43v2.8h4.122v2.3h-4.122V16.7h4.72Zm-.791-16.611-2.751,2.839h-2l2.285-2.839Zm13.157,15.768a9.07,9.07,0,0,1-4.588,1.063,6.635,6.635,0,0,1-4.794-1.683,6.123,6.123,0,0,1-1.753-4.636,6.472,6.472,0,0,1,1.916-4.843,6.981,6.981,0,0,1,5.1-1.872,10.354,10.354,0,0,1,3.533.554V9.4a7.022,7.022,0,0,0-3.568-.844,3.831,3.831,0,0,0-2.878,1.147,4.213,4.213,0,0,0-1.112,3.063,4.226,4.226,0,0,0,1,3.006,3.516,3.516,0,0,0,2.694,1.063,3.75,3.75,0,0,0,1.617-.29V14.087H230.98V11.819h5.361Zm5.291.844h-2.839V6.4h2.839Zm11.9-.448a8.311,8.311,0,0,1-3.6.668,6.074,6.074,0,0,1-4.562-1.705,6.233,6.233,0,0,1-1.661-4.544,6.659,6.659,0,0,1,1.868-4.9,6.533,6.533,0,0,1,4.847-1.881,9.065,9.065,0,0,1,3.111.466V9.385a5.513,5.513,0,0,0-2.883-.756,3.824,3.824,0,0,0-2.865,1.116,4.142,4.142,0,0,0-1.09,3.023,4.062,4.062,0,0,0,1.028,2.914,3.633,3.633,0,0,0,2.769,1.085,5.905,5.905,0,0,0,3.041-.809Zm7.3.668a5.867,5.867,0,0,1-4.412-1.762,6.327,6.327,0,0,1-1.705-4.592,6.779,6.779,0,0,1,1.731-4.834,6,6,0,0,1,4.588-1.846A5.721,5.721,0,0,1,265.4,7.952a6.513,6.513,0,0,1,1.666,4.658,6.671,6.671,0,0,1-1.727,4.79A5.928,5.928,0,0,1,260.837,19.22Zm.123-10.591a2.858,2.858,0,0,0-2.373,1.121,4.672,4.672,0,0,0-.879,2.966,4.586,4.586,0,0,0,.879,2.962,3.033,3.033,0,0,0,4.632.031,4.536,4.536,0,0,0,.861-2.94,4.915,4.915,0,0,0-.835-3.05A2.722,2.722,0,0,0,260.96,8.629Z" transform="translate(279 11451) rotate(-90)" fill="#00223d"/>
    <path id="Trazado_17267" data-name="Trazado 17267" d="M4.238,18.49V16.75a3.38,3.38,0,0,0,.716.475,5.8,5.8,0,0,0,.879.356,7,7,0,0,0,.927.224,5.17,5.17,0,0,0,.861.079,3.374,3.374,0,0,0,2.035-.505,1.9,1.9,0,0,0,.448-2.342,2.525,2.525,0,0,0-.62-.69,6.148,6.148,0,0,0-.936-.6q-.541-.286-1.165-.6-.659-.334-1.23-.677a5.332,5.332,0,0,1-.993-.756,3.153,3.153,0,0,1-.664-.936,2.9,2.9,0,0,1-.242-1.226,2.883,2.883,0,0,1,.378-1.5A3.242,3.242,0,0,1,5.627,7a4.5,4.5,0,0,1,1.4-.615,6.419,6.419,0,0,1,1.6-.2,6.147,6.147,0,0,1,2.716.448V8.295a4.923,4.923,0,0,0-2.865-.773,4.712,4.712,0,0,0-.967.1,2.731,2.731,0,0,0-.861.33,1.908,1.908,0,0,0-.615.589A1.563,1.563,0,0,0,5.8,9.42a1.809,1.809,0,0,0,.18.835,2.046,2.046,0,0,0,.532.642,5.3,5.3,0,0,0,.857.563q.505.272,1.165.6.677.334,1.283.7a5.865,5.865,0,0,1,1.063.817,3.632,3.632,0,0,1,.725.993,2.792,2.792,0,0,1,.268,1.248,3.165,3.165,0,0,1-.365,1.578,2.993,2.993,0,0,1-.984,1.05,4.3,4.3,0,0,1-1.428.584,7.822,7.822,0,0,1-1.705.18,6.948,6.948,0,0,1-.738-.048q-.439-.048-.9-.141a7.315,7.315,0,0,1-.866-.229A2.694,2.694,0,0,1,4.238,18.49Zm13.72.721a4.175,4.175,0,0,1-3.186-1.261,4.672,4.672,0,0,1-1.191-3.344,4.867,4.867,0,0,1,1.239-3.542,4.455,4.455,0,0,1,3.349-1.274,4.037,4.037,0,0,1,3.142,1.239,4.914,4.914,0,0,1,1.129,3.437,4.835,4.835,0,0,1-1.217,3.45A4.265,4.265,0,0,1,17.958,19.211ZM18.063,11a2.742,2.742,0,0,0-2.2.945,3.88,3.88,0,0,0-.809,2.606,3.67,3.67,0,0,0,.817,2.522A2.778,2.778,0,0,0,18.063,18a2.635,2.635,0,0,0,2.149-.905,3.928,3.928,0,0,0,.751-2.575,4,4,0,0,0-.751-2.6A2.623,2.623,0,0,0,18.063,11Zm8.121,8H24.743V5.676h1.441Zm6.68.211a4.175,4.175,0,0,1-3.186-1.261,4.672,4.672,0,0,1-1.191-3.344,4.867,4.867,0,0,1,1.239-3.542,4.455,4.455,0,0,1,3.349-1.274,4.037,4.037,0,0,1,3.142,1.239,4.914,4.914,0,0,1,1.129,3.437,4.835,4.835,0,0,1-1.217,3.45A4.265,4.265,0,0,1,32.864,19.211ZM32.97,11a2.742,2.742,0,0,0-2.2.945,3.88,3.88,0,0,0-.809,2.606,3.67,3.67,0,0,0,.817,2.522A2.778,2.778,0,0,0,32.97,18a2.635,2.635,0,0,0,2.149-.905,3.928,3.928,0,0,0,.751-2.575,4,4,0,0,0-.751-2.6A2.623,2.623,0,0,0,32.97,11Zm18.888,8H50.416V17.576h-.035A2.96,2.96,0,0,1,47.6,19.211q-3.217,0-3.217-3.832V10h1.433v5.15Q45.819,18,48,18a2.205,2.205,0,0,0,1.736-.778,2.976,2.976,0,0,0,.681-2.035V10h1.441Zm10.38,0H60.8V13.867Q60.8,11,58.7,11a2.269,2.269,0,0,0-1.789.813,3.013,3.013,0,0,0-.708,2.052V19H54.767V10h1.441v1.494h.035A3.248,3.248,0,0,1,59.2,9.789a2.753,2.753,0,0,1,2.259.954,4.248,4.248,0,0,1,.782,2.755Zm7.1-.325V17.128a4.266,4.266,0,0,0,2.593.87q1.9,0,1.9-1.266a1.1,1.1,0,0,0-.163-.611,1.62,1.62,0,0,0-.439-.444,3.383,3.383,0,0,0-.65-.347q-.374-.154-.8-.321a10.357,10.357,0,0,1-1.05-.479,3.173,3.173,0,0,1-.756-.545,2.028,2.028,0,0,1-.457-.69,2.441,2.441,0,0,1-.154-.905,2.15,2.15,0,0,1,.29-1.121,2.572,2.572,0,0,1,.773-.817,3.607,3.607,0,0,1,1.1-.5A4.893,4.893,0,0,1,72.8,9.789a5.164,5.164,0,0,1,2.092.4v1.459A4.077,4.077,0,0,0,72.608,11a2.671,2.671,0,0,0-.729.092,1.786,1.786,0,0,0-.558.259,1.2,1.2,0,0,0-.36.4,1.053,1.053,0,0,0-.127.514,1.233,1.233,0,0,0,.127.589,1.3,1.3,0,0,0,.374.422,2.855,2.855,0,0,0,.6.334q.352.149.8.325a11.131,11.131,0,0,1,1.072.47,3.678,3.678,0,0,1,.809.545,2.129,2.129,0,0,1,.514.7,2.254,2.254,0,0,1,.18.94,2.217,2.217,0,0,1-.294,1.16,2.523,2.523,0,0,1-.787.817,3.6,3.6,0,0,1-1.134.483,5.6,5.6,0,0,1-1.345.158A5.106,5.106,0,0,1,69.339,18.675ZM84.755,14.86H78.4a3.366,3.366,0,0,0,.809,2.32A2.788,2.788,0,0,0,81.336,18a4.422,4.422,0,0,0,2.795-1V18.35a5.224,5.224,0,0,1-3.138.861,3.8,3.8,0,0,1-3-1.226,5.018,5.018,0,0,1-1.09-3.45A4.921,4.921,0,0,1,78.1,11.112a3.819,3.819,0,0,1,2.958-1.323,3.384,3.384,0,0,1,2.733,1.143,4.764,4.764,0,0,1,.967,3.173Zm-1.477-1.222a2.933,2.933,0,0,0-.6-1.942A2.051,2.051,0,0,0,81.028,11a2.328,2.328,0,0,0-1.731.729,3.31,3.31,0,0,0-.879,1.907Zm11.338,4.641q0,4.957-4.746,4.957a6.372,6.372,0,0,1-2.918-.633V21.162a5.993,5.993,0,0,0,2.9.844q3.322,0,3.322-3.533v-.984H93.14a3.641,3.641,0,0,1-5.8.523,4.8,4.8,0,0,1-1.024-3.221,5.6,5.6,0,0,1,1.1-3.647,3.685,3.685,0,0,1,3.019-1.354,2.934,2.934,0,0,1,2.7,1.459h.035V10h1.441Zm-1.441-3.349V13.6a2.575,2.575,0,0,0-.725-1.837A2.387,2.387,0,0,0,90.644,11a2.5,2.5,0,0,0-2.092.971,4.335,4.335,0,0,0-.756,2.72,3.721,3.721,0,0,0,.725,2.4,2.343,2.343,0,0,0,1.92.9,2.509,2.509,0,0,0,1.973-.861A3.21,3.21,0,0,0,93.175,14.931ZM110.313,19h-1.441V13.832a3.9,3.9,0,0,0-.461-2.162A1.75,1.75,0,0,0,106.859,11a1.921,1.921,0,0,0-1.569.844,3.228,3.228,0,0,0-.646,2.021V19H103.2V13.656Q103.2,11,101.155,11a1.9,1.9,0,0,0-1.564.8,3.288,3.288,0,0,0-.615,2.07V19H97.534V10h1.441v1.424h.035a3.058,3.058,0,0,1,2.795-1.635,2.6,2.6,0,0,1,2.549,1.863,3.212,3.212,0,0,1,2.988-1.863q2.971,0,2.971,3.665Zm9.958-4.14h-6.354a3.366,3.366,0,0,0,.809,2.32,2.788,2.788,0,0,0,2.127.817,4.422,4.422,0,0,0,2.795-1V18.35a5.224,5.224,0,0,1-3.138.861,3.8,3.8,0,0,1-3-1.226,5.018,5.018,0,0,1-1.09-3.45,4.921,4.921,0,0,1,1.191-3.423,3.819,3.819,0,0,1,2.958-1.323,3.384,3.384,0,0,1,2.733,1.143,4.764,4.764,0,0,1,.967,3.173Zm-1.477-1.222a2.933,2.933,0,0,0-.6-1.942A2.051,2.051,0,0,0,116.545,11a2.328,2.328,0,0,0-1.731.729,3.31,3.31,0,0,0-.879,1.907ZM129.922,19H128.48V13.867q0-2.865-2.092-2.865a2.269,2.269,0,0,0-1.789.813,3.013,3.013,0,0,0-.708,2.052V19h-1.441V10h1.441v1.494h.035a3.248,3.248,0,0,1,2.953-1.705,2.753,2.753,0,0,1,2.259.954,4.248,4.248,0,0,1,.782,2.755Zm6.891-.088a2.779,2.779,0,0,1-1.345.281q-2.364,0-2.364-2.637V11.23h-1.547V10H133.1V7.8l1.441-.466V10h2.268v1.23h-2.268V16.3a2.1,2.1,0,0,0,.308,1.292,1.228,1.228,0,0,0,1.02.387,1.515,1.515,0,0,0,.94-.3Zm5.687.3a4.175,4.175,0,0,1-3.186-1.261,4.672,4.672,0,0,1-1.191-3.344,4.867,4.867,0,0,1,1.239-3.542,4.455,4.455,0,0,1,3.349-1.274,4.037,4.037,0,0,1,3.142,1.239,4.914,4.914,0,0,1,1.129,3.437,4.835,4.835,0,0,1-1.217,3.45A4.265,4.265,0,0,1,142.5,19.211ZM142.6,11a2.742,2.742,0,0,0-2.2.945,3.88,3.88,0,0,0-.809,2.606,3.67,3.67,0,0,0,.817,2.522A2.778,2.778,0,0,0,142.6,18a2.635,2.635,0,0,0,2.149-.905,3.928,3.928,0,0,0,.751-2.575,4,4,0,0,0-.751-2.6A2.623,2.623,0,0,0,142.6,11Z" transform="translate(321 11451) rotate(-90)" fill="#00223d"/>
    <path id="Trazado_17265" data-name="Trazado 17265" d="M25.67,7.732H22.032V19H20.555V7.732h-3.63V6.4H25.67Zm3.788,11.479a4.175,4.175,0,0,1-3.186-1.261,4.672,4.672,0,0,1-1.191-3.344,4.867,4.867,0,0,1,1.239-3.542,4.455,4.455,0,0,1,3.349-1.274,4.037,4.037,0,0,1,3.142,1.239,4.914,4.914,0,0,1,1.129,3.437,4.835,4.835,0,0,1-1.217,3.45A4.265,4.265,0,0,1,29.458,19.211ZM29.564,11a2.742,2.742,0,0,0-2.2.945,3.88,3.88,0,0,0-.809,2.606,3.67,3.67,0,0,0,.817,2.522A2.778,2.778,0,0,0,29.564,18a2.635,2.635,0,0,0,2.149-.905,3.928,3.928,0,0,0,.751-2.575,4,4,0,0,0-.751-2.6A2.623,2.623,0,0,0,29.564,11Zm14.361,8H42.484V17.471h-.035a3.327,3.327,0,0,1-3.094,1.74A3.362,3.362,0,0,1,36.644,18a4.958,4.958,0,0,1-1.015-3.292,5.394,5.394,0,0,1,1.125-3.577,3.71,3.71,0,0,1,3-1.345,2.885,2.885,0,0,1,2.7,1.459h.035V5.676h1.441Zm-1.441-4.069V13.6a2.575,2.575,0,0,0-.721-1.846A2.417,2.417,0,0,0,39.935,11a2.489,2.489,0,0,0-2.074.967,4.237,4.237,0,0,0-.756,2.672A3.81,3.81,0,0,0,37.83,17.1a2.37,2.37,0,0,0,1.947.9,2.462,2.462,0,0,0,1.956-.87A3.242,3.242,0,0,0,42.484,14.931Zm8.121,4.28a4.175,4.175,0,0,1-3.186-1.261,4.672,4.672,0,0,1-1.191-3.344,4.867,4.867,0,0,1,1.239-3.542,4.455,4.455,0,0,1,3.349-1.274,4.037,4.037,0,0,1,3.142,1.239,4.914,4.914,0,0,1,1.129,3.437,4.835,4.835,0,0,1-1.217,3.45A4.265,4.265,0,0,1,50.6,19.211ZM50.71,11a2.742,2.742,0,0,0-2.2.945,3.88,3.88,0,0,0-.809,2.606,3.67,3.67,0,0,0,.817,2.522A2.778,2.778,0,0,0,50.71,18a2.635,2.635,0,0,0,2.149-.905,3.928,3.928,0,0,0,.751-2.575,4,4,0,0,0-.751-2.6A2.623,2.623,0,0,0,50.71,11ZM69.6,19H68.157V17.576h-.035a2.96,2.96,0,0,1-2.777,1.635q-3.217,0-3.217-3.832V10H63.56v5.15Q63.56,18,65.74,18a2.205,2.205,0,0,0,1.736-.778,2.976,2.976,0,0,0,.681-2.035V10H69.6Zm10.38,0H78.537V13.867Q78.537,11,76.445,11a2.269,2.269,0,0,0-1.789.813,3.013,3.013,0,0,0-.708,2.052V19H72.507V10h1.441v1.494h.035a3.248,3.248,0,0,1,2.953-1.705,2.753,2.753,0,0,1,2.259.954,4.248,4.248,0,0,1,.782,2.755Zm7.1-.325V17.128a4.266,4.266,0,0,0,2.593.87q1.9,0,1.9-1.266a1.1,1.1,0,0,0-.163-.611,1.62,1.62,0,0,0-.439-.444,3.383,3.383,0,0,0-.65-.347q-.374-.154-.8-.321a10.357,10.357,0,0,1-1.05-.479,3.173,3.173,0,0,1-.756-.545,2.028,2.028,0,0,1-.457-.69,2.441,2.441,0,0,1-.154-.905,2.15,2.15,0,0,1,.29-1.121,2.572,2.572,0,0,1,.773-.817,3.607,3.607,0,0,1,1.1-.5,4.893,4.893,0,0,1,1.279-.167,5.164,5.164,0,0,1,2.092.4v1.459A4.077,4.077,0,0,0,90.349,11a2.671,2.671,0,0,0-.729.092,1.786,1.786,0,0,0-.558.259,1.2,1.2,0,0,0-.36.4,1.053,1.053,0,0,0-.127.514,1.233,1.233,0,0,0,.127.589,1.3,1.3,0,0,0,.374.422,2.855,2.855,0,0,0,.6.334q.352.149.8.325a11.131,11.131,0,0,1,1.072.47,3.678,3.678,0,0,1,.809.545,2.129,2.129,0,0,1,.514.7,2.254,2.254,0,0,1,.18.94,2.217,2.217,0,0,1-.294,1.16,2.523,2.523,0,0,1-.787.817,3.6,3.6,0,0,1-1.134.483,5.6,5.6,0,0,1-1.345.158A5.106,5.106,0,0,1,87.08,18.675ZM102.5,14.86H96.141a3.366,3.366,0,0,0,.809,2.32A2.788,2.788,0,0,0,99.077,18a4.422,4.422,0,0,0,2.795-1V18.35a5.224,5.224,0,0,1-3.138.861,3.8,3.8,0,0,1-3-1.226,5.018,5.018,0,0,1-1.09-3.45,4.921,4.921,0,0,1,1.191-3.423A3.819,3.819,0,0,1,98.8,9.789a3.384,3.384,0,0,1,2.733,1.143A4.764,4.764,0,0,1,102.5,14.1Zm-1.477-1.222a2.933,2.933,0,0,0-.6-1.942A2.051,2.051,0,0,0,98.769,11a2.328,2.328,0,0,0-1.731.729,3.31,3.31,0,0,0-.879,1.907Zm9.791,4.948a4.684,4.684,0,0,1-2.461.624,4.074,4.074,0,0,1-3.107-1.252,4.539,4.539,0,0,1-1.182-3.248,4.99,4.99,0,0,1,1.274-3.573,4.458,4.458,0,0,1,3.4-1.349,4.735,4.735,0,0,1,2.092.439v1.477a3.665,3.665,0,0,0-2.145-.7,2.9,2.9,0,0,0-2.263.989,3.752,3.752,0,0,0-.883,2.6,3.573,3.573,0,0,0,.831,2.5A2.863,2.863,0,0,0,108.6,18a3.613,3.613,0,0,0,2.215-.782Zm6.354.325a2.779,2.779,0,0,1-1.345.281q-2.364,0-2.364-2.637V11.23h-1.547V10h1.547V7.8l1.441-.466V10h2.268v1.23H114.9V16.3a2.1,2.1,0,0,0,.308,1.292,1.228,1.228,0,0,0,1.02.387,1.515,1.515,0,0,0,.94-.3Zm5.687.3a4.175,4.175,0,0,1-3.186-1.261,4.672,4.672,0,0,1-1.191-3.344,4.867,4.867,0,0,1,1.239-3.542,4.455,4.455,0,0,1,3.349-1.274,4.037,4.037,0,0,1,3.142,1.239,4.914,4.914,0,0,1,1.129,3.437,4.835,4.835,0,0,1-1.217,3.45A4.265,4.265,0,0,1,122.851,19.211ZM122.957,11a2.742,2.742,0,0,0-2.2.945,3.88,3.88,0,0,0-.809,2.606,3.67,3.67,0,0,0,.817,2.522,2.778,2.778,0,0,0,2.188.923,2.635,2.635,0,0,0,2.149-.905,3.928,3.928,0,0,0,.751-2.575,4,4,0,0,0-.751-2.6A2.623,2.623,0,0,0,122.957,11Zm11.373.457a1.763,1.763,0,0,0-1.09-.29,1.839,1.839,0,0,0-1.542.87,4.023,4.023,0,0,0-.62,2.373V19h-1.441V10h1.441v1.854h.035a3.143,3.143,0,0,1,.94-1.481,2.144,2.144,0,0,1,1.415-.532,2.353,2.353,0,0,1,.861.123Z" transform="translate(321 11273) rotate(-90)" fill="#00223d"/>
    <path id="Trazado_17272" data-name="Trazado 17272" d="M62.082,14.236V19H60.6V6.4h3.463a4.571,4.571,0,0,1,3.133.984,3.515,3.515,0,0,1,1.112,2.777,3.82,3.82,0,0,1-1.235,2.936,4.718,4.718,0,0,1-3.335,1.143Zm0-6.5V12.9h1.547a3.458,3.458,0,0,0,2.333-.7,2.474,2.474,0,0,0,.8-1.973q0-2.5-2.953-2.5Zm11.5,11.479A4.175,4.175,0,0,1,70.4,17.95a4.672,4.672,0,0,1-1.191-3.344,4.867,4.867,0,0,1,1.239-3.542A4.455,4.455,0,0,1,73.8,9.789a4.037,4.037,0,0,1,3.142,1.239,4.914,4.914,0,0,1,1.129,3.437,4.835,4.835,0,0,1-1.217,3.45A4.265,4.265,0,0,1,73.586,19.211ZM73.692,11a2.742,2.742,0,0,0-2.2.945,3.88,3.88,0,0,0-.809,2.606,3.67,3.67,0,0,0,.817,2.522A2.778,2.778,0,0,0,73.692,18a2.635,2.635,0,0,0,2.149-.905,3.928,3.928,0,0,0,.751-2.575,4,4,0,0,0-.751-2.6A2.623,2.623,0,0,0,73.692,11Zm6.135,7.673V17.128a4.266,4.266,0,0,0,2.593.87q1.9,0,1.9-1.266a1.1,1.1,0,0,0-.163-.611,1.62,1.62,0,0,0-.439-.444,3.383,3.383,0,0,0-.65-.347q-.374-.154-.8-.321a10.357,10.357,0,0,1-1.05-.479,3.173,3.173,0,0,1-.756-.545A2.028,2.028,0,0,1,80,13.3a2.441,2.441,0,0,1-.154-.905,2.15,2.15,0,0,1,.29-1.121,2.572,2.572,0,0,1,.773-.817,3.607,3.607,0,0,1,1.1-.5,4.893,4.893,0,0,1,1.279-.167,5.164,5.164,0,0,1,2.092.4v1.459A4.077,4.077,0,0,0,83.1,11a2.671,2.671,0,0,0-.729.092,1.786,1.786,0,0,0-.558.259,1.2,1.2,0,0,0-.36.4,1.053,1.053,0,0,0-.127.514,1.233,1.233,0,0,0,.127.589,1.3,1.3,0,0,0,.374.422,2.855,2.855,0,0,0,.6.334q.352.149.8.325a11.131,11.131,0,0,1,1.072.47,3.678,3.678,0,0,1,.809.545,2.129,2.129,0,0,1,.514.7,2.254,2.254,0,0,1,.18.94,2.217,2.217,0,0,1-.294,1.16,2.523,2.523,0,0,1-.787.817,3.6,3.6,0,0,1-1.134.483,5.6,5.6,0,0,1-1.345.158A5.106,5.106,0,0,1,79.827,18.675Zm8.921-10.96a.913.913,0,0,1-.659-.264.89.89,0,0,1-.272-.668.923.923,0,0,1,.932-.94.931.931,0,0,1,.672.268.939.939,0,0,1,0,1.332A.923.923,0,0,1,88.748,7.715ZM89.451,19H88.009V10h1.441Zm9.053-.413a4.684,4.684,0,0,1-2.461.624,4.074,4.074,0,0,1-3.107-1.252,4.539,4.539,0,0,1-1.182-3.248,4.99,4.99,0,0,1,1.274-3.573,4.458,4.458,0,0,1,3.4-1.349,4.735,4.735,0,0,1,2.092.439v1.477a3.665,3.665,0,0,0-2.145-.7,2.9,2.9,0,0,0-2.263.989,3.752,3.752,0,0,0-.883,2.6,3.573,3.573,0,0,0,.831,2.5A2.863,2.863,0,0,0,96.289,18a3.613,3.613,0,0,0,2.215-.782Zm2.918-10.872a.913.913,0,0,1-.659-.264.89.89,0,0,1-.272-.668.923.923,0,0,1,.932-.94.931.931,0,0,1,.672.268.939.939,0,0,1,0,1.332A.923.923,0,0,1,101.421,7.715Zm.7,11.285h-1.441V10h1.441Zm6.68.211a4.175,4.175,0,0,1-3.186-1.261,4.672,4.672,0,0,1-1.191-3.344,4.867,4.867,0,0,1,1.239-3.542,4.455,4.455,0,0,1,3.349-1.274,4.037,4.037,0,0,1,3.142,1.239,4.914,4.914,0,0,1,1.129,3.437,4.835,4.835,0,0,1-1.217,3.45A4.265,4.265,0,0,1,108.8,19.211ZM108.91,11a2.742,2.742,0,0,0-2.2.945,3.88,3.88,0,0,0-.809,2.606,3.67,3.67,0,0,0,.817,2.522A2.778,2.778,0,0,0,108.91,18a2.635,2.635,0,0,0,2.149-.905,3.928,3.928,0,0,0,.751-2.575,4,4,0,0,0-.751-2.6A2.623,2.623,0,0,0,108.91,11Zm14.15,8h-1.441V13.867q0-2.865-2.092-2.865a2.269,2.269,0,0,0-1.789.813,3.013,3.013,0,0,0-.708,2.052V19h-1.441V10h1.441v1.494h.035a3.248,3.248,0,0,1,2.953-1.705,2.753,2.753,0,0,1,2.259.954,4.248,4.248,0,0,1,.782,2.755Zm9.158,0h-1.441V17.594h-.035a3.018,3.018,0,0,1-2.769,1.617,2.959,2.959,0,0,1-2.1-.712,2.466,2.466,0,0,1-.76-1.89q0-2.522,2.971-2.936l2.7-.378q0-2.294-1.854-2.294a4.431,4.431,0,0,0-2.936,1.107V10.633a5.577,5.577,0,0,1,3.059-.844q3.173,0,3.173,3.357Zm-1.441-4.553-2.171.3a3.525,3.525,0,0,0-1.512.5,1.432,1.432,0,0,0-.51,1.261,1.374,1.374,0,0,0,.47,1.077,1.817,1.817,0,0,0,1.252.417,2.314,2.314,0,0,0,1.771-.751,2.685,2.685,0,0,0,.7-1.9ZM147.713,19h-1.441V13.832a3.9,3.9,0,0,0-.461-2.162A1.75,1.75,0,0,0,144.259,11a1.921,1.921,0,0,0-1.569.844,3.228,3.228,0,0,0-.646,2.021V19H140.6V13.656Q140.6,11,138.555,11a1.9,1.9,0,0,0-1.564.8,3.288,3.288,0,0,0-.615,2.07V19h-1.441V10h1.441v1.424h.035a3.058,3.058,0,0,1,2.795-1.635,2.6,2.6,0,0,1,2.549,1.863,3.212,3.212,0,0,1,2.988-1.863q2.971,0,2.971,3.665Zm3.463-11.285a.913.913,0,0,1-.659-.264.89.89,0,0,1-.272-.668.923.923,0,0,1,.932-.94.931.931,0,0,1,.672.268.939.939,0,0,1,0,1.332A.923.923,0,0,1,151.176,7.715Zm.7,11.285h-1.441V10h1.441Zm10.151-4.14h-6.354a3.366,3.366,0,0,0,.809,2.32,2.788,2.788,0,0,0,2.127.817,4.422,4.422,0,0,0,2.795-1V18.35a5.224,5.224,0,0,1-3.138.861,3.8,3.8,0,0,1-3-1.226,5.018,5.018,0,0,1-1.09-3.45,4.921,4.921,0,0,1,1.191-3.423,3.819,3.819,0,0,1,2.958-1.323,3.384,3.384,0,0,1,2.733,1.143,4.764,4.764,0,0,1,.967,3.173Zm-1.477-1.222a2.933,2.933,0,0,0-.6-1.942A2.051,2.051,0,0,0,158.3,11a2.328,2.328,0,0,0-1.731.729,3.31,3.31,0,0,0-.879,1.907ZM171.681,19H170.24V13.867q0-2.865-2.092-2.865a2.269,2.269,0,0,0-1.789.813,3.013,3.013,0,0,0-.708,2.052V19H164.21V10h1.441v1.494h.035a3.248,3.248,0,0,1,2.953-1.705,2.753,2.753,0,0,1,2.259.954,4.248,4.248,0,0,1,.782,2.755Zm6.891-.088a2.779,2.779,0,0,1-1.345.281q-2.364,0-2.364-2.637V11.23h-1.547V10h1.547V7.8l1.441-.466V10h2.268v1.23H176.3V16.3a2.1,2.1,0,0,0,.308,1.292,1.228,1.228,0,0,0,1.02.387,1.515,1.515,0,0,0,.94-.3Zm5.687.3a4.175,4.175,0,0,1-3.186-1.261,4.672,4.672,0,0,1-1.191-3.344,4.867,4.867,0,0,1,1.239-3.542,4.455,4.455,0,0,1,3.349-1.274,4.037,4.037,0,0,1,3.142,1.239,4.914,4.914,0,0,1,1.129,3.437,4.835,4.835,0,0,1-1.217,3.45A4.265,4.265,0,0,1,184.258,19.211ZM184.364,11a2.742,2.742,0,0,0-2.2.945,3.88,3.88,0,0,0-.809,2.606,3.67,3.67,0,0,0,.817,2.522,2.778,2.778,0,0,0,2.188.923,2.635,2.635,0,0,0,2.149-.905,3.928,3.928,0,0,0,.751-2.575,4,4,0,0,0-.751-2.6A2.623,2.623,0,0,0,184.364,11Zm19.292,8h-1.441V17.471h-.035a3.327,3.327,0,0,1-3.094,1.74A3.362,3.362,0,0,1,196.374,18a4.958,4.958,0,0,1-1.015-3.292,5.394,5.394,0,0,1,1.125-3.577,3.71,3.71,0,0,1,3-1.345,2.885,2.885,0,0,1,2.7,1.459h.035V5.676h1.441Zm-1.441-4.069V13.6a2.575,2.575,0,0,0-.721-1.846A2.417,2.417,0,0,0,199.666,11a2.489,2.489,0,0,0-2.074.967,4.237,4.237,0,0,0-.756,2.672,3.81,3.81,0,0,0,.725,2.457,2.37,2.37,0,0,0,1.947.9,2.462,2.462,0,0,0,1.956-.87A3.242,3.242,0,0,0,202.214,14.931Zm11.593-.07h-6.354a3.366,3.366,0,0,0,.809,2.32,2.788,2.788,0,0,0,2.127.817,4.422,4.422,0,0,0,2.795-1V18.35a5.224,5.224,0,0,1-3.138.861,3.8,3.8,0,0,1-3-1.226,5.018,5.018,0,0,1-1.09-3.45,4.921,4.921,0,0,1,1.191-3.423,3.819,3.819,0,0,1,2.958-1.323,3.384,3.384,0,0,1,2.733,1.143,4.764,4.764,0,0,1,.967,3.173Zm-1.477-1.222a2.933,2.933,0,0,0-.6-1.942A2.051,2.051,0,0,0,210.081,11a2.328,2.328,0,0,0-1.731.729,3.31,3.31,0,0,0-.879,1.907ZM222.394,17.7h-.035V19h-1.441V5.676h1.441v5.906h.035a3.408,3.408,0,0,1,3.111-1.793A3.3,3.3,0,0,1,228.217,11a4.99,4.99,0,0,1,.98,3.239,5.578,5.578,0,0,1-1.1,3.617,3.658,3.658,0,0,1-3.006,1.358A2.96,2.96,0,0,1,222.394,17.7Zm-.035-3.63v1.257a2.676,2.676,0,0,0,.725,1.894A2.587,2.587,0,0,0,226.978,17a4.6,4.6,0,0,0,.743-2.786,3.629,3.629,0,0,0-.694-2.355A2.3,2.3,0,0,0,225.145,11a2.554,2.554,0,0,0-2.021.875A3.211,3.211,0,0,0,222.359,14.069ZM237.942,19H236.5V17.594h-.035a3.018,3.018,0,0,1-2.769,1.617,2.959,2.959,0,0,1-2.1-.712,2.466,2.466,0,0,1-.76-1.89q0-2.522,2.971-2.936l2.7-.378Q236.5,11,234.646,11a4.431,4.431,0,0,0-2.936,1.107V10.633a5.577,5.577,0,0,1,3.059-.844q3.173,0,3.173,3.357ZM236.5,14.447l-2.171.3a3.525,3.525,0,0,0-1.512.5,1.432,1.432,0,0,0-.51,1.261,1.374,1.374,0,0,0,.47,1.077,1.817,1.817,0,0,0,1.252.417,2.314,2.314,0,0,0,1.771-.751,2.685,2.685,0,0,0,.7-1.9Zm5.6,4.175a5.641,5.641,0,0,1-.892,3.415,2.99,2.99,0,0,1-2.553,1.2,2.71,2.71,0,0,1-1.2-.281V21.61a2.385,2.385,0,0,0,1.23.4q1.969,0,1.969-3.146V10H242.1Zm-.7-10.907a.913.913,0,0,1-.659-.264.89.89,0,0,1-.272-.668.923.923,0,0,1,.932-.94.931.931,0,0,1,.672.268.939.939,0,0,1,0,1.332A.923.923,0,0,1,241.4,7.715Zm7.383,11.5a4.175,4.175,0,0,1-3.186-1.261,4.672,4.672,0,0,1-1.191-3.344,4.867,4.867,0,0,1,1.239-3.542,4.455,4.455,0,0,1,3.349-1.274,4.037,4.037,0,0,1,3.142,1.239,4.914,4.914,0,0,1,1.129,3.437,4.835,4.835,0,0,1-1.217,3.45A4.265,4.265,0,0,1,248.779,19.211ZM248.884,11a2.742,2.742,0,0,0-2.2.945,3.88,3.88,0,0,0-.809,2.606,3.67,3.67,0,0,0,.817,2.522,2.778,2.778,0,0,0,2.188.923,2.635,2.635,0,0,0,2.149-.905,3.928,3.928,0,0,0,.751-2.575,4,4,0,0,0-.751-2.6A2.623,2.623,0,0,0,248.884,11Zm17.745,7.585a4.684,4.684,0,0,1-2.461.624,4.074,4.074,0,0,1-3.107-1.252,4.539,4.539,0,0,1-1.182-3.248,4.99,4.99,0,0,1,1.274-3.573,4.458,4.458,0,0,1,3.4-1.349,4.735,4.735,0,0,1,2.092.439v1.477A3.665,3.665,0,0,0,264.5,11a2.9,2.9,0,0,0-2.263.989,3.752,3.752,0,0,0-.883,2.6,3.573,3.573,0,0,0,.831,2.5,2.863,2.863,0,0,0,2.228.914,3.613,3.613,0,0,0,2.215-.782Zm5.941.624a4.175,4.175,0,0,1-3.186-1.261,4.672,4.672,0,0,1-1.191-3.344,4.867,4.867,0,0,1,1.239-3.542,4.455,4.455,0,0,1,3.349-1.274,4.037,4.037,0,0,1,3.142,1.239,4.914,4.914,0,0,1,1.129,3.437,4.835,4.835,0,0,1-1.217,3.45A4.265,4.265,0,0,1,272.571,19.211ZM272.676,11a2.742,2.742,0,0,0-2.2.945,3.88,3.88,0,0,0-.809,2.606,3.67,3.67,0,0,0,.817,2.522,2.778,2.778,0,0,0,2.188.923,2.635,2.635,0,0,0,2.149-.905,3.928,3.928,0,0,0,.751-2.575,4,4,0,0,0-.751-2.6A2.623,2.623,0,0,0,272.676,11Zm6.135,7.673V17.128A4.266,4.266,0,0,0,281.4,18q1.9,0,1.9-1.266a1.1,1.1,0,0,0-.163-.611,1.62,1.62,0,0,0-.439-.444,3.383,3.383,0,0,0-.65-.347q-.374-.154-.8-.321a10.357,10.357,0,0,1-1.05-.479,3.173,3.173,0,0,1-.756-.545,2.028,2.028,0,0,1-.457-.69,2.441,2.441,0,0,1-.154-.905,2.15,2.15,0,0,1,.29-1.121,2.572,2.572,0,0,1,.773-.817,3.607,3.607,0,0,1,1.1-.5,4.893,4.893,0,0,1,1.279-.167,5.164,5.164,0,0,1,2.092.4v1.459a4.077,4.077,0,0,0-2.285-.65,2.671,2.671,0,0,0-.729.092,1.786,1.786,0,0,0-.558.259,1.2,1.2,0,0,0-.36.4,1.053,1.053,0,0,0-.127.514,1.233,1.233,0,0,0,.127.589,1.3,1.3,0,0,0,.374.422,2.855,2.855,0,0,0,.6.334q.352.149.8.325a11.131,11.131,0,0,1,1.072.47,3.678,3.678,0,0,1,.809.545,2.129,2.129,0,0,1,.514.7,2.254,2.254,0,0,1,.18.94,2.217,2.217,0,0,1-.294,1.16,2.523,2.523,0,0,1-.787.817,3.6,3.6,0,0,1-1.134.483,5.6,5.6,0,0,1-1.345.158A5.106,5.106,0,0,1,278.811,18.675Zm12.357.237a2.779,2.779,0,0,1-1.345.281q-2.364,0-2.364-2.637V11.23h-1.547V10h1.547V7.8l1.441-.466V10h2.268v1.23H288.9V16.3a2.1,2.1,0,0,0,.308,1.292,1.228,1.228,0,0,0,1.02.387,1.515,1.515,0,0,0,.94-.3Zm9.158-4.052h-6.354a3.366,3.366,0,0,0,.809,2.32,2.788,2.788,0,0,0,2.127.817,4.422,4.422,0,0,0,2.795-1V18.35a5.224,5.224,0,0,1-3.138.861,3.8,3.8,0,0,1-3-1.226,5.018,5.018,0,0,1-1.09-3.45,4.921,4.921,0,0,1,1.191-3.423,3.819,3.819,0,0,1,2.958-1.323,3.384,3.384,0,0,1,2.733,1.143,4.764,4.764,0,0,1,.967,3.173Zm-1.477-1.222a2.933,2.933,0,0,0-.6-1.942A2.051,2.051,0,0,0,296.6,11a2.328,2.328,0,0,0-1.731.729,3.31,3.31,0,0,0-.879,1.907Z" transform="translate(743 11479)" fill="#00223d"/>
  </g>
</svg>
