<svg xmlns="http://www.w3.org/2000/svg" width="73.443" height="75" viewBox="0 0 73.443 75">
  <g id="Grupo_13442" data-name="Grupo 13442" transform="translate(-235 -15955)">
    <circle id="Elipse_797" data-name="Elipse 797" cx="30.5" cy="30.5" r="30.5" transform="translate(235 15955)" fill="#efd6d0"/>
    <g id="product" transform="translate(245.443 15967)">
      <path id="Trazado_15029" data-name="Trazado 15029" d="M26,57h6v2H26Z" fill="#97181a"/>
      <path id="Trazado_15030" data-name="Trazado 15030" d="M63,17.279l-2.455-.819L61.7,14.146,57.854,10.3l-2.315,1.158L54.721,9H49.28l-.818,2.456L46.147,10.3,42.3,14.146l.426.854H38.373A18.843,18.843,0,0,0,20.244,1h-.488A18.755,18.755,0,0,0,9,35.12a4.693,4.693,0,0,1,2,3.841V39H4.307L.557,49H4v9a5.006,5.006,0,0,0,5,5H31a5.006,5.006,0,0,0,5-5V49h3.443l-3.75-10H29v-.038a4.693,4.693,0,0,1,2-3.841A18.731,18.731,0,0,0,38.232,25h4.493l-.427.854L46.146,29.7l2.315-1.158L49.279,31H54.72l.818-2.456L57.853,29.7,61.7,25.854,60.544,23.54,63,22.721ZM18.923,39l-1.36-17h2.489a2.436,2.436,0,0,0,.532.288l1.775.666L21.077,39Zm2.364-18.585a.443.443,0,0,1,0-.83L27,17.443v5.114ZM29,21H41v1.721l.837.279H29Zm12-3.721V19H29V17H41.837Zm-30.854,16.2A16.756,16.756,0,0,1,19.756,3h.488A16.843,16.843,0,0,1,36.307,15H27.818l-7.232,2.712A2.455,2.455,0,0,0,19,20H17.4l-.186-2.319A4.02,4.02,0,0,0,13.23,14H13a4,4,0,0,0,0,8h2.557l1.36,17H13v-.038a6.692,6.692,0,0,0-2.854-5.48ZM15.4,20H13a2,2,0,0,1,0-4h.23a2.01,2.01,0,0,1,1.993,1.84Zm-9.7,21H16.556l-2.25,6H3.443ZM6,58V49h9.693L18,42.849V61H9A3,3,0,0,1,6,58Zm28,0a3,3,0,0,1-3,3H20V42.849L22.307,49H34Zm2.557-11H23.693l-2.25-6H34.306Zm-6.7-13.518A6.692,6.692,0,0,0,27,38.962V39H23.083l1.225-15.316L27.818,25h8.331a16.742,16.742,0,0,1-6.3,8.482ZM61,21.279l-2.294.765-.169.441c-.05.128-.1.255-.155.379l-.194.433,1.081,2.162L57.46,27.268,55.3,26.187l-.433.194c-.123.055-.248.1-.375.153l-.445.168L53.279,29H50.72l-.766-2.3-.445-.168c-.127-.048-.252-.1-.375-.153l-.433-.194-2.162,1.081L44.73,25.459,45.811,23.3l-.194-.433c-.056-.125-.1-.251-.155-.379l-.169-.441L43,21.279V18.72l2.294-.765.169-.441c.05-.128.1-.255.155-.379l.194-.433L44.731,14.54l1.809-1.809L48.7,13.812l.433-.194c.123-.055.248-.1.375-.153l.445-.168.766-2.3H53.28l.766,2.3.445.168c.127.048.252.1.375.153l.433.194,2.162-1.081,1.809,1.809L58.189,16.7l.194.433c.056.125.1.251.155.379l.169.441L61,18.721Z" fill="#97181a"/>
      <path id="Trazado_15031" data-name="Trazado 15031" d="M52,15a5,5,0,1,0,5,5A5.006,5.006,0,0,0,52,15Zm0,8a3,3,0,1,1,3-3A3,3,0,0,1,52,23Z" fill="#97181a"/>
      <path id="Trazado_15032" data-name="Trazado 15032" d="M7,20H5a15.369,15.369,0,0,0,.151,2.141l1.98-.281A13.338,13.338,0,0,1,7,20Z" fill="#97181a"/>
      <path id="Trazado_15033" data-name="Trazado 15033" d="M7.539,23.715l-1.918.57A14.957,14.957,0,0,0,12.5,32.993l1-1.731a12.958,12.958,0,0,1-5.962-7.547Z" fill="#97181a"/>
      <path id="Trazado_15034" data-name="Trazado 15034" d="M17,7h2V9H17Z" fill="#97181a"/>
      <path id="Trazado_15035" data-name="Trazado 15035" d="M13,7h2V9H13Z" fill="#97181a"/>
      <path id="Trazado_15036" data-name="Trazado 15036" d="M25,7h2V9H25Z" fill="#97181a"/>
      <path id="Trazado_15037" data-name="Trazado 15037" d="M21,7h2V9H21Z" fill="#97181a"/>
    </g>
  </g>
</svg>
