<svg xmlns="http://www.w3.org/2000/svg" width="68.218" height="71.218" viewBox="0 0 68.218 71.218">
  <g id="Grupo_13441" data-name="Grupo 13441" transform="translate(-235 -16068)">
    <circle id="Elipse_798" data-name="Elipse 798" cx="30.5" cy="30.5" r="30.5" transform="translate(235 16068)" fill="#efd6d0"/>
    <g id="inventory" transform="translate(247 16083)">
      <path id="Trazado_15038" data-name="Trazado 15038" d="M33,60.375H59.718V39H33ZM43.687,40.781h5.344v1.781H43.687Zm-8.906,0h7.125v3.562h8.906V40.781h7.125V58.593H34.781Z" transform="translate(-3.501 -4.157)" fill="#97181a"/>
      <path id="Trazado_15039" data-name="Trazado 15039" d="M57,57h1.781v1.781H57Z" transform="translate(-6.126 -6.126)" fill="#97181a"/>
      <path id="Trazado_15040" data-name="Trazado 15040" d="M53,57h1.781v1.781H53Z" transform="translate(-5.688 -6.126)" fill="#97181a"/>
      <path id="Trazado_15041" data-name="Trazado 15041" d="M49,57h1.781v1.781H49Z" transform="translate(-5.251 -6.126)" fill="#97181a"/>
      <path id="Trazado_15042" data-name="Trazado 15042" d="M54.437,18.812H52.655V1H29.5V18.812H27.718V1H4.562V18.812H2.781A1.783,1.783,0,0,0,1,20.593v1.781a1.783,1.783,0,0,0,1.781,1.781H7.468a7.07,7.07,0,0,0,2.959,7.717A13.382,13.382,0,0,0,1,44.64a4.456,4.456,0,0,0,2.672,4.075v7.5H27.718V44.64a13.382,13.382,0,0,0-9.427-12.767,7.07,7.07,0,0,0,2.959-7.717H54.437a1.783,1.783,0,0,0,1.781-1.781V20.593A1.783,1.783,0,0,0,54.437,18.812ZM38.406,2.781h5.344V4.562H38.406Zm-7.125,0h5.344V6.344H45.53V2.781h5.344V18.812H45.53V15.25H36.624v3.562H31.281ZM43.749,18.812H38.406V17.031h5.344ZM13.469,2.781h5.344V4.562H13.469Zm-7.125,0h5.344V6.344h8.906V2.781h5.344V18.812H20.593V15.25H11.687v3.562H6.344Zm7.125,16.031V17.031h5.344v1.781ZM2.781,22.375V20.593H9.662A7.186,7.186,0,0,0,8.2,22.375ZM5.453,49.093H9.015v5.344H5.453Zm8.461-6.234H10.8V38.406h6.234v4.453h4.453V54.437H10.8V49.093h3.117a3.117,3.117,0,1,0,0-6.234Zm4.9-3.194,1.413,1.413H18.812Zm7.125,4.975v9.8H23.265V41.6L18.29,36.624H9.015v6.234H6.344V44.64h7.57a1.336,1.336,0,1,1,0,2.672H5.453A2.675,2.675,0,0,1,2.781,44.64a11.578,11.578,0,1,1,23.156,0ZM14.359,31.281A5.344,5.344,0,1,1,19.7,25.937,5.349,5.349,0,0,1,14.359,31.281Zm40.077-8.906H20.52a7.166,7.166,0,0,0-1.464-1.781h35.38Z" fill="#97181a"/>
      <path id="Trazado_15043" data-name="Trazado 15043" d="M49,53h8.906v1.781H49Z" transform="translate(-5.251 -5.688)" fill="#97181a"/>
    </g>
  </g>
</svg>
