<svg xmlns="http://www.w3.org/2000/svg" width="68.848" height="62.717" viewBox="0 0 68.848 62.717">
  <g id="Grupo_18079" data-name="Grupo 18079" transform="translate(-235 -9176)">
    <circle id="Elipse_797" data-name="Elipse 797" cx="30.5" cy="30.5" r="30.5" transform="translate(235 9176)" fill="#efd6d0"/>
    <g id="shopping-bags" transform="translate(225.292 9118.757)">
      <path id="Trazado_17182" data-name="Trazado 17182" d="M78.292,113.355a1.043,1.043,0,0,0,.257-.813L75.421,85.434a1.043,1.043,0,0,0-1.036-.923H69.173V82.426a6.256,6.256,0,1,0-12.511,0H54.576V79.3a7.3,7.3,0,1,0-14.6,0v3.128H37.895a6.256,6.256,0,1,0-12.511,0v2.085H20.171a1.043,1.043,0,0,0-1.036.923l-3.128,27.108a1.043,1.043,0,0,0,1.036,1.162H29.9l-.47,5.118a1.043,1.043,0,0,0,1.038,1.138H63.96A1.043,1.043,0,0,0,65,118.826l-.452-5.122H77.514a1.043,1.043,0,0,0,.779-.349Zm-15.375-35.1a4.175,4.175,0,0,1,4.17,4.17v2.085H61.971l-.1-1.134a1.043,1.043,0,0,0-1.039-.951H58.747A4.175,4.175,0,0,1,62.917,78.256ZM42.065,79.3a5.213,5.213,0,1,1,10.426,0v3.128H42.065Zm-14.6,3.128a4.17,4.17,0,1,1,8.341,0H33.724a1.043,1.043,0,0,0-1.038.947l-.1,1.138H27.469Zm-9.256,29.193L21.1,86.6h4.284v2.085a1.043,1.043,0,1,0,2.085,0V86.6H32.39l-2.3,25.022Zm13.4,6.256,3.067-33.363h5.3v4.17a1.043,1.043,0,1,0,2.085,0v-4.17H52.491v4.17a1.043,1.043,0,1,0,2.085,0v-4.17h5.3l2.944,33.363Zm32.753-6.256L62.155,86.6h4.933v2.085a1.043,1.043,0,1,0,2.085,0V86.6h4.284l2.887,25.022Z" transform="translate(0 0)" fill="#97181a"/>
      <ellipse id="Elipse_827" data-name="Elipse 827" cx="0.5" cy="1" rx="0.5" ry="1" transform="translate(40.708 91.243)" fill="#97181a"/>
      <circle id="Elipse_828" data-name="Elipse 828" cx="1" cy="1" r="1" transform="translate(24.708 91.243)" fill="#97181a"/>
      <ellipse id="Elipse_829" data-name="Elipse 829" cx="0.5" cy="1" rx="0.5" ry="1" transform="translate(52.708 91.243)" fill="#97181a"/>
      <circle id="Elipse_830" data-name="Elipse 830" cx="1" cy="1" r="1" transform="translate(67.708 91.243)" fill="#97181a"/>
    </g>
  </g>
</svg>
