<?xml version="1.0" encoding="UTF-8" standalone="no"?><!DOCTYPE svg PUBLIC "-//W3C//DTD SVG 1.1//EN" "http://www.w3.org/Graphics/SVG/1.1/DTD/svg11.dtd"><svg width="100%" height="100%" viewBox="0 0 894 86" version="1.1" xmlns="http://www.w3.org/2000/svg" xmlns:xlink="http://www.w3.org/1999/xlink" xml:space="preserve" xmlns:serif="http://www.serif.com/" style="fill-rule:evenodd;clip-rule:evenodd;stroke-linejoin:round;stroke-miterlimit:2;"><g id="Grupo_13460"><g><rect id="Rectángulo_3105" x="0" y="0" width="211" height="86" style="fill:#eef0f2;"/><rect id="Rectángulo_3106" x="228" y="0" width="211" height="86" style="fill:#eef0f2;"/><rect id="Rectángulo_3107" x="456" y="0" width="211" height="86" style="fill:#eef0f2;"/><rect id="Rectángulo_3108" x="683" y="0" width="211" height="86" style="fill:#eef0f2;"/><path id="Trazado_17274" d="M72.135,48.044l-3.115,-0l3.346,-8.379c0.361,-0.905 0.799,-1.905 1.315,-3l-0.078,-0c-0.357,0.627 -0.751,1.246 -1.18,1.855l-7.082,9.524l-2.581,-0l0.423,-9.424c0.075,-0.643 0.189,-1.295 0.341,-1.953l-0.088,-0c-0.467,1.38 -0.908,2.591 -1.324,3.633l-3.092,7.744l-2.842,-0l5.59,-14l4.619,-0l-0.453,8.3c-0.035,0.65 -0.134,1.32 -0.299,2l0.059,-0c0.424,-0.683 0.879,-1.358 1.364,-2.021l6.165,-8.279l4.5,-0l-5.588,14Zm11.2,-0l-2.92,-0l0.573,-1.436l-0.039,-0c-1.024,1.076 -2.44,1.727 -3.649,1.68c-0.862,0.047 -1.571,-0.251 -1.961,-0.825c-0.336,-0.586 -0.321,-1.383 0.043,-2.2c0.775,-1.94 2.371,-3.06 4.789,-3.359l2.859,-0.361c0.437,-1.094 0.063,-1.641 -1.122,-1.641c-1.217,0.006 -2.549,0.377 -3.825,1.064l0.927,-2.322c0.668,-0.267 1.339,-0.463 1.997,-0.586c0.731,-0.16 1.448,-0.245 2.138,-0.254c2.851,-0 3.709,1.422 2.573,4.268l-2.383,5.972Zm-1.278,-4.062l0.269,-0.674l-1.909,0.234c-1.054,0.133 -1.734,0.585 -2.042,1.357c-0.141,0.327 -0.133,0.643 0.021,0.864c0.18,0.235 0.487,0.356 0.856,0.337c0.53,0.018 1.136,-0.202 1.656,-0.6c0.536,-0.417 0.948,-0.961 1.15,-1.518l-0.001,-0Zm13.126,-3.155c-0.318,-0.208 -0.724,-0.312 -1.18,-0.3c-0.602,-0.027 -1.301,0.248 -1.867,0.737c-0.641,0.587 -1.122,1.294 -1.367,2.007l-1.906,4.773l-3.085,-0l3.993,-10l3.086,-0l-0.741,1.855l0.039,-0c0.778,-1.206 2.217,-2.052 3.449,-2.031c0.264,-0.011 0.507,0.028 0.716,0.117l-1.137,2.842Zm8.573,7.217l-3.7,-0l-1.212,-4.961l-0.039,-0l-1.981,4.961l-3.083,-0l5.91,-14.8l3.086,-0l-3.763,9.424l0.039,-0l4.821,-4.624l3.662,-0l-5.461,4.7l1.721,5.3Zm11.509,-4.121l-6.523,-0c-0.476,1.452 0.148,2.178 1.874,2.178c1.012,0.021 2.127,-0.25 3.212,-0.781l-0.888,2.224c-1.336,0.537 -2.674,0.792 -3.897,0.742c-1.417,0.085 -2.583,-0.401 -3.223,-1.343c-0.532,-1.013 -0.476,-2.366 0.155,-3.743c0.506,-1.457 1.597,-2.883 3.02,-3.945c1.314,-0.957 2.813,-1.484 4.136,-1.455c1.294,-0.077 2.34,0.397 2.865,1.3c0.449,0.976 0.375,2.239 -0.207,3.525l-0.524,1.298Zm-2.105,-1.895c0.572,-1.432 0.279,-2.148 -0.88,-2.148c-0.499,0.001 -1.061,0.227 -1.53,0.615c-0.543,0.431 -0.986,0.967 -1.271,1.533l3.681,-0Zm8.386,5.9c-0.761,0.278 -1.516,0.402 -2.205,0.361c-2.175,-0 -2.811,-1.13 -1.909,-3.389l1.829,-4.58l-1.62,-0l0.909,-2.276l1.621,-0l0.862,-2.158l3.427,-0.879l-1.213,3.037l2.246,-0l-0.908,2.275l-2.246,-0l-1.615,4.043c-0.416,1.041 -0.21,1.562 0.616,1.563c0.357,-0.008 0.742,-0.105 1.119,-0.283l-0.913,2.286Zm7.878,-11.465c-0.478,0.018 -0.87,-0.148 -1.093,-0.464c-0.208,-0.289 -0.225,-0.705 -0.046,-1.138c0.161,-0.434 0.511,-0.85 0.952,-1.133c0.985,-0.584 2.045,-0.584 2.563,-0c0.212,0.285 0.227,0.701 0.041,1.133c-0.162,0.437 -0.511,0.859 -0.953,1.152c-0.477,0.308 -1.001,0.469 -1.462,0.449l-0.002,0.001Zm-3.1,11.581l-3.083,-0l3.993,-10l3.086,-0l-3.996,10Zm12.256,-0l-3.076,-0l2.219,-5.557c0.619,-1.55 0.375,-2.324 -0.732,-2.324c-0.506,-0.011 -1.085,0.217 -1.564,0.615c-0.532,0.441 -0.938,0.996 -1.142,1.563l-2.277,5.703l-3.086,-0l3.993,-10l3.086,-0l-0.632,1.582l0.039,-0c1.106,-1.163 2.633,-1.87 3.942,-1.826c2.214,-0 2.772,1.373 1.675,4.121l-2.445,6.123Zm12.702,-1.143c-0.54,1.6 -1.753,3.168 -3.332,4.312c-1.736,1.097 -3.631,1.645 -5.279,1.528c-1.115,0.047 -2.129,-0.149 -2.97,-0.576l1.039,-2.6c0.709,0.574 1.661,0.885 2.755,0.9c0.862,0.055 1.852,-0.241 2.752,-0.825c0.826,-0.592 1.463,-1.407 1.754,-2.241l0.315,-0.791l-0.039,-0c-1.083,1.089 -2.541,1.736 -3.785,1.68c-1.186,0.048 -2.111,-0.451 -2.499,-1.348c-0.381,-1.032 -0.267,-2.314 0.319,-3.613c0.502,-1.45 1.517,-2.881 2.861,-4.033c1.196,-0.983 2.635,-1.536 3.887,-1.494c1.122,-0.062 1.955,0.478 2.173,1.406l0.039,-0l0.464,-1.162l3.086,-0l-3.54,8.857Zm-1.586,-3.657l0.319,-0.8c0.25,-0.589 0.279,-1.164 0.083,-1.616c-0.181,-0.438 -0.622,-0.685 -1.193,-0.669c-0.628,-0.023 -1.355,0.278 -1.93,0.8c-0.697,0.671 -1.218,1.461 -1.487,2.256c-0.319,0.702 -0.401,1.398 -0.233,1.978c0.166,0.478 0.628,0.75 1.233,0.728c0.597,0.016 1.283,-0.258 1.842,-0.737c0.638,-0.56 1.12,-1.245 1.366,-1.94Z" style="fill:#002b45;fill-rule:nonzero;"/><path id="Trazado_17275" d="M300.135,48.044l-3.115,-0l3.346,-8.379c0.361,-0.905 0.799,-1.905 1.315,-3l-0.078,-0c-0.357,0.627 -0.751,1.246 -1.18,1.855l-7.082,9.524l-2.581,-0l0.423,-9.424c0.075,-0.643 0.189,-1.295 0.341,-1.953l-0.088,-0c-0.467,1.38 -0.908,2.591 -1.324,3.633l-3.092,7.744l-2.842,-0l5.59,-14l4.619,-0l-0.453,8.3c-0.035,0.65 -0.134,1.32 -0.299,2l0.059,-0c0.424,-0.683 0.879,-1.358 1.364,-2.021l6.165,-8.279l4.5,-0l-5.588,14Zm11.2,-0l-2.92,-0l0.573,-1.436l-0.039,-0c-1.024,1.076 -2.44,1.727 -3.649,1.68c-0.862,0.047 -1.571,-0.251 -1.961,-0.825c-0.336,-0.586 -0.321,-1.383 0.043,-2.2c0.775,-1.94 2.371,-3.06 4.789,-3.359l2.859,-0.361c0.437,-1.094 0.063,-1.641 -1.122,-1.641c-1.217,0.006 -2.549,0.377 -3.825,1.064l0.927,-2.322c0.668,-0.267 1.339,-0.463 1.997,-0.586c0.731,-0.16 1.448,-0.245 2.138,-0.254c2.851,-0 3.709,1.422 2.573,4.268l-2.383,5.972Zm-1.278,-4.062l0.269,-0.674l-1.909,0.234c-1.054,0.133 -1.734,0.585 -2.042,1.357c-0.141,0.327 -0.133,0.643 0.021,0.864c0.18,0.235 0.487,0.356 0.856,0.337c0.53,0.018 1.136,-0.202 1.656,-0.6c0.536,-0.417 0.948,-0.961 1.15,-1.518l-0.001,-0Zm13.126,-3.155c-0.318,-0.208 -0.724,-0.312 -1.18,-0.3c-0.602,-0.027 -1.301,0.248 -1.867,0.737c-0.641,0.587 -1.122,1.294 -1.367,2.007l-1.906,4.773l-3.085,-0l3.993,-10l3.086,-0l-0.741,1.855l0.039,-0c0.778,-1.206 2.217,-2.052 3.449,-2.031c0.264,-0.011 0.507,0.028 0.716,0.117l-1.137,2.842Zm8.573,7.217l-3.7,-0l-1.212,-4.961l-0.039,-0l-1.981,4.961l-3.083,-0l5.91,-14.8l3.086,-0l-3.763,9.424l0.039,-0l4.821,-4.624l3.662,-0l-5.461,4.7l1.721,5.3Zm11.509,-4.121l-6.523,-0c-0.476,1.452 0.148,2.178 1.874,2.178c1.012,0.021 2.127,-0.25 3.212,-0.781l-0.888,2.224c-1.336,0.537 -2.674,0.792 -3.897,0.742c-1.417,0.085 -2.583,-0.401 -3.223,-1.343c-0.532,-1.013 -0.476,-2.366 0.155,-3.743c0.506,-1.457 1.597,-2.883 3.02,-3.945c1.314,-0.957 2.813,-1.484 4.136,-1.455c1.294,-0.077 2.34,0.397 2.865,1.3c0.449,0.976 0.375,2.239 -0.207,3.525l-0.524,1.298Zm-2.105,-1.895c0.572,-1.432 0.279,-2.148 -0.88,-2.148c-0.499,0.001 -1.061,0.227 -1.53,0.615c-0.543,0.431 -0.986,0.967 -1.271,1.533l3.681,-0Zm8.386,5.9c-0.761,0.278 -1.516,0.402 -2.205,0.361c-2.175,-0 -2.811,-1.13 -1.909,-3.389l1.829,-4.58l-1.62,-0l0.909,-2.276l1.621,-0l0.862,-2.158l3.427,-0.879l-1.213,3.037l2.246,-0l-0.908,2.275l-2.246,-0l-1.615,4.043c-0.416,1.041 -0.21,1.562 0.616,1.563c0.357,-0.008 0.742,-0.105 1.119,-0.283l-0.913,2.286Zm7.878,-11.465c-0.478,0.018 -0.87,-0.148 -1.093,-0.464c-0.208,-0.289 -0.225,-0.705 -0.046,-1.138c0.161,-0.434 0.511,-0.85 0.952,-1.133c0.985,-0.584 2.045,-0.584 2.563,-0c0.212,0.285 0.227,0.701 0.041,1.133c-0.162,0.437 -0.511,0.859 -0.953,1.152c-0.477,0.308 -1.001,0.469 -1.462,0.449l-0.002,0.001Zm-3.1,11.581l-3.083,-0l3.993,-10l3.086,-0l-3.996,10Zm12.256,-0l-3.076,-0l2.219,-5.557c0.619,-1.55 0.375,-2.324 -0.732,-2.324c-0.506,-0.011 -1.085,0.217 -1.564,0.615c-0.532,0.441 -0.938,0.996 -1.142,1.563l-2.277,5.703l-3.086,-0l3.993,-10l3.086,-0l-0.632,1.582l0.039,-0c1.106,-1.163 2.633,-1.87 3.942,-1.826c2.214,-0 2.772,1.373 1.675,4.121l-2.445,6.123Zm12.702,-1.143c-0.54,1.6 -1.753,3.168 -3.332,4.312c-1.736,1.097 -3.631,1.645 -5.279,1.528c-1.115,0.047 -2.129,-0.149 -2.97,-0.576l1.039,-2.6c0.709,0.574 1.661,0.885 2.755,0.9c0.862,0.055 1.852,-0.241 2.752,-0.825c0.826,-0.592 1.463,-1.407 1.754,-2.241l0.315,-0.791l-0.039,-0c-1.083,1.089 -2.541,1.736 -3.785,1.68c-1.186,0.048 -2.111,-0.451 -2.499,-1.348c-0.381,-1.032 -0.267,-2.314 0.319,-3.613c0.502,-1.45 1.517,-2.881 2.861,-4.033c1.196,-0.983 2.635,-1.536 3.887,-1.494c1.122,-0.062 1.955,0.478 2.173,1.406l0.039,-0l0.464,-1.162l3.086,-0l-3.54,8.857Zm-1.586,-3.657l0.319,-0.8c0.25,-0.589 0.279,-1.164 0.083,-1.616c-0.181,-0.438 -0.622,-0.685 -1.193,-0.669c-0.628,-0.023 -1.355,0.278 -1.93,0.8c-0.697,0.671 -1.218,1.461 -1.487,2.256c-0.319,0.702 -0.401,1.398 -0.233,1.978c0.166,0.478 0.628,0.75 1.233,0.728c0.597,0.016 1.283,-0.258 1.842,-0.737c0.638,-0.56 1.12,-1.245 1.366,-1.94Z" style="fill:#002b45;fill-rule:nonzero;"/><path id="Trazado_17276" d="M528.135,48.044l-3.115,-0l3.346,-8.379c0.361,-0.905 0.799,-1.905 1.315,-3l-0.078,-0c-0.357,0.627 -0.751,1.246 -1.18,1.855l-7.082,9.524l-2.581,-0l0.423,-9.424c0.075,-0.643 0.189,-1.295 0.341,-1.953l-0.088,-0c-0.467,1.38 -0.908,2.591 -1.324,3.633l-3.092,7.744l-2.842,-0l5.59,-14l4.619,-0l-0.453,8.3c-0.035,0.65 -0.134,1.32 -0.299,2l0.059,-0c0.424,-0.683 0.879,-1.358 1.364,-2.021l6.165,-8.279l4.5,-0l-5.588,14Zm11.2,-0l-2.92,-0l0.573,-1.436l-0.039,-0c-1.024,1.076 -2.44,1.727 -3.649,1.68c-0.862,0.047 -1.571,-0.251 -1.961,-0.825c-0.336,-0.586 -0.321,-1.383 0.043,-2.2c0.775,-1.94 2.371,-3.06 4.789,-3.359l2.859,-0.361c0.437,-1.094 0.063,-1.641 -1.122,-1.641c-1.217,0.006 -2.549,0.377 -3.825,1.064l0.927,-2.322c0.668,-0.267 1.339,-0.463 1.997,-0.586c0.731,-0.16 1.448,-0.245 2.138,-0.254c2.851,-0 3.709,1.422 2.573,4.268l-2.383,5.972Zm-1.278,-4.062l0.269,-0.674l-1.909,0.234c-1.054,0.133 -1.734,0.585 -2.042,1.357c-0.141,0.327 -0.133,0.643 0.021,0.864c0.18,0.235 0.487,0.356 0.856,0.337c0.53,0.018 1.136,-0.202 1.656,-0.6c0.536,-0.417 0.948,-0.961 1.15,-1.518l-0.001,-0Zm13.126,-3.155c-0.318,-0.208 -0.724,-0.312 -1.18,-0.3c-0.602,-0.027 -1.301,0.248 -1.867,0.737c-0.641,0.587 -1.122,1.294 -1.367,2.007l-1.906,4.773l-3.085,-0l3.993,-10l3.086,-0l-0.741,1.855l0.039,-0c0.778,-1.206 2.217,-2.052 3.449,-2.031c0.264,-0.011 0.507,0.028 0.716,0.117l-1.137,2.842Zm8.573,7.217l-3.7,-0l-1.212,-4.961l-0.039,-0l-1.981,4.961l-3.083,-0l5.91,-14.8l3.086,-0l-3.763,9.424l0.039,-0l4.821,-4.624l3.662,-0l-5.461,4.7l1.721,5.3Zm11.509,-4.121l-6.523,-0c-0.476,1.452 0.148,2.178 1.874,2.178c1.012,0.021 2.127,-0.25 3.212,-0.781l-0.888,2.224c-1.336,0.537 -2.674,0.792 -3.897,0.742c-1.417,0.085 -2.583,-0.401 -3.223,-1.343c-0.532,-1.013 -0.476,-2.366 0.155,-3.743c0.506,-1.457 1.597,-2.883 3.02,-3.945c1.314,-0.957 2.813,-1.484 4.136,-1.455c1.294,-0.077 2.34,0.397 2.865,1.3c0.449,0.976 0.375,2.239 -0.207,3.525l-0.524,1.298Zm-2.105,-1.895c0.572,-1.432 0.279,-2.148 -0.88,-2.148c-0.499,0.001 -1.061,0.227 -1.53,0.615c-0.543,0.431 -0.986,0.967 -1.271,1.533l3.681,-0Zm8.386,5.9c-0.761,0.278 -1.516,0.402 -2.205,0.361c-2.175,-0 -2.811,-1.13 -1.909,-3.389l1.829,-4.58l-1.62,-0l0.909,-2.276l1.621,-0l0.862,-2.158l3.427,-0.879l-1.213,3.037l2.246,-0l-0.908,2.275l-2.246,-0l-1.615,4.043c-0.416,1.041 -0.21,1.562 0.616,1.563c0.357,-0.008 0.742,-0.105 1.119,-0.283l-0.913,2.286Zm7.878,-11.465c-0.478,0.018 -0.87,-0.148 -1.093,-0.464c-0.208,-0.289 -0.225,-0.705 -0.046,-1.138c0.161,-0.434 0.511,-0.85 0.952,-1.133c0.985,-0.584 2.045,-0.584 2.563,-0c0.212,0.285 0.227,0.701 0.041,1.133c-0.162,0.437 -0.511,0.859 -0.953,1.152c-0.477,0.308 -1.001,0.469 -1.462,0.449l-0.002,0.001Zm-3.1,11.581l-3.083,-0l3.993,-10l3.086,-0l-3.996,10Zm12.256,-0l-3.076,-0l2.219,-5.557c0.619,-1.55 0.375,-2.324 -0.732,-2.324c-0.506,-0.011 -1.085,0.217 -1.564,0.615c-0.532,0.441 -0.938,0.996 -1.142,1.563l-2.277,5.703l-3.086,-0l3.993,-10l3.086,-0l-0.632,1.582l0.039,-0c1.106,-1.163 2.633,-1.87 3.942,-1.826c2.214,-0 2.772,1.373 1.675,4.121l-2.445,6.123Zm12.702,-1.143c-0.54,1.6 -1.753,3.168 -3.332,4.312c-1.736,1.097 -3.631,1.645 -5.279,1.528c-1.115,0.047 -2.129,-0.149 -2.97,-0.576l1.039,-2.6c0.709,0.574 1.661,0.885 2.755,0.9c0.862,0.055 1.852,-0.241 2.752,-0.825c0.826,-0.592 1.463,-1.407 1.754,-2.241l0.315,-0.791l-0.039,-0c-1.083,1.089 -2.541,1.736 -3.785,1.68c-1.186,0.048 -2.111,-0.451 -2.499,-1.348c-0.381,-1.032 -0.267,-2.314 0.319,-3.613c0.502,-1.45 1.517,-2.881 2.861,-4.033c1.196,-0.983 2.635,-1.536 3.887,-1.494c1.122,-0.062 1.955,0.478 2.173,1.406l0.039,-0l0.464,-1.162l3.086,-0l-3.54,8.857Zm-1.586,-3.657l0.319,-0.8c0.25,-0.589 0.279,-1.164 0.083,-1.616c-0.181,-0.438 -0.622,-0.685 -1.193,-0.669c-0.628,-0.023 -1.355,0.278 -1.93,0.8c-0.697,0.671 -1.218,1.461 -1.487,2.256c-0.319,0.702 -0.401,1.398 -0.233,1.978c0.166,0.478 0.628,0.75 1.233,0.728c0.597,0.016 1.283,-0.258 1.842,-0.737c0.638,-0.56 1.12,-1.245 1.366,-1.94Z" style="fill:#002b45;fill-rule:nonzero;"/><path id="Trazado_17277" d="M736.522,48.044l-3.115,-0l3.346,-8.379c0.361,-0.905 0.799,-1.905 1.315,-3l-0.078,-0c-0.357,0.627 -0.751,1.246 -1.18,1.855l-7.084,9.524l-2.579,-0l0.423,-9.424c0.075,-0.643 0.189,-1.295 0.341,-1.953l-0.084,-0c-0.466,1.38 -0.908,2.591 -1.324,3.633l-3.092,7.744l-2.846,-0l5.59,-14l4.619,-0l-0.453,8.3c-0.034,0.65 -0.134,1.32 -0.298,2l0.059,-0c0.423,-0.683 0.878,-1.358 1.364,-2.021l6.165,-8.279l4.5,-0l-5.589,14Zm9.068,-11.582c-0.479,0.019 -0.873,-0.148 -1.096,-0.464c-0.208,-0.289 -0.224,-0.705 -0.045,-1.138c0.16,-0.434 0.511,-0.85 0.952,-1.133c0.985,-0.584 2.045,-0.584 2.563,-0c0.211,0.285 0.226,0.701 0.041,1.133c-0.162,0.437 -0.511,0.859 -0.953,1.152c-0.477,0.308 -1,0.469 -1.461,0.45l-0.001,-0Zm-3.101,11.582l-3.086,-0l3.993,-10l3.086,-0l-3.993,10Zm10.32,-0.361c-1.12,0.456 -2.242,0.664 -3.259,0.605c-1.405,0.058 -2.55,-0.448 -3.171,-1.4c-0.579,-0.948 -0.575,-2.254 0.011,-3.6c0.517,-1.495 1.656,-2.955 3.133,-4.019c1.517,-1.015 3.201,-1.545 4.674,-1.47c0.903,-0.061 1.719,0.1 2.372,0.469l-1.045,2.617c-0.43,-0.474 -1.088,-0.728 -1.87,-0.723c-0.76,-0.04 -1.632,0.241 -2.409,0.776c-0.772,0.578 -1.362,1.353 -1.632,2.144c-0.35,0.766 -0.383,1.518 -0.091,2.085c0.336,0.524 0.966,0.798 1.739,0.757c0.811,-0.012 1.697,-0.264 2.544,-0.723l-0.996,2.482Zm11.283,-6.855c-0.318,-0.208 -0.724,-0.312 -1.181,-0.3c-0.601,-0.027 -1.3,0.248 -1.866,0.737c-0.641,0.587 -1.122,1.294 -1.367,2.007l-1.906,4.772l-3.088,-0l3.993,-10l3.086,-0l-0.74,1.855l0.039,-0c0.777,-1.205 2.215,-2.052 3.447,-2.031c0.264,-0.011 0.507,0.028 0.716,0.117l-1.133,2.843Zm3.143,7.461c-1.477,0.081 -2.694,-0.424 -3.372,-1.4c-0.579,-1.013 -0.548,-2.39 0.087,-3.8c0.496,-1.446 1.601,-2.86 3.034,-3.882c1.491,-0.975 3.135,-1.478 4.573,-1.4c1.47,-0.083 2.679,0.423 3.347,1.4c0.571,0.985 0.548,2.328 -0.064,3.706c-0.504,1.456 -1.602,2.882 -3.032,3.936c-1.481,1.002 -3.133,1.521 -4.572,1.439l-0.001,0.001Zm3.323,-8.125c-0.64,-0.034 -1.384,0.245 -2.001,0.752c-0.686,0.619 -1.2,1.37 -1.454,2.128c-0.767,1.92 -0.376,2.881 1.173,2.881c1.478,-0 2.611,-0.987 3.399,-2.959c0.746,-1.869 0.374,-2.803 -1.117,-2.803l-0,0.001Zm20.115,7.88l-3.076,-0l2.276,-5.7c0.58,-1.452 0.337,-2.178 -0.73,-2.178c-0.495,-0.006 -1.06,0.24 -1.501,0.654c-0.523,0.477 -0.919,1.05 -1.131,1.631l-2.233,5.593l-3.088,-0l2.301,-5.762c0.564,-1.413 0.322,-2.119 -0.726,-2.119c-0.493,-0.014 -1.061,0.22 -1.514,0.625c-0.54,0.499 -0.945,1.096 -1.153,1.7l-2.219,5.556l-3.085,-0l3.993,-10l3.09,-0l-0.624,1.563l0.039,-0c1.137,-1.123 2.637,-1.808 3.954,-1.807c1.305,-0.09 2.186,0.673 2.155,1.865c1.161,-1.198 2.747,-1.919 4.104,-1.865c2.174,-0 2.726,1.341 1.655,4.023l-2.487,6.221Zm10.762,-0l-2.92,-0l0.574,-1.436l-0.039,-0c-1.025,1.076 -2.441,1.727 -3.65,1.68c-0.862,0.047 -1.57,-0.251 -1.961,-0.825c-0.336,-0.586 -0.321,-1.383 0.044,-2.2c0.774,-1.94 2.37,-3.06 4.788,-3.359l2.859,-0.36c0.436,-1.094 0.063,-1.641 -1.122,-1.641c-1.217,0.006 -2.549,0.377 -3.825,1.064l0.928,-2.323c0.668,-0.267 1.338,-0.463 1.997,-0.586c0.731,-0.16 1.447,-0.245 2.137,-0.254c2.851,-0 3.709,1.422 2.573,4.268l-2.383,5.972Zm-1.278,-4.062l0.269,-0.674l-1.909,0.234c-1.053,0.133 -1.734,0.585 -2.042,1.357c-0.141,0.327 -0.133,0.643 0.021,0.864c0.181,0.235 0.487,0.356 0.856,0.337c0.53,0.018 1.136,-0.202 1.656,-0.6c0.536,-0.418 0.947,-0.962 1.148,-1.518l0.001,-0Zm13.125,-3.154c-0.318,-0.208 -0.724,-0.312 -1.181,-0.3c-0.601,-0.027 -1.3,0.248 -1.866,0.737c-0.641,0.587 -1.122,1.294 -1.367,2.007l-1.906,4.772l-3.086,-0l3.993,-10l3.086,-0l-0.74,1.855l0.039,-0c0.777,-1.205 2.215,-2.052 3.447,-2.031c0.264,-0.011 0.507,0.028 0.716,0.117l-1.135,2.843Zm8.573,7.216l-3.7,-0l-1.212,-4.961l-0.039,-0l-1.981,4.961l-3.086,-0l5.91,-14.8l3.086,-0l-3.763,9.424l0.039,-0l4.822,-4.624l3.662,-0l-5.461,4.7l1.723,5.3Zm11.509,-4.121l-6.524,-0c-0.476,1.452 0.149,2.178 1.874,2.178c1.013,0.021 2.127,-0.25 3.212,-0.781l-0.888,2.224c-1.336,0.537 -2.674,0.792 -3.896,0.742c-1.418,0.085 -2.584,-0.401 -3.224,-1.343c-0.532,-1.014 -0.475,-2.367 0.157,-3.745c0.506,-1.457 1.597,-2.883 3.02,-3.945c1.314,-0.957 2.813,-1.484 4.136,-1.455c1.294,-0.077 2.34,0.397 2.865,1.3c0.449,0.976 0.375,2.239 -0.207,3.525l-0.525,1.3Zm-2.105,-1.895c0.572,-1.432 0.279,-2.148 -0.88,-2.148c-0.499,0.001 -1.061,0.227 -1.529,0.615c-0.544,0.431 -0.987,0.967 -1.272,1.533l3.681,-0Zm8.387,5.9c-0.761,0.278 -1.516,0.402 -2.206,0.361c-2.174,-0 -2.811,-1.13 -1.908,-3.389l1.828,-4.58l-1.621,-0l0.909,-2.276l1.621,-0l0.862,-2.158l3.427,-0.879l-1.213,3.037l2.246,-0l-0.908,2.275l-2.246,-0l-1.615,4.043c-0.415,1.041 -0.21,1.562 0.616,1.563c0.357,-0.008 0.742,-0.105 1.119,-0.283l-0.911,2.286Zm7.878,-11.465c-0.478,0.018 -0.871,-0.148 -1.094,-0.464c-0.208,-0.289 -0.225,-0.705 -0.046,-1.138c0.161,-0.434 0.511,-0.85 0.953,-1.133c0.984,-0.584 2.044,-0.584 2.563,-0c0.211,0.285 0.226,0.701 0.04,1.133c-0.161,0.437 -0.51,0.859 -0.953,1.152c-0.478,0.308 -1.002,0.469 -1.463,0.449l-0,0.001Zm-3.101,11.581l-3.086,-0l3.993,-10l3.086,-0l-3.993,10Zm12.256,-0l-3.076,-0l2.219,-5.557c0.619,-1.55 0.375,-2.324 -0.732,-2.324c-0.506,-0.011 -1.085,0.217 -1.563,0.615c-0.533,0.441 -0.938,0.996 -1.143,1.563l-2.277,5.703l-3.086,-0l3.993,-10l3.086,-0l-0.631,1.582l0.039,-0c1.105,-1.163 2.632,-1.87 3.942,-1.826c2.213,-0 2.771,1.373 1.674,4.121l-2.445,6.123Zm12.703,-1.143c-0.541,1.6 -1.753,3.168 -3.333,4.312c-1.736,1.097 -3.63,1.645 -5.278,1.528c-1.115,0.047 -2.13,-0.149 -2.97,-0.576l1.038,-2.6c0.709,0.574 1.661,0.885 2.755,0.9c0.862,0.057 1.851,-0.239 2.751,-0.821c0.826,-0.592 1.464,-1.407 1.754,-2.241l0.316,-0.791l-0.039,-0c-1.084,1.089 -2.542,1.736 -3.786,1.68c-1.186,0.048 -2.111,-0.451 -2.499,-1.348c-0.38,-1.032 -0.266,-2.314 0.32,-3.613c0.501,-1.45 1.516,-2.881 2.86,-4.033c1.197,-0.983 2.636,-1.536 3.888,-1.494c1.122,-0.062 1.955,0.478 2.173,1.406l0.039,-0l0.465,-1.166l3.086,-0l-3.54,8.857Zm-1.587,-3.657l0.319,-0.8c0.25,-0.589 0.28,-1.164 0.084,-1.616c-0.182,-0.438 -0.623,-0.685 -1.193,-0.669c-0.628,-0.023 -1.356,0.278 -1.931,0.8c-0.697,0.671 -1.217,1.461 -1.487,2.256c-0.319,0.702 -0.401,1.398 -0.232,1.978c0.165,0.478 0.627,0.75 1.232,0.728c0.597,0.016 1.283,-0.258 1.842,-0.737c0.638,-0.56 1.12,-1.245 1.366,-1.94Z" style="fill:#002b45;fill-rule:nonzero;"/><path id="Unión_1" d="M227.499,53.459l-31.5,-0l0,-19.918l31.5,0l0,-12.541l22.5,22.5l-22.5,22.5l0,-12.541Z" style="fill:#ff8f00;fill-rule:nonzero;"/><path id="Unión_2" d="M455.5,53.459l-31.5,-0l0,-19.918l31.5,0l0,-12.541l22.5,22.5l-22.5,22.5l0,-12.541Z" style="fill:#ff8f00;fill-rule:nonzero;"/><path id="Unión_3" d="M682.5,53.459l-31.5,-0l0,-19.918l31.5,0l0,-12.541l22.5,22.5l-22.5,22.5l0,-12.541Z" style="fill:#ff8f00;fill-rule:nonzero;"/></g></g></svg>