<svg xmlns="http://www.w3.org/2000/svg" width="73.044" height="75.045" viewBox="0 0 73.044 75.045">
  <g id="Grupo_18080" data-name="Grupo 18080" transform="translate(-235 -10225)">
    <circle id="Elipse_797" data-name="Elipse 797" cx="30.5" cy="30.5" r="30.5" transform="translate(235 10225)" fill="#efd6d0"/>
    <g id="market_1_" data-name="market (1)" transform="translate(244.004 10236.005)">
      <path id="Trazado_17165" data-name="Trazado 17165" d="M45.132,11.132A2.068,2.068,0,0,1,47.2,13.2h2.066a4.127,4.127,0,0,0-3.1-3.985V7H44.1V9.066H41V13.2a4.136,4.136,0,0,0,4.132,4.132A2.068,2.068,0,0,1,47.2,19.395v2.066H45.132a2.068,2.068,0,0,1-2.066-2.066H41a4.127,4.127,0,0,0,3.1,3.985v2.212h2.066V23.526h3.1V19.395a4.136,4.136,0,0,0-4.132-4.132A2.068,2.068,0,0,1,43.066,13.2V11.132Z" transform="translate(0.316 -0.803)" fill="#97181a"/>
      <path id="Trazado_17166" data-name="Trazado 17166" d="M65.04,28.888A27.92,27.92,0,0,0,37.152,1H36.119V29.921H49.546V42.316a2.068,2.068,0,0,1-2.066,2.066H42.2a7.223,7.223,0,0,0-5.05-12.395h-7.23V5.132H28.888a27.888,27.888,0,0,0-5.165,55.293V65.04H45.415V54.8a1.55,1.55,0,0,1,1.273-1.526l3.3-.6a8.259,8.259,0,0,0,6.785-8.129V29.921H65.04ZM38.154,55.347l-1,1-1-1,.636-8.9h.732Zm4.163-16.13a5.165,5.165,0,1,1-5.165-5.165A5.17,5.17,0,0,1,42.316,39.217ZM9.965,50.483a25.842,25.842,0,0,1-6.851-16.43H26.395ZM27.855,7.218V31.987H3.092A25.853,25.853,0,0,1,27.855,7.218ZM11.42,51.949l17.9-17.9H32.1A7.207,7.207,0,0,0,32.454,44.7a11.373,11.373,0,0,0-8.73,11.042V58.3A25.615,25.615,0,0,1,11.42,51.949Zm43.291-7.4a6.2,6.2,0,0,1-5.089,6.1l-3.3.6A3.614,3.614,0,0,0,43.349,54.8v8.173H30.954V51.612H28.888V62.974h-3.1v-7.23a9.3,9.3,0,0,1,8.923-9.278l-.691,9.673,3.13,3.13,3.13-3.13-.692-9.692h7.891a4.136,4.136,0,0,0,4.132-4.132V28.372a1.549,1.549,0,1,1,3.1,0Zm2.013-16.69a3.6,3.6,0,0,0-7.125,0H38.185V3.086A25.856,25.856,0,0,1,62.954,27.855Z" transform="translate(-1 -1)" fill="#97181a"/>
      <path id="Trazado_17167" data-name="Trazado 17167" d="M0,0H2.066V2.066H0Z" transform="translate(16.645 47.991) rotate(-45)" fill="#97181a"/>
      <path id="Trazado_17168" data-name="Trazado 17168" d="M0,0H1.961V2.066H0Z" transform="translate(19.566 45.068) rotate(-45)" fill="#97181a"/>
      <path id="Trazado_17169" data-name="Trazado 17169" d="M0,0H2.066V2.066H0Z" transform="translate(13.723 50.911) rotate(-45)" fill="#97181a"/>
      <path id="Trazado_17170" data-name="Trazado 17170" d="M25.592,29.329V19H7V29.329ZM9.066,21.066H23.526v6.2H9.066Z" transform="translate(-0.803 -0.408)" fill="#97181a"/>
      <path id="Trazado_17171" data-name="Trazado 17171" d="M11,23h2.066v2.066H11Z" transform="translate(-0.671 -0.276)" fill="#97181a"/>
      <path id="Trazado_17172" data-name="Trazado 17172" d="M15,23h2.066v2.066H15Z" transform="translate(-0.539 -0.276)" fill="#97181a"/>
      <path id="Trazado_17173" data-name="Trazado 17173" d="M19,23h2.066v2.066H19Z" transform="translate(-0.408 -0.276)" fill="#97181a"/>
      <path id="Trazado_17174" data-name="Trazado 17174" d="M23,13h2.066v2.066H23Z" transform="translate(-0.276 -0.605)" fill="#97181a"/>
      <path id="Trazado_17175" data-name="Trazado 17175" d="M23,9h2.066v2.066H23Z" transform="translate(-0.276 -0.737)" fill="#97181a"/>
      <path id="Trazado_17176" data-name="Trazado 17176" d="M7.392,35.714l-2.034.364c.126.707.286,1.415.476,2.106l1.992-.546c-.172-.632-.319-1.279-.435-1.923Z" transform="translate(-0.857 0.142)" fill="#97181a"/>
      <path id="Trazado_17177" data-name="Trazado 17177" d="M8.4,39.389l-1.933.73c.254.673.54,1.341.851,1.981l1.859-.9c-.284-.586-.545-1.2-.778-1.812Z" transform="translate(-0.82 0.263)" fill="#97181a"/>
      <path id="Trazado_17178" data-name="Trazado 17178" d="M10.054,42.82,8.285,43.885c.367.61.77,1.215,1.2,1.8l1.666-1.221c-.389-.531-.757-1.084-1.093-1.64Z" transform="translate(-0.76 0.376)" fill="#97181a"/>
      <path id="Trazado_17179" data-name="Trazado 17179" d="M54.463,18.014l1.812-.993c-.344-.626-.721-1.247-1.123-1.843l-1.714,1.152c.366.545.711,1.112,1.025,1.684Z" transform="translate(0.725 -0.533)" fill="#97181a"/>
      <path id="Trazado_17180" data-name="Trazado 17180" d="M56.818,25.213l2.046-.28c-.1-.711-.228-1.425-.388-2.124l-2.013.464C56.61,23.91,56.729,24.563,56.818,25.213Z" transform="translate(0.825 -0.282)" fill="#97181a"/>
      <path id="Trazado_17181" data-name="Trazado 17181" d="M55.971,21.506l1.961-.646c-.224-.681-.482-1.359-.77-2.018l-1.894.823C55.53,20.266,55.767,20.885,55.971,21.506Z" transform="translate(0.786 -0.413)" fill="#97181a"/>
    </g>
  </g>
</svg>
