<svg xmlns="http://www.w3.org/2000/svg" width="75" height="74.114" viewBox="0 0 75 74.114">
  <g id="Grupo_18081" data-name="Grupo 18081" transform="translate(-235 -10385)">
    <circle id="Elipse_797" data-name="Elipse 797" cx="30" cy="30" r="30" transform="translate(235 10385)" fill="#efd6d0"/>
    <g id="market" transform="translate(248.816 10397.828)">
      <path id="Trazado_17154" data-name="Trazado 17154" d="M30.974,20.661v2.155h1.974V20.842h1.974V17.882a2.964,2.964,0,0,0-2.961-2.961.988.988,0,0,1-.987-.987v-.987h.987a.988.988,0,0,1,.987.987v.987h1.974v-.987a2.957,2.957,0,0,0-1.974-2.779V9H30.974v1.974H29v2.961a2.964,2.964,0,0,0,2.961,2.961.988.988,0,0,1,.987.987v.987h-.987a.988.988,0,0,1-.987-.987v-.987H29v.987A2.957,2.957,0,0,0,30.974,20.661Z" transform="translate(-1.368 -1.003)" fill="#97181a"/>
      <path id="Trazado_17155" data-name="Trazado 17155" d="M0,0H8.373V1.974H0Z" transform="translate(36.795 34.932) rotate(-45)" fill="#97181a"/>
      <circle id="Elipse_825" data-name="Elipse 825" cx="0.987" cy="0.987" r="0.987" transform="translate(41.447 33.655)" fill="#97181a"/>
      <circle id="Elipse_826" data-name="Elipse 826" cx="0.987" cy="0.987" r="0.987" transform="translate(37.5 29.708)" fill="#97181a"/>
      <path id="Trazado_17156" data-name="Trazado 17156" d="M57.964,34.292l-16.5-11.809-16.5,11.809.691.817c.419.5.864.965,1.323,1.416H4.947V10.867h18.8A20.9,20.9,0,0,0,23.3,31.7l.525.956L40.474,21.205V.9L39.389,1a20.645,20.645,0,0,0-6.963,1.969H2.974A1.976,1.976,0,0,0,1,4.946V8.893a1.976,1.976,0,0,0,1.974,1.974V36.525A1.976,1.976,0,0,0,4.947,38.5h8.138L1.353,58.354a2.537,2.537,0,0,0,2.183,3.829H5.043a2.544,2.544,0,0,0,2.191-1.258l3.871-6.637h7.658v5.359A2.539,2.539,0,0,0,21.3,62.183h.848a2.539,2.539,0,0,0,2.536-2.536V54.288H32.34l3.871,6.637A2.548,2.548,0,0,0,38.4,62.183H39.91a2.538,2.538,0,0,0,2.184-3.828L31.026,39.623a20.7,20.7,0,0,0,26.247-4.514ZM38.5,20.167,24.528,29.775A18.842,18.842,0,0,1,38.5,3.108ZM2.974,4.946H29.155a20.615,20.615,0,0,0-4.041,3.947H2.974ZM22.711,38.5V52.314H20.737V38.5ZM5.53,59.93a.563.563,0,0,1-.486.279H3.536a.564.564,0,0,1-.562-.562.554.554,0,0,1,.079-.287L15.379,38.5h2.652Zm6.727-7.615,6.506-11.152V52.314Zm10.454,7.332a.564.564,0,0,1-.562.563H21.3a.564.564,0,0,1-.562-.562V54.288h1.974Zm1.974-7.332V41.163l6.505,11.151Zm15.789,7.332a.564.564,0,0,1-.562.563H38.4a.562.562,0,0,1-.486-.279L25.416,38.5h2.652L40.4,59.36A.557.557,0,0,1,40.474,59.647Zm.987-19.174a18.7,18.7,0,0,1-13.59-5.838l13.59-9.725,13.59,9.724A18.693,18.693,0,0,1,41.461,40.472Z" transform="translate(-1 -0.896)" fill="#97181a"/>
      <path id="Trazado_17157" data-name="Trazado 17157" d="M60.176,31.694A20.8,20.8,0,0,0,44.085,1L43,.9v20.31L59.649,32.645Zm-.3-15.584a18.616,18.616,0,0,1,.736,3.381L53.843,26.26,51.4,24.584ZM49.748,23.447l-2.44-1.677L57.647,11.432a19.222,19.222,0,0,1,1.46,2.658ZM44.974,10.289l5.4-5.4a18.755,18.755,0,0,1,2.552,1.564l-7.95,7.952Zm3.466-6.258L44.974,7.5V3.108A18.217,18.217,0,0,1,48.439,4.031ZM44.974,17.2,54.46,7.71a19.221,19.221,0,0,1,2.009,2.108L45.653,20.634l-.679-.467ZM55.5,27.4l5.254-5.254a18.666,18.666,0,0,1-1.8,7.626Z" transform="translate(-1.553 -0.896)" fill="#97181a"/>
      <path id="Trazado_17158" data-name="Trazado 17158" d="M7,34.816H20.816V32.842H18.842V21H16.868V32.842H14.895V24.947H12.921v7.895H10.947V28.895H8.974v3.947H7Z" transform="translate(-1.079 -1.161)" fill="#97181a"/>
      <path id="Trazado_17159" data-name="Trazado 17159" d="M7,13h3.947v1.974H7Z" transform="translate(-1.079 -1.055)" fill="#97181a"/>
      <path id="Trazado_17160" data-name="Trazado 17160" d="M13,13h5.921v1.974H13Z" transform="translate(-1.158 -1.055)" fill="#97181a"/>
      <path id="Trazado_17161" data-name="Trazado 17161" d="M7,17H18.842v1.974H7Z" transform="translate(-1.079 -1.108)" fill="#97181a"/>
      <path id="Trazado_17162" data-name="Trazado 17162" d="M43.961,45a2.961,2.961,0,1,0,2.961,2.961A2.964,2.964,0,0,0,43.961,45Zm0,3.947a.987.987,0,1,1,.987-.987A.987.987,0,0,1,43.961,48.947Z" transform="translate(-1.526 -1.476)" fill="#97181a"/>
      <path id="Trazado_17163" data-name="Trazado 17163" d="M51.961,45a2.961,2.961,0,1,0,2.961,2.961A2.964,2.964,0,0,0,51.961,45Zm0,3.947a.987.987,0,1,1,.987-.987A.987.987,0,0,1,51.961,48.947Z" transform="translate(-1.632 -1.476)" fill="#97181a"/>
      <path id="Trazado_17164" data-name="Trazado 17164" d="M59.961,45a2.961,2.961,0,1,0,2.961,2.961A2.964,2.964,0,0,0,59.961,45Zm0,3.947a.987.987,0,1,1,.987-.987A.987.987,0,0,1,59.961,48.947Z" transform="translate(-1.737 -1.476)" fill="#97181a"/>
    </g>
  </g>
</svg>
