<svg xmlns="http://www.w3.org/2000/svg" width="71" height="61" viewBox="0 0 71 61">
  <g id="Grupo_18088" data-name="Grupo 18088" transform="translate(-239 -14834)">
    <circle id="Elipse_801" data-name="Elipse 801" cx="30.5" cy="30.5" r="30.5" transform="translate(239 14834)" fill="#f8e9e5"/>
    <g id="voucher" transform="translate(248.162 14761.281)">
      <g id="Grupo_13523" data-name="Grupo 13523" transform="translate(13.769 90)">
        <g id="Grupo_13522" data-name="Grupo 13522">
          <path id="Trazado_15115" data-name="Trazado 15115" d="M116.062,90.354a1.207,1.207,0,1,0,.354.854A1.216,1.216,0,0,0,116.062,90.354Z" transform="translate(-114 -90)" fill="#97181a"/>
        </g>
      </g>
      <g id="Grupo_13525" data-name="Grupo 13525" transform="translate(0 90)">
        <g id="Grupo_13524" data-name="Grupo 13524">
          <path id="Trazado_15116" data-name="Trazado 15116" d="M60.63,90H19.767a1.208,1.208,0,0,0,0,2.416H59.422v35.267H2.416V92.416h7.85a1.208,1.208,0,0,0,0-2.416H1.208A1.208,1.208,0,0,0,0,91.208V128.89A1.208,1.208,0,0,0,1.208,130.1H60.63a1.208,1.208,0,0,0,1.208-1.208V91.208A1.208,1.208,0,0,0,60.63,90Z" transform="translate(0 -90)" fill="#97181a"/>
        </g>
      </g>
      <g id="Grupo_13527" data-name="Grupo 13527" transform="translate(6.522 95.572)">
        <g id="Grupo_13526" data-name="Grupo 13526">
          <path id="Trazado_15117" data-name="Trazado 15117" d="M75.981,142.418H72.628a4.345,4.345,0,0,0-7.034-4.935,4.345,4.345,0,0,0-7.034,4.935H55.208A1.208,1.208,0,0,0,54,143.626v7.247a1.208,1.208,0,0,0,1.208,1.208v7.005a3.627,3.627,0,0,0,3.623,3.623H72.358a3.627,3.627,0,0,0,3.623-3.623v-7.005a1.208,1.208,0,0,0,1.208-1.208v-7.247A1.208,1.208,0,0,0,75.981,142.418ZM61.488,160.293H58.831a1.209,1.209,0,0,1-1.208-1.208v-7.005h3.865Zm0-10.628H56.416v-4.831h5.073Zm-.966-9.179a1.932,1.932,0,1,1,3.865,0v1.932H62.454A1.935,1.935,0,0,1,60.522,140.486Zm6.763,10.387v9.421H63.9V144.834h3.382Zm-.483-8.454v-1.932a1.932,1.932,0,1,1,1.932,1.932Zm6.763,16.667a1.209,1.209,0,0,1-1.208,1.208H69.7v-8.213h3.865Zm1.208-9.421H69.7v-4.831h5.073Z" transform="translate(-54 -136.138)" fill="#97181a"/>
        </g>
      </g>
      <g id="Grupo_13529" data-name="Grupo 13529" transform="translate(40.054 97.315)">
        <g id="Grupo_13528" data-name="Grupo 13528">
          <path id="Trazado_15118" data-name="Trazado 15118" d="M339.93,150.725a1.207,1.207,0,0,0-1.645.458l-6.494,11.5a1.208,1.208,0,1,0,2.1,1.187l6.494-11.5A1.208,1.208,0,0,0,339.93,150.725Z" transform="translate(-331.634 -150.569)" fill="#97181a"/>
        </g>
      </g>
      <g id="Grupo_13531" data-name="Grupo 13531" transform="translate(45.802 104.678)">
        <g id="Grupo_13530" data-name="Grupo 13530">
          <path id="Trazado_15119" data-name="Trazado 15119" d="M382.852,211.533a3.623,3.623,0,1,0,3.623,3.623A3.627,3.627,0,0,0,382.852,211.533Zm0,4.831a1.208,1.208,0,1,1,1.208-1.208A1.209,1.209,0,0,1,382.852,216.364Z" transform="translate(-379.229 -211.533)" fill="#97181a"/>
        </g>
      </g>
      <g id="Grupo_13533" data-name="Grupo 13533" transform="translate(37.362 95.37)">
        <g id="Grupo_13532" data-name="Grupo 13532">
          <path id="Trazado_15120" data-name="Trazado 15120" d="M312.969,134.459a3.623,3.623,0,1,0,3.623,3.623A3.627,3.627,0,0,0,312.969,134.459Zm0,4.831a1.208,1.208,0,1,1,1.208-1.208A1.209,1.209,0,0,1,312.969,139.29Z" transform="translate(-309.346 -134.459)" fill="#97181a"/>
        </g>
      </g>
      <g id="Grupo_13535" data-name="Grupo 13535" transform="translate(35.095 115.122)">
        <g id="Grupo_13534" data-name="Grupo 13534">
          <path id="Trazado_15121" data-name="Trazado 15121" d="M309.587,298H291.782a1.208,1.208,0,0,0,0,2.416h17.806a1.208,1.208,0,0,0,0-2.416Z" transform="translate(-290.574 -298)" fill="#97181a"/>
        </g>
      </g>
      <g id="Grupo_13537" data-name="Grupo 13537" transform="translate(35.095 120.23)">
        <g id="Grupo_13536" data-name="Grupo 13536">
          <path id="Trazado_15122" data-name="Trazado 15122" d="M300.685,340.3h-8.9a1.208,1.208,0,0,0,0,2.416h8.9a1.208,1.208,0,0,0,0-2.416Z" transform="translate(-290.574 -340.299)" fill="#97181a"/>
        </g>
      </g>
      <g id="Grupo_13539" data-name="Grupo 13539" transform="translate(48.448 120.23)">
        <g id="Grupo_13538" data-name="Grupo 13538">
          <path id="Trazado_15123" data-name="Trazado 15123" d="M403.2,340.653a1.207,1.207,0,1,0,.354.854A1.217,1.217,0,0,0,403.2,340.653Z" transform="translate(-401.139 -340.299)" fill="#97181a"/>
        </g>
      </g>
    </g>
  </g>
</svg>
