<svg xmlns="http://www.w3.org/2000/svg" width="75" height="67.613" viewBox="0 0 75 67.613">
  <g id="Grupo_18091" data-name="Grupo 18091" transform="translate(-235 -15376)">
    <circle id="Elipse_804" data-name="Elipse 804" cx="30.5" cy="30.5" r="30.5" transform="translate(235 15376)" fill="#f8e9e5"/>
    <g id="marketing" transform="translate(249 15356.969)">
      <path id="Trazado_15129" data-name="Trazado 15129" d="M52.129,71.681a.894.894,0,1,0,0,1.787h1.228a.894.894,0,1,0,0-1.787Z" transform="translate(-45.131 -33.485)" fill="#97181a"/>
      <path id="Trazado_15130" data-name="Trazado 15130" d="M103.044,71.681a.894.894,0,1,0,0,1.787h1.228a.894.894,0,1,0,0-1.787Z" transform="translate(-89.98 -33.485)" fill="#97181a"/>
      <path id="Trazado_15131" data-name="Trazado 15131" d="M155.187,73.468a.894.894,0,1,0,0-1.787H153.96a.894.894,0,0,0,0,1.787Z" transform="translate(-134.83 -33.485)" fill="#97181a"/>
      <path id="Trazado_15132" data-name="Trazado 15132" d="M149.474,169.8a.894.894,0,0,0,1.264-1.263l-16.446-16.449a.893.893,0,0,0-1.264,1.263l.287.287-1.987,4.817a.893.893,0,0,0-1.173,1.342l.439.439-1.548,3.753-6.708,6.707a2.535,2.535,0,0,0,0,3.581l.121.121-.632.632,0,0a.893.893,0,1,0-1.264,1.263l.059.059a4.222,4.222,0,0,0,5.855,5.856l.059.059A.894.894,0,0,0,127.8,181l0,0,.632-.632.121.121a2.535,2.535,0,0,0,3.581,0l.124-.124,2.363,2.364a.893.893,0,1,0,1.264-1.263l-2.363-2.364,2.83-2.829,1.849,1.849a.051.051,0,0,1,.012.053l-.461,1.273a1.845,1.845,0,0,0,.429,1.925l2.588,2.588a.589.589,0,0,1,0,.832l-.363.363a.589.589,0,0,1-.832,0l-1.162-1.163a.894.894,0,0,0-1.264,1.264l1.162,1.162a2.378,2.378,0,0,0,3.359,0l.363-.363a2.378,2.378,0,0,0,0-3.359l-2.588-2.589a.05.05,0,0,1-.012-.053l.461-1.273a1.845,1.845,0,0,0-.429-1.925L137.609,175l1.227-1.227,3.752-1.547.439.439a.893.893,0,0,0,1.342-1.173l4.817-1.986ZM128.4,169.59h0l-1.562,1.561a.573.573,0,0,1-.811,0l-.812-.812,2.372-2.372.812.813A.572.572,0,0,1,128.4,169.59Zm-6,10.824a2.428,2.428,0,0,1-.478-2.761l3.238,3.238A2.436,2.436,0,0,1,122.4,180.414Zm4.758-1.315-.632.632-3.442-3.443.632-.632Zm2.648.121-6.21-6.212a.746.746,0,0,1,0-1.054l.352-.352.812.812a2.36,2.36,0,0,0,3.338,0l1.561-1.561a2.359,2.359,0,0,0,0-3.338l-.812-.812.952-.951,7.264,7.266-5.446,5.445h0l-.754.754A.746.746,0,0,1,129.81,179.22Zm8.731-7.255-7.685-7.686,1.105-2.679,9.259,9.261Zm4.469-1.842L132.7,159.81,134.683,155l13.135,13.138Z" transform="translate(-105.621 -104.078)" fill="#97181a"/>
      <path id="Trazado_15133" data-name="Trazado 15133" d="M324.661,175.845l-2.394,2.394a.894.894,0,1,0,1.264,1.264l2.394-2.394a.894.894,0,1,0-1.264-1.264Z" transform="translate(-283.641 -125.009)" fill="#97181a"/>
      <path id="Trazado_15134" data-name="Trazado 15134" d="M284.5,144.305V140.92a.894.894,0,0,0-1.787,0v3.386a.894.894,0,0,0,1.787,0Z" transform="translate(-249.033 -93.687)" fill="#97181a"/>
      <path id="Trazado_15135" data-name="Trazado 15135" d="M348.694,236.087a.893.893,0,0,0,.894.894h3.386a.894.894,0,0,0,0-1.787h-3.386A.894.894,0,0,0,348.694,236.087Z" transform="translate(-307.15 -177.516)" fill="#97181a"/>
      <path id="Trazado_15136" data-name="Trazado 15136" d="M52.575,169.338a.893.893,0,0,0-.894-.894H44.038a.894.894,0,0,0,0,1.787h7.644A.894.894,0,0,0,52.575,169.338Z" transform="translate(-38.004 -118.72)" fill="#97181a"/>
      <path id="Trazado_15137" data-name="Trazado 15137" d="M44.038,205.918a.894.894,0,1,0,0,1.787H49.3a.894.894,0,1,0,0-1.787Z" transform="translate(-38.004 -151.729)" fill="#97181a"/>
      <path id="Trazado_15138" data-name="Trazado 15138" d="M355.677,365.523H342.995a.894.894,0,1,0,0,1.787h12.682a.894.894,0,1,0,0-1.787Z" transform="translate(-301.343 -292.319)" fill="#97181a"/>
      <path id="Trazado_15139" data-name="Trazado 15139" d="M390.911,398.567h-7.917a.894.894,0,1,0,0,1.787h7.917a.894.894,0,1,0,0-1.787Z" transform="translate(-336.577 -321.426)" fill="#97181a"/>
      <path id="Trazado_15140" data-name="Trazado 15140" d="M54.882,33.667H19.143a.894.894,0,0,0,0,1.787h35.74a4.336,4.336,0,0,1,4.331,4.331v2.94H1.787v-2.94a4.336,4.336,0,0,1,4.331-4.331H15.57a.894.894,0,1,0,0-1.787H6.118A6.125,6.125,0,0,0,0,39.785V80.527a6.125,6.125,0,0,0,6.118,6.118H54.882A6.125,6.125,0,0,0,61,80.527V78.312a.894.894,0,1,0-1.787,0v2.215a4.335,4.335,0,0,1-4.331,4.331H6.118a4.336,4.336,0,0,1-4.331-4.331V44.512H59.213V74.74a.894.894,0,1,0,1.787,0V39.785A6.125,6.125,0,0,0,54.882,33.667Z" transform="translate(0)" fill="#97181a"/>
    </g>
  </g>
</svg>
