<svg xmlns="http://www.w3.org/2000/svg" width="121" height="121" viewBox="0 0 121 121">
  <g id="Grupo_18098" data-name="Grupo 18098" transform="translate(-322 -2772)">
    <circle id="Elipse_837" data-name="Elipse 837" cx="60.5" cy="60.5" r="60.5" transform="translate(322 2772)" fill="#fe7c5f"/>
    <path id="Trazado_17225" data-name="Trazado 17225" d="M53.993,0A53.993,53.993,0,1,1,0,53.993,53.993,53.993,0,0,1,53.993,0Z" transform="translate(329 2779)" fill="#fff"/>
    <g id="estrategia" transform="translate(349.436 2800.962)">
      <path id="Trazado_17247" data-name="Trazado 17247" d="M17.033,81.33A1.032,1.032,0,0,1,16,80.3V41.033a1.033,1.033,0,0,1,2.067,0V80.3A1.032,1.032,0,0,1,17.033,81.33Zm0,0" transform="translate(-13.933 -34.834)" fill="#656565"/>
      <path id="Trazado_17248" data-name="Trazado 17248" d="M17.033,28.133A1.032,1.032,0,0,1,16,27.1,3.1,3.1,0,0,1,19.1,24a1.033,1.033,0,0,1,0,2.067A1.034,1.034,0,0,0,18.067,27.1,1.032,1.032,0,0,1,17.033,28.133Zm0,0" transform="translate(-13.933 -20.9)" fill="#656565"/>
      <path id="Trazado_17249" data-name="Trazado 17249" d="M481.033,81.33A1.032,1.032,0,0,1,480,80.3V41.033a1.033,1.033,0,0,1,2.067,0V80.3A1.032,1.032,0,0,1,481.033,81.33Zm0,0" transform="translate(-418.005 -34.834)" fill="#656565"/>
      <path id="Trazado_17250" data-name="Trazado 17250" d="M467.1,28.133a1.032,1.032,0,0,1-1.033-1.033,1.034,1.034,0,0,0-1.033-1.033,1.033,1.033,0,1,1,0-2.067,3.1,3.1,0,0,1,3.1,3.1A1.032,1.032,0,0,1,467.1,28.133Zm0,0" transform="translate(-404.071 -20.9)" fill="#656565"/>
      <path id="Trazado_17251" data-name="Trazado 17251" d="M88.829,26.067h-55.8a1.033,1.033,0,0,1,0-2.067h55.8a1.033,1.033,0,1,1,0,2.067Zm0,0" transform="translate(-27.867 -20.9)" fill="#656565"/>
      <path id="Trazado_17252" data-name="Trazado 17252" d="M65.1,349.166H1.033A1.032,1.032,0,0,1,0,348.133v-3.1A1.032,1.032,0,0,1,1.033,344H65.1a1.032,1.032,0,0,1,1.033,1.033v3.1A1.032,1.032,0,0,1,65.1,349.166ZM2.067,347.1h62v-1.033h-62Zm0,0" transform="translate(0 -299.57)" fill="#656565"/>
      <path id="Trazado_17253" data-name="Trazado 17253" d="M161.033,384.523a1.018,1.018,0,0,1-.347-.061,1.03,1.03,0,0,1-.625-1.319l5.166-14.466a1.032,1.032,0,0,1,1.944.694L162,383.837A1.031,1.031,0,0,1,161.033,384.523Zm0,0" transform="translate(-139.334 -320.461)" fill="#656565"/>
      <path id="Trazado_17254" data-name="Trazado 17254" d="M121.033,384.523a1.018,1.018,0,0,1-.347-.061,1.03,1.03,0,0,1-.625-1.319l5.166-14.466a1.032,1.032,0,0,1,1.944.694L122,383.837A1.031,1.031,0,0,1,121.033,384.523Zm0,0" transform="translate(-104.5 -320.461)" fill="#656565"/>
      <path id="Trazado_17255" data-name="Trazado 17255" d="M126.2,482.067h-5.166a1.033,1.033,0,0,1,0-2.067H126.2a1.033,1.033,0,0,1,0,2.067Zm0,0" transform="translate(-104.501 -418.005)" fill="#656565"/>
      <path id="Trazado_17256" data-name="Trazado 17256" d="M302.2,384.53a1.031,1.031,0,0,1-.972-.686l-5.166-14.466a1.032,1.032,0,1,1,1.944-.694l5.166,14.466a1.03,1.03,0,0,1-.625,1.319A1.02,1.02,0,0,1,302.2,384.53Zm0,0" transform="translate(-257.77 -320.468)" fill="#656565"/>
      <path id="Trazado_17257" data-name="Trazado 17257" d="M342.2,384.53a1.031,1.031,0,0,1-.972-.686l-5.166-14.466a1.032,1.032,0,1,1,1.944-.694l5.166,14.466a1.03,1.03,0,0,1-.625,1.319A1.02,1.02,0,0,1,342.2,384.53Zm0,0" transform="translate(-292.603 -320.468)" fill="#656565"/>
      <path id="Trazado_17258" data-name="Trazado 17258" d="M342.2,482.067h-5.166a1.033,1.033,0,0,1,0-2.067H342.2a1.033,1.033,0,1,1,0,2.067Zm0,0" transform="translate(-292.603 -418.005)" fill="#656565"/>
      <path id="Trazado_17259" data-name="Trazado 17259" d="M200.717,418.067H183.889a1.033,1.033,0,0,1,0-2.067h16.827a1.033,1.033,0,0,1,0,2.067Zm0,0" transform="translate(-159.238 -362.271)" fill="#656565"/>
      <path id="Trazado_17260" data-name="Trazado 17260" d="M194.363,442.067H175.322a1.033,1.033,0,1,1,0-2.066h19.041a1.033,1.033,0,1,1,0,2.066Zm0,0" transform="translate(-151.778 -383.171)" fill="#656565"/>
      <path id="Trazado_17261" data-name="Trazado 17261" d="M225.3,5.166h-8.266A1.032,1.032,0,0,1,216,4.133v-3.1A1.032,1.032,0,0,1,217.033,0H225.3a1.032,1.032,0,0,1,1.033,1.033v3.1A1.032,1.032,0,0,1,225.3,5.166ZM218.067,3.1h6.2V2.067h-6.2Zm0,0" transform="translate(-188.102)" fill="#656565"/>
      <path id="Trazado_17262" data-name="Trazado 17262" d="M76.133,248.266a4.133,4.133,0,1,1,4.133-4.133A4.137,4.137,0,0,1,76.133,248.266Zm0-6.2a2.067,2.067,0,1,0,2.067,2.067A2.069,2.069,0,0,0,76.133,242.067Zm0,0" transform="translate(-62.701 -209.002)" fill="#656565"/>
      <path id="Trazado_17263" data-name="Trazado 17263" d="M356.133,136.266a4.133,4.133,0,1,1,4.133-4.133A4.137,4.137,0,0,1,356.133,136.266Zm0-6.2a2.067,2.067,0,1,0,2.067,2.067A2.069,2.069,0,0,0,356.133,130.067Zm0,0" transform="translate(-306.537 -111.468)" fill="#656565"/>
      <path id="Trazado_17264" data-name="Trazado 17264" d="M377.033,91.366A1.032,1.032,0,0,1,376,90.333v-9.3a1.033,1.033,0,1,1,2.066,0v9.3A1.032,1.032,0,0,1,377.033,91.366Zm0,0" transform="translate(-327.437 -69.667)" fill="#656565"/>
      <path id="Trazado_17265" data-name="Trazado 17265" d="M383.233,82.067h-6.2a1.033,1.033,0,0,1,0-2.067h6.2a1.033,1.033,0,1,1,0,2.067Zm0,0" transform="translate(-327.437 -69.667)" fill="#656565"/>
      <path id="Trazado_17266" data-name="Trazado 17266" d="M383.233,114.067h-6.2a1.033,1.033,0,0,1,0-2.067h6.2a1.033,1.033,0,1,1,0,2.067Zm0,0" transform="translate(-327.437 -97.534)" fill="#656565"/>
      <path id="Trazado_17267" data-name="Trazado 17267" d="M418.062,86.2a1.034,1.034,0,0,1-.926-.572L416.1,83.561a1.032,1.032,0,0,1,0-.925l1.033-2.067a1.033,1.033,0,0,1,1.849.925l-.8,1.6.8,1.6a1.032,1.032,0,0,1-.923,1.495Zm0,0" transform="translate(-362.265 -69.667)" fill="#656565"/>
      <path id="Trazado_17268" data-name="Trazado 17268" d="M137.035,163.366a1.033,1.033,0,0,1-.772-1.719c.35-.395,8.756-9.646,24.537-9.646a1.033,1.033,0,1,1,0,2.067c-14.863,0-22.913,8.863-22.993,8.952A1.027,1.027,0,0,1,137.035,163.366Zm0,0" transform="translate(-118.437 -132.368)" fill="#656565"/>
      <path id="Trazado_17269" data-name="Trazado 17269" d="M305.031,156.13a1.033,1.033,0,0,1-.731-1.764l2.067-2.067a1.033,1.033,0,0,1,1.461,1.461l-2.067,2.067A1.031,1.031,0,0,1,305.031,156.13Zm0,0" transform="translate(-264.734 -132.366)" fill="#656565"/>
      <path id="Trazado_17270" data-name="Trazado 17270" d="M307.1,140.13a1.031,1.031,0,0,1-.731-.3l-2.067-2.067a1.033,1.033,0,0,1,1.461-1.461l2.067,2.067a1.033,1.033,0,0,1-.731,1.764Zm0,0" transform="translate(-264.734 -118.432)" fill="#656565"/>
      <path id="Trazado_17271" data-name="Trazado 17271" d="M97.238,266.074a1.033,1.033,0,0,1-.011-2.067h.011a1.033,1.033,0,0,1,0,2.067Zm0,0" transform="translate(-83.774 -229.909)" fill="#656565"/>
      <path id="Trazado_17272" data-name="Trazado 17272" d="M85.164,126.2a1.031,1.031,0,0,1-.731-.3L80.3,121.761a1.033,1.033,0,1,1,1.461-1.461l4.133,4.133a1.033,1.033,0,0,1-.731,1.764Zm0,0" transform="translate(-69.665 -104.499)" fill="#656565"/>
      <path id="Trazado_17273" data-name="Trazado 17273" d="M81.031,126.2a1.033,1.033,0,0,1-.731-1.764l4.133-4.133a1.033,1.033,0,0,1,1.461,1.461l-4.133,4.133A1.031,1.031,0,0,1,81.031,126.2Zm0,0" transform="translate(-69.665 -104.499)" fill="#656565"/>
      <path id="Trazado_17274" data-name="Trazado 17274" d="M205.164,70.2a1.031,1.031,0,0,1-.731-.3L200.3,65.761a1.033,1.033,0,1,1,1.461-1.461l4.133,4.133a1.033,1.033,0,0,1-.731,1.764Zm0,0" transform="translate(-174.166 -55.731)" fill="#656565"/>
      <path id="Trazado_17275" data-name="Trazado 17275" d="M201.031,70.2a1.033,1.033,0,0,1-.731-1.764l4.133-4.133a1.033,1.033,0,0,1,1.461,1.461l-4.133,4.133A1.031,1.031,0,0,1,201.031,70.2Zm0,0" transform="translate(-174.166 -55.731)" fill="#656565"/>
      <path id="Trazado_17276" data-name="Trazado 17276" d="M221.164,278.2a1.031,1.031,0,0,1-.731-.3l-4.133-4.133a1.033,1.033,0,1,1,1.461-1.461l4.133,4.133a1.033,1.033,0,0,1-.731,1.764Zm0,0" transform="translate(-188.099 -236.867)" fill="#656565"/>
      <path id="Trazado_17277" data-name="Trazado 17277" d="M217.031,278.2a1.033,1.033,0,0,1-.731-1.764l4.133-4.133a1.033,1.033,0,0,1,1.461,1.461l-4.133,4.133A1.031,1.031,0,0,1,217.031,278.2Zm0,0" transform="translate(-188.099 -236.867)" fill="#656565"/>
      <path id="Trazado_17278" data-name="Trazado 17278" d="M341.164,238.2a1.031,1.031,0,0,1-.731-.3l-4.133-4.133a1.033,1.033,0,0,1,1.461-1.461l4.133,4.133a1.033,1.033,0,0,1-.731,1.764Zm0,0" transform="translate(-292.601 -202.033)" fill="#656565"/>
      <path id="Trazado_17279" data-name="Trazado 17279" d="M337.031,238.2a1.033,1.033,0,0,1-.731-1.764l4.133-4.133a1.033,1.033,0,1,1,1.461,1.461l-4.133,4.133A1.031,1.031,0,0,1,337.031,238.2Zm0,0" transform="translate(-292.601 -202.033)" fill="#656565"/>
    </g>
  </g>
</svg>
