<svg xmlns="http://www.w3.org/2000/svg" width="413" height="423" viewBox="0 0 413 423">
  <g id="Grupo_18070" data-name="Grupo 18070" transform="translate(386 2721)">
    <path id="Trazado_17222" data-name="Trazado 17222" d="M0,0H403V66H0Z" transform="translate(-386 -2721)" fill="#d64626"/>
    <path id="Trazado_17223" data-name="Trazado 17223" d="M0,0H358V66H0Z" transform="translate(-331 -2613)" fill="#eef0f2"/>
    <path id="Trazado_17224" data-name="Trazado 17224" d="M0,0H358V66H0Z" transform="translate(-331 -2530)" fill="#eef0f2"/>
    <path id="Trazado_17225" data-name="Trazado 17225" d="M0,0H358V66H0Z" transform="translate(-331 -2447)" fill="#eef0f2"/>
    <path id="Trazado_17226" data-name="Trazado 17226" d="M0,0H358V66H0Z" transform="translate(-331 -2364)" fill="#eef0f2"/>
    <path id="Trazado_17227" data-name="Trazado 17227" d="M139.6,17h-2.628l-.835-9.571L132.925,17H131.22L128,7.429,127.16,17h-2.637l1.063-12.7h3.762l2.707,7.972L134.8,4.3h3.762Zm9.782-2.452a8.453,8.453,0,0,0,.22,2.206V17h-2.364l-.2-.984a2.938,2.938,0,0,1-1.266.87,4.664,4.664,0,0,1-1.635.29,4.3,4.3,0,0,1-.844-.079,2.868,2.868,0,0,1-.76-.268,2.307,2.307,0,0,1-.628-.47,2.062,2.062,0,0,1-.422-.716,2.853,2.853,0,0,1-.158-.98,2.718,2.718,0,0,1,.167-.98,2.3,2.3,0,0,1,.439-.734,2.666,2.666,0,0,1,.712-.536,5.447,5.447,0,0,1,.9-.387,10.712,10.712,0,0,1,1.072-.281l1.485-.334a1.638,1.638,0,0,0,.672-.286.57.57,0,0,0,.2-.453.932.932,0,0,0-.444-.87,2.073,2.073,0,0,0-1.077-.264,1.549,1.549,0,0,0-1.767,1.38l-2.241-.4a3.034,3.034,0,0,1,1.31-2.061,5.2,5.2,0,0,1,2.839-.664q3.8,0,3.8,3.261Zm-4.456.914a2.036,2.036,0,0,0,1.564-.655,2.759,2.759,0,0,0,.606-1.938l-2.145.606a2.534,2.534,0,0,0-.9.369.758.758,0,0,0-.312.65.842.842,0,0,0,.334.716A1.382,1.382,0,0,0,144.931,15.462ZM154.274,9.4a2.933,2.933,0,0,1,1.187-1.085,3.62,3.62,0,0,1,1.767-.453v2.259a3.423,3.423,0,0,0-2.162.545A2.379,2.379,0,0,0,154.4,12.6V17h-2.549V7.965h2.426ZM164.707,17,161.8,13.2h-.527V17h-2.558V3.5h2.558v7.945h.475l2.839-3.48h2.865l-3.56,4.192L167.783,17Zm12.524-4.649-.026.606h-6.7a2.339,2.339,0,0,0,.721,1.652,2.3,2.3,0,0,0,1.591.571,2.221,2.221,0,0,0,1.191-.312,1.918,1.918,0,0,0,.76-.91l2.32.343a3.945,3.945,0,0,1-1.582,2.118,4.7,4.7,0,0,1-2.672.756,4.891,4.891,0,0,1-3.52-1.244,4.538,4.538,0,0,1-1.305-3.45,4.565,4.565,0,0,1,1.31-3.45,4.746,4.746,0,0,1,3.437-1.261A4.536,4.536,0,0,1,176,8.923,4.517,4.517,0,0,1,177.231,12.351Zm-4.456-2.786a2,2,0,0,0-2.2,1.74h4.148a1.9,1.9,0,0,0-.624-1.292A1.978,1.978,0,0,0,172.775,9.564ZM182.522,17a2.729,2.729,0,0,1-2.039-.734,2.854,2.854,0,0,1-.721-2.087V9.907h-1.775V7.965h.571a1.491,1.491,0,0,0,1.125-.378,1.946,1.946,0,0,0,.36-1.345v-1.2h2.285V7.965h1.863V9.907h-1.863v4q0,1.169,1.046,1.169h.817V17Zm4.922-10.389a1.421,1.421,0,0,1-1.037-.426,1.4,1.4,0,0,1-.431-1.033,1.382,1.382,0,0,1,.435-1.024,1.425,1.425,0,0,1,1.033-.426,1.463,1.463,0,0,1,1.45,1.45,1.463,1.463,0,0,1-1.45,1.459ZM186.152,17V7.965H188.7V17Zm10.5-9.211a3.522,3.522,0,0,1,2.5.813,3.014,3.014,0,0,1,.87,2.316V17h-2.54V11.463a1.574,1.574,0,0,0-.453-1.248,1.705,1.705,0,0,0-1.165-.4,2.379,2.379,0,0,0-.756.114,1.942,1.942,0,0,0-.633.356,1.573,1.573,0,0,0-.453.681,3.15,3.15,0,0,0-.171,1.046V17H191.32V7.965h2.531v1A3.481,3.481,0,0,1,196.655,7.789Zm12.041.176H211.1v8.358a6.759,6.759,0,0,1-.338,2.25,3.711,3.711,0,0,1-.98,1.542,4.085,4.085,0,0,1-1.5.866,6.336,6.336,0,0,1-1.969.281q-3.577,0-4.658-2.8l2.1-.9a3.065,3.065,0,0,0,.976,1.31,2.487,2.487,0,0,0,1.485.422q2.347,0,2.347-2.786V15.453a2.846,2.846,0,0,1-1.138.892,3.784,3.784,0,0,1-1.6.338,4.046,4.046,0,0,1-2.9-1.217,4.174,4.174,0,0,1-.892-1.419,5.247,5.247,0,0,1,0-3.661,4.006,4.006,0,0,1,.9-1.4,4.125,4.125,0,0,1,1.318-.879,4.069,4.069,0,0,1,1.6-.316,3.674,3.674,0,0,1,1.674.374,2.67,2.67,0,0,1,1.121,1Zm-3.88,5.977a2.319,2.319,0,0,0,3.318-.009,2.526,2.526,0,0,0,0-3.437,2.34,2.34,0,0,0-3.331-.013,2.4,2.4,0,0,0-.664,1.736A2.379,2.379,0,0,0,204.815,13.941ZM221.774,17a2.729,2.729,0,0,1-2.039-.734,2.854,2.854,0,0,1-.721-2.087V9.907h-1.775V7.965h.571a1.491,1.491,0,0,0,1.125-.378,1.946,1.946,0,0,0,.36-1.345v-1.2h2.285V7.965h1.863V9.907h-1.863v4q0,1.169,1.046,1.169h.817V17Zm10.02-12.63-2,2.355h-1.556l2.3-3.234Zm.984,10.178a8.453,8.453,0,0,0,.22,2.206V17h-2.364l-.2-.984a2.938,2.938,0,0,1-1.266.87,4.664,4.664,0,0,1-1.635.29,4.3,4.3,0,0,1-.844-.079,2.868,2.868,0,0,1-.76-.268,2.307,2.307,0,0,1-.628-.47,2.062,2.062,0,0,1-.422-.716,2.853,2.853,0,0,1-.158-.98,2.718,2.718,0,0,1,.167-.98,2.3,2.3,0,0,1,.439-.734,2.666,2.666,0,0,1,.712-.536,5.447,5.447,0,0,1,.9-.387,10.712,10.712,0,0,1,1.072-.281l1.485-.334a1.638,1.638,0,0,0,.672-.286.57.57,0,0,0,.2-.453.932.932,0,0,0-.444-.87,2.073,2.073,0,0,0-1.077-.264,1.549,1.549,0,0,0-1.767,1.38l-2.241-.4a3.034,3.034,0,0,1,1.31-2.061,5.2,5.2,0,0,1,2.839-.664q3.8,0,3.8,3.261Zm-4.456.914a2.036,2.036,0,0,0,1.564-.655,2.759,2.759,0,0,0,.606-1.938l-2.145.606a2.534,2.534,0,0,0-.9.369.758.758,0,0,0-.312.65.842.842,0,0,0,.334.716A1.382,1.382,0,0,0,228.322,15.462Zm10.8,1.705a4.827,4.827,0,0,1-3.489-1.3,4.493,4.493,0,0,1-1.354-3.393,4.483,4.483,0,0,1,1.349-3.393,5.364,5.364,0,0,1,6.42-.422,3.885,3.885,0,0,1,1.512,2.452l-2.338.255a2,2,0,0,0-.756-1.187,2.3,2.3,0,0,0-1.371-.4,2.072,2.072,0,0,0-1.652.738,2.894,2.894,0,0,0-.633,1.951,2.9,2.9,0,0,0,.633,1.947,2.067,2.067,0,0,0,1.652.743,2.278,2.278,0,0,0,1.367-.4,2.05,2.05,0,0,0,.76-1.187l2.338.255a3.9,3.9,0,0,1-1.525,2.452A4.8,4.8,0,0,1,239.124,17.167ZM248.73,17a2.729,2.729,0,0,1-2.039-.734,2.854,2.854,0,0,1-.721-2.087V9.907h-1.775V7.965h.571a1.491,1.491,0,0,0,1.125-.378,1.946,1.946,0,0,0,.36-1.345v-1.2h2.285V7.965H250.4V9.907h-1.863v4q0,1.169,1.046,1.169h.817V17Zm4.922-10.389a1.421,1.421,0,0,1-1.037-.426,1.4,1.4,0,0,1-.431-1.033,1.382,1.382,0,0,1,.435-1.024,1.425,1.425,0,0,1,1.033-.426,1.463,1.463,0,0,1,1.45,1.45,1.463,1.463,0,0,1-1.45,1.459ZM252.36,17V7.965h2.549V17Zm9.255.167a4.827,4.827,0,0,1-3.489-1.3,4.493,4.493,0,0,1-1.354-3.393,4.483,4.483,0,0,1,1.349-3.393,5.364,5.364,0,0,1,6.42-.422,3.885,3.885,0,0,1,1.512,2.452l-2.338.255a2,2,0,0,0-.756-1.187,2.3,2.3,0,0,0-1.371-.4,2.072,2.072,0,0,0-1.652.738,2.894,2.894,0,0,0-.633,1.951,2.9,2.9,0,0,0,.633,1.947,2.067,2.067,0,0,0,1.652.743,2.278,2.278,0,0,0,1.367-.4,2.05,2.05,0,0,0,.76-1.187l2.338.255a3.9,3.9,0,0,1-1.525,2.452A4.8,4.8,0,0,1,261.615,17.167Zm10.45.009a5.681,5.681,0,0,1-2.558-.554A4.138,4.138,0,0,1,267.754,15a4.846,4.846,0,0,1-.637-2.522,4.42,4.42,0,0,1,1.371-3.428,5.731,5.731,0,0,1,7.163,0,4.42,4.42,0,0,1,1.371,3.428,4.444,4.444,0,0,1-1.371,3.441A5.088,5.088,0,0,1,272.065,17.176Zm-.026-2.013a2.319,2.319,0,0,0,1.789-.738,2.764,2.764,0,0,0,.681-1.951,2.764,2.764,0,0,0-.681-1.951,2.319,2.319,0,0,0-1.789-.738,2.234,2.234,0,0,0-1.736.743,2.789,2.789,0,0,0-.672,1.947,2.789,2.789,0,0,0,.672,1.947A2.234,2.234,0,0,0,272.039,15.163Z" transform="translate(-384 -2700)" fill="#fff"/>
    <path id="Trazado_17228" data-name="Trazado 17228" d="M86.513,6.62H81.8V9.5h4.175V11.8H81.8v2.874h4.711V17H79.147V4.3h7.365Zm5.563,10.556a5.049,5.049,0,0,1-2.637-.633,2.675,2.675,0,0,1-1.292-1.881l2.118-.6a1.7,1.7,0,0,0,1.811,1.345A1.87,1.87,0,0,0,93,15.2a.719.719,0,0,0,.36-.7.739.739,0,0,0-.149-.466,1.183,1.183,0,0,0-.461-.334,5.749,5.749,0,0,0-.615-.237q-.3-.1-.8-.233t-.835-.259a5.593,5.593,0,0,1-.8-.338,3.393,3.393,0,0,1-.659-.466,1.878,1.878,0,0,1-.492-.708,2.552,2.552,0,0,1-.171-.967,2.308,2.308,0,0,1,.98-2.021,4.379,4.379,0,0,1,2.562-.686,4.489,4.489,0,0,1,2.364.58A2.625,2.625,0,0,1,95.5,10.18l-1.96.439a1.535,1.535,0,0,0-1.608-1.143,1.761,1.761,0,0,0-.888.2.649.649,0,0,0-.352.6.685.685,0,0,0,.053.272.539.539,0,0,0,.185.22,2.692,2.692,0,0,0,.255.167,1.923,1.923,0,0,0,.36.145q.237.075.4.114l.461.119.47.123q.483.132.848.264a4.967,4.967,0,0,1,.778.369,2.792,2.792,0,0,1,.681.532,2.372,2.372,0,0,1,.444.747,2.759,2.759,0,0,1,.176,1.006,2.718,2.718,0,0,1-.3,1.31,2.276,2.276,0,0,1-.831.883,4.043,4.043,0,0,1-1.173.475A6.087,6.087,0,0,1,92.076,17.176Zm8.9-.176a2.729,2.729,0,0,1-2.039-.734,2.854,2.854,0,0,1-.721-2.087V9.907H96.444V7.965h.571a1.491,1.491,0,0,0,1.125-.378,1.946,1.946,0,0,0,.36-1.345v-1.2h2.285V7.965h1.863V9.907h-1.863v4q0,1.169,1.046,1.169h.817V17Zm6.056-7.6a2.933,2.933,0,0,1,1.187-1.085,3.62,3.62,0,0,1,1.767-.453v2.259a3.423,3.423,0,0,0-2.162.545,2.379,2.379,0,0,0-.668,1.934V17h-2.549V7.965h2.426Zm11.795,5.15a8.453,8.453,0,0,0,.22,2.206V17h-2.364l-.2-.984a2.938,2.938,0,0,1-1.266.87,4.664,4.664,0,0,1-1.635.29,4.3,4.3,0,0,1-.844-.079,2.868,2.868,0,0,1-.76-.268,2.307,2.307,0,0,1-.628-.47,2.062,2.062,0,0,1-.422-.716,2.853,2.853,0,0,1-.158-.98,2.718,2.718,0,0,1,.167-.98,2.3,2.3,0,0,1,.439-.734,2.666,2.666,0,0,1,.712-.536,5.447,5.447,0,0,1,.9-.387,10.712,10.712,0,0,1,1.072-.281l1.485-.334a1.638,1.638,0,0,0,.672-.286.57.57,0,0,0,.2-.453.932.932,0,0,0-.444-.87,2.073,2.073,0,0,0-1.077-.264,1.549,1.549,0,0,0-1.767,1.38l-2.241-.4a3.034,3.034,0,0,1,1.31-2.061,5.2,5.2,0,0,1,2.839-.664q3.8,0,3.8,3.261Zm-4.456.914a2.036,2.036,0,0,0,1.564-.655,2.759,2.759,0,0,0,.606-1.938l-2.145.606a2.534,2.534,0,0,0-.9.369.758.758,0,0,0-.312.65.842.842,0,0,0,.334.716A1.382,1.382,0,0,0,114.374,15.462ZM124.534,17a2.729,2.729,0,0,1-2.039-.734,2.854,2.854,0,0,1-.721-2.087V9.907H120V7.965h.571a1.491,1.491,0,0,0,1.125-.378,1.946,1.946,0,0,0,.36-1.345v-1.2h2.285V7.965H126.2V9.907h-1.863v4q0,1.169,1.046,1.169h.817V17Zm12.094-4.649-.026.606h-6.7a2.339,2.339,0,0,0,.721,1.652,2.3,2.3,0,0,0,1.591.571,2.221,2.221,0,0,0,1.191-.312,1.918,1.918,0,0,0,.76-.91l2.32.343a3.945,3.945,0,0,1-1.582,2.118,4.7,4.7,0,0,1-2.672.756,4.891,4.891,0,0,1-3.52-1.244,4.538,4.538,0,0,1-1.305-3.45,4.565,4.565,0,0,1,1.31-3.45,4.746,4.746,0,0,1,3.437-1.261A4.536,4.536,0,0,1,135.4,8.923,4.517,4.517,0,0,1,136.628,12.351Zm-4.456-2.786a2,2,0,0,0-2.2,1.74h4.148a1.9,1.9,0,0,0-.624-1.292A1.978,1.978,0,0,0,132.172,9.564Zm12.6-1.6h2.408v8.358a6.759,6.759,0,0,1-.338,2.25,3.711,3.711,0,0,1-.98,1.542,4.085,4.085,0,0,1-1.5.866,6.336,6.336,0,0,1-1.969.281q-3.577,0-4.658-2.8l2.1-.9a3.065,3.065,0,0,0,.976,1.31,2.487,2.487,0,0,0,1.485.422q2.347,0,2.347-2.786V15.453a2.846,2.846,0,0,1-1.138.892,3.784,3.784,0,0,1-1.6.338,4.046,4.046,0,0,1-2.9-1.217,4.174,4.174,0,0,1-.892-1.419,5.247,5.247,0,0,1,0-3.661,4.006,4.006,0,0,1,.9-1.4,4.125,4.125,0,0,1,1.318-.879,4.069,4.069,0,0,1,1.6-.316,3.674,3.674,0,0,1,1.674.374,2.67,2.67,0,0,1,1.121,1Zm-3.88,5.977a2.319,2.319,0,0,0,3.318-.009,2.526,2.526,0,0,0,0-3.437,2.34,2.34,0,0,0-3.331-.013,2.4,2.4,0,0,0-.664,1.736A2.379,2.379,0,0,0,140.9,13.941ZM151.1,6.611a1.421,1.421,0,0,1-1.037-.426,1.4,1.4,0,0,1-.431-1.033,1.382,1.382,0,0,1,.435-1.024A1.425,1.425,0,0,1,151.1,3.7a1.463,1.463,0,0,1,1.45,1.45,1.463,1.463,0,0,1-1.45,1.459ZM149.812,17V7.965h2.549V17Zm12.577-2.452a8.453,8.453,0,0,0,.22,2.206V17h-2.364l-.2-.984a2.938,2.938,0,0,1-1.266.87,4.664,4.664,0,0,1-1.635.29,4.3,4.3,0,0,1-.844-.079,2.868,2.868,0,0,1-.76-.268,2.307,2.307,0,0,1-.628-.47,2.062,2.062,0,0,1-.422-.716,2.853,2.853,0,0,1-.158-.98,2.718,2.718,0,0,1,.167-.98,2.3,2.3,0,0,1,.439-.734,2.666,2.666,0,0,1,.712-.536,5.447,5.447,0,0,1,.9-.387,10.712,10.712,0,0,1,1.072-.281l1.485-.334a1.638,1.638,0,0,0,.672-.286.57.57,0,0,0,.2-.453.932.932,0,0,0-.444-.87,2.073,2.073,0,0,0-1.077-.264,1.549,1.549,0,0,0-1.767,1.38l-2.241-.4a3.034,3.034,0,0,1,1.31-2.061,5.2,5.2,0,0,1,2.839-.664q3.8,0,3.8,3.261Zm-4.456.914a2.036,2.036,0,0,0,1.564-.655,2.759,2.759,0,0,0,.606-1.938l-2.145.606a2.534,2.534,0,0,0-.9.369.758.758,0,0,0-.312.65.842.842,0,0,0,.334.716A1.382,1.382,0,0,0,157.933,15.462Zm18-11.962h2.531V17h-2.4L176,15.822a2.58,2.58,0,0,1-1.147,1.024,3.861,3.861,0,0,1-1.692.365,4.394,4.394,0,0,1-1.687-.325,4.064,4.064,0,0,1-2.32-2.408,5.5,5.5,0,0,1-.343-1.978,5.137,5.137,0,0,1,.6-2.518,4.1,4.1,0,0,1,1.578-1.639,4.345,4.345,0,0,1,2.175-.554,3.957,3.957,0,0,1,1.639.33,2.559,2.559,0,0,1,1.129.936Zm-2.188,11.61a2.253,2.253,0,0,0,1.709-.721,2.638,2.638,0,0,0,.681-1.89,2.644,2.644,0,0,0-.686-1.894,2.251,2.251,0,0,0-1.705-.725,2.277,2.277,0,0,0-1.718.712,2.644,2.644,0,0,0-.681,1.907,2.631,2.631,0,0,0,.681,1.9A2.277,2.277,0,0,0,173.744,15.11Zm15.838-2.76-.026.606h-6.7a2.339,2.339,0,0,0,.721,1.652,2.3,2.3,0,0,0,1.591.571,2.221,2.221,0,0,0,1.191-.312,1.918,1.918,0,0,0,.76-.91l2.32.343a3.945,3.945,0,0,1-1.582,2.118,4.7,4.7,0,0,1-2.672.756,4.891,4.891,0,0,1-3.52-1.244,4.538,4.538,0,0,1-1.305-3.45,4.565,4.565,0,0,1,1.31-3.45,4.746,4.746,0,0,1,3.437-1.261,4.536,4.536,0,0,1,3.243,1.151A4.517,4.517,0,0,1,189.582,12.351Zm-4.456-2.786a2,2,0,0,0-2.2,1.74h4.148a1.9,1.9,0,0,0-.624-1.292A1.978,1.978,0,0,0,185.126,9.564ZM191.507,17V3.5h2.558V17Zm15.152-9.211a4.394,4.394,0,0,1,1.688.325,4.223,4.223,0,0,1,1.384.914,4.135,4.135,0,0,1,.936,1.49,5.531,5.531,0,0,1,.343,1.982,5.531,5.531,0,0,1-.343,1.982,4.135,4.135,0,0,1-.936,1.49,4.223,4.223,0,0,1-1.384.914,4.394,4.394,0,0,1-1.687.325,3.921,3.921,0,0,1-1.635-.334,2.562,2.562,0,0,1-1.134-.949v5.467h-2.531V7.965h2.4l.07,1.213a2.475,2.475,0,0,1,1.129-1.024A3.881,3.881,0,0,1,206.659,7.789Zm-.571,7.321A2.274,2.274,0,0,0,207.8,14.4a2.628,2.628,0,0,0,.681-1.9,2.628,2.628,0,0,0-.681-1.9,2.419,2.419,0,0,0-3.432.013,2.629,2.629,0,0,0-.686,1.89,2.629,2.629,0,0,0,.686,1.89A2.278,2.278,0,0,0,206.088,15.11ZM215.343,9.4a2.933,2.933,0,0,1,1.187-1.085,3.62,3.62,0,0,1,1.767-.453v2.259a3.423,3.423,0,0,0-2.162.545,2.379,2.379,0,0,0-.668,1.934V17h-2.549V7.965h2.426Zm8.6,7.778a5.681,5.681,0,0,1-2.558-.554A4.138,4.138,0,0,1,219.627,15a4.846,4.846,0,0,1-.637-2.522,4.42,4.42,0,0,1,1.371-3.428,5.731,5.731,0,0,1,7.163,0,4.42,4.42,0,0,1,1.371,3.428,4.444,4.444,0,0,1-1.371,3.441A5.088,5.088,0,0,1,223.938,17.176Zm-.026-2.013a2.319,2.319,0,0,0,1.789-.738,2.764,2.764,0,0,0,.681-1.951,2.764,2.764,0,0,0-.681-1.951,2.319,2.319,0,0,0-1.789-.738,2.234,2.234,0,0,0-1.736.743,2.789,2.789,0,0,0-.672,1.947,2.789,2.789,0,0,0,.672,1.947A2.234,2.234,0,0,0,223.912,15.163ZM237.184,3.5h2.531V17h-2.4l-.062-1.178a2.58,2.58,0,0,1-1.147,1.024,3.861,3.861,0,0,1-1.692.365,4.394,4.394,0,0,1-1.687-.325,4.064,4.064,0,0,1-2.32-2.408,5.5,5.5,0,0,1-.343-1.978,5.137,5.137,0,0,1,.6-2.518,4.1,4.1,0,0,1,1.578-1.639,4.345,4.345,0,0,1,2.175-.554,3.957,3.957,0,0,1,1.639.33,2.559,2.559,0,0,1,1.129.936ZM235,15.11a2.253,2.253,0,0,0,1.709-.721,2.638,2.638,0,0,0,.681-1.89,2.644,2.644,0,0,0-.686-1.894A2.251,2.251,0,0,0,235,9.881a2.277,2.277,0,0,0-1.718.712A2.644,2.644,0,0,0,232.6,12.5a2.631,2.631,0,0,0,.681,1.9A2.277,2.277,0,0,0,235,15.11Zm13.324-7.146h2.531V17h-2.4l-.062-1.09a3.45,3.45,0,0,1-2.874,1.266,3.522,3.522,0,0,1-2.5-.813,3.014,3.014,0,0,1-.87-2.316V7.965h2.54V13.5a1.562,1.562,0,0,0,.453,1.239,1.718,1.718,0,0,0,1.173.4,2.038,2.038,0,0,0,1.437-.514,2.209,2.209,0,0,0,.567-1.674Zm9.237,9.2a4.827,4.827,0,0,1-3.489-1.3,4.493,4.493,0,0,1-1.354-3.393,4.483,4.483,0,0,1,1.349-3.393,5.364,5.364,0,0,1,6.42-.422A3.885,3.885,0,0,1,262,11.111l-2.338.255a2,2,0,0,0-.756-1.187,2.3,2.3,0,0,0-1.371-.4,2.072,2.072,0,0,0-1.652.738,2.894,2.894,0,0,0-.633,1.951,2.9,2.9,0,0,0,.633,1.947,2.067,2.067,0,0,0,1.652.743,2.278,2.278,0,0,0,1.367-.4,2.05,2.05,0,0,0,.76-1.187l2.338.255a3.9,3.9,0,0,1-1.525,2.452A4.8,4.8,0,0,1,257.557,17.167ZM267.163,17a2.729,2.729,0,0,1-2.039-.734,2.854,2.854,0,0,1-.721-2.087V9.907h-1.775V7.965h.571a1.491,1.491,0,0,0,1.125-.378,1.946,1.946,0,0,0,.36-1.345v-1.2h2.285V7.965h1.863V9.907H266.97v4q0,1.169,1.046,1.169h.817V17Zm7.8.176a5.681,5.681,0,0,1-2.558-.554A4.138,4.138,0,0,1,270.657,15a4.846,4.846,0,0,1-.637-2.522,4.42,4.42,0,0,1,1.371-3.428,5.731,5.731,0,0,1,7.163,0,4.42,4.42,0,0,1,1.371,3.428,4.444,4.444,0,0,1-1.371,3.441A5.088,5.088,0,0,1,274.968,17.176Zm-.026-2.013a2.319,2.319,0,0,0,1.789-.738,2.764,2.764,0,0,0,.681-1.951,2.764,2.764,0,0,0-.681-1.951,2.319,2.319,0,0,0-1.789-.738,2.234,2.234,0,0,0-1.736.743,2.789,2.789,0,0,0-.672,1.947,2.789,2.789,0,0,0,.672,1.947A2.234,2.234,0,0,0,274.941,15.163Z" transform="translate(-329 -2592)" fill="#00223d"/>
    <path id="Trazado_17229" data-name="Trazado 17229" d="M99.068,6.62H94.357V9.5h4.175V11.8H94.357v2.874h4.711V17H91.7V4.3h7.365Zm5.563,10.556a5.049,5.049,0,0,1-2.637-.633,2.675,2.675,0,0,1-1.292-1.881l2.118-.6a1.7,1.7,0,0,0,1.811,1.345,1.87,1.87,0,0,0,.923-.207.719.719,0,0,0,.36-.7.739.739,0,0,0-.149-.466,1.183,1.183,0,0,0-.461-.334,5.749,5.749,0,0,0-.615-.237q-.3-.1-.8-.233t-.835-.259a5.593,5.593,0,0,1-.8-.338,3.393,3.393,0,0,1-.659-.466,1.878,1.878,0,0,1-.492-.708,2.552,2.552,0,0,1-.171-.967,2.308,2.308,0,0,1,.98-2.021,4.379,4.379,0,0,1,2.562-.686,4.489,4.489,0,0,1,2.364.58,2.625,2.625,0,0,1,1.213,1.811l-1.96.439a1.535,1.535,0,0,0-1.608-1.143,1.761,1.761,0,0,0-.888.2.649.649,0,0,0-.352.6.685.685,0,0,0,.053.272.539.539,0,0,0,.185.22,2.692,2.692,0,0,0,.255.167,1.923,1.923,0,0,0,.36.145q.237.075.4.114l.461.119.47.123q.483.132.848.264a4.967,4.967,0,0,1,.778.369,2.792,2.792,0,0,1,.681.532,2.372,2.372,0,0,1,.444.747,2.759,2.759,0,0,1,.176,1.006,2.718,2.718,0,0,1-.3,1.31,2.276,2.276,0,0,1-.831.883,4.043,4.043,0,0,1-1.173.475A6.087,6.087,0,0,1,104.631,17.176Zm8.9-.176a2.729,2.729,0,0,1-2.039-.734,2.854,2.854,0,0,1-.721-2.087V9.907H109V7.965h.571a1.491,1.491,0,0,0,1.125-.378,1.946,1.946,0,0,0,.36-1.345v-1.2h2.285V7.965H115.2V9.907h-1.863v4q0,1.169,1.046,1.169h.817V17Zm6.056-7.6a2.933,2.933,0,0,1,1.187-1.085,3.62,3.62,0,0,1,1.767-.453v2.259a3.423,3.423,0,0,0-2.162.545,2.379,2.379,0,0,0-.668,1.934V17h-2.549V7.965h2.426Zm11.795,5.15a8.453,8.453,0,0,0,.22,2.206V17h-2.364l-.2-.984a2.938,2.938,0,0,1-1.266.87,4.664,4.664,0,0,1-1.635.29,4.3,4.3,0,0,1-.844-.079,2.868,2.868,0,0,1-.76-.268,2.307,2.307,0,0,1-.628-.47,2.062,2.062,0,0,1-.422-.716,2.853,2.853,0,0,1-.158-.98,2.718,2.718,0,0,1,.167-.98,2.3,2.3,0,0,1,.439-.734,2.666,2.666,0,0,1,.712-.536,5.447,5.447,0,0,1,.9-.387,10.712,10.712,0,0,1,1.072-.281l1.485-.334a1.638,1.638,0,0,0,.672-.286.57.57,0,0,0,.2-.453.932.932,0,0,0-.444-.87,2.073,2.073,0,0,0-1.077-.264,1.549,1.549,0,0,0-1.767,1.38l-2.241-.4a3.034,3.034,0,0,1,1.31-2.061,5.2,5.2,0,0,1,2.839-.664q3.8,0,3.8,3.261Zm-4.456.914a2.036,2.036,0,0,0,1.564-.655,2.759,2.759,0,0,0,.606-1.938l-2.145.606a2.534,2.534,0,0,0-.9.369.758.758,0,0,0-.312.65.842.842,0,0,0,.334.716A1.382,1.382,0,0,0,126.929,15.462ZM137.089,17a2.729,2.729,0,0,1-2.039-.734,2.854,2.854,0,0,1-.721-2.087V9.907h-1.775V7.965h.571a1.491,1.491,0,0,0,1.125-.378,1.946,1.946,0,0,0,.36-1.345v-1.2H136.9V7.965h1.863V9.907H136.9v4q0,1.169,1.046,1.169h.817V17Zm12.094-4.649-.026.606h-6.7a2.339,2.339,0,0,0,.721,1.652,2.3,2.3,0,0,0,1.591.571,2.221,2.221,0,0,0,1.191-.312,1.918,1.918,0,0,0,.76-.91l2.32.343a3.945,3.945,0,0,1-1.582,2.118,4.7,4.7,0,0,1-2.672.756,4.891,4.891,0,0,1-3.52-1.244,4.538,4.538,0,0,1-1.305-3.45,4.565,4.565,0,0,1,1.31-3.45,4.746,4.746,0,0,1,3.437-1.261,4.536,4.536,0,0,1,3.243,1.151A4.517,4.517,0,0,1,149.183,12.351Zm-4.456-2.786a2,2,0,0,0-2.2,1.74h4.148a1.9,1.9,0,0,0-.624-1.292A1.978,1.978,0,0,0,144.727,9.564Zm12.6-1.6h2.408v8.358a6.759,6.759,0,0,1-.338,2.25,3.711,3.711,0,0,1-.98,1.542,4.085,4.085,0,0,1-1.5.866,6.336,6.336,0,0,1-1.969.281q-3.577,0-4.658-2.8l2.1-.9a3.065,3.065,0,0,0,.976,1.31,2.487,2.487,0,0,0,1.485.422q2.347,0,2.347-2.786V15.453a2.846,2.846,0,0,1-1.138.892,3.784,3.784,0,0,1-1.6.338,4.046,4.046,0,0,1-2.9-1.217,4.174,4.174,0,0,1-.892-1.419,5.247,5.247,0,0,1,0-3.661,4.006,4.006,0,0,1,.9-1.4,4.125,4.125,0,0,1,1.318-.879,4.069,4.069,0,0,1,1.6-.316,3.674,3.674,0,0,1,1.674.374,2.67,2.67,0,0,1,1.121,1Zm-3.88,5.977a2.319,2.319,0,0,0,3.318-.009,2.526,2.526,0,0,0,0-3.437,2.34,2.34,0,0,0-3.331-.013,2.4,2.4,0,0,0-.664,1.736A2.379,2.379,0,0,0,153.45,13.941Zm10.208-7.33a1.421,1.421,0,0,1-1.037-.426,1.4,1.4,0,0,1-.431-1.033,1.382,1.382,0,0,1,.435-1.024,1.425,1.425,0,0,1,1.033-.426,1.463,1.463,0,0,1,1.45,1.45,1.463,1.463,0,0,1-1.45,1.459ZM162.367,17V7.965h2.549V17Zm12.577-2.452a8.453,8.453,0,0,0,.22,2.206V17H172.8l-.2-.984a2.938,2.938,0,0,1-1.266.87,4.664,4.664,0,0,1-1.635.29,4.3,4.3,0,0,1-.844-.079,2.868,2.868,0,0,1-.76-.268,2.307,2.307,0,0,1-.628-.47,2.062,2.062,0,0,1-.422-.716,2.853,2.853,0,0,1-.158-.98,2.718,2.718,0,0,1,.167-.98,2.3,2.3,0,0,1,.439-.734,2.666,2.666,0,0,1,.712-.536,5.447,5.447,0,0,1,.9-.387,10.712,10.712,0,0,1,1.072-.281l1.485-.334a1.638,1.638,0,0,0,.672-.286.57.57,0,0,0,.2-.453.932.932,0,0,0-.444-.87,2.073,2.073,0,0,0-1.077-.264,1.549,1.549,0,0,0-1.767,1.38l-2.241-.4a3.034,3.034,0,0,1,1.31-2.061,5.2,5.2,0,0,1,2.839-.664q3.8,0,3.8,3.261Zm-4.456.914a2.036,2.036,0,0,0,1.564-.655,2.759,2.759,0,0,0,.606-1.938l-2.145.606a2.534,2.534,0,0,0-.9.369.758.758,0,0,0-.312.65.842.842,0,0,0,.334.716A1.382,1.382,0,0,0,170.488,15.462Zm18-11.962h2.531V17h-2.4l-.062-1.178a2.58,2.58,0,0,1-1.147,1.024,3.861,3.861,0,0,1-1.692.365,4.394,4.394,0,0,1-1.687-.325,4.064,4.064,0,0,1-2.32-2.408,5.5,5.5,0,0,1-.343-1.978,5.137,5.137,0,0,1,.6-2.518,4.1,4.1,0,0,1,1.578-1.639,4.345,4.345,0,0,1,2.175-.554,3.957,3.957,0,0,1,1.639.33,2.559,2.559,0,0,1,1.129.936ZM186.3,15.11a2.253,2.253,0,0,0,1.709-.721,2.638,2.638,0,0,0,.681-1.89A2.644,2.644,0,0,0,188,10.606a2.251,2.251,0,0,0-1.705-.725,2.277,2.277,0,0,0-1.718.712A2.644,2.644,0,0,0,183.9,12.5a2.631,2.631,0,0,0,.681,1.9A2.277,2.277,0,0,0,186.3,15.11Zm15.838-2.76-.026.606h-6.7a2.339,2.339,0,0,0,.721,1.652,2.3,2.3,0,0,0,1.591.571,2.221,2.221,0,0,0,1.191-.312,1.918,1.918,0,0,0,.76-.91L202,14.3a3.945,3.945,0,0,1-1.582,2.118,4.7,4.7,0,0,1-2.672.756,4.891,4.891,0,0,1-3.52-1.244,4.538,4.538,0,0,1-1.305-3.45,4.565,4.565,0,0,1,1.31-3.45,4.746,4.746,0,0,1,3.437-1.261,4.536,4.536,0,0,1,3.243,1.151A4.517,4.517,0,0,1,202.137,12.351Zm-4.456-2.786a2,2,0,0,0-2.2,1.74h4.148a1.9,1.9,0,0,0-.624-1.292A1.978,1.978,0,0,0,197.681,9.564ZM204.062,17V3.5h2.558V17Zm15.152-9.211a4.394,4.394,0,0,1,1.688.325,4.223,4.223,0,0,1,1.384.914,4.135,4.135,0,0,1,.936,1.49,5.531,5.531,0,0,1,.343,1.982,5.531,5.531,0,0,1-.343,1.982,4.135,4.135,0,0,1-.936,1.49,4.223,4.223,0,0,1-1.384.914,4.394,4.394,0,0,1-1.687.325,3.921,3.921,0,0,1-1.635-.334,2.562,2.562,0,0,1-1.134-.949v5.467h-2.531V7.965h2.4l.07,1.213a2.475,2.475,0,0,1,1.129-1.024A3.881,3.881,0,0,1,219.214,7.789Zm-.571,7.321a2.274,2.274,0,0,0,1.709-.708,2.628,2.628,0,0,0,.681-1.9,2.628,2.628,0,0,0-.681-1.9,2.419,2.419,0,0,0-3.432.013,2.629,2.629,0,0,0-.686,1.89,2.629,2.629,0,0,0,.686,1.89A2.278,2.278,0,0,0,218.643,15.11ZM227.9,9.4a2.933,2.933,0,0,1,1.187-1.085,3.62,3.62,0,0,1,1.767-.453v2.259a3.423,3.423,0,0,0-2.162.545,2.379,2.379,0,0,0-.668,1.934V17h-2.549V7.965H227.9Zm12.885,2.953-.026.606h-6.7a2.339,2.339,0,0,0,.721,1.652,2.3,2.3,0,0,0,1.591.571,2.221,2.221,0,0,0,1.191-.312,1.918,1.918,0,0,0,.76-.91l2.32.343a3.945,3.945,0,0,1-1.582,2.118,4.7,4.7,0,0,1-2.672.756,4.891,4.891,0,0,1-3.52-1.244,4.538,4.538,0,0,1-1.305-3.45,4.565,4.565,0,0,1,1.31-3.45,4.746,4.746,0,0,1,3.437-1.261,4.536,4.536,0,0,1,3.243,1.151A4.517,4.517,0,0,1,240.783,12.351Zm-4.456-2.786a2,2,0,0,0-2.2,1.74h4.148a1.9,1.9,0,0,0-.624-1.292A1.978,1.978,0,0,0,236.327,9.564Zm10.468,7.6a4.827,4.827,0,0,1-3.489-1.3,4.493,4.493,0,0,1-1.354-3.393A4.483,4.483,0,0,1,243.3,9.081a5.364,5.364,0,0,1,6.42-.422,3.885,3.885,0,0,1,1.512,2.452l-2.338.255a2,2,0,0,0-.756-1.187,2.3,2.3,0,0,0-1.371-.4,2.072,2.072,0,0,0-1.652.738,2.894,2.894,0,0,0-.633,1.951,2.9,2.9,0,0,0,.633,1.947,2.067,2.067,0,0,0,1.652.743,2.278,2.278,0,0,0,1.367-.4,2.05,2.05,0,0,0,.76-1.187l2.338.255a3.9,3.9,0,0,1-1.525,2.452A4.8,4.8,0,0,1,246.794,17.167Zm7.532-10.556a1.421,1.421,0,0,1-1.037-.426,1.4,1.4,0,0,1-.431-1.033,1.382,1.382,0,0,1,.435-1.024,1.425,1.425,0,0,1,1.033-.426,1.463,1.463,0,0,1,1.45,1.45,1.463,1.463,0,0,1-1.45,1.459ZM253.035,17V7.965h2.549V17Zm9.378.176a5.681,5.681,0,0,1-2.558-.554A4.138,4.138,0,0,1,258.1,15a4.846,4.846,0,0,1-.637-2.522,4.42,4.42,0,0,1,1.371-3.428,5.731,5.731,0,0,1,7.163,0,4.42,4.42,0,0,1,1.371,3.428A4.444,4.444,0,0,1,266,15.915,5.088,5.088,0,0,1,262.413,17.176Zm-.026-2.013a2.319,2.319,0,0,0,1.789-.738,2.764,2.764,0,0,0,.681-1.951,2.764,2.764,0,0,0-.681-1.951,2.319,2.319,0,0,0-1.789-.738,2.234,2.234,0,0,0-1.736.743,2.789,2.789,0,0,0-.672,1.947,2.789,2.789,0,0,0,.672,1.947A2.234,2.234,0,0,0,262.386,15.163Z" transform="translate(-329 -2509)" fill="#00223d"/>
    <path id="Trazado_17230" data-name="Trazado 17230" d="M76.893,6.62H72.182V9.5h4.175V11.8H72.182v2.874h4.711V17H69.528V4.3h7.365Zm5.563,10.556a5.049,5.049,0,0,1-2.637-.633,2.675,2.675,0,0,1-1.292-1.881l2.118-.6a1.7,1.7,0,0,0,1.811,1.345,1.87,1.87,0,0,0,.923-.207.719.719,0,0,0,.36-.7.739.739,0,0,0-.149-.466,1.183,1.183,0,0,0-.461-.334,5.749,5.749,0,0,0-.615-.237q-.3-.1-.8-.233t-.835-.259a5.593,5.593,0,0,1-.8-.338,3.393,3.393,0,0,1-.659-.466,1.878,1.878,0,0,1-.492-.708,2.552,2.552,0,0,1-.171-.967,2.308,2.308,0,0,1,.98-2.021A4.379,4.379,0,0,1,82.3,7.789a4.489,4.489,0,0,1,2.364.58,2.625,2.625,0,0,1,1.213,1.811l-1.96.439a1.535,1.535,0,0,0-1.608-1.143,1.761,1.761,0,0,0-.888.2.649.649,0,0,0-.352.6.685.685,0,0,0,.053.272.539.539,0,0,0,.185.22,2.692,2.692,0,0,0,.255.167,1.923,1.923,0,0,0,.36.145q.237.075.4.114l.461.119.47.123q.483.132.848.264a4.967,4.967,0,0,1,.778.369,2.792,2.792,0,0,1,.681.532,2.372,2.372,0,0,1,.444.747,2.759,2.759,0,0,1,.176,1.006,2.718,2.718,0,0,1-.3,1.31,2.276,2.276,0,0,1-.831.883,4.043,4.043,0,0,1-1.173.475A6.087,6.087,0,0,1,82.457,17.176ZM91.36,17a2.729,2.729,0,0,1-2.039-.734,2.854,2.854,0,0,1-.721-2.087V9.907H86.825V7.965H87.4a1.491,1.491,0,0,0,1.125-.378,1.946,1.946,0,0,0,.36-1.345v-1.2h2.285V7.965H93.03V9.907H91.167v4q0,1.169,1.046,1.169h.817V17Zm6.056-7.6A2.933,2.933,0,0,1,98.6,8.312a3.62,3.62,0,0,1,1.767-.453v2.259a3.423,3.423,0,0,0-2.162.545,2.379,2.379,0,0,0-.668,1.934V17H94.99V7.965h2.426Zm11.795,5.15a8.453,8.453,0,0,0,.22,2.206V17h-2.364l-.2-.984a2.938,2.938,0,0,1-1.266.87,4.664,4.664,0,0,1-1.635.29,4.3,4.3,0,0,1-.844-.079,2.868,2.868,0,0,1-.76-.268,2.307,2.307,0,0,1-.628-.47,2.062,2.062,0,0,1-.422-.716,2.853,2.853,0,0,1-.158-.98,2.718,2.718,0,0,1,.167-.98,2.3,2.3,0,0,1,.439-.734,2.666,2.666,0,0,1,.712-.536,5.447,5.447,0,0,1,.9-.387,10.712,10.712,0,0,1,1.072-.281l1.485-.334a1.638,1.638,0,0,0,.672-.286.57.57,0,0,0,.2-.453.932.932,0,0,0-.444-.87,2.073,2.073,0,0,0-1.077-.264,1.549,1.549,0,0,0-1.767,1.38l-2.241-.4a3.034,3.034,0,0,1,1.31-2.061,5.2,5.2,0,0,1,2.839-.664q3.8,0,3.8,3.261Zm-4.456.914a2.036,2.036,0,0,0,1.564-.655,2.759,2.759,0,0,0,.606-1.938l-2.145.606a2.534,2.534,0,0,0-.9.369.758.758,0,0,0-.312.65.842.842,0,0,0,.334.716A1.382,1.382,0,0,0,104.754,15.462ZM114.915,17a2.729,2.729,0,0,1-2.039-.734,2.854,2.854,0,0,1-.721-2.087V9.907h-1.775V7.965h.571a1.491,1.491,0,0,0,1.125-.378,1.946,1.946,0,0,0,.36-1.345v-1.2h2.285V7.965h1.863V9.907h-1.863v4q0,1.169,1.046,1.169h.817V17Zm12.094-4.649-.026.606h-6.7a2.339,2.339,0,0,0,.721,1.652,2.3,2.3,0,0,0,1.591.571,2.221,2.221,0,0,0,1.191-.312,1.918,1.918,0,0,0,.76-.91l2.32.343a3.945,3.945,0,0,1-1.582,2.118,4.7,4.7,0,0,1-2.672.756,4.891,4.891,0,0,1-3.52-1.244,4.538,4.538,0,0,1-1.305-3.45,4.565,4.565,0,0,1,1.31-3.45,4.746,4.746,0,0,1,3.437-1.261,4.536,4.536,0,0,1,3.243,1.151A4.517,4.517,0,0,1,127.008,12.351Zm-4.456-2.786a2,2,0,0,0-2.2,1.74H124.5a1.9,1.9,0,0,0-.624-1.292A1.978,1.978,0,0,0,122.552,9.564Zm12.6-1.6h2.408v8.358a6.759,6.759,0,0,1-.338,2.25,3.711,3.711,0,0,1-.98,1.542,4.085,4.085,0,0,1-1.5.866,6.336,6.336,0,0,1-1.969.281q-3.577,0-4.658-2.8l2.1-.9a3.065,3.065,0,0,0,.976,1.31,2.487,2.487,0,0,0,1.485.422q2.347,0,2.347-2.786V15.453a2.846,2.846,0,0,1-1.138.892,3.784,3.784,0,0,1-1.6.338,4.046,4.046,0,0,1-2.9-1.217,4.174,4.174,0,0,1-.892-1.419,5.247,5.247,0,0,1,0-3.661,4.006,4.006,0,0,1,.9-1.4,4.125,4.125,0,0,1,1.318-.879,4.069,4.069,0,0,1,1.6-.316,3.674,3.674,0,0,1,1.674.374,2.67,2.67,0,0,1,1.121,1Zm-3.88,5.977a2.319,2.319,0,0,0,3.318-.009,2.526,2.526,0,0,0,0-3.437,2.34,2.34,0,0,0-3.331-.013,2.4,2.4,0,0,0-.664,1.736A2.379,2.379,0,0,0,131.275,13.941Zm10.208-7.33a1.421,1.421,0,0,1-1.037-.426,1.4,1.4,0,0,1-.431-1.033,1.382,1.382,0,0,1,.435-1.024,1.425,1.425,0,0,1,1.033-.426,1.463,1.463,0,0,1,1.45,1.45,1.463,1.463,0,0,1-1.45,1.459ZM140.192,17V7.965h2.549V17Zm12.577-2.452a8.453,8.453,0,0,0,.22,2.206V17h-2.364l-.2-.984a2.938,2.938,0,0,1-1.266.87,4.664,4.664,0,0,1-1.635.29,4.3,4.3,0,0,1-.844-.079,2.868,2.868,0,0,1-.76-.268,2.307,2.307,0,0,1-.628-.47,2.062,2.062,0,0,1-.422-.716,2.853,2.853,0,0,1-.158-.98,2.718,2.718,0,0,1,.167-.98,2.3,2.3,0,0,1,.439-.734,2.666,2.666,0,0,1,.712-.536,5.447,5.447,0,0,1,.9-.387A10.712,10.712,0,0,1,148,11.744l1.485-.334a1.638,1.638,0,0,0,.672-.286.57.57,0,0,0,.2-.453.932.932,0,0,0-.444-.87,2.073,2.073,0,0,0-1.077-.264,1.549,1.549,0,0,0-1.767,1.38l-2.241-.4a3.034,3.034,0,0,1,1.31-2.061,5.2,5.2,0,0,1,2.839-.664q3.8,0,3.8,3.261Zm-4.456.914a2.036,2.036,0,0,0,1.564-.655,2.759,2.759,0,0,0,.606-1.938l-2.145.606a2.534,2.534,0,0,0-.9.369.758.758,0,0,0-.312.65.842.842,0,0,0,.334.716A1.382,1.382,0,0,0,148.313,15.462Zm18-11.962h2.531V17h-2.4l-.062-1.178a2.58,2.58,0,0,1-1.147,1.024,3.861,3.861,0,0,1-1.692.365,4.394,4.394,0,0,1-1.687-.325,4.064,4.064,0,0,1-2.32-2.408,5.5,5.5,0,0,1-.343-1.978,5.137,5.137,0,0,1,.6-2.518,4.1,4.1,0,0,1,1.578-1.639,4.345,4.345,0,0,1,2.175-.554,3.957,3.957,0,0,1,1.639.33,2.559,2.559,0,0,1,1.129.936Zm-2.188,11.61a2.253,2.253,0,0,0,1.709-.721,2.638,2.638,0,0,0,.681-1.89,2.644,2.644,0,0,0-.686-1.894,2.251,2.251,0,0,0-1.705-.725,2.277,2.277,0,0,0-1.718.712,2.644,2.644,0,0,0-.681,1.907,2.631,2.631,0,0,0,.681,1.9A2.277,2.277,0,0,0,164.125,15.11Zm15.838-2.76-.026.606h-6.7a2.339,2.339,0,0,0,.721,1.652,2.3,2.3,0,0,0,1.591.571,2.221,2.221,0,0,0,1.191-.312,1.918,1.918,0,0,0,.76-.91l2.32.343a3.945,3.945,0,0,1-1.582,2.118,4.7,4.7,0,0,1-2.672.756,4.891,4.891,0,0,1-3.52-1.244,4.538,4.538,0,0,1-1.305-3.45,4.565,4.565,0,0,1,1.31-3.45,4.746,4.746,0,0,1,3.437-1.261,4.536,4.536,0,0,1,3.243,1.151A4.517,4.517,0,0,1,179.962,12.351Zm-4.456-2.786a2,2,0,0,0-2.2,1.74h4.148a1.9,1.9,0,0,0-.624-1.292A1.978,1.978,0,0,0,175.506,9.564ZM192.97,3.5H195.5V17h-2.4l-.062-1.178a2.58,2.58,0,0,1-1.147,1.024,3.861,3.861,0,0,1-1.692.365,4.394,4.394,0,0,1-1.687-.325,4.064,4.064,0,0,1-2.32-2.408,5.5,5.5,0,0,1-.343-1.978,5.137,5.137,0,0,1,.6-2.518,4.1,4.1,0,0,1,1.578-1.639,4.345,4.345,0,0,1,2.175-.554,3.957,3.957,0,0,1,1.639.33,2.559,2.559,0,0,1,1.129.936Zm-2.188,11.61a2.253,2.253,0,0,0,1.709-.721,2.638,2.638,0,0,0,.681-1.89,2.644,2.644,0,0,0-.686-1.894,2.251,2.251,0,0,0-1.705-.725,2.277,2.277,0,0,0-1.718.712,2.644,2.644,0,0,0-.681,1.907,2.631,2.631,0,0,0,.681,1.9A2.277,2.277,0,0,0,190.782,15.11Zm8.631-8.5a1.421,1.421,0,0,1-1.037-.426,1.4,1.4,0,0,1-.431-1.033,1.382,1.382,0,0,1,.435-1.024,1.425,1.425,0,0,1,1.033-.426,1.463,1.463,0,0,1,1.45,1.45,1.463,1.463,0,0,1-1.45,1.459ZM198.121,17V7.965h2.549V17Zm8.35.176a5.049,5.049,0,0,1-2.637-.633,2.675,2.675,0,0,1-1.292-1.881l2.118-.6a1.7,1.7,0,0,0,1.811,1.345,1.87,1.87,0,0,0,.923-.207.719.719,0,0,0,.36-.7.739.739,0,0,0-.149-.466,1.183,1.183,0,0,0-.461-.334,5.749,5.749,0,0,0-.615-.237q-.3-.1-.8-.233t-.835-.259a5.593,5.593,0,0,1-.8-.338,3.393,3.393,0,0,1-.659-.466,1.878,1.878,0,0,1-.492-.708,2.552,2.552,0,0,1-.171-.967,2.308,2.308,0,0,1,.98-2.021,4.379,4.379,0,0,1,2.562-.686,4.489,4.489,0,0,1,2.364.58,2.625,2.625,0,0,1,1.213,1.811l-1.96.439a1.535,1.535,0,0,0-1.608-1.143,1.761,1.761,0,0,0-.888.2.649.649,0,0,0-.352.6.685.685,0,0,0,.053.272.539.539,0,0,0,.185.22,2.692,2.692,0,0,0,.255.167,1.923,1.923,0,0,0,.36.145q.237.075.4.114l.461.119.47.123q.483.132.848.264a4.967,4.967,0,0,1,.778.369,2.792,2.792,0,0,1,.681.532,2.372,2.372,0,0,1,.444.747,2.759,2.759,0,0,1,.176,1.006,2.718,2.718,0,0,1-.3,1.31,2.276,2.276,0,0,1-.831.883,4.043,4.043,0,0,1-1.173.475A6.087,6.087,0,0,1,206.47,17.176Zm8.9-.176a2.729,2.729,0,0,1-2.039-.734,2.854,2.854,0,0,1-.721-2.087V9.907h-1.775V7.965h.571a1.491,1.491,0,0,0,1.125-.378,1.946,1.946,0,0,0,.36-1.345v-1.2h2.285V7.965h1.863V9.907H215.18v4q0,1.169,1.046,1.169h.817V17Zm6.056-7.6a2.933,2.933,0,0,1,1.187-1.085,3.62,3.62,0,0,1,1.767-.453v2.259a3.423,3.423,0,0,0-2.162.545,2.379,2.379,0,0,0-.668,1.934V17H219V7.965h2.426Zm5.73-2.786a1.421,1.421,0,0,1-1.037-.426,1.4,1.4,0,0,1-.431-1.033,1.382,1.382,0,0,1,.435-1.024A1.425,1.425,0,0,1,227.16,3.7a1.463,1.463,0,0,1,1.45,1.45,1.463,1.463,0,0,1-1.45,1.459ZM225.868,17V7.965h2.549V17Zm10.477-9.211a4.372,4.372,0,0,1,1.679.325,4.064,4.064,0,0,1,2.32,2.408,5.5,5.5,0,0,1,.343,1.978,5.5,5.5,0,0,1-.343,1.978,4.064,4.064,0,0,1-2.32,2.408,4.372,4.372,0,0,1-1.679.325,3.9,3.9,0,0,1-1.709-.365,2.527,2.527,0,0,1-1.138-1.024L233.435,17h-2.4V3.5h2.531V9.063a2.522,2.522,0,0,1,1.129-.94A3.973,3.973,0,0,1,236.344,7.789Zm-.589,7.321a2.277,2.277,0,0,0,1.718-.712,2.631,2.631,0,0,0,.681-1.9,2.644,2.644,0,0,0-.681-1.907,2.277,2.277,0,0,0-1.718-.712,2.251,2.251,0,0,0-1.705.725,2.644,2.644,0,0,0-.686,1.894,2.638,2.638,0,0,0,.681,1.89A2.253,2.253,0,0,0,235.755,15.11Zm12.823-7.146h2.531V17h-2.4l-.062-1.09a3.45,3.45,0,0,1-2.874,1.266,3.522,3.522,0,0,1-2.5-.813,3.014,3.014,0,0,1-.87-2.316V7.965h2.54V13.5a1.562,1.562,0,0,0,.453,1.239,1.718,1.718,0,0,0,1.173.4,2.038,2.038,0,0,0,1.437-.514,2.209,2.209,0,0,0,.567-1.674Zm9.237,9.2a4.827,4.827,0,0,1-3.489-1.3,4.493,4.493,0,0,1-1.354-3.393,4.483,4.483,0,0,1,1.349-3.393,5.364,5.364,0,0,1,6.42-.422,3.885,3.885,0,0,1,1.512,2.452l-2.338.255a2,2,0,0,0-.756-1.187,2.3,2.3,0,0,0-1.371-.4,2.072,2.072,0,0,0-1.652.738,2.894,2.894,0,0,0-.633,1.951,2.9,2.9,0,0,0,.633,1.947,2.067,2.067,0,0,0,1.652.743,2.278,2.278,0,0,0,1.367-.4,2.05,2.05,0,0,0,.76-1.187l2.338.255a3.9,3.9,0,0,1-1.525,2.452A4.8,4.8,0,0,1,257.816,17.167Zm7.532-10.556a1.421,1.421,0,0,1-1.037-.426,1.4,1.4,0,0,1-.431-1.033,1.382,1.382,0,0,1,.435-1.024,1.425,1.425,0,0,1,1.033-.426,1.463,1.463,0,0,1,1.45,1.45,1.463,1.463,0,0,1-1.45,1.459ZM264.056,17V7.965H266.6V17Zm8.6-10.266,2.3-3.234,1.248.879-2,2.355Zm.782,10.441a5.681,5.681,0,0,1-2.558-.554A4.138,4.138,0,0,1,269.123,15a4.846,4.846,0,0,1-.637-2.522,4.42,4.42,0,0,1,1.371-3.428,5.731,5.731,0,0,1,7.163,0,4.42,4.42,0,0,1,1.371,3.428,4.444,4.444,0,0,1-1.371,3.441A5.088,5.088,0,0,1,273.434,17.176Zm-.026-2.013a2.319,2.319,0,0,0,1.789-.738,2.764,2.764,0,0,0,.681-1.951,2.764,2.764,0,0,0-.681-1.951,2.319,2.319,0,0,0-1.789-.738,2.234,2.234,0,0,0-1.736.743A2.789,2.789,0,0,0,271,12.474a2.789,2.789,0,0,0,.672,1.947A2.234,2.234,0,0,0,273.408,15.163Zm12.2-7.374a3.522,3.522,0,0,1,2.5.813,3.014,3.014,0,0,1,.87,2.316V17h-2.54V11.463a1.574,1.574,0,0,0-.453-1.248,1.705,1.705,0,0,0-1.165-.4,2.379,2.379,0,0,0-.756.114,1.942,1.942,0,0,0-.633.356,1.573,1.573,0,0,0-.453.681,3.15,3.15,0,0,0-.171,1.046V17h-2.531V7.965H282.8v1A3.481,3.481,0,0,1,285.607,7.789Z" transform="translate(-329 -2426)" fill="#00223d"/>
    <path id="Trazado_17231" data-name="Trazado 17231" d="M67.889,6.62H63.178V9.5h4.175V11.8H63.178v2.874h4.711V17H60.523V4.3h7.365Zm5.563,10.556a5.049,5.049,0,0,1-2.637-.633,2.675,2.675,0,0,1-1.292-1.881l2.118-.6a1.7,1.7,0,0,0,1.811,1.345,1.87,1.87,0,0,0,.923-.207.719.719,0,0,0,.36-.7.739.739,0,0,0-.149-.466,1.183,1.183,0,0,0-.461-.334,5.749,5.749,0,0,0-.615-.237q-.3-.1-.8-.233t-.835-.259a5.593,5.593,0,0,1-.8-.338,3.393,3.393,0,0,1-.659-.466,1.878,1.878,0,0,1-.492-.708,2.552,2.552,0,0,1-.171-.967,2.308,2.308,0,0,1,.98-2.021,4.379,4.379,0,0,1,2.562-.686,4.489,4.489,0,0,1,2.364.58,2.625,2.625,0,0,1,1.213,1.811l-1.96.439A1.535,1.535,0,0,0,73.3,9.477a1.761,1.761,0,0,0-.888.2.649.649,0,0,0-.352.6.685.685,0,0,0,.053.272.539.539,0,0,0,.185.22,2.692,2.692,0,0,0,.255.167,1.923,1.923,0,0,0,.36.145q.237.075.4.114l.461.119.47.123q.483.132.848.264a4.967,4.967,0,0,1,.778.369,2.792,2.792,0,0,1,.681.532,2.372,2.372,0,0,1,.444.747,2.759,2.759,0,0,1,.176,1.006,2.718,2.718,0,0,1-.3,1.31,2.276,2.276,0,0,1-.831.883,4.043,4.043,0,0,1-1.173.475A6.087,6.087,0,0,1,73.452,17.176Zm8.9-.176a2.729,2.729,0,0,1-2.039-.734,2.854,2.854,0,0,1-.721-2.087V9.907H77.82V7.965h.571a1.491,1.491,0,0,0,1.125-.378,1.946,1.946,0,0,0,.36-1.345v-1.2h2.285V7.965h1.863V9.907H82.162v4q0,1.169,1.046,1.169h.817V17Zm6.056-7.6A2.933,2.933,0,0,1,89.6,8.312a3.62,3.62,0,0,1,1.767-.453v2.259a3.423,3.423,0,0,0-2.162.545,2.379,2.379,0,0,0-.668,1.934V17H85.985V7.965h2.426Zm11.795,5.15a8.453,8.453,0,0,0,.22,2.206V17H98.062l-.2-.984a2.938,2.938,0,0,1-1.266.87,4.664,4.664,0,0,1-1.635.29,4.3,4.3,0,0,1-.844-.079,2.868,2.868,0,0,1-.76-.268,2.307,2.307,0,0,1-.628-.47,2.062,2.062,0,0,1-.422-.716,2.853,2.853,0,0,1-.158-.98,2.718,2.718,0,0,1,.167-.98,2.3,2.3,0,0,1,.439-.734,2.666,2.666,0,0,1,.712-.536,5.447,5.447,0,0,1,.9-.387,10.712,10.712,0,0,1,1.072-.281l1.485-.334a1.638,1.638,0,0,0,.672-.286.57.57,0,0,0,.2-.453.932.932,0,0,0-.444-.87,2.073,2.073,0,0,0-1.077-.264,1.549,1.549,0,0,0-1.767,1.38l-2.241-.4a3.034,3.034,0,0,1,1.31-2.061,5.2,5.2,0,0,1,2.839-.664q3.8,0,3.8,3.261Zm-4.456.914a2.036,2.036,0,0,0,1.564-.655,2.759,2.759,0,0,0,.606-1.938l-2.145.606a2.534,2.534,0,0,0-.9.369.758.758,0,0,0-.312.65.842.842,0,0,0,.334.716A1.382,1.382,0,0,0,95.75,15.462ZM105.91,17a2.729,2.729,0,0,1-2.039-.734,2.854,2.854,0,0,1-.721-2.087V9.907h-1.775V7.965h.571a1.491,1.491,0,0,0,1.125-.378,1.946,1.946,0,0,0,.36-1.345v-1.2h2.285V7.965h1.863V9.907h-1.863v4q0,1.169,1.046,1.169h.817V17ZM118,12.351l-.026.606h-6.7A2.339,2.339,0,0,0,112,14.609a2.3,2.3,0,0,0,1.591.571,2.221,2.221,0,0,0,1.191-.312,1.918,1.918,0,0,0,.76-.91l2.32.343a3.945,3.945,0,0,1-1.582,2.118,4.7,4.7,0,0,1-2.672.756,4.891,4.891,0,0,1-3.52-1.244,4.538,4.538,0,0,1-1.305-3.45,4.565,4.565,0,0,1,1.31-3.45,4.746,4.746,0,0,1,3.437-1.261,4.536,4.536,0,0,1,3.243,1.151A4.517,4.517,0,0,1,118,12.351Zm-4.456-2.786a2,2,0,0,0-2.2,1.74H115.5a1.9,1.9,0,0,0-.624-1.292A1.978,1.978,0,0,0,113.548,9.564Zm12.6-1.6h2.408v8.358a6.759,6.759,0,0,1-.338,2.25,3.711,3.711,0,0,1-.98,1.542,4.085,4.085,0,0,1-1.5.866,6.336,6.336,0,0,1-1.969.281q-3.577,0-4.658-2.8l2.1-.9a3.065,3.065,0,0,0,.976,1.31,2.487,2.487,0,0,0,1.485.422q2.347,0,2.347-2.786V15.453a2.846,2.846,0,0,1-1.138.892,3.784,3.784,0,0,1-1.6.338,4.046,4.046,0,0,1-2.9-1.217,4.174,4.174,0,0,1-.892-1.419,5.247,5.247,0,0,1,0-3.661,4.006,4.006,0,0,1,.9-1.4,4.125,4.125,0,0,1,1.318-.879,4.069,4.069,0,0,1,1.6-.316,3.674,3.674,0,0,1,1.674.374,2.67,2.67,0,0,1,1.121,1Zm-3.88,5.977a2.319,2.319,0,0,0,3.318-.009,2.526,2.526,0,0,0,0-3.437,2.34,2.34,0,0,0-3.331-.013,2.4,2.4,0,0,0-.664,1.736A2.379,2.379,0,0,0,122.271,13.941Zm10.208-7.33a1.421,1.421,0,0,1-1.037-.426,1.4,1.4,0,0,1-.431-1.033,1.382,1.382,0,0,1,.435-1.024,1.425,1.425,0,0,1,1.033-.426,1.463,1.463,0,0,1,1.45,1.45,1.463,1.463,0,0,1-1.45,1.459ZM131.188,17V7.965h2.549V17Zm12.577-2.452a8.453,8.453,0,0,0,.22,2.206V17H141.62l-.2-.984a2.938,2.938,0,0,1-1.266.87,4.664,4.664,0,0,1-1.635.29,4.3,4.3,0,0,1-.844-.079,2.868,2.868,0,0,1-.76-.268,2.307,2.307,0,0,1-.628-.47,2.062,2.062,0,0,1-.422-.716,2.853,2.853,0,0,1-.158-.98,2.718,2.718,0,0,1,.167-.98,2.3,2.3,0,0,1,.439-.734,2.666,2.666,0,0,1,.712-.536,5.447,5.447,0,0,1,.9-.387,10.712,10.712,0,0,1,1.072-.281l1.485-.334a1.638,1.638,0,0,0,.672-.286.57.57,0,0,0,.2-.453.932.932,0,0,0-.444-.87,2.073,2.073,0,0,0-1.077-.264,1.549,1.549,0,0,0-1.767,1.38l-2.241-.4a3.034,3.034,0,0,1,1.31-2.061,5.2,5.2,0,0,1,2.839-.664q3.8,0,3.8,3.261Zm-4.456.914a2.036,2.036,0,0,0,1.564-.655,2.759,2.759,0,0,0,.606-1.938l-2.145.606a2.534,2.534,0,0,0-.9.369.758.758,0,0,0-.312.65.842.842,0,0,0,.334.716A1.382,1.382,0,0,0,139.309,15.462Zm18-11.962h2.531V17h-2.4l-.062-1.178a2.58,2.58,0,0,1-1.147,1.024,3.861,3.861,0,0,1-1.692.365,4.394,4.394,0,0,1-1.687-.325,4.064,4.064,0,0,1-2.32-2.408,5.5,5.5,0,0,1-.343-1.978,5.137,5.137,0,0,1,.6-2.518,4.1,4.1,0,0,1,1.578-1.639,4.345,4.345,0,0,1,2.175-.554,3.957,3.957,0,0,1,1.639.33,2.559,2.559,0,0,1,1.129.936ZM155.12,15.11a2.253,2.253,0,0,0,1.709-.721,2.638,2.638,0,0,0,.681-1.89,2.644,2.644,0,0,0-.686-1.894,2.251,2.251,0,0,0-1.705-.725,2.277,2.277,0,0,0-1.718.712,2.644,2.644,0,0,0-.681,1.907,2.631,2.631,0,0,0,.681,1.9A2.277,2.277,0,0,0,155.12,15.11Zm15.838-2.76-.026.606h-6.7a2.339,2.339,0,0,0,.721,1.652,2.3,2.3,0,0,0,1.591.571,2.221,2.221,0,0,0,1.191-.312,1.918,1.918,0,0,0,.76-.91l2.32.343a3.945,3.945,0,0,1-1.582,2.118,4.7,4.7,0,0,1-2.672.756,4.891,4.891,0,0,1-3.52-1.244,4.538,4.538,0,0,1-1.305-3.45,4.565,4.565,0,0,1,1.31-3.45,4.746,4.746,0,0,1,3.437-1.261,4.536,4.536,0,0,1,3.243,1.151A4.517,4.517,0,0,1,170.958,12.351ZM166.5,9.564a2,2,0,0,0-2.2,1.74h4.148a1.9,1.9,0,0,0-.624-1.292A1.978,1.978,0,0,0,166.5,9.564Zm15.144,7.6a4.827,4.827,0,0,1-3.489-1.3,4.493,4.493,0,0,1-1.354-3.393,4.483,4.483,0,0,1,1.349-3.393,5.364,5.364,0,0,1,6.42-.422,3.885,3.885,0,0,1,1.512,2.452l-2.338.255a2,2,0,0,0-.756-1.187,2.3,2.3,0,0,0-1.371-.4,2.072,2.072,0,0,0-1.652.738,2.894,2.894,0,0,0-.633,1.951,2.9,2.9,0,0,0,.633,1.947,2.067,2.067,0,0,0,1.652.743,2.278,2.278,0,0,0,1.367-.4,2.05,2.05,0,0,0,.76-1.187l2.338.255a3.9,3.9,0,0,1-1.525,2.452A4.8,4.8,0,0,1,181.646,17.167Zm10.45.009a5.681,5.681,0,0,1-2.558-.554A4.138,4.138,0,0,1,187.785,15a4.846,4.846,0,0,1-.637-2.522,4.42,4.42,0,0,1,1.371-3.428,5.731,5.731,0,0,1,7.163,0,4.42,4.42,0,0,1,1.371,3.428,4.444,4.444,0,0,1-1.371,3.441A5.088,5.088,0,0,1,192.1,17.176Zm-.026-2.013a2.319,2.319,0,0,0,1.789-.738,2.764,2.764,0,0,0,.681-1.951,2.764,2.764,0,0,0-.681-1.951,2.319,2.319,0,0,0-1.789-.738,2.234,2.234,0,0,0-1.736.743,2.789,2.789,0,0,0-.672,1.947,2.789,2.789,0,0,0,.672,1.947A2.234,2.234,0,0,0,192.069,15.163Zm17.569-7.374a3.452,3.452,0,0,1,2.329.734,2.626,2.626,0,0,1,.853,2.1V17h-2.531V11.349a1.509,1.509,0,0,0-.4-1.143,1.416,1.416,0,0,0-1.02-.387,1.633,1.633,0,0,0-1.23.492,2.235,2.235,0,0,0-.475,1.591V17H204.6V11.375a1.549,1.549,0,0,0-.4-1.165,1.441,1.441,0,0,0-1.046-.391,1.581,1.581,0,0,0-1.222.519,2.476,2.476,0,0,0-.475,1.7V17h-2.522V7.965h2.522V9.028a3.072,3.072,0,0,1,2.619-1.239,3.863,3.863,0,0,1,1.7.347,2.315,2.315,0,0,1,1.068,1.006A3.2,3.2,0,0,1,209.639,7.789Zm11.628.176H223.8V17h-2.4l-.062-1.09a3.45,3.45,0,0,1-2.874,1.266,3.522,3.522,0,0,1-2.5-.813,3.014,3.014,0,0,1-.87-2.316V7.965h2.54V13.5a1.562,1.562,0,0,0,.453,1.239,1.718,1.718,0,0,0,1.173.4,2.038,2.038,0,0,0,1.437-.514,2.209,2.209,0,0,0,.567-1.674Zm10.485-.176a3.522,3.522,0,0,1,2.5.813,3.014,3.014,0,0,1,.87,2.316V17h-2.54V11.463a1.574,1.574,0,0,0-.453-1.248,1.705,1.705,0,0,0-1.165-.4,2.379,2.379,0,0,0-.756.114,1.942,1.942,0,0,0-.633.356,1.573,1.573,0,0,0-.453.681,3.15,3.15,0,0,0-.171,1.046V17h-2.531V7.965h2.531v1A3.481,3.481,0,0,1,231.752,7.789Zm7.11-1.178a1.421,1.421,0,0,1-1.037-.426,1.4,1.4,0,0,1-.431-1.033,1.382,1.382,0,0,1,.435-1.024,1.425,1.425,0,0,1,1.033-.426,1.463,1.463,0,0,1,1.45,1.45,1.463,1.463,0,0,1-1.45,1.459ZM237.57,17V7.965h2.549V17Zm9.255.167a4.827,4.827,0,0,1-3.489-1.3,4.493,4.493,0,0,1-1.354-3.393,4.483,4.483,0,0,1,1.349-3.393,5.364,5.364,0,0,1,6.42-.422,3.885,3.885,0,0,1,1.512,2.452l-2.338.255a2,2,0,0,0-.756-1.187,2.3,2.3,0,0,0-1.371-.4,2.072,2.072,0,0,0-1.652.738,2.894,2.894,0,0,0-.633,1.951,2.9,2.9,0,0,0,.633,1.947,2.067,2.067,0,0,0,1.652.743,2.278,2.278,0,0,0,1.367-.4,2.05,2.05,0,0,0,.76-1.187l2.338.255a3.9,3.9,0,0,1-1.525,2.452A4.8,4.8,0,0,1,246.825,17.167Zm13.649-2.619a8.453,8.453,0,0,0,.22,2.206V17H258.33l-.2-.984a2.938,2.938,0,0,1-1.266.87,4.664,4.664,0,0,1-1.635.29,4.3,4.3,0,0,1-.844-.079,2.868,2.868,0,0,1-.76-.268,2.307,2.307,0,0,1-.628-.47,2.062,2.062,0,0,1-.422-.716,2.853,2.853,0,0,1-.158-.98,2.718,2.718,0,0,1,.167-.98,2.3,2.3,0,0,1,.439-.734,2.666,2.666,0,0,1,.712-.536,5.447,5.447,0,0,1,.9-.387,10.712,10.712,0,0,1,1.072-.281l1.485-.334a1.638,1.638,0,0,0,.672-.286.57.57,0,0,0,.2-.453.932.932,0,0,0-.444-.87,2.073,2.073,0,0,0-1.077-.264,1.549,1.549,0,0,0-1.767,1.38l-2.241-.4a3.034,3.034,0,0,1,1.31-2.061,5.2,5.2,0,0,1,2.839-.664q3.8,0,3.8,3.261Zm-4.456.914a2.036,2.036,0,0,0,1.564-.655,2.759,2.759,0,0,0,.606-1.938l-2.145.606a2.534,2.534,0,0,0-.9.369.758.758,0,0,0-.312.65.842.842,0,0,0,.334.716A1.382,1.382,0,0,0,256.019,15.462Zm10.8,1.705a4.827,4.827,0,0,1-3.489-1.3,4.493,4.493,0,0,1-1.354-3.393,4.483,4.483,0,0,1,1.349-3.393,5.364,5.364,0,0,1,6.42-.422,3.885,3.885,0,0,1,1.512,2.452l-2.338.255a2,2,0,0,0-.756-1.187,2.3,2.3,0,0,0-1.371-.4,2.072,2.072,0,0,0-1.652.738,2.894,2.894,0,0,0-.633,1.951,2.9,2.9,0,0,0,.633,1.947,2.067,2.067,0,0,0,1.652.743,2.278,2.278,0,0,0,1.367-.4,2.05,2.05,0,0,0,.76-1.187l2.338.255a3.9,3.9,0,0,1-1.525,2.452A4.8,4.8,0,0,1,266.82,17.167Zm7.532-10.556a1.421,1.421,0,0,1-1.037-.426,1.4,1.4,0,0,1-.431-1.033,1.382,1.382,0,0,1,.435-1.024,1.425,1.425,0,0,1,1.033-.426,1.463,1.463,0,0,1,1.45,1.45,1.463,1.463,0,0,1-1.45,1.459ZM273.061,17V7.965h2.549V17Zm8.6-10.266,2.3-3.234,1.248.879-2,2.355Zm.782,10.441a5.681,5.681,0,0,1-2.558-.554A4.138,4.138,0,0,1,278.127,15a4.846,4.846,0,0,1-.637-2.522,4.42,4.42,0,0,1,1.371-3.428,5.731,5.731,0,0,1,7.163,0,4.42,4.42,0,0,1,1.371,3.428,4.444,4.444,0,0,1-1.371,3.441A5.088,5.088,0,0,1,282.438,17.176Zm-.026-2.013a2.319,2.319,0,0,0,1.789-.738,2.764,2.764,0,0,0,.681-1.951,2.764,2.764,0,0,0-.681-1.951,2.319,2.319,0,0,0-1.789-.738,2.234,2.234,0,0,0-1.736.743A2.789,2.789,0,0,0,280,12.474a2.789,2.789,0,0,0,.672,1.947A2.234,2.234,0,0,0,282.412,15.163Zm12.2-7.374a3.522,3.522,0,0,1,2.5.813,3.014,3.014,0,0,1,.87,2.316V17h-2.54V11.463a1.574,1.574,0,0,0-.453-1.248,1.705,1.705,0,0,0-1.165-.4,2.379,2.379,0,0,0-.756.114,1.942,1.942,0,0,0-.633.356,1.573,1.573,0,0,0-.453.681,3.15,3.15,0,0,0-.171,1.046V17h-2.531V7.965h2.531v1A3.481,3.481,0,0,1,294.611,7.789Z" transform="translate(-329 -2343)" fill="#00223d"/>
    <path id="Trazado_17232" data-name="Trazado 17232" d="M0,0V325" transform="translate(-355.5 -2654.5)" fill="none" stroke="#ff8f00" stroke-width="3"/>
    <path id="Trazado_17233" data-name="Trazado 17233" d="M0,0H25" transform="translate(-355.5 -2579.5)" fill="none" stroke="#ff8f00" stroke-width="3"/>
    <path id="Trazado_17234" data-name="Trazado 17234" d="M0,0H25" transform="translate(-355.5 -2496.5)" fill="none" stroke="#ff8f00" stroke-width="3"/>
    <path id="Trazado_17235" data-name="Trazado 17235" d="M0,0H25" transform="translate(-355.5 -2413.5)" fill="none" stroke="#ff8f00" stroke-width="3"/>
    <path id="Trazado_17236" data-name="Trazado 17236" d="M0,0H25" transform="translate(-355.5 -2330.5)" fill="none" stroke="#ff8f00" stroke-width="3"/>
  </g>
</svg>
