<svg xmlns="http://www.w3.org/2000/svg" width="108.795" height="103.234" viewBox="0 0 108.795 103.234">
  <g id="Grupo_18069" data-name="Grupo 18069" transform="translate(-2553 2752.616)">
    <path id="Trazado_12403" data-name="Trazado 12403" d="M-1875.37,363.37h71.6l37.192,50.053-37.192,53.181h-71.6Z" transform="translate(4428.37 -3115.987)" fill="#f0c068"/>
    <path id="Trazado_14730" data-name="Trazado 14730" d="M11.973,39.391a8.8,8.8,0,0,1-7.588-3.652Q1.738,32.086,1.738,24.879q0-7.227,2.637-10.859a8.813,8.813,0,0,1,7.6-3.633,8.793,8.793,0,0,1,7.578,3.633q2.637,3.633,2.637,10.859,0,7.207-2.646,10.859A8.783,8.783,0,0,1,11.973,39.391Zm0-5.078A3.711,3.711,0,0,0,15.361,32q1.2-2.314,1.2-7.119T15.352,17.76a3.718,3.718,0,0,0-3.379-2.314q-4.609,0-4.609,9.434T11.973,34.313ZM35.059,10.777H40.41V39H34.8V16.559L28.32,22.594V16.813Z" transform="translate(2573.582 -2726)" fill="#fff"/>
  </g>
</svg>
