<svg xmlns="http://www.w3.org/2000/svg" width="950" height="301" viewBox="0 0 950 301">
  <g id="Grupo_18069" data-name="Grupo 18069" transform="translate(400 2303)">
    <path id="Trazado_17240" data-name="Trazado 17240" d="M0,0H265V66H0Z" transform="translate(-74 -2303)" fill="#d64626"/>
    <path id="Trazado_17241" data-name="Trazado 17241" d="M74.38,17l-.923-2.619H68.122L67.2,17H64.5L69.177,4.3H72.4L77.078,17ZM68.9,12.175h3.788l-1.89-5.388ZM83.986,7.789a3.522,3.522,0,0,1,2.5.813,3.014,3.014,0,0,1,.87,2.316V17h-2.54V11.463a1.574,1.574,0,0,0-.453-1.248,1.705,1.705,0,0,0-1.165-.4,2.379,2.379,0,0,0-.756.114,1.942,1.942,0,0,0-.633.356,1.573,1.573,0,0,0-.453.681,3.15,3.15,0,0,0-.171,1.046V17H78.651V7.965h2.531v1A3.481,3.481,0,0,1,83.986,7.789ZM96.229,4.37l-2,2.355H92.679l2.3-3.234Zm.984,10.178a8.453,8.453,0,0,0,.22,2.206V17H95.069l-.2-.984a2.938,2.938,0,0,1-1.266.87,4.664,4.664,0,0,1-1.635.29,4.3,4.3,0,0,1-.844-.079,2.868,2.868,0,0,1-.76-.268,2.307,2.307,0,0,1-.628-.47,2.062,2.062,0,0,1-.422-.716,2.853,2.853,0,0,1-.158-.98,2.718,2.718,0,0,1,.167-.98,2.3,2.3,0,0,1,.439-.734,2.666,2.666,0,0,1,.712-.536,5.447,5.447,0,0,1,.9-.387,10.712,10.712,0,0,1,1.072-.281l1.485-.334a1.638,1.638,0,0,0,.672-.286.57.57,0,0,0,.2-.453.932.932,0,0,0-.444-.87,2.073,2.073,0,0,0-1.077-.264,1.549,1.549,0,0,0-1.767,1.38l-2.241-.4a3.034,3.034,0,0,1,1.31-2.061,5.2,5.2,0,0,1,2.839-.664q3.8,0,3.8,3.261Zm-4.456.914a2.036,2.036,0,0,0,1.564-.655,2.759,2.759,0,0,0,.606-1.938l-2.145.606a2.534,2.534,0,0,0-.9.369.758.758,0,0,0-.312.65.842.842,0,0,0,.334.716A1.382,1.382,0,0,0,92.758,15.462ZM99.675,17V3.5h2.558V17Zm6.469-10.389a1.421,1.421,0,0,1-1.037-.426,1.4,1.4,0,0,1-.431-1.033,1.382,1.382,0,0,1,.435-1.024,1.425,1.425,0,0,1,1.033-.426,1.463,1.463,0,0,1,1.45,1.45,1.463,1.463,0,0,1-1.45,1.459ZM104.852,17V7.965H107.4V17Zm8.35.176a5.049,5.049,0,0,1-2.637-.633,2.675,2.675,0,0,1-1.292-1.881l2.118-.6a1.7,1.7,0,0,0,1.811,1.345,1.87,1.87,0,0,0,.923-.207.719.719,0,0,0,.36-.7.739.739,0,0,0-.149-.466,1.183,1.183,0,0,0-.461-.334,5.749,5.749,0,0,0-.615-.237q-.3-.1-.8-.233t-.835-.259a5.593,5.593,0,0,1-.8-.338,3.393,3.393,0,0,1-.659-.466,1.878,1.878,0,0,1-.492-.708,2.552,2.552,0,0,1-.171-.967,2.308,2.308,0,0,1,.98-2.021,4.379,4.379,0,0,1,2.562-.686,4.489,4.489,0,0,1,2.364.58,2.625,2.625,0,0,1,1.213,1.811l-1.96.439a1.535,1.535,0,0,0-1.608-1.143,1.761,1.761,0,0,0-.888.2.649.649,0,0,0-.352.6.685.685,0,0,0,.053.272.539.539,0,0,0,.185.22,2.692,2.692,0,0,0,.255.167,1.923,1.923,0,0,0,.36.145q.237.075.4.114l.461.119.47.123q.483.132.848.264a4.967,4.967,0,0,1,.778.369,2.792,2.792,0,0,1,.681.532,2.372,2.372,0,0,1,.444.747,2.759,2.759,0,0,1,.176,1.006,2.718,2.718,0,0,1-.3,1.31,2.276,2.276,0,0,1-.831.883,4.043,4.043,0,0,1-1.173.475A6.087,6.087,0,0,1,113.2,17.176ZM120.03,6.611a1.421,1.421,0,0,1-1.037-.426,1.4,1.4,0,0,1-.431-1.033A1.382,1.382,0,0,1,119,4.128,1.425,1.425,0,0,1,120.03,3.7a1.463,1.463,0,0,1,1.45,1.45,1.463,1.463,0,0,1-1.45,1.459ZM118.738,17V7.965h2.549V17Zm8.35.176a5.049,5.049,0,0,1-2.637-.633,2.675,2.675,0,0,1-1.292-1.881l2.118-.6a1.7,1.7,0,0,0,1.811,1.345,1.87,1.87,0,0,0,.923-.207.719.719,0,0,0,.36-.7.739.739,0,0,0-.149-.466,1.183,1.183,0,0,0-.461-.334,5.749,5.749,0,0,0-.615-.237q-.3-.1-.8-.233t-.835-.259a5.593,5.593,0,0,1-.8-.338,3.393,3.393,0,0,1-.659-.466,1.878,1.878,0,0,1-.492-.708,2.552,2.552,0,0,1-.171-.967,2.308,2.308,0,0,1,.98-2.021,4.379,4.379,0,0,1,2.562-.686,4.489,4.489,0,0,1,2.364.58,2.625,2.625,0,0,1,1.213,1.811l-1.96.439a1.535,1.535,0,0,0-1.608-1.143,1.761,1.761,0,0,0-.888.2.649.649,0,0,0-.352.6.685.685,0,0,0,.053.272.539.539,0,0,0,.185.22,2.692,2.692,0,0,0,.255.167,1.923,1.923,0,0,0,.36.145q.237.075.4.114l.461.119.47.123q.483.132.848.264a4.967,4.967,0,0,1,.778.369,2.792,2.792,0,0,1,.681.532,2.372,2.372,0,0,1,.444.747,2.759,2.759,0,0,1,.176,1.006,2.718,2.718,0,0,1-.3,1.31,2.276,2.276,0,0,1-.831.883,4.043,4.043,0,0,1-1.173.475A6.087,6.087,0,0,1,127.088,17.176Zm11.5-10.564a1.421,1.421,0,0,1-1.037-.426,1.4,1.4,0,0,1-.431-1.033,1.382,1.382,0,0,1,.435-1.024,1.425,1.425,0,0,1,1.033-.426,1.463,1.463,0,0,1,1.45,1.45,1.463,1.463,0,0,1-1.45,1.459ZM137.3,17V7.965h2.549V17Zm10.5-9.211a3.522,3.522,0,0,1,2.5.813,3.014,3.014,0,0,1,.87,2.316V17h-2.54V11.463a1.574,1.574,0,0,0-.453-1.248,1.705,1.705,0,0,0-1.165-.4,2.379,2.379,0,0,0-.756.114,1.942,1.942,0,0,0-.633.356,1.573,1.573,0,0,0-.453.681A3.15,3.15,0,0,0,145,12.017V17h-2.531V7.965H145v1A3.481,3.481,0,0,1,147.8,7.789ZM156.988,17a2.729,2.729,0,0,1-2.039-.734,2.854,2.854,0,0,1-.721-2.087V9.907h-1.775V7.965h.571a1.491,1.491,0,0,0,1.125-.378,1.946,1.946,0,0,0,.36-1.345v-1.2h2.285V7.965h1.863V9.907h-1.863v4q0,1.169,1.046,1.169h.817V17Zm12.094-4.649-.026.606h-6.7a2.339,2.339,0,0,0,.721,1.652,2.3,2.3,0,0,0,1.591.571,2.221,2.221,0,0,0,1.191-.312,1.918,1.918,0,0,0,.76-.91l2.32.343a3.945,3.945,0,0,1-1.582,2.118,4.7,4.7,0,0,1-2.672.756,4.891,4.891,0,0,1-3.52-1.244,4.538,4.538,0,0,1-1.305-3.45,4.565,4.565,0,0,1,1.31-3.45,4.746,4.746,0,0,1,3.437-1.261,4.536,4.536,0,0,1,3.243,1.151A4.517,4.517,0,0,1,169.082,12.351Zm-4.456-2.786a2,2,0,0,0-2.2,1.74h4.148a1.9,1.9,0,0,0-.624-1.292A1.978,1.978,0,0,0,164.626,9.564Zm8.807-.167a2.933,2.933,0,0,1,1.187-1.085,3.62,3.62,0,0,1,1.767-.453v2.259a3.423,3.423,0,0,0-2.162.545,2.379,2.379,0,0,0-.668,1.934V17h-2.549V7.965h2.426Zm9.773-1.608a3.522,3.522,0,0,1,2.5.813,3.014,3.014,0,0,1,.87,2.316V17h-2.54V11.463a1.574,1.574,0,0,0-.453-1.248,1.705,1.705,0,0,0-1.165-.4,2.379,2.379,0,0,0-.756.114,1.942,1.942,0,0,0-.633.356,1.573,1.573,0,0,0-.453.681,3.15,3.15,0,0,0-.171,1.046V17h-2.531V7.965H180.4v1A3.481,3.481,0,0,1,183.206,7.789Zm10.028,9.387a5.681,5.681,0,0,1-2.558-.554A4.138,4.138,0,0,1,188.923,15a4.846,4.846,0,0,1-.637-2.522,4.42,4.42,0,0,1,1.371-3.428,5.731,5.731,0,0,1,7.163,0,4.42,4.42,0,0,1,1.371,3.428,4.444,4.444,0,0,1-1.371,3.441A5.088,5.088,0,0,1,193.234,17.176Zm-.026-2.013A2.319,2.319,0,0,0,195,14.425a2.764,2.764,0,0,0,.681-1.951A2.764,2.764,0,0,0,195,10.522a2.319,2.319,0,0,0-1.789-.738,2.234,2.234,0,0,0-1.736.743,2.789,2.789,0,0,0-.672,1.947,2.789,2.789,0,0,0,.672,1.947A2.234,2.234,0,0,0,193.208,15.163Z" transform="translate(-72 -2282)" fill="#fff"/>
    <path id="Trazado_17242" data-name="Trazado 17242" d="M15.029,17H13.5L12.674,6.787,8.719,17h-.94L3.85,6.822,3.015,17H1.477l.94-12.375H4.491l3.753,9.65,3.762-9.65H14.1Zm4.9.167a2.94,2.94,0,0,1-1.894-.593,2.13,2.13,0,0,1-.743-1.771,2.517,2.517,0,0,1,.237-1.129,1.991,1.991,0,0,1,.7-.787,4.218,4.218,0,0,1,1.015-.488,9.384,9.384,0,0,1,1.314-.312l1.4-.229q.765-.141.765-.8a1.51,1.51,0,0,0-.541-1.288,2.2,2.2,0,0,0-1.367-.409,2.243,2.243,0,0,0-1.354.4,1.655,1.655,0,0,0-.642,1.213l-1.371-.29a2.639,2.639,0,0,1,1.081-1.85,4.039,4.039,0,0,1,2.355-.62,4.777,4.777,0,0,1,1.252.154,3.4,3.4,0,0,1,1.046.483,2.168,2.168,0,0,1,.747.932A3.466,3.466,0,0,1,24.2,11.2v3.568a1.46,1.46,0,0,0,.2.9.854.854,0,0,0,.681.233h.141V17H24.46a1.442,1.442,0,0,1-1.635-1.169h-.07A3.3,3.3,0,0,1,19.925,17.167Zm.352-1.23a2.305,2.305,0,0,0,1.854-.835,3.438,3.438,0,0,0,.7-2.285l-2.285.439a3.076,3.076,0,0,0-1.34.479,1.114,1.114,0,0,0-.435.945,1.1,1.1,0,0,0,.417.949A1.785,1.785,0,0,0,20.276,15.937Zm10.494,1.222a4.161,4.161,0,0,1-3.094-1.239,4.421,4.421,0,0,1-1.222-3.243,4.43,4.43,0,0,1,1.217-3.243,4.5,4.5,0,0,1,5.6-.483,3.815,3.815,0,0,1,1.455,2.1l-1.424.229a2.63,2.63,0,0,0-.976-1.345,2.656,2.656,0,0,0-1.564-.475,2.554,2.554,0,0,0-2,.888,3.382,3.382,0,0,0-.787,2.329A3.365,3.365,0,0,0,28.762,15a2.56,2.56,0,0,0,2,.883,2.656,2.656,0,0,0,1.564-.475,2.63,2.63,0,0,0,.976-1.345l1.424.237a3.819,3.819,0,0,1-1.463,2.1A4.185,4.185,0,0,1,30.771,17.158Zm7.682-7.277a2.612,2.612,0,0,1,1.072-1.16,3.229,3.229,0,0,1,1.661-.457V9.7a2.846,2.846,0,0,0-2.008.642,2.68,2.68,0,0,0-.69,2.048V17H36.967V8.36h1.485ZM46.5,17.167a4.554,4.554,0,0,1-2.215-.536,3.9,3.9,0,0,1-1.56-1.569,4.819,4.819,0,0,1-.576-2.386,4.4,4.4,0,0,1,1.226-3.256,4.6,4.6,0,0,1,6.253,0,4.41,4.41,0,0,1,1.222,3.256,4.413,4.413,0,0,1-1.226,3.265A4.232,4.232,0,0,1,46.5,17.167ZM46.494,15.9a2.654,2.654,0,0,0,2.043-.888,3.326,3.326,0,0,0,.813-2.338,3.314,3.314,0,0,0-.813-2.329,2.654,2.654,0,0,0-2.043-.888,2.617,2.617,0,0,0-2.026.888,3.336,3.336,0,0,0-.8,2.329,3.348,3.348,0,0,0,.8,2.338A2.617,2.617,0,0,0,46.494,15.9Zm14.3-3.393-.018.413h-6.75a3.053,3.053,0,0,0,.826,2.21,2.713,2.713,0,0,0,1.969.769,2.59,2.59,0,0,0,1.433-.413,2.68,2.68,0,0,0,.984-1.143l1.371.29a3.9,3.9,0,0,1-1.477,1.854,4.028,4.028,0,0,1-2.294.677,4.174,4.174,0,0,1-3.111-1.2,4.479,4.479,0,0,1-1.187-3.287A4.458,4.458,0,0,1,53.732,9.4a4.122,4.122,0,0,1,3.063-1.2A3.9,3.9,0,0,1,59.7,9.3,4.376,4.376,0,0,1,60.794,12.509Zm-4-3.146a2.694,2.694,0,0,0-1.8.611,2.8,2.8,0,0,0-.91,1.78h5.177a2.567,2.567,0,0,0-.756-1.78A2.441,2.441,0,0,0,56.795,9.362ZM67.254,8.193a3.005,3.005,0,0,1,2.175.782,2.918,2.918,0,0,1,.813,2.206V17H68.722V11.524a2.043,2.043,0,0,0-.527-1.547,1.885,1.885,0,0,0-1.354-.5,2.09,2.09,0,0,0-1.538.593,2.407,2.407,0,0,0-.606,1.762V17H63.176V8.36H64.7V9.468A2.885,2.885,0,0,1,67.254,8.193ZM75.938,17a2.271,2.271,0,0,1-1.687-.62,2.344,2.344,0,0,1-.615-1.727V9.573H71.868V8.36h.65a1.249,1.249,0,0,0,.954-.3,1.492,1.492,0,0,0,.277-1.015V5.478h1.415V8.36H77.15V9.573H75.164V14.5a1.31,1.31,0,0,0,.33.954,1.154,1.154,0,0,0,.866.338h.791V17Zm6.943.167a4.554,4.554,0,0,1-2.215-.536,3.9,3.9,0,0,1-1.56-1.569,4.819,4.819,0,0,1-.576-2.386,4.4,4.4,0,0,1,1.226-3.256,4.6,4.6,0,0,1,6.253,0,4.41,4.41,0,0,1,1.222,3.256,4.413,4.413,0,0,1-1.226,3.265A4.232,4.232,0,0,1,82.881,17.167ZM82.872,15.9a2.654,2.654,0,0,0,2.043-.888,3.326,3.326,0,0,0,.813-2.338,3.314,3.314,0,0,0-.813-2.329,2.654,2.654,0,0,0-2.043-.888,2.617,2.617,0,0,0-2.026.888,3.336,3.336,0,0,0-.8,2.329,3.348,3.348,0,0,0,.8,2.338A2.617,2.617,0,0,0,82.872,15.9ZM91.1,9.881a2.612,2.612,0,0,1,1.072-1.16,3.229,3.229,0,0,1,1.661-.457V9.7a2.846,2.846,0,0,0-2.008.642,2.68,2.68,0,0,0-.69,2.048V17H89.613V8.36H91.1Zm8.6-1.687a3.005,3.005,0,0,1,2.175.782,2.918,2.918,0,0,1,.813,2.206V17h-1.521V11.524a2.043,2.043,0,0,0-.527-1.547,1.885,1.885,0,0,0-1.354-.5,2.09,2.09,0,0,0-1.538.593,2.407,2.407,0,0,0-.606,1.762V17H95.616V8.36h1.521V9.468A2.885,2.885,0,0,1,99.694,8.193Zm9.563,8.974a4.554,4.554,0,0,1-2.215-.536,3.9,3.9,0,0,1-1.56-1.569,4.819,4.819,0,0,1-.576-2.386,4.4,4.4,0,0,1,1.226-3.256,4.6,4.6,0,0,1,6.253,0,4.41,4.41,0,0,1,1.222,3.256,4.413,4.413,0,0,1-1.226,3.265A4.232,4.232,0,0,1,109.257,17.167Zm-.009-1.266a2.654,2.654,0,0,0,2.043-.888,3.326,3.326,0,0,0,.813-2.338,3.314,3.314,0,0,0-.813-2.329,2.654,2.654,0,0,0-2.043-.888,2.617,2.617,0,0,0-2.026.888,3.336,3.336,0,0,0-.8,2.329,3.348,3.348,0,0,0,.8,2.338A2.617,2.617,0,0,0,109.248,15.9Z" transform="translate(-400 -2171)" fill="#00223d"/>
    <path id="Trazado_17243" data-name="Trazado 17243" d="M8.631,6.058H3.551V10.1H7.98v1.424H3.551V17H1.942V4.625H8.631Zm7.638,2.3h1.521V17H16.33l-.035-1.143a2.7,2.7,0,0,1-1.072.971,3.3,3.3,0,0,1-1.512.338,3.005,3.005,0,0,1-2.175-.782,2.918,2.918,0,0,1-.813-2.206V8.36h1.521v5.476a2.05,2.05,0,0,0,.532,1.547,1.882,1.882,0,0,0,1.358.51,2.067,2.067,0,0,0,1.534-.6,2.434,2.434,0,0,0,.6-1.767Zm12.173,4.148-.018.413h-6.75a3.053,3.053,0,0,0,.826,2.21,2.713,2.713,0,0,0,1.969.769,2.59,2.59,0,0,0,1.433-.413,2.68,2.68,0,0,0,.984-1.143l1.371.29A3.9,3.9,0,0,1,26.78,16.49a4.028,4.028,0,0,1-2.294.677,4.174,4.174,0,0,1-3.111-1.2,4.479,4.479,0,0,1-1.187-3.287A4.458,4.458,0,0,1,21.379,9.4a4.122,4.122,0,0,1,3.063-1.2,3.9,3.9,0,0,1,2.9,1.107A4.376,4.376,0,0,1,28.441,12.509Zm-4-3.146a2.694,2.694,0,0,0-1.8.611,2.8,2.8,0,0,0-.91,1.78h5.177a2.567,2.567,0,0,0-.756-1.78A2.441,2.441,0,0,0,24.442,9.362Zm7.866.519a2.612,2.612,0,0,1,1.072-1.16,3.229,3.229,0,0,1,1.661-.457V9.7a2.846,2.846,0,0,0-2.008.642,2.68,2.68,0,0,0-.69,2.048V17H30.823V8.36h1.485Zm6.214,5.889h4.605V17H36.237L40.79,9.6H36.5V8.36h6.618Zm8.4,1.4a2.94,2.94,0,0,1-1.894-.593,2.13,2.13,0,0,1-.743-1.771,2.517,2.517,0,0,1,.237-1.129,1.991,1.991,0,0,1,.7-.787,4.218,4.218,0,0,1,1.015-.488,9.384,9.384,0,0,1,1.314-.312l1.4-.229q.765-.141.765-.8a1.51,1.51,0,0,0-.541-1.288,2.2,2.2,0,0,0-1.367-.409,2.243,2.243,0,0,0-1.354.4,1.655,1.655,0,0,0-.642,1.213l-1.371-.29a2.639,2.639,0,0,1,1.081-1.85,4.039,4.039,0,0,1,2.355-.62,4.777,4.777,0,0,1,1.252.154,3.4,3.4,0,0,1,1.046.483,2.168,2.168,0,0,1,.747.932A3.466,3.466,0,0,1,51.2,11.2v3.568a1.46,1.46,0,0,0,.2.9.854.854,0,0,0,.681.233h.141V17H51.46a1.442,1.442,0,0,1-1.635-1.169h-.07A3.3,3.3,0,0,1,46.925,17.167Zm.352-1.23a2.305,2.305,0,0,0,1.854-.835,3.438,3.438,0,0,0,.7-2.285l-2.285.439a3.076,3.076,0,0,0-1.34.479,1.114,1.114,0,0,0-.435.945,1.1,1.1,0,0,0,.417.949A1.785,1.785,0,0,0,47.276,15.937Zm9.817,1.23a4.1,4.1,0,0,1-2.329-.624,2.581,2.581,0,0,1-1.134-1.775l1.327-.378a1.851,1.851,0,0,0,.708,1.2,2.3,2.3,0,0,0,1.419.426,2.832,2.832,0,0,0,.831-.114,1.331,1.331,0,0,0,.637-.426,1.189,1.189,0,0,0,.185-1.143,1.526,1.526,0,0,0-.141-.286.87.87,0,0,0-.246-.237,3.245,3.245,0,0,0-.3-.185,3.067,3.067,0,0,0-.391-.163q-.259-.092-.417-.141t-.483-.141q-.325-.092-.5-.145a9.372,9.372,0,0,1-.9-.316,3.932,3.932,0,0,1-.729-.417,1.679,1.679,0,0,1-.567-.681,2.3,2.3,0,0,1-.189-.967,2.234,2.234,0,0,1,.422-1.38,2.374,2.374,0,0,1,1.094-.813,4.374,4.374,0,0,1,1.534-.25,3.754,3.754,0,0,1,2.1.563,2.4,2.4,0,0,1,1.05,1.688l-1.248.316a1.655,1.655,0,0,0-.659-1.094,2.1,2.1,0,0,0-1.239-.365,2.139,2.139,0,0,0-1.16.3,1.019,1.019,0,0,0-.483.927.923.923,0,0,0,.127.479,1.521,1.521,0,0,0,.259.338,1.594,1.594,0,0,0,.475.259q.343.136.51.185t.633.163q.088.026.132.035.51.132.831.233a5.105,5.105,0,0,1,.747.316,2.484,2.484,0,0,1,.672.47,2.178,2.178,0,0,1,.422.668,2.358,2.358,0,0,1,.176.932,2.516,2.516,0,0,1-.259,1.165,2.028,2.028,0,0,1-.708.8,3.422,3.422,0,0,1-1.006.435A4.8,4.8,0,0,1,57.094,17.167ZM71.9,8.193a3.93,3.93,0,0,1,1.564.316,3.849,3.849,0,0,1,1.283.888,4.149,4.149,0,0,1,.866,1.424,5.25,5.25,0,0,1,.321,1.863,4.568,4.568,0,0,1-1.165,3.261,3.782,3.782,0,0,1-2.87,1.239,3.42,3.42,0,0,1-1.806-.492,3.226,3.226,0,0,1-1.235-1.327v5.985H67.342V8.36H68.81l.035,1.679a3.163,3.163,0,0,1,1.23-1.349A3.452,3.452,0,0,1,71.9,8.193Zm-.3,7.673a2.623,2.623,0,0,0,2-.875,3.253,3.253,0,0,0,.813-2.307,3.237,3.237,0,0,0-.813-2.3,2.726,2.726,0,0,0-4.03.04,3.24,3.24,0,0,0-.826,2.263,3.252,3.252,0,0,0,.826,2.272A2.636,2.636,0,0,0,71.6,15.866Zm10.371,1.3a4.554,4.554,0,0,1-2.215-.536,3.9,3.9,0,0,1-1.56-1.569,4.819,4.819,0,0,1-.576-2.386,4.4,4.4,0,0,1,1.226-3.256,4.6,4.6,0,0,1,6.253,0,4.41,4.41,0,0,1,1.222,3.256A4.413,4.413,0,0,1,85.1,15.941,4.232,4.232,0,0,1,81.976,17.167ZM81.967,15.9a2.654,2.654,0,0,0,2.043-.888,3.326,3.326,0,0,0,.813-2.338,3.314,3.314,0,0,0-.813-2.329,2.654,2.654,0,0,0-2.043-.888,2.617,2.617,0,0,0-2.026.888,3.336,3.336,0,0,0-.8,2.329,3.348,3.348,0,0,0,.8,2.338A2.617,2.617,0,0,0,81.967,15.9ZM88.708,17V3.5h1.538V17ZM93.533,6.866,95.739,4l.809.589L94.579,6.866ZM93.34,17V8.36h1.529V17Zm7.383,0a2.271,2.271,0,0,1-1.687-.62,2.344,2.344,0,0,1-.615-1.727V9.573H96.653V8.36h.65a1.249,1.249,0,0,0,.954-.3,1.492,1.492,0,0,0,.277-1.015V5.478h1.415V8.36h1.986V9.573H99.949V14.5a1.31,1.31,0,0,0,.33.954,1.154,1.154,0,0,0,.866.338h.791V17Zm4.184-10.67A1.035,1.035,0,0,1,103.878,5.3a.975.975,0,0,1,.3-.721,1,1,0,0,1,.725-.3.987.987,0,0,1,.716.3.975.975,0,0,1,.3.721.989.989,0,0,1-.3.725A.979.979,0,0,1,104.906,6.33ZM104.133,17V8.36h1.529V17Zm8.209.158a4.161,4.161,0,0,1-3.094-1.239,4.421,4.421,0,0,1-1.222-3.243,4.43,4.43,0,0,1,1.217-3.243,4.5,4.5,0,0,1,5.6-.483,3.815,3.815,0,0,1,1.455,2.1l-1.424.229a2.63,2.63,0,0,0-.976-1.345,2.656,2.656,0,0,0-1.564-.475,2.554,2.554,0,0,0-2,.888,3.382,3.382,0,0,0-.787,2.329A3.365,3.365,0,0,0,110.333,15a2.56,2.56,0,0,0,2,.883,2.656,2.656,0,0,0,1.564-.475,2.63,2.63,0,0,0,.976-1.345l1.424.237a3.819,3.819,0,0,1-1.463,2.1A4.185,4.185,0,0,1,112.342,17.158Zm8.191.009a2.94,2.94,0,0,1-1.894-.593A2.13,2.13,0,0,1,117.9,14.8a2.517,2.517,0,0,1,.237-1.129,1.991,1.991,0,0,1,.7-.787,4.218,4.218,0,0,1,1.015-.488,9.384,9.384,0,0,1,1.314-.312l1.4-.229q.765-.141.765-.8a1.51,1.51,0,0,0-.541-1.288,2.2,2.2,0,0,0-1.367-.409,2.243,2.243,0,0,0-1.354.4,1.655,1.655,0,0,0-.642,1.213l-1.371-.29a2.639,2.639,0,0,1,1.081-1.85,4.039,4.039,0,0,1,2.355-.62,4.777,4.777,0,0,1,1.252.154,3.4,3.4,0,0,1,1.046.483,2.168,2.168,0,0,1,.747.932A3.466,3.466,0,0,1,124.8,11.2v3.568a1.46,1.46,0,0,0,.2.9.854.854,0,0,0,.681.233h.141V17h-.756a1.442,1.442,0,0,1-1.635-1.169h-.07A3.3,3.3,0,0,1,120.533,17.167Zm.352-1.23a2.305,2.305,0,0,0,1.854-.835,3.438,3.438,0,0,0,.7-2.285l-2.285.439a3.076,3.076,0,0,0-1.34.479,1.114,1.114,0,0,0-.435.945,1.1,1.1,0,0,0,.417.949A1.785,1.785,0,0,0,120.885,15.937Zm9.817,1.23a4.1,4.1,0,0,1-2.329-.624,2.581,2.581,0,0,1-1.134-1.775l1.327-.378a1.851,1.851,0,0,0,.708,1.2,2.3,2.3,0,0,0,1.419.426,2.832,2.832,0,0,0,.831-.114,1.331,1.331,0,0,0,.637-.426,1.189,1.189,0,0,0,.185-1.143,1.526,1.526,0,0,0-.141-.286.87.87,0,0,0-.246-.237,3.245,3.245,0,0,0-.3-.185,3.067,3.067,0,0,0-.391-.163q-.259-.092-.417-.141t-.483-.141q-.325-.092-.5-.145a9.372,9.372,0,0,1-.9-.316,3.932,3.932,0,0,1-.729-.417,1.679,1.679,0,0,1-.567-.681,2.3,2.3,0,0,1-.189-.967,2.234,2.234,0,0,1,.422-1.38A2.374,2.374,0,0,1,129,8.461a4.374,4.374,0,0,1,1.534-.25,3.754,3.754,0,0,1,2.1.563,2.4,2.4,0,0,1,1.05,1.688l-1.248.316a1.655,1.655,0,0,0-.659-1.094,2.1,2.1,0,0,0-1.239-.365,2.139,2.139,0,0,0-1.16.3,1.019,1.019,0,0,0-.483.927.923.923,0,0,0,.127.479,1.521,1.521,0,0,0,.259.338,1.594,1.594,0,0,0,.475.259q.343.136.51.185t.633.163q.088.026.132.035.51.132.831.233a5.105,5.105,0,0,1,.747.316,2.484,2.484,0,0,1,.672.47,2.178,2.178,0,0,1,.422.668,2.358,2.358,0,0,1,.176.932,2.516,2.516,0,0,1-.259,1.165,2.028,2.028,0,0,1-.708.8,3.422,3.422,0,0,1-1.006.435A4.8,4.8,0,0,1,130.7,17.167Z" transform="translate(-325 -2130)" fill="#00223d"/>
    <path id="Trazado_17244" data-name="Trazado 17244" d="M8.631,6.058H3.551V10.1H7.98v1.424H3.551V17H1.942V4.625H8.631Zm7.638,2.3h1.521V17H16.33l-.035-1.143a2.7,2.7,0,0,1-1.072.971,3.3,3.3,0,0,1-1.512.338,3.005,3.005,0,0,1-2.175-.782,2.918,2.918,0,0,1-.813-2.206V8.36h1.521v5.476a2.05,2.05,0,0,0,.532,1.547,1.882,1.882,0,0,0,1.358.51,2.067,2.067,0,0,0,1.534-.6,2.434,2.434,0,0,0,.6-1.767Zm12.173,4.148-.018.413h-6.75a3.053,3.053,0,0,0,.826,2.21,2.713,2.713,0,0,0,1.969.769,2.59,2.59,0,0,0,1.433-.413,2.68,2.68,0,0,0,.984-1.143l1.371.29A3.9,3.9,0,0,1,26.78,16.49a4.028,4.028,0,0,1-2.294.677,4.174,4.174,0,0,1-3.111-1.2,4.479,4.479,0,0,1-1.187-3.287A4.458,4.458,0,0,1,21.379,9.4a4.122,4.122,0,0,1,3.063-1.2,3.9,3.9,0,0,1,2.9,1.107A4.376,4.376,0,0,1,28.441,12.509Zm-4-3.146a2.694,2.694,0,0,0-1.8.611,2.8,2.8,0,0,0-.91,1.78h5.177a2.567,2.567,0,0,0-.756-1.78A2.441,2.441,0,0,0,24.442,9.362Zm7.866.519a2.612,2.612,0,0,1,1.072-1.16,3.229,3.229,0,0,1,1.661-.457V9.7a2.846,2.846,0,0,0-2.008.642,2.68,2.68,0,0,0-.69,2.048V17H30.823V8.36h1.485Zm6.214,5.889h4.605V17H36.237L40.79,9.6H36.5V8.36h6.618Zm8.4,1.4a2.94,2.94,0,0,1-1.894-.593,2.13,2.13,0,0,1-.743-1.771,2.517,2.517,0,0,1,.237-1.129,1.991,1.991,0,0,1,.7-.787,4.218,4.218,0,0,1,1.015-.488,9.384,9.384,0,0,1,1.314-.312l1.4-.229q.765-.141.765-.8a1.51,1.51,0,0,0-.541-1.288,2.2,2.2,0,0,0-1.367-.409,2.243,2.243,0,0,0-1.354.4,1.655,1.655,0,0,0-.642,1.213l-1.371-.29a2.639,2.639,0,0,1,1.081-1.85,4.039,4.039,0,0,1,2.355-.62,4.777,4.777,0,0,1,1.252.154,3.4,3.4,0,0,1,1.046.483,2.168,2.168,0,0,1,.747.932A3.466,3.466,0,0,1,51.2,11.2v3.568a1.46,1.46,0,0,0,.2.9.854.854,0,0,0,.681.233h.141V17H51.46a1.442,1.442,0,0,1-1.635-1.169h-.07A3.3,3.3,0,0,1,46.925,17.167Zm.352-1.23a2.305,2.305,0,0,0,1.854-.835,3.438,3.438,0,0,0,.7-2.285l-2.285.439a3.076,3.076,0,0,0-1.34.479,1.114,1.114,0,0,0-.435.945,1.1,1.1,0,0,0,.417.949A1.785,1.785,0,0,0,47.276,15.937Zm9.817,1.23a4.1,4.1,0,0,1-2.329-.624,2.581,2.581,0,0,1-1.134-1.775l1.327-.378a1.851,1.851,0,0,0,.708,1.2,2.3,2.3,0,0,0,1.419.426,2.832,2.832,0,0,0,.831-.114,1.331,1.331,0,0,0,.637-.426,1.189,1.189,0,0,0,.185-1.143,1.526,1.526,0,0,0-.141-.286.87.87,0,0,0-.246-.237,3.245,3.245,0,0,0-.3-.185,3.067,3.067,0,0,0-.391-.163q-.259-.092-.417-.141t-.483-.141q-.325-.092-.5-.145a9.372,9.372,0,0,1-.9-.316,3.932,3.932,0,0,1-.729-.417,1.679,1.679,0,0,1-.567-.681,2.3,2.3,0,0,1-.189-.967,2.234,2.234,0,0,1,.422-1.38,2.374,2.374,0,0,1,1.094-.813,4.374,4.374,0,0,1,1.534-.25,3.754,3.754,0,0,1,2.1.563,2.4,2.4,0,0,1,1.05,1.688l-1.248.316a1.655,1.655,0,0,0-.659-1.094,2.1,2.1,0,0,0-1.239-.365,2.139,2.139,0,0,0-1.16.3,1.019,1.019,0,0,0-.483.927.923.923,0,0,0,.127.479,1.521,1.521,0,0,0,.259.338,1.594,1.594,0,0,0,.475.259q.343.136.51.185t.633.163q.088.026.132.035.51.132.831.233a5.105,5.105,0,0,1,.747.316,2.484,2.484,0,0,1,.672.47,2.178,2.178,0,0,1,.422.668,2.358,2.358,0,0,1,.176.932,2.516,2.516,0,0,1-.259,1.165,2.028,2.028,0,0,1-.708.8,3.422,3.422,0,0,1-1.006.435A4.8,4.8,0,0,1,57.094,17.167Zm12.981,0a4.1,4.1,0,0,1-2.329-.624,2.581,2.581,0,0,1-1.134-1.775l1.327-.378a1.851,1.851,0,0,0,.708,1.2,2.3,2.3,0,0,0,1.419.426A2.832,2.832,0,0,0,70.9,15.9a1.331,1.331,0,0,0,.637-.426,1.189,1.189,0,0,0,.185-1.143,1.526,1.526,0,0,0-.141-.286.87.87,0,0,0-.246-.237,3.245,3.245,0,0,0-.3-.185,3.067,3.067,0,0,0-.391-.163q-.259-.092-.417-.141t-.483-.141q-.325-.092-.5-.145a9.372,9.372,0,0,1-.9-.316,3.932,3.932,0,0,1-.729-.417,1.679,1.679,0,0,1-.567-.681,2.3,2.3,0,0,1-.189-.967,2.234,2.234,0,0,1,.422-1.38,2.374,2.374,0,0,1,1.094-.813,4.374,4.374,0,0,1,1.534-.25,3.754,3.754,0,0,1,2.1.563,2.4,2.4,0,0,1,1.05,1.688l-1.248.316a1.655,1.655,0,0,0-.659-1.094,2.1,2.1,0,0,0-1.239-.365,2.139,2.139,0,0,0-1.16.3,1.019,1.019,0,0,0-.483.927.923.923,0,0,0,.127.479,1.521,1.521,0,0,0,.259.338,1.594,1.594,0,0,0,.475.259q.343.136.51.185t.633.163q.088.026.132.035.51.132.831.233a5.105,5.105,0,0,1,.747.316,2.484,2.484,0,0,1,.672.47,2.178,2.178,0,0,1,.422.668,2.358,2.358,0,0,1,.176.932A2.516,2.516,0,0,1,73,15.792a2.028,2.028,0,0,1-.708.8,3.422,3.422,0,0,1-1.006.435A4.8,4.8,0,0,1,70.075,17.167Zm9.211,0a4.554,4.554,0,0,1-2.215-.536,3.9,3.9,0,0,1-1.56-1.569,4.819,4.819,0,0,1-.576-2.386,4.4,4.4,0,0,1,1.226-3.256,4.6,4.6,0,0,1,6.253,0,4.41,4.41,0,0,1,1.222,3.256,4.413,4.413,0,0,1-1.226,3.265A4.232,4.232,0,0,1,79.286,17.167ZM79.277,15.9a2.654,2.654,0,0,0,2.043-.888,3.326,3.326,0,0,0,.813-2.338,3.314,3.314,0,0,0-.813-2.329,2.654,2.654,0,0,0-2.043-.888,2.617,2.617,0,0,0-2.026.888,3.336,3.336,0,0,0-.8,2.329,3.348,3.348,0,0,0,.8,2.338A2.617,2.617,0,0,0,79.277,15.9ZM89.6,17.158a4.161,4.161,0,0,1-3.094-1.239,4.421,4.421,0,0,1-1.222-3.243,4.43,4.43,0,0,1,1.217-3.243,4.5,4.5,0,0,1,5.6-.483,3.815,3.815,0,0,1,1.455,2.1l-1.424.229a2.63,2.63,0,0,0-.976-1.345A2.656,2.656,0,0,0,89.6,9.459a2.554,2.554,0,0,0-2,.888,3.382,3.382,0,0,0-.787,2.329A3.365,3.365,0,0,0,87.6,15a2.56,2.56,0,0,0,2,.883,2.656,2.656,0,0,0,1.564-.475,2.63,2.63,0,0,0,.976-1.345l1.424.237A3.819,3.819,0,0,1,92.1,16.4,4.185,4.185,0,0,1,89.6,17.158ZM96.574,6.33A1.035,1.035,0,0,1,95.546,5.3a.975.975,0,0,1,.3-.721,1,1,0,0,1,.725-.3.987.987,0,0,1,.716.3.975.975,0,0,1,.3.721.989.989,0,0,1-.3.725A.979.979,0,0,1,96.574,6.33ZM95.8,17V8.36H97.33V17Zm8.262.167a4.554,4.554,0,0,1-2.215-.536,3.9,3.9,0,0,1-1.56-1.569,4.819,4.819,0,0,1-.576-2.386,4.4,4.4,0,0,1,1.226-3.256,4.6,4.6,0,0,1,6.253,0,4.41,4.41,0,0,1,1.222,3.256,4.413,4.413,0,0,1-1.226,3.265A4.232,4.232,0,0,1,104.063,17.167Zm-.009-1.266a2.654,2.654,0,0,0,2.043-.888,3.326,3.326,0,0,0,.813-2.338,3.314,3.314,0,0,0-.813-2.329,2.654,2.654,0,0,0-2.043-.888,2.617,2.617,0,0,0-2.026.888,3.336,3.336,0,0,0-.8,2.329,3.348,3.348,0,0,0,.8,2.338A2.617,2.617,0,0,0,104.054,15.9Zm10.327,1.257a4.161,4.161,0,0,1-3.094-1.239,4.421,4.421,0,0,1-1.222-3.243,4.43,4.43,0,0,1,1.217-3.243,4.5,4.5,0,0,1,5.6-.483,3.815,3.815,0,0,1,1.455,2.1l-1.424.229a2.63,2.63,0,0,0-.976-1.345,2.656,2.656,0,0,0-1.564-.475,2.554,2.554,0,0,0-2,.888,3.382,3.382,0,0,0-.787,2.329A3.365,3.365,0,0,0,112.373,15a2.56,2.56,0,0,0,2,.883,2.656,2.656,0,0,0,1.564-.475,2.63,2.63,0,0,0,.976-1.345l1.424.237a3.819,3.819,0,0,1-1.463,2.1A4.185,4.185,0,0,1,114.381,17.158Zm11.575-8.8h1.521V17h-1.459l-.035-1.143a2.7,2.7,0,0,1-1.072.971,3.3,3.3,0,0,1-1.512.338,3.005,3.005,0,0,1-2.175-.782,2.918,2.918,0,0,1-.813-2.206V8.36h1.521v5.476a2.05,2.05,0,0,0,.532,1.547,1.882,1.882,0,0,0,1.358.51,2.067,2.067,0,0,0,1.534-.6,2.434,2.434,0,0,0,.6-1.767ZM130.57,17V3.5h1.538V17Zm7.392,0a2.271,2.271,0,0,1-1.687-.62,2.344,2.344,0,0,1-.615-1.727V9.573h-1.767V8.36h.65a1.249,1.249,0,0,0,.954-.3,1.492,1.492,0,0,0,.277-1.015V5.478h1.415V8.36h1.986V9.573h-1.986V14.5a1.31,1.31,0,0,0,.33.954,1.154,1.154,0,0,0,.866.338h.791V17Zm8.789-8.64h1.521V17h-1.459l-.035-1.143a2.7,2.7,0,0,1-1.072.971,3.3,3.3,0,0,1-1.512.338,3.005,3.005,0,0,1-2.175-.782,2.918,2.918,0,0,1-.813-2.206V8.36h1.521v5.476a2.05,2.05,0,0,0,.532,1.547,1.882,1.882,0,0,0,1.358.51,2.067,2.067,0,0,0,1.534-.6,2.434,2.434,0,0,0,.6-1.767Zm6.1,1.521a2.612,2.612,0,0,1,1.072-1.16,3.229,3.229,0,0,1,1.661-.457V9.7a2.846,2.846,0,0,0-2.008.642,2.68,2.68,0,0,0-.69,2.048V17h-1.521V8.36h1.485Zm6.407,7.286a2.94,2.94,0,0,1-1.894-.593,2.13,2.13,0,0,1-.743-1.771,2.517,2.517,0,0,1,.237-1.129,1.991,1.991,0,0,1,.7-.787,4.218,4.218,0,0,1,1.015-.488,9.384,9.384,0,0,1,1.314-.312l1.4-.229q.765-.141.765-.8a1.51,1.51,0,0,0-.541-1.288,2.2,2.2,0,0,0-1.367-.409,2.243,2.243,0,0,0-1.354.4,1.655,1.655,0,0,0-.642,1.213l-1.371-.29a2.639,2.639,0,0,1,1.081-1.85,4.039,4.039,0,0,1,2.355-.62,4.777,4.777,0,0,1,1.252.154,3.4,3.4,0,0,1,1.046.483,2.168,2.168,0,0,1,.747.932,3.466,3.466,0,0,1,.268,1.419v3.568a1.46,1.46,0,0,0,.2.9.854.854,0,0,0,.681.233h.141V17h-.756a1.442,1.442,0,0,1-1.635-1.169h-.07A3.3,3.3,0,0,1,159.258,17.167Zm.352-1.23a2.305,2.305,0,0,0,1.854-.835,3.438,3.438,0,0,0,.7-2.285l-2.285.439a3.076,3.076,0,0,0-1.34.479,1.114,1.114,0,0,0-.435.945,1.1,1.1,0,0,0,.417.949A1.785,1.785,0,0,0,159.609,15.937ZM166.693,17V3.5h1.538V17Zm12.19-4.491-.018.413h-6.75a3.053,3.053,0,0,0,.826,2.21,2.713,2.713,0,0,0,1.969.769,2.59,2.59,0,0,0,1.433-.413,2.68,2.68,0,0,0,.984-1.143l1.371.29a3.9,3.9,0,0,1-1.477,1.854,4.028,4.028,0,0,1-2.294.677,4.174,4.174,0,0,1-3.111-1.2,4.479,4.479,0,0,1-1.187-3.287A4.458,4.458,0,0,1,171.822,9.4a4.122,4.122,0,0,1,3.063-1.2,3.9,3.9,0,0,1,2.9,1.107A4.376,4.376,0,0,1,178.884,12.509Zm-4-3.146a2.694,2.694,0,0,0-1.8.611,2.8,2.8,0,0,0-.91,1.78h5.177a2.567,2.567,0,0,0-.756-1.78A2.441,2.441,0,0,0,174.885,9.362Zm9.114,7.8a4.1,4.1,0,0,1-2.329-.624,2.581,2.581,0,0,1-1.134-1.775l1.327-.378a1.851,1.851,0,0,0,.708,1.2,2.3,2.3,0,0,0,1.419.426,2.832,2.832,0,0,0,.831-.114,1.331,1.331,0,0,0,.637-.426,1.189,1.189,0,0,0,.185-1.143,1.526,1.526,0,0,0-.141-.286.87.87,0,0,0-.246-.237,3.245,3.245,0,0,0-.3-.185,3.067,3.067,0,0,0-.391-.163q-.259-.092-.417-.141t-.483-.141q-.325-.092-.5-.145a9.372,9.372,0,0,1-.9-.316,3.932,3.932,0,0,1-.729-.417,1.679,1.679,0,0,1-.567-.681,2.3,2.3,0,0,1-.189-.967,2.234,2.234,0,0,1,.422-1.38,2.374,2.374,0,0,1,1.094-.813,4.374,4.374,0,0,1,1.534-.25,3.754,3.754,0,0,1,2.1.563,2.4,2.4,0,0,1,1.05,1.688l-1.248.316a1.655,1.655,0,0,0-.659-1.094,2.1,2.1,0,0,0-1.239-.365,2.139,2.139,0,0,0-1.16.3,1.019,1.019,0,0,0-.483.927.923.923,0,0,0,.127.479,1.521,1.521,0,0,0,.259.338,1.594,1.594,0,0,0,.475.259q.343.136.51.185t.633.163q.088.026.132.035.51.132.831.233a5.105,5.105,0,0,1,.747.316,2.484,2.484,0,0,1,.672.47A2.178,2.178,0,0,1,187,13.7a2.358,2.358,0,0,1,.176.932,2.516,2.516,0,0,1-.259,1.165,2.028,2.028,0,0,1-.708.8,3.422,3.422,0,0,1-1.006.435A4.8,4.8,0,0,1,184,17.167Z" transform="translate(-58 -2130)" fill="#00223d"/>
    <path id="Trazado_17245" data-name="Trazado 17245" d="M8.631,6.058H3.551V10.1H7.98v1.424H3.551V17H1.942V4.625H8.631Zm7.638,2.3h1.521V17H16.33l-.035-1.143a2.7,2.7,0,0,1-1.072.971,3.3,3.3,0,0,1-1.512.338,3.005,3.005,0,0,1-2.175-.782,2.918,2.918,0,0,1-.813-2.206V8.36h1.521v5.476a2.05,2.05,0,0,0,.532,1.547,1.882,1.882,0,0,0,1.358.51,2.067,2.067,0,0,0,1.534-.6,2.434,2.434,0,0,0,.6-1.767Zm12.173,4.148-.018.413h-6.75a3.053,3.053,0,0,0,.826,2.21,2.713,2.713,0,0,0,1.969.769,2.59,2.59,0,0,0,1.433-.413,2.68,2.68,0,0,0,.984-1.143l1.371.29A3.9,3.9,0,0,1,26.78,16.49a4.028,4.028,0,0,1-2.294.677,4.174,4.174,0,0,1-3.111-1.2,4.479,4.479,0,0,1-1.187-3.287A4.458,4.458,0,0,1,21.379,9.4a4.122,4.122,0,0,1,3.063-1.2,3.9,3.9,0,0,1,2.9,1.107A4.376,4.376,0,0,1,28.441,12.509Zm-4-3.146a2.694,2.694,0,0,0-1.8.611,2.8,2.8,0,0,0-.91,1.78h5.177a2.567,2.567,0,0,0-.756-1.78A2.441,2.441,0,0,0,24.442,9.362Zm7.866.519a2.612,2.612,0,0,1,1.072-1.16,3.229,3.229,0,0,1,1.661-.457V9.7a2.846,2.846,0,0,0-2.008.642,2.68,2.68,0,0,0-.69,2.048V17H30.823V8.36h1.485Zm6.214,5.889h4.605V17H36.237L40.79,9.6H36.5V8.36h6.618Zm8.4,1.4a2.94,2.94,0,0,1-1.894-.593,2.13,2.13,0,0,1-.743-1.771,2.517,2.517,0,0,1,.237-1.129,1.991,1.991,0,0,1,.7-.787,4.218,4.218,0,0,1,1.015-.488,9.384,9.384,0,0,1,1.314-.312l1.4-.229q.765-.141.765-.8a1.51,1.51,0,0,0-.541-1.288,2.2,2.2,0,0,0-1.367-.409,2.243,2.243,0,0,0-1.354.4,1.655,1.655,0,0,0-.642,1.213l-1.371-.29a2.639,2.639,0,0,1,1.081-1.85,4.039,4.039,0,0,1,2.355-.62,4.777,4.777,0,0,1,1.252.154,3.4,3.4,0,0,1,1.046.483,2.168,2.168,0,0,1,.747.932A3.466,3.466,0,0,1,51.2,11.2v3.568a1.46,1.46,0,0,0,.2.9.854.854,0,0,0,.681.233h.141V17H51.46a1.442,1.442,0,0,1-1.635-1.169h-.07A3.3,3.3,0,0,1,46.925,17.167Zm.352-1.23a2.305,2.305,0,0,0,1.854-.835,3.438,3.438,0,0,0,.7-2.285l-2.285.439a3.076,3.076,0,0,0-1.34.479,1.114,1.114,0,0,0-.435.945,1.1,1.1,0,0,0,.417.949A1.785,1.785,0,0,0,47.276,15.937Zm9.817,1.23a4.1,4.1,0,0,1-2.329-.624,2.581,2.581,0,0,1-1.134-1.775l1.327-.378a1.851,1.851,0,0,0,.708,1.2,2.3,2.3,0,0,0,1.419.426,2.832,2.832,0,0,0,.831-.114,1.331,1.331,0,0,0,.637-.426,1.189,1.189,0,0,0,.185-1.143,1.526,1.526,0,0,0-.141-.286.87.87,0,0,0-.246-.237,3.245,3.245,0,0,0-.3-.185,3.067,3.067,0,0,0-.391-.163q-.259-.092-.417-.141t-.483-.141q-.325-.092-.5-.145a9.372,9.372,0,0,1-.9-.316,3.932,3.932,0,0,1-.729-.417,1.679,1.679,0,0,1-.567-.681,2.3,2.3,0,0,1-.189-.967,2.234,2.234,0,0,1,.422-1.38,2.374,2.374,0,0,1,1.094-.813,4.374,4.374,0,0,1,1.534-.25,3.754,3.754,0,0,1,2.1.563,2.4,2.4,0,0,1,1.05,1.688l-1.248.316a1.655,1.655,0,0,0-.659-1.094,2.1,2.1,0,0,0-1.239-.365,2.139,2.139,0,0,0-1.16.3,1.019,1.019,0,0,0-.483.927.923.923,0,0,0,.127.479,1.521,1.521,0,0,0,.259.338,1.594,1.594,0,0,0,.475.259q.343.136.51.185t.633.163q.088.026.132.035.51.132.831.233a5.105,5.105,0,0,1,.747.316,2.484,2.484,0,0,1,.672.47,2.178,2.178,0,0,1,.422.668,2.358,2.358,0,0,1,.176.932,2.516,2.516,0,0,1-.259,1.165,2.028,2.028,0,0,1-.708.8,3.422,3.422,0,0,1-1.006.435A4.8,4.8,0,0,1,57.094,17.167ZM74.9,12.509l-.018.413h-6.75a3.053,3.053,0,0,0,.826,2.21,2.713,2.713,0,0,0,1.969.769,2.59,2.59,0,0,0,1.433-.413,2.68,2.68,0,0,0,.984-1.143l1.371.29a3.9,3.9,0,0,1-1.477,1.854,4.028,4.028,0,0,1-2.294.677,4.174,4.174,0,0,1-3.111-1.2,4.479,4.479,0,0,1-1.187-3.287A4.458,4.458,0,0,1,67.838,9.4a4.122,4.122,0,0,1,3.063-1.2,3.9,3.9,0,0,1,2.9,1.107A4.376,4.376,0,0,1,74.9,12.509Zm-4-3.146a2.694,2.694,0,0,0-1.8.611,2.8,2.8,0,0,0-.91,1.78h5.177a2.567,2.567,0,0,0-.756-1.78A2.441,2.441,0,0,0,70.9,9.362Zm9.967,7.8a4.161,4.161,0,0,1-3.094-1.239,4.421,4.421,0,0,1-1.222-3.243A4.43,4.43,0,0,1,77.77,9.433a4.5,4.5,0,0,1,5.6-.483,3.815,3.815,0,0,1,1.455,2.1l-1.424.229a2.63,2.63,0,0,0-.976-1.345,2.656,2.656,0,0,0-1.564-.475,2.554,2.554,0,0,0-2,.888,3.382,3.382,0,0,0-.787,2.329A3.365,3.365,0,0,0,78.86,15a2.56,2.56,0,0,0,2,.883,2.656,2.656,0,0,0,1.564-.475,2.63,2.63,0,0,0,.976-1.345l1.424.237a3.819,3.819,0,0,1-1.463,2.1A4.185,4.185,0,0,1,80.868,17.158Zm9.835.009a4.554,4.554,0,0,1-2.215-.536,3.9,3.9,0,0,1-1.56-1.569,4.819,4.819,0,0,1-.576-2.386,4.4,4.4,0,0,1,1.226-3.256,4.6,4.6,0,0,1,6.253,0,4.41,4.41,0,0,1,1.222,3.256,4.413,4.413,0,0,1-1.226,3.265A4.232,4.232,0,0,1,90.7,17.167ZM90.694,15.9a2.654,2.654,0,0,0,2.043-.888,3.326,3.326,0,0,0,.813-2.338,3.314,3.314,0,0,0-.813-2.329,2.654,2.654,0,0,0-2.043-.888,2.617,2.617,0,0,0-2.026.888,3.336,3.336,0,0,0-.8,2.329,3.348,3.348,0,0,0,.8,2.338A2.617,2.617,0,0,0,90.694,15.9ZM97.436,17V3.5h1.538V17Zm7.69-10.125,2.206-2.865.809.589-1.969,2.276Zm.58,10.292a4.554,4.554,0,0,1-2.215-.536,3.9,3.9,0,0,1-1.56-1.569,4.819,4.819,0,0,1-.576-2.386,4.4,4.4,0,0,1,1.226-3.256,4.6,4.6,0,0,1,6.253,0,4.41,4.41,0,0,1,1.222,3.256,4.413,4.413,0,0,1-1.226,3.265A4.232,4.232,0,0,1,105.706,17.167ZM105.7,15.9a2.654,2.654,0,0,0,2.043-.888,3.326,3.326,0,0,0,.813-2.338,3.314,3.314,0,0,0-.813-2.329,2.654,2.654,0,0,0-2.043-.888,2.617,2.617,0,0,0-2.026.888,3.336,3.336,0,0,0-.8,2.329,3.348,3.348,0,0,0,.8,2.338A2.617,2.617,0,0,0,105.7,15.9Zm13-7.541h1.477v8.2a4.706,4.706,0,0,1-1.116,3.366,4.648,4.648,0,0,1-7.286-1.468l1.257-.615a2.856,2.856,0,0,0,2.892,2A2.48,2.48,0,0,0,117.945,19a3.591,3.591,0,0,0,.7-2.355v-1.6a3.045,3.045,0,0,1-1.23,1.244,3.58,3.58,0,0,1-1.8.47,3.7,3.7,0,0,1-2.795-1.217,4.293,4.293,0,0,1-1.151-3.072A4.253,4.253,0,0,1,112.821,9.4a3.74,3.74,0,0,1,2.808-1.208,3.49,3.49,0,0,1,1.811.483,3.112,3.112,0,0,1,1.222,1.274Zm-2.742,7.1a2.614,2.614,0,0,0,1.991-.888,3.136,3.136,0,0,0,0-4.228,2.708,2.708,0,0,0-3.986-.026,3,3,0,0,0-.813,2.145,2.978,2.978,0,0,0,.822,2.131A2.634,2.634,0,0,0,115.954,15.462ZM124.04,6.33A1.035,1.035,0,0,1,123.012,5.3a.975.975,0,0,1,.3-.721,1,1,0,0,1,.725-.3.987.987,0,0,1,.716.3.975.975,0,0,1,.3.721.989.989,0,0,1-.3.725A.979.979,0,0,1,124.04,6.33ZM123.267,17V8.36H124.8V17Zm8.209.158a4.161,4.161,0,0,1-3.094-1.239,4.421,4.421,0,0,1-1.222-3.243,4.43,4.43,0,0,1,1.217-3.243,4.5,4.5,0,0,1,5.6-.483,3.815,3.815,0,0,1,1.455,2.1l-1.424.229a2.63,2.63,0,0,0-.976-1.345,2.656,2.656,0,0,0-1.564-.475,2.554,2.554,0,0,0-2,.888,3.382,3.382,0,0,0-.787,2.329A3.365,3.365,0,0,0,129.467,15a2.56,2.56,0,0,0,2,.883,2.656,2.656,0,0,0,1.564-.475,2.63,2.63,0,0,0,.976-1.345l1.424.237a3.819,3.819,0,0,1-1.463,2.1A4.185,4.185,0,0,1,131.476,17.158Zm8.191.009a2.94,2.94,0,0,1-1.894-.593,2.13,2.13,0,0,1-.743-1.771,2.517,2.517,0,0,1,.237-1.129,1.991,1.991,0,0,1,.7-.787,4.218,4.218,0,0,1,1.015-.488,9.384,9.384,0,0,1,1.314-.312l1.4-.229q.765-.141.765-.8a1.51,1.51,0,0,0-.541-1.288,2.2,2.2,0,0,0-1.367-.409,2.243,2.243,0,0,0-1.354.4,1.655,1.655,0,0,0-.642,1.213l-1.371-.29a2.639,2.639,0,0,1,1.081-1.85,4.039,4.039,0,0,1,2.355-.62,4.777,4.777,0,0,1,1.252.154,3.4,3.4,0,0,1,1.046.483,2.168,2.168,0,0,1,.747.932,3.466,3.466,0,0,1,.268,1.419v3.568a1.46,1.46,0,0,0,.2.9.854.854,0,0,0,.681.233h.141V17H144.2a1.442,1.442,0,0,1-1.635-1.169h-.07A3.3,3.3,0,0,1,139.667,17.167Zm.352-1.23a2.305,2.305,0,0,0,1.854-.835,3.438,3.438,0,0,0,.7-2.285l-2.285.439a3.076,3.076,0,0,0-1.34.479,1.114,1.114,0,0,0-.435.945,1.1,1.1,0,0,0,.417.949A1.785,1.785,0,0,0,140.019,15.937Zm9.817,1.23a4.1,4.1,0,0,1-2.329-.624,2.581,2.581,0,0,1-1.134-1.775l1.327-.378a1.851,1.851,0,0,0,.708,1.2,2.3,2.3,0,0,0,1.419.426,2.832,2.832,0,0,0,.831-.114,1.331,1.331,0,0,0,.637-.426,1.189,1.189,0,0,0,.185-1.143,1.526,1.526,0,0,0-.141-.286.87.87,0,0,0-.246-.237,3.245,3.245,0,0,0-.3-.185,3.067,3.067,0,0,0-.391-.163q-.259-.092-.417-.141t-.483-.141q-.325-.092-.5-.145a9.372,9.372,0,0,1-.9-.316,3.932,3.932,0,0,1-.729-.417,1.679,1.679,0,0,1-.567-.681,2.3,2.3,0,0,1-.189-.967,2.234,2.234,0,0,1,.422-1.38,2.374,2.374,0,0,1,1.094-.813,4.374,4.374,0,0,1,1.534-.25,3.754,3.754,0,0,1,2.1.563,2.4,2.4,0,0,1,1.05,1.688l-1.248.316a1.655,1.655,0,0,0-.659-1.094,2.1,2.1,0,0,0-1.239-.365,2.139,2.139,0,0,0-1.16.3,1.019,1.019,0,0,0-.483.927.923.923,0,0,0,.127.479,1.521,1.521,0,0,0,.259.338,1.594,1.594,0,0,0,.475.259q.343.136.51.185t.633.163q.088.026.132.035.51.132.831.233a5.105,5.105,0,0,1,.747.316,2.484,2.484,0,0,1,.672.47,2.178,2.178,0,0,1,.422.668,2.358,2.358,0,0,1,.176.932,2.516,2.516,0,0,1-.259,1.165,2.028,2.028,0,0,1-.708.8,3.422,3.422,0,0,1-1.006.435A4.8,4.8,0,0,1,149.836,17.167Z" transform="translate(265 -2130)" fill="#00223d"/>
    <path id="Trazado_17246" data-name="Trazado 17246" d="M8.631,6.058H3.551V10.1H7.98v1.424H3.551V17H1.942V4.625H8.631Zm7.638,2.3h1.521V17H16.33l-.035-1.143a2.7,2.7,0,0,1-1.072.971,3.3,3.3,0,0,1-1.512.338,3.005,3.005,0,0,1-2.175-.782,2.918,2.918,0,0,1-.813-2.206V8.36h1.521v5.476a2.05,2.05,0,0,0,.532,1.547,1.882,1.882,0,0,0,1.358.51,2.067,2.067,0,0,0,1.534-.6,2.434,2.434,0,0,0,.6-1.767Zm12.173,4.148-.018.413h-6.75a3.053,3.053,0,0,0,.826,2.21,2.713,2.713,0,0,0,1.969.769,2.59,2.59,0,0,0,1.433-.413,2.68,2.68,0,0,0,.984-1.143l1.371.29A3.9,3.9,0,0,1,26.78,16.49a4.028,4.028,0,0,1-2.294.677,4.174,4.174,0,0,1-3.111-1.2,4.479,4.479,0,0,1-1.187-3.287A4.458,4.458,0,0,1,21.379,9.4a4.122,4.122,0,0,1,3.063-1.2,3.9,3.9,0,0,1,2.9,1.107A4.376,4.376,0,0,1,28.441,12.509Zm-4-3.146a2.694,2.694,0,0,0-1.8.611,2.8,2.8,0,0,0-.91,1.78h5.177a2.567,2.567,0,0,0-.756-1.78A2.441,2.441,0,0,0,24.442,9.362Zm7.866.519a2.612,2.612,0,0,1,1.072-1.16,3.229,3.229,0,0,1,1.661-.457V9.7a2.846,2.846,0,0,0-2.008.642,2.68,2.68,0,0,0-.69,2.048V17H30.823V8.36h1.485Zm6.214,5.889h4.605V17H36.237L40.79,9.6H36.5V8.36h6.618Zm8.4,1.4a2.94,2.94,0,0,1-1.894-.593,2.13,2.13,0,0,1-.743-1.771,2.517,2.517,0,0,1,.237-1.129,1.991,1.991,0,0,1,.7-.787,4.218,4.218,0,0,1,1.015-.488,9.384,9.384,0,0,1,1.314-.312l1.4-.229q.765-.141.765-.8a1.51,1.51,0,0,0-.541-1.288,2.2,2.2,0,0,0-1.367-.409,2.243,2.243,0,0,0-1.354.4,1.655,1.655,0,0,0-.642,1.213l-1.371-.29a2.639,2.639,0,0,1,1.081-1.85,4.039,4.039,0,0,1,2.355-.62,4.777,4.777,0,0,1,1.252.154,3.4,3.4,0,0,1,1.046.483,2.168,2.168,0,0,1,.747.932A3.466,3.466,0,0,1,51.2,11.2v3.568a1.46,1.46,0,0,0,.2.9.854.854,0,0,0,.681.233h.141V17H51.46a1.442,1.442,0,0,1-1.635-1.169h-.07A3.3,3.3,0,0,1,46.925,17.167Zm.352-1.23a2.305,2.305,0,0,0,1.854-.835,3.438,3.438,0,0,0,.7-2.285l-2.285.439a3.076,3.076,0,0,0-1.34.479,1.114,1.114,0,0,0-.435.945,1.1,1.1,0,0,0,.417.949A1.785,1.785,0,0,0,47.276,15.937Zm9.817,1.23a4.1,4.1,0,0,1-2.329-.624,2.581,2.581,0,0,1-1.134-1.775l1.327-.378a1.851,1.851,0,0,0,.708,1.2,2.3,2.3,0,0,0,1.419.426,2.832,2.832,0,0,0,.831-.114,1.331,1.331,0,0,0,.637-.426,1.189,1.189,0,0,0,.185-1.143,1.526,1.526,0,0,0-.141-.286.87.87,0,0,0-.246-.237,3.245,3.245,0,0,0-.3-.185,3.067,3.067,0,0,0-.391-.163q-.259-.092-.417-.141t-.483-.141q-.325-.092-.5-.145a9.372,9.372,0,0,1-.9-.316,3.932,3.932,0,0,1-.729-.417,1.679,1.679,0,0,1-.567-.681,2.3,2.3,0,0,1-.189-.967,2.234,2.234,0,0,1,.422-1.38,2.374,2.374,0,0,1,1.094-.813,4.374,4.374,0,0,1,1.534-.25,3.754,3.754,0,0,1,2.1.563,2.4,2.4,0,0,1,1.05,1.688l-1.248.316a1.655,1.655,0,0,0-.659-1.094,2.1,2.1,0,0,0-1.239-.365,2.139,2.139,0,0,0-1.16.3,1.019,1.019,0,0,0-.483.927.923.923,0,0,0,.127.479,1.521,1.521,0,0,0,.259.338,1.594,1.594,0,0,0,.475.259q.343.136.51.185t.633.163q.088.026.132.035.51.132.831.233a5.105,5.105,0,0,1,.747.316,2.484,2.484,0,0,1,.672.47,2.178,2.178,0,0,1,.422.668,2.358,2.358,0,0,1,.176.932,2.516,2.516,0,0,1-.259,1.165,2.028,2.028,0,0,1-.708.8,3.422,3.422,0,0,1-1.006.435A4.8,4.8,0,0,1,57.094,17.167ZM74.9,12.509l-.018.413h-6.75a3.053,3.053,0,0,0,.826,2.21,2.713,2.713,0,0,0,1.969.769,2.59,2.59,0,0,0,1.433-.413,2.68,2.68,0,0,0,.984-1.143l1.371.29a3.9,3.9,0,0,1-1.477,1.854,4.028,4.028,0,0,1-2.294.677,4.174,4.174,0,0,1-3.111-1.2,4.479,4.479,0,0,1-1.187-3.287A4.458,4.458,0,0,1,67.838,9.4a4.122,4.122,0,0,1,3.063-1.2,3.9,3.9,0,0,1,2.9,1.107A4.376,4.376,0,0,1,74.9,12.509Zm-4-3.146a2.694,2.694,0,0,0-1.8.611,2.8,2.8,0,0,0-.91,1.78h5.177a2.567,2.567,0,0,0-.756-1.78A2.441,2.441,0,0,0,70.9,9.362Zm9.967,7.8a4.161,4.161,0,0,1-3.094-1.239,4.421,4.421,0,0,1-1.222-3.243A4.43,4.43,0,0,1,77.77,9.433a4.5,4.5,0,0,1,5.6-.483,3.815,3.815,0,0,1,1.455,2.1l-1.424.229a2.63,2.63,0,0,0-.976-1.345,2.656,2.656,0,0,0-1.564-.475,2.554,2.554,0,0,0-2,.888,3.382,3.382,0,0,0-.787,2.329A3.365,3.365,0,0,0,78.86,15a2.56,2.56,0,0,0,2,.883,2.656,2.656,0,0,0,1.564-.475,2.63,2.63,0,0,0,.976-1.345l1.424.237a3.819,3.819,0,0,1-1.463,2.1A4.185,4.185,0,0,1,80.868,17.158Zm9.835.009a4.554,4.554,0,0,1-2.215-.536,3.9,3.9,0,0,1-1.56-1.569,4.819,4.819,0,0,1-.576-2.386,4.4,4.4,0,0,1,1.226-3.256,4.6,4.6,0,0,1,6.253,0,4.41,4.41,0,0,1,1.222,3.256,4.413,4.413,0,0,1-1.226,3.265A4.232,4.232,0,0,1,90.7,17.167ZM90.694,15.9a2.654,2.654,0,0,0,2.043-.888,3.326,3.326,0,0,0,.813-2.338,3.314,3.314,0,0,0-.813-2.329,2.654,2.654,0,0,0-2.043-.888,2.617,2.617,0,0,0-2.026.888,3.336,3.336,0,0,0-.8,2.329,3.348,3.348,0,0,0,.8,2.338A2.617,2.617,0,0,0,90.694,15.9Zm10.819-7.708a3.005,3.005,0,0,1,2.175.782,2.918,2.918,0,0,1,.813,2.206V17h-1.521V11.524a2.043,2.043,0,0,0-.527-1.547,1.885,1.885,0,0,0-1.354-.5,2.09,2.09,0,0,0-1.538.593,2.407,2.407,0,0,0-.606,1.762V17H97.436V8.36h1.521V9.468A2.885,2.885,0,0,1,101.514,8.193ZM110.5,6.875,112.7,4.01l.809.589-1.969,2.276Zm.58,10.292a4.554,4.554,0,0,1-2.215-.536,3.9,3.9,0,0,1-1.56-1.569,4.819,4.819,0,0,1-.576-2.386,4.4,4.4,0,0,1,1.226-3.256,4.6,4.6,0,0,1,6.253,0,4.41,4.41,0,0,1,1.222,3.256,4.413,4.413,0,0,1-1.226,3.265A4.232,4.232,0,0,1,111.076,17.167Zm-.009-1.266a2.654,2.654,0,0,0,2.043-.888,3.326,3.326,0,0,0,.813-2.338,3.314,3.314,0,0,0-.813-2.329,2.654,2.654,0,0,0-2.043-.888,2.617,2.617,0,0,0-2.026.888,3.336,3.336,0,0,0-.8,2.329,3.348,3.348,0,0,0,.8,2.338A2.617,2.617,0,0,0,111.067,15.9Zm15.574-7.708a2.785,2.785,0,0,1,2.013.734,2.722,2.722,0,0,1,.765,2.061V17H127.9V11.384a1.952,1.952,0,0,0-.475-1.424,1.616,1.616,0,0,0-1.2-.483,1.706,1.706,0,0,0-1.318.545,2.343,2.343,0,0,0-.5,1.635V17h-1.547V11.445a2.042,2.042,0,0,0-.479-1.472,1.629,1.629,0,0,0-1.226-.5,1.69,1.69,0,0,0-1.314.558,2.424,2.424,0,0,0-.505,1.674V17h-1.521V8.36h1.521V9.477a2.625,2.625,0,0,1,.989-.949,2.82,2.82,0,0,1,1.375-.334,2.935,2.935,0,0,1,1.477.365,2.271,2.271,0,0,1,.958,1.05,2.689,2.689,0,0,1,1.037-1.05A2.966,2.966,0,0,1,126.642,8.193Zm6.5-1.863A1.035,1.035,0,0,1,132.108,5.3a.975.975,0,0,1,.3-.721,1,1,0,0,1,.725-.3.987.987,0,0,1,.716.3.975.975,0,0,1,.3.721.989.989,0,0,1-.3.725A.979.979,0,0,1,133.137,6.33ZM132.363,17V8.36h1.529V17Zm8.209.158a4.161,4.161,0,0,1-3.094-1.239,4.421,4.421,0,0,1-1.222-3.243,4.43,4.43,0,0,1,1.217-3.243,4.5,4.5,0,0,1,5.6-.483,3.815,3.815,0,0,1,1.455,2.1l-1.424.229a2.63,2.63,0,0,0-.976-1.345,2.656,2.656,0,0,0-1.564-.475,2.554,2.554,0,0,0-2,.888,3.382,3.382,0,0,0-.787,2.329A3.365,3.365,0,0,0,138.564,15a2.56,2.56,0,0,0,2,.883,2.656,2.656,0,0,0,1.564-.475,2.63,2.63,0,0,0,.976-1.345l1.424.237a3.819,3.819,0,0,1-1.463,2.1A4.185,4.185,0,0,1,140.572,17.158Zm8.191.009a2.94,2.94,0,0,1-1.894-.593,2.13,2.13,0,0,1-.743-1.771,2.517,2.517,0,0,1,.237-1.129,1.991,1.991,0,0,1,.7-.787,4.218,4.218,0,0,1,1.015-.488,9.384,9.384,0,0,1,1.314-.312l1.4-.229q.765-.141.765-.8a1.51,1.51,0,0,0-.541-1.288,2.2,2.2,0,0,0-1.367-.409,2.243,2.243,0,0,0-1.354.4,1.655,1.655,0,0,0-.642,1.213l-1.371-.29a2.639,2.639,0,0,1,1.081-1.85,4.039,4.039,0,0,1,2.355-.62,4.777,4.777,0,0,1,1.252.154,3.4,3.4,0,0,1,1.046.483,2.168,2.168,0,0,1,.747.932,3.466,3.466,0,0,1,.268,1.419v3.568a1.46,1.46,0,0,0,.2.9.854.854,0,0,0,.681.233h.141V17H153.3a1.442,1.442,0,0,1-1.635-1.169h-.07A3.3,3.3,0,0,1,148.764,17.167Zm.352-1.23a2.305,2.305,0,0,0,1.854-.835,3.438,3.438,0,0,0,.7-2.285l-2.285.439a3.076,3.076,0,0,0-1.34.479,1.114,1.114,0,0,0-.435.945,1.1,1.1,0,0,0,.417.949A1.785,1.785,0,0,0,149.115,15.937Zm9.817,1.23a4.1,4.1,0,0,1-2.329-.624,2.581,2.581,0,0,1-1.134-1.775l1.327-.378a1.851,1.851,0,0,0,.708,1.2,2.3,2.3,0,0,0,1.419.426,2.832,2.832,0,0,0,.831-.114,1.331,1.331,0,0,0,.637-.426,1.189,1.189,0,0,0,.185-1.143,1.526,1.526,0,0,0-.141-.286.87.87,0,0,0-.246-.237,3.245,3.245,0,0,0-.3-.185,3.067,3.067,0,0,0-.391-.163q-.259-.092-.417-.141t-.483-.141q-.325-.092-.5-.145a9.372,9.372,0,0,1-.9-.316,3.932,3.932,0,0,1-.729-.417,1.679,1.679,0,0,1-.567-.681,2.3,2.3,0,0,1-.189-.967,2.234,2.234,0,0,1,.422-1.38,2.374,2.374,0,0,1,1.094-.813,4.374,4.374,0,0,1,1.534-.25,3.754,3.754,0,0,1,2.1.563,2.4,2.4,0,0,1,1.05,1.688l-1.248.316a1.655,1.655,0,0,0-.659-1.094,2.1,2.1,0,0,0-1.239-.365,2.139,2.139,0,0,0-1.16.3,1.019,1.019,0,0,0-.483.927.923.923,0,0,0,.127.479,1.521,1.521,0,0,0,.259.338,1.594,1.594,0,0,0,.475.259q.343.136.51.185t.633.163q.088.026.132.035.51.132.831.233a5.105,5.105,0,0,1,.747.316,2.484,2.484,0,0,1,.672.47,2.178,2.178,0,0,1,.422.668,2.358,2.358,0,0,1,.176.932,2.516,2.516,0,0,1-.259,1.165,2.028,2.028,0,0,1-.708.8,3.422,3.422,0,0,1-1.006.435A4.8,4.8,0,0,1,158.933,17.167Z" transform="translate(-207 -2171)" fill="#00223d"/>
    <path id="Trazado_17247" data-name="Trazado 17247" d="M8.631,6.058H3.551V10.1H7.98v1.424H3.551V17H1.942V4.625H8.631Zm7.638,2.3h1.521V17H16.33l-.035-1.143a2.7,2.7,0,0,1-1.072.971,3.3,3.3,0,0,1-1.512.338,3.005,3.005,0,0,1-2.175-.782,2.918,2.918,0,0,1-.813-2.206V8.36h1.521v5.476a2.05,2.05,0,0,0,.532,1.547,1.882,1.882,0,0,0,1.358.51,2.067,2.067,0,0,0,1.534-.6,2.434,2.434,0,0,0,.6-1.767Zm12.173,4.148-.018.413h-6.75a3.053,3.053,0,0,0,.826,2.21,2.713,2.713,0,0,0,1.969.769,2.59,2.59,0,0,0,1.433-.413,2.68,2.68,0,0,0,.984-1.143l1.371.29A3.9,3.9,0,0,1,26.78,16.49a4.028,4.028,0,0,1-2.294.677,4.174,4.174,0,0,1-3.111-1.2,4.479,4.479,0,0,1-1.187-3.287A4.458,4.458,0,0,1,21.379,9.4a4.122,4.122,0,0,1,3.063-1.2,3.9,3.9,0,0,1,2.9,1.107A4.376,4.376,0,0,1,28.441,12.509Zm-4-3.146a2.694,2.694,0,0,0-1.8.611,2.8,2.8,0,0,0-.91,1.78h5.177a2.567,2.567,0,0,0-.756-1.78A2.441,2.441,0,0,0,24.442,9.362Zm7.866.519a2.612,2.612,0,0,1,1.072-1.16,3.229,3.229,0,0,1,1.661-.457V9.7a2.846,2.846,0,0,0-2.008.642,2.68,2.68,0,0,0-.69,2.048V17H30.823V8.36h1.485Zm6.214,5.889h4.605V17H36.237L40.79,9.6H36.5V8.36h6.618Zm8.4,1.4a2.94,2.94,0,0,1-1.894-.593,2.13,2.13,0,0,1-.743-1.771,2.517,2.517,0,0,1,.237-1.129,1.991,1.991,0,0,1,.7-.787,4.218,4.218,0,0,1,1.015-.488,9.384,9.384,0,0,1,1.314-.312l1.4-.229q.765-.141.765-.8a1.51,1.51,0,0,0-.541-1.288,2.2,2.2,0,0,0-1.367-.409,2.243,2.243,0,0,0-1.354.4,1.655,1.655,0,0,0-.642,1.213l-1.371-.29a2.639,2.639,0,0,1,1.081-1.85,4.039,4.039,0,0,1,2.355-.62,4.777,4.777,0,0,1,1.252.154,3.4,3.4,0,0,1,1.046.483,2.168,2.168,0,0,1,.747.932A3.466,3.466,0,0,1,51.2,11.2v3.568a1.46,1.46,0,0,0,.2.9.854.854,0,0,0,.681.233h.141V17H51.46a1.442,1.442,0,0,1-1.635-1.169h-.07A3.3,3.3,0,0,1,46.925,17.167Zm.352-1.23a2.305,2.305,0,0,0,1.854-.835,3.438,3.438,0,0,0,.7-2.285l-2.285.439a3.076,3.076,0,0,0-1.34.479,1.114,1.114,0,0,0-.435.945,1.1,1.1,0,0,0,.417.949A1.785,1.785,0,0,0,47.276,15.937Zm9.817,1.23a4.1,4.1,0,0,1-2.329-.624,2.581,2.581,0,0,1-1.134-1.775l1.327-.378a1.851,1.851,0,0,0,.708,1.2,2.3,2.3,0,0,0,1.419.426,2.832,2.832,0,0,0,.831-.114,1.331,1.331,0,0,0,.637-.426,1.189,1.189,0,0,0,.185-1.143,1.526,1.526,0,0,0-.141-.286.87.87,0,0,0-.246-.237,3.245,3.245,0,0,0-.3-.185,3.067,3.067,0,0,0-.391-.163q-.259-.092-.417-.141t-.483-.141q-.325-.092-.5-.145a9.372,9.372,0,0,1-.9-.316,3.932,3.932,0,0,1-.729-.417,1.679,1.679,0,0,1-.567-.681,2.3,2.3,0,0,1-.189-.967,2.234,2.234,0,0,1,.422-1.38,2.374,2.374,0,0,1,1.094-.813,4.374,4.374,0,0,1,1.534-.25,3.754,3.754,0,0,1,2.1.563,2.4,2.4,0,0,1,1.05,1.688l-1.248.316a1.655,1.655,0,0,0-.659-1.094,2.1,2.1,0,0,0-1.239-.365,2.139,2.139,0,0,0-1.16.3,1.019,1.019,0,0,0-.483.927.923.923,0,0,0,.127.479,1.521,1.521,0,0,0,.259.338,1.594,1.594,0,0,0,.475.259q.343.136.51.185t.633.163q.088.026.132.035.51.132.831.233a5.105,5.105,0,0,1,.747.316,2.484,2.484,0,0,1,.672.47,2.178,2.178,0,0,1,.422.668,2.358,2.358,0,0,1,.176.932,2.516,2.516,0,0,1-.259,1.165,2.028,2.028,0,0,1-.708.8,3.422,3.422,0,0,1-1.006.435A4.8,4.8,0,0,1,57.094,17.167ZM73.723,3.5h1.521V17H73.775l-.035-1.679a3.179,3.179,0,0,1-1.23,1.362,3.429,3.429,0,0,1-1.828.5,3.926,3.926,0,0,1-2.852-1.217,4.16,4.16,0,0,1-.87-1.428,5.225,5.225,0,0,1-.321-1.854,4.543,4.543,0,0,1,1.173-3.243,3.788,3.788,0,0,1,2.87-1.248,3.443,3.443,0,0,1,1.806.488A3.2,3.2,0,0,1,73.723,10ZM71,15.866a2.587,2.587,0,0,0,2.008-.91,3.283,3.283,0,0,0,.813-2.272A3.277,3.277,0,0,0,73,10.417,2.586,2.586,0,0,0,71,9.5a2.644,2.644,0,0,0-2.021.883,3.25,3.25,0,0,0-.817,2.3,3.25,3.25,0,0,0,.817,2.3A2.644,2.644,0,0,0,71,15.866Zm14.9-3.357-.018.413h-6.75a3.053,3.053,0,0,0,.826,2.21,2.713,2.713,0,0,0,1.969.769,2.59,2.59,0,0,0,1.433-.413,2.68,2.68,0,0,0,.984-1.143l1.371.29a3.9,3.9,0,0,1-1.477,1.854,4.028,4.028,0,0,1-2.294.677,4.174,4.174,0,0,1-3.111-1.2,4.479,4.479,0,0,1-1.187-3.287A4.458,4.458,0,0,1,78.833,9.4a4.122,4.122,0,0,1,3.063-1.2A3.9,3.9,0,0,1,84.8,9.3,4.376,4.376,0,0,1,85.9,12.509Zm-4-3.146a2.694,2.694,0,0,0-1.8.611,2.8,2.8,0,0,0-.91,1.78h5.177a2.567,2.567,0,0,0-.756-1.78A2.441,2.441,0,0,0,81.9,9.362ZM97.11,8.193a2.785,2.785,0,0,1,2.013.734,2.722,2.722,0,0,1,.765,2.061V17H98.367V11.384a1.952,1.952,0,0,0-.475-1.424,1.616,1.616,0,0,0-1.2-.483,1.706,1.706,0,0,0-1.318.545,2.343,2.343,0,0,0-.5,1.635V17H93.322V11.445a2.042,2.042,0,0,0-.479-1.472,1.629,1.629,0,0,0-1.226-.5,1.69,1.69,0,0,0-1.314.558,2.424,2.424,0,0,0-.505,1.674V17H88.277V8.36H89.8V9.477a2.625,2.625,0,0,1,.989-.949,2.82,2.82,0,0,1,1.375-.334,2.935,2.935,0,0,1,1.477.365,2.271,2.271,0,0,1,.958,1.05,2.689,2.689,0,0,1,1.037-1.05A2.966,2.966,0,0,1,97.11,8.193Zm9.36,8.974a4.554,4.554,0,0,1-2.215-.536,3.9,3.9,0,0,1-1.56-1.569,4.819,4.819,0,0,1-.576-2.386,4.4,4.4,0,0,1,1.226-3.256,4.6,4.6,0,0,1,6.253,0,4.41,4.41,0,0,1,1.222,3.256,4.413,4.413,0,0,1-1.226,3.265A4.232,4.232,0,0,1,106.471,17.167Zm-.009-1.266a2.654,2.654,0,0,0,2.043-.888,3.326,3.326,0,0,0,.813-2.338,3.314,3.314,0,0,0-.813-2.329,2.654,2.654,0,0,0-2.043-.888,2.617,2.617,0,0,0-2.026.888,3.336,3.336,0,0,0-.8,2.329,3.348,3.348,0,0,0,.8,2.338A2.617,2.617,0,0,0,106.462,15.9Zm13-7.541h1.477v8.2a4.706,4.706,0,0,1-1.116,3.366,4.648,4.648,0,0,1-7.286-1.468l1.257-.615a2.856,2.856,0,0,0,2.892,2A2.48,2.48,0,0,0,118.709,19a3.591,3.591,0,0,0,.7-2.355v-1.6a3.045,3.045,0,0,1-1.23,1.244,3.58,3.58,0,0,1-1.8.47,3.7,3.7,0,0,1-2.795-1.217,4.293,4.293,0,0,1-1.151-3.072A4.253,4.253,0,0,1,113.585,9.4a3.74,3.74,0,0,1,2.808-1.208,3.49,3.49,0,0,1,1.811.483,3.112,3.112,0,0,1,1.222,1.274Zm-2.742,7.1a2.614,2.614,0,0,0,1.991-.888,3.136,3.136,0,0,0,0-4.228,2.708,2.708,0,0,0-3.986-.026,3,3,0,0,0-.813,2.145,2.978,2.978,0,0,0,.822,2.131A2.634,2.634,0,0,0,116.719,15.462Zm8.8-5.581a2.612,2.612,0,0,1,1.072-1.16,3.229,3.229,0,0,1,1.661-.457V9.7a2.846,2.846,0,0,0-2.008.642,2.68,2.68,0,0,0-.69,2.048V17h-1.521V8.36h1.485Zm7.031-3.015L134.754,4l.809.589-1.969,2.276Zm-.624,10.3a2.94,2.94,0,0,1-1.894-.593,2.13,2.13,0,0,1-.743-1.771,2.517,2.517,0,0,1,.237-1.129,1.991,1.991,0,0,1,.7-.787,4.218,4.218,0,0,1,1.015-.488,9.384,9.384,0,0,1,1.314-.312l1.4-.229q.765-.141.765-.8a1.51,1.51,0,0,0-.541-1.288,2.2,2.2,0,0,0-1.367-.409,2.243,2.243,0,0,0-1.354.4,1.655,1.655,0,0,0-.642,1.213l-1.371-.29a2.639,2.639,0,0,1,1.081-1.85,4.039,4.039,0,0,1,2.355-.62,4.777,4.777,0,0,1,1.252.154,3.4,3.4,0,0,1,1.046.483,2.168,2.168,0,0,1,.747.932A3.466,3.466,0,0,1,136.2,11.2v3.568a1.46,1.46,0,0,0,.2.9.854.854,0,0,0,.681.233h.141V17h-.756a1.442,1.442,0,0,1-1.635-1.169h-.07A3.3,3.3,0,0,1,131.924,17.167Zm.352-1.23a2.305,2.305,0,0,0,1.854-.835,3.438,3.438,0,0,0,.7-2.285l-2.285.439a3.076,3.076,0,0,0-1.34.479,1.114,1.114,0,0,0-.435.945,1.1,1.1,0,0,0,.417.949A1.785,1.785,0,0,0,132.275,15.937Zm7.532-9.387a4.969,4.969,0,0,1,.092-1.006,3.264,3.264,0,0,1,.246-.76,1.806,1.806,0,0,1,.409-.549,2.4,2.4,0,0,1,.532-.374,2.639,2.639,0,0,1,.655-.22,6.146,6.146,0,0,1,.743-.11q.365-.031.839-.031V4.774h-.33q-.1,0-.316.018a2.028,2.028,0,0,0-.316.044q-.1.026-.272.088a.7.7,0,0,0-.259.149q-.088.088-.2.224a.918.918,0,0,0-.171.316,3.025,3.025,0,0,0-.1.422,3.364,3.364,0,0,0-.04.541V8.36h2V9.573h-2V17h-1.512V9.573h-1.67V8.36h1.67Zm6.047-.22A1.035,1.035,0,0,1,144.826,5.3a.975.975,0,0,1,.3-.721,1,1,0,0,1,.725-.3.987.987,0,0,1,.716.3.975.975,0,0,1,.3.721.989.989,0,0,1-.3.725A.979.979,0,0,1,145.854,6.33ZM145.081,17V8.36h1.529V17Zm8.209.158a4.161,4.161,0,0,1-3.094-1.239,4.421,4.421,0,0,1-1.222-3.243,4.43,4.43,0,0,1,1.217-3.243,4.5,4.5,0,0,1,5.6-.483,3.815,3.815,0,0,1,1.455,2.1l-1.424.229a2.63,2.63,0,0,0-.976-1.345,2.656,2.656,0,0,0-1.564-.475,2.554,2.554,0,0,0-2,.888,3.382,3.382,0,0,0-.787,2.329A3.365,3.365,0,0,0,151.282,15a2.56,2.56,0,0,0,2,.883,2.656,2.656,0,0,0,1.564-.475,2.63,2.63,0,0,0,.976-1.345l1.424.237a3.819,3.819,0,0,1-1.463,2.1A4.185,4.185,0,0,1,153.29,17.158Zm8.191.009a2.94,2.94,0,0,1-1.894-.593,2.13,2.13,0,0,1-.743-1.771,2.517,2.517,0,0,1,.237-1.129,1.991,1.991,0,0,1,.7-.787A4.218,4.218,0,0,1,160.8,12.4a9.384,9.384,0,0,1,1.314-.312l1.4-.229q.765-.141.765-.8a1.51,1.51,0,0,0-.541-1.288,2.2,2.2,0,0,0-1.367-.409,2.243,2.243,0,0,0-1.354.4,1.655,1.655,0,0,0-.642,1.213L159,10.681a2.639,2.639,0,0,1,1.081-1.85,4.039,4.039,0,0,1,2.355-.62,4.777,4.777,0,0,1,1.252.154,3.4,3.4,0,0,1,1.046.483,2.168,2.168,0,0,1,.747.932,3.466,3.466,0,0,1,.268,1.419v3.568a1.46,1.46,0,0,0,.2.9.854.854,0,0,0,.681.233h.141V17h-.756a1.442,1.442,0,0,1-1.635-1.169h-.07A3.3,3.3,0,0,1,161.481,17.167Zm.352-1.23a2.305,2.305,0,0,0,1.854-.835,3.438,3.438,0,0,0,.7-2.285l-2.285.439a3.076,3.076,0,0,0-1.34.479,1.114,1.114,0,0,0-.435.945,1.1,1.1,0,0,0,.417.949A1.785,1.785,0,0,0,161.833,15.937Zm9.817,1.23a4.1,4.1,0,0,1-2.329-.624,2.581,2.581,0,0,1-1.134-1.775l1.327-.378a1.851,1.851,0,0,0,.708,1.2,2.3,2.3,0,0,0,1.419.426,2.832,2.832,0,0,0,.831-.114,1.331,1.331,0,0,0,.637-.426,1.189,1.189,0,0,0,.185-1.143,1.526,1.526,0,0,0-.141-.286.87.87,0,0,0-.246-.237,3.245,3.245,0,0,0-.3-.185,3.067,3.067,0,0,0-.391-.163q-.259-.092-.417-.141t-.483-.141q-.325-.092-.5-.145a9.372,9.372,0,0,1-.9-.316,3.932,3.932,0,0,1-.729-.417,1.679,1.679,0,0,1-.567-.681,2.3,2.3,0,0,1-.189-.967,2.234,2.234,0,0,1,.422-1.38,2.374,2.374,0,0,1,1.094-.813,4.374,4.374,0,0,1,1.534-.25,3.754,3.754,0,0,1,2.1.563,2.4,2.4,0,0,1,1.05,1.688l-1.248.316a1.655,1.655,0,0,0-.659-1.094,2.1,2.1,0,0,0-1.239-.365,2.139,2.139,0,0,0-1.16.3,1.019,1.019,0,0,0-.483.927.923.923,0,0,0,.127.479,1.521,1.521,0,0,0,.259.338,1.594,1.594,0,0,0,.475.259q.343.136.51.185t.633.163q.088.026.132.035.51.132.831.233a5.105,5.105,0,0,1,.747.316,2.484,2.484,0,0,1,.672.47,2.178,2.178,0,0,1,.422.668,2.358,2.358,0,0,1,.176.932,2.516,2.516,0,0,1-.259,1.165,2.028,2.028,0,0,1-.708.8,3.422,3.422,0,0,1-1.006.435A4.8,4.8,0,0,1,171.65,17.167Z" transform="translate(115 -2171)" fill="#00223d"/>
    <path id="Trazado_17248" data-name="Trazado 17248" d="M8.631,6.058H3.551V10.1H7.98v1.424H3.551V17H1.942V4.625H8.631Zm7.638,2.3h1.521V17H16.33l-.035-1.143a2.7,2.7,0,0,1-1.072.971,3.3,3.3,0,0,1-1.512.338,3.005,3.005,0,0,1-2.175-.782,2.918,2.918,0,0,1-.813-2.206V8.36h1.521v5.476a2.05,2.05,0,0,0,.532,1.547,1.882,1.882,0,0,0,1.358.51,2.067,2.067,0,0,0,1.534-.6,2.434,2.434,0,0,0,.6-1.767Zm12.173,4.148-.018.413h-6.75a3.053,3.053,0,0,0,.826,2.21,2.713,2.713,0,0,0,1.969.769,2.59,2.59,0,0,0,1.433-.413,2.68,2.68,0,0,0,.984-1.143l1.371.29A3.9,3.9,0,0,1,26.78,16.49a4.028,4.028,0,0,1-2.294.677,4.174,4.174,0,0,1-3.111-1.2,4.479,4.479,0,0,1-1.187-3.287A4.458,4.458,0,0,1,21.379,9.4a4.122,4.122,0,0,1,3.063-1.2,3.9,3.9,0,0,1,2.9,1.107A4.376,4.376,0,0,1,28.441,12.509Zm-4-3.146a2.694,2.694,0,0,0-1.8.611,2.8,2.8,0,0,0-.91,1.78h5.177a2.567,2.567,0,0,0-.756-1.78A2.441,2.441,0,0,0,24.442,9.362Zm7.866.519a2.612,2.612,0,0,1,1.072-1.16,3.229,3.229,0,0,1,1.661-.457V9.7a2.846,2.846,0,0,0-2.008.642,2.68,2.68,0,0,0-.69,2.048V17H30.823V8.36h1.485Zm6.214,5.889h4.605V17H36.237L40.79,9.6H36.5V8.36h6.618Zm8.4,1.4a2.94,2.94,0,0,1-1.894-.593,2.13,2.13,0,0,1-.743-1.771,2.517,2.517,0,0,1,.237-1.129,1.991,1.991,0,0,1,.7-.787,4.218,4.218,0,0,1,1.015-.488,9.384,9.384,0,0,1,1.314-.312l1.4-.229q.765-.141.765-.8a1.51,1.51,0,0,0-.541-1.288,2.2,2.2,0,0,0-1.367-.409,2.243,2.243,0,0,0-1.354.4,1.655,1.655,0,0,0-.642,1.213l-1.371-.29a2.639,2.639,0,0,1,1.081-1.85,4.039,4.039,0,0,1,2.355-.62,4.777,4.777,0,0,1,1.252.154,3.4,3.4,0,0,1,1.046.483,2.168,2.168,0,0,1,.747.932A3.466,3.466,0,0,1,51.2,11.2v3.568a1.46,1.46,0,0,0,.2.9.854.854,0,0,0,.681.233h.141V17H51.46a1.442,1.442,0,0,1-1.635-1.169h-.07A3.3,3.3,0,0,1,46.925,17.167Zm.352-1.23a2.305,2.305,0,0,0,1.854-.835,3.438,3.438,0,0,0,.7-2.285l-2.285.439a3.076,3.076,0,0,0-1.34.479,1.114,1.114,0,0,0-.435.945,1.1,1.1,0,0,0,.417.949A1.785,1.785,0,0,0,47.276,15.937Zm9.817,1.23a4.1,4.1,0,0,1-2.329-.624,2.581,2.581,0,0,1-1.134-1.775l1.327-.378a1.851,1.851,0,0,0,.708,1.2,2.3,2.3,0,0,0,1.419.426,2.832,2.832,0,0,0,.831-.114,1.331,1.331,0,0,0,.637-.426,1.189,1.189,0,0,0,.185-1.143,1.526,1.526,0,0,0-.141-.286.87.87,0,0,0-.246-.237,3.245,3.245,0,0,0-.3-.185,3.067,3.067,0,0,0-.391-.163q-.259-.092-.417-.141t-.483-.141q-.325-.092-.5-.145a9.372,9.372,0,0,1-.9-.316,3.932,3.932,0,0,1-.729-.417,1.679,1.679,0,0,1-.567-.681,2.3,2.3,0,0,1-.189-.967,2.234,2.234,0,0,1,.422-1.38,2.374,2.374,0,0,1,1.094-.813,4.374,4.374,0,0,1,1.534-.25,3.754,3.754,0,0,1,2.1.563,2.4,2.4,0,0,1,1.05,1.688l-1.248.316a1.655,1.655,0,0,0-.659-1.094,2.1,2.1,0,0,0-1.239-.365,2.139,2.139,0,0,0-1.16.3,1.019,1.019,0,0,0-.483.927.923.923,0,0,0,.127.479,1.521,1.521,0,0,0,.259.338,1.594,1.594,0,0,0,.475.259q.343.136.51.185t.633.163q.088.026.132.035.51.132.831.233a5.105,5.105,0,0,1,.747.316,2.484,2.484,0,0,1,.672.47,2.178,2.178,0,0,1,.422.668,2.358,2.358,0,0,1,.176.932,2.516,2.516,0,0,1-.259,1.165,2.028,2.028,0,0,1-.708.8,3.422,3.422,0,0,1-1.006.435A4.8,4.8,0,0,1,57.094,17.167ZM70.1,17a2.271,2.271,0,0,1-1.687-.62,2.344,2.344,0,0,1-.615-1.727V9.573H66.032V8.36h.65a1.249,1.249,0,0,0,.954-.3,1.492,1.492,0,0,0,.277-1.015V5.478h1.415V8.36h1.986V9.573H69.328V14.5a1.31,1.31,0,0,0,.33.954,1.154,1.154,0,0,0,.866.338h.791V17Zm10.863-4.491-.018.413H74.2a3.053,3.053,0,0,0,.826,2.21,2.713,2.713,0,0,0,1.969.769,2.59,2.59,0,0,0,1.433-.413,2.68,2.68,0,0,0,.984-1.143l1.371.29A3.9,3.9,0,0,1,79.3,16.49a4.028,4.028,0,0,1-2.294.677,4.174,4.174,0,0,1-3.111-1.2,4.479,4.479,0,0,1-1.187-3.287A4.458,4.458,0,0,1,73.9,9.4a4.122,4.122,0,0,1,3.063-1.2,3.9,3.9,0,0,1,2.9,1.107A4.376,4.376,0,0,1,80.965,12.509Zm-4-3.146a2.694,2.694,0,0,0-1.8.611,2.8,2.8,0,0,0-.91,1.78h5.177a2.567,2.567,0,0,0-.756-1.78A2.441,2.441,0,0,0,76.966,9.362Zm9.967,7.8a4.161,4.161,0,0,1-3.094-1.239,4.421,4.421,0,0,1-1.222-3.243,4.43,4.43,0,0,1,1.217-3.243,4.5,4.5,0,0,1,5.6-.483,3.815,3.815,0,0,1,1.455,2.1l-1.424.229a2.63,2.63,0,0,0-.976-1.345,2.656,2.656,0,0,0-1.564-.475,2.554,2.554,0,0,0-2,.888,3.382,3.382,0,0,0-.787,2.329A3.365,3.365,0,0,0,84.924,15a2.56,2.56,0,0,0,2,.883,2.656,2.656,0,0,0,1.564-.475,2.63,2.63,0,0,0,.976-1.345l1.424.237a3.819,3.819,0,0,1-1.463,2.1A4.185,4.185,0,0,1,86.933,17.158ZM97.207,8.193a3.005,3.005,0,0,1,2.175.782,2.918,2.918,0,0,1,.813,2.206V17H98.675V11.524a2.043,2.043,0,0,0-.527-1.547,1.885,1.885,0,0,0-1.354-.5,2.09,2.09,0,0,0-1.538.593,2.407,2.407,0,0,0-.606,1.762V17H93.129V8.36h1.521V9.468A2.885,2.885,0,0,1,97.207,8.193Zm9.563,8.974a4.554,4.554,0,0,1-2.215-.536,3.9,3.9,0,0,1-1.56-1.569,4.819,4.819,0,0,1-.576-2.386,4.4,4.4,0,0,1,1.226-3.256,4.6,4.6,0,0,1,6.253,0,4.41,4.41,0,0,1,1.222,3.256,4.413,4.413,0,0,1-1.226,3.265A4.232,4.232,0,0,1,106.77,17.167Zm-.009-1.266a2.654,2.654,0,0,0,2.043-.888,3.326,3.326,0,0,0,.813-2.338,3.314,3.314,0,0,0-.813-2.329,2.654,2.654,0,0,0-2.043-.888,2.617,2.617,0,0,0-2.026.888,3.336,3.336,0,0,0-.8,2.329,3.348,3.348,0,0,0,.8,2.338A2.617,2.617,0,0,0,106.761,15.9ZM113.5,17V3.5h1.538V17Zm7.69-10.125L123.4,4.01l.809.589-1.969,2.276Zm.58,10.292a4.554,4.554,0,0,1-2.215-.536A3.9,3.9,0,0,1,118,15.062a4.819,4.819,0,0,1-.576-2.386,4.4,4.4,0,0,1,1.226-3.256,4.6,4.6,0,0,1,6.253,0,4.41,4.41,0,0,1,1.222,3.256,4.413,4.413,0,0,1-1.226,3.265A4.232,4.232,0,0,1,121.772,17.167Zm-.009-1.266a2.654,2.654,0,0,0,2.043-.888,3.326,3.326,0,0,0,.813-2.338,3.314,3.314,0,0,0-.813-2.329,2.654,2.654,0,0,0-2.043-.888,2.617,2.617,0,0,0-2.026.888,3.336,3.336,0,0,0-.8,2.329,3.348,3.348,0,0,0,.8,2.338A2.617,2.617,0,0,0,121.764,15.9Zm13-7.541h1.477v8.2a4.706,4.706,0,0,1-1.116,3.366,4.648,4.648,0,0,1-7.286-1.468l1.257-.615a2.856,2.856,0,0,0,2.892,2A2.48,2.48,0,0,0,134.011,19a3.591,3.591,0,0,0,.7-2.355v-1.6a3.045,3.045,0,0,1-1.23,1.244,3.58,3.58,0,0,1-1.8.47,3.7,3.7,0,0,1-2.795-1.217,4.293,4.293,0,0,1-1.151-3.072A4.253,4.253,0,0,1,128.887,9.4,3.74,3.74,0,0,1,131.7,8.193a3.49,3.49,0,0,1,1.811.483,3.112,3.112,0,0,1,1.222,1.274Zm-2.742,7.1a2.614,2.614,0,0,0,1.991-.888,3.136,3.136,0,0,0,0-4.228,2.708,2.708,0,0,0-3.986-.026,3,3,0,0,0-.813,2.145,2.978,2.978,0,0,0,.822,2.131A2.634,2.634,0,0,0,132.021,15.462Zm8.086-9.132A1.035,1.035,0,0,1,139.078,5.3a.975.975,0,0,1,.3-.721,1,1,0,0,1,.725-.3.987.987,0,0,1,.716.3.975.975,0,0,1,.3.721.989.989,0,0,1-.3.725A.979.979,0,0,1,140.106,6.33ZM139.333,17V8.36h1.529V17Zm8.209.158a4.161,4.161,0,0,1-3.094-1.239,4.421,4.421,0,0,1-1.222-3.243,4.43,4.43,0,0,1,1.217-3.243,4.5,4.5,0,0,1,5.6-.483,3.815,3.815,0,0,1,1.455,2.1l-1.424.229a2.63,2.63,0,0,0-.976-1.345,2.656,2.656,0,0,0-1.564-.475,2.554,2.554,0,0,0-2,.888,3.382,3.382,0,0,0-.787,2.329A3.365,3.365,0,0,0,145.534,15a2.56,2.56,0,0,0,2,.883,2.656,2.656,0,0,0,1.564-.475,2.63,2.63,0,0,0,.976-1.345l1.424.237a3.819,3.819,0,0,1-1.463,2.1A4.185,4.185,0,0,1,147.542,17.158Zm8.191.009a2.94,2.94,0,0,1-1.894-.593A2.13,2.13,0,0,1,153.1,14.8a2.517,2.517,0,0,1,.237-1.129,1.991,1.991,0,0,1,.7-.787,4.218,4.218,0,0,1,1.015-.488,9.384,9.384,0,0,1,1.314-.312l1.4-.229q.765-.141.765-.8a1.51,1.51,0,0,0-.541-1.288,2.2,2.2,0,0,0-1.367-.409,2.243,2.243,0,0,0-1.354.4,1.655,1.655,0,0,0-.642,1.213l-1.371-.29a2.639,2.639,0,0,1,1.081-1.85,4.039,4.039,0,0,1,2.355-.62,4.777,4.777,0,0,1,1.252.154,3.4,3.4,0,0,1,1.046.483,2.168,2.168,0,0,1,.747.932A3.466,3.466,0,0,1,160,11.2v3.568a1.46,1.46,0,0,0,.2.9.854.854,0,0,0,.681.233h.141V17h-.756a1.442,1.442,0,0,1-1.635-1.169h-.07A3.3,3.3,0,0,1,155.733,17.167Zm.352-1.23a2.305,2.305,0,0,0,1.854-.835,3.438,3.438,0,0,0,.7-2.285l-2.285.439a3.076,3.076,0,0,0-1.34.479,1.114,1.114,0,0,0-.435.945,1.1,1.1,0,0,0,.417.949A1.785,1.785,0,0,0,156.085,15.937Zm9.817,1.23a4.1,4.1,0,0,1-2.329-.624,2.581,2.581,0,0,1-1.134-1.775l1.327-.378a1.851,1.851,0,0,0,.708,1.2,2.3,2.3,0,0,0,1.419.426,2.832,2.832,0,0,0,.831-.114,1.331,1.331,0,0,0,.637-.426,1.189,1.189,0,0,0,.185-1.143,1.526,1.526,0,0,0-.141-.286.87.87,0,0,0-.246-.237,3.245,3.245,0,0,0-.3-.185,3.067,3.067,0,0,0-.391-.163q-.259-.092-.417-.141t-.483-.141q-.325-.092-.5-.145a9.372,9.372,0,0,1-.9-.316,3.932,3.932,0,0,1-.729-.417,1.679,1.679,0,0,1-.567-.681,2.3,2.3,0,0,1-.189-.967,2.234,2.234,0,0,1,.422-1.38,2.374,2.374,0,0,1,1.094-.813,4.374,4.374,0,0,1,1.534-.25,3.754,3.754,0,0,1,2.1.563,2.4,2.4,0,0,1,1.05,1.688l-1.248.316a1.655,1.655,0,0,0-.659-1.094,2.1,2.1,0,0,0-1.239-.365,2.139,2.139,0,0,0-1.16.3,1.019,1.019,0,0,0-.483.927.923.923,0,0,0,.127.479,1.521,1.521,0,0,0,.259.338,1.594,1.594,0,0,0,.475.259q.343.136.51.185t.633.163q.088.026.132.035.51.132.831.233a5.105,5.105,0,0,1,.747.316,2.484,2.484,0,0,1,.672.47,2.178,2.178,0,0,1,.422.668,2.358,2.358,0,0,1,.176.932,2.516,2.516,0,0,1-.259,1.165,2.028,2.028,0,0,1-.708.8,3.422,3.422,0,0,1-1.006.435A4.8,4.8,0,0,1,165.9,17.167Z" transform="translate(377 -2171)" fill="#00223d"/>
    <path id="Trazado_17249" data-name="Trazado 17249" d="M799,0H0" transform="translate(-343.5 -2211.5)" fill="none" stroke="#ff8f00" stroke-width="3"/>
    <path id="Trazado_17250" data-name="Trazado 17250" d="M0,0H25" transform="translate(455 -2212) rotate(90)" fill="none" stroke="#ff8f00" stroke-width="3"/>
    <path id="Trazado_17251" data-name="Trazado 17251" d="M0,0H25" transform="translate(198 -2212) rotate(90)" fill="none" stroke="#ff8f00" stroke-width="3"/>
    <path id="Trazado_17252" data-name="Trazado 17252" d="M0,0H25" transform="translate(-125 -2212) rotate(90)" fill="none" stroke="#ff8f00" stroke-width="3"/>
    <path id="Trazado_17253" data-name="Trazado 17253" d="M0,0H25" transform="translate(-344 -2212) rotate(90)" fill="none" stroke="#ff8f00" stroke-width="3"/>
    <path id="Trazado_17254" data-name="Trazado 17254" d="M0,0V70" transform="translate(-251 -2212)" fill="none" stroke="#ff8f00" stroke-width="3"/>
    <path id="Trazado_17255" data-name="Trazado 17255" d="M0,0V70" transform="translate(37 -2212)" fill="none" stroke="#ff8f00" stroke-width="3"/>
    <path id="Trazado_17256" data-name="Trazado 17256" d="M0,0V70" transform="translate(340 -2212)" fill="none" stroke="#ff8f00" stroke-width="3"/>
    <path id="Trazado_17257" data-name="Trazado 17257" d="M0,0H950V77H0Z" transform="translate(-400 -2079)" fill="#eef0f2"/>
    <path id="Trazado_17258" data-name="Trazado 17258" d="M20.519,17.176a6.9,6.9,0,0,1-3.335-.8,5.766,5.766,0,0,1-2.316-2.29,6.886,6.886,0,0,1-.844-3.445,6.879,6.879,0,0,1,.844-3.45,5.744,5.744,0,0,1,2.316-2.281,6.935,6.935,0,0,1,3.335-.791,6.909,6.909,0,0,1,3.331.791A5.752,5.752,0,0,1,26.162,7.2a6.879,6.879,0,0,1,.844,3.45,6.886,6.886,0,0,1-.844,3.445,5.766,5.766,0,0,1-2.316,2.29A6.885,6.885,0,0,1,20.519,17.176Zm-2.777-3.529a3.723,3.723,0,0,0,2.777,1.112A3.723,3.723,0,0,0,23.3,13.647a4.1,4.1,0,0,0,1.09-3A4.075,4.075,0,0,0,23.3,7.657,3.73,3.73,0,0,0,20.519,6.55a3.73,3.73,0,0,0-2.777,1.107,4.075,4.075,0,0,0-1.09,2.988A4.1,4.1,0,0,0,17.742,13.647ZM34.4,7.789a4.394,4.394,0,0,1,1.688.325,4.223,4.223,0,0,1,1.384.914,4.135,4.135,0,0,1,.936,1.49,5.531,5.531,0,0,1,.343,1.982,5.531,5.531,0,0,1-.343,1.982,4.135,4.135,0,0,1-.936,1.49,4.223,4.223,0,0,1-1.384.914,4.394,4.394,0,0,1-1.687.325,3.921,3.921,0,0,1-1.635-.334,2.562,2.562,0,0,1-1.134-.949v5.467H29.1V7.965h2.4l.07,1.213A2.475,2.475,0,0,1,32.7,8.154,3.881,3.881,0,0,1,34.4,7.789Zm-.571,7.321a2.274,2.274,0,0,0,1.709-.708,2.628,2.628,0,0,0,.681-1.9,2.628,2.628,0,0,0-.681-1.9,2.419,2.419,0,0,0-3.432.013,2.629,2.629,0,0,0-.686,1.89,2.629,2.629,0,0,0,.686,1.89A2.278,2.278,0,0,0,33.826,15.11Zm11.039,2.065a5.681,5.681,0,0,1-2.558-.554A4.138,4.138,0,0,1,40.554,15a4.846,4.846,0,0,1-.637-2.522,4.42,4.42,0,0,1,1.371-3.428,5.086,5.086,0,0,1,3.577-1.257,5.1,5.1,0,0,1,3.586,1.257,4.42,4.42,0,0,1,1.371,3.428,4.444,4.444,0,0,1-1.371,3.441A5.088,5.088,0,0,1,44.865,17.176Zm-.026-2.013a2.319,2.319,0,0,0,1.789-.738,2.764,2.764,0,0,0,.681-1.951,2.764,2.764,0,0,0-.681-1.951,2.319,2.319,0,0,0-1.789-.738,2.234,2.234,0,0,0-1.736.743,2.789,2.789,0,0,0-.672,1.947A2.789,2.789,0,0,0,43.1,14.42,2.234,2.234,0,0,0,44.838,15.163ZM54.128,9.4a2.933,2.933,0,0,1,1.187-1.085,3.62,3.62,0,0,1,1.767-.453v2.259a3.423,3.423,0,0,0-2.162.545,2.379,2.379,0,0,0-.668,1.934V17H51.7V7.965h2.426ZM62.452,17a2.729,2.729,0,0,1-2.039-.734,2.854,2.854,0,0,1-.721-2.087V9.907H57.917V7.965h.571a1.491,1.491,0,0,0,1.125-.378,1.946,1.946,0,0,0,.36-1.345v-1.2h2.285V7.965h1.863V9.907H62.258v4q0,1.169,1.046,1.169h.817V17Zm9.615-9.035H74.6V17H72.2l-.062-1.09a3.45,3.45,0,0,1-2.874,1.266,3.522,3.522,0,0,1-2.5-.813,3.014,3.014,0,0,1-.87-2.316V7.965h2.54V13.5a1.562,1.562,0,0,0,.453,1.239,1.718,1.718,0,0,0,1.173.4,2.038,2.038,0,0,0,1.437-.514,2.209,2.209,0,0,0,.567-1.674Zm10.485-.176a3.522,3.522,0,0,1,2.5.813,3.014,3.014,0,0,1,.87,2.316V17h-2.54V11.463a1.574,1.574,0,0,0-.453-1.248,1.705,1.705,0,0,0-1.165-.4,2.379,2.379,0,0,0-.756.114,1.942,1.942,0,0,0-.633.356,1.573,1.573,0,0,0-.453.681,3.15,3.15,0,0,0-.171,1.046V17H77.217V7.965h2.531v1A3.481,3.481,0,0,1,82.552,7.789Zm7.11-1.178a1.421,1.421,0,0,1-1.037-.426,1.4,1.4,0,0,1-.431-1.033,1.382,1.382,0,0,1,.435-1.024A1.425,1.425,0,0,1,89.663,3.7a1.463,1.463,0,0,1,1.45,1.45,1.463,1.463,0,0,1-1.45,1.459ZM88.371,17V7.965h2.549V17ZM99.946,3.5h2.531V17h-2.4l-.062-1.178a2.58,2.58,0,0,1-1.147,1.024,3.861,3.861,0,0,1-1.692.365,4.394,4.394,0,0,1-1.687-.325,4.064,4.064,0,0,1-2.32-2.408,5.5,5.5,0,0,1-.343-1.978,5.137,5.137,0,0,1,.6-2.518A4.1,4.1,0,0,1,95,8.343a4.345,4.345,0,0,1,2.175-.554,3.957,3.957,0,0,1,1.639.33,2.559,2.559,0,0,1,1.129.936ZM97.757,15.11a2.253,2.253,0,0,0,1.709-.721,2.638,2.638,0,0,0,.681-1.89,2.644,2.644,0,0,0-.686-1.894,2.251,2.251,0,0,0-1.705-.725,2.277,2.277,0,0,0-1.718.712,2.644,2.644,0,0,0-.681,1.907,2.631,2.631,0,0,0,.681,1.9A2.277,2.277,0,0,0,97.757,15.11Zm14.748-.562a8.453,8.453,0,0,0,.22,2.206V17h-2.364l-.2-.984a2.938,2.938,0,0,1-1.266.87,4.664,4.664,0,0,1-1.635.29,4.3,4.3,0,0,1-.844-.079,2.868,2.868,0,0,1-.76-.268,2.307,2.307,0,0,1-.628-.47,2.062,2.062,0,0,1-.422-.716,2.853,2.853,0,0,1-.158-.98,2.718,2.718,0,0,1,.167-.98,2.3,2.3,0,0,1,.439-.734,2.666,2.666,0,0,1,.712-.536,5.447,5.447,0,0,1,.9-.387,10.712,10.712,0,0,1,1.072-.281l1.485-.334a1.638,1.638,0,0,0,.672-.286.57.57,0,0,0,.2-.453.932.932,0,0,0-.444-.87,2.073,2.073,0,0,0-1.077-.264,1.549,1.549,0,0,0-1.767,1.38l-2.241-.4a3.034,3.034,0,0,1,1.31-2.061,5.2,5.2,0,0,1,2.839-.664q3.8,0,3.8,3.261Zm-4.456.914a2.036,2.036,0,0,0,1.564-.655,2.759,2.759,0,0,0,.606-1.938l-2.145.606a2.534,2.534,0,0,0-.9.369.758.758,0,0,0-.312.65.842.842,0,0,0,.334.716A1.382,1.382,0,0,0,108.049,15.462ZM121.171,3.5H123.7V17h-2.4l-.062-1.178a2.58,2.58,0,0,1-1.147,1.024,3.861,3.861,0,0,1-1.692.365,4.394,4.394,0,0,1-1.687-.325,4.064,4.064,0,0,1-2.32-2.408,5.5,5.5,0,0,1-.343-1.978,5.137,5.137,0,0,1,.6-2.518,4.1,4.1,0,0,1,1.578-1.639,4.345,4.345,0,0,1,2.175-.554,3.957,3.957,0,0,1,1.639.33,2.559,2.559,0,0,1,1.129.936Zm-2.188,11.61a2.253,2.253,0,0,0,1.709-.721,2.638,2.638,0,0,0,.681-1.89,2.644,2.644,0,0,0-.686-1.894,2.251,2.251,0,0,0-1.705-.725,2.277,2.277,0,0,0-1.718.712,2.644,2.644,0,0,0-.681,1.907,2.631,2.631,0,0,0,.681,1.9A2.277,2.277,0,0,0,118.983,15.11Zm15.838-2.76-.026.606h-6.7a2.339,2.339,0,0,0,.721,1.652,2.3,2.3,0,0,0,1.591.571,2.221,2.221,0,0,0,1.191-.312,1.918,1.918,0,0,0,.76-.91l2.32.343A3.945,3.945,0,0,1,133.1,16.42a4.7,4.7,0,0,1-2.672.756,4.891,4.891,0,0,1-3.52-1.244,4.538,4.538,0,0,1-1.305-3.45,4.565,4.565,0,0,1,1.31-3.45,4.746,4.746,0,0,1,3.437-1.261,4.536,4.536,0,0,1,3.243,1.151A4.517,4.517,0,0,1,134.821,12.351Zm-4.456-2.786a2,2,0,0,0-2.2,1.74h4.148a1.9,1.9,0,0,0-.624-1.292A1.978,1.978,0,0,0,130.365,9.564Zm9.563,7.611a5.049,5.049,0,0,1-2.637-.633A2.675,2.675,0,0,1,136,14.662l2.118-.6a1.7,1.7,0,0,0,1.811,1.345,1.87,1.87,0,0,0,.923-.207.719.719,0,0,0,.36-.7.739.739,0,0,0-.149-.466,1.183,1.183,0,0,0-.461-.334,5.749,5.749,0,0,0-.615-.237q-.3-.1-.8-.233t-.835-.259a5.593,5.593,0,0,1-.8-.338,3.393,3.393,0,0,1-.659-.466,1.878,1.878,0,0,1-.492-.708,2.552,2.552,0,0,1-.171-.967,2.308,2.308,0,0,1,.98-2.021,4.379,4.379,0,0,1,2.562-.686,4.489,4.489,0,0,1,2.364.58,2.625,2.625,0,0,1,1.213,1.811l-1.96.439a1.535,1.535,0,0,0-1.608-1.143,1.761,1.761,0,0,0-.888.2.649.649,0,0,0-.352.6.685.685,0,0,0,.053.272.539.539,0,0,0,.185.22,2.692,2.692,0,0,0,.255.167,1.923,1.923,0,0,0,.36.145q.237.075.4.114l.461.119.47.123q.483.132.848.264a4.967,4.967,0,0,1,.778.369,2.792,2.792,0,0,1,.681.532,2.372,2.372,0,0,1,.444.747,2.759,2.759,0,0,1,.176,1.006,2.718,2.718,0,0,1-.3,1.31,2.276,2.276,0,0,1-.831.883,4.043,4.043,0,0,1-1.173.475A6.087,6.087,0,0,1,139.927,17.176Zm16.128-9.211h2.593l-5.572,13.289h-2.566l2.065-4.623-3.718-8.666h2.76l2.153,5.941Zm16.014,6.583a8.453,8.453,0,0,0,.22,2.206V17h-2.364l-.2-.984a2.938,2.938,0,0,1-1.266.87,4.664,4.664,0,0,1-1.635.29,4.3,4.3,0,0,1-.844-.079,2.868,2.868,0,0,1-.76-.268,2.307,2.307,0,0,1-.628-.47,2.062,2.062,0,0,1-.422-.716,2.853,2.853,0,0,1-.158-.98,2.718,2.718,0,0,1,.167-.98,2.3,2.3,0,0,1,.439-.734,2.666,2.666,0,0,1,.712-.536,5.447,5.447,0,0,1,.9-.387,10.712,10.712,0,0,1,1.072-.281l1.485-.334a1.638,1.638,0,0,0,.672-.286.57.57,0,0,0,.2-.453.932.932,0,0,0-.444-.87,2.073,2.073,0,0,0-1.077-.264,1.549,1.549,0,0,0-1.767,1.38l-2.241-.4a3.034,3.034,0,0,1,1.31-2.061,5.2,5.2,0,0,1,2.839-.664q3.8,0,3.8,3.261Zm-4.456.914a2.036,2.036,0,0,0,1.564-.655,2.759,2.759,0,0,0,.606-1.938l-2.145.606a2.534,2.534,0,0,0-.9.369.758.758,0,0,0-.312.65.842.842,0,0,0,.334.716A1.382,1.382,0,0,0,167.613,15.462Zm17.622-7.673a3.452,3.452,0,0,1,2.329.734,2.626,2.626,0,0,1,.853,2.1V17h-2.531V11.349a1.509,1.509,0,0,0-.4-1.143,1.416,1.416,0,0,0-1.02-.387,1.633,1.633,0,0,0-1.23.492,2.235,2.235,0,0,0-.475,1.591V17H180.2V11.375a1.549,1.549,0,0,0-.4-1.165,1.441,1.441,0,0,0-1.046-.391,1.581,1.581,0,0,0-1.222.519,2.476,2.476,0,0,0-.475,1.7V17H174.53V7.965h2.522V9.028a3.072,3.072,0,0,1,2.619-1.239,3.863,3.863,0,0,1,1.7.347,2.315,2.315,0,0,1,1.068,1.006A3.2,3.2,0,0,1,185.235,7.789Zm14.142,4.562-.026.606h-6.7a2.339,2.339,0,0,0,.721,1.652,2.3,2.3,0,0,0,1.591.571,2.221,2.221,0,0,0,1.191-.312,1.918,1.918,0,0,0,.76-.91l2.32.343a3.945,3.945,0,0,1-1.582,2.118,4.7,4.7,0,0,1-2.672.756,4.891,4.891,0,0,1-3.52-1.244,4.538,4.538,0,0,1-1.305-3.45,4.565,4.565,0,0,1,1.31-3.45A4.746,4.746,0,0,1,194.9,7.771a4.536,4.536,0,0,1,3.243,1.151A4.517,4.517,0,0,1,199.376,12.351ZM194.92,9.564a2,2,0,0,0-2.2,1.74h4.148a1.9,1.9,0,0,0-.624-1.292A1.978,1.978,0,0,0,194.92,9.564Zm11.716-1.775a3.522,3.522,0,0,1,2.5.813,3.014,3.014,0,0,1,.87,2.316V17h-2.54V11.463a1.574,1.574,0,0,0-.453-1.248,1.705,1.705,0,0,0-1.165-.4,2.379,2.379,0,0,0-.756.114,1.942,1.942,0,0,0-.633.356,1.573,1.573,0,0,0-.453.681,3.15,3.15,0,0,0-.171,1.046V17H201.3V7.965h2.531v1A3.481,3.481,0,0,1,206.636,7.789Zm12.41.176-3.973,7.084h3.85V17h-7.444l3.955-7.084h-3.647V7.965Zm8.833,6.583a8.453,8.453,0,0,0,.22,2.206V17h-2.364l-.2-.984a2.938,2.938,0,0,1-1.266.87,4.664,4.664,0,0,1-1.635.29,4.3,4.3,0,0,1-.844-.079,2.868,2.868,0,0,1-.76-.268,2.307,2.307,0,0,1-.628-.47,2.062,2.062,0,0,1-.422-.716,2.853,2.853,0,0,1-.158-.98,2.718,2.718,0,0,1,.167-.98,2.3,2.3,0,0,1,.439-.734,2.666,2.666,0,0,1,.712-.536,5.447,5.447,0,0,1,.9-.387,10.712,10.712,0,0,1,1.072-.281l1.485-.334a1.638,1.638,0,0,0,.672-.286.57.57,0,0,0,.2-.453.932.932,0,0,0-.444-.87,2.073,2.073,0,0,0-1.077-.264,1.549,1.549,0,0,0-1.767,1.38l-2.241-.4a3.034,3.034,0,0,1,1.31-2.061,5.2,5.2,0,0,1,2.839-.664q3.8,0,3.8,3.261Zm-4.456.914a2.036,2.036,0,0,0,1.564-.655,2.759,2.759,0,0,0,.606-1.938l-2.145.606a2.534,2.534,0,0,0-.9.369.758.758,0,0,0-.312.65.842.842,0,0,0,.334.716A1.382,1.382,0,0,0,223.423,15.462Zm10.1,1.714a5.049,5.049,0,0,1-2.637-.633,2.675,2.675,0,0,1-1.292-1.881l2.118-.6a1.7,1.7,0,0,0,1.811,1.345,1.87,1.87,0,0,0,.923-.207.719.719,0,0,0,.36-.7.739.739,0,0,0-.149-.466,1.183,1.183,0,0,0-.461-.334,5.749,5.749,0,0,0-.615-.237q-.3-.1-.8-.233t-.835-.259a5.593,5.593,0,0,1-.8-.338,3.393,3.393,0,0,1-.659-.466,1.878,1.878,0,0,1-.492-.708,2.552,2.552,0,0,1-.171-.967,2.308,2.308,0,0,1,.98-2.021,4.379,4.379,0,0,1,2.562-.686,4.489,4.489,0,0,1,2.364.58,2.625,2.625,0,0,1,1.213,1.811l-1.96.439a1.535,1.535,0,0,0-1.608-1.143,1.761,1.761,0,0,0-.888.2.649.649,0,0,0-.352.6.685.685,0,0,0,.053.272.539.539,0,0,0,.185.22,2.692,2.692,0,0,0,.255.167,1.923,1.923,0,0,0,.36.145q.237.075.4.114l.461.119.47.123q.483.132.848.264a4.967,4.967,0,0,1,.778.369,2.792,2.792,0,0,1,.681.532,2.372,2.372,0,0,1,.444.747,2.759,2.759,0,0,1,.176,1.006,2.718,2.718,0,0,1-.3,1.31,2.276,2.276,0,0,1-.831.883,4.043,4.043,0,0,1-1.173.475A6.087,6.087,0,0,1,233.522,17.176Z" transform="translate(-50 -2055)" fill="#00223d"/>
    <path id="Trazado_17259" data-name="Trazado 17259" d="M0,0H25" transform="translate(55 -2237) rotate(90)" fill="none" stroke="#ff8f00" stroke-width="3"/>
  </g>
</svg>
