<svg xmlns="http://www.w3.org/2000/svg" width="252.93" height="231" viewBox="0 0 252.93 231">
  <g id="Grupo_18041" data-name="Grupo 18041" transform="translate(-733.203 -308.586)">
    <g id="Grupo_12686" data-name="Grupo 12686" transform="translate(811.656 308.586)">
      <path id="Trazado_12097" data-name="Trazado 12097" d="M886.008,479.635c0,4.7-8.559,8.506-19.117,8.506s-19.116-3.809-19.116-8.506,8.559-8.505,19.116-8.505S886.008,474.938,886.008,479.635Z" transform="translate(-847.775 -359.828)" fill="#9daad3"/>
      <g id="Grupo_12685" data-name="Grupo 12685" transform="translate(1.128)">
        <g id="Grupo_12667" data-name="Grupo 12667" transform="translate(22.018 114.48)">
          <g id="Grupo_12666" data-name="Grupo 12666">
            <path id="Trazado_12098" data-name="Trazado 12098" d="M883.987,479.192a10.416,10.416,0,0,0,3.576,2.085,3.053,3.053,0,0,0,2.981-.772.57.57,0,0,0-.087-.873c-3.957-3.008-5.142-3.861-5.142-3.861h-3.632a8.294,8.294,0,0,0-.079,2.049,3.143,3.143,0,0,0,1.993,1.207c.075.013.214-.1.285-.068Z" transform="translate(-881.577 -475.772)" fill="#17181c"/>
          </g>
          <path id="Trazado_12099" data-name="Trazado 12099" d="M890.475,480.258a1.026,1.026,0,0,1-.076.249,1.988,1.988,0,0,1-1.839.92,5.319,5.319,0,0,1-2.262-.767,10.058,10.058,0,0,1-1.873-1.271,5.636,5.636,0,0,0-1.417-.708,7.22,7.22,0,0,1-1.428-.963c0,.392.025.717.025.717a3.142,3.142,0,0,0,1.993,1.207c.075.013.214-.1.285-.068l.1.231a10.414,10.414,0,0,0,3.576,2.085,3.053,3.053,0,0,0,2.981-.772A.569.569,0,0,0,890.475,480.258Z" transform="translate(-881.578 -476.385)"/>
        </g>
        <g id="Grupo_12668" data-name="Grupo 12668" transform="translate(16.579 55.174)">
          <path id="Trazado_12100" data-name="Trazado 12100" d="M878.778,419.009c4.039,4.46,5.64-.258,5.64-.258l.5-27.412c.052.407.186-2.766-4.913-2.078s-6.373,2.667-6.373,2.667,2.8,18.935,5.145,27.082" transform="translate(-873.634 -389.162)" fill="#e69376"/>
          <path id="Trazado_12101" data-name="Trazado 12101" d="M885.907,430.842s-2.05,28.87-2.217,29.883c0,0-2.491.551-2.5-.023-.027-1.383-2.873-18.277-2.91-20.45-.092-5.5,1.326-6.541,2.74-10.247C881.018,430,885.918,426.383,885.907,430.842Z" transform="translate(-875.097 -401.6)" fill="#e69376"/>
        </g>
        <g id="Grupo_12670" data-name="Grupo 12670" transform="translate(16.579 55.174)">
          <g id="Grupo_12669" data-name="Grupo 12669">
            <path id="Trazado_12102" data-name="Trazado 12102" d="M877.846,419.191c-2.347-8.146-4.212-27.264-4.212-27.264s1.287-1.982,6.373-2.667,4.965,2.486,4.913,2.078a178.606,178.606,0,0,1-.475,27.065S880.977,421.171,877.846,419.191Z" transform="translate(-873.634 -389.162)" fill="#0b152a"/>
            <path id="Trazado_12103" data-name="Trazado 12103" d="M881.147,432.631c4.039,4.46,5.64-.258,5.64-.258" transform="translate(-876.002 -402.784)" fill="#0b152a"/>
            <path id="Trazado_12104" data-name="Trazado 12104" d="M885.1,460.357c.6-.837.809-29.815.809-29.815.01-4.459-5.481-2.4-5.481-2.4a26.752,26.752,0,0,0-2.149,11.814c.036,2.173,1.489,19.419,1.517,20.8C879.794,460.754,883.392,462.751,885.1,460.357Z" transform="translate(-875.096 -401.3)" fill="#0b152a"/>
          </g>
        </g>
        <path id="Trazado_12105" data-name="Trazado 12105" d="M873.373,383.49a9.68,9.68,0,0,0,0,9.348c2.731,4.942,11.07,3.14,11.095-3.259C884.493,383.257,878.739,380.84,873.373,383.49Z" transform="translate(-856.59 -331.865)" fill="#0b152a"/>
        <path id="Trazado_12106" data-name="Trazado 12106" d="M866.414,370.065c-.722,2.565-3.695,12.354-3.695,12.354,10.647,12.738,18.667,1.592,18.773.43.127-1.39-1.425-6.7-1.707-12.427C879.785,370.421,876.882,365.952,866.414,370.065Z" transform="translate(-853.614 -327.419)" fill="#f6a382"/>
        <path id="Trazado_12107" data-name="Trazado 12107" d="M881.422,389.422c.5-3.431-.542-6.891-1.081-10.357h-15.6c-1,3.324-2.035,6.739-2.035,6.739s-.667,7.864,6.011,8.807C868.722,394.611,880.361,396.628,881.422,389.422Z" transform="translate(-853.606 -330.805)" fill="#0b152a"/>
        <g id="Grupo_12671" data-name="Grupo 12671" transform="translate(7.533 55.94)">
          <path id="Trazado_12108" data-name="Trazado 12108" d="M863.682,419.96c3.334,5.01,5.616.582,5.616.582l5.408-26.705c-.008.41-.162-3.479-5.307-3.555s-6.7,1.694-6.7,1.694-.134,19.581.981,27.984" transform="translate(-861.14 -390.28)" fill="#f6a382"/>
          <path id="Trazado_12109" data-name="Trazado 12109" d="M868.659,432.845s-5.356,30.421-5.671,31.4c0,0-2.546.177-2.472-.393.177-1.372-.282-20.555,0-22.71.723-5.454,1.48-6.393,3.428-9.848C863.947,431.293,869.33,428.435,868.659,432.845Z" transform="translate(-860.423 -402.922)" fill="#f6a382"/>
        </g>
        <g id="Grupo_12672" data-name="Grupo 12672" transform="translate(6.88 116.05)">
          <path id="Trazado_12110" data-name="Trazado 12110" d="M862.93,478.688l1.506,4.595s-.311,4.113-3.609,1.564l-.982-.953a1.051,1.051,0,0,1-.355-1.009l.294-1.76.35-2.436S862.2,477.286,862.93,478.688Z" transform="translate(-859.47 -478.065)" fill="#17181c"/>
          <path id="Trazado_12111" data-name="Trazado 12111" d="M860.827,486.431l-.982-.952a1.025,1.025,0,0,1-.338-.527l-.017.1a1.051,1.051,0,0,0,.355,1.009l.982.952c3.3,2.549,3.609-1.564,3.609-1.564l-.058-.179C864.193,486.246,863.466,488.47,860.827,486.431Z" transform="translate(-859.47 -480.236)"/>
        </g>
        <g id="Grupo_12674" data-name="Grupo 12674" transform="translate(6.38 53.093)">
          <g id="Grupo_12673" data-name="Grupo 12673">
            <path id="Trazado_12112" data-name="Trazado 12112" d="M863.1,433.778" transform="translate(-860.114 -401.146)" fill="#151f34"/>
            <path id="Trazado_12113" data-name="Trazado 12113" d="M862.833,418.755c-1.115-8.4-.259-30.725-.259-30.725s1.333-1.98,6.464-1.9,6.2,5.934,6.207,5.522c0,0-4.328,22.862-6.207,28.375C869.038,420.023,865.861,422.738,862.833,418.755Z" transform="translate(-859.85 -386.123)" fill="#151f34"/>
            <path id="Trazado_12114" data-name="Trazado 12114" d="M863.727,463.528c.315-.977,4.524-31.324,4.524-31.324.052-4.122-5.372-3.111-5.372-3.111-1.948,3.455-2.4,5.07-3.124,10.525-.286,2.154-.838,22.08-1.015,23.451A5.537,5.537,0,0,0,863.727,463.528Z" transform="translate(-858.74 -399.635)" fill="#151f34"/>
          </g>
        </g>
        <g id="Grupo_12676" data-name="Grupo 12676" transform="translate(24.456 19.232)">
          <path id="Trazado_12115" data-name="Trazado 12115" d="M885.239,341.532s1.875,13.318,3.718,18.5c0,0,3.035.649,4.019-1.07,0,0-.338-11.385-.733-18.242C892.243,340.724,888.5,336.509,885.239,341.532Z" transform="translate(-885.17 -337.428)" fill="#e69376"/>
          <path id="Trazado_12116" data-name="Trazado 12116" d="M894.624,367.23s.652,10.988,1.291,15.294c0,0-.531,1.2-1.25.31-1.2-1.492-4.8-15.018-4.109-15.864C893.767,363.023,894.624,367.23,894.624,367.23Z" transform="translate(-886.819 -345.691)" fill="#e69376"/>
          <path id="Trazado_12117" data-name="Trazado 12117" d="M890.815,342.975a3.551,3.551,0,0,1-4.958-.654,3.5,3.5,0,0,1,.683-4.925,3.55,3.55,0,0,1,4.958.655A3.5,3.5,0,0,1,890.815,342.975Z" transform="translate(-885.138 -336.672)" fill="#e69376"/>
          <g id="Grupo_12675" data-name="Grupo 12675" transform="translate(7.388 35.533)">
            <path id="Trazado_12118" data-name="Trazado 12118" d="M896.685,393.54l.528,1.528-.522,2.256s.452.273.751-.491l.492-1.872-.448-1.748Z" transform="translate(-896.166 -390.03)" fill="#e69376"/>
            <path id="Trazado_12119" data-name="Trazado 12119" d="M897.443,394.18l.613,1.5-.4,2.281s.466.248.722-.531l.386-1.9-.544-1.721Z" transform="translate(-896.405 -390.217)" fill="#e69376"/>
            <path id="Trazado_12120" data-name="Trazado 12120" d="M898.787,392.545l-.627-1.773-.74-2.208-1.456.071-.037,2.481.116,1.278.18,1.741.028.568s.471.06.651-.887l.058-1.684.853,1.154-.1,2.329s.352,1.139.619.635l.583-3.352Z" transform="translate(-895.927 -388.564)" fill="#e69376"/>
          </g>
        </g>
        <path id="Trazado_12121" data-name="Trazado 12121" d="M889.526,336.654a4.65,4.65,0,0,1,3.377,4.459l.519,13.379a12.554,12.554,0,0,1-7.351,1.765S881.287,338.39,889.526,336.654Z" transform="translate(-860.541 -317.434)" fill="#00b8c4"/>
        <path id="Trazado_12122" data-name="Trazado 12122" d="M886.635,317.513a3.849,3.849,0,0,0,1.173-2.048c-.012-.171-.181-.305-.181-.52s.1-.307.177-.486a2.111,2.111,0,0,0,.2-1.029c0-.312.058-.924-.154-1.172-.316-.37-.946-.067-1.278.131-.69.411-1.078,1.078-1.792,1.472a2.869,2.869,0,0,0-1.143,1.324c-.429.736-.787,2.1.129,2.656A2.647,2.647,0,0,0,886.635,317.513Z" transform="translate(-860.069 -309.689)" fill="#3b2314"/>
        <path id="Trazado_12123" data-name="Trazado 12123" d="M863.931,437.342" transform="translate(-853.996 -349.177)" fill="#f6a382"/>
        <path id="Trazado_12124" data-name="Trazado 12124" d="M874.162,325.24s-.627-1.206-2.011-3.521c0,0-2.944-3.024-1.294-6.824,0,0,.906-3.178,6.463-2.716C877.319,312.179,877.852,320.926,874.162,325.24Z" transform="translate(-856.021 -309.704)" fill="#f79f7d"/>
        <path id="Trazado_12125" data-name="Trazado 12125" d="M875.106,324.042s.935,8.718-1.059,9.377l7.11-.423s-1.117-2.634.182-4.577Z" transform="translate(-857.185 -313.458)" fill="#f6a382"/>
        <path id="Trazado_12126" data-name="Trazado 12126" d="M881.253,331.473c-.118-1.992.133-2.4.573-3.054l-6.233-4.377a42.484,42.484,0,0,1,.2,5.369A6.746,6.746,0,0,0,881.253,331.473Z" transform="translate(-857.673 -313.458)" fill="#e0856e"/>
        <path id="Trazado_12127" data-name="Trazado 12127" d="M882.024,336.325c1.583,1.157,1.765,3.923,1.2,5.651-.649,1.984-.907,4.516-1.556,7.386-.881,3.889-1.478,6.884-2.459,10.746-.812,3.194-13.647.621-13.647.621l-4.6-15.72s-.792-4.1,2.926-5.469a55.654,55.654,0,0,1,6.783-3.085,12.357,12.357,0,0,1,6.048-.778A30,30,0,0,1,882.024,336.325Z" transform="translate(-853.038 -317.105)" fill="#f6a382"/>
        <path id="Trazado_12128" data-name="Trazado 12128" d="M882.217,325.89l.3-.986.749-3.645a3.707,3.707,0,0,0-.058-1.515,3.709,3.709,0,0,1-.129-1.555,4.518,4.518,0,0,0-.974-3.974c-1.628-2.315-5.2-2.133-5.2-2.133a4.985,4.985,0,0,0-4.566,4.737c-.575,2.881,1.808,5.137,1.813,5.141.19.179.144,1.122.213,1.385a3.782,3.782,0,0,0,2.4,2.2,10.648,10.648,0,0,0,3.58,1.021C880.786,326.585,882.047,326.455,882.217,325.89Z" transform="translate(-856.616 -309.687)" fill="#f79f7d"/>
        <path id="Trazado_12129" data-name="Trazado 12129" d="M874.9,315.73c1.321-1.617,3.865-.155,5.5-1.153.765-.464.753-1.3,1.752-1.3,2.132,0,1.88-2.3.7-2.963a3.93,3.93,0,0,0-.719.03c-.591.068-.974.325-1.569.112a16.624,16.624,0,0,1-1.745-.943,6.212,6.212,0,0,0-2.4-.924c-1.074-.049-1.415.735-2.21,1.25a7.9,7.9,0,0,1-1.769.514,14.98,14.98,0,0,0-2.439,1.319c-.555.327-1.313.763-1.234,1.515.074.714.8.876.578,1.651a6.4,6.4,0,0,0,.37,4,11.924,11.924,0,0,0,1.036,2.278,8.982,8.982,0,0,0,1.706,1.888,7.455,7.455,0,0,1,1.208,1.115c.042-1.757-.312-1.613.149-2.487.179-.34-.019-.626-.145-.963s-.42-.616-.375-.982c.228.073.444.1.568,0,.217-.183.04-.792.077-1.03a7.573,7.573,0,0,1,.631-2.417A3.124,3.124,0,0,1,874.9,315.73Z" transform="translate(-855.517 -308.586)" fill="#3b2314"/>
        <g id="Grupo_12682" data-name="Grupo 12682" transform="translate(16.113 10.434)">
          <g id="Grupo_12681" data-name="Grupo 12681">
            <g id="Grupo_12680" data-name="Grupo 12680">
              <g id="Grupo_12679" data-name="Grupo 12679">
                <g id="Grupo_12678" data-name="Grupo 12678">
                  <g id="Grupo_12677" data-name="Grupo 12677">
                    <path id="Trazado_12130" data-name="Trazado 12130" d="M875.053,326.445a.985.985,0,0,1-.606.268,1.437,1.437,0,0,1-1.476-1.309,1.318,1.318,0,0,1,1.067-1.575,1.241,1.241,0,0,1,.917.292,1.791,1.791,0,0,1,.442,1.417A1.348,1.348,0,0,1,875.053,326.445Z" transform="translate(-872.954 -323.823)" fill="#f79f7d"/>
                  </g>
                </g>
              </g>
            </g>
          </g>
        </g>
        <path id="Trazado_12131" data-name="Trazado 12131" d="M884.4,324.289l-1.2.464s1.621.1,1.684-.37c0,0-.245-.919-.511-1.789C884.375,322.594,884.582,324.221,884.4,324.289Z" transform="translate(-860.072 -313.002)" fill="#e98a6f"/>
        <path id="Trazado_12132" data-name="Trazado 12132" d="M863.733,383.872a9.68,9.68,0,0,0,0,9.348c2.731,4.942,11.07,3.14,11.095-3.259C874.853,383.639,869.1,381.221,863.733,383.872Z" transform="translate(-853.551 -331.985)" fill="#151f34"/>
        <path id="Trazado_12133" data-name="Trazado 12133" d="M876.718,335.707a30.006,30.006,0,0,1,5.305.648c1.583,1.157,1.765,3.923,1.2,5.651-.649,1.984-.907,4.516-1.556,7.386-.881,3.889-.8,6.915-1.784,10.777-.812,3.194-15.849.354-15.849.354l-3.073-15.485s-.792-4.1,2.926-5.469a51.24,51.24,0,0,1,6.606-3.022s-.448,3.022,4.481,2.188C874.974,338.736,877.986,338.008,876.718,335.707Z" transform="translate(-853.038 -317.136)" fill="#3ec0c5"/>
        <path id="Trazado_12134" data-name="Trazado 12134" d="M864.466,370.9c-.721,2.566-2.206,10.677-2.206,10.677,1.952,8.1,19.914,2.271,20.021,1.109.127-1.391-1.435-7.487-1.717-13.214C880.564,369.468,874.936,366.783,864.466,370.9Z" transform="translate(-853.47 -327.508)" fill="#3ec0c5"/>
        <path id="Trazado_12135" data-name="Trazado 12135" d="M863.937,348.4c-1.756,1.992-8.019,11.133-9.867,12.6-.491.39-4.695,2.167-4.647-1.084,5.186-11.533,8.983-16.782,8.983-16.782s4.133-1.893,6.117,1.436C864.523,344.567,865.168,347.02,863.937,348.4Z" transform="translate(-849.422 -319.307)" fill="#f6a382"/>
        <path id="Trazado_12136" data-name="Trazado 12136" d="M868.758,345.17a4.2,4.2,0,1,1-4.843-3.444A4.2,4.2,0,0,1,868.758,345.17Z" transform="translate(-852.887 -319.015)" fill="#f6a382"/>
        <path id="Trazado_12137" data-name="Trazado 12137" d="M863.006,340.3s-3.489,1.358-5.083,3.961l-4.16,6.435s1.7,4.864,5.941,5.871l6.656-8.088S870.124,343.74,863.006,340.3Z" transform="translate(-850.791 -318.584)" fill="#3ec0c5"/>
        <path id="Trazado_12138" data-name="Trazado 12138" d="M854.73,367.3a143.289,143.289,0,0,1,7.256,13.943s.016,1.641-1.215,1.194-10.7-12.254-10.777-13.509C849.812,365.7,854.73,367.3,854.73,367.3Z" transform="translate(-849.601 -326.97)" fill="#f6a382"/>
        <g id="Grupo_12684" data-name="Grupo 12684" transform="translate(11.215 54.308)">
          <g id="Grupo_12683" data-name="Grupo 12683">
            <path id="Trazado_12139" data-name="Trazado 12139" d="M867.965,392.07c-1.672-1.518-1.761-1.9-1.98-2.467-.945-2.455,2.007-1.645,2.712-1.287.4.206.175,1.232,1.193,2.81,0,0,1.786,1.739,2.323,1.782,0,0,.516.21.42.6C872.633,393.5,870.947,394,867.965,392.07Z" transform="translate(-865.8 -387.896)" fill="#f6a382"/>
          </g>
          <path id="Trazado_12140" data-name="Trazado 12140" d="M870.04,388.564s-1.13.305-.134,1.3l1.61.543a.532.532,0,0,0,.67-.125s.1-.262-.331-.492Z" transform="translate(-866.965 -388.107)" fill="#f6a382"/>
        </g>
      </g>
    </g>
    <path id="Trazado_12141" data-name="Trazado 12141" d="M892.507,545.541c-36.861,0-66.746-17.036-66.746-38.056s29.885-38.053,66.746-38.053,66.745,17.039,66.745,38.053S929.371,545.541,892.507,545.541Z" transform="translate(-29.179 -50.707)" fill="#9daad3"/>
    <g id="Grupo_12696" data-name="Grupo 12696" transform="translate(742.882 315.167)">
      <g id="Grupo_12695" data-name="Grupo 12695">
        <g id="Grupo_12694" data-name="Grupo 12694">
          <g id="Grupo_12687" data-name="Grupo 12687" transform="translate(0 155.435)">
            <rect id="Rectángulo_2992" data-name="Rectángulo 2992" width="10.476" height="1.416" fill="#699ed4"/>
            <rect id="Rectángulo_2993" data-name="Rectángulo 2993" width="5.239" height="1.416" transform="translate(12.037)" fill="#699ed4"/>
          </g>
          <g id="Grupo_12688" data-name="Grupo 12688" transform="translate(223.126 114.214)">
            <rect id="Rectángulo_2994" data-name="Rectángulo 2994" width="12.203" height="1.529" fill="#699ed4"/>
            <rect id="Rectángulo_2995" data-name="Rectángulo 2995" width="6.102" height="1.529" transform="translate(14.023)" fill="#699ed4"/>
          </g>
          <g id="Grupo_12689" data-name="Grupo 12689" transform="translate(209.508 63.38)">
            <rect id="Rectángulo_2996" data-name="Rectángulo 2996" width="10.477" height="1.416" transform="translate(6.799)" fill="#699ed4"/>
            <rect id="Rectángulo_2997" data-name="Rectángulo 2997" width="5.238" height="1.416" fill="#699ed4"/>
          </g>
          <g id="Grupo_12690" data-name="Grupo 12690" transform="translate(115.84 7.703)">
            <rect id="Rectángulo_2998" data-name="Rectángulo 2998" width="1.416" height="2.065" transform="translate(0 1.001) rotate(-45.005)" fill="#699ed4"/>
            <rect id="Rectángulo_2999" data-name="Rectángulo 2999" width="1.416" height="2.066" transform="translate(2.491 3.492) rotate(-45)" fill="#699ed4"/>
            <rect id="Rectángulo_3000" data-name="Rectángulo 3000" width="2.065" height="1.416" transform="matrix(0.707, -0.707, 0.707, 0.707, 2.491, 1.46)" fill="#699ed4"/>
            <rect id="Rectángulo_3001" data-name="Rectángulo 3001" width="2.066" height="1.416" transform="translate(0 3.951) rotate(-45)" fill="#699ed4"/>
          </g>
          <g id="Grupo_12691" data-name="Grupo 12691" transform="translate(1.272 68.459)">
            <rect id="Rectángulo_3002" data-name="Rectángulo 3002" width="1.416" height="2.065" transform="translate(0 1.001) rotate(-45.005)" fill="#699ed4"/>
            <rect id="Rectángulo_3003" data-name="Rectángulo 3003" width="1.416" height="2.065" transform="translate(2.491 3.492) rotate(-44.995)" fill="#699ed4"/>
            <rect id="Rectángulo_3004" data-name="Rectángulo 3004" width="2.065" height="1.416" transform="translate(2.491 1.46) rotate(-45)" fill="#699ed4"/>
            <rect id="Rectángulo_3005" data-name="Rectángulo 3005" width="2.066" height="1.416" transform="translate(0 3.951) rotate(-45)" fill="#699ed4"/>
          </g>
          <g id="Grupo_12692" data-name="Grupo 12692" transform="translate(151.579 66.14)">
            <rect id="Rectángulo_3006" data-name="Rectángulo 3006" width="1.416" height="2.065" transform="translate(0 1.001) rotate(-45)" fill="#699ed4"/>
            <rect id="Rectángulo_3007" data-name="Rectángulo 3007" width="1.416" height="2.065" transform="translate(2.491 3.492) rotate(-45)" fill="#699ed4"/>
            <rect id="Rectángulo_3008" data-name="Rectángulo 3008" width="2.065" height="1.416" transform="translate(2.491 1.46) rotate(-45.004)" fill="#699ed4"/>
            <rect id="Rectángulo_3009" data-name="Rectángulo 3009" width="2.065" height="1.416" transform="translate(0 3.951) rotate(-45.004)" fill="#699ed4"/>
          </g>
          <g id="Grupo_12693" data-name="Grupo 12693" transform="translate(234.673 147.465)">
            <rect id="Rectángulo_3010" data-name="Rectángulo 3010" width="1.416" height="2.065" transform="translate(0 1.001) rotate(-45.005)" fill="#699ed4"/>
            <rect id="Rectángulo_3011" data-name="Rectángulo 3011" width="1.416" height="2.065" transform="translate(2.491 3.492) rotate(-45)" fill="#699ed4"/>
            <rect id="Rectángulo_3012" data-name="Rectángulo 3012" width="2.065" height="1.416" transform="translate(2.491 1.46) rotate(-45)" fill="#699ed4"/>
            <rect id="Rectángulo_3013" data-name="Rectángulo 3013" width="2.065" height="1.416" transform="matrix(0.707, -0.707, 0.707, 0.707, 0, 3.951)" fill="#699ed4"/>
          </g>
          <path id="Trazado_12142" data-name="Trazado 12142" d="M1056.483,323.239a2.521,2.521,0,1,1,2.521-2.521A2.524,2.524,0,0,1,1056.483,323.239Zm0-3.626a1.1,1.1,0,1,0,1.1,1.1A1.106,1.106,0,0,0,1056.483,319.613Z" transform="translate(-844.003 -318.197)" fill="#699ed4"/>
          <path id="Trazado_12143" data-name="Trazado 12143" d="M817.766,326.341a2.521,2.521,0,1,1,2.521-2.522A2.524,2.524,0,0,1,817.766,326.341Zm0-3.626a1.1,1.1,0,1,0,1.1,1.1A1.106,1.106,0,0,0,817.766,322.715Z" transform="translate(-768.746 -319.175)" fill="#699ed4"/>
          <path id="Trazado_12144" data-name="Trazado 12144" d="M835.566,445.262a2.521,2.521,0,1,1,2.521-2.521A2.523,2.523,0,0,1,835.566,445.262Zm0-3.625a1.1,1.1,0,1,0,1.1,1.1A1.1,1.1,0,0,0,835.566,441.637Z" transform="translate(-774.358 -356.665)" fill="#699ed4"/>
        </g>
      </g>
    </g>
    <g id="Grupo_12708" data-name="Grupo 12708" transform="translate(885.472 314.321)">
      <path id="Trazado_12145" data-name="Trazado 12145" d="M990.945,489.434c0,4.7,8.559,8.505,19.116,8.505s19.115-3.807,19.115-8.505-8.559-8.505-19.115-8.505S990.945,484.737,990.945,489.434Z" transform="translate(-966.726 -368.653)" fill="#9daad3"/>
      <g id="Grupo_12707" data-name="Grupo 12707" transform="translate(0 0)">
        <g id="Grupo_12698" data-name="Grupo 12698" transform="translate(30.179 115.454)">
          <g id="Grupo_12697" data-name="Grupo 12697" transform="translate(0)">
            <path id="Trazado_12146" data-name="Trazado 12146" d="M1006.365,488.991a10.408,10.408,0,0,1-3.576,2.086,3.053,3.053,0,0,1-2.98-.772.571.571,0,0,1,.087-.874c3.957-3.008,5.142-3.861,5.142-3.861h3.632a8.245,8.245,0,0,1,.079,2.049,3.144,3.144,0,0,1-1.993,1.208c-.075.013-.214-.1-.285-.068Z" transform="translate(-999.65 -485.571)" fill="#17181c"/>
          </g>
          <path id="Trazado_12147" data-name="Trazado 12147" d="M999.878,490.057a1.009,1.009,0,0,0,.076.249,1.99,1.99,0,0,0,1.839.92,5.326,5.326,0,0,0,2.262-.768,10.07,10.07,0,0,0,1.873-1.27,5.647,5.647,0,0,1,1.416-.709,7.207,7.207,0,0,0,1.429-.963c0,.392-.025.717-.025.717a3.144,3.144,0,0,1-1.993,1.208c-.075.013-.214-.1-.285-.068l-.105.231a10.409,10.409,0,0,1-3.576,2.086,3.053,3.053,0,0,1-2.98-.772A.57.57,0,0,1,999.878,490.057Z" transform="translate(-999.649 -486.184)"/>
        </g>
        <g id="Grupo_12699" data-name="Grupo 12699" transform="translate(33.445 56.149)">
          <path id="Trazado_12148" data-name="Trazado 12148" d="M1010.573,428.808c-4.04,4.46-5.64-.257-5.64-.257l-.5-27.413c-.052.407-.186-2.765,4.913-2.078s6.373,2.668,6.373,2.668-2.8,18.935-5.145,27.081" transform="translate(-1004.419 -398.961)" fill="#e69376"/>
          <path id="Trazado_12149" data-name="Trazado 12149" d="M1005.132,440.641s2.049,28.87,2.217,29.883c0,0,2.491.551,2.5-.023.028-1.383,2.873-18.277,2.909-20.449.092-5.5-1.326-6.542-2.74-10.248C1010.021,439.8,1005.122,436.182,1005.132,440.641Z" transform="translate(-1004.644 -411.4)" fill="#e69376"/>
        </g>
        <g id="Grupo_12701" data-name="Grupo 12701" transform="translate(32.732 56.149)">
          <g id="Grupo_12700" data-name="Grupo 12700">
            <path id="Trazado_12150" data-name="Trazado 12150" d="M1011.461,429.846c2.347-8.146,3.928-28.119,3.928-28.119s-1.287-1.982-6.373-2.668-4.965,2.486-4.913,2.078a158.986,158.986,0,0,0-.129,28.375S1008.33,431.826,1011.461,429.846Z" transform="translate(-1003.377 -398.961)" fill="#104473"/>
          </g>
        </g>
        <path id="Trazado_12151" data-name="Trazado 12151" d="M1019.494,379.863c.721,2.566,3.695,12.355,3.695,12.355-10.647,12.737-18.668,1.591-18.774.43-.127-1.391,1.426-6.7,1.707-12.427C1006.123,380.221,1009.025,375.751,1019.494,379.863Z" transform="translate(-970.971 -336.244)" fill="#f6a382"/>
        <path id="Trazado_12152" data-name="Trazado 12152" d="M1004.447,399.221c-.5-3.431.542-6.891,1.081-10.357h15.6c1,3.324,2.036,6.74,2.036,6.74s.666,7.864-6.012,8.806C1017.147,404.41,1005.508,406.427,1004.447,399.221Z" transform="translate(-970.941 -339.629)" fill="#104473"/>
        <g id="Grupo_12702" data-name="Grupo 12702" transform="translate(40.223 56.914)">
          <path id="Trazado_12153" data-name="Trazado 12153" d="M1025.343,429.76c-3.335,5.01-5.616.581-5.616.581l-5.409-26.706c.008.412.161-3.479,5.307-3.555s6.7,1.694,6.7,1.694.134,19.581-.98,27.985" transform="translate(-1014.318 -400.079)" fill="#f6a382"/>
          <path id="Trazado_12154" data-name="Trazado 12154" d="M1022.077,442.644s5.356,30.422,5.672,31.4c0,0,2.545.176,2.471-.394-.177-1.372.282-20.555,0-22.71-.724-5.454-1.48-6.392-3.428-9.848C1026.789,441.092,1021.407,438.235,1022.077,442.644Z" transform="translate(-1016.746 -412.721)" fill="#f6a382"/>
        </g>
        <g id="Grupo_12703" data-name="Grupo 12703" transform="translate(49.476 117.024)">
          <path id="Trazado_12155" data-name="Trazado 12155" d="M1029.337,488.487l-1.506,4.595s.311,4.113,3.609,1.564l.983-.952a1.052,1.052,0,0,0,.355-1.01l-.293-1.76-.35-2.436S1030.068,487.085,1029.337,488.487Z" transform="translate(-1027.831 -487.864)" fill="#17181c"/>
          <path id="Trazado_12156" data-name="Trazado 12156" d="M1031.44,496.231l.983-.952a1.028,1.028,0,0,0,.337-.526l.017.1a1.052,1.052,0,0,1-.355,1.01l-.983.952c-3.3,2.549-3.609-1.564-3.609-1.564l.059-.179C1028.075,496.045,1028.8,498.27,1031.44,496.231Z" transform="translate(-1027.831 -490.036)"/>
        </g>
        <g id="Grupo_12705" data-name="Grupo 12705" transform="translate(39.547 54.068)">
          <g id="Grupo_12704" data-name="Grupo 12704">
            <path id="Trazado_12157" data-name="Trazado 12157" d="M1031.458,443.578" transform="translate(-1019.045 -410.946)" fill="#151f34"/>
            <path id="Trazado_12158" data-name="Trazado 12158" d="M1018.755,429.768c-1.879-5.514-5.425-28.321-5.425-28.321.008.412,1.063-5.446,6.208-5.522s6.464,1.9,6.464,1.9,1.607,22.321.492,30.725C1026.494,428.555,1022.88,432.728,1018.755,429.768Z" transform="translate(-1013.33 -395.923)" fill="#065098"/>
          </g>
        </g>
        <path id="Trazado_12159" data-name="Trazado 12159" d="M1000.761,352.92s-8.712,10.245-13.044,13.64c0,0-2.911-1.076-2.821-3.055,0,0,6.378-9.435,10.383-15.017C995.278,348.488,1000.692,346.928,1000.761,352.92Z" transform="translate(-964.818 -326.843)" fill="#e69376"/>
        <path id="Trazado_12160" data-name="Trazado 12160" d="M980.55,368.989s-10.983.749-15.335.664c0,0-1.124.679-.148,1.278,1.633,1,15.505,2.851,16.257,2.06C984.831,369.3,980.55,368.989,980.55,368.989Z" transform="translate(-958.443 -333.364)" fill="#e69376"/>
        <path id="Trazado_12161" data-name="Trazado 12161" d="M999.327,351.19a3.55,3.55,0,0,0,4.538,2.1,3.5,3.5,0,0,0,2.06-4.525,3.551,3.551,0,0,0-4.539-2.1A3.5,3.5,0,0,0,999.327,351.19Z" transform="translate(-969.297 -326.258)" fill="#e69376"/>
        <path id="Trazado_12162" data-name="Trazado 12162" d="M999.872,346.392a4.652,4.652,0,0,0-5.24,1.958l-7.6,11.023A12.55,12.55,0,0,0,992.3,364.8S1005.9,352.269,999.872,346.392Z" transform="translate(-965.493 -326.18)" fill="#862952"/>
        <path id="Trazado_12163" data-name="Trazado 12163" d="M1030.624,447.141" transform="translate(-979.235 -358.001)" fill="#f6a382"/>
        <path id="Trazado_12164" data-name="Trazado 12164" d="M1017.173,335.039s.627-1.207,2.011-3.521c0,0,2.944-3.025,1.294-6.824,0,0-.906-3.178-6.463-2.716C1014.016,321.978,1013.484,330.725,1017.173,335.039Z" transform="translate(-973.991 -318.529)" fill="#f79f7d"/>
        <path id="Trazado_12165" data-name="Trazado 12165" d="M1016.091,333.841s-.935,8.718,1.059,9.377l-7.11-.423s1.117-2.634-.181-4.577Z" transform="translate(-972.689 -322.283)" fill="#f6a382"/>
        <path id="Trazado_12166" data-name="Trazado 12166" d="M1010.431,341.273c.119-1.992-.131-2.4-.572-3.055l6.232-4.377a42.5,42.5,0,0,0-.2,5.369A6.744,6.744,0,0,1,1010.431,341.273Z" transform="translate(-972.689 -322.283)" fill="#e0856e"/>
        <path id="Trazado_12167" data-name="Trazado 12167" d="M1002.115,346.124c-1.584,1.157-1.765,3.923-1.2,5.651.649,1.984.906,4.517,1.556,7.386.88,3.889,1.476,6.884,2.458,10.746.812,3.194,13.647.62,13.647.62l4.6-15.719s.792-4.1-2.925-5.469a55.566,55.566,0,0,0-6.784-3.085,12.366,12.366,0,0,0-6.048-.779A30.068,30.068,0,0,0,1002.115,346.124Z" transform="translate(-969.777 -325.93)" fill="#f6a382"/>
        <path id="Trazado_12168" data-name="Trazado 12168" d="M1005.9,322.964c-.366,1.672-.783,2.546-.32,4.079.416,1.377.319,2.823.92,4.158.857,1.9,1.973,1.655,2.827-.1.873-1.793,1.784-4.215-.188-5.542-1.266-.853-1.722-2.319-3.238-2.6Z" transform="translate(-971.275 -318.854)" fill="#260f00"/>
        <path id="Trazado_12169" data-name="Trazado 12169" d="M1007.24,335.689l-.3-.986-.748-3.645a3.692,3.692,0,0,1,.058-1.514,3.732,3.732,0,0,0,.129-1.555,4.517,4.517,0,0,1,.973-3.974c1.629-2.315,5.2-2.133,5.2-2.133a4.987,4.987,0,0,1,4.567,4.737c.575,2.881-1.808,5.137-1.813,5.142-.19.179-.145,1.121-.212,1.385a3.785,3.785,0,0,1-2.4,2.2,10.647,10.647,0,0,1-3.581,1.022C1008.67,336.384,1007.409,336.254,1007.24,335.689Z" transform="translate(-971.517 -318.512)" fill="#f79f7d"/>
        <path id="Trazado_12170" data-name="Trazado 12170" d="M1006.3,334.582c.579.523,1.368.285,1.985.663a1.04,1.04,0,0,0,1.045.1,1.64,1.64,0,0,1,1,.034c.368.106,1.036.427,1.393.57a1.317,1.317,0,0,0,1.582-.366,3.121,3.121,0,0,0,.82-1.3,1.439,1.439,0,0,1,2.418-.6,7.164,7.164,0,0,1-1.212,1.659,12.115,12.115,0,0,0-.212,2.162,3.784,3.784,0,0,1-2.4,2.2,12.137,12.137,0,0,1-3.927.59,1.884,1.884,0,0,1-1.535-1.023l-.3-.986-.748-3.645c-.013-.063-.019-.134-.026-.2A1.151,1.151,0,0,0,1006.3,334.582Z" transform="translate(-971.53 -322.103)" fill="#260f00"/>
        <path id="Trazado_12171" data-name="Trazado 12171" d="M1005.484,322.627c1,0,.987.836,1.752,1.3,1.639,1,4.184-.465,5.5,1.152a3.074,3.074,0,0,1,.335.512,7.56,7.56,0,0,1,.631,2.417c.037.238-.14.848.077,1.031.124.1.34.074.568,0,.044.366-.249.646-.375.981s-.324.623-.145.963c.461.874.107.73.148,2.487a7.5,7.5,0,0,1,1.208-1.116,8.937,8.937,0,0,0,1.706-1.889,11.9,11.9,0,0,0,1.037-2.277,6.409,6.409,0,0,0,.37-4s-.3-3.116-2.909-3.45c0,0,.331-2.006-4.433-2.537,0,0-3.761.059-3.967-1.239a1.848,1.848,0,0,0-.572,1.652,1.848,1.848,0,0,1-2.243-1.3S1002.886,321.978,1005.484,322.627Z" transform="translate(-970.796 -316.962)" fill="#260f00"/>
        <path id="Trazado_12172" data-name="Trazado 12172" d="M1025.154,393.671a9.682,9.682,0,0,1,0,9.349c-2.731,4.941-11.07,3.14-11.095-3.259C1014.034,393.438,1019.788,391.021,1025.154,393.671Z" transform="translate(-974.013 -340.81)" fill="#065098"/>
        <path id="Trazado_12173" data-name="Trazado 12173" d="M1007.42,345.506a30.064,30.064,0,0,0-5.3.648c-1.584,1.157-1.765,3.923-1.2,5.651.649,1.984.906,4.517,1.556,7.386.88,3.889-.23,6.732.751,10.594.813,3.194,17.8,0,17.8,0l2.158-14.947s.792-4.1-2.925-5.469a51.356,51.356,0,0,0-6.606-3.023s.447,3.023-4.482,2.188C1009.164,348.535,1006.152,347.808,1007.42,345.506Z" transform="translate(-969.777 -325.961)" fill="#862952"/>
        <path id="Trazado_12174" data-name="Trazado 12174" d="M1021.777,379.913c.72,2.566,1.291,11.215,1.291,11.215-1.953,8.1-19.915,2.271-20.021,1.11-.127-1.391.424-8.008.705-13.735C1003.752,378.5,1011.307,375.8,1021.777,379.913Z" transform="translate(-970.535 -336.088)" fill="#862952"/>
        <path id="Trazado_12175" data-name="Trazado 12175" d="M1022.548,357.4c1.171,2.383,5.522,14.414,6.92,16.316.372.505,3.957,2.816,4.764-.333-1.976-12.488-4.966-19.612-4.966-19.612s-3.491-2.912-6.28-.22C1022.987,353.547,1021.72,355.745,1022.548,357.4Z" transform="translate(-976.601 -328.136)" fill="#f6a382"/>
        <path id="Trazado_12176" data-name="Trazado 12176" d="M1021.928,354.97a4.2,4.2,0,1,0,4.841-3.444A4.2,4.2,0,0,0,1021.928,354.97Z" transform="translate(-976.475 -327.84)" fill="#f6a382"/>
        <path id="Trazado_12177" data-name="Trazado 12177" d="M1025.516,350.477s3.611,1.354,4.466,4.284l2.229,7.976s-2.92,4.247-7.273,4.106l-4.3-9.552S1017.744,351.926,1025.516,350.477Z" transform="translate(-975.921 -327.528)" fill="#862952"/>
        <g id="Grupo_12706" data-name="Grupo 12706" transform="translate(49.307 44.035)">
          <path id="Trazado_12178" data-name="Trazado 12178" d="M1032.711,382.813a148.519,148.519,0,0,0,.271,18.055s.79,1.439,1.644.445,3.4-17.7,2.85-18.833C1036.054,379.578,1032.711,382.813,1032.711,382.813Z" transform="translate(-1029.151 -381.271)" fill="#f6a382"/>
          <path id="Trazado_12179" data-name="Trazado 12179" d="M1031.414,409.89l-1.556,1.5-2.274,1.31a1.226,1.226,0,0,0,1.592.221,25.227,25.227,0,0,0-.612,2.881c-.208.6.362.564.362.564a11.844,11.844,0,0,0,1.491-2.549,28.932,28.932,0,0,1-1.133,2.951c-.081.522.447.383.447.383,1.091-.621,1.488-2.946,1.488-2.946a16.82,16.82,0,0,1-.85,2.686c.119.363.3.242.3.242.94-.359,1.316-2.6,1.316-2.6l-.162.834c-.325,1.124.379.844.379.844l.262-.562a6.816,6.816,0,0,0,.571-3.289l.029-2.031Z" transform="translate(-1027.584 -390.293)" fill="#f6a382"/>
        </g>
        <path id="Trazado_12180" data-name="Trazado 12180" d="M957.165,368.82l1.01.466s-2.049-.433-2.344-1.313c0,0-.1-.167.234-.264a15.387,15.387,0,0,0,2.443.887,11.275,11.275,0,0,1-2.858-1.076s-.3-.511.309-.538c-.292-.318.134-.4.134-.4a7.059,7.059,0,0,1,1.29.117,28.772,28.772,0,0,0,2.961.259s-.71-1.205-.044-1.565l1.2,1.653,1,1.667-.3,1.087-2.047.305a10.569,10.569,0,0,1-2.627-.522S955.162,368.3,957.165,368.82Z" transform="translate(-955.576 -332.229)" fill="#e69376"/>
        <path id="Trazado_12181" data-name="Trazado 12181" d="M1021.253,443.731l4.671,29.111s1.547,1.491,5.138,0l.6-14.224s1.054-9.4-2.667-16.1C1028.992,442.517,1021.66,436.6,1021.253,443.731Z" transform="translate(-976.281 -355.817)" fill="#065098"/>
        <path id="Trazado_12182" data-name="Trazado 12182" d="M1011.709,442.743s1.989,2.876.207,13.674l-1.823,14.747a4.862,4.862,0,0,1-4.458.057l-1.47-29.376S1005.484,436.858,1011.709,442.743Z" transform="translate(-970.894 -355.71)" fill="#104473"/>
      </g>
    </g>
    <g id="Grupo_12723" data-name="Grupo 12723" transform="translate(754.92 329.54)">
      <path id="Trazado_12183" data-name="Trazado 12183" d="M788.45,347.828c.367,2.67,1.305,3.367.468,6.15-.773,2.573-2.9,4.46-3.185,7.233-.2,1.969.307,5.176,1.614,6.763,1.9,2.3,6.217,1.007,8.681.609,2.8-.454,9.059-.651,10.787-3.416,1.311-2.1-.352-5.822-.889-7.966-.681-2.721-1.394-5.436-2.024-8.17-.572-2.484-1.294-6.639-3.255-8.483s-4.172-1.325-6.642-1.047C791.045,339.834,787.993,344.494,788.45,347.828Z" transform="translate(-771.467 -339.196)" fill="#3f1900"/>
      <path id="Trazado_12184" data-name="Trazado 12184" d="M803.151,498.971c0,4.7-8.559,8.506-19.116,8.506s-19.116-3.808-19.116-8.506,8.559-8.5,19.116-8.5S803.151,494.273,803.151,498.971Z" transform="translate(-764.919 -386.879)" fill="#9daad3"/>
      <g id="Grupo_12722" data-name="Grupo 12722" transform="translate(3.865)">
        <g id="Grupo_12711" data-name="Grupo 12711" transform="translate(19.672 104.815)">
          <path id="Trazado_12185" data-name="Trazado 12185" d="M800.26,500.368l.314-.058.313-2.632-.824-.975Z" transform="translate(-799.536 -493.659)" fill="#561136"/>
          <g id="Grupo_12710" data-name="Grupo 12710">
            <path id="Trazado_12186" data-name="Trazado 12186" d="M799.64,499.787l.378.214-.059-4.309-.665-.151Z" transform="translate(-799.293 -493.293)" fill="#151f34"/>
            <g id="Grupo_12709" data-name="Grupo 12709">
              <path id="Trazado_12187" data-name="Trazado 12187" d="M802.555,493.33l.7,2.31a15.541,15.541,0,0,0,1.737,3.1s1.416,1.943-1.235,1.813c0,0-2.828-.15-2.785-1.964a7.2,7.2,0,0,0-1.4-3.5,1.575,1.575,0,0,1,.185-1.862l.49-.561,2.378-.415Z" transform="translate(-799.311 -492.258)" fill="#e69376"/>
              <path id="Trazado_12188" data-name="Trazado 12188" d="M805.127,499.651a3.562,3.562,0,0,1-3.079-.932,12.366,12.366,0,0,1-1.3-2.494c.116.364-.748-2.858-.518-3.361l-.49.561a1.644,1.644,0,0,0-.234,1.911,6.842,6.842,0,0,1,1.446,3.447c-.043,1.814,2.785,1.964,2.785,1.964,1.591.078,1.716-.591,1.563-1.138C805.246,499.625,805.187,499.639,805.127,499.651Z" transform="translate(-799.293 -492.449)" fill="#151f34"/>
              <path id="Trazado_12189" data-name="Trazado 12189" d="M807.176,502.421s.4.755-.868.755c0,0-4.744-.3-4.742-2.34l0-1.642a3.052,3.052,0,0,0,3.3,2.349s1.3,0,.629-.829Z" transform="translate(-800.009 -494.445)" fill="#151f34"/>
            </g>
          </g>
        </g>
        <g id="Grupo_12721" data-name="Grupo 12721">
          <path id="Trazado_12190" data-name="Trazado 12190" d="M796.216,360.422h6.218c-.283-.906-.868-3.249.038-4.844l-6.283-4.126S797.306,358.375,796.216,360.422Z" transform="translate(-778.642 -343.054)" fill="#f6a382"/>
          <path id="Trazado_12191" data-name="Trazado 12191" d="M796.913,356.515a2.731,2.731,0,0,0,1.957,1.726,6.561,6.561,0,0,0,3.158.234,4.921,4.921,0,0,1,.444-2.9l-6.283-4.126s.34,2.112.462,4.347C796.736,356.038,796.819,356.277,796.913,356.515Z" transform="translate(-778.642 -343.054)" fill="#e0856e"/>
          <path id="Trazado_12192" data-name="Trazado 12192" d="M802.86,353.35l.329-.935.806-2.751a2.771,2.771,0,0,0,.014-1.461,4.416,4.416,0,0,1-.128-2.283,4.6,4.6,0,0,0-.6-3.811c-1.461-2.3-4.91-2.291-4.91-2.291a4.8,4.8,0,0,0-4.612,4.35c-.685,2.748,1.505,5.028,1.509,5.032a3.043,3.043,0,0,1,.441,1.114,3.424,3.424,0,0,0,.625,1.043,7.657,7.657,0,0,0,2.186,1.755,8.442,8.442,0,0,0,3.287.776C802.244,353.882,802.671,353.887,802.86,353.35Z" transform="translate(-777.835 -339.386)" fill="#f6a382"/>
          <g id="Grupo_12714" data-name="Grupo 12714" transform="translate(4.833 105.988)">
            <path id="Trazado_12193" data-name="Trazado 12193" d="M778.044,500.95l.316.045L779.5,498.6l-.467-1.188Z" transform="translate(-777.755 -495.057)" fill="#561136"/>
            <g id="Grupo_12713" data-name="Grupo 12713">
              <path id="Trazado_12194" data-name="Trazado 12194" d="M777.622,500.2l.289.324,1.327-4.1-.582-.356Z" transform="translate(-777.622 -494.633)" fill="#151f34"/>
              <g id="Grupo_12712" data-name="Grupo 12712" transform="translate(1)">
                <path id="Trazado_12195" data-name="Trazado 12195" d="M782.594,495.333c-.063,1.926-.205,4.087.571,5.909,0,0,.718,2.294-1.751,1.321,0,0-2.629-1.05-2.007-2.753a7.221,7.221,0,0,0-.2-3.76,1.578,1.578,0,0,1,.772-1.7l.644-.374h2.472Z" transform="translate(-779.11 -493.972)" fill="#f6a382"/>
                <path id="Trazado_12196" data-name="Trazado 12196" d="M783.053,501.97a3.561,3.561,0,0,1-2.618-1.871,12.375,12.375,0,0,1-.428-2.777c-.008.382.208-2.946.588-3.35l-.644.374a1.645,1.645,0,0,0-.834,1.735,6.86,6.86,0,0,1,.263,3.729c-.622,1.7,2.007,2.753,2.007,2.753,1.482.584,1.815-.009,1.845-.576A1.651,1.651,0,0,1,783.053,501.97Z" transform="translate(-779.083 -493.972)" fill="#151f34"/>
                <path id="Trazado_12197" data-name="Trazado 12197" d="M784.117,505.113s.136.842-1.063.436c0,0-4.4-1.807-3.741-3.737l.525-1.556a3.053,3.053,0,0,0,2.375,3.285s1.232.418.861-.584Z" transform="translate(-779.134 -495.953)" fill="#151f34"/>
              </g>
            </g>
          </g>
          <path id="Trazado_12198" data-name="Trazado 12198" d="M785.933,452.825c-3.153,5.823-3.711,8.193-4.272,12.62-.327,2.575-.218,13.422-.556,15.04-.141.671,2.408.3,2.408.3.466-1.135,7.89-26.057,7.89-26.057s.83-2.581.141-3.03C788.083,449.445,787.307,450.287,785.933,452.825Z" transform="translate(-773.885 -374.245)" fill="#f6a382"/>
          <path id="Trazado_12199" data-name="Trazado 12199" d="M801.509,391.774s2.423,10.256,2.1,11.377c-.937,3.227-10.072,10.749-18,4.145,0,0,1.632-11.5,6.016-17C791.623,390.3,793.006,391.728,801.509,391.774Z" transform="translate(-775.306 -355.301)" fill="#f6a382"/>
          <path id="Trazado_12200" data-name="Trazado 12200" d="M801.5,361.954s3.171,6.131,4.587,9.495c-.593,3.943-2.736,9.793-3.6,11.026-1.886,2.7-10.513.29-10.513.29l-2.486-8.3c7.258-2.606,3.436-10.255,3.436-10.255l1.137-.718a5.7,5.7,0,0,0,5.886,3.625s1.552-1.01.409-5.3A6.637,6.637,0,0,1,801.5,361.954Z" transform="translate(-776.529 -346.322)" fill="#6651a1"/>
          <path id="Trazado_12201" data-name="Trazado 12201" d="M795.495,410.456s.835,16.546,3.9,25.445c.456,1.327,5.687-.436,5.687-.436s2.64-14.237,2.482-20.134c-.09-3.334-1.283-10.523-1.283-10.523S796.467,403.525,795.495,410.456Z" transform="translate(-778.423 -359.845)" fill="#e69376"/>
          <path id="Trazado_12202" data-name="Trazado 12202" d="M800.273,450l5.537-.377s-3.4,28.246-3.711,29.432c0,0-2.381.861-2.331.177.116-1.649-1.871-14.325-1.931-16.92C797.739,458.142,797.9,455.509,800.273,450Z" transform="translate(-779.155 -374.002)" fill="#e69376"/>
          <g id="Grupo_12715" data-name="Grupo 12715" transform="translate(22.926 15.764)">
            <path id="Trazado_12203" data-name="Trazado 12203" d="M804.1,365.141a3.646,3.646,0,0,0,2.948,4.232c1.982.355,6.768.546,5.985-1.31-1.509-3.581-3.161-5.438-5.144-5.793A3.179,3.179,0,0,0,804.1,365.141Z" transform="translate(-804.045 -362.21)" fill="#e69376"/>
            <path id="Trazado_12204" data-name="Trazado 12204" d="M806.6,369.175l1.667-3.28,3.777-.07s4.875,8.971,5.789,11.639c.974,2.842-1.319,1.775-2.284,1.454C815.545,378.917,807.561,371.315,806.6,369.175Z" transform="translate(-804.849 -363.349)" fill="#e69376"/>
            <path id="Trazado_12205" data-name="Trazado 12205" d="M819.665,384.251s3.117,3.937,5.193,4.882c0,0,2.138-1.456-2.761-5.832C822.1,383.3,820.3,381.551,819.665,384.251Z" transform="translate(-808.969 -368.683)" fill="#e69376"/>
          </g>
          <path id="Trazado_12206" data-name="Trazado 12206" d="M785.607,413.212s.064,16.553,2.247,25.707c.325,1.365,5.312.946,5.312.946s3.254-15.653,3.669-21.539c.234-3.326.9-9.148.9-9.148S786.06,408.02,785.607,413.212Z" transform="translate(-775.306 -361.217)" fill="#f6a382"/>
          <path id="Trazado_12207" data-name="Trazado 12207" d="M788.408,366.16a3.828,3.828,0,0,0-1.243,4.658l4.8,11.67s7.793,2.651,9.68-.052c.861-1.233,1.659-4.506,2.705-9.224.711-3.207.758-8.809-1.046-10.468-1.042-.957-4.41-.937-4.435-1.05l-5.459,1.758Z" transform="translate(-775.692 -346.282)" fill="#f6a382"/>
          <path id="Trazado_12208" data-name="Trazado 12208" d="M798.644,390.341a14.68,14.68,0,0,1,2.953.9s1.794,7.648,1.9,8.81-7.9,7.182-16.829,3.755c0,0,4.512-10.64,5.171-12.865C792.592,388.387,798.644,390.341,798.644,390.341Z" transform="translate(-775.639 -355.089)" fill="#f6a382"/>
          <path id="Trazado_12209" data-name="Trazado 12209" d="M809.8,368.925s2.636,3.105,2.858,5.412c.123,1.285-1.5,3.435-2.31,4.228C809.771,379.126,806.366,371.068,809.8,368.925Z" transform="translate(-782.456 -348.562)" fill="#122a67"/>
          <path id="Trazado_12210" data-name="Trazado 12210" d="M794.983,350.593a7.928,7.928,0,0,1,.028-1.828c.045-.569,1.161.658,1.139-.084-.106-3.392,1.127-5.008,1.609-5.269a5.969,5.969,0,0,1,3.785-.718c1.715.3,1.65,2.589,1.65,2.589,1.462-8.362-7.864-5.69-7.864-5.69a5.169,5.169,0,0,0-4.074,5.472c-.556,4.6,3.8,7.251,3.8,7.251Z" transform="translate(-777.072 -339.188)" fill="#3f1900"/>
          <g id="Grupo_12716" data-name="Grupo 12716" transform="translate(23.181 8.399)">
            <path id="Trazado_12211" data-name="Trazado 12211" d="M804.417,353.153c1.224-.089,1.291-.409,1.291-.409l-.642-1.29S805.213,352.743,804.417,353.153Z" transform="translate(-804.417 -351.453)" fill="#e98a6f"/>
          </g>
          <g id="Grupo_12719" data-name="Grupo 12719" transform="translate(31.442 28.632)">
            <g id="Grupo_12718" data-name="Grupo 12718">
              <path id="Trazado_12212" data-name="Trazado 12212" d="M825.688,381.635l-2.953,11.919c0,.22-.149.261-.149.261l-5.223,2.177a.183.183,0,0,1-.237-.208l2.953-11.855c0-.249.163-.286.163-.286l5.2-2.167S825.688,381.373,825.688,381.635Z" transform="translate(-816.685 -381.145)" fill="#24386f"/>
              <g id="Grupo_12717" data-name="Grupo 12717">
                <path id="Trazado_12213" data-name="Trazado 12213" d="M816.52,396.688l.507.34c-.094-.03-.1-.193-.1-.193l2.95-11.889-.443-.3-2.953,11.95A.1.1,0,0,0,816.52,396.688Z" transform="translate(-816.481 -382.15)" fill="#355194"/>
                <path id="Trazado_12214" data-name="Trazado 12214" d="M821.353,384.549s-.118.06-.116.273l-.443-.3a.326.326,0,0,1,.123-.271Z" transform="translate(-817.841 -382.027)" fill="#355194"/>
                <path id="Trazado_12215" data-name="Trazado 12215" d="M820.969,383.231a.173.173,0,0,1,.037-.024l5.2-2.171a.294.294,0,0,1,.3.015l.316.212a.169.169,0,0,1,.072.164s-.024-.165-.235-.1l-5.251,2.193Z" transform="translate(-817.896 -381.002)" fill="#a3ddf5"/>
              </g>
              <path id="Trazado_12216" data-name="Trazado 12216" d="M817.285,396.018a.2.2,0,0,1-.148-.053.261.261,0,0,1-.064-.2l2.953-11.861c0-.268.184-.312.192-.314l5.193-2.165a.259.259,0,0,1,.219.006.211.211,0,0,1,.079.189v.01l-2.953,11.919a.272.272,0,0,1-.176.288l-5.218,2.175A.463.463,0,0,1,817.285,396.018Zm-.137-.242a.189.189,0,0,0,.042.134.171.171,0,0,0,.151.027l5.214-2.175c.009,0,.125-.039.125-.225l2.953-11.923a.139.139,0,0,0-.045-.121.18.18,0,0,0-.147,0l-5.2,2.167c-.012,0-.14.038-.14.251l-2.954,11.865Z" transform="translate(-816.667 -381.127)" fill="#355194"/>
            </g>
            <path id="Trazado_12217" data-name="Trazado 12217" d="M826.676,388.193a4.152,4.152,0,0,1-1.027,1.335c-.511.4-1.366.282-1.7.577-.574.515-.166,1.906,1.043,3.3,1.05,1.211,1.823-.373,2.177-1.348a3.322,3.322,0,0,0-.108-3.244Z" transform="translate(-818.756 -383.269)" fill="#e69376"/>
          </g>
          <path id="Trazado_12218" data-name="Trazado 12218" d="M804.458,410.786a76.472,76.472,0,0,0-.7-7.636c-.11-1.869-2.238-11.377-2.238-11.377-8.5-.045-10.422-1.474-10.422-1.474a42.12,42.12,0,0,0-4.746,12.642,29.637,29.637,0,0,0-.686,7.182c.1,3.292.23,6.58.466,9.867.041.577.353,6.491.623,6.516,0,0,14.262,1.484,16.739-4.967A76.436,76.436,0,0,0,804.458,410.786Z" transform="translate(-775.322 -355.301)" fill="#cb4e7e"/>
          <path id="Trazado_12219" data-name="Trazado 12219" d="M792.047,382.764s8.872,2.734,10.759.03c.861-1.233,2.758-7.4,3.351-11.346-1.416-3.363-4.587-9.495-4.587-9.495a6.636,6.636,0,0,0-1.141-.137c1.142,4.288-.409,5.3-.409,5.3a5.7,5.7,0,0,1-5.885-3.625l-1.137.718s3.519,7.31-3.273,10.653C789.724,374.861,789.561,382.7,792.047,382.764Z" transform="translate(-776.603 -346.322)" fill="#122a67"/>
          <g id="Grupo_12720" data-name="Grupo 12720" transform="translate(0 19.916)">
            <path id="Trazado_12220" data-name="Trazado 12220" d="M790.825,371.325a3.647,3.647,0,0,1-3.109,4.115c-2,.277-7.279-.24-6.15-1.908,2.219-3.279,3.588-4.945,5.583-5.222A3.178,3.178,0,0,1,790.825,371.325Z" transform="translate(-773.983 -368.272)" fill="#f6a382"/>
            <path id="Trazado_12221" data-name="Trazado 12221" d="M785.606,375.22l-1.538-3.342-3.772-.216s-8.434,8.663-9.451,11.293c-1.083,2.8,1.249,1.824,2.225,1.54C773.07,384.494,784.559,377.321,785.606,375.22Z" transform="translate(-770.564 -369.34)" fill="#f6a382"/>
            <path id="Trazado_12222" data-name="Trazado 12222" d="M770.772,389.14a61.43,61.43,0,0,0,8.016,9.886s1.819-.114,1.28-1.124c-.915-1.714-4.648-9.721-5.575-11.443C773.973,385.492,770.772,389.14,770.772,389.14Z" transform="translate(-770.63 -373.954)" fill="#f6a382"/>
            <path id="Trazado_12223" data-name="Trazado 12223" d="M783.826,402.954l2.06.665.951-1.15a5.5,5.5,0,0,0,.335,2.225,25.515,25.515,0,0,1,1.818,2.317c.45.446-.077.665-.077.665a11.839,11.839,0,0,1-2.46-1.632,29.087,29.087,0,0,0,2.316,2.151c.3.433-.232.54-.232.54-1.252-.077-2.633-1.989-2.633-1.989a16.835,16.835,0,0,0,1.947,2.038c.052.377-.16.348-.16.348-1,.091-2.325-1.754-2.325-1.754l.514.678c.787.866.031.925.031.925l-.482-.388a6.823,6.823,0,0,1-1.961-2.7l-.921-1.81Z" transform="translate(-774.341 -379.053)" fill="#f6a382"/>
          </g>
        </g>
      </g>
      <path id="Trazado_12224" data-name="Trazado 12224" d="M799.007,342.262c-2.818,1.544-4.408,2.964-3.676,6.393.659,3.092.883,4.784-.82,7.543-1.6,2.59-1.743,4.069-.366,6.845,1.107,2.229,2.195,4.369-.579,5.708-5.233,2.528-10.1-1.622-8.136-7.288.88-2.54,3.017-4.271,4.034-6.712,1.03-2.473.037-4.581-.183-7.081-.367-4.182,5.342-10.254,8.939-6.2a7.267,7.267,0,0,1,.787,1.161Z" transform="translate(-771.245 -339.486)" fill="#3f1900"/>
    </g>
    <g id="Grupo_12726" data-name="Grupo 12726" transform="translate(805.178 355.095)">
      <g id="Grupo_12724" data-name="Grupo 12724" transform="translate(0 50.128)">
        <path id="Trazado_12225" data-name="Trazado 12225" d="M838.315,498.131v13.427c0,18.313,26.036,33.155,58.149,33.155s58.149-14.842,58.149-33.155V498.131Z" transform="translate(-838.315 -464.978)" fill="#7c284b"/>
        <path id="Trazado_12226" data-name="Trazado 12226" d="M896.464,516.021c-32.113,0-58.149-14.842-58.149-33.155s26.036-33.152,58.149-33.152,58.149,14.845,58.149,33.152S928.58,516.021,896.464,516.021Z" transform="translate(-838.315 -449.714)" fill="#cb4e7e"/>
        <path id="Trazado_12227" data-name="Trazado 12227" d="M902.147,512.223c-25.3,0-45.806-11.691-45.806-26.116s20.509-26.115,45.806-26.115,45.805,11.693,45.805,26.115S927.446,512.223,902.147,512.223Z" transform="translate(-843.998 -452.954)" fill="#fff"/>
        <path id="Trazado_12228" data-name="Trazado 12228" d="M907.267,508.8c-19.156,0-34.686-8.852-34.686-19.775s15.53-19.775,34.686-19.775,34.685,8.854,34.685,19.775S926.424,508.8,907.267,508.8Z" transform="translate(-849.117 -455.873)" fill="#cb4e7e"/>
        <path id="Trazado_12229" data-name="Trazado 12229" d="M912.758,505.133c-12.569,0-22.759-5.809-22.759-12.976s10.19-12.976,22.759-12.976,22.759,5.81,22.759,12.976S925.327,505.133,912.758,505.133Z" transform="translate(-854.609 -459.004)" fill="#fff"/>
        <path id="Trazado_12230" data-name="Trazado 12230" d="M917.938,501.671c-6.354,0-11.506-2.938-11.506-6.561s5.152-6.56,11.506-6.56,11.506,2.937,11.506,6.56S924.294,501.671,917.938,501.671Z" transform="translate(-859.789 -461.957)" fill="#cb4e7e"/>
        <path id="Trazado_12231" data-name="Trazado 12231" d="M921.445,499.328c-2.149,0-3.891-.993-3.891-2.218s1.742-2.218,3.891-2.218,3.891.993,3.891,2.218S923.594,499.328,921.445,499.328Z" transform="translate(-863.295 -463.956)" fill="#7c284b"/>
      </g>
      <g id="Grupo_12725" data-name="Grupo 12725" transform="translate(46.466)">
        <path id="Trazado_12232" data-name="Trazado 12232" d="M923.236,407.9V382.645l11.684-6.137v24.075Z" transform="translate(-911.552 -376.508)" fill="#437fc0"/>
        <path id="Trazado_12233" data-name="Trazado 12233" d="M917.857,407.9V382.645l-11.684-6.137v24.075Z" transform="translate(-906.173 -376.508)" fill="#3daee3"/>
        <rect id="Rectángulo_3014" data-name="Rectángulo 3014" width="4.249" height="78.994" transform="translate(9.56 4.839)" fill="#196eaa"/>
      </g>
    </g>
    <g id="Grupo_12739" data-name="Grupo 12739" transform="translate(904.922 406.986)">
      <path id="Trazado_12234" data-name="Trazado 12234" d="M991.893,501.14" transform="translate(-986.475 -467.69)" fill="#f79f7d"/>
      <path id="Trazado_12235" data-name="Trazado 12235" d="M991.764,500.425s-.5-1.3,1.227-1.765a21.438,21.438,0,0,0,6.109,2.286c4.219,1.418,12.91-.39,16.864-1.211,4.441-.922,6.5,4.1,2.239,5.742-7.968,3.075-20.6-.266-26.482-4.888" transform="translate(-986.414 -466.908)" fill="#f79f7d"/>
      <path id="Trazado_12236" data-name="Trazado 12236" d="M1050.387,563.546c-1.775-8.29-2.306-27.49-2.306-27.49s1.422-1.888,6.543-2.217,4.78,2.824,4.756,2.414a178.5,178.5,0,0,1-2.356,26.967S1053.373,565.74,1050.387,563.546Z" transform="translate(-1004.189 -477.99)" fill="#053b6b"/>
      <path id="Trazado_12237" data-name="Trazado 12237" d="M1055.884,533.981c.505-3.43-.54-6.89-1.08-10.357h-15.6c-1,3.324-2.035,6.739-2.035,6.739s-.668,7.864,6.012,8.806C1043.186,539.169,1054.824,541.187,1055.884,533.981Z" transform="translate(-1000.744 -474.778)" fill="#007fa2"/>
      <path id="Trazado_12238" data-name="Trazado 12238" d="M1053.1,620.664c0,6.612-12.046,11.971-26.906,11.971s-26.906-5.36-26.906-11.971,12.046-11.971,26.906-11.971S1053.1,614.052,1053.1,620.664Z" transform="translate(-988.808 -501.596)" fill="#9daad3"/>
      <g id="Grupo_12727" data-name="Grupo 12727" transform="translate(16.512 114.824)">
        <path id="Trazado_12239" data-name="Trazado 12239" d="M1013.321,623.789l.889-.052c.3-.047.3.429.342.446a9.64,9.64,0,0,0,2.1.668s1.644-.214,1.82-.712l-.232-3.05c-1.832-.154-3.744-.508-3.744-.508l-4.026-.566c-1.938-.2-2.29.5-2.29.5S1007,622.285,1013.321,623.789Z" transform="translate(-1008.095 -619.978)" fill="#17181c"/>
        <path id="Trazado_12240" data-name="Trazado 12240" d="M1015.766,623.75a4.843,4.843,0,0,0-1.042-.339c-1.986-.348-3.929-.545-5.583-1.821a1.632,1.632,0,0,1-.718-1.162.714.714,0,0,0-.24.227s-1.186,1.771,5.138,3.276l.889-.052c.3-.047.3.429.342.446a9.654,9.654,0,0,0,2.1.668s1.644-.214,1.82-.712l-.057-.743A3.175,3.175,0,0,1,1015.766,623.75Z" transform="translate(-1008.095 -620.12)" fill="#030308"/>
      </g>
      <g id="Grupo_12728" data-name="Grupo 12728" transform="translate(43.411 114.069)">
        <path id="Trazado_12241" data-name="Trazado 12241" d="M1052.6,622.685l.889-.051c.3-.047.3.429.342.445a9.654,9.654,0,0,0,2.1.667s1.644-.212,1.819-.711l-.231-3.05c-1.832-.154-3.744-.508-3.744-.508l-4.027-.566c-1.937-.2-2.289.5-2.289.5S1046.281,621.182,1052.6,622.685Z" transform="translate(-1047.379 -618.875)" fill="#17181c"/>
        <path id="Trazado_12242" data-name="Trazado 12242" d="M1055.049,622.647a4.831,4.831,0,0,0-1.041-.338c-1.987-.348-3.929-.546-5.583-1.822a1.636,1.636,0,0,1-.718-1.163.721.721,0,0,0-.24.228s-1.187,1.772,5.138,3.275l.889-.051c.3-.047.3.429.342.445a9.668,9.668,0,0,0,2.1.667s1.644-.212,1.819-.711l-.055-.742A3.175,3.175,0,0,1,1055.049,622.647Z" transform="translate(-1047.379 -619.016)" fill="#030308"/>
      </g>
      <path id="Trazado_12243" data-name="Trazado 12243" d="M1054.2,605.78c-.659-.787-2.824-29.707-2.824-29.707-.359-4.446,7.034-2.579,7.034-2.579,1.077,4.426.9,5.259,1.241,10.751.134,2.169-.212,20.135-.131,21.516C1059.521,605.76,1056.09,608.034,1054.2,605.78Z" transform="translate(-1005.224 -490.377)" fill="#053b6b"/>
      <path id="Trazado_12244" data-name="Trazado 12244" d="M1046.032,529.028s-4.438,7.557-1.707,12.5,14.24-.437,13.532-6.159C1057.081,529.093,1051.4,526.377,1046.032,529.028Z" transform="translate(-1002.725 -476.163)" fill="#30528a"/>
      <path id="Trazado_12245" data-name="Trazado 12245" d="M1040.877,514.623c-.722,2.566-3.695,12.354-3.695,12.354,8.149,7.685,18.667,1.591,18.773.43.127-1.391-1.425-6.7-1.707-12.427C1054.248,514.98,1051.346,510.51,1040.877,514.623Z" transform="translate(-1000.753 -471.392)" fill="#f6a382"/>
      <path id="Trazado_12246" data-name="Trazado 12246" d="M1037.56,578.337" transform="translate(-1000.872 -492.026)" fill="#151f34"/>
      <path id="Trazado_12247" data-name="Trazado 12247" d="M1028.258,560.965c.865-8.433,6.873-29.948,6.873-29.948s1.756-1.617,6.73-.353,5.524,7.756,5.628,7.358A197.667,197.667,0,0,1,1034,563.638S1030.28,565.542,1028.258,560.965Z" transform="translate(-997.94 -476.845)" fill="#30528a"/>
      <path id="Trazado_12248" data-name="Trazado 12248" d="M1017.3,605.232c.146-1.017,7.645-31.234,7.645-31.234,1.766-3.727,6.836.2,6.836.2a32.127,32.127,0,0,1-1.836,11.185c-.689,2.061-7.065,20.723-7.509,22.032C1022.436,607.412,1018.667,608.607,1017.3,605.232Z" transform="translate(-994.485 -490.152)" fill="#30528a"/>
      <g id="Grupo_12729" data-name="Grupo 12729" transform="translate(52.317 20.413)">
        <path id="Trazado_12249" data-name="Trazado 12249" d="M1067.465,486.088s.806,13.572.292,19.052c0,0,0,2.49-4.386,3.739,0,0-1.595-15.111-2.894-21.857C1060.477,487.021,1063.067,482.017,1067.465,486.088Z" transform="translate(-1060.413 -482.854)" fill="#e69376"/>
        <path id="Trazado_12250" data-name="Trazado 12250" d="M1062.538,488.839a3.549,3.549,0,0,0,4.646-1.85,3.5,3.5,0,0,0-1.869-4.606,3.551,3.551,0,0,0-4.647,1.85A3.5,3.5,0,0,0,1062.538,488.839Z" transform="translate(-1060.384 -482.1)" fill="#e69376"/>
      </g>
      <path id="Trazado_12251" data-name="Trazado 12251" d="M1063.989,481.213a4.651,4.651,0,0,1,3.377,4.459l.519,13.378a12.55,12.55,0,0,1-7.351,1.765S1055.749,482.949,1063.989,481.213Z" transform="translate(-1007.679 -461.408)" fill="#ffd37c"/>
      <path id="Trazado_12252" data-name="Trazado 12252" d="M1038.394,581.9" transform="translate(-1001.135 -493.15)" fill="#f6a382"/>
      <path id="Trazado_12253" data-name="Trazado 12253" d="M1048.336,468.809s-.029,4.778-.446,9.538l6.3-1.044a4.664,4.664,0,0,1,.377-4.117Z" transform="translate(-1004.129 -457.497)" fill="#f6a382"/>
      <path id="Trazado_12254" data-name="Trazado 12254" d="M1056.487,480.884c1.583,1.157,1.765,3.923,1.2,5.65-.649,1.984-.907,4.517-1.556,7.387-.88,3.888-1.477,6.884-2.458,10.746-.813,3.194-13.646.62-13.646.62l-4.6-15.719s-.791-4.1,2.926-5.468a55.612,55.612,0,0,1,6.783-3.085,12.366,12.366,0,0,1,6.048-.779A30.029,30.029,0,0,1,1056.487,480.884Z" transform="translate(-1000.177 -461.078)" fill="#f6a382"/>
      <path id="Trazado_12255" data-name="Trazado 12255" d="M1038.2,528.431a9.68,9.68,0,0,0,0,9.348c2.732,4.942,11.07,3.14,11.1-3.259C1049.316,528.2,1043.562,525.78,1038.2,528.431Z" transform="translate(-1000.69 -475.958)" fill="#30528a"/>
      <path id="Trazado_12256" data-name="Trazado 12256" d="M1051.181,480.265a30.027,30.027,0,0,1,5.305.649c1.648,1.2,1.618,3.567,1.3,5.356-.607,3.42-1.224,6.875-1.541,10.336-.141,1.533-.522,4.653-.637,6.187a3.279,3.279,0,0,1-2.106,3.1c-1.159.6-2.019.123-3.281.157a63.707,63.707,0,0,1-9.558-.657c-.134-.016-5.1,3.332-3.464.868l-1.776-16.661s-.791-4.1,2.926-5.468a29.928,29.928,0,0,1,5.481-2.608S1048.818,481.647,1051.181,480.265Z" transform="translate(-1000.177 -461.109)" fill="#ffd37c"/>
      <path id="Trazado_12257" data-name="Trazado 12257" d="M1045.01,470.335l-.268-1.037-.638-3.826a3.85,3.85,0,0,1,.119-1.576,3.872,3.872,0,0,0,.2-1.615,4.709,4.709,0,0,1,1.17-4.1c1.787-2.347,5.5-2.019,5.5-2.018a5.828,5.828,0,0,1,4.568,2.846,7.17,7.17,0,0,1,.827,5.318,10.768,10.768,0,0,1-3.105,4.858c-.926.886-1.872.994-3.083,1.437a12.563,12.563,0,0,1-3.355.494C1046.473,471.117,1045.165,470.932,1045.01,470.335Z" transform="translate(-1002.924 -453.505)" fill="#f79f7d"/>
      <path id="Trazado_12258" data-name="Trazado 12258" d="M1046.129,459.391l.592,2.375a1.155,1.155,0,0,1,.854,1.445l-.215,1.962.535.2c-.044-.785,1.045-.8,1.045-.8.8-.046.932.633.887,1.287-.118,1.7.5,4.394,1.923,4.868.562.188,1.622.383,1.8-.379a10.365,10.365,0,0,1,1.98-2.78,7.973,7.973,0,0,0,1.648-8.227,6.466,6.466,0,0,0-1.521-2.247,8.206,8.206,0,0,0-4.737-2.114,6.484,6.484,0,0,0-3.772.659,7.825,7.825,0,0,0-1.754,1.6A1.825,1.825,0,0,0,1046.129,459.391Z" transform="translate(-1003.309 -453.128)" fill="#3f1900"/>
      <g id="Grupo_12734" data-name="Grupo 12734" transform="translate(44.355 11.248)">
        <g id="Grupo_12733" data-name="Grupo 12733">
          <g id="Grupo_12732" data-name="Grupo 12732">
            <g id="Grupo_12731" data-name="Grupo 12731">
              <g id="Grupo_12730" data-name="Grupo 12730">
                <path id="Trazado_12259" data-name="Trazado 12259" d="M1049.169,471.386a.978.978,0,0,0,.619.233,1.436,1.436,0,0,0,1.4-1.389,1.316,1.316,0,0,0-1.153-1.512,1.239,1.239,0,0,0-.9.343,1.787,1.787,0,0,0-.362,1.44A1.347,1.347,0,0,0,1049.169,471.386Z" transform="translate(-1048.757 -468.716)" fill="#f79f7d"/>
              </g>
            </g>
          </g>
        </g>
      </g>
      <g id="Grupo_12737" data-name="Grupo 12737" transform="translate(45.072 11.715)">
        <g id="Grupo_12735" data-name="Grupo 12735" transform="translate(0.219)">
          <path id="Trazado_12260" data-name="Trazado 12260" d="M1050.133,469.66c.069-.418.894.038.751.267a1.287,1.287,0,0,1-.362.311.621.621,0,0,0-.291.443c0,.025-.014.1.01.116.105.083.492-.3.577-.387a.706.706,0,0,0,.146-.666.425.425,0,0,0-.448-.346c-.192,0-.388,0-.392.239,0,0,.006.044.009.023Z" transform="translate(-1050.124 -469.398)" fill="#e98a6f"/>
        </g>
        <g id="Grupo_12736" data-name="Grupo 12736" transform="translate(0 0.67)">
          <path id="Trazado_12261" data-name="Trazado 12261" d="M1050.277,470.423c-.083-.095-.172-.026-.267.034a.4.4,0,0,0-.168.239.992.992,0,0,0,.062.709.533.533,0,0,0,.442.273c.257.009.347-.213.37-.429.007-.058.021-.2-.034-.235s-.109.05-.153.088a.358.358,0,0,1-.223.068.467.467,0,0,1-.371-.194.245.245,0,0,1-.034-.068c-.009.142,0,.174.016.1a.364.364,0,0,1,.054-.1c.066-.095.17-.155.243-.244.034-.042.1-.19.062-.239Z" transform="translate(-1049.804 -470.377)" fill="#e98a6f"/>
        </g>
      </g>
      <g id="Grupo_12738" data-name="Grupo 12738" transform="translate(1.374 29.374)">
        <path id="Trazado_12262" data-name="Trazado 12262" d="M987.215,495.544c.548-.2.465-.57,1.012-.2.624.423,1.389.518,1.794.831.7.544,2.963,3.156.005,3.385-.689.055-3.087.795-3.577-.3-.726-1.616-.494-1.046,0-3.053Z" transform="translate(-985.988 -495.187)" fill="#f6a382"/>
      </g>
      <path id="Trazado_12263" data-name="Trazado 12263" d="M1041.234,489.5a3.946,3.946,0,1,1-5.453-1.188A3.947,3.947,0,0,1,1041.234,489.5Z" transform="translate(-999.739 -463.447)" fill="#f6a382"/>
      <path id="Trazado_12264" data-name="Trazado 12264" d="M1036.965,510.977c-.511,5.381-.843,18.559-.843,18.559,1.91,5.1,20.126.795,20.232-.366.127-1.391-.246-11.184-.528-16.911A21.964,21.964,0,0,0,1036.965,510.977Z" transform="translate(-1000.419 -470.304)" fill="#ffd37c"/>
      <path id="Trazado_12265" data-name="Trazado 12265" d="M1037.506,485.836c-3.7-1.239-7.318,3.526-7.318,3.526l-7.362,6.438s1.866,6.7,5.269,7.674c0,0,8.439-4.421,11.33-9.532C1039.425,493.942,1041.548,490.984,1037.506,485.836Z" transform="translate(-996.227 -462.8)" fill="#ffd37c"/>
      <path id="Trazado_12266" data-name="Trazado 12266" d="M1044.209,458.5c.543.437,1.233.15,1.852.006.845.991-.166,1.982,1.113,2.462a14.193,14.193,0,0,0,2.432.449c.6.1,1.206-.042,1.634.405.465.485.025,1.995.573,2.284.959.506,1.712-2.119,2.933-1.91,1.044.177,1.228,1.832.863,2.646a1.264,1.264,0,0,1,.273-.186c.5-1.3,1.132-1.319,1.68-2.24a3.745,3.745,0,0,0,.875-2.46c0-.012-.167-.6-.169-.607-.4-1.461-1.081-1.709-1.409-2.329a12.226,12.226,0,0,0-1.323-1.689,16.9,16.9,0,0,0-1.083-1.721,5.075,5.075,0,0,0-2.86-1.211c-1.056-.139-2.06.516-3.106.333-.429-.075-.831-.465-1.261-.44-.525.029-.889.551-1.342.755-.844.379-2.173.226-2.894.82a1.742,1.742,0,0,0-.134,2.409c.275.451.833.71,1.08,1.178C1044.005,457.581,1044.192,458.485,1044.209,458.5Z" transform="translate(-1002.411 -452.289)" fill="#3f1900"/>
      <path id="Trazado_12267" data-name="Trazado 12267" d="M987.594,494.53,984.05,492.6s-.779.729,2.9,2.7Z" transform="translate(-983.981 -464.997)" fill="#f6a382"/>
    </g>
    <g id="Grupo_12740" data-name="Grupo 12740" transform="translate(834.016 498.982)">
      <path id="Trazado_12268" data-name="Trazado 12268" d="M880.43,604.677l17.734-7.463a8.6,8.6,0,0,1,1.387,1.052c.829,1.092-.24,2.581,1.15,3.52,1.712,1.154,5.924.9,9.41-.564l.287-.124c3.274-1.461,4.587-3.5,2.923-4.622-1.063-.718-2.9-.672-4.391-.948a9.76,9.76,0,0,1-2.191-.638,7.754,7.754,0,0,1-1.2-.779l17.756-7.471L956.741,609.2l-42.869,18.039-13.835-9.337c.054-.026.112-.052.171-.079a16.806,16.806,0,0,1,1.826-.67c2.064-.453,4.854.1,6.637-.653,2.184-.973,1.739-3.179-.95-4.993-2.718-1.834-6.7-2.574-8.895-1.65-1.363.607-1.309,1.563-1.836,2.344a4.05,4.05,0,0,1-1.227,1.173c-.065.04-.315.165-.63.306-.261.116-.567.242-.852.339Z" transform="translate(-880.43 -586.639)" fill="#9daad3"/>
    </g>
    <g id="Grupo_12743" data-name="Grupo 12743" transform="translate(837.397 490.577)" style="isolation: isolate">
      <path id="Trazado_12269" data-name="Trazado 12269" d="M925.795,587.3a1.279,1.279,0,0,0-.646-1.055,2.305,2.305,0,0,0-.219-.129l-.073-.036c-.055-.026-.111-.051-.168-.075l-.041-.019c-.012,0-.026-.008-.038-.013-.092-.035-.186-.068-.284-.1h-.006c-.1-.029-.2-.054-.3-.079-.012,0-.023-.006-.035-.009l-.043-.008c-.123-.026-.247-.05-.375-.071l-.01,0-.031,0c-.131-.021-.264-.04-.4-.058l-.043-.005c-.14-.018-.283-.035-.425-.051l-.025,0-.345-.039c-.136-.016-.271-.031-.4-.049l-.074-.009c-.131-.018-.261-.036-.389-.057l-.2-.034c-.134-.025-.269-.053-.4-.082l-.073-.017c-.1-.022-.2-.044-.292-.069l-.008,0c-.1-.025-.194-.051-.29-.079l-.092-.028c-.066-.019-.132-.04-.2-.062l-.094-.032c-.067-.023-.133-.047-.2-.071l-.075-.028c-.083-.032-.163-.066-.24-.1a6.906,6.906,0,0,1-1.071-.7l.079,8.923a6.861,6.861,0,0,0,1.07.7c.077.036.157.069.24.1a.073.073,0,0,1,.018.007l.056.021c.065.025.132.049.2.073l.093.031c.066.021.134.043.2.064l.056.017.029.008c.1.028.194.055.293.08h0c.1.026.2.049.3.072l.028.007.04.008c.136.029.271.057.405.082l.166.029.033,0c.128.021.257.039.388.056l.078.01c.131.017.264.032.4.049h0l.262.029.106.012.431.051.034.005c.136.018.27.037.4.059l.042.006c.127.021.252.046.375.071l.079.018c.1.024.207.049.305.079s.2.062.288.1l.079.031c.058.024.114.05.169.077l.072.035c.076.04.149.082.218.128a1.282,1.282,0,0,1,.646,1.056Z" transform="translate(-895.714 -577.443)" fill="#394572"/>
      <path id="Trazado_12270" data-name="Trazado 12270" d="M902.52,611.306l.091-.021.125-.027.1-.018.087-.015.066,7.477,12.382,8.356-.079-8.923-10.256-6.922q.225.028.452.064l.1.018.17.03.123.024.162.034.114.025c.088.02.176.042.264.064l.074.019c.11.029.22.059.329.092l.064.019c.151.045.3.093.453.144l.023.008c.15.051.3.107.448.164l.036.014c.169.067.338.138.5.212l.025.011c.169.077.335.157.5.242l.016.008q.249.129.488.27l.008,0c.162.1.32.2.473.3,1.367.922,2.086,1.958,2.093,2.839l-.078-8.923c-.008-.882-.727-1.917-2.094-2.84q-.23-.155-.473-.3l-.009-.005q-.239-.141-.488-.269l-.018-.009c-.163-.084-.329-.165-.5-.241l-.025-.011c-.166-.075-.335-.146-.5-.213l-.01,0a.172.172,0,0,1-.026-.01c-.15-.058-.3-.114-.452-.166l-.018-.006c-.152-.052-.3-.1-.457-.145l-.035-.011-.023-.007c-.111-.033-.222-.063-.333-.092l-.068-.016c-.09-.023-.181-.045-.272-.066l-.051-.012-.057-.012-.17-.036-.118-.023-.171-.031c-.028,0-.055-.01-.084-.015l-.021,0q-.23-.037-.457-.065l-.036,0-.027,0q-.2-.021-.394-.036l-.033,0-.042,0c-.242-.015-.479-.02-.709-.014h-.042l-.036,0c-.112,0-.223.01-.331.018H903.3a.081.081,0,0,1-.019,0c-.114.01-.224.023-.333.038l-.036,0-.025,0-.134.023-.094.016-.136.029-.073.016-.01,0c-.1.023-.19.05-.281.078l-.062.021c-.092.031-.182.063-.268.1-.068.031-.132.063-.194.1l-.053.031c-.022.012-.045.023-.066.036l-.051.034c-.023.014-.045.028-.066.042s-.065.046-.1.07l-.055.041c-.006.006-.013.01-.018.015-.038.03-.072.062-.1.093l-.012.012c-.027.026-.053.052-.077.078l-.021.025-.035.04c-.023.028-.045.056-.066.084s-.02.026-.029.039l-.016.021c-.01.015-.018.03-.028.045s-.036.055-.053.082l-.037.064c-.015.027-.03.054-.044.082a.275.275,0,0,0-.015.029c-.006.01-.01.021-.015.031-.024.048-.047.1-.068.144l-.015.031-.084.193c-.02.049-.042.1-.064.146l-.025.057c-.026.059-.053.117-.083.175-.016.03-.033.06-.049.09-.008.014-.015.029-.023.043-.025.044-.052.088-.081.131l-.057.082c-.028.038-.058.078-.088.118-.014.017-.026.034-.04.05-.041.051-.083.1-.129.151l-.01.012c-.049.052-.1.1-.153.156l-.047.044c-.039.036-.079.072-.12.107l-.062.051c-.041.033-.085.067-.128.1l-.061.044c-.065.047-.131.091-.2.134l-.022.013-.01.006-.028.015-.016.008-.034.017-.024.012-.036.018-.033.016-.036.017-.042.021-.04.019-.046.022-.065.029-.03.015-.1.045c-.234.1-.507.218-.762.3l-12.4-8.365.078,8.923,12.4,8.365c.254-.086.528-.2.761-.3l.192-.087,0,0,.08-.038.006,0,.057-.027.023-.012a.437.437,0,0,0,.042-.021l.027-.012.031-.016.027-.013.022-.012.023-.012.014-.008.014-.008,0,0c.07-.042.137-.088.2-.134l.059-.043c.045-.034.088-.067.131-.1.01-.009.021-.016.032-.025s.018-.018.029-.026c.041-.036.081-.07.12-.107l.049-.046c.053-.05.1-.1.152-.153v0l.011-.011c.045-.05.087-.1.128-.149l.041-.052c.03-.038.059-.077.087-.116l.023-.031.035-.05c.029-.044.056-.087.081-.131.009-.016.017-.032.026-.049s.03-.053.044-.079v0c.03-.058.057-.117.084-.177l.024-.054.064-.147c.028-.065.055-.129.085-.2,0-.01.009-.018.012-.027.023-.05.047-.1.07-.147l.029-.058.047-.084.036-.062c.017-.028.036-.056.054-.083s.027-.044.043-.065l.03-.04c.021-.028.043-.055.066-.083.012-.013.023-.027.035-.041.031-.034.062-.068.1-.1l.013-.013c.038-.036.079-.073.123-.108.017-.014.036-.027.053-.041s.064-.048.1-.07.042-.028.065-.042.076-.047.117-.07l.053-.029c.061-.033.125-.064.194-.1.086-.036.175-.069.267-.1l.062-.021C902.33,611.356,902.423,611.33,902.52,611.306Z" transform="translate(-885.367 -581.797)" fill="#424887"/>
      <g id="Grupo_12741" data-name="Grupo 12741" transform="translate(29.928 20.195)">
        <path id="Trazado_12271" data-name="Trazado 12271" d="M967.439,603.857l.078,8.923-38.365,16.144L929.074,620Z" transform="translate(-929.074 -603.857)" fill="#5760aa"/>
      </g>
      <g id="Grupo_12742" data-name="Grupo 12742">
        <path id="Trazado_12272" data-name="Trazado 12272" d="M885.367,590.508l15.87-6.679a7.674,7.674,0,0,1,1.241.942c.742.976-.215,2.31,1.03,3.15,1.532,1.033,5.3.807,8.42-.505l.257-.11c2.93-1.307,4.105-3.132,2.616-4.137-.953-.643-2.593-.6-3.93-.848a8.8,8.8,0,0,1-1.961-.572,6.914,6.914,0,0,1-1.071-.7l15.891-6.686,29.93,20.194L915.3,610.7l-12.382-8.356c.049-.023.1-.047.153-.071a15.048,15.048,0,0,1,1.634-.6c1.846-.405,4.344.088,5.939-.583,1.954-.871,1.556-2.846-.85-4.469-2.432-1.641-6-2.3-7.96-1.476-1.219.543-1.172,1.4-1.643,2.1a3.61,3.61,0,0,1-1.1,1.049c-.058.036-.281.149-.563.274-.234.1-.507.218-.762.3Z" transform="translate(-885.367 -574.365)" fill="#6174b7"/>
      </g>
    </g>
    <g id="Grupo_12746" data-name="Grupo 12746" transform="translate(733.203 470.181)">
      <path id="Trazado_12273" data-name="Trazado 12273" d="M799.536,589.688c-1.064-.718-2.9-.673-4.391-.948a9.749,9.749,0,0,1-2.192-.639,7.679,7.679,0,0,1-1.2-.78l17.755-7.471-13.835-9.335c.055-.027.116-.055.178-.083a16.6,16.6,0,0,1,1.819-.667c2.063-.453,4.854.1,6.709-.684,2.112-.941,1.667-3.148-1.022-4.962-2.718-1.834-6.7-2.573-8.961-1.621-1.295.577-1.243,1.532-1.77,2.314a4.024,4.024,0,0,1-1.228,1.173c-.065.04-.314.166-.629.307-.261.116-.567.242-.852.339l-13.851-9.348L733.2,575.323l33.442,22.565,17.736-7.462a8.655,8.655,0,0,1,1.385,1.052c.829,1.091-.24,2.581,1.15,3.519,1.713,1.155,5.924.9,9.41-.563.1-.04.194-.084.289-.125C799.888,592.848,801.2,590.81,799.536,589.688Z" transform="translate(-733.203 -548.584)" fill="#9daad3"/>
      <g id="Grupo_12745" data-name="Grupo 12745" transform="translate(5.237)" style="isolation: isolate">
        <g id="Grupo_12744" data-name="Grupo 12744" transform="translate(55.913 8.975)">
          <path id="Trazado_12274" data-name="Trazado 12274" d="M832.758,557.686c0,.021,0,.043,0,.065s0,.046,0,.069,0,.038-.006.056,0,.045-.009.067-.007.043-.012.064-.006.033-.01.049-.012.044-.018.066-.008.031-.014.046a.261.261,0,0,1-.01.028,1.617,1.617,0,0,1-.075.178v0a1.618,1.618,0,0,1-.1.162l-.018.027a1.535,1.535,0,0,1-.121.15l-.037.04-.043.043c-.016.016-.033.032-.051.047l-.047.042-.045.036c-.027.023-.057.044-.086.066l-.047.033c-.031.022-.065.043-.1.064l-.044.028c-.029.017-.06.034-.091.049l-.051.029c-.049.025-.1.049-.153.073a4.144,4.144,0,0,1-.63.2q-.264.064-.543.1t-.543.06c-.257.021-.52.033-.787.04-.582.017-1.179.012-1.759.028-.262.008-.52.019-.771.04l.078,8.924c.252-.021.51-.033.771-.04.581-.016,1.178-.012,1.76-.028.266-.008.529-.019.786-.04.184-.015.366-.036.543-.061s.368-.061.543-.1a3.944,3.944,0,0,0,.631-.2c.053-.023.1-.047.153-.073l.042-.023c.034-.018.068-.036.1-.056l.01,0c.01-.006.019-.013.029-.018.035-.022.07-.044.1-.067l.047-.033c.029-.021.058-.043.086-.066l.026-.02.02-.016.047-.042c.017-.016.034-.031.051-.047l.042-.042.027-.027.01-.014a1.577,1.577,0,0,0,.122-.151l.008-.009.01-.016a1.553,1.553,0,0,0,.1-.164h0v0a1.577,1.577,0,0,0,.076-.18l.005-.014,0-.01c.005-.018.011-.036.016-.053s.011-.039.016-.059.008-.036.012-.053.007-.029.01-.044l0-.016c0-.023.006-.047.009-.072s0-.034.005-.051,0-.053,0-.079,0-.026,0-.039v-.017Z" transform="translate(-823.775 -557.686)" fill="#7c284b"/>
          <path id="Trazado_12275" data-name="Trazado 12275" d="M824.293,560.829l-.009,0a14.816,14.816,0,0,0-1.62.594c-.055.025-.109.049-.159.074l.079,8.923c.051-.024.1-.049.16-.074a15.249,15.249,0,0,1,1.619-.595l.01,0c.14-.031.285-.057.431-.078.175-.025.356-.045.539-.059l-.078-8.924c-.184.015-.364.034-.54.06C824.577,560.772,824.433,560.8,824.293,560.829Z" transform="translate(-822.505 -558.633)" fill="#7c284b"/>
        </g>
        <path id="Trazado_12276" data-name="Trazado 12276" d="M823,583l-.078-8.923-15.89,6.687.065,7.426a7.036,7.036,0,0,1-4.4-.557,1.593,1.593,0,0,1-.7-1.451q0-.221,0-.442a1.976,1.976,0,0,0-.325-1.257,7.71,7.71,0,0,0-1.239-.942l-15.873,6.679.078,8.924,15.873-6.679a7.584,7.584,0,0,1,1.239.941,1.835,1.835,0,0,1,.322,1.12l0,.442a1.676,1.676,0,0,0,.7,1.589c1.533,1.033,5.3.807,8.421-.5l.26-.112c2.075-.925,3.268-2.11,3.26-3.08q-.028-3.175-.055-6.35Z" transform="translate(-754.63 -553.877)" fill="#a0426e"/>
        <path id="Trazado_12277" data-name="Trazado 12277" d="M830.3,560l.079,8.922c-1.661.7-4.158.207-6,.613a14.924,14.924,0,0,0-1.628.6c-.056.025-.109.05-.16.074l-.079-8.923c.051-.025.1-.049.159-.074a14.784,14.784,0,0,1,1.628-.6C826.139,560.2,828.636,560.7,830.3,560Z" transform="translate(-766.593 -549.44)" fill="#7c284b"/>
        <path id="Trazado_12278" data-name="Trazado 12278" d="M770.78,588.351l-29.929-20.2.079,8.923,29.929,20.2Z" transform="translate(-740.851 -552.012)" fill="#7c284b"/>
        <path id="Trazado_12279" data-name="Trazado 12279" d="M800.216,573.579c-.951-.643-2.594-.6-3.929-.848a8.743,8.743,0,0,1-1.962-.572,6.885,6.885,0,0,1-1.07-.7l15.89-6.687-12.382-8.355c.051-.025.1-.049.159-.074a14.807,14.807,0,0,1,1.628-.6c1.846-.405,4.343.087,6-.612,1.891-.843,1.492-2.818-.915-4.441-2.432-1.642-6-2.3-8.019-1.45-1.159.516-1.113,1.371-1.584,2.071a3.61,3.61,0,0,1-1.1,1.05c-.059.036-.282.148-.564.274-.233.1-.507.217-.763.3l-12.4-8.365-38.365,16.144,29.929,20.2,15.873-6.679a7.709,7.709,0,0,1,1.239.942c.742.977-.214,2.31,1.03,3.149,1.532,1.034,5.3.807,8.421-.5.088-.036.175-.075.259-.112C800.531,576.407,801.7,574.583,800.216,573.579Z" transform="translate(-740.851 -544.579)" fill="#cb4e7e"/>
      </g>
    </g>
    <g id="Grupo_12779" data-name="Grupo 12779" transform="translate(783.866 419.677)">
      <path id="Trazado_12280" data-name="Trazado 12280" d="M807.191,628.461c0,4.7,8.559,8.505,19.117,8.505s19.116-3.807,19.116-8.505-8.559-8.505-19.116-8.505S807.191,623.764,807.191,628.461Z" transform="translate(-807.191 -517.837)" fill="#9daad3"/>
      <g id="Grupo_12778" data-name="Grupo 12778" transform="translate(0.77 0)">
        <g id="Grupo_12748" data-name="Grupo 12748" transform="translate(18.926 108.575)">
          <g id="Grupo_12747" data-name="Grupo 12747" transform="translate(0.528)">
            <path id="Trazado_12281" data-name="Trazado 12281" d="M845.307,631.175s2.028-.371,1.457,1.283c0,0-4.734,2.033-8.04,1.575a2.07,2.07,0,0,1-1.959-2.6l-.039-2.049,3.118.59-.177,1.947Z" transform="translate(-836.726 -629.385)" fill="#e69376"/>
          </g>
          <path id="Trazado_12282" data-name="Trazado 12282" d="M836.522,632.153a1.308,1.308,0,0,0,.311.878c.815.941,2.42.97,3.548.9a38.3,38.3,0,0,0,5.4-.755c.386-.081.494-.208.5-.322a1.577,1.577,0,0,0-1.215-.958l1.726-.221a4.353,4.353,0,0,1,2.688.549c.441,1.261-1.7,2.1-1.7,2.1a34.97,34.97,0,0,1-5.027,1.4s-6.059,1.429-6.791-.435Z" transform="translate(-835.955 -630.104)" fill="#4f1531"/>
        </g>
        <g id="Grupo_12750" data-name="Grupo 12750" transform="translate(6.888 105.759)">
          <g id="Grupo_12749" data-name="Grupo 12749" transform="translate(0.528)">
            <path id="Trazado_12283" data-name="Trazado 12283" d="M827.728,627.062s2.028-.371,1.457,1.283c0,0-4.734,2.033-8.04,1.575a2.071,2.071,0,0,1-1.96-2.6l-.038-2.049,3.117.59-.177,1.947Z" transform="translate(-819.146 -625.272)" fill="#e69376"/>
          </g>
          <path id="Trazado_12284" data-name="Trazado 12284" d="M818.942,628.04a1.312,1.312,0,0,0,.311.878c.816.941,2.42.97,3.549.9a38.38,38.38,0,0,0,5.4-.755c.387-.082.494-.209.5-.322a1.574,1.574,0,0,0-1.215-.958l1.726-.221a4.354,4.354,0,0,1,2.688.549c.441,1.261-1.706,2.1-1.706,2.1a34.9,34.9,0,0,1-5.026,1.4s-6.06,1.429-6.792-.435Z" transform="translate(-818.375 -625.991)" fill="#4f1531"/>
        </g>
        <g id="Grupo_12754" data-name="Grupo 12754" transform="translate(4.987 41.153)">
          <g id="Grupo_12751" data-name="Grupo 12751" transform="translate(0 5.89)">
            <path id="Trazado_12285" data-name="Trazado 12285" d="M827.171,545.31a5.786,5.786,0,1,1-5.786-5.787A5.787,5.787,0,0,1,827.171,545.31Z" transform="translate(-815.598 -539.523)" fill="#00468a"/>
            <path id="Trazado_12286" data-name="Trazado 12286" d="M817.743,575.464s.08,1.455,2.693,1.491c0,0,2.474.844,3.542-2.377,4.208-12.685,3.1-25.922,3.1-25.922s-5.942-3.31-11.477-1.046C815.6,547.609,816.494,564.26,817.743,575.464Z" transform="translate(-815.598 -541.823)" fill="#00468a"/>
          </g>
          <path id="Trazado_12287" data-name="Trazado 12287" d="M824.247,587.358s-2.039,27.416-2.228,28.4a3.4,3.4,0,0,1-3.746-.034c.01-1.345-1.456-12.556-1.608-14.661-.26-3.619-.694-8.19,1.592-13.389Z" transform="translate(-815.867 -548.714)" fill="#00468a"/>
          <g id="Grupo_12752" data-name="Grupo 12752" transform="translate(7.022 5.889)">
            <path id="Trazado_12288" data-name="Trazado 12288" d="M837.9,575.993s.557,1.346,3.035.514c0,0,2.613-.023,2.554-3.416-.232-13.364-6.087-27.212-6.087-27.212s-6.6-.63-11.068,3.34C826.333,549.219,833.006,565.835,837.9,575.993Z" transform="translate(-826.005 -541.514)" fill="#0058a8"/>
            <path id="Trazado_12289" data-name="Trazado 12289" d="M837.1,543.392a5.786,5.786,0,1,1-7.376-3.542A5.787,5.787,0,0,1,837.1,543.392Z" transform="translate(-825.854 -539.522)" fill="#0058a8"/>
          </g>
          <path id="Trazado_12290" data-name="Trazado 12290" d="M815.6,541.756c.7-6.435,3.928-9.421,3.928-9.421l11.185-1.413a28.61,28.61,0,0,1,3.407,10.834c-1.337,3.647-6.1,4.71-6.1,4.71L824.4,547.54S816.2,546.294,815.6,541.756Z" transform="translate(-815.598 -530.922)" fill="#0058a8"/>
          <g id="Grupo_12753" data-name="Grupo 12753" transform="translate(14.259 37.3)">
            <path id="Trazado_12291" data-name="Trazado 12291" d="M846.152,588.222s-5.548,28.8-5.882,29.74c.147-.07-2.622,1.273-3.848-.461.209-1.328.326-15.957.488-18.062.278-3.617.24-6.993,3.271-11.8C840.181,587.642,847.755,582.22,846.152,588.222Z" transform="translate(-836.422 -585.395)" fill="#0058a8"/>
          </g>
        </g>
        <path id="Trazado_12292" data-name="Trazado 12292" d="M836.3,619.539" transform="translate(-817.139 -517.706)" fill="#340e07"/>
        <g id="Grupo_12757" data-name="Grupo 12757" transform="translate(0 15.401)">
          <g id="Grupo_12755" data-name="Grupo 12755" transform="translate(0.393 15.452)">
            <path id="Trazado_12293" data-name="Trazado 12293" d="M812.656,515.879s2.037,2.4,6.09,8.192l-.7,1.188s-6.941-3.5-9.156-7.421Z" transform="translate(-808.89 -515.879)" fill="#e69376"/>
          </g>
          <g id="Grupo_12756" data-name="Grupo 12756">
            <path id="Trazado_12294" data-name="Trazado 12294" d="M818.212,500.181s-5.225,11.4-8.363,10.968c0,0-1.083.068-1.3-.748,0,0-2.217-1.965,7-16.142a2.841,2.841,0,0,1,2.744-.894S821.091,495.213,818.212,500.181Z" transform="translate(-808.315 -493.313)" fill="#e69376"/>
          </g>
        </g>
        <g id="Grupo_12758" data-name="Grupo 12758" transform="translate(12.698 13.344)">
          <rect id="Rectángulo_3015" data-name="Rectángulo 3015" width="5.648" height="6.004" fill="#f3b68e"/>
        </g>
        <g id="Grupo_12759" data-name="Grupo 12759" transform="translate(9.658 0.835)">
          <path id="Trazado_12295" data-name="Trazado 12295" d="M834.6,484.686l.212-.959.423-3.516a3.206,3.206,0,0,0-.209-1.428,3.233,3.233,0,0,1-.287-1.461,4.12,4.12,0,0,0-1.408-3.674c-1.927-2.045-5.642-1.556-5.642-1.556a5.879,5.879,0,0,0-4.429,2.827,5.988,5.988,0,0,0-.529,4.884,9.925,9.925,0,0,0,3.394,4.264,8.012,8.012,0,0,0,3.181,1.15,13.884,13.884,0,0,0,3.4.277C833.177,485.472,834.48,485.237,834.6,484.686Z" transform="translate(-822.419 -472.041)" fill="#f6a382"/>
        </g>
        <g id="Grupo_12760" data-name="Grupo 12760" transform="translate(19.268 10.227)">
          <path id="Trazado_12296" data-name="Trazado 12296" d="M836.454,485.757" transform="translate(-836.454 -485.757)" fill="#340e07"/>
        </g>
        <g id="Grupo_12761" data-name="Grupo 12761" transform="translate(9.056)">
          <path id="Trazado_12297" data-name="Trazado 12297" d="M831.752,481.049c-.279-.4-1.293-.64-1.294-.64-1.226,0-1.066,1.637-1.182,2.346-.038.23-.082.468-.134.7-.584,2.081-2.333,2.063-3.827,2.315-.056-.033-.114-.066-.175-.1a5.974,5.974,0,0,0-1.131-1.881,8.024,8.024,0,0,1-2.123-8.172,6.518,6.518,0,0,1,1.4-2.343,8.257,8.257,0,0,1,4.638-2.392c1.738-.327,7.954.516,6.258,4.292,0,0-2.558,2.951-2.432,5.87" transform="translate(-821.54 -470.822)" fill="#340e07"/>
        </g>
        <g id="Grupo_12769" data-name="Grupo 12769" transform="translate(17.067 9.26)">
          <g id="Grupo_12765" data-name="Grupo 12765">
            <g id="Grupo_12762" data-name="Grupo 12762" transform="translate(0.136 0.114)">
              <path id="Trazado_12298" data-name="Trazado 12298" d="M835.5,485.365a1.175,1.175,0,0,0-1.384-.809.924.924,0,0,0-.676,1c.009.1.031.2.041.3a2.125,2.125,0,0,0,1.313,1.487" transform="translate(-833.439 -484.512)" fill="#f7b68d"/>
            </g>
            <g id="Grupo_12763" data-name="Grupo 12763" transform="translate(0.721 0.591)">
              <path id="Trazado_12299" data-name="Trazado 12299" d="M834.5,485.283a.624.624,0,0,1,.272-.075c.412-.026.744.609.332.722a.235.235,0,0,0,.005.326c.142.153.332.375.29.592-.026.128-.169.2-.3.229-.1.026-.124-.055-.042-.094a.458.458,0,0,0,.157-.129l.012-.022a.053.053,0,0,0,.01-.017.133.133,0,0,0,0-.093.254.254,0,0,1-.32,0c-.078-.094-.019-.241-.045-.349a.79.79,0,0,0-.1-.213.22.22,0,0,1,.152-.368,1.1,1.1,0,0,1,.125.009c.173-.09-.02-.349-.125-.39a.332.332,0,0,0-.36.062.511.511,0,0,0-.114.364,1.19,1.19,0,0,0,.112.435c.038.078.085.169.122.247s-.06.127-.1.039a2.586,2.586,0,0,1-.294-.718A.544.544,0,0,1,834.5,485.283Z" transform="translate(-834.294 -485.208)" fill="#dc9d7e"/>
            </g>
            <g id="Grupo_12764" data-name="Grupo 12764">
              <path id="Trazado_12300" data-name="Trazado 12300" d="M835.441,485.312s-.049-.07-.129-.2a1.716,1.716,0,0,0-.171-.2,1.342,1.342,0,0,0-.26-.2,1.056,1.056,0,0,0-.353-.127.894.894,0,0,0-.4.027,1.087,1.087,0,0,0-.2.086.945.945,0,0,0-.162.125.776.776,0,0,0-.215.366,1.107,1.107,0,0,0-.007.455l.016.123v.018c0-.007,0,.018,0-.015v.012l.005.03.012.061a1.358,1.358,0,0,0,.059.218,1.778,1.778,0,0,0,.191.381,2.316,2.316,0,0,0,.247.306,2.783,2.783,0,0,0,.465.386c.123.081.2.123.2.123a1.421,1.421,0,0,1-.225-.074,2.361,2.361,0,0,1-.548-.314,1.9,1.9,0,0,1-.307-.3,1.619,1.619,0,0,1-.255-.42,1.578,1.578,0,0,1-.082-.247l-.016-.06-.008-.03,0-.007,0-.025,0-.016-.018-.124a1.347,1.347,0,0,1,.006-.553,1.062,1.062,0,0,1,.3-.493c.037-.031.072-.063.112-.09l.129-.073a1.25,1.25,0,0,1,.249-.088,1.029,1.029,0,0,1,.509.008,1.11,1.11,0,0,1,.4.2,1.139,1.139,0,0,1,.249.269,1.69,1.69,0,0,1,.139.24C835.414,485.229,835.441,485.312,835.441,485.312Z" transform="translate(-833.24 -484.345)" fill="#dc9d7e"/>
            </g>
          </g>
          <g id="Grupo_12768" data-name="Grupo 12768" transform="translate(1.494 2.338)">
            <g id="Grupo_12766" data-name="Grupo 12766">
              <path id="Trazado_12301" data-name="Trazado 12301" d="M835.423,488.1a.342.342,0,1,0,.342-.342A.343.343,0,0,0,835.423,488.1Z" transform="translate(-835.423 -487.76)" fill="#fff"/>
            </g>
            <g id="Grupo_12767" data-name="Grupo 12767">
              <path id="Trazado_12302" data-name="Trazado 12302" d="M835.683,488.285a.271.271,0,0,0,.271-.271.266.266,0,0,0-.189-.253h0a.342.342,0,1,1-.342.342c0-.008,0-.016,0-.024A.267.267,0,0,0,835.683,488.285Z" transform="translate(-835.423 -487.76)" fill="#e6e7e8"/>
            </g>
          </g>
        </g>
        <g id="Grupo_12770" data-name="Grupo 12770" transform="translate(3.566 15.41)">
          <path id="Trazado_12303" data-name="Trazado 12303" d="M813.585,523.166l6.235-8.947a11.968,11.968,0,0,0-.365-3.931l-1.993-13.71c.236-1.571.344-3.566,2.471-3.209a13.2,13.2,0,0,1,2.721.759c-.271,1.273,1.926,2.091,1.926,2.091,3.023,1.306,3.722.445,3.722.445a45.128,45.128,0,0,1,4.231,2.375,3.115,3.115,0,0,1,.947,3.126l-2.175,12.994.383,3.228,3.974,10.077a8.542,8.542,0,0,0-3.872-.463c-1.236.148-2.3.876-3.528,1.013a6.823,6.823,0,0,1-4.631-1.352,22.353,22.353,0,0,1-5.36-1.884h-.116c-1.387.008-2.958-.016-3.982-1.1C813.958,524.446,813.323,523.543,813.585,523.166Z" transform="translate(-813.523 -493.327)" fill="#4f1531"/>
        </g>
        <g id="Grupo_12771" data-name="Grupo 12771" transform="translate(18.867 21.099)">
          <path id="Trazado_12304" data-name="Trazado 12304" d="M842.148,522.46l-.036-15.785c-.384-4.326-2.533-5.016-2.533-5.016-4.341-.508-3.673,7.537-3.673,7.537l1.813,13.6" transform="translate(-835.869 -501.635)" fill="#f6a382"/>
        </g>
        <g id="Grupo_12772" data-name="Grupo 12772" transform="translate(26.814 16.499)">
          <path id="Trazado_12305" data-name="Trazado 12305" d="M856.123,514.041l-8.649-3.73,6.806-15.394,9.285,3.728Z" transform="translate(-847.474 -494.917)" fill="#c6e9fa"/>
        </g>
        <g id="Grupo_12773" data-name="Grupo 12773" transform="translate(34.488 29.454)">
          <path id="Trazado_12306" data-name="Trazado 12306" d="M862.636,513.837a4.266,4.266,0,0,1-1.052,1.369c-.524.415-1.4.29-1.738.592-.588.528-2.412,2.987.219,2.994.612,0,2.719.007,3.081-.992a3.41,3.41,0,0,0-.111-3.327Z" transform="translate(-858.682 -513.837)" fill="#f6a382"/>
        </g>
        <g id="Grupo_12776" data-name="Grupo 12776" transform="translate(20.442 32.296)">
          <g id="Grupo_12774" data-name="Grupo 12774" transform="translate(0 8.519)">
            <path id="Trazado_12307" data-name="Trazado 12307" d="M838.169,530.428" transform="translate(-838.169 -530.428)" fill="#f7b68d"/>
          </g>
          <g id="Grupo_12775" data-name="Grupo 12775" transform="translate(0.086)">
            <path id="Trazado_12308" data-name="Trazado 12308" d="M840.079,524.747l13.851-6.76c1.665.464,1.422,1.211,1.422,1.211l-8.506,6.8c-3.557,2.956-6.113,3.318-6.113,3.318s-2.234.812-2.438-2.387A2.41,2.41,0,0,1,840.079,524.747Z" transform="translate(-838.294 -517.987)" fill="#f6a382"/>
          </g>
        </g>
        <g id="Grupo_12777" data-name="Grupo 12777" transform="translate(4.426 0.191)">
          <path id="Trazado_12309" data-name="Trazado 12309" d="M830.821,480.17c-.351,2.618.045,6.083-1.259,8.943-.581,1.274-1.222,1.906-.874,3.383.285,1.209.857,2.351,1.167,3.6.685,2.764-.247,5.464-3.468,4.463a3.357,3.357,0,0,0-3.123.073,4.084,4.084,0,0,1-3.466.014c-1.821-.888-1.273-2.228-2.293-3.57-.777-1.023-1.876-1-2.462-2.373-.707-1.66.135-2.545,1-3.953a5.179,5.179,0,0,0,.745-4.2,6.084,6.084,0,0,1,.611-3.6c.5-1.4.284-2.619.523-4.024.473-2.775,1.99-6.543,4.9-7.357a8.159,8.159,0,0,1,4.638-.208c1.867.685,3.947,1.415,3.866,3.711A37.851,37.851,0,0,1,830.821,480.17Z" transform="translate(-814.779 -471.1)" fill="#340e07"/>
        </g>
        <path id="Trazado_12310" data-name="Trazado 12310" d="M860.013,515.883s.686.95,1.261-.333l-.06-1.7a.532.532,0,0,0-.354-.583s-.28,0-.344.483Z" transform="translate(-824.613 -484.204)" fill="#f6a382"/>
      </g>
    </g>
  </g>
</svg>
