<svg xmlns="http://www.w3.org/2000/svg" width="63.979" height="61" viewBox="0 0 63.979 61">
  <g id="Grupo_18180" data-name="Grupo 18180" transform="translate(-235 -17492)">
    <circle id="Elipse_802" data-name="Elipse 802" cx="30.5" cy="30.5" r="30.5" transform="translate(235 17492)" fill="#f8e9e5"/>
    <g id="gift" transform="translate(250 17502)">
      <g id="Grupo_13540" data-name="Grupo 13540" transform="translate(0 0.001)">
        <path id="Trazado_15124" data-name="Trazado 15124" d="M34.272,10.564a10.182,10.182,0,0,0,2.5-1.176,5.207,5.207,0,1,0-6.2-8.367c-.537.4-1.581,1.424-4.44,5.738-.6.906-1.171,1.792-1.643,2.535-.472-.743-1.043-1.629-1.643-2.535-2.859-4.314-3.9-5.341-4.44-5.738a5.207,5.207,0,1,0-6.2,8.367,10.178,10.178,0,0,0,2.5,1.176H0V22.893H2.87V48.98H46.1V22.893h2.878V10.564ZM32.279,3.328A2.337,2.337,0,1,1,35.066,7.08c-.682.5-3.876,1.56-7.4,2.566C29.656,6.574,31.6,3.832,32.279,3.328ZM13.913,7.08A2.337,2.337,0,0,1,16.7,3.328c.681.5,2.622,3.247,4.612,6.318C17.789,8.64,14.595,7.585,13.913,7.08ZM17.219,46.11H5.74V22.893H17.219Zm0-26.087H2.87V13.434H17.219ZM28.809,46.11h-8.72V22.893h8.72Zm0-26.087h-8.72V13.434h8.72ZM43.232,46.11H31.678V22.893H43.232Zm2.878-26.087H31.678V13.434H46.109Z" transform="translate(0 -0.001)" fill="#97181a"/>
      </g>
    </g>
  </g>
</svg>
