<svg xmlns="http://www.w3.org/2000/svg" width="76" height="75.104" viewBox="0 0 76 75.104">
  <g id="Grupo_18081" data-name="Grupo 18081" transform="translate(-235 -12945)">
    <circle id="Elipse_797" data-name="Elipse 797" cx="30.5" cy="30.5" r="30.5" transform="translate(235 12945)" fill="#efd6d0"/>
    <g id="market" transform="translate(248 12957.104)">
      <path id="Trazado_17154" data-name="Trazado 17154" d="M31,20.816V23h2V21h2V18a3,3,0,0,0-3-3,1,1,0,0,1-1-1V13h1a1,1,0,0,1,1,1v1h2V14a3,3,0,0,0-2-2.816V9H31v2H29v3a3,3,0,0,0,3,3,1,1,0,0,1,1,1v1H32a1,1,0,0,1-1-1V17H29v1A3,3,0,0,0,31,20.816Z" fill="#97181a"/>
      <path id="Trazado_17155" data-name="Trazado 17155" d="M37.757,33h8.485v2H37.757Z" transform="translate(-11.74 39.657) rotate(-45)" fill="#97181a"/>
      <circle id="Elipse_825" data-name="Elipse 825" cx="1" cy="1" r="1" transform="translate(43 35)" fill="#97181a"/>
      <circle id="Elipse_826" data-name="Elipse 826" cx="1" cy="1" r="1" transform="translate(39 31)" fill="#97181a"/>
      <path id="Trazado_17156" data-name="Trazado 17156" d="M58.724,34.737,42,22.771,25.276,34.737l.7.828c.425.5.876.978,1.341,1.435H5V11H24.054a21.18,21.18,0,0,0-.461,21.111l.532.969L41,21.476V.9l-1.1.109a20.92,20.92,0,0,0-7.056,2H3A2,2,0,0,0,1,5V9a2,2,0,0,0,2,2V37a2,2,0,0,0,2,2h8.247L1.358,59.12A2.571,2.571,0,0,0,3.57,63H5.1a2.578,2.578,0,0,0,2.22-1.275L11.24,55H19v5.43A2.573,2.573,0,0,0,21.57,63h.859A2.573,2.573,0,0,0,25,60.43V55h7.759l3.923,6.725A2.582,2.582,0,0,0,38.9,63h1.527a2.572,2.572,0,0,0,2.213-3.879L31.426,40.139a20.978,20.978,0,0,0,26.6-4.574ZM39,20.424,24.842,30.16A19.093,19.093,0,0,1,39,3.137ZM3,5H29.53a20.89,20.89,0,0,0-4.095,4H3ZM23,39V53H21V39ZM5.59,60.717A.571.571,0,0,1,5.1,61H3.57A.571.571,0,0,1,3,60.43a.562.562,0,0,1,.08-.291L15.571,39h2.687ZM12.407,53,19,41.7V53ZM23,60.43a.571.571,0,0,1-.57.57h-.86a.571.571,0,0,1-.57-.57V55h2ZM25,53V41.7L31.592,53Zm16,7.43a.571.571,0,0,1-.57.57H38.9a.569.569,0,0,1-.492-.283L25.742,39h2.687L40.921,60.14A.564.564,0,0,1,41,60.43ZM42,41a18.945,18.945,0,0,1-13.771-5.916L42,25.229l13.771,9.854A18.942,18.942,0,0,1,42,41Z" fill="#97181a"/>
      <path id="Trazado_17157" data-name="Trazado 17157" d="M60.4,32.1A21.08,21.08,0,0,0,44.1,1L43,.9V21.477L59.871,33.068Zm-.3-15.792a18.864,18.864,0,0,1,.746,3.426L53.988,26.6l-2.474-1.7ZM49.838,23.748l-2.473-1.7L57.842,11.572a19.479,19.479,0,0,1,1.479,2.693ZM45,10.414l5.47-5.471a19.005,19.005,0,0,1,2.586,1.585L45,14.586Zm3.512-6.341L45,7.586V3.137A18.46,18.46,0,0,1,48.512,4.073ZM45,17.414,54.613,7.8a19.477,19.477,0,0,1,2.036,2.136L45.688,20.9,45,20.424ZM55.664,27.75l5.324-5.324a18.914,18.914,0,0,1-1.826,7.728Z" fill="#97181a"/>
      <path id="Trazado_17158" data-name="Trazado 17158" d="M7,35H21V33H19V21H17V33H15V25H13v8H11V29H9v4H7Z" fill="#97181a"/>
      <path id="Trazado_17159" data-name="Trazado 17159" d="M7,13h4v2H7Z" fill="#97181a"/>
      <path id="Trazado_17160" data-name="Trazado 17160" d="M13,13h6v2H13Z" fill="#97181a"/>
      <path id="Trazado_17161" data-name="Trazado 17161" d="M7,17H19v2H7Z" fill="#97181a"/>
      <path id="Trazado_17162" data-name="Trazado 17162" d="M44,45a3,3,0,1,0,3,3A3,3,0,0,0,44,45Zm0,4a1,1,0,1,1,1-1A1,1,0,0,1,44,49Z" fill="#97181a"/>
      <path id="Trazado_17163" data-name="Trazado 17163" d="M52,45a3,3,0,1,0,3,3A3,3,0,0,0,52,45Zm0,4a1,1,0,1,1,1-1A1,1,0,0,1,52,49Z" fill="#97181a"/>
      <path id="Trazado_17164" data-name="Trazado 17164" d="M60,45a3,3,0,1,0,3,3A3,3,0,0,0,60,45Zm0,4a1,1,0,1,1,1-1A1,1,0,0,1,60,49Z" fill="#97181a"/>
    </g>
  </g>
</svg>
