<svg xmlns="http://www.w3.org/2000/svg" width="76" height="75.972" viewBox="0 0 76 75.972">
  <g id="Grupo_18175" data-name="Grupo 18175" transform="translate(-235 -15949.847)">
    <circle id="Elipse_797" data-name="Elipse 797" cx="30.5" cy="30.5" r="30.5" transform="translate(239 15950)" fill="#f8e9e5"/>
    <g id="caja" transform="translate(235 15949.758)">
      <g id="Grupo_13466" data-name="Grupo 13466" transform="translate(24.066 22.861)">
        <g id="Grupo_13465" data-name="Grupo 13465">
          <path id="Trazado_15072" data-name="Trazado 15072" d="M179.822,152.45a.963.963,0,0,0-.047-.114,1.331,1.331,0,0,0-.077-.186,1.279,1.279,0,0,0-.087-.117,1.205,1.205,0,0,0-.11-.143,17.956,17.956,0,0,1-.244-.2l-12.667-7.6a1.267,1.267,0,0,0-1.3,0l-12.667,7.6a1.112,1.112,0,0,0-.133.1,1.443,1.443,0,0,0-.119.094,1.338,1.338,0,0,0-.109.142,1.125,1.125,0,0,0-.089.118,1.332,1.332,0,0,0-.076.181,1.261,1.261,0,0,0-.048.12,1.221,1.221,0,0,0-.044.328v12.667a1.267,1.267,0,0,0,.614,1.086l12.667,7.6.014.006.014.01a1.231,1.231,0,0,0,.208.085c.029.01.057.027.087.035a1.247,1.247,0,0,0,.659,0c.03-.009.058-.025.087-.035a1.229,1.229,0,0,0,.208-.085l.014-.01.014-.006,12.667-7.6a1.267,1.267,0,0,0,.614-1.086V152.779A1.239,1.239,0,0,0,179.822,152.45Zm-13.889-5.794,3.871,2.323L159.6,155.1l-3.871-2.323Zm-1.267,24.151-10.133-6.08v-9.712l10.133,6.08Zm1.267-11.905-3.871-2.323,10.2-6.123,3.871,2.323Zm11.4,5.827-10.133,6.08V161.1l10.133-6.08Z" transform="translate(-152 -143.913)" fill="#97181a"/>
        </g>
      </g>
      <g id="Grupo_13468" data-name="Grupo 13468" transform="translate(33.186 0.089)">
        <g id="Grupo_13467" data-name="Grupo 13467" transform="translate(0 0)">
          <path id="Trazado_15073" data-name="Trazado 15073" d="M215.427.567a1.312,1.312,0,0,0-2.027,0l-3.8,5.067,2.027,1.52,1.52-2.027V15.261h2.533V5.127l1.52,2.027,2.027-1.52Z" transform="translate(-209.6 -0.089)" fill="#97181a"/>
        </g>
      </g>
      <g id="Grupo_13470" data-name="Grupo 13470" transform="translate(33.186 60.86)">
        <g id="Grupo_13469" data-name="Grupo 13469">
          <path id="Trazado_15074" data-name="Trazado 15074" d="M217.2,392.018l-1.52,2.027V383.911h-2.533v10.133l-1.52-2.027-2.027,1.52,3.8,5.067a1.267,1.267,0,0,0,2.027,0l3.8-5.067Z" transform="translate(-209.6 -383.911)" fill="#97181a"/>
        </g>
      </g>
      <g id="Grupo_13472" data-name="Grupo 13472" transform="translate(36.733 17.794)">
        <g id="Grupo_13471" data-name="Grupo 13471">
          <rect id="Rectángulo_3114" data-name="Rectángulo 3114" width="2.533" height="2.533" fill="#97181a"/>
        </g>
      </g>
      <g id="Grupo_13474" data-name="Grupo 13474" transform="translate(36.733 55.794)">
        <g id="Grupo_13473" data-name="Grupo 13473">
          <rect id="Rectángulo_3115" data-name="Rectángulo 3115" width="2.533" height="2.533" fill="#97181a"/>
        </g>
      </g>
      <g id="Grupo_13476" data-name="Grupo 13476" transform="translate(-0.001 33.247)">
        <g id="Grupo_13475" data-name="Grupo 13475" transform="translate(0)">
          <path id="Trazado_15075" data-name="Trazado 15075" d="M15.2,213.058H5.066l2.027-1.52-1.52-2.027-5.067,3.8a1.267,1.267,0,0,0,0,2.027l5.067,3.8,1.52-2.027-2.027-1.52H15.2Z" transform="translate(0.001 -209.511)" fill="#97181a"/>
        </g>
      </g>
      <g id="Grupo_13478" data-name="Grupo 13478" transform="translate(60.799 33.247)">
        <g id="Grupo_13477" data-name="Grupo 13477">
          <path id="Trazado_15076" data-name="Trazado 15076" d="M398.947,213.564a1.272,1.272,0,0,0-.253-.253l-5.067-3.8-1.52,2.027,2.027,1.52H384v2.533h10.133l-2.027,1.52,1.52,2.027,5.067-3.8A1.267,1.267,0,0,0,398.947,213.564Z" transform="translate(-384 -209.511)" fill="#97181a"/>
        </g>
      </g>
      <g id="Grupo_13480" data-name="Grupo 13480" transform="translate(17.733 36.794)">
        <g id="Grupo_13479" data-name="Grupo 13479">
          <rect id="Rectángulo_3116" data-name="Rectángulo 3116" width="2.533" height="2.533" fill="#97181a"/>
        </g>
      </g>
      <g id="Grupo_13482" data-name="Grupo 13482" transform="translate(55.733 36.794)">
        <g id="Grupo_13481" data-name="Grupo 13481">
          <rect id="Rectángulo_3117" data-name="Rectángulo 3117" width="2.533" height="2.533" fill="#97181a"/>
        </g>
      </g>
      <g id="Grupo_13484" data-name="Grupo 13484" transform="translate(10.752 10.813)">
        <g id="Grupo_13483" data-name="Grupo 13483">
          <path id="Trazado_15077" data-name="Trazado 15077" d="M79.933,78.053l-7.164-7.164,2.507.357.358-2.508-6.269-.9a1.267,1.267,0,0,0-1.439,1.439l.9,6.269,2.508-.358-.357-2.507,7.164,7.164Z" transform="translate(-67.913 -67.823)" fill="#97181a"/>
        </g>
      </g>
      <g id="Grupo_13486" data-name="Grupo 13486" transform="translate(53.226 53.29)">
        <g id="Grupo_13485" data-name="Grupo 13485">
          <path id="Trazado_15078" data-name="Trazado 15078" d="M348.172,346.66l-.9-6.269-2.511.361.357,2.507-7.164-7.164-1.791,1.791,7.164,7.164-2.5-.36-.358,2.508,6.269.9a1.245,1.245,0,0,0,.18.013,1.267,1.267,0,0,0,1.267-1.266A1.249,1.249,0,0,0,348.172,346.66Z" transform="translate(-336.168 -336.095)" fill="#97181a"/>
        </g>
      </g>
      <g id="Grupo_13488" data-name="Grupo 13488" transform="translate(22.773 22.835)">
        <g id="Grupo_13487" data-name="Grupo 13487" transform="translate(0 0)">
          <rect id="Rectángulo_3118" data-name="Rectángulo 3118" width="2.533" height="2.533" transform="translate(0 1.791) rotate(-45)" fill="#97181a"/>
        </g>
      </g>
      <g id="Grupo_13490" data-name="Grupo 13490" transform="translate(49.644 49.703)">
        <g id="Grupo_13489" data-name="Grupo 13489" transform="translate(0 0)">
          <rect id="Rectángulo_3119" data-name="Rectángulo 3119" width="2.533" height="2.533" transform="translate(0 1.791) rotate(-45)" fill="#97181a"/>
        </g>
      </g>
      <g id="Grupo_13492" data-name="Grupo 13492" transform="translate(10.753 53.287)">
        <g id="Grupo_13491" data-name="Grupo 13491">
          <path id="Trazado_15079" data-name="Trazado 15079" d="M72.768,345.034l7.164-7.164-1.786-1.791-7.164,7.164.357-2.507-2.508-.358-.9,6.269a1.267,1.267,0,0,0,1.254,1.447,1.244,1.244,0,0,0,.18-.013l6.269-.9-.358-2.508Z" transform="translate(-67.918 -336.079)" fill="#97181a"/>
        </g>
      </g>
      <g id="Grupo_13494" data-name="Grupo 13494" transform="translate(53.226 10.819)">
        <g id="Grupo_13493" data-name="Grupo 13493">
          <path id="Trazado_15080" data-name="Trazado 15080" d="M347.811,68.229a1.254,1.254,0,0,0-1.075-.358l-6.269.9.358,2.508,2.507-.357-7.164,7.164,1.791,1.791,7.164-7.164-.357,2.5,2.508.361.9-6.269A1.266,1.266,0,0,0,347.811,68.229Z" transform="translate(-336.168 -67.857)" fill="#97181a"/>
        </g>
      </g>
      <g id="Grupo_13496" data-name="Grupo 13496" transform="translate(22.774 49.705)">
        <g id="Grupo_13495" data-name="Grupo 13495" transform="translate(0 0)">
          <rect id="Rectángulo_3120" data-name="Rectángulo 3120" width="2.533" height="2.533" transform="translate(0 1.791) rotate(-45)" fill="#97181a"/>
        </g>
      </g>
      <g id="Grupo_13498" data-name="Grupo 13498" transform="translate(49.644 22.83)">
        <g id="Grupo_13497" data-name="Grupo 13497" transform="translate(0 0)">
          <rect id="Rectángulo_3121" data-name="Rectángulo 3121" width="2.533" height="2.533" transform="translate(0 1.791) rotate(-45)" fill="#97181a"/>
        </g>
      </g>
    </g>
  </g>
</svg>
