<svg xmlns="http://www.w3.org/2000/svg" width="68.848" height="74.627" viewBox="0 0 68.848 74.627">
  <g id="Grupo_13444" data-name="Grupo 13444" transform="translate(-235 -16639)">
    <circle id="Elipse_797" data-name="Elipse 797" cx="30.5" cy="30.5" r="30.5" transform="translate(235 16639)" fill="#efd6d0"/>
    <g id="clipboard" transform="translate(244.373 16654.152)">
      <path id="Trazado_15044" data-name="Trazado 15044" d="M15.212,12.9H9.943A.943.943,0,0,0,9,13.846V19.5a.943.943,0,0,0,.943.943H15.6a.943.943,0,0,0,.943-.943V14.237l1.61-1.61-1.334-1.334Zm-1.886,1.886-2.439,2.439V14.789Zm1.334,3.773H12.22l2.439-2.439Z" transform="translate(-0.455 -0.585)" fill="#97181a"/>
      <path id="Trazado_15045" data-name="Trazado 15045" d="M15.212,22.9H9.943A.943.943,0,0,0,9,23.846V29.5a.943.943,0,0,0,.943.943H15.6a.943.943,0,0,0,.943-.943V24.237l1.61-1.61-1.334-1.334Zm-1.886,1.886-2.439,2.439V24.789Zm1.334,3.773H12.22l2.439-2.439Z" transform="translate(-0.455 -1.154)" fill="#97181a"/>
      <path id="Trazado_15046" data-name="Trazado 15046" d="M15.212,32.9H9.943A.942.942,0,0,0,9,33.846V39.5a.942.942,0,0,0,.943.943H15.6a.942.942,0,0,0,.943-.943V34.237l1.61-1.61-1.334-1.334Zm-1.886,1.886-2.439,2.439V34.789Zm1.334,3.773H12.22l2.439-2.439Z" transform="translate(-0.455 -1.722)" fill="#97181a"/>
      <path id="Trazado_15047" data-name="Trazado 15047" d="M16.821,41.293l-1.61,1.61H9.943A.942.942,0,0,0,9,43.846V49.5a.942.942,0,0,0,.943.943H15.6a.942.942,0,0,0,.943-.943V44.237l1.61-1.61Zm-3.5,3.5-2.439,2.439V44.789Zm1.334,3.773H12.22l2.439-2.439Z" transform="translate(-0.455 -2.291)" fill="#97181a"/>
      <path id="Trazado_15048" data-name="Trazado 15048" d="M21,13H37.977v1.886H21Z" transform="translate(-1.137 -0.682)" fill="#97181a"/>
      <path id="Trazado_15049" data-name="Trazado 15049" d="M21,19H37.977v1.886H21Z" transform="translate(-1.137 -1.023)" fill="#97181a"/>
      <path id="Trazado_15050" data-name="Trazado 15050" d="M21,23H37.977v1.886H21Z" transform="translate(-1.137 -1.251)" fill="#97181a"/>
      <path id="Trazado_15051" data-name="Trazado 15051" d="M21,29h7.545v1.886H21Z" transform="translate(-1.137 -1.592)" fill="#97181a"/>
      <path id="Trazado_15052" data-name="Trazado 15052" d="M21,33h7.545v1.886H21Z" transform="translate(-1.137 -1.819)" fill="#97181a"/>
      <path id="Trazado_15053" data-name="Trazado 15053" d="M21,39h7.545v1.886H21Z" transform="translate(-1.137 -2.161)" fill="#97181a"/>
      <path id="Trazado_15054" data-name="Trazado 15054" d="M58.532,59.475a.942.942,0,0,0,.943-.943V43.441a.942.942,0,0,0-.943-.943H50.043V28.351a.943.943,0,0,0-.943-.943H46.271V3.829a.943.943,0,0,0-.943-.943H34.953V1.943A.943.943,0,0,0,34.01,1H13.261a.943.943,0,0,0-.943.943v.943H1.943A.943.943,0,0,0,1,3.829V56.645a.942.942,0,0,0,.943.943h17.92v.943a.942.942,0,0,0,.943.943Zm-8.488-15.09v3.773H48.157V44.385ZM31.181,42.5v-13.2h5.659V34.01a.942.942,0,0,0,.943.943h3.773a.942.942,0,0,0,.943-.943V29.294h5.659V42.5Zm0,1.886v3.773H29.294V44.385Zm7.545-15.09h1.886v3.773H38.726ZM44.385,4.773V27.408H42.5V7.6a.943.943,0,0,0-.943-.943h-6.6V4.773ZM14.2,2.886H33.067V8.545H14.2ZM2.886,55.7V4.773h9.431V6.659h-6.6a.943.943,0,0,0-.943.943V50.987a.942.942,0,0,0,.943.943H19.863V55.7ZM19.863,43.441v6.6H6.659V8.545h5.659v.943a.943.943,0,0,0,.943.943H34.01a.943.943,0,0,0,.943-.943V8.545h5.659V27.408H30.237a.943.943,0,0,0-.943.943V42.5H20.806A.942.942,0,0,0,19.863,43.441Zm1.886.943h5.659V49.1a.942.942,0,0,0,.943.943h3.773a.942.942,0,0,0,.943-.943V44.385h5.659v13.2H21.749Zm35.839,13.2H40.612v-13.2h5.659V49.1a.942.942,0,0,0,.943.943h3.773a.942.942,0,0,0,.943-.943V44.385h5.659Z" fill="#97181a"/>
      <path id="Trazado_15055" data-name="Trazado 15055" d="M55,57h3.773v1.886H55Z" transform="translate(-3.07 -3.184)" fill="#97181a"/>
      <path id="Trazado_15056" data-name="Trazado 15056" d="M45,41h3.773v1.886H45Z" transform="translate(-2.502 -2.274)" fill="#97181a"/>
      <path id="Trazado_15057" data-name="Trazado 15057" d="M35,57h3.773v1.886H35Z" transform="translate(-1.933 -3.184)" fill="#97181a"/>
    </g>
  </g>
</svg>
