<svg xmlns="http://www.w3.org/2000/svg" width="68.848" height="67.995" viewBox="0 0 68.848 67.995">
  <g id="Grupo_18077" data-name="Grupo 18077" transform="translate(-235 -11462)">
    <circle id="Elipse_797" data-name="Elipse 797" cx="30.5" cy="30.5" r="30.5" transform="translate(235 11462)" fill="#efd6d0"/>
    <g id="discount" transform="translate(245.415 11471.07)">
      <path id="Trazado_17195" data-name="Trazado 17195" d="M162.68,19.4,179.235,2.844l1.377,1.377L164.057,20.777Zm0,0" transform="translate(-142.918 -2.066)" fill="#97181a"/>
      <path id="Trazado_17196" data-name="Trazado 17196" d="M164.227,8.283a3.9,3.9,0,1,1,3.9-3.895,3.9,3.9,0,0,1-3.9,3.895Zm0-5.843a1.948,1.948,0,1,0,1.948,1.948,1.95,1.95,0,0,0-1.948-1.948Zm0,0" transform="translate(-140.854 0)" fill="#97181a"/>
      <path id="Trazado_17197" data-name="Trazado 17197" d="M252.411,96.467a3.9,3.9,0,1,1,3.9-3.9A3.9,3.9,0,0,1,252.411,96.467Zm0-5.843a1.948,1.948,0,1,0,1.948,1.947A1.95,1.95,0,0,0,252.411,90.624Zm0,0" transform="translate(-218.326 -77.471)" fill="#97181a"/>
      <path id="Trazado_17198" data-name="Trazado 17198" d="M35.737,280.848H30.868a.975.975,0,0,1-.308-.051l-5.843-1.947a.973.973,0,0,1-.666-.924v-1.948a.973.973,0,0,1,.285-.689l1.948-1.948a.971.971,0,0,1,1-.235l5.843,1.948a.966.966,0,0,1,.471.34l2.922,3.9a.974.974,0,0,1-.779,1.558ZM31.025,278.9h2.764l-1.571-2.094-4.983-1.66L26,276.382v.843Zm0,0" transform="translate(-21.129 -239.453)" fill="#97181a"/>
      <path id="Trazado_17199" data-name="Trazado 17199" d="M74.587,366.112a2.435,2.435,0,1,1,2.435-2.435A2.437,2.437,0,0,1,74.587,366.112Zm0-2.922a.487.487,0,1,0,.487.487A.488.488,0,0,0,74.587,363.19Zm0,0" transform="translate(-63.387 -316.926)" fill="#97181a"/>
      <path id="Trazado_17200" data-name="Trazado 17200" d="M23.826,425.15H17.009a.973.973,0,0,1-.974-.974v-6.817h1.947V423.2h4.87v-3.9H24.8v4.869a.974.974,0,0,1-.974.974Zm0,0" transform="translate(-14.087 -366.226)" fill="#97181a"/>
      <path id="Trazado_17201" data-name="Trazado 17201" d="M43.824,203.9H14.608l-9.836-.978a.975.975,0,0,1-.713-.429l-3.9-5.843a.974.974,0,0,1-.164-.54v-12.66a.973.973,0,0,1,.285-.689l3.9-3.9a.973.973,0,0,1,.326-.216l4.616-1.846,5.68-7.573a.972.972,0,0,1,.779-.389H42.85a.974.974,0,0,1,.779.389l5.68,7.573,4.615,1.846a.975.975,0,0,1,.327.216l3.9,3.9a.973.973,0,0,1,.286.689v12.66a.978.978,0,0,1-.164.54l-3.9,5.843a.975.975,0,0,1-.713.429l-9.739.974c-.033,0-.065,0-.1,0Zm-38.4-2.871,9.281.928,29.07,0,9.232-.923,3.477-5.215V183.855l-3.468-3.469-4.684-1.873a.96.96,0,0,1-.418-.32l-5.552-7.4H16.069l-5.551,7.4a.97.97,0,0,1-.417.32l-4.684,1.873-3.469,3.469v11.962Zm0,0" transform="translate(0 -147.9)" fill="#97181a"/>
      <path id="Trazado_17202" data-name="Trazado 17202" d="M136.353,209.571H105.19a.974.974,0,0,1-.779-1.558l2.922-3.9,1.558,1.169-1.753,2.337h27.269l-1.753-2.337,1.558-1.169,2.921,3.9a.974.974,0,0,1-.779,1.558Zm0,0" transform="translate(-91.556 -178.889)" fill="#97181a"/>
      <path id="Trazado_17203" data-name="Trazado 17203" d="M358.578,280.845h-4.869a.974.974,0,0,1-.779-1.558l2.922-3.9a.968.968,0,0,1,.471-.34l5.843-1.948a.97.97,0,0,1,1,.235l1.948,1.948a.975.975,0,0,1,.285.689v1.948a.973.973,0,0,1-.666.923l-5.843,1.947a.977.977,0,0,1-.308.051Zm-2.922-1.948h2.764l5.027-1.676v-.843l-1.238-1.236-4.984,1.66Zm0,0" transform="translate(-309.885 -239.45)" fill="#97181a"/>
      <path id="Trazado_17204" data-name="Trazado 17204" d="M86.082,340.862H56.866a.947.947,0,0,1-.236-.029l-7.791-1.948a.974.974,0,0,1-.737-.945v-4.869a.973.973,0,0,1,.836-.964l6.731-.961,5.759-1.92a.972.972,0,0,1,.308-.05H81.213a.977.977,0,0,1,.308.05l5.759,1.92,6.73.961a.974.974,0,0,1,.836.964v4.869a.974.974,0,0,1-.738.945l-7.791,1.948a.932.932,0,0,1-.235.029Zm-29.1-1.947H85.962L92.9,337.18v-3.264l-5.981-.854a.936.936,0,0,1-.17-.041l-5.693-1.9H61.893l-5.693,1.9a.965.965,0,0,1-.17.041l-5.981.854v3.264Zm0,0" transform="translate(-42.258 -288.755)" fill="#97181a"/>
      <path id="Trazado_17205" data-name="Trazado 17205" d="M371.2,366.112a2.435,2.435,0,1,1,2.434-2.435A2.437,2.437,0,0,1,371.2,366.112Zm0-2.922a.487.487,0,1,0,.487.487A.488.488,0,0,0,371.2,363.19Zm0,0" transform="translate(-323.968 -316.926)" fill="#97181a"/>
      <path id="Trazado_17206" data-name="Trazado 17206" d="M400.607,425.153H393.79a.973.973,0,0,1-.974-.974v-4.869h1.948v3.9h4.869v-5.843h1.948v6.817A.974.974,0,0,1,400.607,425.153Zm0,0" transform="translate(-345.097 -366.229)" fill="#97181a"/>
      <path id="Trazado_17207" data-name="Trazado 17207" d="M160.332,329.176H179.81v1.948H160.332Zm0,0" transform="translate(-140.855 -288.755)" fill="#97181a"/>
      <path id="Trazado_17208" data-name="Trazado 17208" d="M160.332,353.227H179.81v1.948H160.332Zm0,0" transform="translate(-140.855 -309.884)" fill="#97181a"/>
      <path id="Trazado_17209" data-name="Trazado 17209" d="M160.332,385.293H179.81v1.948H160.332Zm0,0" transform="translate(-140.855 -338.055)" fill="#97181a"/>
      <path id="Trazado_17210" data-name="Trazado 17210" d="M168.348,192.9h17.53v1.947h-17.53Zm0,0" transform="translate(-147.897 -169.03)" fill="#97181a"/>
    </g>
  </g>
</svg>
