<svg xmlns="http://www.w3.org/2000/svg" width="70.302" height="70.556" viewBox="0 0 70.302 70.556">
  <g id="Grupo_18076" data-name="Grupo 18076" transform="translate(-235 -11340)">
    <circle id="Elipse_797" data-name="Elipse 797" cx="30.5" cy="30.5" r="30.5" transform="translate(235 11340)" fill="#efd6d0"/>
    <g id="business-and-finance" transform="translate(242.131 11350.5)">
      <path id="Trazado_17148" data-name="Trazado 17148" d="M63.057,129.592a5.378,5.378,0,0,0-6.466-4.148l-6.585,1.508V124.26a26.009,26.009,0,0,0,3.674-4.353,25.517,25.517,0,0,0,3.607-8.495,26.028,26.028,0,0,0,.05-11.049,1.234,1.234,0,0,0-2.413.517,23.53,23.53,0,0,1-.045,9.993,23.059,23.059,0,0,1-3.26,7.676,21.965,21.965,0,0,1-1.613,2.128V107a1.234,1.234,0,0,0-1.234-1.234h-9.76V92.591a1.234,1.234,0,0,0-1.229-1.234L26.789,91.32h0a1.234,1.234,0,0,0-1.234,1.234v6.854H15.79a1.234,1.234,0,0,0-1.234,1.234V112.86H11.807v-1.676a1.234,1.234,0,0,0-1.234-1.233H9.307a23.352,23.352,0,0,1,1.008-12.1c.23-.634.491-1.267.776-1.879A1.234,1.234,0,1,0,8.854,94.93c-.316.678-.6,1.377-.859,2.079A25.783,25.783,0,0,0,6.8,109.951H1.234A1.234,1.234,0,0,0,0,111.185v21.687a1.234,1.234,0,0,0,1.234,1.234h9.339a1.234,1.234,0,0,0,1.234-1.234V131.7h4.641l18.8,7.374a14.85,14.85,0,0,0,9.131.571L59.116,135.9a5.368,5.368,0,0,0,3.941-6.307ZM47.54,108.235v19.281l-3.3.755c-.355.081-.713.145-1.074.2a12.525,12.525,0,0,1-4.137-.12l-.017,0v-1.871a5.714,5.714,0,0,0,.76-4.807,5.541,5.541,0,0,0-.581-1.294q-.085-.137-.176-.269l0,0V108.234H47.54ZM28.019,93.792l8.526.028v24.318l-4.765-1.972-3.761-1.557Zm-11,8.083H25.55v11.711l-1.53-.633a1.232,1.232,0,0,0-.472-.094H17.024ZM9.339,131.638H2.467v-19.22H9.339Zm49.169,1.869-14.736,3.745a12.4,12.4,0,0,1-7.623-.477l-19.018-7.459a1.232,1.232,0,0,0-.451-.085H11.807v-13.9H23.3l7.983,3.3,4.369,1.808a3.086,3.086,0,0,1,1.652,4,3.528,3.528,0,0,1-.494.867,3.18,3.18,0,0,1-3.234,1.116l-.029-.007c-.071-.018-.142-.039-.213-.062l-8.3-3.192-.1-.04a1.234,1.234,0,0,0-.885,2.3s4.681,1.8,8.25,3.176c.072.028.143.054.215.078l2.741,1.054a22.663,22.663,0,0,0,2.515.856,14.969,14.969,0,0,0,7.025.088l4.256-.974.013,0,8.081-1.85a2.911,2.911,0,0,1,1.366,5.658Zm0,0" transform="translate(0 -80.053)" fill="#97181a"/>
      <path id="Trazado_17149" data-name="Trazado 17149" d="M119.111,8.776a1.229,1.229,0,0,0,.827-.318,23.185,23.185,0,0,1,17.131-5.94A23.142,23.142,0,0,1,143.8,3.983a1.234,1.234,0,1,0,.878-2.306A25.6,25.6,0,0,0,137.231.055a25.655,25.655,0,0,0-18.947,6.571,1.234,1.234,0,0,0,.827,2.15Zm0,0" transform="translate(-103.333 0)" fill="#97181a"/>
      <path id="Trazado_17150" data-name="Trazado 17150" d="M351.87,44.09a1.235,1.235,0,0,0,1.741-.122l10.151-11.685a1.234,1.234,0,1,0-1.862-1.618L351.748,42.349A1.233,1.233,0,0,0,351.87,44.09Zm0,0" transform="translate(-308.084 -26.509)" fill="#97181a"/>
      <path id="Trazado_17151" data-name="Trazado 17151" d="M406.609,99.738a3.1,3.1,0,1,0,3.1,3.1A3.1,3.1,0,0,0,406.609,99.738Zm0,3.727a.63.63,0,1,1,.63-.63A.63.63,0,0,1,406.609,103.466Zm0,0" transform="translate(-353.725 -87.432)" fill="#97181a"/>
      <path id="Trazado_17152" data-name="Trazado 17152" d="M351.078,33.461a3.1,3.1,0,1,0-3.1-3.1A3.1,3.1,0,0,0,351.078,33.461Zm0-3.728a.63.63,0,1,1-.63.63A.631.631,0,0,1,351.078,29.733Zm0,0" transform="translate(-305.046 -23.901)" fill="#97181a"/>
      <path id="Trazado_17153" data-name="Trazado 17153" d="M91.673,82.528a1.233,1.233,0,1,0,.454-1.5,1.244,1.244,0,0,0-.454,1.5Zm0,0" transform="translate(-80.282 -70.853)" fill="#97181a"/>
    </g>
  </g>
</svg>
