<svg xmlns="http://www.w3.org/2000/svg" width="63.485" height="74" viewBox="0 0 63.485 74">
  <g id="Grupo_18075" data-name="Grupo 18075" transform="translate(-235 -11212)">
    <circle id="Elipse_797" data-name="Elipse 797" cx="30.5" cy="30.5" r="30.5" transform="translate(235 11212)" fill="#efd6d0"/>
    <g id="promotion" transform="translate(241.798 11207.177)">
      <g id="Grupo_18044" data-name="Grupo 18044" transform="translate(32.3 46.926)">
        <g id="Grupo_18043" data-name="Grupo 18043" transform="translate(0 0)">
          <path id="Trazado_17211" data-name="Trazado 17211" d="M292.838,195.469a1.1,1.1,0,0,0-1.1,1.1v.016a1.1,1.1,0,0,0,2.2,0v-.016A1.1,1.1,0,0,0,292.838,195.469Z" transform="translate(-291.738 -195.469)" fill="#97181a"/>
        </g>
      </g>
      <g id="Grupo_18046" data-name="Grupo 18046" transform="translate(0 41.643)">
        <g id="Grupo_18045" data-name="Grupo 18045" transform="translate(0 0)">
          <path id="Trazado_17212" data-name="Trazado 17212" d="M39.745,157.884v-9.031a1.1,1.1,0,0,0-1.422-1.052l-24.675,7.557h-6.3A7.35,7.35,0,0,0,6.7,170.029L9.125,181.64a4.139,4.139,0,1,0,8.1-1.69l-.531-2.544a6.746,6.746,0,0,0,4.591-5.006l17.034,5.216a1.1,1.1,0,0,0,1.422-1.052v-9.031a4.948,4.948,0,0,0,0-9.649ZM7.351,167.859a5.15,5.15,0,1,1,0-10.3h5.361v10.3H7.351Zm7.331,14.159a1.938,1.938,0,0,1-3.4-.827L8.958,170.059h3.96l1.406,6.74v0l.75,3.6A1.931,1.931,0,0,1,14.681,182.017Zm1.565-6.78-.977-4.682,3.9,1.2A4.54,4.54,0,0,1,16.246,175.237Zm21.3-.161h0l-3.044-.932v-15.6a1.1,1.1,0,1,0-2.2,0V173.47l-11.467-3.512a1.091,1.091,0,0,0-.346-.106l-5.574-1.707V157.272l22.632-6.931v24.735Zm2.2-9.849V160.19a2.748,2.748,0,0,1,0,5.036Z" transform="translate(0 -147.753)" fill="#97181a"/>
        </g>
      </g>
      <g id="Grupo_18048" data-name="Grupo 18048" transform="translate(45.673 55.498)">
        <g id="Grupo_18047" data-name="Grupo 18047">
          <path id="Trazado_17213" data-name="Trazado 17213" d="M418.533,272.894h-4.907a1.1,1.1,0,1,0,0,2.2h4.907a1.1,1.1,0,0,0,0-2.2Z" transform="translate(-412.525 -272.894)" fill="#97181a"/>
        </g>
      </g>
      <g id="Grupo_18050" data-name="Grupo 18050" transform="translate(44.084 46.558)">
        <g id="Grupo_18049" data-name="Grupo 18049" transform="translate(0 0)">
          <path id="Trazado_17214" data-name="Trazado 17214" d="M402.63,192.6a1.1,1.1,0,0,0-1.537-.24l-2.469,1.8a1.1,1.1,0,1,0,1.3,1.778l2.469-1.8A1.1,1.1,0,0,0,402.63,192.6Z" transform="translate(-398.172 -192.151)" fill="#97181a"/>
        </g>
      </g>
      <g id="Grupo_18052" data-name="Grupo 18052" transform="translate(44.099 62.648)">
        <g id="Grupo_18051" data-name="Grupo 18051" transform="translate(0 0)">
          <path id="Trazado_17215" data-name="Trazado 17215" d="M402.511,339.47l-2.454-1.79a1.1,1.1,0,1,0-1.3,1.778l2.454,1.79a1.1,1.1,0,0,0,1.3-1.778Z" transform="translate(-398.308 -337.469)" fill="#97181a"/>
        </g>
      </g>
      <g id="Grupo_18054" data-name="Grupo 18054" transform="translate(26.191 32.393)">
        <g id="Grupo_18053" data-name="Grupo 18053">
          <path id="Trazado_17216" data-name="Trazado 17216" d="M260.5,64.207H237.658a1.1,1.1,0,0,0,0,2.2H260.5a1.1,1.1,0,1,0,0-2.2Z" transform="translate(-236.558 -64.207)" fill="#97181a"/>
        </g>
      </g>
      <g id="Grupo_18056" data-name="Grupo 18056" transform="translate(14.257 32.393)">
        <g id="Grupo_18055" data-name="Grupo 18055">
          <path id="Trazado_17217" data-name="Trazado 17217" d="M130.648,64.529a1.1,1.1,0,1,0,.322.778A1.109,1.109,0,0,0,130.648,64.529Z" transform="translate(-128.77 -64.207)" fill="#97181a"/>
        </g>
      </g>
      <g id="Grupo_18058" data-name="Grupo 18058" transform="translate(10.214 32.393)">
        <g id="Grupo_18057" data-name="Grupo 18057">
          <path id="Trazado_17218" data-name="Trazado 17218" d="M94.128,64.529a1.1,1.1,0,1,0,.322.778A1.109,1.109,0,0,0,94.128,64.529Z" transform="translate(-92.25 -64.207)" fill="#97181a"/>
        </g>
      </g>
      <g id="Grupo_18060" data-name="Grupo 18060" transform="translate(18.3 32.393)">
        <g id="Grupo_18059" data-name="Grupo 18059">
          <path id="Trazado_17219" data-name="Trazado 17219" d="M167.168,64.529a1.1,1.1,0,1,0,.322.778A1.11,1.11,0,0,0,167.168,64.529Z" transform="translate(-165.29 -64.207)" fill="#97181a"/>
        </g>
      </g>
      <g id="Grupo_18062" data-name="Grupo 18062" transform="translate(4.756 28.432)">
        <g id="Grupo_18061" data-name="Grupo 18061">
          <path id="Trazado_17220" data-name="Trazado 17220" d="M90.263,28.432H47.573a4.626,4.626,0,0,0-4.621,4.621V48.126a1.1,1.1,0,1,0,2.2,0V43.843h6.856a1.1,1.1,0,1,0,0-2.2H45.153V38.554H92.683V67.161a2.423,2.423,0,0,1-2.42,2.42H81.5a1.1,1.1,0,1,0,0,2.2h8.765a4.626,4.626,0,0,0,4.621-4.621V33.053A4.626,4.626,0,0,0,90.263,28.432Zm2.42,7.922H45.153v-3.3a2.423,2.423,0,0,1,2.42-2.42h42.69a2.423,2.423,0,0,1,2.42,2.42Z" transform="translate(-42.952 -28.432)" fill="#97181a"/>
        </g>
      </g>
      <g id="Grupo_18064" data-name="Grupo 18064" transform="translate(16.28 41.643)">
        <g id="Grupo_18063" data-name="Grupo 18063">
          <path id="Trazado_17221" data-name="Trazado 17221" d="M148.924,148.073a1.1,1.1,0,1,0,.323.778A1.108,1.108,0,0,0,148.924,148.073Z" transform="translate(-147.046 -147.75)" fill="#97181a"/>
        </g>
      </g>
    </g>
  </g>
</svg>
