<svg xmlns="http://www.w3.org/2000/svg" width="74.201" height="74.748" viewBox="0 0 74.201 74.748">
  <g id="Grupo_18074" data-name="Grupo 18074" transform="translate(-235 -10834)">
    <circle id="Elipse_797" data-name="Elipse 797" cx="30.5" cy="30.5" r="30.5" transform="translate(235 10834)" fill="#efd6d0"/>
    <g id="marketing" transform="translate(244.452 10844)">
      <path id="Trazado_17145" data-name="Trazado 17145" d="M16.785,18.482a3.128,3.128,0,0,0,6.132-.886V7.138a3.128,3.128,0,0,0-6.132-.886L8.23,7.963a1.029,1.029,0,0,0-1-.825H5.137A3.137,3.137,0,0,0,2,10.275v4.183A3.137,3.137,0,0,0,4.092,17.4v6.467a1.046,1.046,0,0,0,1.046,1.046H7.229a3.137,3.137,0,0,0,3.137-3.137V17.2Zm-8.51-8.395,8.367-1.673V16.32L8.275,14.647ZM18.733,7.138a1.046,1.046,0,1,1,2.092,0V17.6a1.046,1.046,0,1,1-2.092,0ZM4.092,10.275A1.046,1.046,0,0,1,5.137,9.229H6.183V15.5H5.137a1.046,1.046,0,0,1-1.046-1.046Zm4.183,11.5a1.046,1.046,0,0,1-1.046,1.046H6.183V17.6H7.229a1.029,1.029,0,0,0,1-.825l.045.009Z" transform="translate(0 0.091)" fill="#97181a"/>
      <rect id="Rectángulo_3349" data-name="Rectángulo 3349" width="7" height="2" transform="translate(24.548 11)" fill="#97181a"/>
      <rect id="Rectángulo_3350" data-name="Rectángulo 3350" width="7.541" height="2.092" transform="matrix(0.832, -0.555, 0.555, 0.832, 24.428, 8.451)" fill="#97181a"/>
      <rect id="Rectángulo_3351" data-name="Rectángulo 3351" width="2.092" height="7.541" transform="matrix(0.555, -0.832, 0.832, 0.555, 24.427, 16.465)" fill="#97181a"/>
      <path id="Trazado_17146" data-name="Trazado 17146" d="M63.291,2H34.008a1.046,1.046,0,0,0-1.046,1.046V24.36a4.168,4.168,0,0,0-7.321,2.74H24.6a4.193,4.193,0,0,0-4.068,3.211,6.275,6.275,0,0,0-5.344,6.2v1.234A6.024,6.024,0,0,0,11,43.833a6.024,6.024,0,0,0,4.183,6.087v1.234a6.275,6.275,0,0,0,5.344,6.2A4.193,4.193,0,0,0,24.6,60.566h1.046a4.168,4.168,0,0,0,7.321,2.74,4.168,4.168,0,0,0,7.321-2.74h1.046A4.193,4.193,0,0,0,45.4,57.355a6.275,6.275,0,0,0,5.344-6.2V49.919a6.024,6.024,0,0,0,4.183-6.087,6.024,6.024,0,0,0-4.183-6.087V36.512a6.275,6.275,0,0,0-5.344-6.2A4.193,4.193,0,0,0,41.329,27.1H63.291a1.046,1.046,0,0,0,1.046-1.046V3.046A1.046,1.046,0,0,0,63.291,2ZM31.917,37.558a2.092,2.092,0,0,1-4.183,0H25.642a4.183,4.183,0,0,0,4.183,4.183,4.085,4.085,0,0,0,2.092-.586V46.51a4.085,4.085,0,0,0-2.092-.586,4.183,4.183,0,0,0-4.183,4.183h2.092a2.092,2.092,0,1,1,4.183,0V60.566a2.092,2.092,0,0,1-4.183,0v-.146a4.183,4.183,0,0,0,3.137-4.037H28.779a2.1,2.1,0,0,1-2.092,2.092H24.6a2.082,2.082,0,0,1-1.914-1.255,4.163,4.163,0,0,0,2.96-3.974H23.55a2.1,2.1,0,0,1-2.092,2.092,4.183,4.183,0,0,1-4.183-4.183V49.961a4.183,4.183,0,0,0,3.137-4.037H18.321a2.092,2.092,0,0,1-2.029,2.081c-2.207-.272-3.2-2.28-3.2-4.173s.994-3.9,3.2-4.173a2.092,2.092,0,0,1,2.029,2.081h2.092A4.183,4.183,0,0,0,17.275,37.7V36.512a4.183,4.183,0,0,1,4.183-4.183A2.1,2.1,0,0,1,23.55,34.42h2.092a4.163,4.163,0,0,0-2.96-3.974A2.082,2.082,0,0,1,24.6,29.191h2.092a2.1,2.1,0,0,1,2.092,2.092h2.092a4.183,4.183,0,0,0-3.137-4.037V27.1a2.092,2.092,0,0,1,4.183,0Zm11.326-7.112a4.163,4.163,0,0,0-2.96,3.974h2.092a2.1,2.1,0,0,1,2.092-2.092,4.183,4.183,0,0,1,4.183,4.183V37.7a4.183,4.183,0,0,0-3.137,4.037H47.6a2.092,2.092,0,0,1,2.029-2.081c2.207.272,3.2,2.28,3.2,4.173s-.994,3.9-3.2,4.173A2.092,2.092,0,0,1,47.6,45.924H45.512a4.183,4.183,0,0,0,3.137,4.037v1.192a4.183,4.183,0,0,1-4.183,4.183,2.1,2.1,0,0,1-2.092-2.092H40.283a4.163,4.163,0,0,0,2.96,3.974,2.082,2.082,0,0,1-1.914,1.255H39.238a2.1,2.1,0,0,1-2.092-2.092H35.054a4.183,4.183,0,0,0,3.137,4.037v.146a2.092,2.092,0,0,1-4.183,0V50.108a2.092,2.092,0,1,1,4.183,0h2.092A4.183,4.183,0,0,0,36.1,45.924a4.085,4.085,0,0,0-2.092.586V41.155a4.085,4.085,0,0,0,2.092.586,4.183,4.183,0,0,0,4.183-4.183H38.192a2.092,2.092,0,1,1-4.183,0V27.1a2.092,2.092,0,0,1,4.183,0v.146a4.183,4.183,0,0,0-3.137,4.037h2.092a2.1,2.1,0,0,1,2.092-2.092h2.092a2.082,2.082,0,0,1,1.914,1.255Zm19-5.438H39.7a4.162,4.162,0,0,0-3.6-2.092,4.278,4.278,0,0,0-1.046.146V4.092H62.245Z" transform="translate(0.412)" fill="#97181a"/>
      <rect id="Rectángulo_3352" data-name="Rectángulo 3352" width="2" height="13" transform="translate(58.548 10)" fill="#97181a"/>
      <rect id="Rectángulo_3353" data-name="Rectángulo 3353" width="2" height="11" transform="translate(53.548 12)" fill="#97181a"/>
      <rect id="Rectángulo_3354" data-name="Rectángulo 3354" width="2" height="8" transform="translate(47.548 15)" fill="#97181a"/>
      <rect id="Rectángulo_3355" data-name="Rectángulo 3355" width="2" height="6" transform="translate(42.548 17)" fill="#97181a"/>
      <path id="Trazado_17147" data-name="Trazado 17147" d="M40.6,14.367h2.7a1.046,1.046,0,0,0,.87-.466l1.781-2.672H52.72a1.046,1.046,0,0,0,.739-.306L56.29,8.092h2.7V6H55.857a1.046,1.046,0,0,0-.739.306L52.287,9.137H45.4a1.046,1.046,0,0,0-.87.466l-1.781,2.672H40.17a1.046,1.046,0,0,0-.739.306l-3.138,3.138L37.772,17.2Z" transform="translate(1.571 0.183)" fill="#97181a"/>
      <rect id="Rectángulo_3356" data-name="Rectángulo 3356" width="2" height="4" transform="translate(37.548 19)" fill="#97181a"/>
    </g>
  </g>
</svg>
