<svg xmlns="http://www.w3.org/2000/svg" width="80.561" height="74.627" viewBox="0 0 80.561 74.627">
  <g id="Grupo_18073" data-name="Grupo 18073" transform="translate(-235 -10706)">
    <circle id="Elipse_797" data-name="Elipse 797" cx="30.5" cy="30.5" r="30.5" transform="translate(235 10706)" fill="#efd6d0"/>
    <g id="analytics" transform="translate(248 10721.574)">
      <path id="Trazado_17138" data-name="Trazado 17138" d="M63.057.5H4.5A4.5,4.5,0,0,0,0,5V43.289a4.5,4.5,0,0,0,4.5,4.5H26.637l-2.7,9.008h-2.54v2.252H46.167V56.8h-2.54l-2.7-9.008H63.057a4.5,4.5,0,0,0,4.5-4.5V5a4.5,4.5,0,0,0-4.5-4.5ZM41.275,56.8H26.286l2.7-9.008h9.584ZM65.309,43.289a2.252,2.252,0,0,1-2.252,2.252H4.5a2.252,2.252,0,0,1-2.252-2.252V41.037H65.309Zm0-4.5H2.252V5A2.252,2.252,0,0,1,4.5,2.752H63.057A2.252,2.252,0,0,1,65.309,5Zm0,0" fill="#97181a"/>
      <path id="Trazado_17139" data-name="Trazado 17139" d="M40,32.5h2.252v2.252H40Zm0,0" transform="translate(-34.37 -27.496)" fill="#97181a"/>
      <path id="Trazado_17140" data-name="Trazado 17140" d="M72,32.5h2.252v2.252H72Zm0,0" transform="translate(-61.866 -27.496)" fill="#97181a"/>
      <path id="Trazado_17141" data-name="Trazado 17141" d="M104,32.5h2.252v2.252H104Zm0,0" transform="translate(-89.362 -27.496)" fill="#97181a"/>
      <path id="Trazado_17142" data-name="Trazado 17142" d="M55.056,68.447a13.512,13.512,0,1,0,0,19.108,13.511,13.511,0,0,0,0-19.108ZM37.541,70.041a11.26,11.26,0,0,1,15.088-.758l-7.593,7.594H34.3a11.17,11.17,0,0,1,3.243-6.836ZM34.3,79.129h8.487l-6,6A11.152,11.152,0,0,1,34.3,79.129ZM45.5,89.263a11.183,11.183,0,0,1-7.127-2.54L45.5,79.595l7.127,7.128A11.183,11.183,0,0,1,45.5,89.263Zm8.719-4.133L47.095,78l7.127-7.127a11.26,11.26,0,0,1,0,14.253Zm0,0" transform="translate(-27.486 -54.982)" fill="#97181a"/>
      <path id="Trazado_17143" data-name="Trazado 17143" d="M245.63,167.563l4,2.006a1.144,1.144,0,0,0,1.3-.217l3.708-3.708,3.708,3.708a1.1,1.1,0,0,0,.908.324,1.126,1.126,0,0,0,.825-.5l3.567-5.355,3.567,5.351,1.874-1.25-4.5-6.756a1.17,1.17,0,0,0-1.874,0l-3.741,5.617-3.534-3.533a1.127,1.127,0,0,0-1.592,0l-3.93,3.93-3.779-1.9a1.125,1.125,0,0,0-1.006,0l-2.875,1.443V161.8H240v11.26a1.126,1.126,0,0,0,1.126,1.126h27.024v-2.252h-25.9v-2.682Zm0,0" transform="translate(-206.22 -137.654)" fill="#97181a"/>
      <path id="Trazado_17144" data-name="Trazado 17144" d="M241.126,62.207h27.024V59.955h-25.9V57.273l3.378-1.689,4,2.006a1.126,1.126,0,0,0,1.44-.383l3.567-5.36,3.567,5.351a1.125,1.125,0,0,0,.824.5,1.1,1.1,0,0,0,.908-.324l3.709-3.713,3.708,3.708,1.592-1.592-4.5-4.5a1.127,1.127,0,0,0-1.592,0l-3.534,3.533L255.575,49.2a1.17,1.17,0,0,0-1.874,0l-3.953,5.93-3.615-1.808a1.125,1.125,0,0,0-1.006,0l-2.875,1.438V49.821H240v11.26a1.126,1.126,0,0,0,1.126,1.126Zm0,0" transform="translate(-206.22 -41.439)" fill="#97181a"/>
    </g>
  </g>
</svg>
