<svg xmlns="http://www.w3.org/2000/svg" width="70.803" height="66.436" viewBox="0 0 70.803 66.436">
  <g id="Grupo_18177" data-name="Grupo 18177" transform="translate(-235 -17176)">
    <circle id="Elipse_799" data-name="Elipse 799" cx="30.5" cy="30.5" r="30.5" transform="translate(235 17176)" fill="#f8e9e5"/>
    <g id="shopping-bag" transform="translate(239.316 17182.105)">
      <g id="Grupo_13505" data-name="Grupo 13505" transform="translate(33.703)">
        <g id="Grupo_13504" data-name="Grupo 13504">
          <path id="Trazado_15102" data-name="Trazado 15102" d="M92.416,7.455A8.692,8.692,0,0,0,76.79,3.57a1.022,1.022,0,1,0,1.651,1.206A6.648,6.648,0,0,1,90.392,7.743a1.023,1.023,0,0,0,1.011.878,1.1,1.1,0,0,0,.146-.01A1.023,1.023,0,0,0,92.416,7.455Z" transform="translate(-76.593)" fill="#97181a"/>
        </g>
      </g>
      <g id="Grupo_13507" data-name="Grupo 13507" transform="translate(17.404 13.293)">
        <g id="Grupo_13506" data-name="Grupo 13506" transform="translate(0)">
          <path id="Trazado_15103" data-name="Trazado 15103" d="M69.076,49.981l-3.068-5.113a1.021,1.021,0,0,0-.877-.5h-2.94a1.022,1.022,0,1,0,0,2.045h2.361l1.841,3.068H25.013l1.841-3.068h1.083a1.022,1.022,0,0,0,0-2.045H26.275a1.021,1.021,0,0,0-.877.5l-3.068,5.113a1.023,1.023,0,0,0,.877,1.549H68.2a1.023,1.023,0,0,0,.877-1.549Z" transform="translate(-22.185 -44.372)" fill="#97181a"/>
        </g>
      </g>
      <g id="Grupo_13509" data-name="Grupo 13509" transform="translate(42.316 5.73)">
        <g id="Grupo_13508" data-name="Grupo 13508">
          <path id="Trazado_15104" data-name="Trazado 15104" d="M122.226,22.87a1.021,1.021,0,0,0-.636-.457l-13.939-3.26a1.022,1.022,0,0,0-1.229.763l-1.051,4.494a1.022,1.022,0,0,0,1.991.465l.818-3.5,11.948,2.795L118.251,32.2a1.022,1.022,0,0,0,.763,1.228,1.034,1.034,0,0,0,.234.027,1.021,1.021,0,0,0,.994-.789l2.11-9.023A1.018,1.018,0,0,0,122.226,22.87Z" transform="translate(-105.343 -19.126)" fill="#97181a"/>
        </g>
      </g>
      <g id="Grupo_13511" data-name="Grupo 13511" transform="translate(21.391 3.108)">
        <g id="Grupo_13510" data-name="Grupo 13510">
          <path id="Trazado_15105" data-name="Trazado 15105" d="M55.566,19.157l-.932-7.88a1.023,1.023,0,0,0-1.136-.9L36.4,12.4a1.023,1.023,0,0,0-.9,1.136l1.553,13.143a1.023,1.023,0,0,0,1.014.9,1.117,1.117,0,0,0,.122-.007,1.023,1.023,0,0,0,.9-1.136L37.652,14.312l15.072-1.781.811,6.865a1.023,1.023,0,0,0,2.031-.239Z" transform="translate(-35.494 -10.374)" fill="#97181a"/>
        </g>
      </g>
      <g id="Grupo_13513" data-name="Grupo 13513" transform="translate(29.031 9.817)">
        <g id="Grupo_13512" data-name="Grupo 13512">
          <path id="Trazado_15106" data-name="Trazado 15106" d="M81.516,41.992l-2.03-8.44a1.022,1.022,0,0,0-1.233-.755L61.781,36.759a1.023,1.023,0,0,0-.755,1.233l1.014,4.219a1.022,1.022,0,1,0,1.988-.478l-.776-3.225,14.484-3.483,1.791,7.446a1.023,1.023,0,0,0,1.989-.479Z" transform="translate(-60.997 -32.769)" fill="#97181a"/>
        </g>
      </g>
      <g id="Grupo_13515" data-name="Grupo 13515" transform="translate(15.359 18.406)">
        <g id="Grupo_13514" data-name="Grupo 13514" transform="translate(0)">
          <path id="Trazado_15107" data-name="Trazado 15107" d="M64.44,62.411a1.023,1.023,0,0,0-1.022-.97H18.427a1.023,1.023,0,0,0-1.022.97L15.36,102.29a1.022,1.022,0,0,0,1.021,1.075H65.463a1.022,1.022,0,0,0,1.022-1.075ZM17.457,101.32,19.4,63.486H62.446l1.94,37.834Z" transform="translate(-15.359 -61.441)" fill="#97181a"/>
        </g>
      </g>
      <g id="Grupo_13517" data-name="Grupo 13517" transform="translate(45.524 22.496)">
        <g id="Grupo_13516" data-name="Grupo 13516" transform="translate(0)">
          <path id="Trazado_15108" data-name="Trazado 15108" d="M119.12,75.093a3.068,3.068,0,1,0,3.068,3.068A3.071,3.071,0,0,0,119.12,75.093Zm0,4.09a1.022,1.022,0,1,1,1.022-1.022A1.023,1.023,0,0,1,119.12,79.183Z" transform="translate(-116.052 -75.093)" fill="#97181a"/>
        </g>
      </g>
      <g id="Grupo_13519" data-name="Grupo 13519" transform="translate(30.185 22.496)">
        <g id="Grupo_13518" data-name="Grupo 13518">
          <path id="Trazado_15109" data-name="Trazado 15109" d="M67.92,75.093a3.068,3.068,0,1,0,3.068,3.068A3.071,3.071,0,0,0,67.92,75.093Zm0,4.09a1.022,1.022,0,1,1,1.022-1.022A1.024,1.024,0,0,1,67.92,79.183Z" transform="translate(-64.852 -75.093)" fill="#97181a"/>
        </g>
      </g>
      <g id="Grupo_13521" data-name="Grupo 13521" transform="translate(32.231 25.563)">
        <g id="Grupo_13520" data-name="Grupo 13520">
          <path id="Trazado_15110" data-name="Trazado 15110" d="M88.04,85.333h-.079a1.023,1.023,0,0,0-1.022,1.022,1.011,1.011,0,0,0,.079.394v5.23a6.647,6.647,0,0,1-13.293,0V86.356a1.022,1.022,0,0,0-2.045,0V91.98a8.692,8.692,0,0,0,17.383,0V86.356A1.023,1.023,0,0,0,88.04,85.333Z" transform="translate(-71.679 -85.333)" fill="#97181a"/>
        </g>
      </g>
    </g>
  </g>
</svg>
