<svg xmlns="http://www.w3.org/2000/svg" width="71.11" height="70.51" viewBox="0 0 71.11 70.51">
  <g id="Grupo_18181" data-name="Grupo 18181" transform="translate(-235 -17746)">
    <circle id="Elipse_803" data-name="Elipse 803" cx="30.5" cy="30.5" r="30.5" transform="translate(235 17746)" fill="#f8e9e5"/>
    <g id="email-marketing" transform="translate(209.099 17750.615)">
      <path id="Trazado_15125" data-name="Trazado 15125" d="M96.045,51.6a.965.965,0,0,0,.965-.965V34.819a2.408,2.408,0,0,0-3.027-2.327L83.8,23.5,76.936,1.837h0L76.568.674a.965.965,0,0,0-1.841.583l.174.55L69.854,6.065l-.011-.034A.965.965,0,1,0,68,6.614l.253.8L64.4,10.671l-11.042,3.5a2.962,2.962,0,0,0-1.93,3.718l.1.316-1.273.4-.038-.121a.965.965,0,1,0-1.84.583l.062.2a5.017,5.017,0,0,0,.972,9.278l-4.477,3.952A2.408,2.408,0,0,0,41.9,34.819V63.486a2.411,2.411,0,0,0,2.408,2.408H94.6a2.411,2.411,0,0,0,2.408-2.408V54.5a.965.965,0,0,0-1.931,0v8.988a.478.478,0,0,1-.478.478h-2.65L78.616,44.906,94.337,34.422a.478.478,0,0,1,.743.4v15.82a.965.965,0,0,0,.965.965ZM92.222,33.512l-15,10.006a4.6,4.6,0,0,0-2.481-.729H64.173a4.6,4.6,0,0,0-2.481.729l-15-10.006,4.932-4.353a.965.965,0,0,0,1.7-.863l-.038-.121,1.273-.4.1.316a2.965,2.965,0,0,0,3.718,1.93l.321-.1,1.018,3.213a.965.965,0,0,0,1.84-.583l-1.017-3.213,4.883-1.546,1,3.155a.186.186,0,0,1-.051.192l-1.212,1.118a2.124,2.124,0,0,0-.583,2.194L65.915,38.7a.841.841,0,0,1-.547,1.054l-.6.189a.839.839,0,0,1-1.054-.547l-1-3.143a.965.965,0,1,0-1.84.583l1,3.143a2.765,2.765,0,0,0,3.477,1.8l.6-.189a2.774,2.774,0,0,0,1.8-3.477L66.41,33.862a.186.186,0,0,1,.051-.192l1.212-1.118a2.123,2.123,0,0,0,.583-2.194l-1-3.155,2.157-.683,5.033.442.253.8a.965.965,0,0,0,1.841-.583l-.011-.034,6.578.578.174.55a.965.965,0,0,0,1.841-.583l-.2-.618ZM75.532,3.8l6.944,21.931L75.9,25.153,70.485,8.058ZM73.815,24.97l-3.783-.332-2.024-6.391-2.024-6.391,2.9-2.449ZM61.063,15.349a.823.823,0,0,1-.535,1.031l-2.565.812a.822.822,0,0,1-1.031-.535l-.46-1.452,2.444-.774L60.6,13.9Zm-7.731,1.167a1.025,1.025,0,0,1,.6-.508l.7-.22.46,1.452a2.751,2.751,0,0,0,3.454,1.793l2.565-.812A2.755,2.755,0,0,0,62.9,14.766l-.46-1.452,1.8-.569,3.853,12.169L57.789,28.177a1.033,1.033,0,0,1-1.295-.672l-3.23-10.2a1.026,1.026,0,0,1,.068-.786Zm-1.225,3.525,1.473,4.651.392,1.239-1.273.4-1.865-5.89Zm-4.291,4.6a3.094,3.094,0,0,1,1.216-3.492L50.82,26.8A3.094,3.094,0,0,1,47.815,24.641Zm1.5,39.323L51.6,60.7A.965.965,0,0,0,50.015,59.6L46.96,63.964h-2.65a.478.478,0,0,1-.478-.478V34.819a.478.478,0,0,1,.743-.4L60.3,44.906,52.229,56.434a.965.965,0,0,0,1.582,1.107l8.175-11.682a2.672,2.672,0,0,1,2.188-1.139H74.739a2.672,2.672,0,0,1,2.188,1.139L89.6,63.964Z" transform="translate(0)" fill="#97181a"/>
      <path id="Trazado_15126" data-name="Trazado 15126" d="M382.231,76.65a.964.964,0,0,0,1.149.736l4.031-.883A.965.965,0,0,0,387,74.618l-4.031.883A.965.965,0,0,0,382.231,76.65Z" transform="translate(-296.51 -64.995)" fill="#97181a"/>
      <path id="Trazado_15127" data-name="Trazado 15127" d="M351.418,22.1a.965.965,0,0,0,1.333-.292l2.226-3.475a.965.965,0,1,0-1.626-1.041l-2.226,3.475A.965.965,0,0,0,351.418,22.1Z" transform="translate(-269.295 -14.682)" fill="#97181a"/>
      <path id="Trazado_15128" data-name="Trazado 15128" d="M379.19,130.288a.965.965,0,1,0-1.041,1.626l3.475,2.226a.965.965,0,1,0,1.041-1.626Z" transform="translate(-292.585 -113.388)" fill="#97181a"/>
    </g>
  </g>
</svg>
