<svg xmlns="http://www.w3.org/2000/svg" width="68" height="69" viewBox="0 0 68 69">
  <g id="Grupo_18176" data-name="Grupo 18176" transform="translate(-235 -16089)">
    <circle id="Elipse_797" data-name="Elipse 797" cx="30.5" cy="30.5" r="30.5" transform="translate(235 16089)" fill="#f8e9e5"/>
    <g id="Web-computer-bag_shopping-bag-online_shopping" data-name="Web-computer-bag shopping-bag-online shopping" transform="translate(241 16096)">
      <path id="Trazado_15070" data-name="Trazado 15070" d="M57,6H34.9A5.017,5.017,0,0,0,30,2H22a5.017,5.017,0,0,0-4.9,4H7a5,5,0,0,0-5,5V43a5,5,0,0,0,5,5H26v6H20a3.009,3.009,0,0,0-3,3v4a1,1,0,0,0,1,1H46a1,1,0,0,0,1-1V57a3.009,3.009,0,0,0-3-3H38V48H57a5,5,0,0,0,5-5V11A5,5,0,0,0,57,6ZM30,4a3.009,3.009,0,0,1,3,3v5H31V7a4.924,4.924,0,0,0-1.03-3ZM23,7a3,3,0,1,1,6,0v5H23Zm0,7H37v6H34a1,1,0,0,0-1,1V32H23Zm14,8V32H35V22ZM19,7a3.009,3.009,0,0,1,3-3h.03A4.924,4.924,0,0,0,21,7v5H19Zm2,7V30.59l-2-2V16H17V28.59l-2,2V14ZM19.59,32H16.41L18,30.41ZM44,56a1,1,0,0,1,1,1v3H19V57a1,1,0,0,1,1-1ZM28,54V48h8v6ZM60,43a3.009,3.009,0,0,1-3,3H7a3.009,3.009,0,0,1-3-3V40H60Zm0-5H4V11A3.009,3.009,0,0,1,7,8H17v4H14a1,1,0,0,0-1,1V33a1,1,0,0,0,1,1H50a1,1,0,0,0,1-1V21a1,1,0,0,0-1-1H47V17a3.009,3.009,0,0,0-3-3H40a3,3,0,0,0-1,.18V13a1,1,0,0,0-1-1H35V8H57a3.009,3.009,0,0,1,3,3ZM49,22V32H39V22ZM39,20V17a1,1,0,0,1,1-1h4a1,1,0,0,1,1,1v3Z" transform="translate(0 0)" fill="#97181a"/>
      <rect id="Rect치ngulo_3112" data-name="Rect치ngulo 3112" width="2" height="2" transform="translate(54 42.001)" fill="#97181a"/>
      <rect id="Rect치ngulo_3113" data-name="Rect치ngulo 3113" width="2" height="2" transform="translate(50 42.001)" fill="#97181a"/>
      <path id="Trazado_15071" data-name="Trazado 15071" d="M52,18a1,1,0,0,0,.707-.293l5-5-1.414-1.414L52,15.586l-2.293-2.293-1.414,1.414,3,3A1,1,0,0,0,52,18Z" transform="translate(0 0)" fill="#97181a"/>
    </g>
  </g>
</svg>
