<svg xmlns="http://www.w3.org/2000/svg" width="380" height="322.322" viewBox="0 0 380 322.322">
  <g id="Grupo_13053" data-name="Grupo 13053" transform="translate(-613.642 -440.915)">
    <g id="Grupo_12969" data-name="Grupo 12969" transform="translate(726.348 440.915)">
      <g id="Grupo_12960" data-name="Grupo 12960" transform="translate(10.093 10.041)">
        <path id="Trazado_14734" data-name="Trazado 14734" d="M677.745,445.04a40.594,40.594,0,1,0,49.614,28.885A40.586,40.586,0,0,0,677.745,445.04Zm15.814,59.885a21.349,21.349,0,1,1,15.19-26.093A21.363,21.363,0,0,1,693.558,504.925Z" transform="translate(-647.499 -443.683)" fill="#e6eef3"/>
      </g>
      <g id="Grupo_12961" data-name="Grupo 12961" transform="translate(29.2)">
        <path id="Trazado_14735" data-name="Trazado 14735" d="M675.431,459.018l-17.685,4.672s-6.761-13.307-4.526-17.134c2.3-3.957,14-7.381,17.689-4.672C674.481,444.5,675.431,459.018,675.431,459.018Z" transform="translate(-652.767 -440.915)" fill="#e6eef3"/>
      </g>
      <g id="Grupo_12962" data-name="Grupo 12962" transform="translate(48.535 79.207)">
        <path id="Trazado_14736" data-name="Trazado 14736" d="M675.787,462.753,658.1,467.428s.693,14.9,4.523,17.138c3.95,2.3,15.817-.5,17.693-4.679C682.123,475.846,675.787,462.753,675.787,462.753Z" transform="translate(-658.098 -462.753)" fill="#e6eef3"/>
      </g>
      <g id="Grupo_12963" data-name="Grupo 12963" transform="translate(3.343 20.013)">
        <path id="Trazado_14737" data-name="Trazado 14737" d="M669.471,453.456l-7.127,16.851s-14.657-2.8-16.329-6.906c-1.716-4.236,2.735-15.585,7.131-16.844C657.4,445.335,669.471,453.456,669.471,453.456Z" transform="translate(-645.638 -446.432)" fill="#e6eef3"/>
      </g>
      <g id="Grupo_12964" data-name="Grupo 12964" transform="translate(0 51.567)">
        <path id="Trazado_14738" data-name="Trazado 14738" d="M664.188,455.462l1.723,18.215s-14.229,4.49-17.649,1.669c-3.526-2.916-4.994-15.019-1.719-18.218C649.717,454.033,664.188,455.462,664.188,455.462Z" transform="translate(-644.716 -455.132)" fill="#e6eef3"/>
      </g>
      <g id="Grupo_12965" data-name="Grupo 12965" transform="translate(79.441 30.385)">
        <path id="Trazado_14739" data-name="Trazado 14739" d="M670.565,471.532l-3.946-17.867s13.572-6.209,17.3-3.83c3.855,2.463,6.8,14.3,3.95,17.878C685.106,471.169,670.565,471.532,670.565,471.532Z" transform="translate(-666.619 -449.292)" fill="#e6eef3"/>
      </g>
      <g id="Grupo_12966" data-name="Grupo 12966" transform="translate(59.003 3.879)">
        <path id="Trazado_14740" data-name="Trazado 14740" d="M660.984,456.151,675.5,467.286s11.367-9.666,10.79-14.062c-.6-4.541-10.069-12.208-14.512-11.139C667.469,443.126,660.984,456.151,660.984,456.151Z" transform="translate(-660.984 -441.984)" fill="#e6eef3"/>
      </g>
      <g id="Grupo_12967" data-name="Grupo 12967" transform="translate(14.311 73.771)">
        <path id="Trazado_14741" data-name="Trazado 14741" d="M673.989,472.393l-14.512-11.139s-11.374,9.67-10.794,14.062c.6,4.534,10.068,12.212,14.519,11.135C667.511,485.417,673.989,472.393,673.989,472.393Z" transform="translate(-648.662 -461.254)" fill="#e6eef3"/>
      </g>
      <g id="Grupo_12968" data-name="Grupo 12968" transform="translate(75.081 59.292)">
        <path id="Trazado_14742" data-name="Trazado 14742" d="M665.417,474.109l7.123-16.847s14.664,2.789,16.329,6.9c1.716,4.236-2.731,15.589-7.131,16.851C677.473,482.237,665.417,474.109,665.417,474.109Z" transform="translate(-665.417 -457.262)" fill="#e6eef3"/>
      </g>
    </g>
    <g id="Grupo_12979" data-name="Grupo 12979" transform="translate(917.97 524.155)">
      <g id="Grupo_12970" data-name="Grupo 12970" transform="translate(7.5 7.46)">
        <path id="Trazado_14743" data-name="Trazado 14743" d="M722.091,466.928A30.164,30.164,0,1,0,758.952,488.4,30.168,30.168,0,0,0,722.091,466.928Zm11.752,44.5a15.865,15.865,0,1,1,11.287-19.39A15.876,15.876,0,0,1,733.842,511.431Z" transform="translate(-699.617 -465.922)" fill="#c8eefb"/>
      </g>
      <g id="Grupo_12971" data-name="Grupo 12971" transform="translate(21.698)">
        <path id="Trazado_14744" data-name="Trazado 14744" d="M720.374,477.318l-13.141,3.467s-5.027-9.88-3.366-12.731c1.708-2.938,10.4-5.48,13.141-3.471C719.664,466.531,720.374,477.318,720.374,477.318Z" transform="translate(-703.531 -463.865)" fill="#c8eefb"/>
      </g>
      <g id="Grupo_12972" data-name="Grupo 12972" transform="translate(36.064 58.856)">
        <path id="Trazado_14745" data-name="Trazado 14745" d="M720.636,480.092l-13.144,3.471s.515,11.077,3.359,12.734c2.938,1.712,11.755-.366,13.148-3.471C725.344,489.823,720.636,480.092,720.636,480.092Z" transform="translate(-707.492 -480.092)" fill="#c8eefb"/>
      </g>
      <g id="Grupo_12973" data-name="Grupo 12973" transform="translate(2.485 14.869)">
        <path id="Trazado_14746" data-name="Trazado 14746" d="M715.941,473.182l-5.3,12.52s-10.892-2.075-12.132-5.128c-1.273-3.148,2.031-11.577,5.3-12.517C706.975,467.151,715.941,473.182,715.941,473.182Z" transform="translate(-698.234 -467.964)" fill="#c8eefb"/>
      </g>
      <g id="Grupo_12974" data-name="Grupo 12974" transform="translate(0 38.315)">
        <path id="Trazado_14747" data-name="Trazado 14747" d="M712.021,474.672l1.277,13.536s-10.572,3.337-13.115,1.241c-2.619-2.165-3.71-11.16-1.277-13.536C701.264,473.613,712.021,474.672,712.021,474.672Z" transform="translate(-697.549 -474.429)" fill="#c8eefb"/>
      </g>
      <g id="Grupo_12975" data-name="Grupo 12975" transform="translate(59.03 22.58)">
        <path id="Trazado_14748" data-name="Trazado 14748" d="M716.755,486.613l-2.931-13.275s10.087-4.614,12.858-2.844c2.869,1.828,5.056,10.624,2.938,13.279C727.559,486.345,716.755,486.613,716.755,486.613Z" transform="translate(-713.824 -470.09)" fill="#c8eefb"/>
      </g>
      <g id="Grupo_12976" data-name="Grupo 12976" transform="translate(43.844 2.881)">
        <path id="Trazado_14749" data-name="Trazado 14749" d="M709.637,475.184l10.787,8.277s8.447-7.185,8.019-10.449c-.446-3.373-7.483-9.075-10.783-8.277C714.461,465.507,709.637,475.184,709.637,475.184Z" transform="translate(-709.637 -464.659)" fill="#c8eefb"/>
      </g>
      <g id="Grupo_12977" data-name="Grupo 12977" transform="translate(10.63 54.815)">
        <path id="Trazado_14750" data-name="Trazado 14750" d="M719.3,487.255l-10.783-8.277s-8.455,7.185-8.026,10.449c.45,3.369,7.486,9.075,10.794,8.273C714.492,496.932,719.3,487.255,719.3,487.255Z" transform="translate(-700.48 -478.978)" fill="#c8eefb"/>
      </g>
      <g id="Grupo_12978" data-name="Grupo 12978" transform="translate(55.795 44.057)">
        <path id="Trazado_14751" data-name="Trazado 14751" d="M712.932,488.529l5.288-12.517s10.9,2.075,12.132,5.129c1.28,3.148-2.027,11.581-5.3,12.52C721.887,494.571,712.932,488.529,712.932,488.529Z" transform="translate(-712.932 -476.012)" fill="#c8eefb"/>
      </g>
    </g>
    <g id="Grupo_12990" data-name="Grupo 12990" transform="translate(613.642 466.355)">
      <g id="Grupo_12980" data-name="Grupo 12980" transform="translate(6.971 7.409)">
        <path id="Trazado_14752" data-name="Trazado 14752" d="M925.162,490.357l-64.531,10.916.195,41.162-40.471-18.4-19.3,32.855-1.615-.645L688.168,512.226l-2.986,62.4L616,582.066l-.439-4.048,65.718-7.073,3.1-64.6,114.941,45.479,19.382-33,38.027,17.285-.188-38.271,63.841-10.792-6.946-36.3,4-.772Z" transform="translate(-615.564 -449.971)" fill="#ffbd07"/>
      </g>
      <g id="Grupo_12981" data-name="Grupo 12981" transform="translate(72.375 58.463)">
        <path id="Trazado_14753" data-name="Trazado 14753" d="M644.069,464.712a7.406,7.406,0,1,1-9.8,3.678A7.4,7.4,0,0,1,644.069,464.712Z" transform="translate(-633.597 -464.048)" fill="#d64626"/>
      </g>
      <g id="Grupo_12982" data-name="Grupo 12982" transform="translate(67.237 122.813)">
        <path id="Trazado_14754" data-name="Trazado 14754" d="M642.654,482.458a7.406,7.406,0,1,1-9.807,3.674A7.4,7.4,0,0,1,642.654,482.458Z" transform="translate(-632.18 -481.79)" fill="#29b9e6"/>
      </g>
      <g id="Grupo_12983" data-name="Grupo 12983" transform="translate(185.41 101.699)">
        <path id="Trazado_14755" data-name="Trazado 14755" d="M675.23,476.635a7.406,7.406,0,1,1-9.8,3.678A7.406,7.406,0,0,1,675.23,476.635Z" transform="translate(-664.762 -475.968)" fill="#29b9e6"/>
      </g>
      <g id="Grupo_12984" data-name="Grupo 12984" transform="translate(203.905 70.627)">
        <path id="Trazado_14756" data-name="Trazado 14756" d="M680.335,468.067a7.4,7.4,0,1,1-9.811,3.674A7.41,7.41,0,0,1,680.335,468.067Z" transform="translate(-669.861 -467.401)" fill="#d64626"/>
      </g>
      <g id="Grupo_12985" data-name="Grupo 12985" transform="translate(242.183 49.399)">
        <path id="Trazado_14757" data-name="Trazado 14757" d="M690.883,462.214a7.406,7.406,0,1,1-9.8,3.678A7.409,7.409,0,0,1,690.883,462.214Z" transform="translate(-680.414 -461.549)" fill="#d64626"/>
      </g>
      <g id="Grupo_12986" data-name="Grupo 12986" transform="translate(242.778 89.297)">
        <path id="Trazado_14758" data-name="Trazado 14758" d="M691.051,473.213a7.408,7.408,0,1,1-9.8,3.685A7.416,7.416,0,0,1,691.051,473.213Z" transform="translate(-680.579 -472.549)" fill="#29b9e6"/>
      </g>
      <g id="Grupo_12987" data-name="Grupo 12987" transform="translate(306.764 38.732)">
        <path id="Trazado_14759" data-name="Trazado 14759" d="M708.7,459.273a7.407,7.407,0,1,1-9.815,3.674A7.408,7.408,0,0,1,708.7,459.273Z" transform="translate(-698.22 -458.608)" fill="#d64626"/>
      </g>
      <g id="Grupo_12988" data-name="Grupo 12988" transform="translate(299.917)">
        <path id="Trazado_14760" data-name="Trazado 14760" d="M706.813,448.593A7.41,7.41,0,1,1,697,452.271,7.424,7.424,0,0,1,706.813,448.593Z" transform="translate(-696.332 -447.929)" fill="#d64626"/>
      </g>
      <g id="Grupo_12989" data-name="Grupo 12989" transform="translate(0 132.099)">
        <path id="Trazado_14761" data-name="Trazado 14761" d="M624.119,485.021a7.4,7.4,0,1,1-9.811,3.67A7.406,7.406,0,0,1,624.119,485.021Z" transform="translate(-613.642 -484.35)" fill="#d64626"/>
      </g>
    </g>
    <g id="Grupo_12991" data-name="Grupo 12991" transform="translate(674.045 553.983)">
      <rect id="Rectángulo_3058" data-name="Rectángulo 3058" width="22.814" height="192.071" fill="#ff8f00"/>
      <rect id="Rectángulo_3059" data-name="Rectángulo 3059" width="25.127" height="141.343" transform="translate(27.638 50.728)" fill="#ff8f00"/>
      <rect id="Rectángulo_3060" data-name="Rectángulo 3060" width="22.81" height="163.066" transform="translate(59.92 29.005)" fill="#ff8f00"/>
      <rect id="Rectángulo_3061" data-name="Rectángulo 3061" width="25.123" height="96.034" transform="translate(87.547 96.037)" fill="#ff8f00"/>
      <rect id="Rectángulo_3062" data-name="Rectángulo 3062" width="22.811" height="192.071" transform="translate(120.261)" fill="#ff8f00"/>
      <rect id="Rectángulo_3063" data-name="Rectángulo 3063" width="25.127" height="141.343" transform="translate(147.895 50.728)" fill="#b9ddff"/>
      <rect id="Rectángulo_3064" data-name="Rectángulo 3064" width="22.811" height="163.066" transform="translate(180.177 29.005)" fill="#b9ddff"/>
      <rect id="Rectángulo_3065" data-name="Rectángulo 3065" width="25.127" height="96.034" transform="translate(207.805 96.037)" fill="#b9ddff"/>
    </g>
    <g id="Grupo_13007" data-name="Grupo 13007" transform="translate(807.638 542.236)">
      <g id="Grupo_12993" data-name="Grupo 12993">
        <g id="Grupo_12992" data-name="Grupo 12992">
          <path id="Trazado_14762" data-name="Trazado 14762" d="M807,538.8a69.937,69.937,0,1,0-139.875,0c0,22.89,18.5,36.966,28.008,55.979,3.188,6.366,0,28.454,0,28.454h84.792s-3.206-22.632,0-29.183C789.094,575.306,807,561.269,807,538.8Z" transform="translate(-667.129 -468.85)" fill="#ffbd07"/>
        </g>
      </g>
      <g id="Grupo_12995" data-name="Grupo 12995" transform="translate(18.32 16.325)">
        <g id="Grupo_12994" data-name="Grupo 12994">
          <path id="Trazado_14763" data-name="Trazado 14763" d="M775.415,532.246c0-32.52-23.108-58.895-51.608-58.895s-51.627,26.375-51.627,58.895c0,19.277,13.656,31.127,20.674,47.144,2.347,5.35,0,23.949,0,23.949h62.569s-2.358-19.052,0-24.577C762.195,563,775.415,551.172,775.415,532.246Z" transform="translate(-672.18 -473.351)" fill="#fff5a2"/>
        </g>
      </g>
      <g id="Grupo_12998" data-name="Grupo 12998" transform="translate(27.145 143.3)">
        <g id="Grupo_12997" data-name="Grupo 12997">
          <g id="Grupo_12996" data-name="Grupo 12996">
            <rect id="Rectángulo_3066" data-name="Rectángulo 3066" width="85.656" height="66.791" fill="#002b45"/>
          </g>
        </g>
      </g>
      <g id="Grupo_13000" data-name="Grupo 13000" transform="translate(16.057 143.299)">
        <g id="Grupo_12999" data-name="Grupo 12999">
          <path id="Trazado_14764" data-name="Trazado 14764" d="M779.39,519.439a11.092,11.092,0,0,1-11.091,11.1H682.643a11.088,11.088,0,0,1-11.087-11.1h0a11.085,11.085,0,0,1,11.087-11.08H768.3a11.088,11.088,0,0,1,11.091,11.08Z" transform="translate(-671.556 -508.359)" fill="#2b4e6a"/>
        </g>
      </g>
      <g id="Grupo_13002" data-name="Grupo 13002" transform="translate(16.057 187.918)">
        <g id="Grupo_13001" data-name="Grupo 13001">
          <path id="Trazado_14765" data-name="Trazado 14765" d="M779.39,531.741A11.093,11.093,0,0,1,768.3,542.833H682.643a11.09,11.09,0,0,1-11.087-11.091h0a11.088,11.088,0,0,1,11.087-11.08H768.3a11.091,11.091,0,0,1,11.091,11.08Z" transform="translate(-671.556 -520.661)" fill="#2b4e6a"/>
        </g>
      </g>
      <g id="Grupo_13004" data-name="Grupo 13004" transform="translate(57.542 86.327)">
        <g id="Grupo_13003" data-name="Grupo 13003">
          <rect id="Rectángulo_3067" data-name="Rectángulo 3067" width="4.187" height="56.973" fill="#fff"/>
        </g>
      </g>
      <g id="Grupo_13006" data-name="Grupo 13006" transform="translate(81.66 86.327)">
        <g id="Grupo_13005" data-name="Grupo 13005">
          <rect id="Rectángulo_3068" data-name="Rectángulo 3068" width="4.183" height="56.973" fill="#fff"/>
        </g>
      </g>
    </g>
    <g id="Grupo_13008" data-name="Grupo 13008" transform="translate(623.338 681.894)">
      <path id="Trazado_14766" data-name="Trazado 14766" d="M656.935,571.773l-40.619.418.45-64.836h40.17Z" transform="translate(-616.315 -507.355)" fill="#d64626"/>
      <rect id="Rectángulo_3069" data-name="Rectángulo 3069" width="44.278" height="47.406" transform="translate(49.092 17.012)" fill="#d64626"/>
      <rect id="Rectángulo_3070" data-name="Rectángulo 3070" width="40.208" height="54.692" transform="translate(105.955 9.726)" fill="#d64626"/>
      <rect id="Rectángulo_3071" data-name="Rectángulo 3071" width="44.254" height="32.211" transform="translate(154.639 32.207)" fill="#1f75fe"/>
    </g>
    <g id="Grupo_13052" data-name="Grupo 13052" transform="translate(651.32 638.819)">
      <g id="Grupo_13010" data-name="Grupo 13010" transform="translate(49.391 52.922)">
        <g id="Grupo_13009" data-name="Grupo 13009">
          <path id="Trazado_14767" data-name="Trazado 14767" d="M728.29,554.544s-62.649-45.13-65.989-44.467-24.653,57.869-24.653,57.869H650.3l17.66-31.2,27,31.2Z" transform="translate(-637.648 -510.07)" fill="#2b4e6a"/>
        </g>
      </g>
      <g id="Grupo_13012" data-name="Grupo 13012" transform="translate(11.406 97.361)">
        <g id="Grupo_13011" data-name="Grupo 13011">
          <path id="Trazado_14768" data-name="Trazado 14768" d="M785.784,525.875s2.666,21.327-21.994,20L689.157,542.9l-61.982,6.3V537.543l68.3-11.668S761.784,517.881,785.784,525.875Z" transform="translate(-627.175 -522.322)" fill="#002b45"/>
        </g>
      </g>
      <g id="Grupo_13014" data-name="Grupo 13014" transform="translate(0 99.826)">
        <g id="Grupo_13013" data-name="Grupo 13013">
          <path id="Trazado_14769" data-name="Trazado 14769" d="M635.436,535.758s-4-.5-6-7.751-6-6.075-5.332,0-1.331,21.41,3.329,19.408a9.186,9.186,0,0,1,8,0Z" transform="translate(-624.03 -523.002)" fill="#2e3b57"/>
        </g>
      </g>
      <g id="Grupo_13051" data-name="Grupo 13051" transform="translate(126.116)">
        <g id="Grupo_13017" data-name="Grupo 13017" transform="translate(0 16.897)">
          <g id="Grupo_13016" data-name="Grupo 13016">
            <g id="Grupo_13015" data-name="Grupo 13015">
              <path id="Trazado_14770" data-name="Trazado 14770" d="M658.8,581.649l48.341,5.267,3.025-35.735,16.127-33L706.65,506.669l-33.167-6.532-7.977,48.55Z" transform="translate(-658.802 -500.137)" fill="#dff7f9"/>
            </g>
          </g>
        </g>
        <g id="Grupo_13021" data-name="Grupo 13021" transform="translate(1.551 76.415)">
          <g id="Grupo_13020" data-name="Grupo 13020">
            <g id="Grupo_13019" data-name="Grupo 13019">
              <g id="Grupo_13018" data-name="Grupo 13018">
                <path id="Trazado_14771" data-name="Trazado 14771" d="M666.17,519.6s-5.542,1.045-6.413.087c-.74-.809-1.984-4.806,6.539-2.354Z" transform="translate(-659.229 -516.547)" fill="#ffc190"/>
              </g>
            </g>
          </g>
        </g>
        <g id="Grupo_13025" data-name="Grupo 13025" transform="translate(7.35 31.306)">
          <g id="Grupo_13024" data-name="Grupo 13024">
            <g id="Grupo_13023" data-name="Grupo 13023">
              <g id="Grupo_13022" data-name="Grupo 13022">
                <path id="Trazado_14772" data-name="Trazado 14772" d="M715.2,504.11,721,507.6,704.773,550l-43.945,2.947.609-3.067,34.945-8.646Z" transform="translate(-660.828 -504.11)" fill="#ffc7ca"/>
              </g>
            </g>
          </g>
        </g>
        <g id="Grupo_13042" data-name="Grupo 13042" transform="translate(36.01)">
          <g id="Grupo_13029" data-name="Grupo 13029" transform="translate(0 13.17)">
            <g id="Grupo_13028" data-name="Grupo 13028">
              <g id="Grupo_13027" data-name="Grupo 13027">
                <g id="Grupo_13026" data-name="Grupo 13026">
                  <path id="Trazado_14773" data-name="Trazado 14773" d="M671.991,499.11l-3.261,9.1s10.783,9.234,10.057,4.487a108.055,108.055,0,0,1-.58-13.046Z" transform="translate(-668.73 -499.11)" fill="#ffc190"/>
                </g>
              </g>
            </g>
          </g>
          <g id="Grupo_13033" data-name="Grupo 13033" transform="translate(2.064 0.648)">
            <g id="Grupo_13032" data-name="Grupo 13032">
              <g id="Grupo_13031" data-name="Grupo 13031">
                <g id="Grupo_13030" data-name="Grupo 13030">
                  <path id="Trazado_14774" data-name="Trazado 14774" d="M671.41,497.461c-.925,1.835-2.745,5.415-1.886,8.016s2.093,7.225,4.871,8.545,4.679-1.081,5.238-2.2c.892-1.788,2.383-12.118-2.006-15.034C674.308,494.574,672.106,496.058,671.41,497.461Z" transform="translate(-669.299 -495.658)" fill="#ffc190"/>
                </g>
              </g>
            </g>
          </g>
          <g id="Grupo_13037" data-name="Grupo 13037" transform="translate(1.491)">
            <g id="Grupo_13036" data-name="Grupo 13036">
              <g id="Grupo_13035" data-name="Grupo 13035">
                <g id="Grupo_13034" data-name="Grupo 13034">
                  <path id="Trazado_14775" data-name="Trazado 14775" d="M679.728,499.316a5.752,5.752,0,0,1-5.321.773c-3.123-1.052-2.989,2.129-3.014,2.474s.134,4.9-.972,4.867-2.122-5.745-.189-9.372A5.189,5.189,0,0,1,679.728,499.316Z" transform="translate(-669.141 -495.479)" fill="#2e3b57"/>
                </g>
              </g>
            </g>
          </g>
          <g id="Grupo_13041" data-name="Grupo 13041" transform="translate(3.362 12.428)">
            <g id="Grupo_13040" data-name="Grupo 13040">
              <g id="Grupo_13039" data-name="Grupo 13039">
                <g id="Grupo_13038" data-name="Grupo 13038">
                  <path id="Trazado_14776" data-name="Trazado 14776" d="M669.657,500.133s2.967,3.409,6.326,3.272c2.133-.069,3.525-3.656,3.587-4.443s.421,7.073-4.24,6.953S669.657,500.133,669.657,500.133Z" transform="translate(-669.657 -498.906)" fill="#2e3b57"/>
                </g>
              </g>
            </g>
          </g>
        </g>
        <g id="Grupo_13046" data-name="Grupo 13046" transform="translate(42.1 17.809)">
          <g id="Grupo_13045" data-name="Grupo 13045">
            <g id="Grupo_13044" data-name="Grupo 13044">
              <g id="Grupo_13043" data-name="Grupo 13043">
                <path id="Trazado_14777" data-name="Trazado 14777" d="M670.409,507.643s3.529-7.087,5.346-7.247c1.527-.141,7.062,1.853-2.912,9.311Z" transform="translate(-670.409 -500.389)" fill="#ffc190"/>
              </g>
            </g>
          </g>
        </g>
        <g id="Grupo_13050" data-name="Grupo 13050" transform="translate(5.77 16.688)">
          <g id="Grupo_13049" data-name="Grupo 13049">
            <g id="Grupo_13048" data-name="Grupo 13048">
              <g id="Grupo_13047" data-name="Grupo 13047">
                <path id="Trazado_14778" data-name="Trazado 14778" d="M660.392,517.648l7.842-17.568,3.425.953,1.2,32.639,24.064-27.45,4.226,3.2L667.4,554.382Z" transform="translate(-660.392 -500.08)" fill="#ffc7ca"/>
              </g>
            </g>
          </g>
        </g>
      </g>
    </g>
  </g>
</svg>
