<svg id="Grupo_18081" data-name="Grupo 18081" xmlns="http://www.w3.org/2000/svg" width="64.144" height="60.865" viewBox="0 0 64.144 60.865">
  <path id="Trazado_12403" data-name="Trazado 12403" d="M-1875.37,363.37h42.217l21.928,29.511-21.928,31.355h-42.217Z" transform="translate(1875.37 -363.37)" fill="#d64626"/>
  <path id="Trazado_14732" data-name="Trazado 14732" d="M7.772,27.487A5.19,5.19,0,0,1,3.3,25.334q-1.56-2.153-1.56-6.4t1.555-6.4a5.2,5.2,0,0,1,4.48-2.142,5.184,5.184,0,0,1,4.468,2.142q1.555,2.142,1.555,6.4t-1.56,6.4A5.178,5.178,0,0,1,7.772,27.487Zm0-2.994a2.188,2.188,0,0,0,2-1.365,9.5,9.5,0,0,0,.708-4.2,9.433,9.433,0,0,0-.714-4.2,2.192,2.192,0,0,0-1.992-1.365q-2.718,0-2.718,5.562T7.772,24.493ZM21.81,27.487a5.97,5.97,0,0,1-4.537-1.52,6.592,6.592,0,0,1-1.428-4.652l3.4-.15a12.03,12.03,0,0,0,.052,1.221,4.219,4.219,0,0,0,.207.944,1.69,1.69,0,0,0,.438.708,1.988,1.988,0,0,0,.749.409,3.7,3.7,0,0,0,1.123.15,2.7,2.7,0,0,0,1.963-.668,2.335,2.335,0,0,0,.685-1.75,2.354,2.354,0,0,0-.656-1.8,2.47,2.47,0,0,0-1.762-.616H21.4V17.181h.6a1.8,1.8,0,0,0,1.376-.587,2.094,2.094,0,0,0,.547-1.485,1.674,1.674,0,0,0-.6-1.382,2.434,2.434,0,0,0-1.578-.484,2.364,2.364,0,0,0-.9.155,1.675,1.675,0,0,0-.6.4,1.757,1.757,0,0,0-.357.61,3.208,3.208,0,0,0-.173.725,7.244,7.244,0,0,0-.04.806l-3.351-.161a5.327,5.327,0,0,1,1.428-4,5.445,5.445,0,0,1,3.961-1.388,5.663,5.663,0,0,1,3.8,1.272A3.985,3.985,0,0,1,27,14.82a3.6,3.6,0,0,1-.639,2.142,3.659,3.659,0,0,1-1.457,1.267,4.1,4.1,0,0,1,1.059.472,4.343,4.343,0,0,1,.927.795,3.546,3.546,0,0,1,.685,1.209,4.865,4.865,0,0,1,.253,1.612,4.7,4.7,0,0,1-1.647,3.76A6.5,6.5,0,0,1,21.81,27.487Z" transform="translate(11.422 11.43)" fill="#fff"/>
</svg>
