<svg xmlns="http://www.w3.org/2000/svg" width="360" height="345.226" viewBox="0 0 360 345.226">
  <g id="Grupo_13440" data-name="Grupo 13440" transform="translate(-29.229 -40.684)">
    <g id="Grupo_13151" data-name="Grupo 13151" transform="translate(210.172 289.873)">
      <g id="Grupo_13125" data-name="Grupo 13125">
        <g id="Grupo_13124" data-name="Grupo 13124">
          <g id="Grupo_13123" data-name="Grupo 13123">
            <g id="Grupo_13122" data-name="Grupo 13122">
              <path id="Trazado_14876" data-name="Trazado 14876" d="M273.4,440.683c-14.051-6.653-19.658-22.466-21.639-37.2-.331-2.459-1.035-4.991-.236-7.333s3.266-4.267,5.63-3.607c1.961.547,3.11,2.526,4.421,4.1a14.5,14.5,0,0,0,6.661,4.507c1.693.545,3.7.713,5.1-.395,1.913-1.521,1.668-4.476,1.242-6.906q-1.194-6.792-2.385-13.582a22.968,22.968,0,0,1-.488-7.347,7.65,7.65,0,0,1,3.878-5.9c2.2-1.04,5.291-.19,6.182,2.108a22.762,22.762,0,0,1,.581,3.017,2.594,2.594,0,0,0,1.9,2.154c1.019.122,1.875-.733,2.482-1.568a32.783,32.783,0,0,0,4.323-9.746,45.483,45.483,0,0,1,3.884-9.96c1.825-3.064,4.616-5.719,8.064-6.505s7.525.735,8.982,4.006.051,7.1-1.656,10.24a55.054,55.054,0,0,1-9.48,12.685A4.535,4.535,0,0,0,299.3,375.8c-.254,1.711,1.555,3.061,3.246,3.322,1.914.3,3.85-.223,5.784-.321s4.13.391,5.15,2.062c1.417,2.317-.221,5.274-1.978,7.327a47.163,47.163,0,0,1-12.418,10.272,15.909,15.909,0,0,0-4.694,3.351c-1.229,1.5-1.731,3.834-.569,5.4s3.491,1.737,5.307,1.072,3.319-1.965,4.991-2.941c3.128-1.826,7.483-2.326,10.112.2a7.8,7.8,0,0,1,1.97,6.667,17.992,17.992,0,0,1-2.669,6.633,47.422,47.422,0,0,1-17.592,17.409c-7.3,4-14.358,5.943-22.539,4.428" transform="translate(-251.157 -346.316)" fill="#f5f5f5"/>
            </g>
          </g>
        </g>
      </g>
      <g id="Grupo_13130" data-name="Grupo 13130" transform="translate(24.471 1.468)">
        <g id="Grupo_13129" data-name="Grupo 13129">
          <g id="Grupo_13128" data-name="Grupo 13128">
            <g id="Grupo_13127" data-name="Grupo 13127">
              <g id="Grupo_13126" data-name="Grupo 13126">
                <path id="Trazado_14877" data-name="Trazado 14877" d="M281.17,431.194a221.186,221.186,0,0,1,4.681-24.924l1.563-6.47c.518-2.122,1.031-4.227,1.66-6.255a110.581,110.581,0,0,1,4.284-11.444c1.539-3.574,3.129-6.91,4.638-10.018s2.986-5.975,4.436-8.532a87.509,87.509,0,0,1,7.733-11.547c1.016-1.287,1.837-2.259,2.4-2.911.273-.31.487-.554.647-.737a1.929,1.929,0,0,1,.232-.241,1.755,1.755,0,0,1-.2.272l-.613.766c-.542.671-1.34,1.661-2.334,2.962a92.643,92.643,0,0,0-7.592,11.6c-1.428,2.56-2.877,5.43-4.377,8.539s-3.07,6.449-4.594,10.019A111.787,111.787,0,0,0,289.5,393.68c-.623,2.017-1.129,4.1-1.647,6.232l-1.56,6.467a226.536,226.536,0,0,0-4.708,24.868" transform="translate(-281.17 -348.117)" fill="#e0e0e0"/>
              </g>
            </g>
          </g>
        </g>
      </g>
      <g id="Grupo_13135" data-name="Grupo 13135" transform="translate(24.418 20.704)">
        <g id="Grupo_13134" data-name="Grupo 13134">
          <g id="Grupo_13133" data-name="Grupo 13133">
            <g id="Grupo_13132" data-name="Grupo 13132">
              <g id="Grupo_13131" data-name="Grupo 13131">
                <path id="Trazado_14878" data-name="Trazado 14878" d="M289.187,397.863a5.024,5.024,0,0,1-.413-1c-.241-.651-.559-1.6-.935-2.784-.753-2.364-1.683-5.662-2.693-9.3s-1.984-6.92-2.772-9.265c-.391-1.173-.716-2.121-.949-2.772a5,5,0,0,1-.315-1.032,4.823,4.823,0,0,1,.479.967c.285.633.657,1.566,1.087,2.73.868,2.326,1.895,5.6,2.906,9.248l2.565,9.334c.315,1.12.582,2.065.8,2.823A4.938,4.938,0,0,1,289.187,397.863Z" transform="translate(-281.106 -371.71)" fill="#e0e0e0"/>
              </g>
            </g>
          </g>
        </g>
      </g>
      <g id="Grupo_13140" data-name="Grupo 13140" transform="translate(32.5 35.718)">
        <g id="Grupo_13139" data-name="Grupo 13139">
          <g id="Grupo_13138" data-name="Grupo 13138">
            <g id="Grupo_13137" data-name="Grupo 13137">
              <g id="Grupo_13136" data-name="Grupo 13136">
                <path id="Trazado_14879" data-name="Trazado 14879" d="M321.295,390.131a6.825,6.825,0,0,1-1.222.36c-.79.207-1.935.5-3.338.909-2.811.793-6.656,2.025-10.839,3.57s-7.905,3.119-10.566,4.33c-1.336.6-2.4,1.108-3.143,1.457a6.791,6.791,0,0,1-1.169.505,6.747,6.747,0,0,1,1.089-.665c.717-.4,1.765-.956,3.087-1.591,2.633-1.29,6.351-2.909,10.545-4.467a111.79,111.79,0,0,1,10.912-3.453c1.419-.368,2.578-.616,3.384-.769A6.811,6.811,0,0,1,321.295,390.131Z" transform="translate(-291.018 -390.124)" fill="#e0e0e0"/>
              </g>
            </g>
          </g>
        </g>
      </g>
      <g id="Grupo_13145" data-name="Grupo 13145" transform="translate(2.26 46.635)">
        <g id="Grupo_13144" data-name="Grupo 13144">
          <g id="Grupo_13143" data-name="Grupo 13143">
            <g id="Grupo_13142" data-name="Grupo 13142">
              <g id="Grupo_13141" data-name="Grupo 13141">
                <path id="Trazado_14880" data-name="Trazado 14880" d="M276.426,440.784a1.626,1.626,0,0,1-.279-.345l-.726-1.041c-.626-.906-1.5-2.241-2.554-3.905-2.115-3.327-4.891-8.014-7.884-13.227s-5.724-9.922-7.765-13.287l-2.43-3.98-.656-1.087a1.625,1.625,0,0,1-.2-.4,1.7,1.7,0,0,1,.279.346c.2.281.436.624.726,1.04.627.907,1.5,2.242,2.555,3.905,2.114,3.327,4.89,8.014,7.885,13.229s5.722,9.919,7.764,13.286c1,1.635,1.82,2.98,2.43,3.98l.656,1.087A1.626,1.626,0,0,1,276.426,440.784Z" transform="translate(-253.928 -403.515)" fill="#e0e0e0"/>
              </g>
            </g>
          </g>
        </g>
      </g>
      <g id="Grupo_13150" data-name="Grupo 13150" transform="translate(24.757 63.484)">
        <g id="Grupo_13149" data-name="Grupo 13149">
          <g id="Grupo_13148" data-name="Grupo 13148">
            <g id="Grupo_13147" data-name="Grupo 13147">
              <g id="Grupo_13146" data-name="Grupo 13146">
                <path id="Trazado_14881" data-name="Trazado 14881" d="M320.8,424.182a1.683,1.683,0,0,1-.384.24l-1.138.608-4.2,2.195c-3.551,1.854-8.425,4.47-13.807,7.369s-10.287,5.474-13.877,7.255c-1.795.891-3.254,1.6-4.272,2.064l-1.176.532a1.651,1.651,0,0,1-.424.157,1.736,1.736,0,0,1,.384-.241l1.138-.607,4.2-2.195c3.55-1.853,8.425-4.47,13.808-7.37s10.285-5.473,13.874-7.254c1.795-.891,3.254-1.6,4.273-2.064l1.176-.532A1.681,1.681,0,0,1,320.8,424.182Z" transform="translate(-281.522 -424.179)" fill="#e0e0e0"/>
              </g>
            </g>
          </g>
        </g>
      </g>
    </g>
    <g id="Grupo_13175" data-name="Grupo 13175" transform="translate(117.531 209.011)">
      <g id="Grupo_13153" data-name="Grupo 13153">
        <g id="Grupo_13152" data-name="Grupo 13152">
          <path id="Trazado_14882" data-name="Trazado 14882" d="M150.468,247.361s-9.688,1.346-4.249,22.563,10.051,32.152,10.051,32.152.731,4.806-3.143,4.657-11.772-3.294-14.452.886c-2.779,4.336-.35,9.56,5.727,15.027s18.949,17.937,20.108,19.069c1.139,1.11,2,3.465-.653,3.786s-21.512-1.892-22.027,7.119,18.916,21.463,21.013,22.864,2.429,2.5,1.958,3.718-6.738-.122-12.127-.532-11.71.06-11.57,5.283,10.34,18.423,40.105,28.238l14.09,3.645,10.416-10.257c20.952-23.309,23.246-39.832,20.77-44.434s-8.193-1.868-12.666,1.166-9.246,7.312-10.259,6.488-1.273-1.94-.148-4.2,11.8-22.72,6.873-30.284-20.188,3.728-22.652,4.768-2.885-1.432-2.448-2.961c.444-1.559,5.419-18.776,7.974-26.54s2.068-13.505-2.5-15.886c-4.4-2.3-9.694,4.358-12.982,6.412s-5.043-2.479-5.043-2.479-1.431-11.781-7.255-32.9-15.11-17.332-15.11-17.332" transform="translate(-137.532 -247.138)" fill="#ebebeb"/>
        </g>
      </g>
      <g id="Grupo_13156" data-name="Grupo 13156" transform="translate(17.774 19.232)">
        <g id="Grupo_13155" data-name="Grupo 13155">
          <g id="Grupo_13154" data-name="Grupo 13154">
            <path id="Trazado_14883" data-name="Trazado 14883" d="M199.311,423.7c-4.216-15.524-11.245-43.241-17.4-67.006s-11.751-45.26-15.888-60.8l-4.918-18.4-1.334-5c-.143-.56-.255-.994-.336-1.305-.073-.294-.1-.448-.1-.448s.056.146.144.436c.09.309.216.739.379,1.293.329,1.158.8,2.833,1.415,4.982,1.225,4.329,2.952,10.6,5.057,18.367,4.216,15.524,9.86,37.017,16.016,60.773s13.139,51.493,17.276,67.036" transform="translate(-159.332 -270.726)" fill="#e0e0e0"/>
          </g>
        </g>
      </g>
      <g id="Grupo_13159" data-name="Grupo 13159" transform="translate(12.015 65.324)">
        <g id="Grupo_13158" data-name="Grupo 13158">
          <g id="Grupo_13157" data-name="Grupo 13157">
            <path id="Trazado_14884" data-name="Trazado 14884" d="M152.269,327.261a4.733,4.733,0,0,1,.928.5c.584.343,1.412.864,2.43,1.517,2.033,1.31,4.795,3.191,7.8,5.322l7.685,5.482,2.338,1.645a4.748,4.748,0,0,1,.837.639,4.662,4.662,0,0,1-.932-.491c-.582-.345-1.411-.866-2.423-1.53-2.02-1.331-4.756-3.247-7.765-5.378l-7.721-5.424-2.347-1.635A4.741,4.741,0,0,1,152.269,327.261Z" transform="translate(-152.268 -327.259)" fill="#e0e0e0"/>
          </g>
        </g>
      </g>
      <g id="Grupo_13162" data-name="Grupo 13162" transform="translate(35.208 53.79)">
        <g id="Grupo_13161" data-name="Grupo 13161">
          <g id="Grupo_13160" data-name="Grupo 13160">
            <path id="Trazado_14885" data-name="Trazado 14885" d="M180.717,339.063c-.105-.068,3.521-5.932,8.1-13.1s8.377-12.921,8.482-12.854-3.521,5.93-8.1,13.1S180.823,339.13,180.717,339.063Z" transform="translate(-180.715 -313.112)" fill="#e0e0e0"/>
          </g>
        </g>
      </g>
      <g id="Grupo_13165" data-name="Grupo 13165" transform="translate(43.02 97.892)">
        <g id="Grupo_13164" data-name="Grupo 13164">
          <g id="Grupo_13163" data-name="Grupo 13163">
            <path id="Trazado_14886" data-name="Trazado 14886" d="M190.3,385.967a4.9,4.9,0,0,1,.773-.747l2.2-1.923c1.852-1.626,4.4-3.883,7.124-6.475s5.116-5.015,6.831-6.786l2.033-2.1a4.966,4.966,0,0,1,.784-.735,4.84,4.84,0,0,1-.654.854c-.444.529-1.1,1.283-1.931,2.2-1.658,1.83-4.016,4.3-6.753,6.9s-5.321,4.825-7.229,6.391c-.958.779-1.74,1.4-2.293,1.816A4.875,4.875,0,0,1,190.3,385.967Z" transform="translate(-190.297 -367.203)" fill="#e0e0e0"/>
          </g>
        </g>
      </g>
      <g id="Grupo_13168" data-name="Grupo 13168" transform="translate(19.172 108.23)">
        <g id="Grupo_13167" data-name="Grupo 13167">
          <g id="Grupo_13166" data-name="Grupo 13166">
            <path id="Trazado_14887" data-name="Trazado 14887" d="M161.047,379.889a4.231,4.231,0,0,1,.965.234l2.58.8c2.173.692,5.163,1.678,8.457,2.794s6.27,2.15,8.416,2.92l2.533.934a4.266,4.266,0,0,1,.91.4,4.227,4.227,0,0,1-.966-.234l-2.58-.8c-2.172-.692-5.163-1.679-8.458-2.795s-6.268-2.15-8.415-2.92l-2.533-.934A4.171,4.171,0,0,1,161.047,379.889Z" transform="translate(-161.047 -379.883)" fill="#e0e0e0"/>
          </g>
        </g>
      </g>
      <g id="Grupo_13171" data-name="Grupo 13171" transform="translate(21.927 141.697)">
        <g id="Grupo_13170" data-name="Grupo 13170">
          <g id="Grupo_13169" data-name="Grupo 13169">
            <path id="Trazado_14888" data-name="Trazado 14888" d="M164.426,420.935a6.741,6.741,0,0,1,1.233.311l3.31,1.011c2.788.872,6.631,2.106,10.867,3.5s8.064,2.673,10.827,3.622l3.265,1.146a6.863,6.863,0,0,1,1.178.479,6.927,6.927,0,0,1-1.233-.311l-3.31-1.011c-2.788-.872-6.632-2.106-10.869-3.5s-8.062-2.672-10.826-3.622l-3.265-1.146A6.87,6.87,0,0,1,164.426,420.935Z" transform="translate(-164.426 -420.93)" fill="#e0e0e0"/>
          </g>
        </g>
      </g>
      <g id="Grupo_13174" data-name="Grupo 13174" transform="translate(51.941 126.836)">
        <g id="Grupo_13173" data-name="Grupo 13173">
          <g id="Grupo_13172" data-name="Grupo 13172">
            <path id="Trazado_14889" data-name="Trazado 14889" d="M201.239,427.188a7.8,7.8,0,0,1,.956-.971l2.7-2.539c2.276-2.146,5.408-5.122,8.774-8.5s6.341-6.517,8.475-8.8l2.531-2.707a7.96,7.96,0,0,1,.966-.959,7.786,7.786,0,0,1-.835,1.075c-.56.673-1.385,1.635-2.426,2.805-2.076,2.344-5.015,5.523-8.392,8.907s-6.544,6.333-8.877,8.421c-1.17,1.04-2.125,1.874-2.8,2.434A7.9,7.9,0,0,1,201.239,427.188Z" transform="translate(-201.238 -402.703)" fill="#e0e0e0"/>
          </g>
        </g>
      </g>
    </g>
    <g id="Grupo_13176" data-name="Grupo 13176" transform="translate(57.629 40.683)">
      <path id="Trazado_14890" data-name="Trazado 14890" d="M94.83,85.251l-7.957-2.483s-2.084,6.681-9.064,4.634a6.743,6.743,0,0,1-4.953-6.055,7.469,7.469,0,0,1,2.577-6.267c2.044-1.8,5.632-2.9,10.7-.286l5.6-17.94L83.862,54.4,80.584,64.909s-11.924-.59-15.719,11.57c-3.63,11.635,5.962,17.592,10.428,18.986C78.708,96.53,90.6,99.335,94.83,85.251Z" transform="translate(-64.062 -43.217)" fill="#f5f5f5"/>
      <rect id="Rectángulo_3095" data-name="Rectángulo 3095" width="8.364" height="7.812" transform="matrix(-0.955, -0.298, 0.298, -0.955, 28.843, 9.948)" fill="#f5f5f5"/>
    </g>
    <g id="Grupo_13177" data-name="Grupo 13177" transform="translate(110.044 54.733)">
      <path id="Trazado_14891" data-name="Trazado 14891" d="M128.663,65.644l3.186-.84a2.8,2.8,0,0,1,2.062-3.457,2.666,2.666,0,0,1,2.931.987,2.952,2.952,0,0,1,.453,2.64c-.3,1.034-1.276,2.156-3.523,2.344l1.895,7.185,3.15-.832-1.11-4.208a6.364,6.364,0,0,0,2.833-7.178c-1.23-4.659-5.693-4.639-7.481-4.167C131.692,58.48,127.12,60.04,128.663,65.644Z" transform="translate(-128.349 -57.916)" fill="#ebebeb"/>
      <rect id="Rectángulo_3096" data-name="Rectángulo 3096" width="3.307" height="3.089" transform="matrix(0.967, -0.255, 0.255, 0.967, 7.7, 18.07)" fill="#ebebeb"/>
    </g>
    <g id="Grupo_13178" data-name="Grupo 13178" transform="translate(372.688 140.803)">
      <path id="Trazado_14892" data-name="Trazado 14892" d="M451.543,167.66l3.1,1.122a2.8,2.8,0,0,1,3.663-1.668,2.664,2.664,0,0,1,1.847,2.479,2.953,2.953,0,0,1-1.129,2.43c-.84.676-2.276,1.046-4.231-.078l-2.531,6.986,3.063,1.11,1.482-4.091a6.365,6.365,0,0,0,6.415-4.289c1.641-4.531-2.041-7.055-3.78-7.685C458.112,163.492,453.465,162.172,451.543,167.66Z" transform="translate(-450.679 -163.481)" fill="#ebebeb"/>
      <rect id="Rectángulo_3097" data-name="Rectángulo 3097" width="3.307" height="3.089" transform="translate(1.052 16.885) rotate(19.914)" fill="#ebebeb"/>
    </g>
    <g id="Grupo_13179" data-name="Grupo 13179" transform="translate(43.497 162.564)">
      <path id="Trazado_14893" data-name="Trazado 14893" d="M47.973,208.074l6.558-2.526s-2.121-5.505,3.562-7.808a5.686,5.686,0,0,1,6.443,1.407,6.3,6.3,0,0,1,1.579,5.49c-.406,2.263-2.2,4.867-6.92,5.791l5.7,14.785,6.484-2.5-3.337-8.66s8.188-5.854,4.328-15.875c-3.694-9.588-13.15-8.5-16.832-7.084C52.719,192.18,43.393,196.554,47.973,208.074Z" transform="translate(-46.729 -190.171)" fill="#f5f5f5"/>
      <rect id="Rectángulo_3098" data-name="Rectángulo 3098" width="7.052" height="6.586" transform="matrix(0.933, -0.359, 0.359, 0.933, 19.317, 38.095)" fill="#f5f5f5"/>
    </g>
    <g id="Grupo_13180" data-name="Grupo 13180" transform="translate(356.954 186.678)">
      <path id="Trazado_14894" data-name="Trazado 14894" d="M450.589,239.888l-4.647,1.79a4.232,4.232,0,0,1-2.525,5.534,4.029,4.029,0,0,1-4.565-1,4.463,4.463,0,0,1-1.119-3.891c.288-1.6,1.56-3.45,4.9-4.1L438.6,227.742l-4.594,1.77,2.364,6.137A9.615,9.615,0,0,0,433.3,246.9c2.617,6.795,9.319,6.025,11.927,5.021C447.226,251.151,453.835,248.051,450.589,239.888Z" transform="translate(-431.441 -221.223)" fill="#f5f5f5"/>
      <rect id="Rectángulo_3099" data-name="Rectángulo 3099" width="4.997" height="4.667" transform="translate(6.341 4.355) rotate(158.931)" fill="#f5f5f5"/>
    </g>
    <g id="Grupo_13181" data-name="Grupo 13181" transform="translate(29.229 385.425)">
      <path id="Trazado_14895" data-name="Trazado 14895" d="M389.229,463.724c0,.117-80.595.212-179.991.212-99.431,0-180.009-.1-180.009-.212s80.578-.213,180.009-.213C308.634,463.511,389.229,463.606,389.229,463.724Z" transform="translate(-29.229 -463.511)" fill="#263238"/>
    </g>
    <g id="Grupo_13207" data-name="Grupo 13207" transform="translate(49.574 243.91)">
      <g id="Grupo_13184" data-name="Grupo 13184" transform="translate(0 60.283)">
        <g id="Grupo_13183" data-name="Grupo 13183">
          <g id="Grupo_13182" data-name="Grupo 13182">
            <path id="Trazado_14896" data-name="Trazado 14896" d="M85.535,424.149c.774-3-1.193-6.008-3.4-8.183s-4.838-4.125-5.985-7c-1.857-4.66.64-10.694-2.53-14.582-1.865-2.287-5.208-3.053-6.863-5.5a12.492,12.492,0,0,1-1.49-4.367,44.357,44.357,0,0,0-11.031-20.641,38.5,38.5,0,0,0,4.328,19.893c1.284,2.444,2.86,4.828,3.286,7.556.691,4.43-1.781,8.995-.694,13.344,1.245,4.974,6.833,8.3,7.1,13.425.223,4.329-3.55,8.13-3.269,12.456a11.684,11.684,0,0,0,1.927,5.134c3.348,5.565,8.265,9.4,15.719,9.273l9.129.32Z" transform="translate(-54.182 -363.879)" fill="#e8505b"/>
          </g>
        </g>
      </g>
      <g id="Grupo_13188" data-name="Grupo 13188" transform="translate(0 60.283)" opacity="0.3">
        <g id="Grupo_13187" data-name="Grupo 13187">
          <g id="Grupo_13186" data-name="Grupo 13186">
            <g id="Grupo_13185" data-name="Grupo 13185">
              <path id="Trazado_14897" data-name="Trazado 14897" d="M85.535,424.149c.774-3-1.193-6.008-3.4-8.183s-4.838-4.125-5.985-7c-1.857-4.66.64-10.694-2.53-14.582-1.865-2.287-5.208-3.053-6.863-5.5a12.492,12.492,0,0,1-1.49-4.367,44.357,44.357,0,0,0-11.031-20.641,38.5,38.5,0,0,0,4.328,19.893c1.284,2.444,2.86,4.828,3.286,7.556.691,4.43-1.781,8.995-.694,13.344,1.245,4.974,6.833,8.3,7.1,13.425.223,4.329-3.55,8.13-3.269,12.456a11.684,11.684,0,0,0,1.927,5.134c3.348,5.565,8.265,9.4,15.719,9.273l9.129.32Z" transform="translate(-54.182 -363.879)"/>
            </g>
          </g>
        </g>
      </g>
      <g id="Grupo_13206" data-name="Grupo 13206" transform="translate(8.055)">
        <g id="Grupo_13197" data-name="Grupo 13197" transform="translate(26.747 28.922)">
          <g id="Grupo_13192" data-name="Grupo 13192">
            <g id="Grupo_13191" data-name="Grupo 13191">
              <g id="Grupo_13190" data-name="Grupo 13190">
                <g id="Grupo_13189" data-name="Grupo 13189">
                  <path id="Trazado_14898" data-name="Trazado 14898" d="M101.495,438.417a7.293,7.293,0,0,0,2.514-.055,15.237,15.237,0,0,0,2.967-.747,12.575,12.575,0,0,0,3.664-2.007,5.114,5.114,0,0,0,1.507-2.008,9.449,9.449,0,0,0,.43-2.728,26.35,26.35,0,0,1,.214-2.953,8.138,8.138,0,0,1,1.115-2.936c1.076-1.891,2.863-3.681,3.441-6.249.625-2.525.177-5.258-.248-8s-.834-5.724.213-8.576c.979-2.855,2.982-5.433,3.983-8.652,1-3.251.532-6.748.743-10.2a13.526,13.526,0,0,1,1.19-5.07c.739-1.616,1.764-3.14,2.563-4.841,1.62-3.439,1.906-7.337,2.35-11.157q.324-2.887.655-5.834a28.54,28.54,0,0,1,1.014-5.839,51.407,51.407,0,0,1,2.184-5.65,18.737,18.737,0,0,0,1.059-2.951,29.644,29.644,0,0,0,.294-3.14,36.971,36.971,0,0,0-.243-6.32c-.248-2.107-.628-4.2-.854-6.307-.014-.125-.028-.249-.041-.364l-.047-.421-.374.188a14.1,14.1,0,0,0-4.914,4.148,22.36,22.36,0,0,0-3.02,5.565c-1.525,3.923-2.074,8.033-2.843,11.955a32.465,32.465,0,0,1-3.751,11.042c-1,1.626-2.21,3.11-3.269,4.7a12.9,12.9,0,0,0-2.266,5.2c-.54,3.862,1.587,7.254,1.145,10.673a11.846,11.846,0,0,1-1.666,4.739c-.829,1.459-1.8,2.811-2.728,4.17a26.836,26.836,0,0,0-2.45,4.213,13.33,13.33,0,0,0-1.122,4.576c-.223,3.079.214,6-.011,8.757a20.135,20.135,0,0,1-2.253,7.5c-1.1,2.246-2.333,4.277-3.362,6.247A32.186,32.186,0,0,0,97.891,422a14.324,14.324,0,0,0-.8,2.886,18.231,18.231,0,0,0-.067,5.211,13.132,13.132,0,0,0,2.611,6.646,6.368,6.368,0,0,0,.739.8,3.669,3.669,0,0,0,.6.509c.341.251.523.366.523.366a11.535,11.535,0,0,1-1.768-1.748,13.22,13.22,0,0,1-2.479-6.6,18.124,18.124,0,0,1,.117-5.136,14.1,14.1,0,0,1,.807-2.818,31.675,31.675,0,0,1,1.393-2.871c1.037-1.953,2.278-3.976,3.406-6.236a20.5,20.5,0,0,0,2.332-7.635c.24-2.816-.184-5.747.048-8.753a12.9,12.9,0,0,1,1.1-4.423,26.4,26.4,0,0,1,2.423-4.128c.924-1.35,1.909-2.708,2.762-4.2a12.325,12.325,0,0,0,1.742-4.932c.44-3.643-1.671-7.057-1.123-10.647a12.388,12.388,0,0,1,2.188-4.977c1.043-1.556,2.259-3.043,3.29-4.709a32.958,32.958,0,0,0,3.839-11.225c.775-3.947,1.326-8.014,2.823-11.856a21.811,21.811,0,0,1,2.94-5.419,13.521,13.521,0,0,1,4.708-3.976l-.421-.233c.013.116.028.242.042.368.229,2.137.611,4.23.856,6.312a36.451,36.451,0,0,1,.242,6.223,29.673,29.673,0,0,1-.281,3.046,18.323,18.323,0,0,1-1.024,2.846,51.959,51.959,0,0,0-2.2,5.712,29.1,29.1,0,0,0-1.028,5.936q-.327,2.947-.647,5.838c-.436,3.837-.722,7.672-2.283,10.992-.771,1.653-1.794,3.181-2.554,4.85a14.064,14.064,0,0,0-1.224,5.256c-.2,3.523.26,6.967-.693,10.088s-2.938,5.7-3.945,8.643c-1.077,2.977-.631,6.059-.2,8.789.441,2.748.884,5.424.3,7.852-.528,2.452-2.263,4.226-3.362,6.171a8.457,8.457,0,0,0-1.132,3.053,26.314,26.314,0,0,0-.192,2.989,9.271,9.271,0,0,1-.39,2.653,4.9,4.9,0,0,1-1.416,1.922,12.557,12.557,0,0,1-3.576,2.017,15.766,15.766,0,0,1-2.925.793,11.72,11.72,0,0,1-1.856.179C101.713,438.409,101.495,438.417,101.495,438.417Z" transform="translate(-96.868 -325.415)" fill="#263238"/>
                </g>
              </g>
            </g>
          </g>
          <g id="Grupo_13196" data-name="Grupo 13196" transform="translate(4.624 5.448)">
            <g id="Grupo_13195" data-name="Grupo 13195">
              <g id="Grupo_13194" data-name="Grupo 13194">
                <g id="Grupo_13193" data-name="Grupo 13193">
                  <path id="Trazado_14899" data-name="Trazado 14899" d="M131.388,332.1a1.089,1.089,0,0,0-.088.276c-.054.219-.12.489-.2.822-.179.719-.394,1.805-.739,3.161s-1.186,2.882-1.895,4.769c-.736,1.87-1.483,4.039-2.17,6.475s-1.314,5.139-1.959,8.035a33.81,33.81,0,0,1-2.922,8.916c-.748,1.483-1.592,2.984-2.26,4.626a21.54,21.54,0,0,0-1.314,5.239,105.988,105.988,0,0,1-1.968,11.044c-1.831,7.482-3.574,14.607-5.162,21.1-1.627,6.466-3.092,12.293-4.327,17.2-1.2,4.867-2.179,8.822-2.867,11.611q-.476,2.008-.751,3.165c-.073.335-.133.607-.18.826a1.042,1.042,0,0,0-.042.287,1.094,1.094,0,0,0,.1-.272l.237-.813c.208-.762.495-1.81.858-3.137l3.048-11.566c1.27-4.9,2.776-10.719,4.448-17.173,1.6-6.491,3.362-13.618,5.211-21.1a104.626,104.626,0,0,0,1.964-11.091,21.064,21.064,0,0,1,1.265-5.112c.645-1.6,1.475-3.093,2.223-4.592a34.06,34.06,0,0,0,2.915-9.054c.625-2.9,1.216-5.6,1.883-8.029s1.373-4.6,2.077-6.469c.671-1.88,1.472-3.428,1.809-4.826.316-1.39.49-2.465.634-3.2.058-.338.106-.612.144-.834A1.063,1.063,0,0,0,131.388,332.1Z" transform="translate(-102.539 -332.097)" fill="#263238"/>
                </g>
              </g>
            </g>
          </g>
        </g>
        <g id="Grupo_13205" data-name="Grupo 13205">
          <g id="Grupo_13200" data-name="Grupo 13200">
            <g id="Grupo_13199" data-name="Grupo 13199">
              <g id="Grupo_13198" data-name="Grupo 13198">
                <path id="Trazado_14900" data-name="Trazado 14900" d="M97.048,431.893c5.963-3.544,7.675-14.3,5.187-20.779s-6.841-12.392-7.512-19.3c-.516-5.308,1.221-10.755-.015-15.942-1.668-7-8.5-12.424-8.424-19.62.044-4.038,2.342-7.838,2.158-11.871-.224-4.948-4.022-8.874-6.374-13.233-3.6-6.672-3.837-14.559-5.068-22.04s-4.082-15.492-10.713-19.169c-.978,6.351-2.65,10.7-2.126,19.3.189,3.09,3.778,9.005,4.267,15.777.292,4.047.494,8.1.742,12.152.241,3.941.5,7.955,1.909,11.643,1.083,2.826,2.822,5.393,3.626,8.311,1.512,5.489-.475,11.433.747,16.995,1.035,4.711,4.3,8.766,4.961,13.543.936,6.712-3.408,13.686-1.185,20.089,1.1,3.177,3.717,5.729,4.459,9.009.576,2.545-.052,5.24.469,7.8.84,4.12,8.7,7.319,12.894,7.065" transform="translate(-64.062 -289.942)" fill="#e8505b"/>
              </g>
            </g>
          </g>
          <g id="Grupo_13204" data-name="Grupo 13204" transform="translate(3.865 6.305)">
            <g id="Grupo_13203" data-name="Grupo 13203">
              <g id="Grupo_13202" data-name="Grupo 13202">
                <g id="Grupo_13201" data-name="Grupo 13201">
                  <path id="Trazado_14901" data-name="Trazado 14901" d="M68.806,297.675a1.663,1.663,0,0,0,.026.358c.034.267.079.611.135,1.044.137.917.29,2.264.6,4.006.333,1.751,1.235,3.723,1.956,6.1.762,2.369,1.518,5.1,2.188,8.165s1.25,6.446,1.848,10.09c.617,3.618,1.249,7.616,3.057,11.41.837,1.906,1.775,3.814,2.479,5.847a26.257,26.257,0,0,1,1.257,6.444,129.985,129.985,0,0,0,1.75,13.891l5.149,26.531c1.669,8.126,3.172,15.447,4.439,21.61l3.042,14.559c.365,1.686.652,3.01.856,3.953.1.425.177.762.237,1.025a1.633,1.633,0,0,0,.1.345,1.627,1.627,0,0,0-.042-.357c-.046-.265-.105-.607-.18-1.036-.178-.947-.429-2.279-.748-3.975-.682-3.486-1.658-8.461-2.859-14.6-1.23-6.17-2.692-13.5-4.315-21.635-1.569-8.156-3.291-17.117-5.1-26.524a131.754,131.754,0,0,1-1.755-13.846,26.724,26.724,0,0,0-1.3-6.572c-.726-2.077-1.677-3.992-2.514-5.883-1.8-3.738-2.428-7.642-3.071-11.273-.618-3.638-1.213-7.034-1.923-10.1s-1.486-5.808-2.28-8.177c-.757-2.386-1.688-4.34-2.046-6.047-.339-1.71-.533-3.07-.707-3.976-.079-.429-.143-.77-.192-1.035A1.566,1.566,0,0,0,68.806,297.675Z" transform="translate(-68.802 -297.675)" fill="#263238"/>
                </g>
              </g>
            </g>
          </g>
        </g>
      </g>
    </g>
    <g id="Grupo_13215" data-name="Grupo 13215" transform="translate(319.096 51.607)">
      <g id="Grupo_13208" data-name="Grupo 13208" transform="translate(17.784 13.539)">
        <path id="Trazado_14902" data-name="Trazado 14902" d="M418.721,86.463h-3.246a2.759,2.759,0,0,1-2.832,2.775,2.627,2.627,0,0,1-2.544-1.676,2.909,2.909,0,0,1,.232-2.629c.55-.908,1.757-1.733,3.944-1.348V76.267h-3.209v4.287a6.267,6.267,0,0,0-4.5,6.124c0,4.746,4.256,5.848,6.077,5.848C414.036,92.526,418.782,92.189,418.721,86.463Z" transform="translate(-406.565 -71.718)" fill="#e8505b"/>
        <rect id="Rectángulo_3100" data-name="Rectángulo 3100" width="3.257" height="3.042" transform="translate(7.719 3.042) rotate(180)" fill="#e8505b"/>
      </g>
      <g id="Grupo_13214" data-name="Grupo 13214">
        <g id="Grupo_13213" data-name="Grupo 13213">
          <g id="Grupo_13212" data-name="Grupo 13212">
            <g id="Grupo_13211" data-name="Grupo 13211">
              <g id="Grupo_13210" data-name="Grupo 13210">
                <g id="Grupo_13209" data-name="Grupo 13209">
                  <path id="Trazado_14903" data-name="Trazado 14903" d="M432.468,78.023a2.334,2.334,0,0,0,.007-.41c-.008-.3-.02-.7-.034-1.207-.012-.265-.012-.563-.039-.89q-.07-.49-.15-1.065l-.179-1.243q-.161-.653-.344-1.388a22.479,22.479,0,0,0-2.934-6.729,23.741,23.741,0,0,0-17.847-10.906,24.51,24.51,0,0,0-3.254-.066c-.55.038-1.11.028-1.664.108l-1.675.253a23.868,23.868,0,0,0-6.621,2.261,25.484,25.484,0,0,0-5.95,4.324,24.985,24.985,0,0,0-4.476,6.231,22.635,22.635,0,0,0-2.331,7.595,15.083,15.083,0,0,0-.172,2.025,18.227,18.227,0,0,0-.038,2.047,24.26,24.26,0,0,0,.519,4.1,23.971,23.971,0,0,0,3.436,8.165l-.025-.248L385.358,99.3l-.2.492.512-.14,8.891-2.445-.219-.042A23.868,23.868,0,0,0,404.5,101.6a21.619,21.619,0,0,0,5.206.324,16.72,16.72,0,0,0,2.5-.236l1.216-.188c.4-.075.788-.2,1.178-.291a23.788,23.788,0,0,0,13.527-9.279,22.738,22.738,0,0,0,2.913-5.522l.445-1.244q.157-.614.3-1.181t.267-1.08c.067-.347.1-.681.151-.995.08-.629.188-1.181.212-1.665s.029-.884.041-1.222c.007-.31.012-.556.017-.747a1.151,1.151,0,0,0-.009-.253,1.173,1.173,0,0,0-.035.253c-.015.19-.034.435-.059.743q-.033.505-.082,1.215c-.038.48-.159,1.027-.251,1.649A23.652,23.652,0,0,1,414.5,100.794c-.383.091-.764.21-1.158.28l-1.2.179a16.445,16.445,0,0,1-2.455.22,21.192,21.192,0,0,1-5.1-.338,23.431,23.431,0,0,1-9.94-4.377l-.1-.075-.12.033-8.9,2.426.314.352q1.636-4.064,3.348-8.313l.052-.13-.077-.117a23.478,23.478,0,0,1-3.356-7.983,23.834,23.834,0,0,1-.507-4.009,17.816,17.816,0,0,1,.036-2,14.548,14.548,0,0,1,.167-1.98,22.153,22.153,0,0,1,2.271-7.428,24.531,24.531,0,0,1,4.368-6.1,25.042,25.042,0,0,1,5.815-4.247,23.452,23.452,0,0,1,6.479-2.236l1.642-.254c.543-.082,1.092-.072,1.631-.112a23.442,23.442,0,0,1,20.827,10.674,22.624,22.624,0,0,1,2.985,6.62q.192.724.364,1.371l.2,1.23q.094.569.174,1.054c.036.324.044.62.065.883.037.507.066.9.087,1.2A2.24,2.24,0,0,0,432.468,78.023Z" transform="translate(-384.752 -54.081)" fill="#263238"/>
                </g>
              </g>
            </g>
          </g>
        </g>
      </g>
    </g>
    <g id="Grupo_13224" data-name="Grupo 13224" transform="translate(104.161 83.428)">
      <g id="Grupo_13218" data-name="Grupo 13218" transform="translate(0 0)">
        <g id="Grupo_13216" data-name="Grupo 13216" transform="translate(19.503)">
          <path id="Trazado_14904" data-name="Trazado 14904" d="M145.065,181.389h47.088s0-39.536,41.086-40.244c21.339-.367,32.4,13.61,36.9,24.318,5.221,12.435,3.64,26.606-3.353,38.138-7.986,13.167-25.187,26.4-56.92,20.808l-.3,104.907h46.56V267.124s65.3-16.88,65.3-88.844c0-68.855-55.681-83.73-85.605-84.685-16.653-.532-22.689-1.247-43.283,1.676C166.288,99,144.509,129.47,145.065,181.389Z" transform="translate(-145.054 -93.11)" fill="#e8505b"/>
          <rect id="Rectángulo_3101" data-name="Rectángulo 3101" width="47.253" height="44.132" transform="translate(64.376 258.077)" fill="#e8505b"/>
          <rect id="Rectángulo_3102" data-name="Rectángulo 3102" width="47.253" height="44.132" transform="translate(64.376 258.077)" opacity="0.1"/>
          <path id="Trazado_14905" data-name="Trazado 14905" d="M145.065,181.389h47.088s0-39.536,41.086-40.244c21.339-.367,32.4,13.61,36.9,24.318,5.221,12.435,3.64,26.606-3.353,38.138-7.986,13.167-25.187,26.4-56.92,20.808l-.3,104.907h46.56V267.124s65.3-16.88,65.3-88.844c0-68.855-55.681-83.73-85.605-84.685-16.653-.532-22.689-1.247-43.283,1.676C166.288,99,144.509,129.47,145.065,181.389Z" transform="translate(-145.054 -93.11)" opacity="0.1"/>
        </g>
        <g id="Grupo_13217" data-name="Grupo 13217" transform="translate(0 0.323)">
          <path id="Trazado_14906" data-name="Trazado 14906" d="M121.142,181.462H168.23s0-39.536,41.087-40.244c21.338-.367,32.4,13.61,36.9,24.318,5.22,12.435,3.64,26.606-3.354,38.138-7.986,13.167-25.488,25.136-57.221,19.546V329.388H232.2V267.2s65.3-16.88,65.3-88.844c0-68.855-61.747-84.848-88.178-84.847C189.108,93.506,120.254,98.392,121.142,181.462Z" transform="translate(-121.134 -93.506)" fill="#e8505b"/>
          <path id="Trazado_14907" data-name="Trazado 14907" d="M121.142,181.462H168.23s0-39.536,41.087-40.244c21.338-.367,32.4,13.61,36.9,24.318,5.22,12.435,3.64,26.606-3.354,38.138-7.986,13.167-25.488,25.136-57.221,19.546V329.388H232.2V267.2s65.3-16.88,65.3-88.844c0-68.855-61.747-84.848-88.178-84.847C189.108,93.506,120.254,98.392,121.142,181.462Z" transform="translate(-121.134 -93.506)" opacity="0.3"/>
          <rect id="Rectángulo_3103" data-name="Rectángulo 3103" width="47.253" height="44.132" transform="translate(64.374 257.754)" fill="#e8505b"/>
          <rect id="Rectángulo_3104" data-name="Rectángulo 3104" width="47.253" height="44.132" transform="translate(64.374 257.754)" opacity="0.3"/>
        </g>
      </g>
      <g id="Grupo_13219" data-name="Grupo 13219" transform="translate(46.815 47.774)">
        <path id="Trazado_14908" data-name="Trazado 14908" d="M225.238,152.185a4.368,4.368,0,0,1-.7-.043c-.461-.023-1.131-.152-2.007-.162a41.027,41.027,0,0,0-7.384.306,52.906,52.906,0,0,0-10.659,2.507,45.5,45.5,0,0,0-5.939,2.554,31.576,31.576,0,0,0-5.808,3.762,28.8,28.8,0,0,0-4.753,5.022,46.462,46.462,0,0,0-7.78,15.5,40.773,40.773,0,0,0-1.416,7.252c-.1.869-.126,1.547-.15,2.007a4.435,4.435,0,0,1-.064.7,4.33,4.33,0,0,1-.022-.7c0-.462,0-1.145.072-2.02a37.74,37.74,0,0,1,1.291-7.318,46.757,46.757,0,0,1,4.165-10.208,47.619,47.619,0,0,1,3.574-5.459,28.931,28.931,0,0,1,4.814-5.1,31.644,31.644,0,0,1,5.887-3.8,45.017,45.017,0,0,1,6-2.554,51.529,51.529,0,0,1,10.751-2.436,38.1,38.1,0,0,1,7.43-.173c.878.036,1.549.192,2.007.243A4.364,4.364,0,0,1,225.238,152.185Z" transform="translate(-178.552 -151.705)" fill="#263238"/>
      </g>
      <g id="Grupo_13220" data-name="Grupo 13220" transform="translate(84.952 0.338)">
        <path id="Trazado_14909" data-name="Trazado 14909" d="M304.823,133.034a1,1,0,0,1-.153-.185l-.413-.567-1.549-2.2c-.34-.475-.694-1.019-1.122-1.585l-1.47-1.784-1.686-2.051c-.613-.712-1.328-1.4-2.042-2.165-.731-.744-1.457-1.564-2.285-2.345l-2.633-2.38c-.459-.407-.907-.841-1.4-1.244l-1.517-1.194c-1.035-.8-2.063-1.667-3.184-2.469a101.929,101.929,0,0,0-15.428-9.112l-4.3-1.943-4.269-1.657c-1.388-.576-2.807-.985-4.178-1.438-1.38-.427-2.707-.923-4.051-1.238l-3.9-1.024c-1.264-.335-2.52-.533-3.719-.795-1.206-.225-2.356-.525-3.487-.665l-3.243-.469c-2.06-.353-3.951-.424-5.6-.59-.827-.064-1.595-.153-2.3-.186l-1.942-.052-2.69-.086-.7-.033a.994.994,0,0,1-.239-.026,1.014,1.014,0,0,1,.238-.018l.7-.008,2.694.007,1.948.015c.711.021,1.481.1,2.311.152,1.655.144,3.554.194,5.622.528l3.256.444c1.137.133,2.292.426,3.5.644,1.2.254,2.466.447,3.736.776l3.918,1.011c1.351.311,2.686.8,4.071,1.229,1.378.451,2.8.859,4.2,1.433l4.288,1.658,4.316,1.949A100.117,100.117,0,0,1,285.6,112.55c1.123.81,2.152,1.689,3.187,2.494l1.517,1.208c.488.407.937.846,1.4,1.257l2.628,2.408c.825.791,1.547,1.62,2.275,2.373.709.77,1.419,1.473,2.027,2.194l1.667,2.08,1.447,1.811c.42.575.766,1.128,1.095,1.612l1.487,2.248.377.589A1.065,1.065,0,0,1,304.823,133.034Z" transform="translate(-225.328 -93.525)" fill="#263238"/>
      </g>
      <g id="Grupo_13221" data-name="Grupo 13221" transform="translate(111.257 140.943)">
        <path id="Trazado_14910" data-name="Trazado 14910" d="M305.875,265.978a3.248,3.248,0,0,1-.356.488l-1.086,1.351c-.47.588-1.058,1.3-1.777,2.089s-1.5,1.724-2.451,2.682c-.929.976-1.952,2.039-3.106,3.124-1.124,1.119-2.4,2.233-3.723,3.422a101.982,101.982,0,0,1-19.045,13.131c-1.583.817-3.079,1.611-4.523,2.263-1.424.693-2.782,1.271-4.024,1.792-1.232.545-2.381.952-3.379,1.337s-1.867.688-2.584.918l-1.649.535a3.286,3.286,0,0,1-.583.159,3.205,3.205,0,0,1,.556-.24l1.62-.61c.707-.254,1.569-.573,2.554-.984s2.125-.831,3.345-1.392c1.231-.536,2.577-1.129,3.99-1.834,1.432-.663,2.916-1.467,4.488-2.289,3.111-1.707,6.461-3.715,9.842-6.03,3.364-2.336,6.431-4.752,9.133-7.053,1.327-1.176,2.606-2.277,3.736-3.38,1.161-1.071,2.192-2.117,3.132-3.077.959-.941,1.761-1.854,2.491-2.633s1.34-1.466,1.829-2.037l1.146-1.3A3.223,3.223,0,0,1,305.875,265.978Z" transform="translate(-257.591 -265.978)" fill="#263238"/>
      </g>
      <g id="Grupo_13222" data-name="Grupo 13222" transform="translate(110.028 174.01)">
        <path id="Trazado_14911" data-name="Trazado 14911" d="M256.3,365.033c-.117,0-.213-13.1-.213-29.248s.1-29.251.213-29.251.212,13.094.212,29.251S256.414,365.033,256.3,365.033Z" transform="translate(-256.084 -306.534)" fill="#263238"/>
      </g>
      <g id="Grupo_13223" data-name="Grupo 13223" transform="translate(111.825 258.166)">
        <path id="Trazado_14912" data-name="Trazado 14912" d="M258.5,450.8c-.117,0-.213-9.19-.213-20.524s.1-20.527.213-20.527.212,9.188.212,20.527S258.616,450.8,258.5,450.8Z" transform="translate(-258.287 -409.752)" fill="#263238"/>
      </g>
    </g>
    <g id="Grupo_13439" data-name="Grupo 13439" transform="translate(258.77 66.2)">
      <g id="Grupo_13241" data-name="Grupo 13241" transform="translate(0 52.194)">
        <path id="Trazado_14913" data-name="Trazado 14913" d="M315.368,191.768c-.823,1.641,2.224,2.965,3.982,3.5a22.229,22.229,0,0,0,12.527-1.189,11.22,11.22,0,0,0,4.255-4.773,33.443,33.443,0,0,0,2.161-6.105S319.03,184.459,315.368,191.768Z" transform="translate(-311.588 -144.713)" fill="#e8505b"/>
        <g id="Grupo_13225" data-name="Grupo 13225" transform="translate(3.642 38.485)" opacity="0.4">
          <path id="Trazado_14914" data-name="Trazado 14914" d="M315.368,191.768c-.823,1.641,2.224,2.965,3.982,3.5a22.229,22.229,0,0,0,12.527-1.189,11.22,11.22,0,0,0,4.255-4.773,33.443,33.443,0,0,0,2.161-6.105S319.03,184.459,315.368,191.768Z" transform="translate(-315.23 -183.198)"/>
        </g>
        <g id="Grupo_13227" data-name="Grupo 13227" transform="translate(56.942 36.171)">
          <path id="Trazado_14915" data-name="Trazado 14915" d="M381.859,186.023a18.472,18.472,0,0,0,10.873,3.414,7.71,7.71,0,0,0,5.177-1.628c.629-.575,1.1-1.309,1.745-1.862.439-.375.954-.66,1.367-1.064a1.75,1.75,0,0,0,.6-1.547,3.227,3.227,0,0,0-1.126-1.8c-2.213-1.256-4.852-1.21-7.4-1.152a25.358,25.358,0,0,0-7.46,1.463c-1.972.664-4.039,1.6-5.039,3.424" transform="translate(-380.602 -180.36)" fill="#e8505b"/>
          <g id="Grupo_13226" data-name="Grupo 13226" transform="translate(0 0.011)" opacity="0.4">
            <path id="Trazado_14916" data-name="Trazado 14916" d="M401.622,183.338a3.415,3.415,0,0,0-1.446-1.638c-2.212-1.256-4.532-1.372-7.075-1.314a25.357,25.357,0,0,0-7.459,1.463c-1.972.664-4.039,1.6-5.039,3.424l1.257.753a18.472,18.472,0,0,0,10.873,3.414,7.71,7.71,0,0,0,5.177-1.628c.629-.575,1.1-1.309,1.745-1.862.439-.375.954-.66,1.367-1.064A1.75,1.75,0,0,0,401.622,183.338Z" transform="translate(-380.602 -180.374)"/>
          </g>
        </g>
        <path id="Trazado_14917" data-name="Trazado 14917" d="M331.356,207.1,372,207.63a.523.523,0,0,0,.5-.682l-4.767-14.872s.7-7.431,1.673-16.374c1.474-13.57,3.434-30.634,3.459-30.588-2.776-7.79-19.18-9.119-19.18-9.119l-18.7,1.111-.658-1.1-5.38,2.5a24.871,24.871,0,0,0-3.375,1.9c-3.55,2.379-12.117,7.827-13.678,13.908-3.609,14.058,2.5,29.754,2.5,29.754l3.924-3.068a27.548,27.548,0,0,1,3.115-2.082l7.877,21.1a3.722,3.722,0,0,0-1.709,2.709,4.194,4.194,0,0,0,3.741,4.357" transform="translate(-310.763 -135.996)" fill="#e8505b"/>
        <g id="Grupo_13228" data-name="Grupo 13228" transform="translate(32.714 25.149)" opacity="0.3">
          <path id="Trazado_14918" data-name="Trazado 14918" d="M356.189,187.909c1.289-6.928.607-14.053-.078-21.067-2.257,5.738-2.174,12.205-4.563,17.89a7.649,7.649,0,0,0-.636,1.883,2.1,2.1,0,0,0,.543,1.839c.649.594,1.617.274,2.49.169a9.513,9.513,0,0,0,2.244-.713" transform="translate(-350.887 -166.842)"/>
        </g>
        <g id="Grupo_13229" data-name="Grupo 13229" transform="translate(22.498 57.1)" opacity="0.4">
          <path id="Trazado_14919" data-name="Trazado 14919" d="M338.9,211.187c3.282,1.137,6.732-.973,10.185-1.348a25.682,25.682,0,0,1,6.83.643,51.063,51.063,0,0,0,13.861.34,5.3,5.3,0,0,0,2.039-.527,2.46,2.46,0,0,0,1.066-2.024c-7.675-.788-15.353-1.257-23.028-2.045a14.474,14.474,0,0,0-5.757.183c-2.32.719-4.108,2.541-5.744,4.338" transform="translate(-338.357 -206.03)"/>
        </g>
        <path id="Trazado_14920" data-name="Trazado 14920" d="M399.489,174.339c-3.323-7.471-15.022-28.149-15.022-28.149L375.4,157.551l2.115,22.3s4.784-5.341,18.163-5.448a6.558,6.558,0,0,1,4.979,2.622Z" transform="translate(-322.7 -137.879)" fill="#e8505b"/>
        <g id="Grupo_13230" data-name="Grupo 13230" transform="translate(19.733 22.649)">
          <path id="Trazado_14921" data-name="Trazado 14921" d="M337.625,173.64a30.84,30.84,0,0,1-1.527-4.876,30.859,30.859,0,0,1-1.117-4.987,30.864,30.864,0,0,1,1.527,4.877A31.028,31.028,0,0,1,337.625,173.64Z" transform="translate(-334.965 -163.776)" fill="#263238"/>
        </g>
        <g id="Grupo_13231" data-name="Grupo 13231" transform="translate(52.018 18.158)">
          <path id="Trazado_14922" data-name="Trazado 14922" d="M374.565,158.269a5.5,5.5,0,0,1,.838.713,22.946,22.946,0,0,1,2.019,2.218,21.4,21.4,0,0,1,4.326,8.854,16.551,16.551,0,0,1,.26,5.462c-.21,1.668-.53,3.135-.735,4.377s-.342,2.249-.408,2.948a7.283,7.283,0,0,1-.113,1.09,4.361,4.361,0,0,1-.051-1.1,25.831,25.831,0,0,1,.276-2.986c.167-1.252.457-2.732.642-4.377a16.777,16.777,0,0,0-.286-5.327,22.414,22.414,0,0,0-4.148-8.757C375.678,159.375,374.5,158.331,374.565,158.269Z" transform="translate(-374.563 -158.267)" fill="#263238"/>
        </g>
        <g id="Grupo_13232" data-name="Grupo 13232" transform="translate(22.423 62.71)">
          <path id="Trazado_14923" data-name="Trazado 14923" d="M359.564,219.525a3.794,3.794,0,0,1-.885.258,8.492,8.492,0,0,1-1.062.205,14.284,14.284,0,0,1-1.423.174,21.068,21.068,0,0,1-3.733-.021,22.171,22.171,0,0,1-8.692-2.7,21.008,21.008,0,0,1-3.088-2.1,14.2,14.2,0,0,1-1.075-.948,8.5,8.5,0,0,1-.757-.77,3.809,3.809,0,0,1-.584-.713c.061-.059.936.921,2.6,2.2a23.45,23.45,0,0,0,3.09,1.989,23.434,23.434,0,0,0,8.545,2.653,23.438,23.438,0,0,0,3.673.11C358.27,219.753,359.546,219.442,359.564,219.525Z" transform="translate(-338.264 -212.91)" fill="#263238"/>
        </g>
        <g id="Grupo_13233" data-name="Grupo 13233" transform="translate(53.695 64.675)">
          <path id="Trazado_14924" data-name="Trazado 14924" d="M379.2,215.32a2.879,2.879,0,0,1,.314,1.19,7.345,7.345,0,0,1-.219,2.971,5.181,5.181,0,0,1-1.6,2.525,2.251,2.251,0,0,1-1.075.612c-.036-.061.36-.31.87-.832a5.777,5.777,0,0,0,1.4-2.427A15.848,15.848,0,0,0,379.2,215.32Z" transform="translate(-376.619 -215.32)" fill="#263238"/>
        </g>
        <g id="Grupo_13234" data-name="Grupo 13234" transform="translate(52.311 67.547)">
          <path id="Trazado_14925" data-name="Trazado 14925" d="M376.675,218.843a4.431,4.431,0,0,1-1.746,4.5c-.091-.089.671-.9,1.143-2.145C376.563,219.96,376.549,218.848,376.675,218.843Z" transform="translate(-374.922 -218.843)" fill="#263238"/>
        </g>
        <g id="Grupo_13235" data-name="Grupo 13235" transform="translate(43.893 40.713)">
          <path id="Trazado_14926" data-name="Trazado 14926" d="M367.491,185.937a16.489,16.489,0,0,1-1.45,2.087,16.579,16.579,0,0,1-1.425,2.1,7.567,7.567,0,0,1,2.876-4.191Z" transform="translate(-364.598 -185.93)" fill="#263238"/>
        </g>
        <g id="Grupo_13236" data-name="Grupo 13236" transform="translate(5.315 15.834)">
          <path id="Trazado_14927" data-name="Trazado 14927" d="M330.858,160.557a20.548,20.548,0,0,1-1.8-1.194,23.213,23.213,0,0,0-9.629-3.595,20.6,20.6,0,0,1-2.144-.279,7.52,7.52,0,0,1,2.178-.02,19.5,19.5,0,0,1,9.766,3.646A7.552,7.552,0,0,1,330.858,160.557Z" transform="translate(-317.282 -155.416)" fill="#263238"/>
        </g>
        <g id="Grupo_13237" data-name="Grupo 13237" transform="translate(54.548 8.036)">
          <path id="Trazado_14928" data-name="Trazado 14928" d="M384.889,145.857a35.394,35.394,0,0,0-4.12,3.855,35.38,35.38,0,0,0-3.1,4.717,5.029,5.029,0,0,1,.568-1.582,16.161,16.161,0,0,1,5.185-6.16A5.037,5.037,0,0,1,384.889,145.857Z" transform="translate(-377.666 -145.853)" fill="#263238"/>
        </g>
        <g id="Grupo_13238" data-name="Grupo 13238" transform="translate(21.413 1.322)">
          <path id="Trazado_14929" data-name="Trazado 14929" d="M360.6,137.618a1.55,1.55,0,0,1,.183.377,7.01,7.01,0,0,1,.38,1.144,9.671,9.671,0,0,1-.016,4.415,10.852,10.852,0,0,1-3.326,5.619,11.276,11.276,0,0,1-7.5,2.672,12.694,12.694,0,0,1-7.574-2.532,14.485,14.485,0,0,1-4.168-5.052,15.406,15.406,0,0,1-1.388-4.2,11.178,11.178,0,0,1-.146-1.192,1.55,1.55,0,0,1-.008-.419c.043,0,.093.569.316,1.579a16.706,16.706,0,0,0,1.493,4.09A14.51,14.51,0,0,0,342.979,149a12.449,12.449,0,0,0,7.343,2.421,10.99,10.99,0,0,0,7.242-2.541,10.711,10.711,0,0,0,3.291-5.4,10,10,0,0,0,.146-4.31C360.8,138.162,360.549,137.637,360.6,137.618Z" transform="translate(-337.026 -137.618)" fill="#263238"/>
        </g>
        <g id="Grupo_13239" data-name="Grupo 13239" transform="translate(43.911 40.989)" opacity="0.3">
          <path id="Trazado_14930" data-name="Trazado 14930" d="M368.547,187.445c-.012-.408-.065-.887-.419-1.091a.8.8,0,0,0-.739.012,2.076,2.076,0,0,0-.59.488,9.973,9.973,0,0,0-2.179,3.481l4-.345C368.591,189.147,368.573,188.288,368.547,187.445Z" transform="translate(-364.62 -186.269)"/>
        </g>
        <g id="Grupo_13240" data-name="Grupo 13240" transform="translate(58.208 27.564)" opacity="0.3">
          <path id="Trazado_14931" data-name="Trazado 14931" d="M385.052,176a13.082,13.082,0,0,0-2.9-6.193,20.429,20.429,0,0,1,.177,12.691l.209-.541C383.651,179.7,385.358,178.282,385.052,176Z" transform="translate(-382.155 -169.803)"/>
        </g>
      </g>
      <g id="Grupo_13261" data-name="Grupo 13261" transform="translate(32.28 273.845)">
        <g id="Grupo_13242" data-name="Grupo 13242">
          <path id="Trazado_14932" data-name="Trazado 14932" d="M371.2,409.489l-2.439,36.57-15.9-.187-2.5-38.02Z" transform="translate(-350.355 -407.852)" fill="#ffbe9d"/>
        </g>
        <g id="Grupo_13260" data-name="Grupo 13260" transform="translate(1.374 33.014)">
          <g id="Grupo_13259" data-name="Grupo 13259">
            <g id="Grupo_13244" data-name="Grupo 13244">
              <g id="Grupo_13243" data-name="Grupo 13243">
                <path id="Trazado_14933" data-name="Trazado 14933" d="M369.523,448.723l0,1.057s17.922,7.213,18.11,10.615l-35.6-.209.554-11.843A20.362,20.362,0,0,0,369.523,448.723Z" transform="translate(-352.04 -448.344)" fill="#e8505b"/>
              </g>
            </g>
            <g id="Grupo_13247" data-name="Grupo 13247" transform="translate(3.092 3.75)">
              <g id="Grupo_13246" data-name="Grupo 13246">
                <g id="Grupo_13245" data-name="Grupo 13245">
                  <path id="Trazado_14934" data-name="Trazado 14934" d="M356.876,453a1.454,1.454,0,0,0-1.014,1.653,1.4,1.4,0,0,0,1.629,1.02,1.533,1.533,0,0,0,1.066-1.756,1.449,1.449,0,0,0-1.812-.873" transform="translate(-355.832 -452.944)" fill="#fff"/>
                </g>
              </g>
            </g>
            <g id="Grupo_13249" data-name="Grupo 13249" transform="translate(0 8.995)">
              <g id="Grupo_13248" data-name="Grupo 13248">
                <path id="Trazado_14935" data-name="Trazado 14935" d="M352.04,462.224l.133-2.848,34.068,1.243s1.581.7,1.4,1.814Z" transform="translate(-352.04 -459.376)" fill="#263238"/>
              </g>
            </g>
            <g id="Grupo_13252" data-name="Grupo 13252" transform="translate(14.355 1.373)">
              <g id="Grupo_13251" data-name="Grupo 13251">
                <g id="Grupo_13250" data-name="Grupo 13250">
                  <path id="Trazado_14936" data-name="Trazado 14936" d="M372.9,450.192c-.007.174-.876.248-1.735.8-.872.532-1.318,1.282-1.477,1.212-.16-.034.105-1.072,1.156-1.724S372.941,450.033,372.9,450.192Z" transform="translate(-369.646 -450.028)" fill="#263238"/>
                </g>
              </g>
            </g>
            <g id="Grupo_13255" data-name="Grupo 13255" transform="translate(18.962 3.032)">
              <g id="Grupo_13254" data-name="Grupo 13254">
                <g id="Grupo_13253" data-name="Grupo 13253">
                  <path id="Trazado_14937" data-name="Trazado 14937" d="M377.669,452.134c.039.169-.715.46-1.31,1.192-.616.713-.77,1.508-.943,1.5-.164.026-.278-.992.479-1.888S377.667,451.968,377.669,452.134Z" transform="translate(-375.296 -452.062)" fill="#263238"/>
                </g>
              </g>
            </g>
            <g id="Grupo_13258" data-name="Grupo 13258" transform="translate(23.224 4.592)">
              <g id="Grupo_13257" data-name="Grupo 13257">
                <g id="Grupo_13256" data-name="Grupo 13256">
                  <path id="Trazado_14938" data-name="Trazado 14938" d="M380.73,456.968c-.158.036-.395-.834.057-1.783s1.267-1.323,1.34-1.178c.1.143-.433.651-.793,1.436C380.956,456.219,380.9,456.952,380.73,456.968Z" transform="translate(-380.525 -453.977)" fill="#263238"/>
                </g>
              </g>
            </g>
          </g>
        </g>
      </g>
      <g id="Grupo_13368" data-name="Grupo 13368" transform="translate(8.485)">
        <path id="Trazado_14939" data-name="Trazado 14939" d="M364.26,80.03a5.776,5.776,0,0,0-2.179-6.511,9.464,9.464,0,0,0-7.063-1.389,28.11,28.11,0,0,0-6.964,2.406,7.862,7.862,0,0,0-13.345,4.358,5,5,0,0,0-5.92,6.563l11.021,3.871L351.844,110.5a9.629,9.629,0,0,0,14.169-12.8,8.262,8.262,0,0,0,1.691-2.091A8.436,8.436,0,0,0,371.6,90.39,8.906,8.906,0,0,0,364.26,80.03Z" transform="translate(-322.523 -71.979)" fill="#263238"/>
        <g id="Grupo_13362" data-name="Grupo 13362" transform="translate(0 5.738)">
          <g id="Grupo_13339" data-name="Grupo 13339" transform="translate(7.239)">
            <g id="Grupo_13338" data-name="Grupo 13338">
              <g id="Grupo_13336" data-name="Grupo 13336" transform="translate(0 2.092)">
                <g id="Grupo_13335" data-name="Grupo 13335">
                  <g id="Grupo_13334" data-name="Grupo 13334">
                    <g id="Grupo_13333" data-name="Grupo 13333">
                      <g id="Grupo_13318" data-name="Grupo 13318">
                        <g id="Grupo_13317" data-name="Grupo 13317">
                          <g id="Grupo_13316" data-name="Grupo 13316">
                            <g id="Grupo_13268" data-name="Grupo 13268">
                              <g id="Grupo_13267" data-name="Grupo 13267">
                                <g id="Grupo_13266" data-name="Grupo 13266">
                                  <g id="Grupo_13265" data-name="Grupo 13265">
                                    <g id="Grupo_13264" data-name="Grupo 13264">
                                      <g id="Grupo_13263" data-name="Grupo 13263">
                                        <g id="Grupo_13262" data-name="Grupo 13262">
                                          <path id="Trazado_14940" data-name="Trazado 14940" d="M357.251,125.947c-.684-3.446-1.161-5.807-1.154-5.782,0,0,6.5-2.531,6.051-11.607-.223-4.514-1.945-11.631-3.542-17.408-1.437-5.2-6.285-10.934-11.42-9.276l-15.526,7.583c-1.56.5-1.833,1.968-1.465,3.565l.025.779,6.042,25,2.552,11.172a9.438,9.438,0,0,0,10.535,7.159h0A9.438,9.438,0,0,0,357.251,125.947Z" transform="translate(-330.048 -81.583)" fill="#ffbe9d"/>
                                        </g>
                                      </g>
                                    </g>
                                  </g>
                                </g>
                              </g>
                            </g>
                            <g id="Grupo_13284" data-name="Grupo 13284" transform="translate(23.316 13.079)">
                              <g id="Grupo_13275" data-name="Grupo 13275" transform="translate(2.885 1.713)">
                                <g id="Grupo_13274" data-name="Grupo 13274">
                                  <g id="Grupo_13273" data-name="Grupo 13273">
                                    <g id="Grupo_13272" data-name="Grupo 13272">
                                      <g id="Grupo_13271" data-name="Grupo 13271">
                                        <g id="Grupo_13270" data-name="Grupo 13270">
                                          <g id="Grupo_13269" data-name="Grupo 13269">
                                            <path id="Trazado_14941" data-name="Trazado 14941" d="M364.438,100.539a1.15,1.15,0,0,1-.848,1.364,1.1,1.1,0,0,1-1.375-.771,1.153,1.153,0,0,1,.846-1.366A1.1,1.1,0,0,1,364.438,100.539Z" transform="translate(-362.184 -99.725)" fill="#263238"/>
                                          </g>
                                        </g>
                                      </g>
                                    </g>
                                  </g>
                                </g>
                              </g>
                              <g id="Grupo_13283" data-name="Grupo 13283">
                                <g id="Grupo_13282" data-name="Grupo 13282">
                                  <g id="Grupo_13281" data-name="Grupo 13281">
                                    <g id="Grupo_13280" data-name="Grupo 13280">
                                      <g id="Grupo_13279" data-name="Grupo 13279">
                                        <g id="Grupo_13278" data-name="Grupo 13278">
                                          <g id="Grupo_13277" data-name="Grupo 13277">
                                            <g id="Grupo_13276" data-name="Grupo 13276">
                                              <path id="Trazado_14942" data-name="Trazado 14942" d="M363.115,98.415c-.109.176-1.1-.276-2.307-.019-1.214.24-1.973,1.05-2.135.929-.078-.052.008-.347.337-.711a3.155,3.155,0,0,1,1.671-.925,3.033,3.033,0,0,1,1.874.2C362.988,98.1,363.169,98.335,363.115,98.415Z" transform="translate(-358.646 -97.625)" fill="#263238"/>
                                            </g>
                                          </g>
                                        </g>
                                      </g>
                                    </g>
                                  </g>
                                </g>
                              </g>
                            </g>
                            <g id="Grupo_13300" data-name="Grupo 13300" transform="translate(11.593 15.954)">
                              <g id="Grupo_13291" data-name="Grupo 13291" transform="translate(2.81 1.543)">
                                <g id="Grupo_13290" data-name="Grupo 13290">
                                  <g id="Grupo_13289" data-name="Grupo 13289">
                                    <g id="Grupo_13288" data-name="Grupo 13288">
                                      <g id="Grupo_13287" data-name="Grupo 13287">
                                        <g id="Grupo_13286" data-name="Grupo 13286">
                                          <g id="Grupo_13285" data-name="Grupo 13285">
                                            <path id="Trazado_14943" data-name="Trazado 14943" d="M349.968,103.856a1.151,1.151,0,0,1-.848,1.365,1.1,1.1,0,0,1-1.374-.772,1.151,1.151,0,0,1,.846-1.365A1.1,1.1,0,0,1,349.968,103.856Z" transform="translate(-347.715 -103.043)" fill="#263238"/>
                                          </g>
                                        </g>
                                      </g>
                                    </g>
                                  </g>
                                </g>
                              </g>
                              <g id="Grupo_13299" data-name="Grupo 13299">
                                <g id="Grupo_13298" data-name="Grupo 13298">
                                  <g id="Grupo_13297" data-name="Grupo 13297">
                                    <g id="Grupo_13296" data-name="Grupo 13296">
                                      <g id="Grupo_13295" data-name="Grupo 13295">
                                        <g id="Grupo_13294" data-name="Grupo 13294">
                                          <g id="Grupo_13293" data-name="Grupo 13293">
                                            <g id="Grupo_13292" data-name="Grupo 13292">
                                              <path id="Trazado_14944" data-name="Trazado 14944" d="M348.737,101.94c-.109.176-1.1-.276-2.307-.019-1.214.24-1.973,1.05-2.135.929-.078-.052.007-.347.337-.71a3.156,3.156,0,0,1,1.671-.926,3.041,3.041,0,0,1,1.874.2C348.609,101.62,348.791,101.86,348.737,101.94Z" transform="translate(-344.268 -101.15)" fill="#263238"/>
                                            </g>
                                          </g>
                                        </g>
                                      </g>
                                    </g>
                                  </g>
                                </g>
                              </g>
                            </g>
                            <g id="Grupo_13308" data-name="Grupo 13308" transform="translate(19.522 14.427)">
                              <g id="Grupo_13307" data-name="Grupo 13307">
                                <g id="Grupo_13306" data-name="Grupo 13306">
                                  <g id="Grupo_13305" data-name="Grupo 13305">
                                    <g id="Grupo_13304" data-name="Grupo 13304">
                                      <g id="Grupo_13303" data-name="Grupo 13303">
                                        <g id="Grupo_13302" data-name="Grupo 13302">
                                          <g id="Grupo_13301" data-name="Grupo 13301">
                                            <path id="Trazado_14945" data-name="Trazado 14945" d="M356.672,109.263a8.189,8.189,0,0,1,1.895-.769c.3-.1.583-.219.59-.442a1.606,1.606,0,0,0-.4-.874l-1.41-2.165A41.3,41.3,0,0,1,354,99.28a41.487,41.487,0,0,1,3.8,5.45q.719,1.146,1.375,2.188a1.828,1.828,0,0,1,.415,1.181.8.8,0,0,1-.414.559,2.154,2.154,0,0,1-.51.183A8.086,8.086,0,0,1,356.672,109.263Z" transform="translate(-353.992 -99.278)" fill="#263238"/>
                                          </g>
                                        </g>
                                      </g>
                                    </g>
                                  </g>
                                </g>
                              </g>
                            </g>
                            <g id="Grupo_13315" data-name="Grupo 13315" transform="translate(13.626 37.912)">
                              <g id="Grupo_13314" data-name="Grupo 13314">
                                <g id="Grupo_13313" data-name="Grupo 13313">
                                  <g id="Grupo_13312" data-name="Grupo 13312">
                                    <g id="Grupo_13311" data-name="Grupo 13311">
                                      <g id="Grupo_13310" data-name="Grupo 13310">
                                        <g id="Grupo_13309" data-name="Grupo 13309">
                                          <path id="Trazado_14946" data-name="Trazado 14946" d="M359.183,128.752a22.831,22.831,0,0,1-12.422-.67s4.268,5.577,12.888,2.911Z" transform="translate(-346.761 -128.082)" fill="#eb996e"/>
                                        </g>
                                      </g>
                                    </g>
                                  </g>
                                </g>
                              </g>
                            </g>
                          </g>
                        </g>
                      </g>
                      <g id="Grupo_13325" data-name="Grupo 13325" transform="translate(10.745 14.344)">
                        <g id="Grupo_13324" data-name="Grupo 13324">
                          <g id="Grupo_13323" data-name="Grupo 13323">
                            <g id="Grupo_13322" data-name="Grupo 13322">
                              <g id="Grupo_13321" data-name="Grupo 13321">
                                <g id="Grupo_13320" data-name="Grupo 13320">
                                  <g id="Grupo_13319" data-name="Grupo 13319">
                                    <path id="Trazado_14947" data-name="Trazado 14947" d="M348.774,99.847c-.08.349-1.327.341-2.748.69-1.428.321-2.541.885-2.768.609-.1-.133.061-.472.492-.853a4.926,4.926,0,0,1,4.2-.99C348.508,99.452,348.807,99.682,348.774,99.847Z" transform="translate(-343.228 -99.176)" fill="#263238"/>
                                  </g>
                                </g>
                              </g>
                            </g>
                          </g>
                        </g>
                      </g>
                      <g id="Grupo_13332" data-name="Grupo 13332" transform="translate(22.39 9.188)">
                        <g id="Grupo_13331" data-name="Grupo 13331">
                          <g id="Grupo_13330" data-name="Grupo 13330">
                            <g id="Grupo_13329" data-name="Grupo 13329">
                              <g id="Grupo_13328" data-name="Grupo 13328">
                                <g id="Grupo_13327" data-name="Grupo 13327">
                                  <g id="Grupo_13326" data-name="Grupo 13326">
                                    <path id="Trazado_14948" data-name="Trazado 14948" d="M362.444,93.678c-.194.328-1.242.249-2.433.486-1.2.2-2.155.645-2.448.405-.13-.118-.03-.427.355-.78a3.9,3.9,0,0,1,1.879-.865,3.856,3.856,0,0,1,2.053.147C362.33,93.266,362.527,93.521,362.444,93.678Z" transform="translate(-357.51 -92.852)" fill="#263238"/>
                                  </g>
                                </g>
                              </g>
                            </g>
                          </g>
                        </g>
                      </g>
                    </g>
                  </g>
                </g>
              </g>
              <g id="Grupo_13337" data-name="Grupo 13337" transform="translate(4.958)">
                <path id="Trazado_14949" data-name="Trazado 14949" d="M336.6,83.143a6.141,6.141,0,0,0,8.326,4.466c1.291-.524,2.622-1.508,3.933-1.034,1.378.5,1.811,2.331,3.09,3.047,1.828,1.023,4.03-.749,6.118-.574,1.612.135,2.862,1.39,4.124,2.4s3.015,1.86,4.44,1.093a18.188,18.188,0,0,0-1.443-3.927,6.118,6.118,0,0,0-2.987-2.824,22.945,22.945,0,0,1-2.177-.727c-1.472-.757-2.131-2.467-3.2-3.727a6.731,6.731,0,0,0-5.711-2.289c-1.765.182-3.439,1.071-5.212.995-1.311-.055-2.567-.638-3.879-.616-2.554.043-4.474,2.28-5.891,4.407" transform="translate(-336.129 -79.017)" fill="#263238"/>
              </g>
            </g>
          </g>
          <path id="Trazado_14950" data-name="Trazado 14950" d="M342.43,85.574c-1.168-.087-3.569-.333-4.359-1.166a6.879,6.879,0,0,0-6.557-2.151,5.676,5.676,0,0,0-4.092,5.432,8.16,8.16,0,0,0-5.952,5.847,9.461,9.461,0,0,0,2.037,8.565,16.949,16.949,0,0,1,1.338,1.938,13.859,13.859,0,0,0-1.451,2.2c-1.863,4.125,3.194,5.7,3.194,5.7.014,2.773,2.569,2.76,4.209,2.752,1.577-.007,2.547,4.364,3.823,4.194l-1.3-13.5a1.687,1.687,0,0,0,.6.108c3.092.055,2.285-5.792,1.283-7.3a17.517,17.517,0,0,0,2.317-3.73,12.639,12.639,0,0,0,.12-6.251C338.72,88.05,342.943,85.612,342.43,85.574Z" transform="translate(-321.17 -79.581)" fill="#263238"/>
          <g id="Grupo_13361" data-name="Grupo 13361" transform="translate(7.455 24.503)">
            <g id="Grupo_13349" data-name="Grupo 13349">
              <g id="Grupo_13348" data-name="Grupo 13348">
                <g id="Grupo_13347" data-name="Grupo 13347">
                  <g id="Grupo_13346" data-name="Grupo 13346">
                    <g id="Grupo_13345" data-name="Grupo 13345">
                      <g id="Grupo_13344" data-name="Grupo 13344">
                        <g id="Grupo_13343" data-name="Grupo 13343">
                          <g id="Grupo_13342" data-name="Grupo 13342">
                            <g id="Grupo_13341" data-name="Grupo 13341">
                              <g id="Grupo_13340" data-name="Grupo 13340">
                                <path id="Trazado_14951" data-name="Trazado 14951" d="M335.475,111.085a2.617,2.617,0,0,0-4.2-1.4c-.783.7-1.249,1.874-.756,3.843,1.317,5.248,6.315,2.844,6.286,2.691C336.784,116.122,336.039,113.253,335.475,111.085Z" transform="translate(-330.313 -109.069)" fill="#ffbe9d"/>
                              </g>
                            </g>
                          </g>
                        </g>
                      </g>
                    </g>
                  </g>
                </g>
              </g>
            </g>
            <g id="Grupo_13360" data-name="Grupo 13360" transform="translate(1.454 1.632)">
              <g id="Grupo_13359" data-name="Grupo 13359">
                <g id="Grupo_13358" data-name="Grupo 13358">
                  <g id="Grupo_13357" data-name="Grupo 13357">
                    <g id="Grupo_13356" data-name="Grupo 13356">
                      <g id="Grupo_13355" data-name="Grupo 13355">
                        <g id="Grupo_13354" data-name="Grupo 13354">
                          <g id="Grupo_13353" data-name="Grupo 13353">
                            <g id="Grupo_13352" data-name="Grupo 13352">
                              <g id="Grupo_13351" data-name="Grupo 13351">
                                <g id="Grupo_13350" data-name="Grupo 13350">
                                  <path id="Trazado_14952" data-name="Trazado 14952" d="M335.03,115c-.028-.011-.076.087-.213.2a.942.942,0,0,1-.68.186c-.6-.064-1.293-.828-1.556-1.768a3.124,3.124,0,0,1-.073-1.373,1.089,1.089,0,0,1,.512-.874.481.481,0,0,1,.6.115c.107.129.1.242.13.245s.091-.117-.006-.323a.6.6,0,0,0-.289-.277.715.715,0,0,0-.54-.007,1.327,1.327,0,0,0-.751,1.053,3.213,3.213,0,0,0,.05,1.543c.3,1.049,1.089,1.9,1.9,1.932a1.006,1.006,0,0,0,.8-.348C335.052,115.13,335.05,115.005,335.03,115Z" transform="translate(-332.097 -111.071)" fill="#eb996e"/>
                                </g>
                              </g>
                            </g>
                          </g>
                        </g>
                      </g>
                    </g>
                  </g>
                </g>
              </g>
            </g>
          </g>
        </g>
        <g id="Grupo_13363" data-name="Grupo 13363" transform="translate(15.554 9.158)">
          <path id="Trazado_14953" data-name="Trazado 14953" d="M365.463,98.979c-.033-.04.475-.366,1.145-1.185a7.715,7.715,0,0,0,1.639-4.077,7.506,7.506,0,0,0-.293-3.023,6.489,6.489,0,0,0-1.864-2.9,7.663,7.663,0,0,0-7.494-1.459c-.245.079-.473.2-.705.3-.223.117-.433.247-.641.364l-.323.182,0-.36a2.649,2.649,0,0,0-.66-1.713,4.212,4.212,0,0,0-1.506-1.076,5.557,5.557,0,0,0-3.5-.256c-2.25.51-4.159,1.539-5.962,1.746a5.766,5.766,0,0,1-4.067-.817,3.318,3.318,0,0,1-.8-.815,1.431,1.431,0,0,1-.181-.353,4.681,4.681,0,0,0,1.068,1.038,5.743,5.743,0,0,0,3.938.66,14.14,14.14,0,0,0,2.738-.79,24.712,24.712,0,0,1,3.183-1.043,7.062,7.062,0,0,1,1.843-.184,5.681,5.681,0,0,1,1.9.437,4.614,4.614,0,0,1,1.662,1.181,3.07,3.07,0,0,1,.765,1.987l-.328-.178c.222-.126.446-.266.684-.391.247-.1.49-.233.751-.317a8.013,8.013,0,0,1,7.9,1.568,6.8,6.8,0,0,1,1.938,3.084,7.716,7.716,0,0,1,.254,3.16,7.624,7.624,0,0,1-1.811,4.151,5.442,5.442,0,0,1-.909.843A1.631,1.631,0,0,1,365.463,98.979Z" transform="translate(-340.247 -83.212)" fill="#455a64"/>
        </g>
        <g id="Grupo_13364" data-name="Grupo 13364" transform="translate(16.201 3.413)">
          <path id="Trazado_14954" data-name="Trazado 14954" d="M364.542,79.246a5.815,5.815,0,0,0-1.689-.58,4.45,4.45,0,0,0-2.007.182,3.962,3.962,0,0,0-2.066,1.5l-.2.289-.122-.326a6.134,6.134,0,0,0-4.973-3.693A7.921,7.921,0,0,0,348.7,78a21.188,21.188,0,0,1-3.79,1.961,5.961,5.961,0,0,1-2.868.337,3.612,3.612,0,0,1-.761-.209c-.166-.072-.249-.116-.244-.13.013-.038.364.108,1.025.174a6.23,6.23,0,0,0,2.747-.456,22.9,22.9,0,0,0,3.694-2.016,12.979,12.979,0,0,1,2.284-1.115,6.223,6.223,0,0,1,2.739-.351,6.432,6.432,0,0,1,5.271,3.984l-.322-.038a4.216,4.216,0,0,1,2.28-1.582,4.5,4.5,0,0,1,2.13-.106,3.822,3.822,0,0,1,1.278.488C364.429,79.119,364.552,79.233,364.542,79.246Z" transform="translate(-341.041 -76.166)" fill="#455a64"/>
        </g>
        <path id="Trazado_14955" data-name="Trazado 14955" d="M356.021,114.384a1.776,1.776,0,0,0-1.433-.416,2.1,2.1,0,0,0-1.374,1l-.021.031c-.012.023-.033.043-.045.067l.02-.014a1.006,1.006,0,0,0-.153.616,1.48,1.48,0,0,0,.852,1.1,1.874,1.874,0,0,0,2.136-.309A1.53,1.53,0,0,0,356.021,114.384Z" transform="translate(-327.05 -79.731)" fill="#e8505b"/>
        <g id="Grupo_13365" data-name="Grupo 13365" transform="translate(25.693 34.988)">
          <path id="Trazado_14956" data-name="Trazado 14956" d="M356.367,117.093c-.063.012-.143-.242-.36-.583a2.557,2.557,0,0,0-2.646-1.2c-.4.061-.644.168-.677.113s.17-.254.6-.4a2.413,2.413,0,0,1,2.986,1.358C356.446,116.8,356.419,117.087,356.367,117.093Z" transform="translate(-352.682 -114.893)" fill="#263238"/>
        </g>
        <g id="Grupo_13366" data-name="Grupo 13366" transform="translate(9.577 36.965)">
          <path id="Trazado_14957" data-name="Trazado 14957" d="M336.076,118.549c.039-.025.233.408-.073,1.026a1.661,1.661,0,0,1-.869.786,1.687,1.687,0,0,1-2.214-1.394,1.661,1.661,0,0,1,.333-1.124c.426-.542.9-.555.894-.508.028.064-.358.185-.645.676a1.467,1.467,0,0,0-.193.914A1.36,1.36,0,0,0,335,119.991a1.467,1.467,0,0,0,.741-.569C336.063,118.952,336.006,118.552,336.076,118.549Z" transform="translate(-332.916 -117.318)" fill="#e8505b"/>
        </g>
        <g id="Grupo_13367" data-name="Grupo 13367" transform="translate(8.127 36.361)">
          <path id="Trazado_14958" data-name="Trazado 14958" d="M332.994,118.1c.046.021-.024.278-.379.451a1.029,1.029,0,0,1-.678.067,1.086,1.086,0,0,1-.746-1.379,1.03,1.03,0,0,1,.426-.531c.339-.2.593-.121.585-.071s-.2.106-.4.309a.775.775,0,0,0,.715,1.322C332.8,118.208,332.944,118.06,332.994,118.1Z" transform="translate(-331.137 -116.577)" fill="#e8505b"/>
        </g>
      </g>
      <g id="Grupo_13377" data-name="Grupo 13377" transform="translate(9.215 42.197)">
        <path id="Trazado_14959" data-name="Trazado 14959" d="M344.4,202.367s20.187,1.171,32.119,1.281c9.243.085,13.362-2.37,15.21-8.308,1.551-4.986-1.782-14.547-1.782-14.547-6.249.032-10.107.893-14.129,2.778l1.072,4.372-32.548,2.806Z" transform="translate(-326.179 -134.272)" fill="#ffbe9d"/>
        <g id="Grupo_13369" data-name="Grupo 13369" transform="translate(50.52 53.547)">
          <path id="Trazado_14960" data-name="Trazado 14960" d="M391,194.2a11.771,11.771,0,0,0-6.976-4.756,2.878,2.878,0,0,1,1.295.113,8.638,8.638,0,0,1,5.1,3.479A2.893,2.893,0,0,1,391,194.2Z" transform="translate(-384.028 -189.41)" fill="#eb996e"/>
        </g>
        <g id="Grupo_13376" data-name="Grupo 13376">
          <path id="Trazado_14961" data-name="Trazado 14961" d="M332.894,177.833h0a39.046,39.046,0,0,0-10.829,4.563l4.876,13.26c1.629,4.351,6.619,6.49,10.571,4.232,6.139-3.508,8.3-13.75,8.3-13.75l6.748-29.252-11.178-7-8.492,27.95" transform="translate(-322.065 -128.563)" fill="#ffbe9d"/>
          <g id="Grupo_13375" data-name="Grupo 13375" transform="translate(8.924)">
            <path id="Trazado_14962" data-name="Trazado 14962" d="M345.275,145.092l.452-9.62-2.5-9.744c-.139-.541-.206-1.213.231-1.542a1.185,1.185,0,0,1,1.507.047c.683.7,3.943,9.257,3.943,9.257s4.947-2.973,5.83-3.118,1.984,2.517,2.052,2.727a15.512,15.512,0,0,1,.009,1.788s3.059.091,3.333.511a10.5,10.5,0,0,1,.353,2.6s1.293.415,1.5,1.4.625,2.594.016,2.948-1.9,1.062-1.9,1.062-.519,4.991-.652,5.446a30.962,30.962,0,0,1-3,3.25Z" transform="translate(-334.879 -123.772)" fill="#ffbe9d"/>
            <g id="Grupo_13370" data-name="Grupo 13370">
              <path id="Trazado_14963" data-name="Trazado 14963" d="M333.011,195.261c.013-.027.3.174.937.379a6.379,6.379,0,0,0,2.882.228A8.039,8.039,0,0,0,341,193.944a19.344,19.344,0,0,0,3.879-4.912,22.044,22.044,0,0,0,1.511-3.369,34.529,34.529,0,0,0,1.046-3.908c.64-2.748,1.33-5.706,2.062-8.85,1.472-6.289,3.117-13.321,4.889-20.894l.013-.056.042-.042c.561-.55,1.125-1.117,1.684-1.7.278-.292.557-.588.823-.892a5.717,5.717,0,0,0,.37-.461c.1-.1.1-.3.136-.5.221-1.632.393-3.319.574-5.018l.011-.108.1-.054,1.554-.871c.118-.07.293-.156.366-.214a.451.451,0,0,0,.147-.273,2.6,2.6,0,0,0,.01-.845,12.679,12.679,0,0,0-.362-1.773,2.182,2.182,0,0,0-1.3-1.047l-.141-.052-.006-.142c-.02-.472-.052-.958-.105-1.441-.028-.241-.059-.485-.108-.716a1.4,1.4,0,0,0-.094-.3c-.025-.053-.014-.013-.051-.047a.814.814,0,0,0-.137-.058,14.392,14.392,0,0,0-2.986-.337l-.213-.011.007-.21c.016-.5.037-1.065.014-1.593a1.678,1.678,0,0,0-.19-.546c-.087-.2-.182-.391-.28-.581a6.992,6.992,0,0,0-.667-1.077,1.8,1.8,0,0,0-.414-.406.4.4,0,0,0-.434-.05,10.567,10.567,0,0,0-1.15.527c-1.522.792-3,1.657-4.45,2.518l-.213.126-.091-.229q-1.157-2.9-2.283-5.716l-1.117-2.8a1.16,1.16,0,0,0-.9-.839.907.907,0,0,0-1.061.39.948.948,0,0,0-.124.581c.024.182.113.457.166.679q.186.706.369,1.4.367,1.4.728,2.77l1.413,5.383.007.029,0,.029c-.162,3.348-.318,6.56-.466,9.62l0,.022-.007.021c-3.08,10.026-5.636,18.342-7.428,24.169-.9,2.889-1.607,5.159-2.1,6.728l-.564,1.764c-.13.4-.21.6-.21.6s.045-.212.158-.616l.514-1.779,2-6.756c1.756-5.839,4.263-14.17,7.284-24.214l-.007.042c.139-3.059.285-6.272.436-9.621l.006.057q-.7-2.634-1.425-5.379l-.734-2.77q-.185-.7-.372-1.4c-.058-.249-.132-.438-.179-.739a1.364,1.364,0,0,1,.176-.83,1.261,1.261,0,0,1,.66-.555,1.573,1.573,0,0,1,.843-.027,1.67,1.67,0,0,1,.747.381,1.649,1.649,0,0,1,.439.7q.555,1.388,1.12,2.8l2.289,5.715-.3-.1c1.457-.867,2.933-1.731,4.474-2.534a10.828,10.828,0,0,1,1.21-.552.926.926,0,0,1,.411-.058.89.89,0,0,1,.386.154,2.217,2.217,0,0,1,.516.5,7.392,7.392,0,0,1,.712,1.146c.1.2.2.4.289.6a2,2,0,0,1,.227.692c.024.578,0,1.121-.013,1.637l-.206-.22a14.377,14.377,0,0,1,3.114.361,1.168,1.168,0,0,1,.21.091.523.523,0,0,1,.21.213,1.721,1.721,0,0,1,.135.413c.055.258.086.509.115.758.055.5.086.988.107,1.473l-.147-.193a2.577,2.577,0,0,1,1.558,1.288,12.327,12.327,0,0,1,.391,1.887,2.967,2.967,0,0,1-.02.991.866.866,0,0,1-.3.5,4.325,4.325,0,0,1-.416.247l-1.562.873.107-.161c-.183,1.7-.356,3.381-.582,5.034l-.052.316a.813.813,0,0,1-.151.355,5.554,5.554,0,0,1-.4.5c-.274.312-.555.611-.837.9-.564.586-1.131,1.153-1.7,1.706l.055-.1-4.948,20.88-2.1,8.839a34.5,34.5,0,0,1-1.078,3.932,22.27,22.27,0,0,1-1.552,3.4,19.355,19.355,0,0,1-3.969,4.934A8.11,8.11,0,0,1,336.847,196a6.282,6.282,0,0,1-2.921-.3,4.313,4.313,0,0,1-.693-.314A1.422,1.422,0,0,1,333.011,195.261Z" transform="translate(-333.011 -123.734)" fill="#eb996e"/>
            </g>
            <g id="Grupo_13371" data-name="Grupo 13371" transform="translate(17.7 10.866)">
              <path id="Trazado_14964" data-name="Trazado 14964" d="M358.942,137.3c0,.06-.276.09-.707.111a8.159,8.159,0,0,0-1.624.192,3.21,3.21,0,0,0-1.384.739c-.3.278-.428.514-.488.488s-.016-.312.264-.688a2.744,2.744,0,0,1,1.5-.951,4.739,4.739,0,0,1,1.742-.082C358.683,137.163,358.945,137.238,358.942,137.3Z" transform="translate(-354.72 -137.062)" fill="#eb996e"/>
            </g>
            <g id="Grupo_13372" data-name="Grupo 13372" transform="translate(19.443 10.207)">
              <path id="Trazado_14965" data-name="Trazado 14965" d="M356.944,137.235c-.109-.042-.117-.294-.015-.563s.272-.455.382-.414.117.294.016.563S357.054,137.276,356.944,137.235Z" transform="translate(-356.857 -136.253)" fill="#eb996e"/>
            </g>
            <g id="Grupo_13373" data-name="Grupo 13373" transform="translate(21.626 14.021)">
              <path id="Trazado_14966" data-name="Trazado 14966" d="M363.652,141.06a7.655,7.655,0,0,1-2.42.335,1.653,1.653,0,0,0-1.347.648c-.215.333-.143.61-.205.627-.039.038-.26-.275-.063-.762a1.332,1.332,0,0,1,.583-.647,2.585,2.585,0,0,1,.981-.287A6.885,6.885,0,0,1,363.652,141.06Z" transform="translate(-359.536 -140.932)" fill="#eb996e"/>
            </g>
            <g id="Grupo_13374" data-name="Grupo 13374" transform="translate(24.918 17.083)">
              <path id="Trazado_14967" data-name="Trazado 14967" d="M363.853,144.687c.117,0,.185.607.152,1.346s-.155,1.332-.272,1.327-.185-.608-.152-1.347S363.736,144.681,363.853,144.687Z" transform="translate(-363.573 -144.687)" fill="#eb996e"/>
            </g>
          </g>
        </g>
      </g>
      <g id="Grupo_13379" data-name="Grupo 13379" transform="translate(46.727 76.551)">
        <path id="Trazado_14968" data-name="Trazado 14968" d="M368.074,170.559l.725-2.5a.683.683,0,0,1,1.143-.288l.946.965.591-2.351a.683.683,0,0,1,1.278-.129l1.335,2.784Z" transform="translate(-368.074 -165.869)" fill="#fff"/>
        <g id="Grupo_13378" data-name="Grupo 13378" transform="translate(0.168 4.212)">
          <path id="Trazado_14969" data-name="Trazado 14969" d="M374.142,171.064a21.557,21.557,0,0,1-5.861,1.451,21.554,21.554,0,0,1,5.861-1.451Z" transform="translate(-368.28 -171.036)" fill="#fff"/>
        </g>
      </g>
      <g id="Grupo_13380" data-name="Grupo 13380" transform="translate(2.087 66.855)">
        <path id="Trazado_14970" data-name="Trazado 14970" d="M315.507,153.977c.02.016-.3.313-.725.969a8.29,8.29,0,0,0-1.106,3.079,22.246,22.246,0,0,0-.147,4.885c.09,1.846.239,3.872.465,5.992a105.158,105.158,0,0,0,1.72,10.779c.29,1.367.551,2.468.732,3.229l.21.876c.046.2.062.308.062.308s-.038-.1-.095-.3c-.069-.248-.148-.533-.241-.868-.2-.756-.479-1.853-.784-3.219a95.512,95.512,0,0,1-1.773-10.787c-.226-2.124-.371-4.154-.453-6a21.776,21.776,0,0,1,.185-4.912,8.108,8.108,0,0,1,1.168-3.094A4.912,4.912,0,0,1,315.507,153.977Z" transform="translate(-313.322 -153.977)" fill="#fff"/>
      </g>
      <g id="Grupo_13381" data-name="Grupo 13381" transform="translate(4.272 55.77)">
        <path id="Trazado_14971" data-name="Trazado 14971" d="M333.16,140.382a1.032,1.032,0,0,1-.183.1l-.538.257c-.466.223-1.14.55-1.949,1a70.265,70.265,0,0,0-6.126,3.829c-2.328,1.6-4.392,3.113-5.9,4.19l-1.79,1.267-.493.337a.988.988,0,0,1-.179.108.963.963,0,0,1,.158-.135l.475-.362,1.758-1.311c1.489-1.1,3.543-2.63,5.874-4.233a61.231,61.231,0,0,1,6.166-3.795c.819-.435,1.5-.748,1.979-.952l.552-.227A.893.893,0,0,1,333.16,140.382Z" transform="translate(-316.002 -140.381)" fill="#fff"/>
      </g>
      <g id="Grupo_13382" data-name="Grupo 13382" transform="translate(45.19 54.449)">
        <path id="Trazado_14972" data-name="Trazado 14972" d="M381.311,145.386a.665.665,0,0,1-.136-.1l-.367-.318a14.585,14.585,0,0,0-1.428-1.066,29.015,29.015,0,0,0-5.241-2.652,53.247,53.247,0,0,0-5.589-1.86c-.726-.2-1.319-.35-1.728-.451l-.471-.12a.641.641,0,0,1-.162-.054.658.658,0,0,1,.17.02l.479.089c.414.082,1.013.212,1.745.4a45.267,45.267,0,0,1,5.621,1.818,26.591,26.591,0,0,1,5.246,2.711A10.356,10.356,0,0,1,381.311,145.386Z" transform="translate(-366.188 -138.762)" fill="#fff"/>
      </g>
      <g id="Grupo_13383" data-name="Grupo 13383" transform="translate(18.647 116.346)">
        <path id="Trazado_14973" data-name="Trazado 14973" d="M336.646,221.642a1.153,1.153,0,0,1-.318-.109,5.383,5.383,0,0,1-.809-.432,3.934,3.934,0,0,1-1.773-2.4,4.7,4.7,0,0,1,.316-2.984,4.116,4.116,0,0,1,.472-.788,1.112,1.112,0,0,1,.227-.248,9.513,9.513,0,0,0-.589,1.084,4.829,4.829,0,0,0-.26,2.9,3.969,3.969,0,0,0,1.675,2.34C336.213,221.436,336.66,221.612,336.646,221.642Z" transform="translate(-333.633 -214.679)" fill="#fff"/>
      </g>
      <g id="Grupo_13384" data-name="Grupo 13384" transform="translate(19.054 114.482)">
        <path id="Trazado_14974" data-name="Trazado 14974" d="M334.144,212.392a7.059,7.059,0,0,1,.613,2.1,7.062,7.062,0,0,1-.613-2.1Z" transform="translate(-334.133 -212.392)" fill="#fff"/>
      </g>
      <g id="Grupo_13438" data-name="Grupo 13438" transform="translate(9.838 123.296)">
        <g id="Grupo_13385" data-name="Grupo 13385">
          <path id="Trazado_14975" data-name="Trazado 14975" d="M343.079,397.189l24.871-.125-.451-85.982-.232-87.461-33.684-.418-6.055,11.416a40.992,40.992,0,0,0-4.66,14.8c-.423,3.951,2.537,16.836,3.571,20.116l9.272,29.4Z" transform="translate(-322.829 -223.203)" fill="#263238"/>
          <path id="Trazado_14976" data-name="Trazado 14976" d="M380.482,223.839l27.326,74.5a34.364,34.364,0,0,1-3.369,29.106L372.712,389.37l-17.839-22.318,26.547-55.477-23.4-37.916,3.938-49.741,11.023-.178Z" transform="translate(-328.746 -223.302)" fill="#263238"/>
        </g>
        <g id="Grupo_13386" data-name="Grupo 13386" transform="translate(42.161 25.494)">
          <path id="Trazado_14977" data-name="Trazado 14977" d="M374.546,254.471s.02.13.038.382c.017.271.041.643.071,1.123.054,1.007.131,2.459.23,4.319.183,3.771.444,9.194.768,15.887.309,6.714.677,14.7,1.085,23.565.2,4.435.408,9.091.626,13.917.155,2.412.084,4.872.113,7.366q.011,3.742.023,7.587c.034,20.491.066,39.038.088,52.485-.009,6.7-.016,12.13-.022,15.9-.011,1.862-.021,3.316-.028,4.324-.007.479-.013.853-.017,1.124-.007.254-.021.383-.021.383s-.015-.13-.023-.383l-.024-1.124c-.012-1.009-.03-2.461-.052-4.324-.027-3.775-.066-9.2-.113-15.9-.055-13.446-.13-31.991-.212-52.478q-.011-3.843-.021-7.587c-.027-2.494.046-4.954-.107-7.366-.208-4.825-.409-9.48-.6-13.915-.373-8.866-.71-16.852-.994-23.566-.267-6.695-.483-12.119-.633-15.891-.065-1.861-.116-3.313-.151-4.322-.012-.479-.022-.853-.029-1.124C374.537,254.6,374.546,254.471,374.546,254.471Z" transform="translate(-374.54 -254.471)" fill="#455a64"/>
        </g>
        <g id="Grupo_13387" data-name="Grupo 13387" transform="translate(41.525 2.006)">
          <path id="Trazado_14978" data-name="Trazado 14978" d="M373.779,225.664a3.1,3.1,0,0,1,.172.81c.085.524.186,1.286.294,2.229.219,1.886.447,4.5.579,7.395s.137,5.521.09,7.419c-.023.949-.055,1.717-.092,2.246a3.092,3.092,0,0,1-.1.822,25.317,25.317,0,0,1-.108-3.069c-.03-1.895-.085-4.511-.214-7.4s-.311-5.5-.453-7.387A25.237,25.237,0,0,1,373.779,225.664Z" transform="translate(-373.759 -225.664)" fill="#455a64"/>
        </g>
        <g id="Grupo_13388" data-name="Grupo 13388" transform="translate(35.163 3.47)">
          <path id="Trazado_14979" data-name="Trazado 14979" d="M366.857,227.673a2,2,0,0,0-.551.929,1.056,1.056,0,0,0,.316.994,1.085,1.085,0,0,0,1.853-.849,1.057,1.057,0,0,0-.546-.889,1.984,1.984,0,0,0-1.064-.189c-.011-.022.078-.108.289-.17a1.392,1.392,0,0,1,1.711,1.227,1.459,1.459,0,0,1-2.514,1.151,1.392,1.392,0,0,1,.189-2.1C366.725,227.662,366.848,227.651,366.857,227.673Z" transform="translate(-365.956 -227.459)" fill="#455a64"/>
        </g>
        <g id="Grupo_13389" data-name="Grupo 13389" transform="translate(9.961 2.208)">
          <path id="Trazado_14980" data-name="Trazado 14980" d="M348.1,225.911a2.438,2.438,0,0,1,.223.78,7.732,7.732,0,0,1,.073,2.215,8.922,8.922,0,0,1-.941,3.159,8.363,8.363,0,0,1-6.372,4.574,8.934,8.934,0,0,1-3.294-.119,7.736,7.736,0,0,1-2.077-.777,2.425,2.425,0,0,1-.668-.461,14.051,14.051,0,0,0,2.8.944A8.56,8.56,0,0,0,348.1,228.87,14.151,14.151,0,0,0,348.1,225.911Z" transform="translate(-335.045 -225.911)" fill="#455a64"/>
        </g>
        <g id="Grupo_13390" data-name="Grupo 13390" transform="translate(48.397 2.138)">
          <path id="Trazado_14981" data-name="Trazado 14981" d="M388.8,233.032a3.3,3.3,0,0,1-1.566-.185,7.278,7.278,0,0,1-4.942-5.446,3.3,3.3,0,0,1-.033-1.577c.076,0,.08.6.326,1.508a7.879,7.879,0,0,0,4.746,5.229C388.209,232.9,388.806,232.957,388.8,233.032Z" transform="translate(-382.187 -225.825)" fill="#455a64"/>
        </g>
        <g id="Grupo_13391" data-name="Grupo 13391" transform="translate(54.478 87.209)">
          <path id="Trazado_14982" data-name="Trazado 14982" d="M399.889,332.617a5.162,5.162,0,0,1-1.441,1.146,6.661,6.661,0,0,1-1.855.81,4.471,4.471,0,0,1-2.5-.066,7.284,7.284,0,0,1-3.484-2.772,6.463,6.463,0,0,1-.956-1.569,10.052,10.052,0,0,1,1.192,1.384,7.727,7.727,0,0,0,3.376,2.553,5.228,5.228,0,0,0,4.081-.6A16.883,16.883,0,0,1,399.889,332.617Z" transform="translate(-389.647 -330.165)" fill="#455a64"/>
        </g>
        <g id="Grupo_13392" data-name="Grupo 13392" transform="translate(53.688 87.665)">
          <path id="Trazado_14983" data-name="Trazado 14983" d="M393.485,337.478a40.429,40.429,0,0,1-4.8-6.752,40.518,40.518,0,0,1,4.8,6.752Z" transform="translate(-388.677 -330.724)" fill="#455a64"/>
        </g>
        <g id="Grupo_13393" data-name="Grupo 13393" transform="translate(15.768 26.128)">
          <path id="Trazado_14984" data-name="Trazado 14984" d="M343.111,257.507c-.108.044-.4-.426-.648-1.049s-.363-1.163-.254-1.207.4.426.648,1.048S343.221,257.463,343.111,257.507Z" transform="translate(-342.168 -255.249)" fill="#fafafa"/>
        </g>
        <g id="Grupo_13394" data-name="Grupo 13394" transform="translate(32.286 28.836)">
          <path id="Trazado_14985" data-name="Trazado 14985" d="M362.64,260.375c-.117,0-.213-.4-.213-.9s.1-.9.213-.9.212.4.212.9S362.757,260.375,362.64,260.375Z" transform="translate(-362.427 -258.571)" fill="#fafafa"/>
        </g>
        <g id="Grupo_13395" data-name="Grupo 13395" transform="translate(25.709 36.957)">
          <path id="Trazado_14986" data-name="Trazado 14986" d="M354.663,270.786c-.117.008-.246-.49-.289-1.113s.019-1.134.135-1.142.246.491.289,1.114S354.78,270.779,354.663,270.786Z" transform="translate(-354.361 -268.531)" fill="#fafafa"/>
        </g>
        <g id="Grupo_13396" data-name="Grupo 13396" transform="translate(12.499 44.275)">
          <path id="Trazado_14987" data-name="Trazado 14987" d="M339.815,278.757c-.1.072-.433-.228-.87-.542s-.822-.546-.784-.66.54-.044,1.034.317S339.909,278.692,339.815,278.757Z" transform="translate(-338.159 -277.506)" fill="#fafafa"/>
        </g>
        <g id="Grupo_13397" data-name="Grupo 13397" transform="translate(35.021 52.131)">
          <path id="Trazado_14988" data-name="Trazado 14988" d="M365.815,288.505c-.1-.065.025-.421.274-.794s.53-.624.628-.559-.025.421-.275.795S365.912,288.57,365.815,288.505Z" transform="translate(-365.782 -287.142)" fill="#fafafa"/>
        </g>
        <g id="Grupo_13398" data-name="Grupo 13398" transform="translate(21.911 52.743)">
          <path id="Trazado_14989" data-name="Trazado 14989" d="M349.916,290.9c-.117,0-.213-.673-.213-1.5s.1-1.5.213-1.5.212.673.212,1.5S350.033,290.9,349.916,290.9Z" transform="translate(-349.703 -287.892)" fill="#fafafa"/>
        </g>
        <g id="Grupo_13399" data-name="Grupo 13399" transform="translate(16.269 63.669)">
          <path id="Trazado_14990" data-name="Trazado 14990" d="M344.446,302.519c-.068.1-.495-.1-.951-.429s-.771-.678-.7-.773.495.1.952.429S344.515,302.425,344.446,302.519Z" transform="translate(-342.783 -301.293)" fill="#fafafa"/>
        </g>
        <g id="Grupo_13400" data-name="Grupo 13400" transform="translate(29.636 68.021)">
          <path id="Trazado_14991" data-name="Trazado 14991" d="M360.536,306.688c.047.108-.217.329-.59.495s-.716.214-.763.107.217-.329.59-.495S360.488,306.581,360.536,306.688Z" transform="translate(-359.177 -306.631)" fill="#fafafa"/>
        </g>
        <g id="Grupo_13401" data-name="Grupo 13401" transform="translate(20.597 79.953)">
          <path id="Trazado_14992" data-name="Trazado 14992" d="M349.618,324.276c-.105.052-.527-.579-.942-1.409s-.667-1.546-.562-1.6.526.578.942,1.409S349.722,324.223,349.618,324.276Z" transform="translate(-348.091 -321.265)" fill="#fafafa"/>
        </g>
        <g id="Grupo_13402" data-name="Grupo 13402" transform="translate(36.529 79.35)">
          <path id="Trazado_14993" data-name="Trazado 14993" d="M367.66,322.786c-.1-.055.082-.6.414-1.228s.685-1.083.788-1.027-.082.6-.414,1.227S367.764,322.841,367.66,322.786Z" transform="translate(-367.632 -320.526)" fill="#fafafa"/>
        </g>
        <g id="Grupo_13403" data-name="Grupo 13403" transform="translate(29.761 91.379)">
          <path id="Trazado_14994" data-name="Trazado 14994" d="M359.813,338.14c-.121-.018-.111-.661-.236-1.427s-.324-1.375-.215-1.43.5.523.635,1.364S359.923,338.163,359.813,338.14Z" transform="translate(-359.331 -335.28)" fill="#fafafa"/>
        </g>
        <g id="Grupo_13404" data-name="Grupo 13404" transform="translate(21.957 99.79)">
          <path id="Trazado_14995" data-name="Trazado 14995" d="M351.279,347.262c-.086.079-.493-.227-.908-.684s-.682-.89-.6-.969.494.228.909.684S351.366,347.183,351.279,347.262Z" transform="translate(-349.759 -345.596)" fill="#fafafa"/>
        </g>
        <g id="Grupo_13405" data-name="Grupo 13405" transform="translate(39.884 102.515)">
          <path id="Trazado_14996" data-name="Trazado 14996" d="M371.761,350.618c-.083-.082.216-.522.669-.982s.889-.766.972-.684-.216.522-.669.982S371.844,350.7,371.761,350.618Z" transform="translate(-371.747 -348.939)" fill="#fafafa"/>
        </g>
        <g id="Grupo_13406" data-name="Grupo 13406" transform="translate(30.366 112.284)">
          <path id="Trazado_14997" data-name="Trazado 14997" d="M360.16,363.633c-.116-.017-.117-.639,0-1.388s.3-1.342.416-1.324.117.638,0,1.388S360.276,363.651,360.16,363.633Z" transform="translate(-360.072 -360.921)" fill="#fafafa"/>
        </g>
        <g id="Grupo_13407" data-name="Grupo 13407" transform="translate(22.846 118.141)">
          <path id="Trazado_14998" data-name="Trazado 14998" d="M352.1,370.2c-.1.06-.457-.361-.8-.938s-.53-1.094-.429-1.154.457.361.8.939S352.2,370.142,352.1,370.2Z" transform="translate(-350.85 -368.103)" fill="#fafafa"/>
        </g>
        <g id="Grupo_13408" data-name="Grupo 13408" transform="translate(37.297 126.837)">
          <path id="Trazado_14999" data-name="Trazado 14999" d="M370.685,378.789c.068.1-.347.51-.929.925s-1.106.676-1.175.581.347-.51.928-.925S370.616,378.693,370.685,378.789Z" transform="translate(-368.574 -378.769)" fill="#fafafa"/>
        </g>
        <g id="Grupo_13409" data-name="Grupo 13409" transform="translate(26.614 132.429)">
          <path id="Trazado_15000" data-name="Trazado 15000" d="M355.513,388.641c-.114-.041.032-.7.1-1.509s.047-1.482.166-1.5.337.666.257,1.541S355.619,388.685,355.513,388.641Z" transform="translate(-355.471 -385.628)" fill="#fafafa"/>
        </g>
        <g id="Grupo_13410" data-name="Grupo 13410" transform="translate(30.521 146.249)">
          <path id="Trazado_15001" data-name="Trazado 15001" d="M361.488,404.093c-.092.073-.435-.2-.767-.619s-.527-.811-.436-.885.435.2.767.62S361.58,404.02,361.488,404.093Z" transform="translate(-360.262 -402.578)" fill="#fafafa"/>
        </g>
        <g id="Grupo_13411" data-name="Grupo 13411" transform="translate(24.511 153.621)">
          <path id="Trazado_15002" data-name="Trazado 15002" d="M354.564,414.033c-.1.066-.545-.418-1-1.083s-.748-1.256-.652-1.323.545.418,1,1.083S354.66,413.966,354.564,414.033Z" transform="translate(-352.892 -411.621)" fill="#fafafa"/>
        </g>
        <g id="Grupo_13412" data-name="Grupo 13412" transform="translate(41.444 144.452)">
          <path id="Trazado_15003" data-name="Trazado 15003" d="M373.735,401.582c-.11-.042-.1-.344.027-.676s.315-.568.424-.527.1.343-.026.676S373.845,401.622,373.735,401.582Z" transform="translate(-373.66 -400.374)" fill="#fafafa"/>
        </g>
        <g id="Grupo_13413" data-name="Grupo 13413" transform="translate(34.724 162.649)">
          <path id="Trazado_15004" data-name="Trazado 15004" d="M365.447,425.4c-.108-.056.1-.637.255-1.363s.225-1.337.346-1.343.246.646.068,1.435S365.545,425.455,365.447,425.4Z" transform="translate(-365.417 -422.693)" fill="#fafafa"/>
        </g>
        <g id="Grupo_13414" data-name="Grupo 13414" transform="translate(38.335 37.694)">
          <path id="Trazado_15005" data-name="Trazado 15005" d="M370.662,271.085c-.107.05-.365-.279-.577-.733s-.3-.863-.193-.912.365.278.577.732S370.768,271.035,370.662,271.085Z" transform="translate(-369.846 -269.435)" fill="#fafafa"/>
        </g>
        <g id="Grupo_13415" data-name="Grupo 13415" transform="translate(25.562 13.935)">
          <path id="Trazado_15006" data-name="Trazado 15006" d="M356.456,240.311c.064.1-.51.563-1.115,1.214s-1.032,1.249-1.14,1.192.174-.787.83-1.482S356.4,240.213,356.456,240.311Z" transform="translate(-354.18 -240.294)" fill="#fafafa"/>
        </g>
        <g id="Grupo_13416" data-name="Grupo 13416" transform="translate(36.841 11.536)">
          <path id="Trazado_15007" data-name="Trazado 15007" d="M369.084,239.467c-.117.024-.31-.46-.593-1.019s-.55-1.005-.459-1.085.532.277.839.9S369.2,239.448,369.084,239.467Z" transform="translate(-368.014 -237.352)" fill="#fafafa"/>
        </g>
        <g id="Grupo_13417" data-name="Grupo 13417" transform="translate(6.484 19.674)">
          <path id="Trazado_15008" data-name="Trazado 15008" d="M330.823,249.595c-.109-.042,0-.584.249-1.207s.535-1.094.644-1.051,0,.584-.249,1.207S330.932,249.638,330.823,249.595Z" transform="translate(-330.782 -247.334)" fill="#fafafa"/>
        </g>
        <g id="Grupo_13418" data-name="Grupo 13418" transform="translate(5.725 32.728)">
          <path id="Trazado_15009" data-name="Trazado 15009" d="M331.665,264.865c-.075.09-.54-.174-1.038-.589s-.841-.825-.766-.915.54.174,1.039.589S331.74,264.776,331.665,264.865Z" transform="translate(-329.85 -263.344)" fill="#fafafa"/>
        </g>
        <g id="Grupo_13419" data-name="Grupo 13419" transform="translate(27.478 2.672)">
          <path id="Trazado_15010" data-name="Trazado 15010" d="M357.19,227.987c-.109.043-.332-.258-.5-.673s-.212-.788-.1-.831.332.258.5.673S357.3,227.943,357.19,227.987Z" transform="translate(-356.53 -226.48)" fill="#fafafa"/>
        </g>
        <g id="Grupo_13420" data-name="Grupo 13420" transform="translate(47.78 8.095)">
          <path id="Trazado_15011" data-name="Trazado 15011" d="M381.51,235.235c-.114-.025-.1-.516.024-1.1s.323-1.031.437-1.006.1.516-.023,1.1S381.625,235.261,381.51,235.235Z" transform="translate(-381.431 -233.132)" fill="#fafafa"/>
        </g>
        <g id="Grupo_13421" data-name="Grupo 13421" transform="translate(52.459 16.956)">
          <path id="Trazado_15012" data-name="Trazado 15012" d="M387.206,246.558c-.108-.045.039-.653.329-1.358s.615-1.242.723-1.2-.04.653-.33,1.359S387.314,246.6,387.206,246.558Z" transform="translate(-387.17 -244)" fill="#fafafa"/>
        </g>
        <g id="Grupo_13422" data-name="Grupo 13422" transform="translate(47.808 24.323)">
          <path id="Trazado_15013" data-name="Trazado 15013" d="M382.845,255.745c-.105.052-.493-.511-.867-1.259s-.591-1.4-.487-1.448.493.511.867,1.258S382.949,255.692,382.845,255.745Z" transform="translate(-381.465 -253.035)" fill="#fafafa"/>
        </g>
        <g id="Grupo_13423" data-name="Grupo 13423" transform="translate(56.205 32.593)">
          <path id="Trazado_15014" data-name="Trazado 15014" d="M391.813,265.136c-.109-.042-.03-.514.178-1.053s.465-.943.574-.9.03.513-.178,1.053S391.922,265.177,391.813,265.136Z" transform="translate(-391.764 -263.178)" fill="#fafafa"/>
        </g>
        <g id="Grupo_13424" data-name="Grupo 13424" transform="translate(49.146 40.704)">
          <path id="Trazado_15015" data-name="Trazado 15015" d="M383.9,274.34c-.1.062-.348-.157-.556-.489s-.3-.651-.2-.714.348.157.556.489S384,274.278,383.9,274.34Z" transform="translate(-383.107 -273.126)" fill="#fafafa"/>
        </g>
        <g id="Grupo_13425" data-name="Grupo 13425" transform="translate(49.319 54.993)">
          <path id="Trazado_15016" data-name="Trazado 15016" d="M385.286,292.767c-.086.08-.594-.327-1.133-.908s-.907-1.117-.822-1.2.594.327,1.133.908S385.372,292.687,385.286,292.767Z" transform="translate(-383.319 -290.652)" fill="#fafafa"/>
        </g>
        <g id="Grupo_13426" data-name="Grupo 13426" transform="translate(57.89 46.269)">
          <path id="Trazado_15017" data-name="Trazado 15017" d="M395.5,282.065c-.092.073-.537-.34-.994-.921s-.753-1.111-.66-1.184.537.34.994.922S395.595,281.993,395.5,282.065Z" transform="translate(-393.831 -279.952)" fill="#fafafa"/>
        </g>
        <g id="Grupo_13427" data-name="Grupo 13427" transform="translate(64.071 57.868)">
          <path id="Trazado_15018" data-name="Trazado 15018" d="M401.442,296.735c-.106-.051.079-.663.413-1.367s.691-1.236.8-1.185-.079.662-.413,1.367S401.548,296.785,401.442,296.735Z" transform="translate(-401.412 -294.179)" fill="#fafafa"/>
        </g>
        <g id="Grupo_13428" data-name="Grupo 13428" transform="translate(52.491 68.503)">
          <path id="Trazado_15019" data-name="Trazado 15019" d="M389.167,309.052c-.1.063-.482-.39-1.007-.87s-1-.826-.947-.934.663.091,1.235.622S389.267,309,389.167,309.052Z" transform="translate(-387.209 -307.222)" fill="#fafafa"/>
        </g>
        <g id="Grupo_13429" data-name="Grupo 13429" transform="translate(53.247 80.345)">
          <path id="Trazado_15020" data-name="Trazado 15020" d="M389.94,321.959c0,.117-.4.212-.9.212s-.9-.095-.9-.212.4-.212.9-.212S389.94,321.842,389.94,321.959Z" transform="translate(-388.136 -321.747)" fill="#fafafa"/>
        </g>
        <g id="Grupo_13430" data-name="Grupo 13430" transform="translate(64.946 75.295)">
          <path id="Trazado_15021" data-name="Trazado 15021" d="M402.513,317.958c-.1-.064.107-.572.263-1.212s.218-1.185.338-1.193.254.583.073,1.3S402.607,318.023,402.513,317.958Z" transform="translate(-402.486 -315.553)" fill="#fafafa"/>
        </g>
        <g id="Grupo_13431" data-name="Grupo 13431" transform="translate(73.847 78.436)">
          <path id="Trazado_15022" data-name="Trazado 15022" d="M414.388,322.1c-.111.038-.412-.532-.673-1.276s-.382-1.377-.272-1.415.412.532.673,1.275S414.5,322.059,414.388,322.1Z" transform="translate(-413.403 -319.405)" fill="#fafafa"/>
        </g>
        <g id="Grupo_13432" data-name="Grupo 13432" transform="translate(73.239 92.288)">
          <path id="Trazado_15023" data-name="Trazado 15023" d="M412.68,339.258c-.1-.054.147-.739.561-1.528s.833-1.385.938-1.331-.148.739-.562,1.529S412.783,339.312,412.68,339.258Z" transform="translate(-412.656 -336.395)" fill="#fafafa"/>
        </g>
        <g id="Grupo_13433" data-name="Grupo 13433" transform="translate(63.127 100.705)">
          <path id="Trazado_15024" data-name="Trazado 15024" d="M401.391,349.406c-.108.045-.443-.52-.748-1.261s-.464-1.38-.355-1.424.443.521.748,1.263S401.5,349.362,401.391,349.406Z" transform="translate(-400.255 -346.718)" fill="#fafafa"/>
        </g>
        <g id="Grupo_13434" data-name="Grupo 13434" transform="translate(52.796 106.356)">
          <path id="Trazado_15025" data-name="Trazado 15025" d="M389.086,353.861c0,.117-.337.213-.752.213s-.752-.1-.752-.213.336-.212.752-.212S389.086,353.744,389.086,353.861Z" transform="translate(-387.583 -353.649)" fill="#fafafa"/>
        </g>
        <g id="Grupo_13435" data-name="Grupo 13435" transform="translate(59.347 117.392)">
          <path id="Trazado_15026" data-name="Trazado 15026" d="M396.283,369.441c-.113.031-.34-.45-.506-1.072s-.21-1.152-.1-1.183.34.45.506,1.074S396.4,369.411,396.283,369.441Z" transform="translate(-395.618 -367.184)" fill="#fafafa"/>
        </g>
        <g id="Grupo_13436" data-name="Grupo 13436" transform="translate(52.76 113.777)">
          <path id="Trazado_15027" data-name="Trazado 15027" d="M387.575,364.263c-.1-.06.02-.446.268-.861s.533-.7.633-.643-.02.445-.269.861S387.675,364.323,387.575,364.263Z" transform="translate(-387.539 -362.751)" fill="#fafafa"/>
        </g>
        <g id="Grupo_13437" data-name="Grupo 13437" transform="translate(52.236 127.166)">
          <path id="Trazado_15028" data-name="Trazado 15028" d="M387.305,381.729c-.117.014-.278-.548-.361-1.253s-.055-1.289.06-1.3.278.547.361,1.253S387.422,381.715,387.305,381.729Z" transform="translate(-386.896 -379.173)" fill="#fafafa"/>
        </g>
      </g>
    </g>
  </g>
</svg>
