<svg id="Grupo_18079" data-name="Grupo 18079" xmlns="http://www.w3.org/2000/svg" width="64.144" height="60.865" viewBox="0 0 64.144 60.865">
  <path id="Trazado_12403" data-name="Trazado 12403" d="M-1875.37,363.37h42.217l21.928,29.511-21.928,31.355h-42.217Z" transform="translate(1875.37 -363.37)" fill="#d64626"/>
  <path id="Trazado_14730" data-name="Trazado 14730" d="M7.772,27.487A5.19,5.19,0,0,1,3.3,25.334q-1.56-2.153-1.56-6.4t1.555-6.4a5.2,5.2,0,0,1,4.48-2.142,5.184,5.184,0,0,1,4.468,2.142q1.555,2.142,1.555,6.4t-1.56,6.4A5.178,5.178,0,0,1,7.772,27.487Zm0-2.994a2.188,2.188,0,0,0,2-1.365,9.5,9.5,0,0,0,.708-4.2,9.433,9.433,0,0,0-.714-4.2,2.192,2.192,0,0,0-1.992-1.365q-2.718,0-2.718,5.562T7.772,24.493ZM21.384,10.617h3.155v16.64h-3.3V14.026l-3.823,3.558V14.175Z" transform="translate(11.422 11.43)" fill="#fff"/>
</svg>
