<svg xmlns="http://www.w3.org/2000/svg" width="68.848" height="70.848" viewBox="0 0 68.848 70.848">
  <g id="Grupo_18071" data-name="Grupo 18071" transform="translate(-235 -7725)">
    <g id="Grupo_13445" data-name="Grupo 13445" transform="translate(0 -9226)">
      <circle id="Elipse_797" data-name="Elipse 797" cx="30.5" cy="30.5" r="30.5" transform="translate(235 16951)" fill="#efd6d0"/>
      <g id="seo" transform="translate(247 16965)">
        <path id="Trazado_15058" data-name="Trazado 15058" d="M47.206,16.319a3.518,3.518,0,0,0-2.7-3.413V11H42.7v1.907a3.512,3.512,0,0,0-.3,6.75l1.825.609a1.716,1.716,0,0,1-.542,3.345h-.169A1.718,1.718,0,0,1,41.8,21.895v-.986H40v.986a3.518,3.518,0,0,0,2.7,3.413v1.906h1.8V25.307a3.512,3.512,0,0,0,.3-6.75l-1.825-.609a1.716,1.716,0,0,1,.542-3.345h.169A1.718,1.718,0,0,1,45.4,16.319V16.4Z" transform="translate(-3.87 -0.992)" fill="#97181a"/>
        <path id="Trazado_15059" data-name="Trazado 15059" d="M56.848,18.115a17.115,17.115,0,1,0-33.3,5.5l-1.306.522-2.891-7.71a6.311,6.311,0,1,0-6.723-.421l-5.4,10.312a3.638,3.638,0,1,0,1.593.842l5.4-10.317a6.19,6.19,0,0,0,3.442.216L21.2,26.5l3.019-1.208A17.165,17.165,0,0,0,36.13,34.84V55.046h-3.6V46.039h.344a2.359,2.359,0,0,0,2.11-3.413l-3.046-6.093a2.359,2.359,0,0,0-4.219,0l-3.046,6.093a2.359,2.359,0,0,0,2.11,3.413h.344v9.008H20.817V39.733h.344a2.359,2.359,0,0,0,2.11-3.413l-3.046-6.093a2.359,2.359,0,0,0-4.219,0L12.959,36.32a2.359,2.359,0,0,0,2.11,3.413h.344V55.046H9.107V47.84h.344a2.359,2.359,0,0,0,2.11-3.413L8.514,38.334a2.359,2.359,0,0,0-4.219,0L1.249,44.427a2.359,2.359,0,0,0,2.11,3.413H3.7v9.008H43.336V34.84A17.139,17.139,0,0,0,56.848,18.115ZM6.4,31.626a1.8,1.8,0,1,1,1.8-1.8A1.8,1.8,0,0,1,6.4,31.626Zm5.4-20.718a4.5,4.5,0,1,1,4.5,4.5A4.509,4.509,0,0,1,11.809,10.908Zm-4.5,44.138H5.5V46.039H3.358a.557.557,0,0,1-.557-.557.551.551,0,0,1,.059-.249l3.046-6.093a.577.577,0,0,1,1,0l3.046,6.093a.538.538,0,0,1,.059.249.557.557,0,0,1-.557.557H7.305ZM51.4,17.214a11.643,11.643,0,0,0-2.782-6.708l2.546-2.546A15.23,15.23,0,0,1,55,17.214ZM39.733,28.023a9.908,9.908,0,1,1,9.908-9.908A9.92,9.92,0,0,1,39.733,28.023ZM47.342,9.232a11.643,11.643,0,0,0-6.708-2.782v-3.6a15.233,15.233,0,0,1,9.255,3.838Zm-8.51-2.782a11.643,11.643,0,0,0-6.708,2.782L29.578,6.686a15.23,15.23,0,0,1,9.255-3.838v3.6Zm-7.982,4.055a11.646,11.646,0,0,0-2.782,6.708h-3.6A15.223,15.223,0,0,1,28.3,7.959Zm-2.782,8.51a11.643,11.643,0,0,0,2.782,6.708L28.3,28.27a15.23,15.23,0,0,1-3.838-9.255ZM32.124,27a11.646,11.646,0,0,0,6.708,2.782v3.6a15.233,15.233,0,0,1-9.255-3.838Zm8.51,2.782A11.643,11.643,0,0,0,47.342,27l2.546,2.546a15.23,15.23,0,0,1-9.255,3.838v-3.6Zm7.982-4.055A11.646,11.646,0,0,0,51.4,19.015H55a15.223,15.223,0,0,1-3.838,9.255ZM26.778,44.237a.557.557,0,0,1-.557-.557.551.551,0,0,1,.059-.249l3.046-6.093a.577.577,0,0,1,1,0l3.046,6.093a.538.538,0,0,1,.059.249.557.557,0,0,1-.557.557H30.725V55.046h-1.8V44.237Zm-11.71-6.305a.557.557,0,0,1-.5-.805l3.046-6.093a.577.577,0,0,1,1,0l3.046,6.093a.538.538,0,0,1,.059.249.557.557,0,0,1-.557.557H19.015V55.046h-1.8V37.932ZM41.535,55.046h-3.6V35.133a16.885,16.885,0,0,0,3.6,0Z" fill="#97181a"/>
        <path id="Trazado_15060" data-name="Trazado 15060" d="M17.7,9a2.7,2.7,0,1,0,2.7,2.7A2.706,2.706,0,0,0,17.7,9Zm0,3.6a.9.9,0,1,1,.9-.9A.9.9,0,0,1,17.7,12.6Z" transform="translate(-1.389 -0.794)" fill="#97181a"/>
      </g>
    </g>
  </g>
</svg>
