<svg xmlns="http://www.w3.org/2000/svg" width="75" height="69.476" viewBox="0 0 75 69.476">
  <g id="Grupo_18073" data-name="Grupo 18073" transform="translate(-235 -8146)">
    <circle id="Elipse_797" data-name="Elipse 797" cx="28.5" cy="28.5" r="28.5" transform="translate(235 8146)" fill="#efd6d0"/>
    <g id="analytics" transform="translate(247.103 8160.965)">
      <path id="Trazado_17138" data-name="Trazado 17138" d="M58.7.5H4.193A4.193,4.193,0,0,0,0,4.693V40.335a4.193,4.193,0,0,0,4.193,4.193H24.8l-2.516,8.386H19.917v2.1H42.98v-2.1H40.615L38.1,44.528H58.7A4.193,4.193,0,0,0,62.9,40.335V4.693A4.193,4.193,0,0,0,58.7.5ZM38.426,52.914H24.472l2.516-8.386H35.91ZM60.8,40.335a2.1,2.1,0,0,1-2.1,2.1H4.193a2.1,2.1,0,0,1-2.1-2.1v-2.1H60.8Zm0-4.193H2.1V4.693a2.1,2.1,0,0,1,2.1-2.1H58.7a2.1,2.1,0,0,1,2.1,2.1Zm0,0" transform="translate(0 -0.5)" fill="#97181a"/>
      <path id="Trazado_17139" data-name="Trazado 17139" d="M40,32.5h2.1v2.1H40Zm0,0" transform="translate(-34.759 -28.307)" fill="#97181a"/>
      <path id="Trazado_17140" data-name="Trazado 17140" d="M72,32.5h2.1v2.1H72Zm0,0" transform="translate(-62.565 -28.307)" fill="#97181a"/>
      <path id="Trazado_17141" data-name="Trazado 17141" d="M104,32.5h2.1v2.1H104Zm0,0" transform="translate(-90.372 -28.307)" fill="#97181a"/>
      <path id="Trazado_17142" data-name="Trazado 17142" d="M53.464,68.174a12.58,12.58,0,1,0,0,17.789,12.579,12.579,0,0,0,0-17.789ZM37.157,69.657A10.482,10.482,0,0,1,51.2,68.952l-7.069,7.07h-10a10.4,10.4,0,0,1,3.019-6.364Zm-3.019,8.461h7.9L36.452,83.7A10.382,10.382,0,0,1,34.138,78.118ZM44.57,87.553a10.411,10.411,0,0,1-6.635-2.365l6.635-6.636L51.2,85.188A10.411,10.411,0,0,1,44.57,87.553ZM52.687,83.7,46.052,77.07l6.635-6.635a10.483,10.483,0,0,1,0,13.27Zm0,0" transform="translate(-27.797 -56.104)" fill="#97181a"/>
      <path id="Trazado_17143" data-name="Trazado 17143" d="M245.242,167.09l3.725,1.868a1.065,1.065,0,0,0,1.21-.2l3.452-3.452,3.452,3.452a1.028,1.028,0,0,0,.845.3,1.048,1.048,0,0,0,.768-.461l3.321-4.985,3.321,4.981,1.744-1.163-4.193-6.29a1.089,1.089,0,0,0-1.744,0l-3.483,5.229-3.29-3.289a1.049,1.049,0,0,0-1.482,0l-3.658,3.659-3.519-1.764a1.047,1.047,0,0,0-.937,0l-2.677,1.344v-4.593H240v10.483a1.048,1.048,0,0,0,1.048,1.048h25.159v-2.1H242.1v-2.5Zm0,0" transform="translate(-208.551 -139.71)" fill="#97181a"/>
      <path id="Trazado_17144" data-name="Trazado 17144" d="M241.049,61.276h25.159v-2.1H242.1v-2.5l3.145-1.572,3.725,1.868a1.048,1.048,0,0,0,1.341-.356l3.321-4.99,3.321,4.981a1.048,1.048,0,0,0,.767.47,1.024,1.024,0,0,0,.845-.3l3.453-3.457,3.452,3.452,1.482-1.482L262.756,51.1a1.049,1.049,0,0,0-1.482,0l-3.29,3.289L254.5,49.163a1.089,1.089,0,0,0-1.744,0l-3.68,5.52L245.71,53a1.047,1.047,0,0,0-.937,0L242.1,54.339V49.745H240V60.228a1.048,1.048,0,0,0,1.048,1.048Zm0,0" transform="translate(-208.552 -42.407)" fill="#97181a"/>
    </g>
  </g>
</svg>
