<svg xmlns="http://www.w3.org/2000/svg" width="74.201" height="69.887" viewBox="0 0 74.201 69.887">
  <g id="Grupo_18072" data-name="Grupo 18072" transform="translate(-235 -8018)">
    <circle id="Elipse_797" data-name="Elipse 797" cx="30.5" cy="30.5" r="30.5" transform="translate(235 8018)" fill="#efd6d0"/>
    <g id="shopping-online" transform="translate(247.926 8026.597)">
      <path id="Trazado_17120" data-name="Trazado 17120" d="M60.244,290.306H58.2v-2.042H56.16v2.042H54.117v-2.042H52.075v2.042h-15.2a2.853,2.853,0,0,0-2.571,1.586.818.818,0,0,1-.738.456H27.69a.817.817,0,0,1-.738-.456,2.852,2.852,0,0,0-2.566-1.586H9.189v-18.38H7.147v18.38H5.1v-18.38H3.063v18.38H1.02A1.021,1.021,0,0,0,0,291.327v3.063a4.085,4.085,0,0,0,4.084,4.084h53.1a4.085,4.085,0,0,0,4.084-4.084v-3.063a1.021,1.021,0,0,0-1.021-1.021Zm-1.021,4.084a2.042,2.042,0,0,1-2.042,2.042H4.084a2.042,2.042,0,0,1-2.042-2.042v-2.042H24.385a.817.817,0,0,1,.738.456,2.853,2.853,0,0,0,2.566,1.586h5.885a2.852,2.852,0,0,0,2.571-1.586.818.818,0,0,1,.733-.456H59.223Zm0,0" transform="translate(0 -237.184)" fill="#97181a"/>
      <path id="Trazado_17121" data-name="Trazado 17121" d="M47.485,113.968v-2.042H29.105A5.111,5.111,0,0,0,24,117.031v1.021h2.042v-1.021a3.063,3.063,0,0,1,3.063-3.063Zm0,0" transform="translate(-20.937 -97.606)" fill="#97181a"/>
      <path id="Trazado_17122" data-name="Trazado 17122" d="M56,145.968H77.443v-2.042h-19.4A2.042,2.042,0,0,0,56,145.968Zm0,0" transform="translate(-48.853 -125.522)" fill="#97181a"/>
      <path id="Trazado_17123" data-name="Trazado 17123" d="M253.333,12.877l1.226-3.862a1.021,1.021,0,0,0-.753-1.308l-3.961-.866-.862-3.957a1.021,1.021,0,0,0-1.3-.758L243.816,3.35,241.081.358a1.052,1.052,0,0,0-1.509,0l-2.731,3-3.867-1.23a1.021,1.021,0,0,0-1.308.754L230.8,6.84l-3.953.866a1.021,1.021,0,0,0-.754,1.308l1.226,3.862-3,2.731a1.02,1.02,0,0,0,0,1.509l3,2.731-1.226,3.862a1.021,1.021,0,0,0,.754,1.308l3.961.866.866,3.961a1.022,1.022,0,0,0,1.308.754l3.863-1.23,2.731,3a1.02,1.02,0,0,0,1.509,0l2.73-3,3.863,1.23a1.021,1.021,0,0,0,1.308-.754l.866-3.961,3.961-.866a1.021,1.021,0,0,0,.754-1.308l-1.225-3.862,3-2.731a1.021,1.021,0,0,0,0-1.509Zm-1.859,5.9a1.021,1.021,0,0,0-.285,1.065l1.084,3.419-3.505.767a1.022,1.022,0,0,0-.778.778l-.763,3.5-3.419-1.089a1.027,1.027,0,0,0-1.065.285l-2.416,2.657-2.416-2.655a1.014,1.014,0,0,0-1.06-.285l-3.424,1.086L232.66,24.8a1.022,1.022,0,0,0-.778-.778l-3.5-.763,1.089-3.419a1.021,1.021,0,0,0-.285-1.065l-2.657-2.416,2.655-2.416a1.02,1.02,0,0,0,.285-1.065L228.38,9.462l3.506-.767a1.022,1.022,0,0,0,.778-.778l.763-3.5L236.846,5.5a1.021,1.021,0,0,0,1.065-.285l2.416-2.657,2.416,2.655a1.02,1.02,0,0,0,1.065.285l3.419-1.086.767,3.506a1.022,1.022,0,0,0,.778.778l3.506.767-1.088,3.42a1.021,1.021,0,0,0,.285,1.065l2.653,2.412Zm0,0" transform="translate(-195.399)" fill="#97181a"/>
      <path id="Trazado_17124" data-name="Trazado 17124" d="M306.344,92.481l10.21-10.211L318,83.714,307.788,93.925Zm0,0" transform="translate(-267.244 -71.735)" fill="#97181a"/>
      <path id="Trazado_17125" data-name="Trazado 17125" d="M294.127,82.989a3.063,3.063,0,1,0-3.063,3.063A3.063,3.063,0,0,0,294.127,82.989Zm-4.084,0a1.021,1.021,0,1,1,1.021,1.021A1.021,1.021,0,0,1,290.042,82.989Zm0,0" transform="translate(-251.241 -69.69)" fill="#97181a"/>
      <path id="Trazado_17126" data-name="Trazado 17126" d="M371.063,127.926a3.063,3.063,0,1,0,3.063,3.063A3.063,3.063,0,0,0,371.063,127.926Zm0,4.084a1.021,1.021,0,1,1,1.021-1.021A1.021,1.021,0,0,1,371.063,132.01Zm0,0" transform="translate(-321.03 -111.564)" fill="#97181a"/>
      <path id="Trazado_17127" data-name="Trazado 17127" d="M103.252,213.873a1.013,1.013,0,0,0-.95.267L92.336,224l-2.423,1.442a3.924,3.924,0,0,0,1.478,7.277l2.127,4.3a1.02,1.02,0,0,0,.919.569h4.017a1.021,1.021,0,0,0,.937-1.429l-2.114-4.88,11.1.184h.017a1.021,1.021,0,0,0,.965-1.354l-5.374-15.582a1.021,1.021,0,0,0-.733-.661ZM90.117,229.427a1.882,1.882,0,0,1,.838-2.231l1.595-.946,1.786,3.532-1.512.748a1.955,1.955,0,0,1-1.621.053,1.892,1.892,0,0,1-1.085-1.156Zm4.954,6.127-1.544-3.119c.064-.028.134-.039.2-.071l1.473-.729,1.7,3.919Zm1.274-6.322-2.128-4.213,8.373-8.285,4.37,12.67Zm0,0" transform="translate(-76.741 -186.517)" fill="#97181a"/>
      <path id="Trazado_17128" data-name="Trazado 17128" d="M249.281,265.943l3.377-1.174.67,1.928-3.376,1.174Zm0,0" transform="translate(-217.464 -230.941)" fill="#97181a"/>
      <path id="Trazado_17129" data-name="Trazado 17129" d="M228.492,204.738l2.252-2.347,1.474,1.414-2.253,2.347Zm0,0" transform="translate(-199.329 -176.524)" fill="#97181a"/>
      <path id="Trazado_17130" data-name="Trazado 17130" d="M272,327.926h3.063v2.042H272Zm0,0" transform="translate(-237.283 -286.037)" fill="#97181a"/>
      <path id="Trazado_17131" data-name="Trazado 17131" d="M332.422,223.074H330.38v-7.148h-2.042v7.148H326.3v-2.042h-2.042v2.042H313.021A1.021,1.021,0,0,0,312,224.095v12.253a1.021,1.021,0,0,0,1.021,1.021h19.4a1.021,1.021,0,0,0,1.021-1.021V224.095A1.021,1.021,0,0,0,332.422,223.074ZM331.4,235.327H314.042V225.116H331.4Zm0,0" transform="translate(-272.178 -188.332)" fill="#97181a"/>
      <path id="Trazado_17132" data-name="Trazado 17132" d="M344,303.926h4.084v2.042H344Zm0,0" transform="translate(-300.094 -265.1)" fill="#97181a"/>
      <path id="Trazado_17133" data-name="Trazado 17133" d="M392,303.926h7.148v2.042H392Zm0,0" transform="translate(-341.967 -265.1)" fill="#97181a"/>
      <path id="Trazado_17134" data-name="Trazado 17134" d="M344,335.926h13.274v2.042H344Zm0,0" transform="translate(-300.094 -293.016)" fill="#97181a"/>
      <path id="Trazado_17135" data-name="Trazado 17135" d="M1.021,186.137H16.337a1.021,1.021,0,0,0,1.021-1.021v-8.169a1.021,1.021,0,0,0-1.021-1.021H1.021A1.021,1.021,0,0,0,0,176.947v8.169A1.021,1.021,0,0,0,1.021,186.137Zm1.021-8.169H15.316v6.127H2.042Zm0,0" transform="translate(-0.001 -153.437)" fill="#97181a"/>
      <path id="Trazado_17136" data-name="Trazado 17136" d="M32,207.926h2.042v2.042H32Zm0,0" transform="translate(-27.916 -181.353)" fill="#97181a"/>
      <path id="Trazado_17137" data-name="Trazado 17137" d="M64,207.926h5.105v2.042H64Zm0,0" transform="translate(-55.832 -181.353)" fill="#97181a"/>
    </g>
  </g>
</svg>
