<svg xmlns="http://www.w3.org/2000/svg" width="73.75" height="70.998" viewBox="0 0 73.75 70.998">
  <g id="Grupo_18082" data-name="Grupo 18082" transform="translate(-235 -13040)">
    <circle id="Elipse_797" data-name="Elipse 797" cx="30.5" cy="30.5" r="30.5" transform="translate(235 13040)" fill="#f8e9e5"/>
    <g id="branding" transform="translate(216.972 13042)">
      <g id="Grupo_13500" data-name="Grupo 13500" transform="translate(54.979 32.199)">
        <g id="Grupo_13499" data-name="Grupo 13499">
          <path id="Trazado_15100" data-name="Trazado 15100" d="M205.619,229.086a1.149,1.149,0,0,0-.886-.486l-3.586-.169-1.12-3.622a1.15,1.15,0,0,0-2.2,0l-1.12,3.622-3.586.169a1.15,1.15,0,0,0-.609,2.088h0l2.87,2.026-1.11,3.6a1.15,1.15,0,0,0,1.8,1.253l2.855-2.181,2.855,2.181a1.15,1.15,0,0,0,1.8-1.253l-1.11-3.6,2.87-2.026A1.15,1.15,0,0,0,205.619,229.086Zm-5.155,2.231a1.148,1.148,0,0,0-.436,1.279l.294.956-.694-.531a1.15,1.15,0,0,0-1.4,0l-.694.531.294-.956a1.148,1.148,0,0,0-.436-1.279l-.816-.577,1.047-.049a1.15,1.15,0,0,0,1.044-.809l.259-.838.259.838a1.15,1.15,0,0,0,1.044.809l1.047.049Z" transform="translate(-192.03 -223.998)" fill="#97181a"/>
        </g>
      </g>
      <g id="Grupo_13502" data-name="Grupo 13502" transform="translate(31.972 0)">
        <g id="Grupo_13501" data-name="Grupo 13501" transform="translate(0 0)">
          <path id="Trazado_15101" data-name="Trazado 15101" d="M71.511,10.8l3.952-5.533a1.15,1.15,0,0,0-1.1-1.806L66.885,4.53,62.692.337a1.149,1.149,0,0,0-1.626,0h0L56.872,4.53l-7.48-1.069a1.149,1.149,0,0,0-1.1,1.806L52.246,10.8a29.9,29.9,0,1,0,19.265,0ZM83.4,21.85A27.458,27.458,0,0,1,89.375,36.8h-4.5v-8.05a1.15,1.15,0,0,0-1.149-1.15H72.522a57.349,57.349,0,0,0-1.17-5.75ZM41.179,48.3V29.9h41.4V48.3ZM70.2,50.6a53.3,53.3,0,0,1-1.229,5.75H54.79a53.3,53.3,0,0,1-1.229-5.75ZM68.967,21.85A53.3,53.3,0,0,1,70.2,27.6H53.561a53.3,53.3,0,0,1,1.229-5.75Zm-13.458-2.3c1.716-4.979,4.022-8.05,6.369-8.05s4.653,3.07,6.369,8.05Zm25.83,0H70.683a22.729,22.729,0,0,0-3.828-7.591A27.557,27.557,0,0,1,81.34,19.55ZM51.727,6.118l5.389.77a1.134,1.134,0,0,0,.976-.325l3.787-3.787,3.787,3.787a1.137,1.137,0,0,0,.976.325l5.389-.77-2.848,3.987a29.9,29.9,0,0,0-14.607,0Zm5.175,5.84a22.731,22.731,0,0,0-3.828,7.591H42.418A27.558,27.558,0,0,1,56.9,11.958ZM40.357,21.85H52.4a57.349,57.349,0,0,0-1.17,5.75H40.029a1.15,1.15,0,0,0-1.15,1.149h0V36.8h-4.5A27.457,27.457,0,0,1,40.357,21.85Zm0,34.5A27.46,27.46,0,0,1,34.28,39.1h4.6v10.35a1.15,1.15,0,0,0,1.149,1.15H51.235a57.318,57.318,0,0,0,1.17,5.75Zm2.061,2.3H53.074A22.729,22.729,0,0,0,56.9,66.24,27.558,27.558,0,0,1,42.418,58.648ZM61.879,66.7c-2.348,0-4.653-3.07-6.37-8.05H68.248C66.532,63.628,64.226,66.7,61.879,66.7Zm4.977-.458a22.731,22.731,0,0,0,3.828-7.591H81.34A27.558,27.558,0,0,1,66.856,66.24Zm4.5-9.891a57.358,57.358,0,0,0,1.17-5.75H83.728a1.15,1.15,0,0,0,1.15-1.149h0V39.1h4.6A27.46,27.46,0,0,1,83.4,56.348Z" transform="translate(-31.972 0)" fill="#97181a"/>
        </g>
      </g>
    </g>
  </g>
</svg>
