<svg xmlns="http://www.w3.org/2000/svg" width="75.034" height="71.229" viewBox="0 0 75.034 71.229">
  <g id="Grupo_18083" data-name="Grupo 18083" transform="translate(-235 -13227)">
    <circle id="Elipse_797" data-name="Elipse 797" cx="30.5" cy="30.5" r="30.5" transform="translate(235 13227)" fill="#f8e9e5"/>
    <g id="distribucion" transform="translate(227.374 13215.568)">
      <path id="Trazado_15081" data-name="Trazado 15081" d="M48,368h3.333v2.222H48Z" transform="translate(-27.556 -303.116)" fill="#97181a"/>
      <path id="Trazado_15082" data-name="Trazado 15082" d="M120,368h3.333v2.222H120Z" transform="translate(-89.557 -303.116)" fill="#97181a"/>
      <path id="Trazado_15083" data-name="Trazado 15083" d="M48,408h3.333v2.222H48Z" transform="translate(-27.556 -337.561)" fill="#97181a"/>
      <path id="Trazado_15084" data-name="Trazado 15084" d="M120,408h3.333v2.222H120Z" transform="translate(-89.557 -337.561)" fill="#97181a"/>
      <path id="Trazado_15085" data-name="Trazado 15085" d="M48,448h3.333v2.222H48Z" transform="translate(-27.556 -372.006)" fill="#97181a"/>
      <path id="Trazado_15086" data-name="Trazado 15086" d="M120,448h3.333v2.222H120Z" transform="translate(-89.557 -372.006)" fill="#97181a"/>
      <path id="Trazado_15087" data-name="Trazado 15087" d="M200,408h2.222v2.222H200Z" transform="translate(-158.447 -337.561)" fill="#97181a"/>
      <path id="Trazado_15088" data-name="Trazado 15088" d="M232,408h2.222v2.222H232Z" transform="translate(-186.003 -337.561)" fill="#97181a"/>
      <path id="Trazado_15089" data-name="Trazado 15089" d="M264,408h2.222v2.222H264Z" transform="translate(-213.559 -337.561)" fill="#97181a"/>
      <path id="Trazado_15090" data-name="Trazado 15090" d="M264,440h2.222v2.222H264Z" transform="translate(-213.559 -365.117)" fill="#97181a"/>
      <path id="Trazado_15091" data-name="Trazado 15091" d="M232,440h2.222v2.222H232Z" transform="translate(-186.003 -365.117)" fill="#97181a"/>
      <path id="Trazado_15092" data-name="Trazado 15092" d="M200,440h2.222v2.222H200Z" transform="translate(-158.447 -365.117)" fill="#97181a"/>
      <path id="Trazado_15093" data-name="Trazado 15093" d="M17.111,158.437h40a1.111,1.111,0,0,0,1.111-1.111V141.772a1.1,1.1,0,0,0-.223-.666h0l-3.333-4.444a1.111,1.111,0,0,0-.889-.444H38.22v-4.444a1.111,1.111,0,0,0-1.651-.971l-8.349,4.638v-3.667a1.111,1.111,0,0,0-1.651-.971l-2.794,1.552v-22.8a1.112,1.112,0,0,1,1.111-1.111h11.3a3.333,3.333,0,1,0,0-2.222h-11.3a3.337,3.337,0,0,0-3.333,3.333v24.035l-4.971,2.762-.007,0-.006,0h0a1.11,1.11,0,0,0-.572.971v20a1.111,1.111,0,0,0,1.111,1.111Zm22.22-52.217a1.111,1.111,0,1,1-1.111,1.111,1.111,1.111,0,0,1,1.111-1.111ZM18.222,138.439H26v17.776H18.222ZM36,156.215H28.221V138.439H36Zm20,0H38.22V142.883H56Zm-1.111-15.554H38.22v-2.222h15ZM36,136.217H31.4l4.6-2.556Zm-10,0H21.4l4.6-2.556Z" transform="translate(0 -75.777)" fill="#97181a"/>
      <path id="Trazado_15094" data-name="Trazado 15094" d="M268.886,109.555h-3.333v-4.444A1.111,1.111,0,0,0,264.442,104H241.111A1.111,1.111,0,0,0,240,105.111v13.332a1.106,1.106,0,0,0,.187.616h0l0,0,0,0,2.218,3.326a1.111,1.111,0,0,0,.924.495h2.413a3.332,3.332,0,0,0,6.284,0h1.493a3.332,3.332,0,0,0,6.284,0h7.048a3.332,3.332,0,0,0,6.284,0h1.3a1.111,1.111,0,0,0,1.111-1.111v-5.555A6.674,6.674,0,0,0,268.886,109.555Zm4.3,5.555h-2.081A1.112,1.112,0,0,1,270,114v-2.081A4.461,4.461,0,0,1,273.189,115.11Zm-30.967-8.888h21.109v11.11H242.222Zm9.148,13.332h2.814a3.335,3.335,0,0,0-.66,1.111H252.03A3.335,3.335,0,0,0,251.37,119.554Zm-8.183,0h3.22a3.335,3.335,0,0,0-.66,1.111h-1.819Zm5.7,3.333A1.111,1.111,0,1,1,250,121.776,1.111,1.111,0,0,1,248.888,122.887Zm7.777,0a1.111,1.111,0,1,1,1.111-1.111A1.111,1.111,0,0,1,256.665,122.887Zm3.142-2.222a3.335,3.335,0,0,0-.66-1.111h4.184v1.111ZM270,122.887a1.111,1.111,0,1,1,1.111-1.111A1.111,1.111,0,0,1,270,122.887Zm3.142-2.222a3.332,3.332,0,0,0-6.284,0h-1.3v-8.888h2.222V114a3.337,3.337,0,0,0,3.333,3.333h2.222v3.333Z" transform="translate(-192.892 -75.779)" fill="#97181a"/>
      <path id="Trazado_15095" data-name="Trazado 15095" d="M106.222,18.222h10v5.555a1.111,1.111,0,0,0,1.727.924l2.717-1.811,2.717,1.811a1.111,1.111,0,0,0,1.727-.924V18.222h10V26h2.222V17.111A1.111,1.111,0,0,0,136.219,16H105.111A1.111,1.111,0,0,0,104,17.111v11.11h2.222ZM122.887,21.7l-1.606-1.07a1.111,1.111,0,0,0-1.233,0l-1.606,1.07V18.222h4.444Z" transform="translate(-75.779)" fill="#97181a"/>
      <path id="Trazado_15096" data-name="Trazado 15096" d="M104,152v12.221a1.111,1.111,0,0,0,1.111,1.111h17.776V163.11H106.222V152Z" transform="translate(-75.779 -117.113)" fill="#97181a"/>
      <path id="Trazado_15097" data-name="Trazado 15097" d="M136,168h2.222v2.222H136Z" transform="translate(-103.335 -130.891)" fill="#97181a"/>
      <path id="Trazado_15098" data-name="Trazado 15098" d="M168,168h4.444v2.222H168Z" transform="translate(-130.891 -130.891)" fill="#97181a"/>
      <path id="Trazado_15099" data-name="Trazado 15099" d="M136,200h10v2.222H136Z" transform="translate(-103.335 -158.447)" fill="#97181a"/>
    </g>
  </g>
</svg>
