<svg xmlns="http://www.w3.org/2000/svg" width="894" height="86" viewBox="0 0 894 86">
  <g id="Grupo_13460" data-name="Grupo 13460" transform="translate(-235 -20979)">
    <rect id="Rectángulo_3105" data-name="Rectángulo 3105" width="211" height="86" transform="translate(235 20979)" fill="#eef0f2"/>
    <rect id="Rectángulo_3106" data-name="Rectángulo 3106" width="211" height="86" transform="translate(463 20979)" fill="#eef0f2"/>
    <rect id="Rectángulo_3107" data-name="Rectángulo 3107" width="211" height="86" transform="translate(691 20979)" fill="#eef0f2"/>
    <rect id="Rectángulo_3108" data-name="Rectángulo 3108" width="211" height="86" transform="translate(918 20979)" fill="#eef0f2"/>
    <path id="Trazado_17274" data-name="Trazado 17274" d="M52.294,22H49.179V13.621q0-1.357.117-3h-.078a14.753,14.753,0,0,1-.439,1.855L45.5,22H42.919l-3.34-9.424a18.339,18.339,0,0,1-.439-1.953h-.088q.127,2.07.127,3.633V22H36.337V8h4.619l2.861,8.3a11.687,11.687,0,0,1,.5,2h.059a20.158,20.158,0,0,1,.557-2.021L47.792,8h4.5Zm11.2,0h-2.92V20.564h-.039a3.259,3.259,0,0,1-2.979,1.68,3.116,3.116,0,0,1-2.29-.825,2.957,2.957,0,0,1-.835-2.2q0-2.91,3.447-3.359l2.715-.361q0-1.641-1.777-1.641a6.067,6.067,0,0,0-3.4,1.064V12.6a7.646,7.646,0,0,1,1.763-.586,9.266,9.266,0,0,1,2.036-.254q4.277,0,4.277,4.268Zm-2.9-4.062v-.674l-1.816.234q-1.5.2-1.5,1.357a1.122,1.122,0,0,0,.366.864,1.407,1.407,0,0,0,.991.337,1.827,1.827,0,0,0,1.416-.6A2.169,2.169,0,0,0,60.595,17.938ZM72.46,14.783a2.677,2.677,0,0,0-1.3-.3,1.871,1.871,0,0,0-1.572.737,3.217,3.217,0,0,0-.566,2.007V22H65.937V12h3.086v1.855h.039A2.67,2.67,0,0,1,71.7,11.824a1.987,1.987,0,0,1,.762.117ZM83.915,22h-3.7l-3.193-4.961h-.039V22H73.9V7.2h3.086v9.424h.039L80,12h3.662l-3.584,4.7Zm9.863-4.121H87.255q.156,2.178,2.744,2.178a5.357,5.357,0,0,0,2.9-.781V21.5a7.619,7.619,0,0,1-3.6.742,5.073,5.073,0,0,1-3.76-1.343A5.073,5.073,0,0,1,84.2,17.156a5.352,5.352,0,0,1,1.445-3.945A4.815,4.815,0,0,1,89.2,11.756a4.37,4.37,0,0,1,3.384,1.3,5,5,0,0,1,1.2,3.525Zm-2.861-1.895q0-2.148-1.738-2.148a1.66,1.66,0,0,0-1.284.615,2.792,2.792,0,0,0-.659,1.533Zm10.742,5.9a4.561,4.561,0,0,1-2.061.361q-3.262,0-3.262-3.389v-4.58H94.716V12h1.621V9.842l3.076-.879V12h2.246v2.275H99.413v4.043q0,1.562,1.24,1.563a2.091,2.091,0,0,0,1.006-.283Zm3.3-11.465a1.8,1.8,0,0,1-1.279-.464,1.5,1.5,0,0,1-.5-1.138,1.441,1.441,0,0,1,.5-1.133,2.089,2.089,0,0,1,2.563,0,1.448,1.448,0,0,1,.493,1.133,1.489,1.489,0,0,1-.493,1.152A1.833,1.833,0,0,1,104.96,10.418ZM106.483,22H103.4V12h3.086Zm12.256,0h-3.076V16.443q0-2.324-1.66-2.324a1.647,1.647,0,0,0-1.318.615,2.344,2.344,0,0,0-.518,1.563V22h-3.086V12h3.086v1.582h.039a3.536,3.536,0,0,1,3.213-1.826q3.32,0,3.32,4.121Zm12.246-1.143a5.658,5.658,0,0,1-1.611,4.312,6.53,6.53,0,0,1-4.668,1.528,7.4,7.4,0,0,1-3.2-.576v-2.6a6.134,6.134,0,0,0,3.115.9,3.355,3.355,0,0,0,2.422-.825,2.961,2.961,0,0,0,.859-2.241v-.791h-.039a3.446,3.446,0,0,1-3.115,1.68,3.747,3.747,0,0,1-3.037-1.348,5.465,5.465,0,0,1-1.123-3.613,6.087,6.087,0,0,1,1.25-4.033,4.081,4.081,0,0,1,3.291-1.494,3.037,3.037,0,0,1,2.734,1.406h.039V12h3.086ZM127.938,17.2V16.4a2.431,2.431,0,0,0-.562-1.616,1.816,1.816,0,0,0-1.46-.669,1.888,1.888,0,0,0-1.611.8,3.766,3.766,0,0,0-.586,2.256,3.178,3.178,0,0,0,.557,1.978,1.814,1.814,0,0,0,1.523.728,1.888,1.888,0,0,0,1.548-.737A3.023,3.023,0,0,0,127.938,17.2Z" transform="translate(257 20998)" fill="#002b45"/>
    <path id="Trazado_17275" data-name="Trazado 17275" d="M52.294,22H49.179V13.621q0-1.357.117-3h-.078a14.753,14.753,0,0,1-.439,1.855L45.5,22H42.919l-3.34-9.424a18.339,18.339,0,0,1-.439-1.953h-.088q.127,2.07.127,3.633V22H36.337V8h4.619l2.861,8.3a11.687,11.687,0,0,1,.5,2h.059a20.158,20.158,0,0,1,.557-2.021L47.792,8h4.5Zm11.2,0h-2.92V20.564h-.039a3.259,3.259,0,0,1-2.979,1.68,3.116,3.116,0,0,1-2.29-.825,2.957,2.957,0,0,1-.835-2.2q0-2.91,3.447-3.359l2.715-.361q0-1.641-1.777-1.641a6.067,6.067,0,0,0-3.4,1.064V12.6a7.646,7.646,0,0,1,1.763-.586,9.266,9.266,0,0,1,2.036-.254q4.277,0,4.277,4.268Zm-2.9-4.062v-.674l-1.816.234q-1.5.2-1.5,1.357a1.122,1.122,0,0,0,.366.864,1.407,1.407,0,0,0,.991.337,1.827,1.827,0,0,0,1.416-.6A2.169,2.169,0,0,0,60.595,17.938ZM72.46,14.783a2.677,2.677,0,0,0-1.3-.3,1.871,1.871,0,0,0-1.572.737,3.217,3.217,0,0,0-.566,2.007V22H65.937V12h3.086v1.855h.039A2.67,2.67,0,0,1,71.7,11.824a1.987,1.987,0,0,1,.762.117ZM83.915,22h-3.7l-3.193-4.961h-.039V22H73.9V7.2h3.086v9.424h.039L80,12h3.662l-3.584,4.7Zm9.863-4.121H87.255q.156,2.178,2.744,2.178a5.357,5.357,0,0,0,2.9-.781V21.5a7.619,7.619,0,0,1-3.6.742,5.073,5.073,0,0,1-3.76-1.343A5.073,5.073,0,0,1,84.2,17.156a5.352,5.352,0,0,1,1.445-3.945A4.815,4.815,0,0,1,89.2,11.756a4.37,4.37,0,0,1,3.384,1.3,5,5,0,0,1,1.2,3.525Zm-2.861-1.895q0-2.148-1.738-2.148a1.66,1.66,0,0,0-1.284.615,2.792,2.792,0,0,0-.659,1.533Zm10.742,5.9a4.561,4.561,0,0,1-2.061.361q-3.262,0-3.262-3.389v-4.58H94.716V12h1.621V9.842l3.076-.879V12h2.246v2.275H99.413v4.043q0,1.562,1.24,1.563a2.091,2.091,0,0,0,1.006-.283Zm3.3-11.465a1.8,1.8,0,0,1-1.279-.464,1.5,1.5,0,0,1-.5-1.138,1.441,1.441,0,0,1,.5-1.133,2.089,2.089,0,0,1,2.563,0,1.448,1.448,0,0,1,.493,1.133,1.489,1.489,0,0,1-.493,1.152A1.833,1.833,0,0,1,104.96,10.418ZM106.483,22H103.4V12h3.086Zm12.256,0h-3.076V16.443q0-2.324-1.66-2.324a1.647,1.647,0,0,0-1.318.615,2.344,2.344,0,0,0-.518,1.563V22h-3.086V12h3.086v1.582h.039a3.536,3.536,0,0,1,3.213-1.826q3.32,0,3.32,4.121Zm12.246-1.143a5.658,5.658,0,0,1-1.611,4.312,6.53,6.53,0,0,1-4.668,1.528,7.4,7.4,0,0,1-3.2-.576v-2.6a6.134,6.134,0,0,0,3.115.9,3.355,3.355,0,0,0,2.422-.825,2.961,2.961,0,0,0,.859-2.241v-.791h-.039a3.446,3.446,0,0,1-3.115,1.68,3.747,3.747,0,0,1-3.037-1.348,5.465,5.465,0,0,1-1.123-3.613,6.087,6.087,0,0,1,1.25-4.033,4.081,4.081,0,0,1,3.291-1.494,3.037,3.037,0,0,1,2.734,1.406h.039V12h3.086ZM127.938,17.2V16.4a2.431,2.431,0,0,0-.562-1.616,1.816,1.816,0,0,0-1.46-.669,1.888,1.888,0,0,0-1.611.8,3.766,3.766,0,0,0-.586,2.256,3.178,3.178,0,0,0,.557,1.978,1.814,1.814,0,0,0,1.523.728,1.888,1.888,0,0,0,1.548-.737A3.023,3.023,0,0,0,127.938,17.2Z" transform="translate(485 20998)" fill="#002b45"/>
    <path id="Trazado_17276" data-name="Trazado 17276" d="M52.294,22H49.179V13.621q0-1.357.117-3h-.078a14.753,14.753,0,0,1-.439,1.855L45.5,22H42.919l-3.34-9.424a18.339,18.339,0,0,1-.439-1.953h-.088q.127,2.07.127,3.633V22H36.337V8h4.619l2.861,8.3a11.687,11.687,0,0,1,.5,2h.059a20.158,20.158,0,0,1,.557-2.021L47.792,8h4.5Zm11.2,0h-2.92V20.564h-.039a3.259,3.259,0,0,1-2.979,1.68,3.116,3.116,0,0,1-2.29-.825,2.957,2.957,0,0,1-.835-2.2q0-2.91,3.447-3.359l2.715-.361q0-1.641-1.777-1.641a6.067,6.067,0,0,0-3.4,1.064V12.6a7.646,7.646,0,0,1,1.763-.586,9.266,9.266,0,0,1,2.036-.254q4.277,0,4.277,4.268Zm-2.9-4.062v-.674l-1.816.234q-1.5.2-1.5,1.357a1.122,1.122,0,0,0,.366.864,1.407,1.407,0,0,0,.991.337,1.827,1.827,0,0,0,1.416-.6A2.169,2.169,0,0,0,60.595,17.938ZM72.46,14.783a2.677,2.677,0,0,0-1.3-.3,1.871,1.871,0,0,0-1.572.737,3.217,3.217,0,0,0-.566,2.007V22H65.937V12h3.086v1.855h.039A2.67,2.67,0,0,1,71.7,11.824a1.987,1.987,0,0,1,.762.117ZM83.915,22h-3.7l-3.193-4.961h-.039V22H73.9V7.2h3.086v9.424h.039L80,12h3.662l-3.584,4.7Zm9.863-4.121H87.255q.156,2.178,2.744,2.178a5.357,5.357,0,0,0,2.9-.781V21.5a7.619,7.619,0,0,1-3.6.742,5.073,5.073,0,0,1-3.76-1.343A5.073,5.073,0,0,1,84.2,17.156a5.352,5.352,0,0,1,1.445-3.945A4.815,4.815,0,0,1,89.2,11.756a4.37,4.37,0,0,1,3.384,1.3,5,5,0,0,1,1.2,3.525Zm-2.861-1.895q0-2.148-1.738-2.148a1.66,1.66,0,0,0-1.284.615,2.792,2.792,0,0,0-.659,1.533Zm10.742,5.9a4.561,4.561,0,0,1-2.061.361q-3.262,0-3.262-3.389v-4.58H94.716V12h1.621V9.842l3.076-.879V12h2.246v2.275H99.413v4.043q0,1.562,1.24,1.563a2.091,2.091,0,0,0,1.006-.283Zm3.3-11.465a1.8,1.8,0,0,1-1.279-.464,1.5,1.5,0,0,1-.5-1.138,1.441,1.441,0,0,1,.5-1.133,2.089,2.089,0,0,1,2.563,0,1.448,1.448,0,0,1,.493,1.133,1.489,1.489,0,0,1-.493,1.152A1.833,1.833,0,0,1,104.96,10.418ZM106.483,22H103.4V12h3.086Zm12.256,0h-3.076V16.443q0-2.324-1.66-2.324a1.647,1.647,0,0,0-1.318.615,2.344,2.344,0,0,0-.518,1.563V22h-3.086V12h3.086v1.582h.039a3.536,3.536,0,0,1,3.213-1.826q3.32,0,3.32,4.121Zm12.246-1.143a5.658,5.658,0,0,1-1.611,4.312,6.53,6.53,0,0,1-4.668,1.528,7.4,7.4,0,0,1-3.2-.576v-2.6a6.134,6.134,0,0,0,3.115.9,3.355,3.355,0,0,0,2.422-.825,2.961,2.961,0,0,0,.859-2.241v-.791h-.039a3.446,3.446,0,0,1-3.115,1.68,3.747,3.747,0,0,1-3.037-1.348,5.465,5.465,0,0,1-1.123-3.613,6.087,6.087,0,0,1,1.25-4.033,4.081,4.081,0,0,1,3.291-1.494,3.037,3.037,0,0,1,2.734,1.406h.039V12h3.086ZM127.938,17.2V16.4a2.431,2.431,0,0,0-.562-1.616,1.816,1.816,0,0,0-1.46-.669,1.888,1.888,0,0,0-1.611.8,3.766,3.766,0,0,0-.586,2.256,3.178,3.178,0,0,0,.557,1.978,1.814,1.814,0,0,0,1.523.728,1.888,1.888,0,0,0,1.548-.737A3.023,3.023,0,0,0,127.938,17.2Z" transform="translate(713 20998)" fill="#002b45"/>
    <path id="Trazado_17277" data-name="Trazado 17277" d="M25.438,22H22.323V13.621q0-1.357.117-3h-.078a14.752,14.752,0,0,1-.439,1.855L18.642,22H16.063l-3.34-9.424a18.338,18.338,0,0,1-.439-1.953H12.2q.127,2.07.127,3.633V22H9.481V8H14.1l2.861,8.3a11.687,11.687,0,0,1,.5,2h.059a20.158,20.158,0,0,1,.557-2.021L20.937,8h4.5Zm4.443-11.582A1.8,1.8,0,0,1,28.6,9.954a1.5,1.5,0,0,1-.5-1.138,1.441,1.441,0,0,1,.5-1.133,2.089,2.089,0,0,1,2.563,0,1.448,1.448,0,0,1,.493,1.133,1.489,1.489,0,0,1-.493,1.152A1.833,1.833,0,0,1,29.882,10.418ZM31.405,22H28.319V12h3.086Zm10.176-.361a6.1,6.1,0,0,1-3.018.605,5.1,5.1,0,0,1-3.73-1.4,4.823,4.823,0,0,1-1.426-3.6,5.313,5.313,0,0,1,1.528-4.019,5.648,5.648,0,0,1,4.087-1.47,5.244,5.244,0,0,1,2.559.469v2.617a3.518,3.518,0,0,0-2.158-.723,2.844,2.844,0,0,0-2.1.776,2.9,2.9,0,0,0-.776,2.144,2.85,2.85,0,0,0,.742,2.085,2.728,2.728,0,0,0,2.041.757,4.073,4.073,0,0,0,2.256-.723Zm8.545-6.855a2.677,2.677,0,0,0-1.3-.3,1.871,1.871,0,0,0-1.572.737,3.217,3.217,0,0,0-.566,2.007V22H43.6V12h3.086v1.855h.039a2.67,2.67,0,0,1,2.637-2.031,1.987,1.987,0,0,1,.762.117Zm6.123,7.461a5.376,5.376,0,0,1-3.931-1.4,5.081,5.081,0,0,1-1.431-3.8,5.081,5.081,0,0,1,1.484-3.882,5.609,5.609,0,0,1,4.014-1.4,5.311,5.311,0,0,1,3.906,1.4,4.981,4.981,0,0,1,1.416,3.706,5.288,5.288,0,0,1-1.46,3.936A5.435,5.435,0,0,1,56.249,22.244Zm.078-8.125a2.058,2.058,0,0,0-1.7.752A3.316,3.316,0,0,0,54.022,17q0,2.881,2.324,2.881,2.217,0,2.217-2.959Q58.563,14.119,56.327,14.119ZM79.589,22H76.513V16.3q0-2.178-1.6-2.178a1.471,1.471,0,0,0-1.24.654,2.689,2.689,0,0,0-.479,1.631V22H70.106V16.238q0-2.119-1.572-2.119a1.507,1.507,0,0,0-1.265.625,2.75,2.75,0,0,0-.474,1.7V22H63.71V12H66.8v1.563h.039a3.789,3.789,0,0,1,3.232-1.807,2.88,2.88,0,0,1,2.9,1.865,3.7,3.7,0,0,1,3.359-1.865q3.262,0,3.262,4.023Zm10.762,0h-2.92V20.564h-.039a3.259,3.259,0,0,1-2.979,1.68,3.116,3.116,0,0,1-2.29-.825,2.957,2.957,0,0,1-.835-2.2q0-2.91,3.447-3.359L87.45,15.5q0-1.641-1.777-1.641a6.067,6.067,0,0,0-3.4,1.064V12.6a7.646,7.646,0,0,1,1.763-.586,9.266,9.266,0,0,1,2.036-.254q4.277,0,4.277,4.268Zm-2.9-4.062v-.674l-1.816.234q-1.5.2-1.5,1.357a1.122,1.122,0,0,0,.366.864,1.407,1.407,0,0,0,.991.337,1.827,1.827,0,0,0,1.416-.6A2.169,2.169,0,0,0,87.45,17.938Zm11.865-3.154a2.677,2.677,0,0,0-1.3-.3,1.871,1.871,0,0,0-1.572.737,3.217,3.217,0,0,0-.566,2.007V22H92.792V12h3.086v1.855h.039a2.67,2.67,0,0,1,2.637-2.031,1.987,1.987,0,0,1,.762.117ZM110.771,22h-3.7l-3.193-4.961h-.039V22h-3.086V7.2h3.086v9.424h.039L106.854,12h3.662l-3.584,4.7Zm9.863-4.121H114.11q.156,2.178,2.744,2.178a5.357,5.357,0,0,0,2.9-.781V21.5a7.619,7.619,0,0,1-3.6.742,5.073,5.073,0,0,1-3.76-1.343,5.073,5.073,0,0,1-1.338-3.745,5.352,5.352,0,0,1,1.445-3.945,4.815,4.815,0,0,1,3.555-1.455,4.37,4.37,0,0,1,3.384,1.3,5,5,0,0,1,1.2,3.525Zm-2.861-1.895q0-2.148-1.738-2.148a1.66,1.66,0,0,0-1.284.615,2.792,2.792,0,0,0-.659,1.533Zm10.742,5.9a4.561,4.561,0,0,1-2.061.361q-3.262,0-3.262-3.389v-4.58h-1.621V12h1.621V9.842l3.076-.879V12h2.246v2.275h-2.246v4.043q0,1.562,1.24,1.563a2.091,2.091,0,0,0,1.006-.283Zm3.3-11.465a1.8,1.8,0,0,1-1.279-.464,1.5,1.5,0,0,1-.5-1.138,1.441,1.441,0,0,1,.5-1.133,2.089,2.089,0,0,1,2.563,0,1.448,1.448,0,0,1,.493,1.133,1.489,1.489,0,0,1-.493,1.152A1.833,1.833,0,0,1,131.815,10.418ZM133.339,22h-3.086V12h3.086Zm12.256,0h-3.076V16.443q0-2.324-1.66-2.324a1.647,1.647,0,0,0-1.318.615,2.344,2.344,0,0,0-.518,1.563V22h-3.086V12h3.086v1.582h.039a3.536,3.536,0,0,1,3.213-1.826q3.32,0,3.32,4.121Zm12.246-1.143a5.658,5.658,0,0,1-1.611,4.312,6.53,6.53,0,0,1-4.668,1.528,7.4,7.4,0,0,1-3.2-.576v-2.6a6.134,6.134,0,0,0,3.115.9A3.355,3.355,0,0,0,153.9,23.6a2.961,2.961,0,0,0,.859-2.241v-.791h-.039a3.446,3.446,0,0,1-3.115,1.68,3.747,3.747,0,0,1-3.037-1.348,5.465,5.465,0,0,1-1.123-3.613,6.087,6.087,0,0,1,1.25-4.033,4.081,4.081,0,0,1,3.291-1.494,3.037,3.037,0,0,1,2.734,1.406h.039V12h3.086ZM154.794,17.2V16.4a2.431,2.431,0,0,0-.562-1.616,1.816,1.816,0,0,0-1.46-.669,1.888,1.888,0,0,0-1.611.8,3.766,3.766,0,0,0-.586,2.256,3.178,3.178,0,0,0,.557,1.978,1.814,1.814,0,0,0,1.523.728,1.888,1.888,0,0,0,1.548-.737A3.023,3.023,0,0,0,154.794,17.2Z" transform="translate(946 21010)" fill="#002b45"/>
    <path id="Unión_1" data-name="Unión 1" d="M851.5,6774.459H820v-19.918h31.5V6742l22.5,22.5L851.5,6787Z" transform="translate(-389.001 14258)" fill="#ff8f00"/>
    <path id="Unión_2" data-name="Unión 2" d="M851.5,6774.459H820v-19.918h31.5V6742l22.5,22.5L851.5,6787Z" transform="translate(-161 14258)" fill="#ff8f00"/>
    <path id="Unión_3" data-name="Unión 3" d="M851.5,6774.459H820v-19.918h31.5V6742l22.5,22.5L851.5,6787Z" transform="translate(66 14258)" fill="#ff8f00"/>
  </g>
</svg>
