<svg xmlns="http://www.w3.org/2000/svg" width="67.734" height="80.072" viewBox="0 0 67.734 80.072">
  <g id="Grupo_18093" data-name="Grupo 18093" transform="translate(-235 -15652)">
    <circle id="Elipse_806" data-name="Elipse 806" cx="30.5" cy="30.5" r="30.5" transform="translate(235 15652)" fill="#f8e9e5"/>
    <g id="manager" transform="translate(249.5 15666.908)">
      <path id="Trazado_15144" data-name="Trazado 15144" d="M80.8,109.929a4.013,4.013,0,1,0-6.428-1.046l-1.888,1.888a3.94,3.94,0,0,0-3.443,0l-1.888-1.888a4.012,4.012,0,1,0-1.8,1.8l1.888,1.888a3.939,3.939,0,0,0,0,3.442l-2,2a4.012,4.012,0,1,0,1.856,1.745l1.944-1.945a3.94,3.94,0,0,0,3.443,0l1.944,1.944a4.014,4.014,0,1,0,1.856-1.744l-2-2a3.935,3.935,0,0,0,0-3.442l1.888-1.888a4.02,4.02,0,0,0,4.629-.754Zm-3.875-3.875a1.467,1.467,0,1,1,0,2.075h0A1.47,1.47,0,0,1,76.929,106.055ZM64.6,108.13a1.467,1.467,0,1,1,0-2.075A1.469,1.469,0,0,1,64.6,108.13Zm0,14.567a1.467,1.467,0,1,1,0-2.075A1.468,1.468,0,0,1,64.6,122.7Zm7.133-7.431a1.373,1.373,0,1,1,0-1.944,1.375,1.375,0,0,1,0,1.944Zm5.193,5.356a1.467,1.467,0,1,1,0,2.075A1.469,1.469,0,0,1,76.929,120.622Zm0,0" transform="translate(-51.538 -89.963)" fill="#97181a"/>
      <path id="Trazado_15145" data-name="Trazado 15145" d="M247.226,67.547a1.273,1.273,0,1,0,0,2.546h0a1.273,1.273,0,0,0,0-2.546Zm0,0" transform="translate(-214.213 -58.951)" fill="#97181a"/>
      <path id="Trazado_15146" data-name="Trazado 15146" d="M52.259,30.405l-4.333-4.633a1.676,1.676,0,0,1-.367-1.639c.761-2.458,1.583-7.617-1.469-14.55A15.467,15.467,0,0,0,35.7.737,20.082,20.082,0,0,0,29.024.044,22.966,22.966,0,0,0,11.5,8.184H9.205A8.715,8.715,0,0,0,.5,16.89V31.762a8.715,8.715,0,0,0,8.705,8.705h2.046a31.737,31.737,0,0,0,6.586,7.222,4.677,4.677,0,0,1,1.728,3.471l.141,3.6a3.154,3.154,0,0,0,2.373,2.926A27.015,27.015,0,0,1,33.8,64.547a2.172,2.172,0,0,0,3.688-1.555V50.7a33.351,33.351,0,0,0,4.469-.944c2.888-.85,4.672-1.962,5.453-3.4,1.462-2.694,1-6.869.512-9.386l2.536-.6a3.6,3.6,0,0,0,1.8-5.961Zm-1.62,2.763a1.035,1.035,0,0,1-.766.721l-2.967.7a2.074,2.074,0,0,0-1.561,2.452c1.084,5.223.145,7.516-.17,8.094-.717,1.321-4.2,2.576-8.675,3.124a1.773,1.773,0,0,0-1.555,1.758v12.1a29.188,29.188,0,0,0-12.25-6.9.6.6,0,0,1-.445-.555l-.141-3.6a7.22,7.22,0,0,0-2.677-5.356,29.18,29.18,0,0,1-5.067-5.238h5.154a2.529,2.529,0,0,1,1.538.525l5.85,4.517a2.659,2.659,0,0,0,4.229-1.569l.557-2.709a.961.961,0,0,1,.938-.765,6.651,6.651,0,0,0,6.644-6.644V16.89A8.7,8.7,0,0,0,38.087,12.5a1.273,1.273,0,1,0-2.2,1.286,6.151,6.151,0,0,1,.839,3.105V33.823a4.1,4.1,0,0,1-4.1,4.1,3.516,3.516,0,0,0-3.431,2.8l-.557,2.709a.1.1,0,0,1-.072.083.1.1,0,0,1-.108-.016l-5.85-4.517a5.088,5.088,0,0,0-3.094-1.055H9.2a6.167,6.167,0,0,1-6.16-6.16V16.89A6.167,6.167,0,0,1,9.2,10.73H27.455a1.273,1.273,0,0,0,0-2.546H15A20.417,20.417,0,0,1,29.084,2.59a1.28,1.28,0,0,0,.131-.007,17.647,17.647,0,0,1,5.883.629,12.823,12.823,0,0,1,8.663,7.4c2.719,6.176,2.023,10.652,1.367,12.771a4.226,4.226,0,0,0,.94,4.131L50.4,32.144a1.035,1.035,0,0,1,.24,1.025Zm0,0" transform="translate(0 0)" fill="#97181a"/>
    </g>
  </g>
</svg>
