<svg xmlns="http://www.w3.org/2000/svg" width="75" height="74.999" viewBox="0 0 75 74.999">
  <g id="Grupo_18092" data-name="Grupo 18092" transform="translate(-235 -15514)">
    <circle id="Elipse_805" data-name="Elipse 805" cx="30.5" cy="30.5" r="30.5" transform="translate(235 15514)" fill="#f8e9e5"/>
    <g id="marketing" transform="translate(248 15527)">
      <path id="Trazado_15141" data-name="Trazado 15141" d="M16.137,17.847A2.991,2.991,0,0,0,22,17V7a2.991,2.991,0,0,0-5.863-.847L7.957,7.789A.984.984,0,0,0,7,7H5a3,3,0,0,0-3,3v4a3,3,0,0,0,2,2.816V23a1,1,0,0,0,1,1H7a3,3,0,0,0,3-3V16.62ZM8,9.82l8-1.6v7.56l-8-1.6ZM18,7a1,1,0,0,1,2,0V17a1,1,0,0,1-2,0ZM4,10A1,1,0,0,1,5,9H6v6H5a1,1,0,0,1-1-1ZM8,21a1,1,0,0,1-1,1H6V17H7a.984.984,0,0,0,.957-.789L8,16.22Z" fill="#97181a"/>
      <rect id="Rectángulo_3122" data-name="Rectángulo 3122" width="6" height="2" transform="translate(24 11)" fill="#97181a"/>
      <rect id="Rectángulo_3123" data-name="Rectángulo 3123" width="7.211" height="2" transform="matrix(0.832, -0.555, 0.555, 0.832, 23.445, 8.169)" fill="#97181a"/>
      <rect id="Rectángulo_3124" data-name="Rectángulo 3124" width="2" height="7.211" transform="matrix(0.555, -0.832, 0.832, 0.555, 23.445, 15.831)" fill="#97181a"/>
      <path id="Trazado_15142" data-name="Trazado 15142" d="M61,2H33a1,1,0,0,0-1,1V23.38A3.985,3.985,0,0,0,25,26H24a4.009,4.009,0,0,0-3.89,3.07A6,6,0,0,0,15,35v1.18A5.76,5.76,0,0,0,11,42a5.76,5.76,0,0,0,4,5.82V49a6,6,0,0,0,5.11,5.93A4.009,4.009,0,0,0,24,58h1a3.985,3.985,0,0,0,7,2.62A3.985,3.985,0,0,0,39,58h1a4.009,4.009,0,0,0,3.89-3.07A6,6,0,0,0,49,49V47.82A5.76,5.76,0,0,0,53,42a5.76,5.76,0,0,0-4-5.82V35a6,6,0,0,0-5.11-5.93A4.009,4.009,0,0,0,40,26H61a1,1,0,0,0,1-1V3A1,1,0,0,0,61,2ZM31,36a2,2,0,0,1-4,0H25a4,4,0,0,0,4,4,3.906,3.906,0,0,0,2-.56v5.12A3.906,3.906,0,0,0,29,44a4,4,0,0,0-4,4h2a2,2,0,0,1,4,0V58a2,2,0,0,1-4,0v-.14A4,4,0,0,0,30,54H28a2.006,2.006,0,0,1-2,2H24a1.991,1.991,0,0,1-1.83-1.2A3.981,3.981,0,0,0,25,51H23a2.006,2.006,0,0,1-2,2,4,4,0,0,1-4-4V47.86A4,4,0,0,0,20,44H18a2,2,0,0,1-1.94,1.99C13.95,45.73,13,43.81,13,42s.95-3.73,3.06-3.99A2,2,0,0,1,18,40h2a4,4,0,0,0-3-3.86V35a4,4,0,0,1,4-4,2.006,2.006,0,0,1,2,2h2a3.981,3.981,0,0,0-2.83-3.8A1.991,1.991,0,0,1,24,28h2a2.006,2.006,0,0,1,2,2h2a4,4,0,0,0-3-3.86V26a2,2,0,0,1,4,0Zm10.83-6.8A3.981,3.981,0,0,0,39,33h2a2.006,2.006,0,0,1,2-2,4,4,0,0,1,4,4v1.14A4,4,0,0,0,44,40h2a2,2,0,0,1,1.94-1.99C50.05,38.27,51,40.19,51,42s-.95,3.73-3.06,3.99A2,2,0,0,1,46,44H44a4,4,0,0,0,3,3.86V49a4,4,0,0,1-4,4,2.006,2.006,0,0,1-2-2H39a3.981,3.981,0,0,0,2.83,3.8A1.991,1.991,0,0,1,40,56H38a2.006,2.006,0,0,1-2-2H34a4,4,0,0,0,3,3.86V58a2,2,0,0,1-4,0V48a2,2,0,0,1,4,0h2a4,4,0,0,0-4-4,3.906,3.906,0,0,0-2,.56V39.44A3.906,3.906,0,0,0,35,40a4,4,0,0,0,4-4H37a2,2,0,0,1-4,0V26a2,2,0,0,1,4,0v.14A4,4,0,0,0,34,30h2a2.006,2.006,0,0,1,2-2h2a1.991,1.991,0,0,1,1.83,1.2ZM60,24H38.44A3.98,3.98,0,0,0,35,22a4.091,4.091,0,0,0-1,.14V4H60Z" fill="#97181a"/>
      <rect id="Rectángulo_3125" data-name="Rectángulo 3125" width="2" height="12" transform="translate(56 10)" fill="#97181a"/>
      <rect id="Rectángulo_3126" data-name="Rectángulo 3126" width="2" height="10" transform="translate(51 12)" fill="#97181a"/>
      <rect id="Rectángulo_3127" data-name="Rectángulo 3127" width="2" height="8" transform="translate(46 14)" fill="#97181a"/>
      <rect id="Rectángulo_3128" data-name="Rectángulo 3128" width="2" height="6" transform="translate(41 16)" fill="#97181a"/>
      <path id="Trazado_15143" data-name="Trazado 15143" d="M40.414,14H43a1,1,0,0,0,.832-.445L45.535,11H52a1,1,0,0,0,.707-.293L55.414,8H58V6H55a1,1,0,0,0-.707.293L51.586,9H45a1,1,0,0,0-.832.445L42.465,12H40a1,1,0,0,0-.707.293l-3,3,1.414,1.414Z" fill="#97181a"/>
      <rect id="Rectángulo_3129" data-name="Rectángulo 3129" width="2" height="4" transform="translate(36 18)" fill="#97181a"/>
    </g>
  </g>
</svg>
