<svg xmlns="http://www.w3.org/2000/svg" width="66" height="66" viewBox="0 0 66 66">
  <g id="Grupo_18087" data-name="Grupo 18087" transform="translate(-235 -14723)">
    <circle id="Elipse_800" data-name="Elipse 800" cx="30.5" cy="30.5" r="30.5" transform="translate(235 14723)" fill="#f8e9e5"/>
    <g id="price-tag" transform="translate(247 14735)">
      <path id="Trazado_15111" data-name="Trazado 15111" d="M177.4,137.588l7.458-22.373a1.582,1.582,0,1,0-3-1L174.4,136.587a1.582,1.582,0,1,0,3,1Z" transform="translate(-155.936 -101.199)" fill="#97181a"/>
      <path id="Trazado_15112" data-name="Trazado 15112" d="M269.279,198.7a4.746,4.746,0,1,0-4.746-4.746A4.751,4.751,0,0,0,269.279,198.7Zm0-6.328a1.582,1.582,0,1,1-1.582,1.582A1.584,1.584,0,0,1,269.279,192.367Z" transform="translate(-236.633 -169.248)" fill="#97181a"/>
      <path id="Trazado_15113" data-name="Trazado 15113" d="M99.573,189.2a4.746,4.746,0,1,0,4.746,4.746A4.751,4.751,0,0,0,99.573,189.2Zm0,6.328a1.582,1.582,0,1,1,1.582-1.582A1.584,1.584,0,0,1,99.573,195.531Z" transform="translate(-84.826 -169.248)" fill="#97181a"/>
      <path id="Trazado_15114" data-name="Trazado 15114" d="M53.684,19.617l-5.517-7.356.215-1.506a1.582,1.582,0,0,0-.448-1.342L44.579,6.057,47.935,2.7A1.582,1.582,0,0,0,45.7.464L42.341,3.82,38.985.464A1.584,1.584,0,0,0,37.643.016L21.982,2.253a1.582,1.582,0,0,0-.895.448L1.7,22.091a5.807,5.807,0,0,0,0,8.2L18.1,46.7a5.786,5.786,0,0,0,1.092.856V48.2A5.807,5.807,0,0,0,25,54H48.2A5.807,5.807,0,0,0,54,48.2V20.567a1.582,1.582,0,0,0-.316-.949Zm-49.75,8.44a2.64,2.64,0,0,1,0-3.729L22.951,5.311,37.307,3.26l2.8,2.8L37.867,8.294,36.748,7.176a1.582,1.582,0,1,0-2.237,2.237l4.475,4.475a1.582,1.582,0,0,0,2.237-2.237L40.1,10.532l2.237-2.237,2.8,2.8L43.087,25.447,24.07,44.465a2.637,2.637,0,0,1-3.729,0ZM50.836,48.2A2.64,2.64,0,0,1,48.2,50.836H25a2.64,2.64,0,0,1-2.629-2.442,5.778,5.778,0,0,0,3.94-1.692L45.7,27.312a1.582,1.582,0,0,0,.448-.895l1.389-9.725,3.3,4.4Z" transform="translate(0 0)" fill="#97181a"/>
    </g>
  </g>
</svg>
