<svg xmlns="http://www.w3.org/2000/svg" width="317.154" height="318.364" viewBox="0 0 317.154 318.364">
  <g id="Grupo_12505" data-name="Grupo 12505" transform="translate(1827.515 -1351.344)">
    <g id="Grupo_12473" data-name="Grupo 12473" transform="translate(-1824.428 1351.344)">
      <g id="Grupo_12471" data-name="Grupo 12471" transform="translate(0)">
        <path id="Trazado_11239" data-name="Trazado 11239" d="M-1781.313,1352.136a45.553,45.553,0,0,0-36.286,53.14,45.55,45.55,0,0,0,53.136,36.286,45.557,45.557,0,0,0,36.287-53.136A45.556,45.556,0,0,0-1781.313,1352.136Z" transform="translate(1818.391 -1351.344)" fill="#e9f6ff"/>
      </g>
      <g id="Grupo_12472" data-name="Grupo 12472" transform="translate(0.025 6.478)">
        <path id="Trazado_11240" data-name="Trazado 11240" d="M-1664.619,1388.851l-2.434,7.638-3.976,14.373-5.692-7.395-5.345,5.288-5.536-6.61-2.664,5.125-1.856-.1-6.093-1.132,2.225,5.7,4.675.9-4.031,20.063-2.931,2.774-4.371-6.336-4.214-11.212-5.755.84-3.271-3.829,1.526-9.474,4.558-2.02,3.337,1.39,6.7-3.045L-1708.3,1399l-6.66.122-.706-1.883,5.539-4.775-3.413-3.568,5.228-6.925,7.182,1.09,10.524-5.61s4.119-3.3,8.729-6.955A45.547,45.547,0,0,1-1664.619,1388.851Z" transform="translate(1750.537 -1370.495)" fill="#d4edff"/>
        <path id="Trazado_11241" data-name="Trazado 11241" d="M-1807.458,1398.886l-1.715,4.869-2.892,8.906a.713.713,0,0,0,.15.688l4.037,4.372a.781.781,0,0,0,.651.207.716.716,0,0,0,.517-.437l1.795-4.79,6.483,5.409-8.479,11.055-5.674,1.637a.71.71,0,0,0-.5.57l-.566,3.768a.7.7,0,0,0,.228.634l4.794,4.185-6.773-1.687-2.179-1.812A45.388,45.388,0,0,1-1807.458,1398.886Z" transform="translate(1818.318 -1389.282)" fill="#d4edff"/>
        <path id="Trazado_11242" data-name="Trazado 11242" d="M-1770.019,1527.795l-5.413-6.95,2.358-10.072,14.212,8.684-6.241,22.943-2.993-4.366-1.787-9.933A.706.706,0,0,0-1770.019,1527.795Z" transform="translate(1789.939 -1463.32)" fill="#d4edff"/>
        <path id="Trazado_11243" data-name="Trazado 11243" d="M-1766.438,1397.531l-7.037-9.583c6.587-5.09,11.322-6.846,13.171-7.387l-.319,10.126Z" transform="translate(1788.645 -1377.156)" fill="#d4edff"/>
      </g>
    </g>
    <path id="Trazado_11357" data-name="Trazado 11357" d="M117.722,0A117.722,117.722,0,1,1,0,117.722,117.722,117.722,0,0,1,117.722,0Z" transform="translate(-1802.489 1374.13)" fill="#fff5a2"/>
    <g id="Grupo_12478" data-name="Grupo 12478" transform="translate(-1719.419 1355.265)">
      <g id="Grupo_12474" data-name="Grupo 12474" transform="translate(0 9.408)">
        <path id="Trazado_11244" data-name="Trazado 11244" d="M-1245.646,1579.774a57.887,57.887,0,0,0,22.4-42.864c.064-1.069.115-2.141.135-3.231v-.011a57.29,57.29,0,0,0-2.68-18.615c-.057-.169-.12-.331-.169-.5.049.165.109.322.16.487l-17.716,5.486a41.475,41.475,0,0,1,1.855,12.878v0a41.538,41.538,0,0,1-17.624,33.4l10.693,15.165C-1247.583,1581.264-1246.6,1580.527-1245.646,1579.774Z" transform="translate(1343.409 -1472.673)" fill="#97181a"/>
        <path id="Trazado_11245" data-name="Trazado 11245" d="M-1481.811,1474.862a41.431,41.431,0,0,1-7.6-24.557,41.6,41.6,0,0,1,42.186-41.006,41.607,41.607,0,0,1,39.153,29.3l17.716-5.486c-.051-.165-.111-.322-.16-.487-.239-.747-.484-1.481-.745-2.211-.074-.206-.158-.413-.233-.623a59.039,59.039,0,0,0-53.012-38.963c-.573-.031-1.139-.043-1.71-.056-.252-.007-.5-.023-.754-.03-.046,0-.092.006-.144.006-.8-.008-1.6,0-2.408.023-.237.011-.477.008-.717.02-.629.024-1.25.071-1.873.115-.435.028-.868.054-1.3.1-.347.033-.7.08-1.037.117-.718.081-1.439.162-2.152.262-.04.008-.079.016-.122.022a60.058,60.058,0,0,0-14.671,4.148c-.567.246-1.138.485-1.7.745a.356.356,0,0,0-.049.025,60.164,60.164,0,0,0-34.389,47.427c-.017.12-.029.239-.042.358-.082.709-.142,1.425-.2,2.136-.027.368-.054.731-.076,1.1-.034.478-.042.965-.061,1.449-.01.42-.039.83-.046,1.251a59.85,59.85,0,0,0,10.99,35.509Z" transform="translate(1507.971 -1390.746)" fill="#ff8f00"/>
        <path id="Trazado_11246" data-name="Trazado 11246" d="M-1391.641,1664.589l-10.693-15.165a41.4,41.4,0,0,1-24.56,7.6h0A41.524,41.524,0,0,1-1460.3,1639.4l-15.163,10.69a.084.084,0,0,0,.014.015c.675.96,1.376,1.892,2.09,2.8a57.751,57.751,0,0,0,40.012,22.277c.11.01.22.017.332.029.822.087,1.648.17,2.485.223.05,0,.093,0,.135.008.243.016.493.016.735.028.835.049,1.664.1,2.507.112a59.86,59.86,0,0,0,34.9-10.552C-1391.036,1664.194-1390.634,1663.878-1391.641,1664.589Z" transform="translate(1486.46 -1555.287)" fill="#e9f6ff"/>
      </g>
      <g id="Grupo_12477" data-name="Grupo 12477" transform="translate(61.361)">
        <g id="Grupo_12476" data-name="Grupo 12476">
          <g id="Grupo_12475" data-name="Grupo 12475">
            <path id="Trazado_11247" data-name="Trazado 11247" d="M-1326.58,1431.693l65.4,21.255a68.765,68.765,0,0,0-44.152-86.651,65.462,65.462,0,0,0-21.248-3.362Z" transform="translate(1326.58 -1362.934)" fill="#d64626"/>
          </g>
        </g>
      </g>
    </g>
    <g id="Grupo_12482" data-name="Grupo 12482" transform="translate(-1767.819 1442.723)">
      <path id="Trazado_11248" data-name="Trazado 11248" d="M-1597.407,1847.212l-24.646.632-5.477,26.331s27.806.843,33.073-2.317S-1597.407,1847.212-1597.407,1847.212Z" transform="translate(1635.485 -1770.848)" fill="#0063cb"/>
      <g id="Grupo_12479" data-name="Grupo 12479" transform="translate(31.098 26.412)">
        <path id="Trazado_11249" data-name="Trazado 11249" d="M-1536.911,1780.972c4.8,4.033,10.449,24.29,10.449,24.29s2.588,13.514-11.779-16.521C-1541.8,1781.289-1538.095,1779.977-1536.911,1780.972Z" transform="translate(1546.302 -1753.235)" fill="#e9d6b8"/>
        <path id="Trazado_11250" data-name="Trazado 11250" d="M-1507.53,1864.395l1.356-2.344.551-2.144-.492-3.563a23.927,23.927,0,0,0-1.862-4.965c-.874-1.262-1.949-6.834-2.3-7.47s-4.122-2.094-4.122-2.094,2.875,6.8,3.794,9.035,1.129,5.886,1.458,6.777a10.575,10.575,0,0,0,1.426,2.622s-.444-2.506-.636-3.148.626-.518.626-.518a21.1,21.1,0,0,1,.856,4.359,5.735,5.735,0,0,1-.567,1.819Z" transform="translate(1529.529 -1793.689)" fill="#e9d6b8"/>
        <path id="Trazado_11251" data-name="Trazado 11251" d="M-1556.519,1714.72l6.415,28.853.21,1.7,8.3-1.524c-5.89-16.615-7.16-19.9-7.661-23.039-.182-1.144-1.552-10.511-1.642-12.222a9.528,9.528,0,0,0-6-8.728C-1562.1,1697.469-1556.519,1714.72-1556.519,1714.72Z" transform="translate(1559.117 -1699.548)" fill="#dff7f9"/>
      </g>
      <g id="Grupo_12481" data-name="Grupo 12481">
        <path id="Trazado_11252" data-name="Trazado 11252" d="M-1603.008,1668.209a11.6,11.6,0,0,0,11.721,11.477,11.6,11.6,0,0,0,11.721-11.477,11.6,11.6,0,0,0-11.721-11.477A11.6,11.6,0,0,0-1603.008,1668.209Z" transform="translate(1619.258 -1644.804)" fill="#163f59"/>
        <g id="Grupo_12480" data-name="Grupo 12480">
          <path id="Trazado_11253" data-name="Trazado 11253" d="M-1575.589,2147.241l-.122,14.041s5.006,6.1,6.837,7.08,1.588.122,1.466-.366-3.176-4.029-3.663-5.982.61-13.918.487-14.529S-1575.589,2147.241-1575.589,2147.241Z" transform="translate(1601.195 -1969.311)" fill="#e9d6b8"/>
          <path id="Trazado_11254" data-name="Trazado 11254" d="M-1635.108,2151.317a103.039,103.039,0,0,0-1.954,10.622c-.122,2.686.367,3.541-.366,4.4s-5.86,7.57-7.081,7.57a1.2,1.2,0,0,1-1.221-1.221s4.029-5.127,4.64-7.081.733-12.819.733-13.918S-1635.108,2151.317-1635.108,2151.317Z" transform="translate(1647.528 -1971.922)" fill="#e9d6b8"/>
          <path id="Trazado_11255" data-name="Trazado 11255" d="M-1627.422,1786.166s1.969.254.934,10.8-4.924,25.794-4.924,25.794l.318-24.527S-1630.565,1788.852-1627.422,1786.166Z" transform="translate(1638.053 -1730.453)" fill="#e9d6b8"/>
          <path id="Trazado_11256" data-name="Trazado 11256" d="M-1575.554,1851.844l-.815,50.465-1.627,48.349,7.162.325s5.047-48.836,5.7-53.07,7.977-38.255,3.744-46.72S-1575.554,1851.844-1575.554,1851.844Z" transform="translate(1602.707 -1771.101)" fill="#194866"/>
          <path id="Trazado_11257" data-name="Trazado 11257" d="M-1557.353,1851.193a7.54,7.54,0,0,1,.356.849c-4.589,7.129-8.911,13.154-9.9,14.693-.566.881-2.459,4.095-4.993,8.444l.377-23.335S-1561.585,1842.729-1557.353,1851.193Z" transform="translate(1598.668 -1771.101)" fill="#163f59"/>
          <path id="Trazado_11258" data-name="Trazado 11258" d="M-1626.868,1856.791s-2.116,21.489-2.116,36.14-1.465,57.464-1.465,57.464v7.489l5.534-.163,8.628-54.7,7.162-46.233Z" transform="translate(1637.416 -1777.187)" fill="#194866"/>
          <path id="Trazado_11259" data-name="Trazado 11259" d="M-1627.565,1666.636a11.6,11.6,0,0,0,11.722,11.477,11.6,11.6,0,0,0,11.72-11.477,11.6,11.6,0,0,0-11.72-11.477A11.6,11.6,0,0,0-1627.565,1666.636Z" transform="translate(1635.508 -1643.763)" fill="#163f59"/>
          <path id="Trazado_11260" data-name="Trazado 11260" d="M-1603.5,1632.42c0,6.046,4.591,10.947,10.255,10.947s10.257-4.9,10.257-10.947-4.592-10.948-10.257-10.948S-1603.5,1626.374-1603.5,1632.42Z" transform="translate(1619.584 -1621.472)" fill="#163f59"/>
          <path id="Trazado_11261" data-name="Trazado 11261" d="M-1602.6,1661.052s-.976,5.861-.162,7.489,6.348,5.372,7.163,6.512-1.628,9.931-9.6,8.627-15.139-6.348-15.139-7.651.163-2.605,2.767-3.581,6.837-1.628,7.977-2.93a9.659,9.659,0,0,0,1.79-7.977C-1608.624,1658.122-1602.6,1661.052-1602.6,1661.052Z" transform="translate(1630.73 -1646.889)" fill="#e9d6b8"/>
          <path id="Trazado_11262" data-name="Trazado 11262" d="M-1630.527,1714.689l-2.808,29.426v1.708l-8.425-.488s2.443-22.709,2.808-23.808a94.5,94.5,0,0,0,1.1-12.332c-.122-1.709.245-10.255,5.861-9.4S-1630.527,1714.689-1630.527,1714.689Z" transform="translate(1644.901 -1673.259)" fill="#dff7f9"/>
          <path id="Trazado_11263" data-name="Trazado 11263" d="M-1588.151,1628.593c.167-.047.336-.085.511-.117a11.025,11.025,0,0,0,4.432,6.265,14.762,14.762,0,0,0,1.837,1.182v1.889a5.18,5.18,0,0,1-5.291,5.063,5.181,5.181,0,0,1-5.291-5.063v-4.257A11.308,11.308,0,0,0-1588.151,1628.593Z" transform="translate(1611.943 -1626.107)" fill="#e9d6b8"/>
          <path id="Trazado_11264" data-name="Trazado 11264" d="M-1613.246,1767.39H-1587l-3.79-22.25.86-26.1a36.754,36.754,0,0,1-9.157,2.149c-2.8.177-8.791-2.149-8.791-2.149Z" transform="translate(1626.033 -1686.035)" fill="#ff8f00"/>
          <path id="Trazado_11265" data-name="Trazado 11265" d="M-1632.034,1895.3A29.287,29.287,0,0,0-1631,1899.9c.288.49,2.028,2.573,2.028,2.573a5.3,5.3,0,0,0-.763-2.326A44.4,44.4,0,0,1-1632.034,1895.3Z" transform="translate(1638.465 -1802.667)" fill="#e9d6b8"/>
          <path id="Trazado_11266" data-name="Trazado 11266" d="M-1553.229,1699.51s-.814,16.115-.325,21.976,3.551,16.536,4.987,28.226c.942,7.677.865,20.832.865,20.832a12.664,12.664,0,0,1-3.256,1.465c-1.139.163-3.312-.935-4.069-4.883-.937-4.884-3.325-39.5-3.9-42.546-.814-4.314-.227-16.792-.315-18.543-.063-1.249-.888-6.422-.562-7.724a17.986,17.986,0,0,0,.062-4.175S-1554.531,1696.417-1553.229,1699.51Z" transform="translate(1590.718 -1669.556)" fill="#20287a"/>
          <path id="Trazado_11267" data-name="Trazado 11267" d="M-1617.887,1691.119a6,6,0,0,0,1.829,2.364c.977.489.488,5.861,0,6.594s-1.343,17.214-1.466,21.121-2.14,39.155-2.75,41.964-.245,6.1-3.175,7.2a21.938,21.938,0,0,1-6.593,1.1s2.995-29.51,3.728-32.807,3.052-11.232,3.3-16.238-.488-12.575-.732-16.6-2.442-10.5-2.686-11.232S-1618.864,1691.485-1617.887,1691.119Z" transform="translate(1637.147 -1667.559)" fill="#20287a"/>
          <path id="Trazado_11268" data-name="Trazado 11268" d="M-1576.8,2186.8a3.058,3.058,0,0,0-.349,1.757c.113.733.716,2.881.716,2.881l1.342.61v-.975a31.355,31.355,0,0,0,3.664,3.784c1.221.855,3.78,2.983,5.25,2.443a.891.891,0,0,0,.488-.611s-2.321-2.565-2.685-2.93-1.222.365-2.2-.244a36.145,36.145,0,0,1-4.518-4.151A15.271,15.271,0,0,1-1576.8,2186.8Z" transform="translate(1602.166 -1995.558)" fill="#161711"/>
          <path id="Trazado_11269" data-name="Trazado 11269" d="M-1640.538,2190.712a4.859,4.859,0,0,1,.14,1.816,8.846,8.846,0,0,1-.665,1.906l-1.224.692a32.176,32.176,0,0,1-3.426,3.7c-1.134.854-3.512,2.985-4.878,2.443a.888.888,0,0,1-.453-.611s2.155-2.563,2.5-2.93,1.134.367,2.041-.244a34.442,34.442,0,0,0,4.2-4.152A25.793,25.793,0,0,0-1640.538,2190.712Z" transform="translate(1651.045 -1998.149)" fill="#161711"/>
          <path id="Trazado_11270" data-name="Trazado 11270" d="M-1630.219,1866.513c-.572,5.007,1.464,7.4,1.945,9.459a36.429,36.429,0,0,0,1.318,4.155c-1.82-1.324-1.691-2.948-2.231-3.824s-.245-.633-.569,1.135c-.186,1.006,1.238,2.963,1.991,4.343a4.28,4.28,0,0,1,.636,1.9,20.691,20.691,0,0,1-2.63-3.267,25.817,25.817,0,0,1-2.566-5.382,21.6,21.6,0,0,1,.58-6.822C-1631.113,1865.551-1629.808,1862.906-1630.219,1866.513Z" transform="translate(1638.723 -1782.457)" fill="#e9d6b8"/>
        </g>
      </g>
      <path id="Trazado_11271" data-name="Trazado 11271" d="M-1563.828,1690.288a49.228,49.228,0,0,0,.561,7.724c.558,4.688,1.264,4.634,1.124,12.639a117.394,117.394,0,0,0,1.685,18.4s.483-18.162.983-23.172c.281-2.809.281-6.179.281-6.179l-2.808-2.387,2.668.843a25.478,25.478,0,0,1-.842-3.371,14.7,14.7,0,0,0-.984-3.23Z" transform="translate(1593.339 -1667.009)" fill="#dff7f9"/>
      <path id="Trazado_11272" data-name="Trazado 11272" d="M-1594.994,1688.364l-2.432,1.213-.14,5.337,1.685.141-1.966,1.264,1.123,31.177s.422-1.123.562-9.409a171.437,171.437,0,0,1,1.965-22.751Z" transform="translate(1615.843 -1665.736)" fill="#dff7f9"/>
    </g>
    <g id="Grupo_12484" data-name="Grupo 12484" transform="translate(-1622.06 1443.513)">
      <path id="Trazado_11273" data-name="Trazado 11273" d="M-930.543,2213.2l.416,4.858.89,4.035,1.636,1.085,1.23.37.355.683,4.245,2.808a7.376,7.376,0,0,0,4.716.287c.668-.16-.261-1.978-.495-2.252a33.542,33.542,0,0,0-3.383-3.3l-3.311-4.076-3.743-5.1Z" transform="translate(1028.516 -2013.418)" fill="#161711"/>
      <path id="Trazado_11274" data-name="Trazado 11274" d="M-1073.478,2198.768l1.061,1.947.575,2.194-.078,3.5-1.884.278-1.429-.3-.93.656s-5.347,1.068-7.355,1.142c-3.331.115-5.157-.221-5.813-.866-.366-.358,1.184-1.069,1.7-1.144a19.62,19.62,0,0,0,6.066-2.362l2.433-2.762.466-1.951Z" transform="translate(1133.626 -2004.27)" fill="#161711"/>
      <path id="Trazado_11275" data-name="Trazado 11275" d="M-1030.927,1885.936l30.652,115.4-7.787.5-14.877-36.715-3.6-11.071-17.683-43.436-3.406-23.891Z" transform="translate(1105.994 -1797.263)" fill="#20287a"/>
      <path id="Trazado_11276" data-name="Trazado 11276" d="M-1067.4,1982.137l-2.2-44.364,1.934-20.331,2.349-27.9-3.554-18.679-12.175,1.95-1.375,30.087.756,28.535.6,10.753,4.6,42.344Z" transform="translate(1129.013 -1787.289)" fill="#20287a"/>
      <path id="Trazado_11277" data-name="Trazado 11277" d="M-1169.821,1715.451s-7.015-1.757-15.148-12.629c-2.747-3.671-1.514.212-1.261,4.647s7.856,11.911,16.7,14.845S-1169.821,1715.451-1169.821,1715.451Z" transform="translate(1198.036 -1675.126)" fill="#e9d6b8"/>
      <path id="Trazado_11278" data-name="Trazado 11278" d="M-1206.169,1688.438s1.654-4.642,1-5.86-3.334-5.5-3.334-5.5l-.778-1.028s-1.532.308.3,3.162.227,1.994.227,1.994l-2.58-1.9-3.329-2.066-1.368-1.118s-.732-.7-1.038-.7c-.887-.014-.574.72-.574.72l4.971,4.838-5.722-3.112s-.794-.267-1.072.1c-.259.351-.027.495-.027.495l5.692,5.167-3.123-1.248s-.785-.24-1.069.106c-.312.38-.4.473-.4.473l11.4,6.6Z" transform="translate(1219.786 -1657.964)" fill="#e9d6b8"/>
      <rect id="Rectángulo_2975" data-name="Rectángulo 2975" width="6.063" height="4.883" transform="translate(10.387 32.652) rotate(-33.414)" fill="#fff"/>
      <path id="Trazado_11279" data-name="Trazado 11279" d="M-1213.935,1689.707l-4.147-1.937a3.488,3.488,0,0,0-1.44-.517.633.633,0,0,0-.642.626l5.981,3.582Z" transform="translate(1220.164 -1665.79)" fill="#e9d6b8"/>
      <path id="Trazado_11280" data-name="Trazado 11280" d="M-1136.854,1709.19s.566,3.746-13.716,17.955c-7.981,7.94-12.784,13.082-17.5,11.515-8.084-2.686-22.917-24.88-22.917-24.88l7.527-8.019s12.006,14.22,17.436,14.119c1.27-.024,8.992-7.07,16.8-16.724C-1145.927,1699.075-1137.706,1708.126-1136.854,1709.19Z" transform="translate(1200.858 -1675.62)" fill="#12344a"/>
      <path id="Trazado_11281" data-name="Trazado 11281" d="M-1096.383,1788.509l4.521,4.683,3.669-12.3,3.6,14.2,28.8-3.88s-4.263-25.074-6.994-36.695l9.245-29.175s7.865-20.566-4.975-21.544-27.653-1.792-27.653-1.792S-1104.206,1750.86-1096.383,1788.509Z" transform="translate(1139.557 -1675.555)" fill="#163f59"/>
      <path id="Trazado_11282" data-name="Trazado 11282" d="M-1041.694,1705.223l-2.127,27.391,14.226-21.812.247-5.659Z" transform="translate(1103.474 -1677.628)" fill="#e9f6ff"/>
      <path id="Trazado_11283" data-name="Trazado 11283" d="M-989.479,1908.634l4.368-2.127.532-.5-.539-.974-.939.063.319-2.752-4.4-1.033-2.217-1.194,1.688,7.607" transform="translate(1069.416 -1806.648)" fill="#e9d6b8"/>
      <path id="Trazado_11284" data-name="Trazado 11284" d="M-975.68,1846.485l-16.365,17.815s.4,2.751,1.714,1.373c.158-.162-.553-.752.407-1.211,3.883-1.848,12.9-4.526,16.356-7.509a54.719,54.719,0,0,0,7.87-8.651Z" transform="translate(1069.213 -1771.158)" fill="#e9d6b8"/>
      <rect id="Rectángulo_2976" data-name="Rectángulo 2976" width="6.063" height="5.5" transform="matrix(0.721, -0.693, 0.693, 0.721, 80.637, 88.609)" fill="#e7f5fe"/>
      <path id="Trazado_11285" data-name="Trazado 11285" d="M-1039.415,1718.452s-9.044,20.595-3.457,41.637c.441,1.656,2.583,2.637,2.583,2.637l2.486-2.717S-1040.74,1735.812-1039.415,1718.452Z" transform="translate(1104.052 -1686.436)" fill="#387bff"/>
      <path id="Trazado_11286" data-name="Trazado 11286" d="M-1026.156,1708.784l.549,3.547,7.917-5.431.06-1.752Z" transform="translate(1091.785 -1677.633)" fill="#d1dbea"/>
      <path id="Trazado_11287" data-name="Trazado 11287" d="M-1033.716,1704.612l-1.819,6.913,1.8-2.368Z" transform="translate(1097.991 -1677.278)" fill="#d1dbea"/>
      <path id="Trazado_11288" data-name="Trazado 11288" d="M-978.9,1728.421l7.081,24.72-10.064,13.006s3.968,5.891,5.615,5.2c11.4-4.769,20.415-21.123,20.415-21.123l-10.311-33.583s-4.308-7.179-14.692-8.905C-988.375,1706.488-979.392,1726.37-978.9,1728.421Z" transform="translate(1063.785 -1679.308)" fill="#12344a"/>
      <path id="Trazado_11289" data-name="Trazado 11289" d="M-1019.746,1690.841a27.084,27.084,0,0,1-1.557,4.526c-.943,1.829-8.342,3.844-9.474,4.05s.591-5.621.666-6.96c.055-1.025.7-.668-.016-2.188Z" transform="translate(1095.097 -1667.786)" fill="#e9d6b8"/>
      <path id="Trazado_11290" data-name="Trazado 11290" d="M-1047.283,1703.147l-2.193,6.119-2.813,23.459-4.044-18.439,3.326-3.191-1.8-2.968,3.977-4.84Z" transform="translate(1111.753 -1676.309)" fill="#194866"/>
      <path id="Trazado_11291" data-name="Trazado 11291" d="M-1068.7,1769.669l-.336,12.93,2.537-11.671,23.869,15.363s1.975-17.434-.756-29.055l9.245-29.175s7.865-20.566-4.975-21.544c-1.809-.137-3.656-.271-5.495-.4-2.6-.182-7.449,7.276-8.618,9.417-1.25,2.293-9.371,23.1-9.371,23.1Z" transform="translate(1120.159 -1678.271)" fill="#12344a"/>
      <path id="Trazado_11292" data-name="Trazado 11292" d="M-1032.108,1704.645l4.255.949-3.423,6.388-4.884,2.9.032,5.528-12.695,18.113,8.291-23.882Z" transform="translate(1106.784 -1677.3)" fill="#163f59"/>
      <path id="Trazado_11293" data-name="Trazado 11293" d="M-1031.944,1703.645l4.256.949-3.407,6.409-4.876,2.767.046,5.287-12.65,17.294,8.232-22.823Z" transform="translate(1106.62 -1676.638)" fill="#194866"/>
      <path id="Trazado_11294" data-name="Trazado 11294" d="M-1032.567,1717.037l1.308-.141-.132,3.22-1.575,1.117-.9-1.353Z" transform="translate(1096.889 -1685.406)" fill="#387bff"/>
      <g id="Grupo_12483" data-name="Grupo 12483" transform="translate(60.998 0)">
        <path id="Trazado_11295" data-name="Trazado 11295" d="M-1033.723,1653.637a2.109,2.109,0,0,0,1.611,2.514l9.292,2.021a2.114,2.114,0,0,0,2.512-1.616l2.992-13.758a2.112,2.112,0,0,0-1.616-2.515l-9.288-2.015a2.108,2.108,0,0,0-2.512,1.613Z" transform="translate(1035.827 -1633.344)" fill="#e9d6b8"/>
        <path id="Trazado_11296" data-name="Trazado 11296" d="M-1028.62,1642.056a8.024,8.024,0,0,1-1.009-2.472,3.149,3.149,0,0,1,1.88-2.292c1.164-.375,1.778.927,1.778.927s-1.847.559-2.006.884S-1028.62,1642.056-1028.62,1642.056Z" transform="translate(1033.085 -1632.686)" fill="#163f59"/>
        <path id="Trazado_11297" data-name="Trazado 11297" d="M-1012.485,1639.657s2.551-4.98,2.633-6.583.139-2.719-1.712-3.3c-2.776-.871-2.943-.278-4.131-1.44s-3.213-3.768-4.018-4.158a2.9,2.9,0,0,0-4.334,1.985,3.038,3.038,0,0,1-1.821,2.247c.059.263.525.6,1.328,1.247,2.3,1.852,3.793,2.448,5.881,2.359s6.016-.4,6.128,1.154-1.031,5.99-.937,6.371S-1012.888,1639.845-1012.485,1639.657Z" transform="translate(1030.597 -1623.808)" fill="#194866"/>
        <path id="Trazado_11298" data-name="Trazado 11298" d="M-997.645,1672.732a.708.708,0,0,0,.54.839l2.006.435a.7.7,0,0,0,.839-.536l.8-3.668a.709.709,0,0,0-.538-.842l-2.007-.434a.7.7,0,0,0-.835.536Z" transform="translate(1011.931 -1653.388)" fill="#e9d6b8"/>
        <path id="Trazado_11299" data-name="Trazado 11299" d="M-1033.009,1665.026a.7.7,0,0,0,.535.839l2,.437a.706.706,0,0,0,.841-.541l.8-3.667a.7.7,0,0,0-.537-.837l-2.007-.439a.709.709,0,0,0-.836.542Z" transform="translate(1035.333 -1648.289)" fill="#e9d6b8"/>
        <path id="Trazado_11300" data-name="Trazado 11300" d="M-1022.887,1672.877l-1.57,7.221c-.355,1.634-1.788,5.075-11.01,3.064-5.459-1.183-4.388-5.153-4.1-6.472a11.975,11.975,0,0,1,2.709-4.213c.024-.013-.485,2.237-.485,2.237a4.465,4.465,0,0,1,4.2-1.366c4.187.909,4.6,3.567,6.459,3.926C-1025.25,1677.55-1023.682,1675.467-1022.887,1672.877Z" transform="translate(1039.846 -1656.013)" fill="#194866"/>
        <path id="Trazado_11301" data-name="Trazado 11301" d="M-1023.907,1683.015l-2.865-.624a.7.7,0,0,1-.537-.839l.087-.4,4.242.927-.088.4A.706.706,0,0,1-1023.907,1683.015Z" transform="translate(1031.56 -1661.752)" fill="#e9d6b8"/>
      </g>
      <rect id="Rectángulo_2977" data-name="Rectángulo 2977" width="3.048" height="10.054" transform="translate(71.495 50.294) rotate(-81.639)" fill="#194866"/>
    </g>
    <g id="Grupo_12500" data-name="Grupo 12500" transform="translate(-1793.017 1489.829)">
      <g id="Grupo_12488" data-name="Grupo 12488" transform="translate(83.448 91.776)">
        <g id="Grupo_12487" data-name="Grupo 12487" transform="translate(2.109 23.529)">
          <g id="Grupo_12485" data-name="Grupo 12485" transform="translate(2.496 13.894)">
            <path id="Trazado_11302" data-name="Trazado 11302" d="M-1390.112,2142.651l-3.064,4.671,25.726,8.241s1.718-1.644-4.595-4.943C-1379.393,2146.773-1390.112,2142.651-1390.112,2142.651Z" transform="translate(1417.554 -2142.651)" fill="#88bdda"/>
            <path id="Trazado_11303" data-name="Trazado 11303" d="M-1442.367,2142.651l3.062,4.671-25.723,8.241s-1.719-1.644,4.594-4.943C-1453.086,2146.773-1442.367,2142.651-1442.367,2142.651Z" transform="translate(1465.242 -2142.651)" fill="#88bdda"/>
          </g>
          <rect id="Rectángulo_2978" data-name="Rectángulo 2978" width="5.375" height="19.138" transform="translate(24.967)" fill="#88bdda"/>
          <g id="Grupo_12486" data-name="Grupo 12486" transform="translate(5.443 14.878)">
            <path id="Trazado_11304" data-name="Trazado 11304" d="M-1388.229,2145.561l-2.623,4.457,22.019,7.864s1.472-1.568-3.929-4.719A172.116,172.116,0,0,0-1388.229,2145.561Z" transform="translate(1413.07 -2145.561)" fill="#acd5f4"/>
            <path id="Trazado_11305" data-name="Trazado 11305" d="M-1436.946,2145.561l2.62,4.457-22.022,7.864s-1.469-1.568,3.933-4.719A171.815,171.815,0,0,1-1436.946,2145.561Z" transform="translate(1456.53 -2145.561)" fill="#acd5f4"/>
          </g>
          <path id="Trazado_11306" data-name="Trazado 11306" d="M-1333.125,2183.559a1.867,1.867,0,0,0,1.868,1.867,1.867,1.867,0,0,0,1.867-1.867,1.869,1.869,0,0,0-1.867-1.868A1.869,1.869,0,0,0-1333.125,2183.559Z" transform="translate(1380.313 -2154.591)" fill="#001f46"/>
          <path id="Trazado_11307" data-name="Trazado 11307" d="M-1459.254,2183.559a1.868,1.868,0,0,0,1.868,1.867,1.866,1.866,0,0,0,1.868-1.867,1.868,1.868,0,0,0-1.868-1.868A1.869,1.869,0,0,0-1459.254,2183.559Z" transform="translate(1463.775 -2154.591)" fill="#001f46"/>
          <path id="Trazado_11308" data-name="Trazado 11308" d="M-1319.76,2183.559a1.868,1.868,0,0,0,1.869,1.867,1.868,1.868,0,0,0,1.868-1.867,1.869,1.869,0,0,0-1.868-1.868A1.87,1.87,0,0,0-1319.76,2183.559Z" transform="translate(1371.469 -2154.591)" fill="#367082"/>
          <path id="Trazado_11309" data-name="Trazado 11309" d="M-1472.619,2183.559a1.867,1.867,0,0,0,1.868,1.867,1.868,1.868,0,0,0,1.868-1.867,1.869,1.869,0,0,0-1.868-1.868A1.868,1.868,0,0,0-1472.619,2183.559Z" transform="translate(1472.619 -2154.591)" fill="#367082"/>
        </g>
        <rect id="Rectángulo_2979" data-name="Rectángulo 2979" width="3.932" height="6.882" transform="translate(27.866 16.516)" fill="#20287a"/>
        <path id="Trazado_11310" data-name="Trazado 11310" d="M-1405.2,2062.6a3.836,3.836,0,0,0,3.835,3.835h2.162a3.836,3.836,0,0,0,3.834-3.835h0a3.834,3.834,0,0,0-3.834-3.832h-2.162a3.833,3.833,0,0,0-3.835,3.832Z" transform="translate(1430.115 -2049.72)" fill="#20287a"/>
        <path id="Trazado_11311" data-name="Trazado 11311" d="M-1477.345,2041.4c-.093-.451-.148-3.281-.148-3.767,0-3.1,2-5.606,4.469-5.606h49.8c2.469,0,4.469,2.509,4.469,5.606,0,.486-.054,3.316-.148,3.767Z" transform="translate(1477.953 -2032.025)" fill="#8cc3ff"/>
        <path id="Trazado_11312" data-name="Trazado 11312" d="M-1419.19,2060.864c0,.948-.553,1.715-1.237,1.715h-57.187c-.683,0-1.238-.767-1.238-1.715h0c0-.949.555-1.717,1.238-1.717h57.187c.684,0,1.237.768,1.237,1.717Z" transform="translate(1478.853 -2049.972)" fill="#20287a"/>
      </g>
      <g id="Grupo_12498" data-name="Grupo 12498" transform="translate(56.072 0)">
        <path id="Trazado_11313" data-name="Trazado 11313" d="M-1457.767,1989.187s-30.9.066-42.828.246c-8.253.126-9-11.64-5.748-13.412,9.881-5.377,40.715-8.144,40.715-8.144l20.973,19.264S-1445.832,1987.109-1457.767,1989.187Z" transform="translate(1525.608 -1897.801)" fill="#194866"/>
        <path id="Trazado_11314" data-name="Trazado 11314" d="M-1287.286,2191c.476.577.128,2.094.128,2.094s-8.318.927-10.994.3a14.079,14.079,0,0,1-2.976-1.4c-.188-.108-.518-.745-.7-.851-.334-.2-.509.133-.8-.047a9.271,9.271,0,0,1-1.269-.878c-.731-3.814.24-5.353.24-5.353s7.081-2.354,8.41-.713C-1292.118,2188.015-1288.327,2189.737-1287.286,2191Z" transform="translate(1390.634 -2040.529)" fill="#161711"/>
        <path id="Trazado_11315" data-name="Trazado 11315" d="M-1534.172,2186.171l-.575,6.283-6.291.616s-.436-.839-.966-.786c-.449.043-.942.974-1.553,1.035l-3.378.329c-1.181.117-12.623,1.235-12.623,1.235s-.411-1.268-.108-1.75a6.114,6.114,0,0,1,1.85-1.014c3.162-1.23,12.182-4.99,13.5-8.258C-1542.727,2179.892-1534.172,2186.171-1534.172,2186.171Z" transform="translate(1559.779 -2039.851)" fill="#161711"/>
        <path id="Trazado_11316" data-name="Trazado 11316" d="M-1313.24,1994.009s2.048,19.423,1.755,29.688c-.222,7.745-.243,22.59,1.6,35.24.113.775,10.009.192,10.009.192s3.548-48.151,4.6-56.081S-1297.286,1989.4-1313.24,1994.009Z" transform="translate(1396.639 -1914.002)" fill="#194866"/>
        <path id="Trazado_11317" data-name="Trazado 11317" d="M-1509.08,2004.417s3.189,5.035,11.934,6.227c3.161.43-5.1,56.362-5.1,56.362l-12.918-4.137,2.494-61.853Z" transform="translate(1530.256 -1919.73)" fill="#163f59"/>
        <path id="Trazado_11318" data-name="Trazado 11318" d="M-1394.346,1988.66s16.889,2.409,28.164,3.593c4.133.432,7.712-11.138,8.193-11.641a8.511,8.511,0,0,1,5.891-2.875c-2.442-2.641-15.091-5.089-28.308-8.19s-15.233-1.148-15.233-1.148Z" transform="translate(1451.164 -1897.745)" fill="#163f59"/>
        <path id="Trazado_11319" data-name="Trazado 11319" d="M-1307.708,2022.025l1.294,37.792,1.293,8.768.143-8.768-.285-5.46,3.015-8.476,1.582-19.689-2.3.863.287-8.622Z" transform="translate(1392.979 -1931.255)" fill="#163f59"/>
        <path id="Trazado_11320" data-name="Trazado 11320" d="M-1504.327,1997.189l-3.161.864-1.152,45.409,6.612,16.239-3.16-11.065,1.291-22.849s4.6,11.066,4.6,10.49-3.878-24-3.878-24,4.31,3.593,3.878,3.449S-1501.885,1999.344-1504.327,1997.189Z" transform="translate(1525.939 -1917.197)" fill="#194866"/>
        <path id="Trazado_11321" data-name="Trazado 11321" d="M-1379.249,1969.544c13.218,3.1,25.866,5.549,28.308,8.19a8.51,8.51,0,0,0-5.891,2.875c-.131.139-.892,3.846-1.437,5.175,2.154-3.882-28.911-14.832-35.622-17.668C-1392.639,1967.716-1388.982,1967.261-1379.249,1969.544Z" transform="translate(1450.007 -1897.742)" fill="#194866"/>
        <path id="Trazado_11322" data-name="Trazado 11322" d="M-1341.857,1840.249s12.056,1.993,13.432,4.552a273.442,273.442,0,0,1,15.51,34.314c1.182,3.414,4.271,16.112-3.451,17.051-1.345.163-6.694-1.126-6.694-1.126l-3.784-1.293,1.579-3.036.087-2.4s-4.826-11.638-10.751-22.643S-1341.857,1840.249-1341.857,1840.249Z" transform="translate(1415.576 -1813.347)" fill="#d4edff"/>
        <path id="Trazado_11323" data-name="Trazado 11323" d="M-1465.188,1844.479s-9.471.187-11.4,8.152c-3.823,15.781-3.313,18.621-4.1,33.634-.077,1.469.083,5.395,8.961,5.583,3.6.075,3.435-6.65,3.435-6.65a167.568,167.568,0,0,0,4.767-17.633C-1461.065,1856.48-1465.188,1844.479-1465.188,1844.479Z" transform="translate(1507.449 -1816.146)" fill="#d4edff"/>
        <path id="Trazado_11324" data-name="Trazado 11324" d="M-1455.652,1833l17.571-7.38,15.424-1.037,16.807,7.855s2.69.421,1.685,13.667c-1.049,13.827-4.358,31.1-4.358,31.1l-43.594,1.395s1.146-25.19-.914-36.423C-1453.756,1838.222-1453.751,1835.271-1455.652,1833Z" transform="translate(1490.876 -1802.979)" fill="#e9f6ff"/>
        <g id="Grupo_12489" data-name="Grupo 12489" transform="translate(29.645 66.764)">
          <path id="Trazado_11325" data-name="Trazado 11325" d="M-1466.672,1958.1l21.27,8.688s-15.086,2.151-24.522.229C-1476.3,1965.712-1466.961,1957.819-1466.672,1958.1Z" transform="translate(1472.146 -1958.088)" fill="#e9d6b8"/>
        </g>
        <g id="Grupo_12491" data-name="Grupo 12491" transform="translate(64.566 69.829)">
          <path id="Trazado_11326" data-name="Trazado 11326" d="M-1329.82,1971.011l-22.043,1.15s21.23,9.742,21.933,8.063C-1325.952,1970.709-1329.82,1971.011-1329.82,1971.011Z" transform="translate(1357.631 -1969.703)" fill="#e9d6b8"/>
          <g id="Grupo_12490" data-name="Grupo 12490">
            <path id="Trazado_11327" data-name="Trazado 11327" d="M-1353.231,1967.777c-1.288-.619-1.171-.63-1.171-.63a5.282,5.282,0,0,1-2.883,1.66c-.847.131-3.582.165-3.582.165l-4.059.1-1.884-.105a3.464,3.464,0,0,0-1.346.041c-.819.527-.118.949-.118.949l7.277,1.032-6.994.865s-.877.261-.919.735c-.037.446.255.429.255.429l8.122.869-3.561.851s-.853.273-.917.736c-.072.5-.1.637-.1.637l7.47-.731S-1351.945,1968.4-1353.231,1967.777Z" transform="translate(1368.914 -1967.147)" fill="#e9d6b8"/>
            <path id="Trazado_11328" data-name="Trazado 11328" d="M-1359.752,1982.305l-4.887.892a4.06,4.06,0,0,0-1.614.438.652.652,0,0,0-.231.911l7.493-.629Z" transform="translate(1367.371 -1977.177)" fill="#e9d6b8"/>
          </g>
        </g>
        <path id="Trazado_11329" data-name="Trazado 11329" d="M-1312.612,1979.157s7.114,3.932,6.74-10.3c-.062-2.368-9.321-1.682-9.321-1.682l-10.9.56-3.37,8.238Z" transform="translate(1407.375 -1897.277)" fill="#d4edff"/>
        <path id="Trazado_11330" data-name="Trazado 11330" d="M-1312.5,1973.264l-11.728-1.509,1.6-3.907,10.9-.56s1.083-.377,5.576,1.308C-1299.412,1972.9-1312.5,1973.264-1312.5,1973.264Z" transform="translate(1403.91 -1897.387)" fill="#e9f6ff"/>
        <path id="Trazado_11331" data-name="Trazado 11331" d="M-1477.789,1963.981s-2.114-2.905-1.972-3.795c.849-5.317,7.04-6.321,7.04-6.321l16.277,4.374-3.745,8.238Z" transform="translate(1506.834 -1888.529)" fill="#d4edff"/>
        <path id="Trazado_11332" data-name="Trazado 11332" d="M-1387.74,1831.011s-17.787-5.429-18.161.188,2.809,29.581,4.493,33.325,7.489-2.995,10.3-15.165A154.2,154.2,0,0,0-1387.74,1831.011Z" transform="translate(1457.975 -1805.674)" fill="#7dc2f5"/>
        <path id="Trazado_11333" data-name="Trazado 11333" d="M-1367.289,1830.16l-3.863,16.059-.375,13.481,7.676-21.344-2.059-2.059,3.183-.187s-.188-7.677-2.247-10.111-5.746-2.2-3.932-.562C-1367.033,1827.123-1367.289,1830.16-1367.289,1830.16Z" transform="translate(1435.209 -1802.721)" fill="#d4edff"/>
        <path id="Trazado_11334" data-name="Trazado 11334" d="M-1412.588,1827.869s-2.808-.188-3.745,2.246a51.087,51.087,0,0,0-1.685,8.051l2.808,1.311-2.246,2.059,8.426,23.216s-.562-18.722-1.311-22.467S-1412.588,1827.869-1412.588,1827.869Z" transform="translate(1465.973 -1805.153)" fill="#d4edff"/>
        <g id="Grupo_12494" data-name="Grupo 12494" transform="translate(50.012)">
          <g id="Grupo_12492" data-name="Grupo 12492" transform="translate(2.193 6.472)">
            <path id="Trazado_11335" data-name="Trazado 11335" d="M-1404,1800.823c.3,2.357,2.225,4.4,4.249,4.5h5.76c2.023-.095,3.948-2.139,4.247-4.5q.706-5.826,1.415-11.655c.316-2.328-1.069-7.009-4.132-8.39a11.01,11.01,0,0,0-8.82,0c-3.064,1.381-4.449,6.062-4.135,8.39Q-1404.7,1795-1404,1800.823Z" transform="translate(1405.455 -1779.856)" fill="#e2c59c"/>
          </g>
          <g id="Grupo_12493" data-name="Grupo 12493">
            <path id="Trazado_11336" data-name="Trazado 11336" d="M-1380.042,1760.724a4.6,4.6,0,0,1,3.855,2.084h1.582a3.572,3.572,0,0,1,3.571,3.574v8.819h-2.511v-3.585a2.515,2.515,0,0,0-2.514-2.513h-.677a4.609,4.609,0,0,1-4.609-4.609v-3.77Z" transform="translate(1391.695 -1760.724)" fill="#163f59"/>
            <path id="Trazado_11337" data-name="Trazado 11337" d="M-1364.328,1803.765a2.183,2.183,0,0,0,2.186,2.185h.183a2.185,2.185,0,0,0,2.186-2.185v-2.656a2.188,2.188,0,0,0-2.186-2.183h-.183a2.189,2.189,0,0,0-2,1.3" transform="translate(1380.433 -1786.002)" fill="#e2c59c"/>
            <path id="Trazado_11338" data-name="Trazado 11338" d="M-1395.522,1764.231v-3.507h-7.567a4.608,4.608,0,0,0-4.608,4.609v3.5h7.568A4.6,4.6,0,0,0-1395.522,1764.231Z" transform="translate(1409.131 -1760.724)" fill="#163f59"/>
            <path id="Trazado_11339" data-name="Trazado 11339" d="M-1405.781,1785.893c.009,1.835,1.409,4.936,3.727,5.918a13.39,13.39,0,0,0,10.042,0c2.324-.98,3.716-4.079,3.727-5.917v-15.6c.014-1.843-1.824-3.393-4.1-3.437h-9.3c-2.268.042-4.112,1.591-4.1,3.437Z" transform="translate(1407.864 -1764.781)" fill="#e9d6b8"/>
            <path id="Trazado_11340" data-name="Trazado 11340" d="M-1402.831,1760.724a4.6,4.6,0,0,0-3.855,2.084h-1.582a3.572,3.572,0,0,0-3.571,3.574v8.819h2.513v-3.585a2.514,2.514,0,0,1,2.513-2.513h3.209a4.607,4.607,0,0,0,4.608-4.609v-3.77Z" transform="translate(1411.872 -1760.724)" fill="#163f59"/>
            <path id="Trazado_11341" data-name="Trazado 11341" d="M-1407.384,1801.108a2.184,2.184,0,0,0-2.186-2.183h-.181a2.184,2.184,0,0,0-2.186,2.183v2.657a2.186,2.186,0,0,0,2.186,2.185h.181a2.186,2.186,0,0,0,2-1.3" transform="translate(1411.938 -1786.002)" fill="#e9d6b8"/>
            <path id="Trazado_11342" data-name="Trazado 11342" d="M-1374.045,1765.135a4.676,4.676,0,0,1-.092-.9v-3.507h3.264a4.608,4.608,0,0,1,4.608,4.609v3.5h-3.266a4.617,4.617,0,0,1-.944-.1A4.608,4.608,0,0,0-1374.045,1765.135Z" transform="translate(1386.924 -1760.724)" fill="#163f59"/>
          </g>
        </g>
        <g id="Grupo_12497" data-name="Grupo 12497" transform="translate(41.448 47.685)">
          <path id="Trazado_11343" data-name="Trazado 11343" d="M-1437.032,1990.863a.346.346,0,0,0-.025-.045l.025-1.389h43.428v1.389a.073.073,0,0,1,0,.045l-.147.259c-.739,1.207-2.066,1.422-3.587,1.422h-35.96c-1.518,0-2.845-.215-3.587-1.422Z" transform="translate(1437.124 -1959.747)" fill="#b6c2c9"/>
          <g id="Grupo_12495" data-name="Grupo 12495" transform="translate(7.417 30.005)">
            <rect id="Rectángulo_2980" data-name="Rectángulo 2980" width="28.758" height="0.98" fill="#879ba6"/>
          </g>
          <g id="Grupo_12496" data-name="Grupo 12496">
            <path id="Trazado_11344" data-name="Trazado 11344" d="M-1437.136,1931.517l-.118-28.473a1.353,1.353,0,0,1,1.355-1.358h40.651a1.364,1.364,0,0,1,1.364,1.358l.116,28.473Z" transform="translate(1437.254 -1901.686)" fill="#d7dfe2"/>
            <path id="Trazado_11345" data-name="Trazado 11345" d="M-1380.764,1940.629a2.647,2.647,0,0,0,2.643,2.634,2.622,2.622,0,0,0,2.623-2.634,2.647,2.647,0,0,0-2.646-2.631A2.617,2.617,0,0,0-1380.764,1940.629Z" transform="translate(1399.874 -1925.714)" fill="#b6c2c9"/>
          </g>
        </g>
      </g>
      <g id="Grupo_12499" data-name="Grupo 12499" transform="translate(0 77.311)">
        <path id="Trazado_11346" data-name="Trazado 11346" d="M-1227.734,2098.14h6.218l-10.258-99.342h-9.014Z" transform="translate(1404.768 -1995.573)" fill="#93cef5"/>
        <path id="Trazado_11347" data-name="Trazado 11347" d="M-1239.014,2003.376l3.954,30.085,4.689-32.422-.23-2.242h-7.879Z" transform="translate(1403.595 -1995.573)" fill="#86bbd8"/>
        <path id="Trazado_11348" data-name="Trazado 11348" d="M-1704.451,2098.14h-6.218l10.257-99.342h9.015Z" transform="translate(1715.698 -1995.573)" fill="#93cef5"/>
        <path id="Trazado_11349" data-name="Trazado 11349" d="M-1679.076,2003.376l-12.065,30.659,3.422-33,.23-2.242h7.879Z" transform="translate(1702.776 -1995.573)" fill="#86bbd8"/>
        <rect id="Rectángulo_2981" data-name="Rectángulo 2981" width="180.407" height="5.806" fill="#8cc3ff"/>
      </g>
    </g>
    <path id="Trazado_11350" data-name="Trazado 11350" d="M-1588.161,1519.244l-.1-4.775-4.254-.263a12.979,12.979,0,0,0-1.766-4.3l2.764-3.41-3.446-3.307-3.193,2.819a12.908,12.908,0,0,0-4.29-1.791l-.457-4.369-4.779.1-.264,4.252a13,13,0,0,0-4.3,1.765l-3.412-2.764-3.306,3.448,2.821,3.195a12.926,12.926,0,0,0-1.792,4.289l-4.368.458.1,4.774,4.251.268a12.9,12.9,0,0,0,1.766,4.3l-2.765,3.412,3.448,3.306,3.193-2.818a12.879,12.879,0,0,0,4.293,1.789l.454,4.369,4.78-.1.264-4.253a12.948,12.948,0,0,0,4.3-1.767l3.412,2.766,3.307-3.447-2.821-3.2a13.031,13.031,0,0,0,1.792-4.291Zm-16.938,3.981a6.31,6.31,0,0,1-6.444-6.175,6.309,6.309,0,0,1,6.177-6.442,6.309,6.309,0,0,1,6.441,6.175A6.306,6.306,0,0,1-1605.1,1523.226Z" transform="translate(-135.791 -98.266)" fill="#f99b1c"/>
    <g id="Grupo_12501" data-name="Grupo 12501" transform="translate(-1743.636 1416.411)">
      <path id="Trazado_11351" data-name="Trazado 11351" d="M-1577.522,1549.048l-2.037-2.036,1.064-1.065.973.973,3.23-3.231,1.064,1.065Z" transform="translate(1579.558 -1543.689)" fill="#fff"/>
    </g>
    <g id="Grupo_12503" data-name="Grupo 12503" transform="translate(-1827.515 1395.703)">
      <path id="Trazado_11352" data-name="Trazado 11352" d="M-1780.356,1598.489l-4.872-4.869,9.561-9.559,4.866,4.872Z" transform="translate(1799.533 -1549.696)" fill="#0253a2"/>
      <g id="Grupo_12502" data-name="Grupo 12502" transform="translate(26.342 36.756)">
        <path id="Trazado_11353" data-name="Trazado 11353" d="M-1749.646,1591.13" transform="translate(1749.646 -1591.13)" fill="#d9e1e4"/>
      </g>
      <path id="Trazado_11354" data-name="Trazado 11354" d="M-1729.627,1505.124a22.467,22.467,0,0,0-6.668-16.04,22.54,22.54,0,0,0-15.988-6.61,22.682,22.682,0,0,0-22.647,22.659,22.516,22.516,0,0,0,6.675,16.049,22.528,22.528,0,0,0,15.982,6.605,22.491,22.491,0,0,0,16.011-6.646A22.505,22.505,0,0,0-1729.627,1505.124Zm-22.605,17.941a17.826,17.826,0,0,1-12.729-5.246,17.945,17.945,0,0,1,0-25.366,17.805,17.805,0,0,1,12.653-5.248,17.8,17.8,0,0,1,12.715,5.24,17.8,17.8,0,0,1,5.252,12.689,17.829,17.829,0,0,1-5.243,12.688A17.791,17.791,0,0,1-1752.233,1523.065Z" transform="translate(1792.719 -1482.474)" fill="#20287a"/>
      <rect id="Rectángulo_2982" data-name="Rectángulo 2982" width="21.356" height="11.987" transform="matrix(0.707, -0.707, 0.707, 0.707, 0.604, 54.018)" fill="#0063cb"/>
      <path id="Trazado_11355" data-name="Trazado 11355" d="M-1817.254,1627.308l-8.478-8.478,11.926-11.926,8.475,8.479Z" transform="translate(1826.335 -1564.812)" fill="#20287a"/>
      <line id="Línea_138" data-name="Línea 138" y1="6.355" x2="6.357" transform="translate(11.512 48.243)" fill="none" stroke="#fff" stroke-width="4.449"/>
      <path id="Trazado_11356" data-name="Trazado 11356" d="M-1820.973,1653.132a6.543,6.543,0,0,1-6.542-6.543q.784-.784,1.57-1.569,3.272,3.273,6.542,6.54Q-1820.185,1652.346-1820.973,1653.132Z" transform="translate(1827.515 -1590.034)" fill="#0063cb"/>
    </g>
    <g id="Grupo_12504" data-name="Grupo 12504" transform="translate(-1631.287 1362.92)">
      <path id="Trazado_11361" data-name="Trazado 11361" d="M0,0H4.381V4.5H0Z" transform="translate(0 30.134)" fill="#97181a"/>
      <rect id="Rectángulo_2984" data-name="Rectángulo 2984" width="4.379" height="10.072" transform="translate(8.762 24.565)" fill="#f99b1c"/>
      <path id="Trazado_11358" data-name="Trazado 11358" d="M0,0H4.382V18.528H0Z" transform="translate(17.52 16.109)" fill="#fff5a2"/>
      <path id="Trazado_11360" data-name="Trazado 11360" d="M0,0H4.379V13.655H0Z" transform="translate(26.284 20.982)" fill="#ffcf5e"/>
      <rect id="Rectángulo_2987" data-name="Rectángulo 2987" width="4.379" height="23.404" transform="translate(35.046 11.232)" fill="#f99b1c"/>
      <rect id="Rectángulo_2988" data-name="Rectángulo 2988" width="4.381" height="11.632" transform="translate(43.805 23.004)" fill="#d64626"/>
      <rect id="Rectángulo_2989" data-name="Rectángulo 2989" width="4.38" height="34.637" transform="translate(52.566 0)" fill="#97181a"/>
      <path id="Trazado_11359" data-name="Trazado 11359" d="M0,0H4.38V10.437H0Z" transform="translate(61.329 24.2)" fill="#b52426"/>
      <rect id="Rectángulo_2991" data-name="Rectángulo 2991" width="4.381" height="16.461" transform="translate(70.088 18.176)" fill="#f99b1c"/>
    </g>
  </g>
</svg>
