<svg xmlns="http://www.w3.org/2000/svg" width="121" height="121" viewBox="0 0 121 121">
  <g id="Grupo_18096" data-name="Grupo 18096" transform="translate(-640 -2504)">
    <circle id="Elipse_835" data-name="Elipse 835" cx="60.5" cy="60.5" r="60.5" transform="translate(640 2504)" fill="#fe7c5f"/>
    <path id="Trazado_17223" data-name="Trazado 17223" d="M53.993,0A53.993,53.993,0,1,1,0,53.993,53.993,53.993,0,0,1,53.993,0Z" transform="translate(647 2511)" fill="#fff"/>
    <g id="investigacion" transform="translate(671 2525.999)">
      <path id="Trazado_17242" data-name="Trazado 17242" d="M67.657,46.069l-10.3-10.3a22.3,22.3,0,0,0,.893-25.719,1,1,0,1,0-1.677,1.1A20.3,20.3,0,1,1,53.95,7.937l.055.055A1,1,0,0,0,55.43,6.577l-.058-.058a22.312,22.312,0,0,0-31.521,0q-.409.409-.793.835H1a1,1,0,0,0-1,1V12.8a1,1,0,1,0,2.008,0V9.362H21.449a22.116,22.116,0,0,0-1.98,3.378H6.961a1,1,0,1,0,0,2.008H18.638a22.242,22.242,0,0,0-.721,2.454H6.961a1,1,0,1,0,0,2.008H17.546a22.434,22.434,0,0,0-.2,2.454H6.961a1,1,0,0,0,0,2.008H17.379a22.311,22.311,0,0,0,2.247,8.48H17.938a1,1,0,0,0-1,1V62.878a1,1,0,0,0,1,1H25.97a1,1,0,0,0,1-1V40.644a22.121,22.121,0,0,0,2.811,1.646V62.878a1,1,0,0,0,1,1H38.82a1,1,0,0,0,1-1V44.56a22.65,22.65,0,0,0,2.343-.144V59.925a1,1,0,1,0,2.008,0V44.093A22.137,22.137,0,0,0,53.1,40.029l10.3,10.3a3.012,3.012,0,0,0,4.261-4.259ZM24.966,61.874H18.942V34.161h1.809a22.3,22.3,0,0,0,3.1,3.883q.543.543,1.114,1.039Zm6.827,0V43.154a22.348,22.348,0,0,0,6.024,1.335V61.874ZM66.237,48.909a1,1,0,0,1-1.421,0L54.646,38.737c.246-.225.489-.455.727-.693s.469-.479.694-.727l10.17,10.172A1,1,0,0,1,66.237,48.909Zm0,0" fill="#656565"/>
      <path id="Trazado_17243" data-name="Trazado 17243" d="M43.171,167.713a1,1,0,0,0-1,1v2.276H2.008v-49.38a1,1,0,1,0-2.008,0V172a1,1,0,0,0,1,1H43.171a1,1,0,0,0,1-1v-3.28A1,1,0,0,0,43.171,167.713Zm0,0" transform="translate(0 -104.464)" fill="#656565"/>
      <path id="Trazado_17244" data-name="Trazado 17244" d="M32.5,301.2v21.689a1,1,0,0,0,1,1h8.032a1,1,0,0,0,1-1V301.2a1,1,0,0,0-1-1H33.5A1,1,0,0,0,32.5,301.2Zm2.008,1h6.024v19.68H34.508Zm0,0" transform="translate(-28.15 -260.01)" fill="#656565"/>
      <path id="Trazado_17245" data-name="Trazado 17245" d="M53.011,197.188a1,1,0,0,0,0-2.008H45.5a1,1,0,0,0,0,2.008Zm0,0" transform="translate(-38.543 -169.052)" fill="#656565"/>
      <path id="Trazado_17246" data-name="Trazado 17246" d="M177.741,29.988a18.246,18.246,0,1,0,12.921,5.345A18.148,18.148,0,0,0,177.741,29.988Zm11.5,29.769A16.288,16.288,0,1,1,194,48.255,16.152,16.152,0,0,1,189.242,59.757Zm0,0" transform="translate(-138.129 -25.973)" fill="#656565"/>
    </g>
  </g>
</svg>
