<svg xmlns="http://www.w3.org/2000/svg" width="121" height="121" viewBox="0 0 121 121">
  <g id="Grupo_18099" data-name="Grupo 18099" transform="translate(-640 -2772)">
    <circle id="Elipse_838" data-name="Elipse 838" cx="60.5" cy="60.5" r="60.5" transform="translate(640 2772)" fill="#fe7c5f"/>
    <path id="Trazado_17226" data-name="Trazado 17226" d="M53.993,0A53.993,53.993,0,1,1,0,53.993,53.993,53.993,0,0,1,53.993,0Z" transform="translate(647 2779)" fill="#fff"/>
    <g id="surface1" transform="translate(673.445 2795.877)">
      <path id="Trazado_17280" data-name="Trazado 17280" d="M97.213,425.652a1.029,1.029,0,1,0,0,2.058h8.808a1.029,1.029,0,1,0,0-2.058Zm0,0" transform="translate(-82.987 -367.253)" fill="#656565"/>
      <path id="Trazado_17281" data-name="Trazado 17281" d="M44.92,425.652a1.029,1.029,0,1,0,0,2.058H47.3a1.029,1.029,0,1,0,0-2.058Zm0,0" transform="translate(-37.869 -367.253)" fill="#656565"/>
      <path id="Trazado_17282" data-name="Trazado 17282" d="M70.679,392.509a1.029,1.029,0,0,0-1.029-1.029H44.92a1.029,1.029,0,1,0,0,2.058H69.65A1.029,1.029,0,0,0,70.679,392.509Zm0,0" transform="translate(-37.869 -337.77)" fill="#656565"/>
      <path id="Trazado_17283" data-name="Trazado 17283" d="M90.113,147.386h0l1.038,0a2.165,2.165,0,0,0,2.162-2.168l-.029-21.687a2.165,2.165,0,0,0-2.165-2.162h0l-1.038,0a2.168,2.168,0,0,0-2.162,2.168v.2l-15.309,5.413-6.639.009a2.655,2.655,0,0,0-2.467,1.695l-1.2,0a2.183,2.183,0,0,0-2.18,2.186l0,3.076a2.184,2.184,0,0,0,2.182,2.18h0l1.224,0a2.655,2.655,0,0,0,2.442,1.616h.013l.091,6.633a3.093,3.093,0,0,0,3.09,3.028h.068l1.44-.031a1.836,1.836,0,0,0,1.8-1.854.087.087,0,0,1,0-.012v-.005a2.8,2.8,0,0,0-.747-1.861c-.212-.259-.276-.337-.282-.6s.055-.346.256-.613a2.847,2.847,0,0,0-.079-3.757c-.212-.259-.275-.337-.281-.6a.641.641,0,0,1,.062-.329l1.213,0,15.327,5.373A2.167,2.167,0,0,0,90.113,147.386Zm-.03-23.959,1.038,0a.1.1,0,0,1,.076.031.1.1,0,0,1,.032.076l.029,21.686a.1.1,0,0,1-.032.076.1.1,0,0,1-.076.031l-1.038,0h0a.108.108,0,0,1-.107-.107l-.029-21.687A.108.108,0,0,1,90.083,123.427ZM62.312,136.243a.124.124,0,0,1-.125-.124l0-3.076a.124.124,0,0,1,.124-.125l1.015,0,0,3.325ZM69.2,147.519h-.023a1.035,1.035,0,0,1-1.034-1.005l-.09-6.6,1.254,0a3.137,3.137,0,0,0-.014.369,2.8,2.8,0,0,0,.748,1.864c.212.258.275.337.281.6s-.055.347-.256.614a2.847,2.847,0,0,0,.079,3.757,1.222,1.222,0,0,1,.25.376Zm-3.217-9.661h0a.595.595,0,0,1-.595-.593v-.005l-.008-5.442a.6.6,0,0,1,.594-.6l5.792-.008a1.074,1.074,0,0,0-.006.11l.009,6.526Zm7.844.289-.009-6.826a1.021,1.021,0,0,0-.076-.384l14.18-5.014.023,17.173Zm0,0" transform="translate(-51.876 -104.716)" fill="#656565"/>
      <path id="Trazado_17284" data-name="Trazado 17284" d="M49.072,49.87A1.029,1.029,0,0,0,48.043,50.9V67.813a.375.375,0,0,1-.375.375H2.433a.375.375,0,0,1-.375-.375V9.578A.375.375,0,0,1,2.433,9.2H6.208v1.3a1.7,1.7,0,0,0,1.7,1.7H42.191a1.7,1.7,0,0,0,1.7-1.7V9.2h3.776a.375.375,0,0,1,.375.375V30.52a1.029,1.029,0,1,0,2.058,0V9.578a2.435,2.435,0,0,0-2.433-2.433H43.892V5.93a1.7,1.7,0,0,0-1.7-1.7H31.621V2.991A2.993,2.993,0,0,0,28.631,0h-7.16A2.994,2.994,0,0,0,18.48,2.991V4.229H7.909a1.7,1.7,0,0,0-1.7,1.7V7.146H2.433A2.435,2.435,0,0,0,0,9.578V67.813a2.435,2.435,0,0,0,2.433,2.433H47.669A2.435,2.435,0,0,0,50.1,67.813V50.9A1.029,1.029,0,0,0,49.072,49.87ZM8.266,6.286H19.509a1.029,1.029,0,0,0,1.029-1.029V2.991a.934.934,0,0,1,.933-.933h7.16a.934.934,0,0,1,.933.933V5.257a1.029,1.029,0,0,0,1.029,1.029H41.834v3.857H8.266Zm0,0" fill="#656565"/>
      <path id="Trazado_17285" data-name="Trazado 17285" d="M264.8,198.921a2.177,2.177,0,0,0-1-1.345l-2.41-1.434a2.192,2.192,0,0,0-3.006.763l-1.807,3.036h0l-1.746,2.934h0l-13.775,23.15a5.9,5.9,0,0,0-.589,1.358l-.006.018c-.009.029-.018.058-.026.087v0a0,0,0,0,0,0,0l-1.647,6.046a1.751,1.751,0,0,0,.8,1.985,1.752,1.752,0,0,0,2.127-.242l4.528-4.331h0c.022-.022.044-.044.07-.071l.009-.01a5.905,5.905,0,0,0,.912-1.165L261,206.553h0l.681-1.145,2.872-4.826A2.18,2.18,0,0,0,264.8,198.921Zm-23.758,34.152,1.112-4.083a6.953,6.953,0,0,1,1.945,1.158Zm4.439-4.454a9.139,9.139,0,0,0-2.642-1.572l13.231-22.235,2.642,1.572Zm14.283-24-2.642-1.572.694-1.166,2.642,1.572Zm3.027-5.087-1.281,2.153-2.642-1.572,1.281-2.152a.129.129,0,0,1,.083-.062.154.154,0,0,1,.034,0,.131.131,0,0,1,.068.019l2.41,1.435a.134.134,0,0,1,.047.184Zm0,0" transform="translate(-205.964 -168.964)" fill="#656565"/>
    </g>
  </g>
</svg>
