<svg xmlns="http://www.w3.org/2000/svg" width="121" height="121" viewBox="0 0 121 121">
  <g id="Grupo_18095" data-name="Grupo 18095" transform="translate(-322 -2504)">
    <circle id="Elipse_834" data-name="Elipse 834" cx="60.5" cy="60.5" r="60.5" transform="translate(322 2504)" fill="#fe7c5f"/>
    <path id="Trazado_17222" data-name="Trazado 17222" d="M53.993,0A53.993,53.993,0,1,1,0,53.993,53.993,53.993,0,0,1,53.993,0Z" transform="translate(329 2511)" fill="#fff"/>
    <g id="informe-seo" transform="translate(292.785 2529.999)">
      <path id="Trazado_17228" data-name="Trazado 17228" d="M259.721,110.206H272.6a.927.927,0,1,0,0-1.853H259.721a.927.927,0,0,0,0,1.853Z" transform="translate(-169.604 -93.962)" fill="#656565"/>
      <path id="Trazado_17229" data-name="Trazado 17229" d="M258.8,141.915a.926.926,0,0,0,.927.927H272.6a.927.927,0,0,0,0-1.853H259.722A.927.927,0,0,0,258.8,141.915Z" transform="translate(-169.604 -122.263)" fill="#656565"/>
      <path id="Trazado_17230" data-name="Trazado 17230" d="M259.721,175.476H272.6a.927.927,0,1,0,0-1.853H259.721a.927.927,0,0,0,0,1.853Z" transform="translate(-169.604 -150.563)" fill="#656565"/>
      <path id="Trazado_17231" data-name="Trazado 17231" d="M279.446,356.679a.926.926,0,0,0-.927-.926H266.548a.927.927,0,1,0,0,1.853H278.52A.927.927,0,0,0,279.446,356.679Z" transform="translate(-175.523 -308.503)" fill="#656565"/>
      <path id="Trazado_17232" data-name="Trazado 17232" d="M122.31,288.606a.926.926,0,0,0-.927-.927H108.5a.927.927,0,0,0,0,1.853h12.879A.926.926,0,0,0,122.31,288.606Z" transform="translate(-38.471 -249.471)" fill="#656565"/>
      <path id="Trazado_17233" data-name="Trazado 17233" d="M108.5,256.9h12.879a.927.927,0,1,0,0-1.853H108.5a.927.927,0,0,0,0,1.853Z" transform="translate(-38.471 -221.171)" fill="#656565"/>
      <path id="Trazado_17234" data-name="Trazado 17234" d="M109.684,72.694a9.6,9.6,0,1,0,9.6,9.6A9.614,9.614,0,0,0,109.684,72.694Zm0,17.213a7.611,7.611,0,0,1-1-15.156V82.3a1,1,0,0,0,1,1h7.546A7.622,7.622,0,0,1,109.684,89.907Zm1-8.607v-6.55a7.627,7.627,0,0,1,6.55,6.55Z" transform="translate(-31.97 -63.039)" fill="#656565"/>
      <path id="Trazado_17235" data-name="Trazado 17235" d="M236.417,234.316v8.895a1.616,1.616,0,0,0,1.614,1.614H253.5a1.616,1.616,0,0,0,1.614-1.614v-8.895A1.616,1.616,0,0,0,253.5,232.7H238.031a1.615,1.615,0,0,0-1.614,1.614Zm1.992.378h14.716v8.138H238.409Z" transform="translate(-150.198 -201.795)" fill="#656565"/>
      <path id="Trazado_17236" data-name="Trazado 17236" d="M100.078,351.208a1.616,1.616,0,0,0,1.614,1.614H104.4a1.616,1.616,0,0,0,1.614-1.614V337.7a1.616,1.616,0,0,0-1.614-1.614h-2.707a1.616,1.616,0,0,0-1.614,1.614Zm1.992-13.134h1.95v12.755h-1.95Z" transform="translate(-31.967 -291.445)" fill="#656565"/>
      <path id="Trazado_17237" data-name="Trazado 17237" d="M157.062,362.775a1.616,1.616,0,0,0-1.614,1.614v9.967a1.616,1.616,0,0,0,1.614,1.614h2.707a1.616,1.616,0,0,0,1.614-1.614v-9.967a1.616,1.616,0,0,0-1.614-1.614Zm2.328,11.2h-1.95v-9.21h1.95Z" transform="translate(-79.983 -314.593)" fill="#656565"/>
      <path id="Trazado_17238" data-name="Trazado 17238" d="M212.432,404.808h2.707a1.616,1.616,0,0,0,1.614-1.614v-5.55a1.616,1.616,0,0,0-1.614-1.614h-2.707a1.616,1.616,0,0,0-1.614,1.614v5.55A1.616,1.616,0,0,0,212.432,404.808Zm.378-6.785h1.95v4.793h-1.95Z" transform="translate(-127.999 -343.432)" fill="#656565"/>
      <path id="Trazado_17239" data-name="Trazado 17239" d="M278.519,390.03H266.547a.927.927,0,0,0,0,1.853h11.972a.927.927,0,0,0,0-1.853Z" transform="translate(-175.522 -338.228)" fill="#656565"/>
      <path id="Trazado_17240" data-name="Trazado 17240" d="M278.519,424.307H266.547a.927.927,0,0,0,0,1.853h11.972a.927.927,0,0,0,0-1.853Z" transform="translate(-175.522 -367.952)" fill="#656565"/>
      <path id="Trazado_17241" data-name="Trazado 17241" d="M113.429,12.35a1,1,0,0,0,1-1V3.339A3.343,3.343,0,0,0,111.086,0H71.164a3.343,3.343,0,0,0-3.339,3.339V4.61H66.554a3.343,3.343,0,0,0-3.339,3.339V50.625a1,1,0,0,0,1.992,0V7.949A1.348,1.348,0,0,1,66.554,6.6h39.923a1.348,1.348,0,0,1,1.346,1.346V64.663a1.348,1.348,0,0,1-1.346,1.346H66.554a1.348,1.348,0,0,1-1.346-1.346v-9.39a1,1,0,1,0-1.992,0v9.39A3.343,3.343,0,0,0,66.554,68h39.923a3.343,3.343,0,0,0,3.339-3.339V63.392h1.271a3.343,3.343,0,0,0,3.339-3.339V16a1,1,0,0,0-1.992,0v44.05a1.348,1.348,0,0,1-1.346,1.346h-1.271V7.949a3.343,3.343,0,0,0-3.339-3.339H69.817V3.339a1.348,1.348,0,0,1,1.346-1.346h39.923a1.348,1.348,0,0,1,1.346,1.346v8.016a1,1,0,0,0,1,1Z" fill="#656565"/>
    </g>
  </g>
</svg>
