<svg xmlns="http://www.w3.org/2000/svg" width="121" height="121" viewBox="0 0 121 121">
  <g id="Grupo_18100" data-name="Grupo 18100" transform="translate(-957 -2772)">
    <circle id="Elipse_839" data-name="Elipse 839" cx="60.5" cy="60.5" r="60.5" transform="translate(957 2772)" fill="#fe7c5f"/>
    <path id="Trazado_17227" data-name="Trazado 17227" d="M53.993,0A53.993,53.993,0,1,1,0,53.993,53.993,53.993,0,0,1,53.993,0Z" transform="translate(964 2779)" fill="#fff"/>
    <g id="lista-de-verificacion" transform="translate(991.018 2799)">
      <path id="Trazado_17286" data-name="Trazado 17286" d="M193.328,452a1.328,1.328,0,1,0,.939.389A1.338,1.338,0,0,0,193.328,452Zm0,0" transform="translate(-166.506 -391.982)" fill="#656565"/>
      <path id="Trazado_17287" data-name="Trazado 17287" d="M66.567,18.1a4.845,4.845,0,0,0-6.844,0L53.644,24.18V4.515A4.52,4.52,0,0,0,49.13,0H4.515A4.52,4.52,0,0,0,0,4.515V63.47a4.52,4.52,0,0,0,4.515,4.515H49.13a4.52,4.52,0,0,0,4.515-4.515v-25.6L66.567,24.945A4.845,4.845,0,0,0,66.567,18.1ZM50.989,4.515V26.836l-2.656,2.656V6.639a1.328,1.328,0,0,0-1.328-1.328H38.131V2.656h11A1.861,1.861,0,0,1,50.989,4.515ZM43.738,40.93,45.531,36.9l2.234,2.234ZM35.475,2.656V8.067A1.5,1.5,0,0,1,33.981,9.56H19.663a1.5,1.5,0,0,1-1.494-1.494V2.656ZM49.13,65.329H4.515A1.861,1.861,0,0,1,2.656,63.47V4.515A1.861,1.861,0,0,1,4.515,2.656h11V5.311H6.639A1.328,1.328,0,0,0,5.311,6.639V61.346a1.328,1.328,0,0,0,1.328,1.328H21.511a1.328,1.328,0,0,0,0-2.656H7.967V7.967h7.546v.1a4.154,4.154,0,0,0,4.149,4.149H33.981a4.154,4.154,0,0,0,4.149-4.149v-.1h7.546v24.18l-1.512,1.512a1.344,1.344,0,0,0-.274.4L39.905,43.01a1.328,1.328,0,0,0,1.753,1.754l4.019-1.789V60.018H32.133a1.328,1.328,0,0,0,0,2.656H47.005a1.328,1.328,0,0,0,1.328-1.328V41.791l2.278-1.014a1.324,1.324,0,0,0,.378-.255V63.47A1.861,1.861,0,0,1,49.13,65.329ZM59.74,28.016l-9.67,9.67L46.982,34.6,58.954,22.625l3.089,3.089Zm4.949-4.949-.769.768-3.088-3.088.768-.768a2.184,2.184,0,1,1,3.089,3.088Zm0,0" fill="#656565"/>
      <path id="Trazado_17288" data-name="Trazado 17288" d="M97.826,120h-8.5A1.328,1.328,0,0,0,88,121.328v8.5a1.328,1.328,0,0,0,1.328,1.328h8.5a1.328,1.328,0,0,0,1.328-1.328v-8.5A1.328,1.328,0,0,0,97.826,120ZM96.5,128.5H90.656v-5.842H96.5Zm0,0" transform="translate(-76.315 -104.066)" fill="#656565"/>
      <path id="Trazado_17289" data-name="Trazado 17289" d="M97.826,230h-8.5A1.328,1.328,0,0,0,88,231.328v8.5a1.328,1.328,0,0,0,1.328,1.328h8.5a1.328,1.328,0,0,0,1.328-1.328v-8.5A1.328,1.328,0,0,0,97.826,230ZM96.5,238.5H90.656v-5.842H96.5Zm0,0" transform="translate(-76.315 -199.46)" fill="#656565"/>
      <path id="Trazado_17290" data-name="Trazado 17290" d="M97.826,340h-8.5A1.328,1.328,0,0,0,88,341.328v8.5a1.328,1.328,0,0,0,1.328,1.328h8.5a1.328,1.328,0,0,0,1.328-1.328v-8.5A1.328,1.328,0,0,0,97.826,340ZM96.5,348.5H90.656v-5.842H96.5Zm0,0" transform="translate(-76.315 -294.854)" fill="#656565"/>
      <path id="Trazado_17291" data-name="Trazado 17291" d="M211.744,137.687a1.327,1.327,0,0,0,1.878,0l5.995-5.995a1.328,1.328,0,0,0-1.878-1.878l-5.056,5.056-2.015-2.015a1.328,1.328,0,0,0-1.878,1.878Zm0,0" transform="translate(-180.729 -112.24)" fill="#656565"/>
      <path id="Trazado_17292" data-name="Trazado 17292" d="M211.744,247.69a1.327,1.327,0,0,0,1.878,0l5.995-5.994a1.328,1.328,0,0,0-1.878-1.878l-5.056,5.056-2.015-2.015a1.328,1.328,0,0,0-1.878,1.878Zm0,0" transform="translate(-180.729 -207.637)" fill="#656565"/>
      <path id="Trazado_17293" data-name="Trazado 17293" d="M223.851,355.629l2.059,2.058a1.328,1.328,0,0,0,1.878-1.878l-2.058-2.059,2.058-2.059a1.328,1.328,0,0,0-1.878-1.878l-2.059,2.058-2.058-2.058a1.328,1.328,0,0,0-1.878,1.878l2.059,2.059-2.059,2.059a1.328,1.328,0,0,0,1.878,1.878Zm0,0" transform="translate(-190.377 -303.028)" fill="#656565"/>
    </g>
  </g>
</svg>
