<svg xmlns="http://www.w3.org/2000/svg" width="121" height="121" viewBox="0 0 121 121">
  <g id="Grupo_18097" data-name="Grupo 18097" transform="translate(-957 -2504)">
    <circle id="Elipse_836" data-name="Elipse 836" cx="60.5" cy="60.5" r="60.5" transform="translate(957 2504)" fill="#fe7c5f"/>
    <path id="Trazado_17224" data-name="Trazado 17224" d="M53.993,0A53.993,53.993,0,1,1,0,53.993,53.993,53.993,0,0,1,53.993,0Z" transform="translate(964 2511)" fill="#fff"/>
    <path id="objetivo" d="M57.829,14.924,60.856,11.9a1.829,1.829,0,0,0-1.139-3.115L54.1,8.309l-.474-5.615a1.828,1.828,0,0,0-3.115-1.139L47.486,4.582A31.206,31.206,0,0,0,9.14,53.27,31.206,31.206,0,0,0,57.829,14.924Zm-7.242-4.769a1.829,1.829,0,0,0,1.668,1.668l3.231.272-4.373,4.373-4.769-.4-.4-4.769,4.373-4.373ZM37.422,31.205a6.222,6.222,0,1,1-3.31-5.493l-4.2,4.2A1.828,1.828,0,1,0,32.5,32.5l4.2-4.2A6.175,6.175,0,0,1,37.422,31.205Zm-.652-8.151a9.884,9.884,0,1,0,2.586,2.586l5.221-5.221a17.208,17.208,0,1,1-2.586-2.586Zm13.915,27.63A27.548,27.548,0,1,1,11.726,11.726,27.561,27.561,0,0,1,44.817,7.25L42.755,9.312a1.828,1.828,0,0,0-.535,1.246c0,.067,0,.133.006.2l.246,2.917a20.861,20.861,0,1,0,6.262,6.262l2.917.246c.051,0,.1.006.154.006h.026c.024,0,.048,0,.072,0,.04,0,.08,0,.119-.01l.073-.011c.039-.006.077-.013.115-.022l.072-.018c.037-.01.074-.021.11-.034l.07-.025c.036-.014.071-.029.106-.046l.067-.031c.035-.018.07-.038.1-.058L52.8,19.9c.036-.024.071-.05.106-.076.016-.012.033-.023.049-.036a1.813,1.813,0,0,0,.143-.128l2.062-2.062a27.561,27.561,0,0,1-4.476,33.092Zm0,0" transform="translate(986.788 2531.998)" fill="#656565"/>
  </g>
</svg>
