<?xml version="1.0" encoding="UTF-8" standalone="no"?><!DOCTYPE svg PUBLIC "-//W3C//DTD SVG 1.1//EN" "http://www.w3.org/Graphics/SVG/1.1/DTD/svg11.dtd"><svg width="100%" height="100%" viewBox="0 0 888 423" version="1.1" xmlns="http://www.w3.org/2000/svg" xmlns:xlink="http://www.w3.org/1999/xlink" xml:space="preserve" xmlns:serif="http://www.serif.com/" style="fill-rule:evenodd;clip-rule:evenodd;"><g id="Grupo_18065"><g><rect id="Rectángulo_3043" x="0" y="0" width="403" height="66" style="fill:#20287a;"/><rect id="Rectángulo_3045" x="55" y="108" width="358" height="66" style="fill:#eef0f2;"/><rect id="Rectángulo_3046" x="55" y="191" width="358" height="66" style="fill:#eef0f2;"/><rect id="Rectángulo_3047" x="55" y="274" width="358" height="66" style="fill:#eef0f2;"/><path id="Trazado_17238" d="M125.83,40l-2.8,0l1.674,-7.541c0.181,-0.815 0.416,-1.715 0.705,-2.7l-0.07,-0c-0.223,0.565 -0.48,1.123 -0.771,1.67l-4.855,8.571l-2.32,0l-1.123,-8.481c-0.037,-0.578 -0.04,-1.165 -0.01,-1.758l-0.079,0c-0.199,1.242 -0.403,2.332 -0.612,3.27l-1.547,6.969l-2.558,0l2.798,-12.6l4.157,0l0.916,7.471c0.072,0.586 0.088,1.188 0.048,1.8l0.053,0c0.272,-0.615 0.573,-1.222 0.904,-1.819l4.236,-7.452l4.052,0l-2.798,12.6Zm10.081,0l-2.628,0l0.287,-1.292l-0.035,0c-0.751,0.969 -1.921,1.555 -3.017,1.512c-0.769,0.043 -1.454,-0.226 -1.896,-0.743c-0.397,-0.528 -0.509,-1.246 -0.311,-1.982c0.388,-1.746 1.645,-2.754 3.771,-3.023l2.516,-0.325c0.218,-0.985 -0.206,-1.477 -1.273,-1.477c-1.093,0.006 -2.233,0.34 -3.271,0.958l0.464,-2.092c0.559,-0.239 1.131,-0.416 1.703,-0.527c0.633,-0.144 1.265,-0.221 1.884,-0.229c2.567,0 3.566,1.28 2.997,3.841l-1.191,5.379Zm-1.798,-3.656l0.134,-0.606l-1.682,0.211c-0.928,0.117 -1.47,0.525 -1.625,1.222c-0.075,0.295 -0.017,0.579 0.157,0.778c0.201,0.211 0.497,0.318 0.826,0.3c0.479,0.016 0.99,-0.182 1.394,-0.541c0.416,-0.374 0.701,-0.863 0.796,-1.364Zm11.31,-2.844c-0.319,-0.188 -0.7,-0.281 -1.108,-0.272c-0.547,-0.024 -1.131,0.224 -1.563,0.664c-0.483,0.529 -0.803,1.164 -0.911,1.806l-0.955,4.302l-2.777,0l1.998,-9l2.777,0l-0.371,1.67l0.035,0c0.507,-1.085 1.667,-1.848 2.779,-1.828c0.236,-0.01 0.461,0.026 0.663,0.105l-0.567,2.553Zm8.867,6.5l-3.331,0l-1.883,-4.465l-0.035,0l-0.991,4.465l-2.778,0l2.959,-13.324l2.777,0l-1.884,8.481l0.035,0l3.604,-4.157l3.3,0l-4.165,4.228l2.392,4.772Zm9.7,-3.709l-5.871,0c-0.196,1.307 0.482,1.96 2.035,1.96c0.915,0.02 1.874,-0.223 2.766,-0.7l-0.445,2c-1.117,0.484 -2.282,0.714 -3.391,0.668c-1.262,0.077 -2.389,-0.36 -3.116,-1.208c-0.638,-0.913 -0.802,-2.131 -0.451,-3.371c0.222,-1.311 0.977,-2.594 2.089,-3.551c1.029,-0.861 2.295,-1.336 3.49,-1.31c1.152,-0.069 2.169,0.357 2.786,1.169c0.558,0.879 0.692,2.017 0.372,3.173l-0.264,1.17Zm-2.196,-1.705c0.286,-1.289 -0.092,-1.934 -1.135,-1.934c-0.449,0.002 -0.919,0.205 -1.279,0.554c-0.42,0.389 -0.733,0.87 -0.899,1.38l3.313,0Zm8.489,5.309c-0.64,0.25 -1.299,0.362 -1.926,0.325c-1.957,0 -2.71,-1.017 -2.259,-3.05l0.916,-4.122l-1.459,0l0.454,-2.048l1.459,0l0.432,-1.942l2.944,-0.791l-0.607,2.733l2.021,0l-0.454,2.048l-2.018,0l-0.809,3.639c-0.208,0.937 0.06,1.406 0.804,1.406c0.32,-0.007 0.651,-0.095 0.962,-0.255l-0.46,2.057Zm5.262,-10.318c-0.427,0.017 -0.807,-0.133 -1.058,-0.417c-0.233,-0.26 -0.314,-0.634 -0.221,-1.024c0.076,-0.39 0.323,-0.765 0.675,-1.02c0.793,-0.526 1.747,-0.526 2.307,0c0.236,0.256 0.316,0.631 0.217,1.02c-0.075,0.394 -0.322,0.774 -0.674,1.037c-0.381,0.278 -0.828,0.422 -1.246,0.403l0,0.001Zm-0.944,10.423l-2.777,0l1.998,-9l2.777,0l-1.998,9Zm11.03,0l-2.769,0l1.11,-5c0.31,-1.395 -0.033,-2.092 -1.029,-2.092c-0.458,-0.01 -0.943,0.195 -1.31,0.554c-0.409,0.397 -0.685,0.897 -0.779,1.406l-1.139,5.132l-2.773,0l1.998,-9l2.777,0l-0.316,1.424l0.035,0c0.809,-1.045 2.068,-1.682 3.253,-1.644c1.992,0 2.714,1.236 2.165,3.709l-1.223,5.511Zm11.249,-1.028c-0.231,1.44 -1.072,2.851 -2.312,3.88c-1.386,0.987 -3.003,1.481 -4.505,1.375c-0.997,0.043 -1.943,-0.134 -2.768,-0.519l0.519,-2.337c0.73,0.516 1.635,0.795 2.621,0.809c0.785,0.05 1.628,-0.217 2.345,-0.743c0.649,-0.533 1.092,-1.266 1.221,-2.017l0.158,-0.712l-0.03,0c-0.801,0.98 -2.008,1.562 -3.136,1.512c-1.059,0.044 -1.971,-0.405 -2.464,-1.213c-0.507,-0.929 -0.609,-2.082 -0.289,-3.252c0.22,-1.305 0.905,-2.593 1.932,-3.63c0.92,-0.884 2.126,-1.382 3.26,-1.345c1,-0.055 1.836,0.43 2.18,1.266l0.035,0l0.232,-1.046l2.777,0l-1.776,7.972Zm-2.01,-3.296l0.159,-0.716c0.131,-0.53 0.067,-1.047 -0.182,-1.455c-0.234,-0.393 -0.67,-0.615 -1.181,-0.6c-0.569,-0.02 -1.175,0.252 -1.61,0.721c-0.52,0.604 -0.862,1.315 -0.978,2.03c-0.175,0.632 -0.138,1.258 0.105,1.78c0.226,0.43 0.685,0.676 1.226,0.655c0.54,0.014 1.113,-0.233 1.54,-0.664c0.486,-0.505 0.812,-1.124 0.921,-1.751Zm20.503,0.611l-5.871,0c0.094,1.307 0.917,1.96 2.47,1.96c0.918,0.02 1.824,-0.223 2.61,-0.7l-0,2c-1.011,0.484 -2.124,0.714 -3.243,0.668c-1.246,0.077 -2.469,-0.36 -3.384,-1.208c-0.842,-0.913 -1.276,-2.131 -1.2,-3.371c-0.069,-1.311 0.401,-2.594 1.3,-3.551c0.838,-0.861 1.998,-1.336 3.2,-1.31c1.135,-0.069 2.247,0.357 3.045,1.169c0.753,0.879 1.139,2.017 1.077,3.173l-0.004,1.17Zm-2.575,-1.705c-0,-1.289 -0.522,-1.934 -1.564,-1.934c-0.449,0.002 -0.874,0.205 -1.156,0.554c-0.334,0.389 -0.541,0.87 -0.593,1.38l3.313,0Zm3.639,5.181l-0,-2.254c0.427,0.262 0.887,0.469 1.367,0.615c0.417,0.128 0.851,0.196 1.288,0.2c0.398,0.018 0.795,-0.05 1.165,-0.2c0.256,-0.095 0.427,-0.342 0.426,-0.615c0.003,-0.168 -0.068,-0.328 -0.193,-0.439c-0.149,-0.129 -0.318,-0.233 -0.5,-0.308c-0.217,-0.093 -0.438,-0.172 -0.664,-0.237c-0.24,-0.07 -0.472,-0.149 -0.694,-0.237c-0.326,-0.12 -0.642,-0.266 -0.945,-0.435c-0.257,-0.142 -0.488,-0.325 -0.686,-0.541c-0.186,-0.207 -0.33,-0.449 -0.422,-0.712c-0.103,-0.309 -0.152,-0.633 -0.145,-0.958c-0.013,-0.455 0.102,-0.906 0.33,-1.3c0.218,-0.362 0.52,-0.668 0.879,-0.892c0.387,-0.24 0.812,-0.413 1.257,-0.51c0.483,-0.11 0.976,-0.164 1.472,-0.163c0.406,0 0.811,0.031 1.213,0.092c0.41,0.061 0.815,0.151 1.213,0.268l-0,2.145c-0.353,-0.206 -0.733,-0.361 -1.129,-0.461c-0.386,-0.101 -0.784,-0.152 -1.182,-0.154c-0.173,-0.001 -0.345,0.015 -0.514,0.048c-0.148,0.028 -0.291,0.075 -0.426,0.141c-0.115,0.054 -0.214,0.136 -0.29,0.237c-0.07,0.096 -0.107,0.212 -0.105,0.33c-0.004,0.156 0.053,0.307 0.158,0.422c0.117,0.125 0.257,0.227 0.413,0.3c0.183,0.09 0.372,0.167 0.567,0.229c0.208,0.067 0.414,0.136 0.62,0.207c0.342,0.118 0.676,0.259 1,0.422c0.281,0.14 0.54,0.321 0.769,0.536c0.212,0.203 0.38,0.449 0.492,0.721c0.278,0.773 0.214,1.629 -0.176,2.351c-0.23,0.377 -0.547,0.693 -0.923,0.923c-0.41,0.248 -0.859,0.423 -1.327,0.519c-0.513,0.11 -1.036,0.164 -1.56,0.163c-0.936,0.01 -1.866,-0.143 -2.748,-0.453Zm13.948,0.128c-0.585,0.25 -1.22,0.362 -1.854,0.325c-1.958,0 -2.936,-1.017 -2.936,-3.05l-0,-4.118l-1.459,0l-0,-2.048l1.455,0l-0,-1.942l2.769,-0.791l-0,2.733l2.021,0l-0,2.048l-2.021,0l-0,3.639c-0,0.937 0.372,1.406 1.116,1.406c0.318,-0.007 0.629,-0.095 0.905,-0.255l0.004,2.053Zm7.436,-6.39c-0.361,-0.188 -0.763,-0.281 -1.169,-0.272c-0.552,-0.024 -1.082,0.224 -1.415,0.664c-0.366,0.529 -0.545,1.164 -0.51,1.806l-0,4.301l-2.777,0l-0,-9l2.777,0l-0,1.67l0.035,0c0.266,-1.085 1.256,-1.848 2.373,-1.828c0.233,-0.01 0.466,0.026 0.686,0.105l-0,2.554Zm8.78,6.5l-2.628,0l-0,-1.293l-0.035,0c-0.536,0.969 -1.576,1.555 -2.681,1.512c-0.759,0.043 -1.504,-0.226 -2.061,-0.743c-0.514,-0.528 -0.786,-1.246 -0.751,-1.982c-0,-1.746 1.033,-2.754 3.1,-3.023l2.443,-0.325c-0,-0.985 -0.534,-1.477 -1.6,-1.477c-1.093,0.006 -2.159,0.34 -3.059,0.958l-0,-2.092c0.505,-0.239 1.037,-0.416 1.586,-0.527c0.6,-0.144 1.215,-0.221 1.833,-0.229c2.566,0 3.85,1.28 3.85,3.841l0.003,5.38Zm-2.61,-3.656l-0,-0.606l-1.635,0.211c-0.903,0.117 -1.354,0.525 -1.354,1.222c-0.009,0.295 0.111,0.579 0.33,0.778c0.247,0.211 0.567,0.318 0.892,0.3c0.483,0.016 0.949,-0.182 1.274,-0.541c0.333,-0.375 0.51,-0.864 0.493,-1.365l-0,0.001Zm10.248,3.551c-0.585,0.25 -1.22,0.362 -1.854,0.325c-1.958,0 -2.936,-1.017 -2.936,-3.05l-0,-4.123l-1.458,0l-0,-2.048l1.459,0l-0,-1.942l2.769,-0.791l-0,2.733l2.021,0l-0,2.048l-2.021,0l-0,3.639c-0,0.937 0.372,1.406 1.116,1.406c0.318,-0.007 0.629,-0.095 0.905,-0.255l-0.001,2.058Zm9.58,-3.6l-5.871,0c0.094,1.307 0.917,1.96 2.47,1.96c0.918,0.02 1.824,-0.223 2.61,-0.7l-0,2c-1.011,0.484 -2.124,0.714 -3.243,0.668c-1.246,0.077 -2.469,-0.36 -3.384,-1.208c-0.842,-0.913 -1.276,-2.131 -1.2,-3.371c-0.069,-1.311 0.401,-2.594 1.3,-3.551c0.838,-0.861 1.998,-1.336 3.2,-1.31c1.135,-0.069 2.247,0.357 3.045,1.169c0.753,0.879 1.139,2.017 1.077,3.173l-0.004,1.17Zm-2.575,-1.705c-0,-1.289 -0.522,-1.934 -1.564,-1.934c-0.449,0.002 -0.874,0.205 -1.156,0.554c-0.334,0.389 -0.541,0.87 -0.593,1.38l3.313,0Zm1.415,-7.849l-2.751,2.839l-2,0l2.283,-2.844l2.468,0.005Zm11.632,12.23c0.088,1.44 -0.44,2.851 -1.45,3.88c-1.168,0.987 -2.675,1.481 -4.2,1.375c-0.988,0.043 -1.973,-0.134 -2.883,-0.519l-0,-2.337c0.844,0.516 1.811,0.795 2.8,0.809c0.796,0.05 1.58,-0.217 2.18,-0.743c0.53,-0.533 0.811,-1.266 0.773,-2.017l-0,-0.712l-0.035,0c-0.583,0.98 -1.661,1.562 -2.8,1.512c-1.05,0.044 -2.062,-0.405 -2.733,-1.213c-0.714,-0.929 -1.072,-2.082 -1.011,-3.252c-0.071,-1.305 0.329,-2.593 1.125,-3.63c0.723,-0.884 1.82,-1.382 2.962,-1.345c0.987,-0.055 1.931,0.43 2.461,1.266l0.035,0l-0,-1.046l2.776,0l-0,7.972Zm-2.742,-3.3l-0,-0.712c0.013,-0.53 -0.166,-1.047 -0.505,-1.455c-0.321,-0.393 -0.807,-0.615 -1.314,-0.6c-0.574,-0.02 -1.12,0.252 -1.45,0.721c-0.386,0.604 -0.571,1.315 -0.527,2.03c-0.035,0.632 0.141,1.258 0.5,1.78c0.321,0.43 0.834,0.676 1.371,0.655c0.543,0.014 1.062,-0.233 1.393,-0.664c0.375,-0.504 0.565,-1.123 0.536,-1.751l-0.004,-0.004Zm6.469,-6.1c-0.424,0.017 -0.837,-0.133 -1.151,-0.417c-0.291,-0.26 -0.455,-0.634 -0.448,-1.024c-0.012,-0.39 0.153,-0.765 0.448,-1.02c0.676,-0.526 1.63,-0.526 2.307,0c0.293,0.256 0.456,0.631 0.444,1.02c0.011,0.394 -0.151,0.774 -0.444,1.037c-0.318,0.278 -0.73,0.424 -1.152,0.408l-0.004,-0.004Zm1.373,10.428l-2.777,0l-0,-9l2.777,0l-0,9Zm9.158,-0.325c-0.844,0.411 -1.779,0.598 -2.716,0.545c-1.243,0.053 -2.455,-0.401 -3.357,-1.257c-0.863,-0.853 -1.329,-2.03 -1.285,-3.243c-0.072,-1.345 0.428,-2.659 1.375,-3.617c1,-0.913 2.325,-1.39 3.678,-1.323c0.789,-0.054 1.58,0.091 2.3,0.422l-0,2.355c-0.558,-0.426 -1.241,-0.654 -1.942,-0.65c-0.701,-0.036 -1.386,0.217 -1.894,0.7c-0.487,0.52 -0.741,1.218 -0.7,1.929c-0.039,0.689 0.202,1.366 0.668,1.876c0.491,0.472 1.157,0.719 1.837,0.681c0.726,-0.011 1.432,-0.237 2.03,-0.65l0.006,2.232Zm6.108,0.545c-1.301,0.073 -2.577,-0.382 -3.538,-1.261c-0.887,-0.912 -1.354,-2.153 -1.288,-3.423c-0.074,-1.301 0.413,-2.574 1.336,-3.494c0.991,-0.878 2.289,-1.331 3.612,-1.261c1.294,-0.074 2.564,0.382 3.516,1.261c0.867,0.887 1.329,2.095 1.274,3.335c0.069,1.311 -0.407,2.594 -1.314,3.542c-0.972,0.903 -2.271,1.373 -3.595,1.301l-0.003,0Zm0.07,-7.312c-0.588,-0.03 -1.157,0.221 -1.529,0.677c-0.396,0.557 -0.589,1.234 -0.545,1.916c-0,1.729 0.697,2.593 2.092,2.593c1.333,0 2,-0.888 2,-2.663c-0.002,-1.683 -0.673,-2.524 -2.015,-2.524l-0.003,0.001Z" style="fill:#fff;fill-rule:nonzero;"/><path id="Trazado_17239" d="M156.815,148l-2.8,0l0,-7.541c0,-0.815 0.035,-1.715 0.105,-2.7l-0.07,0c-0.097,0.565 -0.231,1.123 -0.4,1.67l-2.95,8.571l-2.32,0l-3.006,-8.481c-0.165,-0.578 -0.299,-1.165 -0.4,-1.758l-0.074,0c0.076,1.242 0.114,2.332 0.114,3.27l0,6.969l-2.56,0l0,-12.6l4.157,0l2.575,7.471c0.202,0.586 0.352,1.188 0.448,1.8l0.053,-0c0.135,-0.615 0.302,-1.222 0.5,-1.819l2.576,-7.452l4.052,-0l0,12.6Zm10.679,-3.709l-5.871,-0c0.094,1.307 0.917,1.96 2.47,1.96c0.919,0.02 1.825,-0.223 2.61,-0.7l0,2c-1.01,0.484 -2.124,0.714 -3.243,0.668c-1.245,0.077 -2.469,-0.36 -3.384,-1.208c-0.842,-0.913 -1.275,-2.131 -1.2,-3.371c-0.069,-1.311 0.401,-2.594 1.3,-3.551c0.838,-0.861 1.998,-1.336 3.2,-1.31c1.136,-0.069 2.247,0.357 3.045,1.169c0.754,0.879 1.14,2.017 1.077,3.173l-0.004,1.17Zm-2.575,-1.705c-0,-1.289 -0.521,-1.934 -1.564,-1.934c-0.449,0.002 -0.874,0.205 -1.156,0.554c-0.334,0.389 -0.541,0.87 -0.593,1.38l3.313,-0Zm10.1,-1.081c-0.36,-0.188 -0.763,-0.281 -1.169,-0.272c-0.552,-0.024 -1.081,0.224 -1.415,0.664c-0.365,0.529 -0.545,1.164 -0.51,1.806l-0,4.297l-2.777,-0l-0,-9l2.777,-0l-0,1.67l0.035,-0c0.266,-1.085 1.256,-1.848 2.373,-1.828c0.233,-0.01 0.466,0.026 0.686,0.105l0,2.558Zm8.042,6.17c-0.844,0.411 -1.779,0.598 -2.716,0.545c-1.243,0.053 -2.455,-0.401 -3.357,-1.257c-0.864,-0.853 -1.331,-2.03 -1.288,-3.243c-0.072,-1.345 0.428,-2.659 1.375,-3.617c1,-0.913 2.325,-1.39 3.678,-1.323c0.79,-0.054 1.581,0.091 2.3,0.422l0,2.355c-0.557,-0.426 -1.241,-0.654 -1.942,-0.65c-0.7,-0.036 -1.386,0.217 -1.894,0.7c-0.487,0.52 -0.74,1.218 -0.7,1.929c-0.039,0.689 0.202,1.366 0.668,1.876c0.491,0.472 1.157,0.719 1.837,0.681c0.726,-0.011 1.433,-0.237 2.03,-0.65l0.009,2.232Zm9.308,0.325l-2.628,0l0,-1.292l-0.041,0c-0.535,0.969 -1.575,1.555 -2.681,1.512c-0.759,0.043 -1.504,-0.226 -2.061,-0.743c-0.514,-0.528 -0.786,-1.246 -0.751,-1.982c0,-1.746 1.033,-2.754 3.1,-3.023l2.443,-0.325c0,-0.985 -0.533,-1.477 -1.6,-1.477c-1.092,0.006 -2.158,0.34 -3.059,0.958l0,-2.092c0.505,-0.239 1.038,-0.416 1.586,-0.527c0.601,-0.144 1.215,-0.221 1.833,-0.229c2.567,0 3.85,1.28 3.85,3.841l0.009,5.379Zm-2.61,-3.656l0,-0.606l-1.635,0.211c-0.903,0.117 -1.354,0.525 -1.354,1.222c-0.009,0.295 0.112,0.579 0.33,0.778c0.248,0.211 0.567,0.318 0.892,0.3c0.483,0.016 0.95,-0.182 1.274,-0.541c0.332,-0.375 0.508,-0.863 0.49,-1.364l0.003,0Zm13.612,3.656l-2.777,0l0,-1.239l-0.035,0c-0.596,0.953 -1.663,1.512 -2.786,1.459c-1.039,0.038 -2.04,-0.401 -2.716,-1.191c-0.736,-0.947 -1.101,-2.13 -1.028,-3.327c-0.065,-1.29 0.338,-2.56 1.134,-3.577c0.728,-0.884 1.827,-1.381 2.971,-1.345c0.981,-0.094 1.932,0.395 2.426,1.248l0.035,0l0,-5.352l2.777,0l-0.001,13.324Zm-2.725,-4.377l0,-0.677c0.019,-0.533 -0.163,-1.054 -0.51,-1.459c-0.341,-0.37 -0.821,-0.581 -1.324,-0.581c-0.569,-0 -1.106,0.27 -1.445,0.726c-0.376,0.593 -0.558,1.29 -0.519,1.991c-0.042,0.648 0.134,1.292 0.5,1.828c0.338,0.406 0.84,0.641 1.368,0.641c0.544,0 1.059,-0.249 1.396,-0.676c0.377,-0.519 0.565,-1.152 0.534,-1.793Zm9.354,4.597c-1.3,0.073 -2.577,-0.382 -3.538,-1.261c-0.886,-0.912 -1.353,-2.153 -1.288,-3.423c-0.073,-1.301 0.413,-2.574 1.336,-3.494c0.992,-0.878 2.29,-1.331 3.612,-1.261c1.294,-0.074 2.564,0.382 3.516,1.261c0.868,0.887 1.329,2.095 1.274,3.335c0.069,1.311 -0.406,2.594 -1.314,3.542c-0.973,0.904 -2.272,1.374 -3.598,1.301Zm0.07,-7.312c-0.588,-0.03 -1.156,0.221 -1.529,0.677c-0.396,0.557 -0.588,1.234 -0.545,1.916c0,1.729 0.697,2.593 2.092,2.593c1.333,0 2,-0.888 2,-2.663c-0.005,-1.683 -0.678,-2.524 -2.02,-2.524l0.002,0.001Zm20.415,7.092l-2.777,0l0,-1.239l-0.035,0c-0.596,0.953 -1.663,1.512 -2.786,1.459c-1.039,0.038 -2.04,-0.401 -2.716,-1.191c-0.736,-0.947 -1.101,-2.13 -1.028,-3.327c-0.065,-1.29 0.338,-2.56 1.134,-3.577c0.728,-0.884 1.827,-1.381 2.971,-1.345c0.981,-0.094 1.932,0.395 2.426,1.248l0.035,0l0,-5.352l2.777,0l-0.001,13.324Zm-2.725,-4.377l0,-0.677c0.019,-0.533 -0.163,-1.054 -0.51,-1.459c-0.341,-0.37 -0.821,-0.581 -1.324,-0.581c-0.569,-0 -1.106,0.27 -1.445,0.726c-0.376,0.593 -0.558,1.29 -0.519,1.991c-0.042,0.648 0.134,1.292 0.5,1.828c0.338,0.406 0.84,0.641 1.368,0.641c0.544,0 1.059,-0.249 1.396,-0.676c0.377,-0.519 0.565,-1.152 0.534,-1.793Zm13.148,0.668l-5.871,-0c0.094,1.307 0.917,1.96 2.47,1.96c0.919,0.02 1.825,-0.223 2.61,-0.7l0,2c-1.01,0.484 -2.124,0.714 -3.243,0.668c-1.245,0.077 -2.469,-0.36 -3.384,-1.208c-0.842,-0.913 -1.275,-2.131 -1.2,-3.371c-0.069,-1.311 0.401,-2.594 1.3,-3.551c0.838,-0.861 1.998,-1.336 3.2,-1.31c1.136,-0.069 2.247,0.357 3.045,1.169c0.754,0.879 1.14,2.017 1.077,3.173l-0.004,1.17Zm-2.575,-1.705c0,-1.289 -0.521,-1.934 -1.564,-1.934c-0.449,0.002 -0.874,0.205 -1.156,0.554c-0.334,0.389 -0.541,0.87 -0.593,1.38l3.313,-0Zm15.067,-1.086c-0.36,-0.188 -0.763,-0.281 -1.169,-0.272c-0.552,-0.024 -1.081,0.224 -1.415,0.664c-0.365,0.529 -0.545,1.164 -0.51,1.806l0,4.302l-2.777,-0l0,-9l2.771,-0l0,1.67l0.035,-0c0.266,-1.085 1.256,-1.848 2.373,-1.828c0.233,-0.01 0.466,0.026 0.686,0.105l0.006,2.553Zm9.308,2.786l-5.871,0c0.094,1.307 0.917,1.96 2.47,1.96c0.919,0.02 1.825,-0.223 2.61,-0.7l0,2c-1.01,0.484 -2.124,0.714 -3.243,0.668c-1.245,0.077 -2.469,-0.36 -3.384,-1.208c-0.842,-0.913 -1.275,-2.131 -1.2,-3.371c-0.069,-1.311 0.401,-2.594 1.3,-3.551c0.838,-0.861 1.998,-1.336 3.2,-1.31c1.136,-0.069 2.247,0.357 3.045,1.169c0.754,0.879 1.14,2.017 1.077,3.173l-0.004,1.17Zm-2.575,-1.705c0,-1.289 -0.521,-1.934 -1.564,-1.934c-0.449,0.002 -0.874,0.205 -1.156,0.554c-0.334,0.389 -0.541,0.87 -0.593,1.38l3.313,-0Zm10.1,-5.783c-0.326,-0.134 -0.675,-0.206 -1.028,-0.211c-0.891,-0 -1.336,0.483 -1.336,1.45l0,0.963l2.057,0l0,2.048l-2.057,0l0,6.952l-2.769,0l0,-6.952l-1.512,0l0,-2.048l1.512,0l0,-1.116c-0.039,-0.931 0.326,-1.835 1,-2.479c0.751,-0.657 1.729,-0.994 2.725,-0.94c0.475,-0.011 0.949,0.048 1.406,0.176l0.002,2.157Zm9.114,7.488l-5.871,0c0.094,1.307 0.917,1.96 2.47,1.96c0.919,0.02 1.825,-0.223 2.61,-0.7l0,2c-1.01,0.484 -2.124,0.714 -3.243,0.668c-1.245,0.077 -2.469,-0.36 -3.384,-1.208c-0.842,-0.913 -1.275,-2.131 -1.2,-3.371c-0.069,-1.311 0.401,-2.594 1.3,-3.551c0.838,-0.861 1.998,-1.336 3.2,-1.31c1.136,-0.069 2.247,0.357 3.045,1.169c0.754,0.879 1.14,2.017 1.077,3.173l-0.004,1.17Zm-2.575,-1.705c0,-1.289 -0.521,-1.934 -1.564,-1.934c-0.449,0.002 -0.874,0.205 -1.156,0.554c-0.334,0.389 -0.541,0.87 -0.593,1.38l3.313,0Zm10.1,-1.081c-0.36,-0.188 -0.763,-0.281 -1.169,-0.272c-0.552,-0.024 -1.081,0.224 -1.415,0.664c-0.365,0.529 -0.545,1.164 -0.51,1.806l0,4.302l-2.778,0l0,-9l2.777,0l0,1.67l0.035,0c0.266,-1.085 1.256,-1.848 2.373,-1.828c0.233,-0.01 0.466,0.026 0.686,0.105l0.001,2.553Zm9.308,2.786l-5.88,0c0.094,1.307 0.917,1.96 2.47,1.96c0.919,0.02 1.825,-0.223 2.61,-0.7l0,2c-1.01,0.484 -2.124,0.714 -3.243,0.668c-1.245,0.077 -2.469,-0.36 -3.384,-1.208c-0.842,-0.913 -1.275,-2.131 -1.2,-3.371c-0.069,-1.311 0.401,-2.594 1.3,-3.551c0.838,-0.861 1.998,-1.336 3.2,-1.31c1.136,-0.069 2.247,0.357 3.045,1.169c0.754,0.879 1.14,2.017 1.077,3.173l0.005,1.17Zm-2.58,-1.7c0,-1.289 -0.521,-1.934 -1.564,-1.934c-0.449,0.002 -0.874,0.205 -1.156,0.554c-0.334,0.389 -0.541,0.87 -0.593,1.38l3.313,0Zm12.919,5.414l-2.769,0l0,-5c0,-1.395 -0.498,-2.092 -1.494,-2.092c-0.46,-0.01 -0.899,0.195 -1.187,0.554c-0.32,0.397 -0.486,0.897 -0.466,1.406l0,5.132l-2.777,0l0,-9l2.774,0l0,1.424l0.035,0c0.577,-1.047 1.697,-1.683 2.892,-1.644c1.992,0 2.988,1.236 2.988,3.709l0.004,5.511Zm9.018,-0.325c-0.844,0.411 -1.779,0.598 -2.716,0.545c-1.243,0.053 -2.455,-0.401 -3.357,-1.257c-0.862,-0.854 -1.327,-2.031 -1.283,-3.243c-0.072,-1.345 0.428,-2.659 1.375,-3.617c1,-0.913 2.325,-1.39 3.678,-1.323c0.79,-0.054 1.581,0.091 2.3,0.422l0,2.355c-0.557,-0.426 -1.241,-0.654 -1.942,-0.65c-0.7,-0.036 -1.386,0.217 -1.894,0.7c-0.487,0.52 -0.74,1.218 -0.7,1.929c-0.039,0.689 0.202,1.366 0.668,1.876c0.491,0.472 1.157,0.719 1.837,0.681c0.726,-0.011 1.433,-0.237 2.03,-0.65l0.004,2.232Zm3.226,-10.1c-0.423,0.017 -0.837,-0.133 -1.151,-0.417c-0.291,-0.26 -0.454,-0.634 -0.448,-1.024c-0.011,-0.39 0.153,-0.765 0.448,-1.02c0.676,-0.526 1.631,-0.526 2.307,0c0.293,0.256 0.456,0.631 0.444,1.02c0.012,0.394 -0.151,0.774 -0.444,1.037c-0.319,0.278 -0.734,0.424 -1.157,0.405l0.001,-0.001Zm1.37,10.425l-2.777,0l0,-9l2.777,0l0,9Zm9.826,0l-2.628,0l0,-1.292l-0.031,0c-0.535,0.969 -1.575,1.555 -2.681,1.512c-0.759,0.043 -1.504,-0.226 -2.061,-0.743c-0.515,-0.526 -0.79,-1.242 -0.758,-1.977c0,-1.746 1.033,-2.754 3.1,-3.023l2.443,-0.325c0,-0.985 -0.533,-1.477 -1.6,-1.477c-1.092,0.006 -2.158,0.34 -3.059,0.958l0,-2.097c0.505,-0.239 1.038,-0.416 1.586,-0.527c0.601,-0.144 1.215,-0.221 1.833,-0.229c2.567,0 3.85,1.28 3.85,3.841l0.006,5.379Zm-2.61,-3.656l0,-0.606l-1.635,0.211c-0.903,0.117 -1.354,0.525 -1.354,1.222c-0.009,0.295 0.112,0.579 0.33,0.778c0.248,0.211 0.567,0.318 0.892,0.3c0.483,0.016 0.95,-0.182 1.274,-0.541c0.333,-0.374 0.51,-0.863 0.493,-1.364Z" style="fill:#00223d;fill-rule:nonzero;"/><path id="Trazado_17240" d="M176.652,230.517l-0,-2.817c0.492,0.417 1.054,0.743 1.661,0.962c0.581,0.211 1.193,0.32 1.811,0.321c0.315,0.003 0.629,-0.03 0.936,-0.1c0.236,-0.052 0.462,-0.142 0.668,-0.268c0.164,-0.099 0.301,-0.236 0.4,-0.4c0.088,-0.154 0.133,-0.328 0.132,-0.505c0.003,-0.237 -0.071,-0.468 -0.211,-0.659c-0.159,-0.211 -0.354,-0.392 -0.576,-0.536c-0.275,-0.182 -0.565,-0.341 -0.866,-0.475c-0.333,-0.153 -0.694,-0.308 -1.081,-0.466c-0.845,-0.313 -1.6,-0.828 -2.2,-1.5c-0.489,-0.606 -0.746,-1.366 -0.726,-2.144c-0.015,-0.589 0.123,-1.172 0.4,-1.692c0.261,-0.469 0.63,-0.868 1.077,-1.165c0.482,-0.316 1.016,-0.544 1.578,-0.672c0.623,-0.146 1.26,-0.219 1.9,-0.215c0.584,-0.005 1.167,0.035 1.745,0.119c0.478,0.072 0.948,0.194 1.4,0.365l-0,2.63c-0.22,-0.152 -0.455,-0.282 -0.7,-0.39c-0.249,-0.111 -0.506,-0.204 -0.769,-0.277c-0.258,-0.072 -0.521,-0.127 -0.787,-0.163c-0.246,-0.034 -0.494,-0.052 -0.743,-0.053c-0.296,-0.003 -0.59,0.028 -0.879,0.092c-0.235,0.05 -0.461,0.138 -0.668,0.259c-0.169,0.099 -0.314,0.236 -0.422,0.4c-0.1,0.156 -0.151,0.338 -0.149,0.523c-0.003,0.201 0.055,0.399 0.167,0.567c0.129,0.185 0.29,0.346 0.475,0.475c0.236,0.168 0.486,0.314 0.747,0.439c0.293,0.143 0.624,0.291 0.993,0.444c0.467,0.193 0.921,0.417 1.358,0.672c0.379,0.219 0.727,0.488 1.033,0.8c0.285,0.295 0.508,0.643 0.659,1.024c0.16,0.428 0.238,0.883 0.229,1.34c0.021,0.615 -0.117,1.225 -0.4,1.771c-0.26,0.47 -0.633,0.869 -1.085,1.16c-0.49,0.309 -1.032,0.525 -1.6,0.637c-0.631,0.131 -1.275,0.196 -1.92,0.193c-0.662,0.003 -1.322,-0.056 -1.973,-0.176c-0.56,-0.095 -1.104,-0.271 -1.614,-0.52Zm18.483,-3.226l-5.871,0c0.094,1.307 0.917,1.96 2.47,1.96c0.919,0.02 1.825,-0.223 2.61,-0.7l-0,2c-1.01,0.484 -2.124,0.714 -3.243,0.668c-1.245,0.077 -2.469,-0.36 -3.384,-1.208c-0.842,-0.913 -1.275,-2.131 -1.2,-3.371c-0.069,-1.311 0.401,-2.594 1.3,-3.551c0.838,-0.861 1.998,-1.336 3.2,-1.31c1.136,-0.069 2.247,0.357 3.045,1.169c0.754,0.879 1.14,2.017 1.077,3.173l-0.004,1.17Zm-2.575,-1.705c-0,-1.289 -0.521,-1.934 -1.564,-1.934c-0.449,0.002 -0.874,0.205 -1.156,0.554c-0.334,0.389 -0.541,0.87 -0.593,1.38l3.313,0Zm13.052,4.386c0.088,1.44 -0.439,2.851 -1.45,3.88c-1.167,0.987 -2.675,1.481 -4.2,1.375c-0.988,0.043 -1.972,-0.134 -2.883,-0.519l-0,-2.337c0.844,0.516 1.811,0.795 2.8,0.809c0.796,0.05 1.58,-0.217 2.18,-0.743c0.531,-0.533 0.812,-1.266 0.773,-2.017l-0,-0.712l-0.032,-0c-0.583,0.98 -1.661,1.562 -2.8,1.512c-1.05,0.044 -2.061,-0.405 -2.733,-1.213c-0.713,-0.929 -1.072,-2.082 -1.011,-3.252c-0.07,-1.305 0.329,-2.593 1.125,-3.63c0.724,-0.884 1.82,-1.382 2.962,-1.345c0.988,-0.055 1.931,0.43 2.461,1.266l0.035,-0l-0,-1.046l2.777,-0l-0.004,7.972Zm-2.742,-3.296l-0,-0.716c0.014,-0.53 -0.166,-1.047 -0.505,-1.455c-0.321,-0.393 -0.807,-0.615 -1.314,-0.6c-0.574,-0.02 -1.12,0.252 -1.45,0.721c-0.386,0.604 -0.57,1.315 -0.527,2.03c-0.035,0.632 0.141,1.258 0.5,1.78c0.321,0.43 0.835,0.676 1.371,0.655c0.543,0.014 1.062,-0.233 1.393,-0.664c0.374,-0.505 0.562,-1.124 0.532,-1.751Zm19.353,4.324l-2.769,-0l-0,-5.133c-0,-1.307 -0.48,-1.96 -1.441,-1.96c-0.447,-0.005 -0.868,0.217 -1.116,0.589c-0.299,0.43 -0.45,0.945 -0.431,1.468l-0,5.036l-2.777,-0l-0,-5.186c-0,-1.271 -0.472,-1.907 -1.415,-1.907c-0.449,-0.012 -0.876,0.199 -1.138,0.563c-0.307,0.449 -0.457,0.987 -0.427,1.53l-0,5l-2.777,0l-0,-9l2.777,0l-0,1.406l0.035,0c0.62,-1.01 1.724,-1.627 2.909,-1.626c1.143,-0.08 2.209,0.606 2.61,1.679c0.614,-1.079 1.783,-1.728 3.023,-1.679c1.957,0 2.936,1.207 2.936,3.621l0.001,5.599Zm10.283,-3.709l-5.871,0c0.094,1.307 0.917,1.96 2.47,1.96c0.919,0.02 1.825,-0.223 2.61,-0.7l-0,2c-1.01,0.484 -2.124,0.714 -3.243,0.668c-1.245,0.077 -2.469,-0.36 -3.384,-1.208c-0.842,-0.913 -1.275,-2.131 -1.2,-3.371c-0.069,-1.311 0.401,-2.594 1.3,-3.551c0.838,-0.861 1.998,-1.336 3.2,-1.31c1.136,-0.069 2.247,0.357 3.045,1.169c0.754,0.879 1.14,2.017 1.077,3.173l-0.004,1.17Zm-2.575,-1.705c-0,-1.289 -0.521,-1.934 -1.564,-1.934c-0.449,0.002 -0.874,0.205 -1.156,0.554c-0.334,0.389 -0.541,0.87 -0.593,1.38l3.313,0Zm12.92,5.414l-2.769,0l-0,-5c-0,-1.395 -0.498,-2.092 -1.494,-2.092c-0.46,-0.01 -0.899,0.195 -1.187,0.554c-0.32,0.397 -0.486,0.897 -0.466,1.406l-0,5.132l-2.777,0l-0,-9l2.777,0l-0,1.424l0.035,0c0.577,-1.047 1.697,-1.683 2.892,-1.644c1.992,0 2.988,1.236 2.988,3.709l0.001,5.511Zm7.638,-0.105c-0.584,0.25 -1.219,0.362 -1.854,0.325c-1.957,0 -2.936,-1.017 -2.936,-3.05l-0,-4.122l-1.459,0l-0,-2.048l1.46,0l-0,-1.942l2.769,-0.791l-0,2.733l2.021,0l-0,2.048l-2.021,0l-0,3.639c-0,0.937 0.372,1.406 1.116,1.406c0.318,-0.007 0.63,-0.095 0.905,-0.255l-0.001,2.057Zm9.053,0.105l-2.628,0l-0,-1.292l-0.035,0c-0.535,0.968 -1.574,1.554 -2.679,1.512c-0.759,0.043 -1.504,-0.226 -2.061,-0.743c-0.514,-0.528 -0.786,-1.246 -0.751,-1.982c-0,-1.746 1.033,-2.754 3.1,-3.023l2.443,-0.325c-0,-0.985 -0.533,-1.477 -1.6,-1.477c-1.092,0.006 -2.158,0.34 -3.059,0.958l-0,-2.092c0.505,-0.239 1.038,-0.416 1.586,-0.527c0.601,-0.144 1.215,-0.221 1.833,-0.229c2.567,0 3.85,1.28 3.85,3.841l0.001,5.379Zm-2.61,-3.656l-0,-0.606l-1.635,0.211c-0.903,0.117 -1.354,0.525 -1.354,1.222c-0.009,0.295 0.112,0.579 0.33,0.778c0.248,0.211 0.567,0.318 0.892,0.3c0.483,0.016 0.95,-0.182 1.274,-0.541c0.333,-0.375 0.509,-0.863 0.492,-1.364l0.001,-0Zm11.628,3.331c-0.844,0.411 -1.779,0.598 -2.716,0.545c-1.243,0.053 -2.455,-0.401 -3.357,-1.257c-0.863,-0.853 -1.33,-2.03 -1.287,-3.243c-0.072,-1.345 0.428,-2.659 1.375,-3.617c1,-0.913 2.325,-1.39 3.678,-1.323c0.79,-0.054 1.581,0.091 2.3,0.422l-0,2.355c-0.557,-0.426 -1.241,-0.654 -1.942,-0.65c-0.7,-0.036 -1.386,0.217 -1.894,0.7c-0.487,0.52 -0.74,1.218 -0.7,1.929c-0.039,0.689 0.202,1.366 0.668,1.876c0.491,0.472 1.157,0.719 1.837,0.681c0.726,-0.011 1.433,-0.237 2.03,-0.65l0.008,2.232Zm3.226,-10.1c-0.423,0.017 -0.837,-0.133 -1.151,-0.417c-0.291,-0.26 -0.454,-0.634 -0.448,-1.024c-0.011,-0.39 0.153,-0.765 0.448,-1.02c0.676,-0.526 1.631,-0.526 2.307,0c0.293,0.256 0.456,0.631 0.444,1.02c0.012,0.394 -0.151,0.774 -0.444,1.037c-0.319,0.278 -0.734,0.424 -1.157,0.405l0.001,-0.001Zm1.37,10.425l-2.777,0l-0,-9l2.777,0l-0,9Zm6.627,0.22c-1.3,0.073 -2.577,-0.382 -3.538,-1.261c-0.886,-0.912 -1.353,-2.153 -1.288,-3.423c-0.073,-1.301 0.413,-2.574 1.336,-3.494c0.992,-0.878 2.29,-1.331 3.612,-1.261c1.294,-0.074 2.564,0.382 3.516,1.261c0.868,0.887 1.329,2.095 1.274,3.335c0.069,1.311 -0.406,2.594 -1.314,3.542c-0.973,0.904 -2.272,1.374 -3.598,1.301Zm0.07,-7.312c-0.588,-0.03 -1.156,0.221 -1.529,0.677c-0.396,0.557 -0.588,1.234 -0.545,1.916c-0,1.729 0.697,2.593 2.092,2.593c1.333,0 2,-0.888 2,-2.663c-0.003,-1.683 -0.676,-2.524 -2.018,-2.524l-0,0.001Zm2.979,-6.17l-2.751,2.839l-2,0l2.285,-2.839l2.466,0Zm12.349,13.262l-2.769,0l-0,-5c-0,-1.395 -0.498,-2.092 -1.494,-2.092c-0.46,-0.01 -0.899,0.195 -1.187,0.554c-0.32,0.397 -0.486,0.897 -0.466,1.406l-0,5.132l-2.777,0l-0,-9l2.777,0l-0,1.424l0.035,0c0.577,-1.047 1.697,-1.683 2.892,-1.644c1.992,0 2.988,1.236 2.988,3.709l0.001,5.511Z" style="fill:#00223d;fill-rule:nonzero;"/><path id="Trazado_17241" d="M170.249,309.658l0,4.342l-2.839,0l0,-12.6l4.447,0c3.176,0 4.764,1.339 4.764,4.017c0.039,1.178 -0.466,2.312 -1.367,3.072c-1.033,0.823 -2.333,1.241 -3.652,1.173l-1.353,-0.004Zm-0,-6.082l-0,3.924l1.116,0c1.512,0 2.268,-0.662 2.268,-1.986c-0,-1.295 -0.756,-1.942 -2.268,-1.942l-1.116,0.004Zm11.7,10.644c-1.3,0.073 -2.577,-0.382 -3.538,-1.261c-0.886,-0.912 -1.353,-2.153 -1.288,-3.423c-0.073,-1.301 0.413,-2.574 1.336,-3.494c0.991,-0.878 2.289,-1.331 3.611,-1.262c1.294,-0.074 2.564,0.382 3.516,1.261c0.868,0.887 1.329,2.095 1.274,3.335c0.069,1.311 -0.406,2.594 -1.314,3.542c-0.973,0.904 -2.273,1.375 -3.599,1.302l0.002,0Zm0.07,-7.312c-0.588,-0.03 -1.156,0.221 -1.529,0.677c-0.396,0.557 -0.588,1.234 -0.545,1.916c-0,1.729 0.697,2.593 2.092,2.593c1.333,0 2,-0.888 2,-2.663c-0.005,-1.683 -0.678,-2.524 -2.019,-2.524l0.001,0.001Zm6.056,6.855l-0,-2.25c0.428,0.262 0.887,0.469 1.367,0.615c0.417,0.128 0.851,0.196 1.288,0.2c0.398,0.018 0.796,-0.05 1.165,-0.2c0.256,-0.095 0.427,-0.342 0.426,-0.615c0.003,-0.168 -0.067,-0.328 -0.193,-0.439c-0.149,-0.129 -0.318,-0.233 -0.5,-0.308c-0.216,-0.093 -0.438,-0.172 -0.664,-0.237c-0.24,-0.07 -0.471,-0.149 -0.694,-0.237c-0.326,-0.12 -0.642,-0.266 -0.945,-0.435c-0.256,-0.142 -0.488,-0.325 -0.686,-0.541c-0.186,-0.207 -0.329,-0.449 -0.422,-0.712c-0.103,-0.309 -0.152,-0.633 -0.145,-0.958c-0.012,-0.455 0.102,-0.906 0.33,-1.3c0.219,-0.362 0.52,-0.668 0.879,-0.892c0.387,-0.24 0.812,-0.413 1.257,-0.51c0.483,-0.11 0.977,-0.164 1.472,-0.163c0.406,0 0.812,0.031 1.213,0.092c0.41,0.061 0.815,0.151 1.213,0.268l-0,2.145c-0.353,-0.206 -0.733,-0.361 -1.129,-0.461c-0.386,-0.101 -0.783,-0.152 -1.182,-0.154c-0.172,-0.001 -0.345,0.015 -0.514,0.048c-0.148,0.028 -0.291,0.075 -0.426,0.141c-0.114,0.054 -0.214,0.136 -0.29,0.237c-0.07,0.096 -0.107,0.212 -0.105,0.33c-0.003,0.156 0.053,0.307 0.158,0.422c0.118,0.125 0.258,0.227 0.413,0.3c0.183,0.09 0.373,0.167 0.567,0.229c0.208,0.067 0.415,0.136 0.62,0.207c0.342,0.118 0.677,0.259 1,0.422c0.281,0.14 0.54,0.321 0.769,0.536c0.213,0.203 0.38,0.449 0.492,0.721c0.279,0.773 0.215,1.629 -0.176,2.351c-0.23,0.377 -0.546,0.693 -0.923,0.923c-0.409,0.248 -0.858,0.423 -1.327,0.519c-0.513,0.11 -1.036,0.164 -1.56,0.163c-0.936,0.009 -1.867,-0.146 -2.75,-0.457l0.002,0Zm9.914,-10.187c-0.423,0.017 -0.837,-0.133 -1.151,-0.417c-0.291,-0.26 -0.454,-0.634 -0.448,-1.024c-0.011,-0.39 0.153,-0.765 0.448,-1.02c0.676,-0.526 1.631,-0.526 2.307,0c0.293,0.256 0.456,0.631 0.444,1.02c0.012,0.394 -0.151,0.774 -0.444,1.037c-0.32,0.278 -0.735,0.423 -1.158,0.404l0.002,0Zm1.369,10.424l-2.777,0l-0,-9l2.777,0l-0,9Zm9.158,-0.325c-0.844,0.411 -1.779,0.598 -2.716,0.545c-1.243,0.053 -2.455,-0.401 -3.357,-1.257c-0.862,-0.854 -1.327,-2.031 -1.283,-3.243c-0.072,-1.345 0.428,-2.659 1.375,-3.617c1,-0.913 2.325,-1.39 3.678,-1.323c0.79,-0.054 1.581,0.091 2.3,0.422l-0,2.355c-0.557,-0.426 -1.241,-0.654 -1.942,-0.65c-0.7,-0.036 -1.386,0.217 -1.894,0.7c-0.487,0.52 -0.74,1.218 -0.7,1.929c-0.039,0.689 0.202,1.366 0.668,1.876c0.491,0.472 1.157,0.719 1.837,0.681c0.726,-0.011 1.433,-0.237 2.03,-0.65l0.004,2.232Zm3.226,-10.1c-0.423,0.017 -0.837,-0.133 -1.151,-0.417c-0.291,-0.26 -0.454,-0.634 -0.448,-1.024c-0.011,-0.39 0.153,-0.765 0.448,-1.02c0.676,-0.526 1.631,-0.526 2.307,0c0.293,0.256 0.456,0.631 0.444,1.02c0.012,0.394 -0.151,0.774 -0.444,1.037c-0.319,0.278 -0.733,0.423 -1.156,0.405l-0,-0.001Zm1.371,10.425l-2.777,0l-0,-9l2.777,0l-0,9Zm6.627,0.22c-1.3,0.073 -2.577,-0.382 -3.538,-1.261c-0.886,-0.912 -1.353,-2.153 -1.288,-3.423c-0.073,-1.301 0.413,-2.574 1.336,-3.494c0.992,-0.878 2.29,-1.331 3.612,-1.261c1.294,-0.074 2.564,0.382 3.516,1.261c0.868,0.887 1.329,2.095 1.274,3.335c0.069,1.311 -0.406,2.594 -1.314,3.542c-0.973,0.904 -2.272,1.374 -3.598,1.301Zm0.07,-7.312c-0.588,-0.03 -1.156,0.221 -1.529,0.677c-0.396,0.557 -0.588,1.234 -0.545,1.916c-0,1.729 0.697,2.593 2.092,2.593c1.333,0 2,-0.888 2,-2.663c-0.003,-1.683 -0.676,-2.524 -2.017,-2.524l-0.001,0.001Zm15.337,7.092l-2.769,0l-0,-5c-0,-1.395 -0.498,-2.092 -1.494,-2.092c-0.46,-0.01 -0.899,0.195 -1.187,0.554c-0.32,0.397 -0.486,0.897 -0.466,1.406l-0,5.132l-2.777,0l-0,-9l2.777,0l-0,1.424l0.035,0c0.577,-1.047 1.697,-1.683 2.892,-1.644c1.992,0 2.988,1.236 2.988,3.709l0.001,5.511Zm9.686,0l-2.628,0l-0,-1.292l-0.035,0c-0.535,0.969 -1.575,1.555 -2.681,1.512c-0.759,0.043 -1.504,-0.226 -2.061,-0.743c-0.514,-0.528 -0.786,-1.246 -0.751,-1.982c-0,-1.746 1.033,-2.754 3.1,-3.023l2.443,-0.325c-0,-0.985 -0.533,-1.477 -1.6,-1.477c-1.092,0.006 -2.158,0.34 -3.059,0.958l-0,-2.092c0.505,-0.239 1.038,-0.416 1.586,-0.527c0.601,-0.144 1.215,-0.221 1.833,-0.229c2.567,0 3.85,1.28 3.85,3.841l0.003,5.379Zm-2.61,-3.656l-0,-0.606l-1.635,0.211c-0.903,0.117 -1.354,0.525 -1.354,1.222c-0.009,0.295 0.112,0.579 0.33,0.778c0.248,0.211 0.567,0.318 0.892,0.3c0.483,0.016 0.95,-0.182 1.274,-0.541c0.333,-0.374 0.51,-0.863 0.493,-1.364Zm19.098,3.656l-2.769,0l0,-5.133c0,-1.307 -0.48,-1.96 -1.441,-1.96c-0.446,-0.002 -0.865,0.221 -1.111,0.593c-0.299,0.43 -0.45,0.945 -0.431,1.468l-0,5.032l-2.777,0l-0,-5.186c-0,-1.271 -0.472,-1.907 -1.415,-1.907c-0.449,-0.012 -0.876,0.199 -1.138,0.563c-0.308,0.449 -0.459,0.987 -0.431,1.53l-0,5l-2.778,0l-0,-9l2.777,0l-0,1.406l0.035,0c0.62,-1.01 1.724,-1.627 2.909,-1.626c1.143,-0.08 2.209,0.606 2.61,1.679c0.614,-1.079 1.783,-1.728 3.023,-1.679c1.957,-0 2.936,1.207 2.936,3.621l0.001,5.599Zm3.6,-10.424c-0.423,0.017 -0.837,-0.133 -1.151,-0.417c-0.291,-0.26 -0.454,-0.634 -0.448,-1.024c-0.011,-0.39 0.153,-0.765 0.448,-1.02c0.676,-0.526 1.631,-0.526 2.307,-0c0.293,0.256 0.456,0.631 0.444,1.02c0.012,0.394 -0.151,0.774 -0.444,1.037c-0.318,0.277 -0.731,0.422 -1.152,0.404l-0.004,0Zm1.379,10.424l-2.777,0l-0,-9l2.777,0l-0,9Zm10.424,-3.709l-5.871,0c0.094,1.307 0.917,1.96 2.47,1.96c0.919,0.02 1.825,-0.223 2.61,-0.7l-0,2c-1.01,0.484 -2.124,0.714 -3.243,0.668c-1.245,0.077 -2.469,-0.36 -3.384,-1.208c-0.842,-0.913 -1.275,-2.131 -1.2,-3.371c-0.069,-1.311 0.401,-2.594 1.3,-3.551c0.838,-0.861 1.998,-1.336 3.2,-1.31c1.136,-0.069 2.247,0.357 3.045,1.169c0.754,0.879 1.14,2.017 1.077,3.173l-0.004,1.17Zm-2.575,-1.705c-0,-1.289 -0.521,-1.934 -1.564,-1.934c-0.449,0.002 -0.874,0.205 -1.156,0.554c-0.334,0.389 -0.541,0.87 -0.593,1.38l3.313,0Zm12.915,5.414l-2.764,0l-0,-5c-0,-1.395 -0.498,-2.092 -1.494,-2.092c-0.46,-0.01 -0.899,0.195 -1.187,0.554c-0.32,0.397 -0.486,0.897 -0.466,1.406l0,5.132l-2.777,0l-0,-9l2.777,0l0,1.424l0.035,0c0.577,-1.047 1.697,-1.683 2.892,-1.644c1.992,0 2.988,1.236 2.988,3.709l-0.004,5.511Zm7.638,-0.105c-0.584,0.25 -1.219,0.362 -1.854,0.325c-1.957,0 -2.936,-1.017 -2.936,-3.05l-0,-4.122l-1.459,0l-0,-2.048l1.459,0l-0,-1.942l2.769,-0.791l-0,2.733l2.019,0l-0,2.048l-2.021,0l-0,3.639c-0,0.937 0.372,1.406 1.116,1.406c0.318,-0.007 0.63,-0.095 0.905,-0.255l0.002,2.057Zm5.783,0.325c-1.3,0.073 -2.577,-0.382 -3.538,-1.261c-0.886,-0.912 -1.353,-2.153 -1.288,-3.423c-0.072,-1.302 0.417,-2.574 1.341,-3.494c0.992,-0.878 2.29,-1.331 3.612,-1.261c1.294,-0.074 2.564,0.382 3.516,1.261c0.868,0.887 1.329,2.095 1.274,3.335c0.069,1.311 -0.406,2.594 -1.314,3.542c-0.974,0.905 -2.276,1.375 -3.603,1.301Zm0.07,-7.312c-0.588,-0.03 -1.156,0.221 -1.529,0.677c-0.396,0.557 -0.588,1.234 -0.545,1.916c0,1.729 0.697,2.593 2.092,2.593c1.333,0 2,-0.888 2,-2.663c-0.003,-1.683 -0.676,-2.524 -2.017,-2.524l-0.001,0.001Z" style="fill:#00223d;fill-rule:nonzero;"/><g id="Grupo_12816"><path id="Línea_142" d="M30.5,66.5l0,241" style="fill:none;fill-rule:nonzero;stroke:#ff8f00;stroke-width:3px;"/><path id="Línea_143" d="M30.5,141.5l25,0" style="fill:none;fill-rule:nonzero;stroke:#ff8f00;stroke-width:3px;"/><path id="Línea_144" d="M30.5,224.5l25,0" style="fill:none;fill-rule:nonzero;stroke:#ff8f00;stroke-width:3px;"/><path id="Línea_145" d="M30.5,307.5l25,0" style="fill:none;fill-rule:nonzero;stroke:#ff8f00;stroke-width:3px;"/></g><g id="Grupo_12818"><rect id="Rectángulo_3053" x="475" y="0" width="403" height="66" style="fill:#d64626;"/><rect id="Rectángulo_3052" x="530" y="108" width="358" height="66" style="fill:#eef0f2;"/><rect id="Rectángulo_3051" x="530" y="191" width="358" height="66" style="fill:#eef0f2;"/><rect id="Rectángulo_3049" x="530" y="274" width="358" height="66" style="fill:#eef0f2;"/><rect id="Rectángulo_3050" x="530" y="357" width="358" height="66" style="fill:#eef0f2;"/><path id="Trazado_17242" d="M619.421,40l-2.8,0l1.842,-7.541c0.199,-0.815 0.454,-1.715 0.765,-2.7l-0.07,-0c-0.236,0.565 -0.505,1.123 -0.808,1.67l-5.046,8.571l-2.32,0l-0.934,-8.481c-0.024,-0.578 -0.015,-1.165 0.029,-1.758l-0.079,0c-0.227,1.242 -0.456,2.332 -0.685,3.27l-1.702,6.969l-2.558,0l3.078,-12.6l4.157,0l0.75,7.471c0.059,0.586 0.062,1.188 0.008,1.8l0.053,0c0.285,-0.615 0.6,-1.222 0.944,-1.819l4.402,-7.452l4.052,0l-3.078,12.6Zm10.081,0l-2.628,0l0.316,-1.292l-0.038,0c-0.772,0.969 -1.955,1.555 -3.051,1.512c-0.769,0.043 -1.448,-0.226 -1.879,-0.743c-0.385,-0.528 -0.482,-1.246 -0.267,-1.982c0.426,-1.746 1.706,-2.754 3.838,-3.023l2.523,-0.325c0.24,-0.985 -0.173,-1.477 -1.24,-1.477c-1.093,0.006 -2.241,0.34 -3.293,0.958l0.511,-2.092c0.564,-0.239 1.14,-0.416 1.715,-0.527c0.636,-0.144 1.27,-0.221 1.889,-0.229c2.567,0 3.537,1.28 2.912,3.841l-1.308,5.379Zm-1.717,-3.656l0.148,-0.606l-1.687,0.211c-0.931,0.117 -1.482,0.525 -1.652,1.222c-0.081,0.295 -0.03,0.579 0.14,0.778c0.196,0.211 0.489,0.318 0.819,0.3c0.479,0.016 0.994,-0.182 1.406,-0.541c0.424,-0.375 0.72,-0.863 0.825,-1.364l0.001,0Zm11.373,-2.844c-0.315,-0.188 -0.694,-0.281 -1.103,-0.272c-0.546,-0.024 -1.136,0.224 -1.577,0.664c-0.495,0.529 -0.829,1.164 -0.951,1.806l-1.051,4.302l-2.777,0l2.198,-9l2.777,0l-0.408,1.67l0.035,0c0.532,-1.085 1.708,-1.848 2.82,-1.828c0.236,-0.01 0.46,0.026 0.66,0.105l-0.623,2.553Zm8.722,6.5l-3.331,0l-1.783,-4.465l-0.039,0l-1.091,4.465l-2.777,0l3.255,-13.324l2.777,0l-2.072,8.481l0.035,0l3.699,-4.157l3.3,0l-4.258,4.228l2.285,4.772Zm9.783,-3.709l-5.871,0c-0.225,1.307 0.439,1.96 1.991,1.96c0.914,0.02 1.879,-0.223 2.781,-0.7l-0.488,2c-1.129,0.484 -2.298,0.714 -3.407,0.668c-1.263,0.077 -2.381,-0.36 -3.088,-1.208c-0.619,-0.913 -0.755,-2.131 -0.377,-3.371c0.251,-1.311 1.035,-2.594 2.167,-3.551c1.049,-0.861 2.325,-1.336 3.52,-1.31c1.153,-0.069 2.161,0.357 2.76,1.169c0.539,0.879 0.647,2.017 0.302,3.173l-0.29,1.17Zm-2.159,-1.705c0.315,-1.289 -0.048,-1.934 -1.091,-1.934c-0.449,0.002 -0.924,0.205 -1.291,0.554c-0.429,0.389 -0.754,0.87 -0.931,1.38l3.313,0Zm8.372,5.309c-0.646,0.25 -1.308,0.362 -1.934,0.325c-1.957,0 -2.687,-1.017 -2.191,-3.05l1.007,-4.122l-1.459,0l0.5,-2.048l1.459,0l0.475,-1.942l2.962,-0.791l-0.668,2.733l2.021,0l-0.5,2.048l-2.021,0l-0.889,3.639c-0.229,0.937 0.029,1.406 0.773,1.406c0.32,-0.007 0.653,-0.095 0.967,-0.255l-0.502,2.057Zm5.491,-10.318c-0.427,0.017 -0.804,-0.133 -1.049,-0.417c-0.227,-0.26 -0.3,-0.634 -0.198,-1.024c0.084,-0.39 0.34,-0.765 0.697,-1.02c0.805,-0.526 1.759,-0.526 2.307,0c0.231,0.256 0.302,0.631 0.195,1.02c-0.084,0.394 -0.34,0.774 -0.697,1.037c-0.388,0.278 -0.838,0.422 -1.256,0.403l0.001,0.001Zm-1.176,10.423l-2.777,0l2.198,-9l2.777,0l-2.198,9Zm11.03,0l-2.769,0l1.221,-5c0.341,-1.395 0.013,-2.092 -0.983,-2.092c-0.457,-0.01 -0.946,0.195 -1.322,0.554c-0.417,0.397 -0.705,0.897 -0.809,1.406l-1.254,5.132l-2.777,0l2.198,-9l2.777,0l-0.347,1.424l0.035,0c0.833,-1.048 2.111,-1.685 3.297,-1.644c1.992,0 2.686,1.236 2.082,3.709l-1.349,5.511Zm11.272,-1.028c-0.263,1.44 -1.136,2.851 -2.398,3.88c-1.408,0.987 -3.036,1.481 -4.536,1.375c-0.998,0.043 -1.939,-0.134 -2.756,-0.519l0.571,-2.337c0.718,0.516 1.617,0.795 2.602,0.809c0.784,0.05 1.634,-0.217 2.362,-0.743c0.661,-0.533 1.121,-1.266 1.266,-2.017l0.174,-0.712l-0.035,0c-0.823,0.98 -2.043,1.562 -3.17,1.512c-1.06,0.044 -1.962,-0.405 -2.436,-1.213c-0.487,-0.929 -0.564,-2.082 -0.217,-3.252c0.249,-1.305 0.962,-2.593 2.012,-3.63c0.939,-0.884 2.157,-1.382 3.29,-1.345c1.001,-0.055 1.826,0.43 2.152,1.266l0.035,0l0.255,-1.046l2.777,0l-1.948,7.972Zm-1.936,-3.3l0.174,-0.712c0.143,-0.53 0.09,-1.047 -0.15,-1.455c-0.224,-0.393 -0.656,-0.615 -1.167,-0.6c-0.569,-0.02 -1.181,0.252 -1.626,0.721c-0.533,0.604 -0.892,1.315 -1.023,2.03c-0.189,0.632 -0.166,1.258 0.065,1.78c0.216,0.43 0.67,0.676 1.211,0.655c0.54,0.014 1.119,-0.233 1.555,-0.664c0.498,-0.504 0.838,-1.123 0.961,-1.751l0,-0.004Zm16.691,4.219c-0.584,0.25 -1.219,0.362 -1.854,0.325c-1.957,0 -2.936,-1.017 -2.936,-3.05l0,-4.118l-1.459,0l0,-2.048l1.459,0l0,-1.942l2.769,-0.791l0,2.733l2.021,0l0,2.048l-2.021,0l0,3.639c0,0.937 0.372,1.406 1.116,1.406c0.319,-0.007 0.63,-0.095 0.905,-0.255l0,2.053Zm9.053,0.105l-2.628,0l0,-1.288l-0.035,0c-0.535,0.969 -1.575,1.555 -2.681,1.512c-0.759,0.043 -1.503,-0.226 -2.061,-0.743c-0.513,-0.528 -0.785,-1.246 -0.751,-1.982c0,-1.746 1.034,-2.754 3.1,-3.023l2.443,-0.325c0,-0.985 -0.533,-1.477 -1.6,-1.477c-1.092,0.006 -2.158,0.34 -3.059,0.958l0,-2.092c0.506,-0.239 1.038,-0.416 1.586,-0.527c0.601,-0.144 1.216,-0.221 1.833,-0.229c2.567,0 3.85,1.28 3.85,3.841l0.003,5.375Zm-2.61,-3.652l0,-0.61l-1.635,0.211c-0.902,0.117 -1.354,0.525 -1.354,1.222c-0.009,0.295 0.112,0.579 0.33,0.778c0.248,0.211 0.568,0.318 0.892,0.3c0.484,0.016 0.95,-0.182 1.274,-0.541c0.333,-0.373 0.509,-0.86 0.493,-1.36Zm1.784,-9.61l-2.751,2.839l-2,0l2.285,-2.839l2.466,0Zm9.84,12.941c-0.843,0.411 -1.779,0.598 -2.716,0.545c-1.242,0.053 -2.454,-0.401 -3.357,-1.257c-0.861,-0.854 -1.327,-2.031 -1.283,-3.243c-0.071,-1.345 0.428,-2.659 1.375,-3.617c1.001,-0.914 2.328,-1.391 3.681,-1.323c0.79,-0.054 1.581,0.091 2.3,0.422l0,2.355c-0.557,-0.426 -1.24,-0.654 -1.942,-0.65c-0.7,-0.036 -1.385,0.217 -1.894,0.7c-0.487,0.52 -0.74,1.218 -0.7,1.929c-0.039,0.689 0.202,1.366 0.668,1.876c0.492,0.472 1.157,0.719 1.837,0.681c0.726,-0.011 1.433,-0.237 2.03,-0.65l0.001,2.232Zm7.26,0.22c-0.584,0.25 -1.219,0.362 -1.854,0.325c-1.957,0 -2.936,-1.017 -2.936,-3.05l0,-4.122l-1.459,0l0,-2.048l1.459,0l0,-1.942l2.769,-0.791l0,2.733l2.021,0l0,2.048l-2.021,0l0,3.639c0,0.937 0.372,1.406 1.116,1.406c0.319,-0.007 0.63,-0.095 0.905,-0.255l0,2.057Zm2.971,-10.318c-0.423,0.017 -0.836,-0.133 -1.151,-0.417c-0.29,-0.26 -0.454,-0.634 -0.448,-1.024c-0.011,-0.39 0.154,-0.765 0.448,-1.02c0.677,-0.526 1.631,-0.526 2.307,-0c0.294,0.256 0.457,0.631 0.444,1.02c0.012,0.394 -0.15,0.774 -0.444,1.037c-0.318,0.277 -0.731,0.421 -1.153,0.403l-0.003,0.001Zm1.374,10.423l-2.777,0l0,-9l2.777,0l0,9Zm9.158,-0.325c-0.843,0.411 -1.779,0.598 -2.716,0.545c-1.242,0.053 -2.454,-0.401 -3.357,-1.257c-0.861,-0.854 -1.327,-2.031 -1.283,-3.243c-0.071,-1.345 0.428,-2.659 1.375,-3.617c1.001,-0.913 2.326,-1.39 3.678,-1.323c0.79,-0.054 1.581,0.091 2.3,0.422l0,2.355c-0.557,-0.426 -1.24,-0.654 -1.942,-0.65c-0.7,-0.036 -1.385,0.217 -1.894,0.7c-0.487,0.52 -0.74,1.218 -0.7,1.929c-0.039,0.689 0.202,1.366 0.668,1.876c0.492,0.472 1.157,0.719 1.837,0.681c0.726,-0.011 1.433,-0.237 2.03,-0.65l0.004,2.232Zm6.108,0.545c-1.3,0.073 -2.577,-0.382 -3.538,-1.261c-0.886,-0.912 -1.353,-2.153 -1.288,-3.423c-0.073,-1.301 0.414,-2.574 1.336,-3.494c0.994,-0.88 2.295,-1.333 3.619,-1.262c1.294,-0.074 2.564,0.382 3.516,1.261c0.868,0.887 1.33,2.095 1.274,3.335c0.07,1.311 -0.406,2.594 -1.314,3.542c-0.973,0.906 -2.276,1.376 -3.604,1.302l-0.001,-0Zm0.07,-7.312c-0.587,-0.03 -1.156,0.221 -1.529,0.677c-0.395,0.557 -0.588,1.234 -0.545,1.916c0,1.729 0.698,2.593 2.092,2.593c1.334,-0 2,-0.888 2,-2.663c-0.002,-1.683 -0.675,-2.524 -2.017,-2.524l-0.001,0.001Z" style="fill:#fff;fill-rule:nonzero;"/><path id="Trazado_17243" d="M621.114,148l-7.558,0l0,-12.6l7.269,0l0,2.308l-4.43,0l-0,2.8l4.122,0l0,2.3l-4.122,-0l-0,2.892l4.72,-0l-0.001,2.3Zm1.16,-0.237l-0,-2.25c0.428,0.262 0.887,0.469 1.367,0.615c0.417,0.128 0.851,0.196 1.288,0.2c0.398,0.018 0.796,-0.05 1.165,-0.2c0.256,-0.095 0.427,-0.342 0.426,-0.615c0.003,-0.168 -0.067,-0.328 -0.193,-0.439c-0.149,-0.129 -0.318,-0.233 -0.5,-0.308c-0.216,-0.093 -0.438,-0.172 -0.664,-0.237c-0.24,-0.07 -0.471,-0.149 -0.694,-0.237c-0.326,-0.12 -0.642,-0.266 -0.945,-0.435c-0.256,-0.142 -0.488,-0.325 -0.686,-0.541c-0.186,-0.207 -0.329,-0.449 -0.422,-0.712c-0.103,-0.309 -0.152,-0.633 -0.145,-0.958c-0.012,-0.455 0.102,-0.906 0.33,-1.3c0.219,-0.362 0.52,-0.668 0.879,-0.892c0.387,-0.24 0.812,-0.413 1.257,-0.51c0.483,-0.11 0.977,-0.164 1.472,-0.163c0.406,0 0.812,0.031 1.213,0.092c0.41,0.061 0.815,0.151 1.213,0.268l0,2.145c-0.353,-0.206 -0.733,-0.361 -1.129,-0.461c-0.386,-0.101 -0.783,-0.152 -1.182,-0.154c-0.172,-0.001 -0.345,0.015 -0.514,0.048c-0.148,0.028 -0.291,0.075 -0.426,0.141c-0.114,0.054 -0.214,0.136 -0.29,0.237c-0.07,0.096 -0.107,0.212 -0.105,0.33c-0.003,0.156 0.053,0.307 0.158,0.422c0.118,0.125 0.258,0.227 0.413,0.3c0.183,0.09 0.373,0.167 0.567,0.229c0.208,0.067 0.415,0.136 0.62,0.207c0.342,0.118 0.677,0.259 1,0.422c0.281,0.14 0.54,0.321 0.769,0.536c0.213,0.203 0.38,0.449 0.492,0.721c0.279,0.773 0.215,1.629 -0.176,2.351c-0.23,0.377 -0.546,0.693 -0.923,0.923c-0.409,0.248 -0.858,0.423 -1.327,0.519c-0.513,0.11 -1.036,0.164 -1.56,0.163c-0.936,0.009 -1.866,-0.146 -2.748,-0.457Zm13.948,0.132c-0.584,0.25 -1.219,0.362 -1.854,0.325c-1.957,-0 -2.936,-1.017 -2.936,-3.05l0,-4.122l-1.458,-0l0,-2.048l1.459,-0l0,-1.942l2.769,-0.791l0,2.733l2.021,-0l0,2.048l-2.023,-0l0,3.639c0,0.937 0.372,1.406 1.116,1.406c0.318,-0.007 0.63,-0.095 0.905,-0.255l0.001,2.057Zm7.436,-6.39c-0.36,-0.188 -0.763,-0.281 -1.169,-0.272c-0.552,-0.024 -1.081,0.224 -1.415,0.664c-0.365,0.529 -0.545,1.164 -0.51,1.806l0,4.297l-2.777,-0l0,-9l2.777,-0l0,1.67l0.035,-0c0.266,-1.085 1.256,-1.848 2.373,-1.828c0.233,-0.01 0.466,0.026 0.686,0.105l0,2.558Zm8.78,6.5l-2.628,-0l0,-1.297l-0.035,-0c-0.535,0.969 -1.575,1.555 -2.681,1.512c-0.759,0.043 -1.504,-0.226 -2.061,-0.743c-0.514,-0.528 -0.786,-1.246 -0.751,-1.982c0,-1.746 1.033,-2.754 3.1,-3.023l2.443,-0.325c0,-0.985 -0.533,-1.477 -1.6,-1.477c-1.092,0.006 -2.158,0.34 -3.059,0.958l0,-2.092c0.505,-0.239 1.038,-0.416 1.586,-0.527c0.601,-0.144 1.215,-0.221 1.833,-0.229c2.567,-0 3.85,1.28 3.85,3.841l0.003,5.384Zm-2.61,-3.656l0,-0.606l-1.635,0.211c-0.903,0.117 -1.354,0.525 -1.354,1.222c-0.009,0.295 0.112,0.579 0.33,0.778c0.248,0.211 0.567,0.318 0.892,0.3c0.483,0.016 0.95,-0.182 1.274,-0.541c0.335,-0.376 0.511,-0.866 0.493,-1.369l0,0.005Zm10.248,3.551c-0.584,0.25 -1.219,0.362 -1.854,0.325c-1.957,-0 -2.936,-1.017 -2.936,-3.05l0,-4.127l-1.459,-0l0,-2.048l1.459,-0l0,-1.942l2.769,-0.791l0,2.733l2.021,-0l0,2.048l-2.021,-0l0,3.639c0,0.937 0.372,1.406 1.116,1.406c0.318,-0.007 0.63,-0.095 0.905,-0.255l0,2.062Zm9.58,-3.6l-5.871,-0c0.094,1.307 0.917,1.96 2.47,1.96c0.919,0.02 1.825,-0.223 2.61,-0.7l0,2c-1.01,0.484 -2.124,0.714 -3.243,0.668c-1.245,0.077 -2.469,-0.36 -3.384,-1.208c-0.842,-0.913 -1.275,-2.131 -1.2,-3.371c-0.069,-1.311 0.401,-2.594 1.3,-3.551c0.838,-0.861 1.998,-1.336 3.2,-1.31c1.136,-0.069 2.247,0.357 3.045,1.169c0.754,0.879 1.14,2.017 1.077,3.173l-0.004,1.17Zm-2.575,-1.705c0,-1.289 -0.521,-1.934 -1.564,-1.934c-0.449,0.002 -0.874,0.205 -1.156,0.554c-0.334,0.389 -0.541,0.87 -0.593,1.38l3.313,-0Zm13.052,4.386c0.088,1.44 -0.439,2.851 -1.45,3.88c-1.167,0.987 -2.675,1.481 -4.2,1.375c-0.988,0.043 -1.972,-0.134 -2.883,-0.519l0,-2.346c0.844,0.516 1.811,0.795 2.8,0.809c0.796,0.05 1.58,-0.217 2.18,-0.743c0.531,-0.533 0.812,-1.266 0.773,-2.017l0,-0.712l-0.035,-0c-0.583,0.98 -1.661,1.562 -2.8,1.512c-1.05,0.044 -2.061,-0.405 -2.733,-1.213c-0.713,-0.929 -1.072,-2.082 -1.011,-3.252c-0.07,-1.305 0.329,-2.593 1.125,-3.63c0.724,-0.884 1.82,-1.382 2.962,-1.345c0.988,-0.055 1.931,0.43 2.461,1.266l0.035,-0l0,-1.046l2.777,-0l-0.001,7.981Zm-2.742,-3.3l0,-0.712c0.014,-0.53 -0.166,-1.047 -0.505,-1.455c-0.321,-0.393 -0.807,-0.615 -1.314,-0.6c-0.574,-0.02 -1.12,0.252 -1.45,0.721c-0.386,0.604 -0.57,1.315 -0.527,2.03c-0.035,0.632 0.141,1.258 0.5,1.78c0.321,0.43 0.835,0.676 1.371,0.655c0.543,0.014 1.062,-0.233 1.393,-0.664c0.376,-0.507 0.564,-1.13 0.532,-1.76l0,0.005Zm6.469,-6.1c-0.423,0.017 -0.837,-0.133 -1.151,-0.417c-0.291,-0.26 -0.454,-0.634 -0.448,-1.024c-0.011,-0.39 0.153,-0.765 0.448,-1.02c0.676,-0.526 1.631,-0.526 2.307,-0c0.293,0.256 0.456,0.631 0.444,1.02c0.012,0.394 -0.151,0.774 -0.444,1.037c-0.32,0.276 -0.735,0.419 -1.157,0.399l0.001,0.005Zm1.37,10.419l-2.777,-0l0,-9l2.777,-0l0,9Zm9.826,-0l-2.628,-0l0,-1.292l-0.035,-0c-0.535,0.969 -1.575,1.555 -2.681,1.512c-0.759,0.043 -1.504,-0.226 -2.061,-0.743c-0.512,-0.527 -0.785,-1.243 -0.751,-1.977c0,-1.746 1.033,-2.754 3.1,-3.023l2.443,-0.325c0,-0.985 -0.533,-1.477 -1.6,-1.477c-1.092,0.006 -2.158,0.34 -3.059,0.958l0,-2.097c0.505,-0.239 1.038,-0.416 1.586,-0.527c0.601,-0.144 1.215,-0.221 1.833,-0.229c2.567,-0 3.85,1.28 3.85,3.841l0.003,5.379Zm-2.61,-3.656l0,-0.606l-1.635,0.211c-0.903,0.117 -1.354,0.525 -1.354,1.222c-0.009,0.295 0.112,0.579 0.33,0.778c0.248,0.211 0.567,0.318 0.892,0.3c0.483,0.016 0.95,-0.182 1.274,-0.541c0.333,-0.374 0.51,-0.863 0.493,-1.364Zm18.58,3.656l-2.777,-0l0,-1.239l-0.035,-0c-0.596,0.953 -1.663,1.512 -2.786,1.459c-1.039,0.038 -2.04,-0.401 -2.716,-1.191c-0.736,-0.947 -1.101,-2.13 -1.028,-3.327c-0.065,-1.29 0.338,-2.56 1.134,-3.577c0.728,-0.884 1.827,-1.381 2.971,-1.345c0.981,-0.094 1.932,0.395 2.426,1.248l0.035,-0l-0,-5.352l2.777,-0l-0.001,13.324Zm-2.726,-4.377l-0,-0.677c0.019,-0.533 -0.163,-1.054 -0.51,-1.459c-0.341,-0.37 -0.821,-0.581 -1.324,-0.581c-0.569,-0 -1.106,0.27 -1.445,0.726c-0.376,0.593 -0.558,1.29 -0.519,1.991c-0.042,0.648 0.134,1.292 0.5,1.828c0.338,0.406 0.84,0.641 1.368,0.641c0.544,0 1.059,-0.249 1.396,-0.676c0.377,-0.519 0.565,-1.152 0.534,-1.793Zm13.148,0.668l-5.871,-0c0.094,1.307 0.917,1.96 2.47,1.96c0.919,0.02 1.825,-0.223 2.61,-0.7l-0,2c-1.01,0.484 -2.124,0.714 -3.243,0.668c-1.245,0.077 -2.469,-0.36 -3.384,-1.208c-0.842,-0.913 -1.275,-2.131 -1.2,-3.371c-0.069,-1.311 0.401,-2.594 1.3,-3.551c0.838,-0.861 1.998,-1.336 3.2,-1.31c1.136,-0.069 2.247,0.357 3.045,1.169c0.754,0.879 1.14,2.017 1.077,3.173l-0.004,1.17Zm-2.575,-1.705c0,-1.289 -0.521,-1.934 -1.564,-1.934c-0.449,0.002 -0.874,0.205 -1.156,0.554c-0.334,0.389 -0.541,0.87 -0.593,1.38l3.313,-0Zm7,5.414l-2.773,-0l-0,-13.324l2.777,-0l-0.004,13.324Zm10.127,-1.046l-0.035,-0l-0,5.186l-2.777,-0l-0,-13.14l2.777,-0l-0,1.354l0.035,-0c0.655,-0.982 1.76,-1.574 2.941,-1.574c1.015,0 1.982,0.438 2.653,1.2c0.682,0.947 1.018,2.1 0.954,3.265c0.064,1.297 -0.329,2.576 -1.112,3.612c-0.715,0.896 -1.813,1.401 -2.958,1.362c-0.991,0.048 -1.935,-0.435 -2.478,-1.265Zm-0.079,-3.691l-0,0.721c-0.024,0.549 0.151,1.09 0.492,1.521c0.315,0.387 0.793,0.605 1.292,0.589c0.584,0.025 1.141,-0.253 1.472,-0.734c0.385,-0.622 0.568,-1.349 0.523,-2.079c-0,-1.582 -0.615,-2.373 -1.846,-2.373c-0.539,-0.013 -1.055,0.226 -1.393,0.646c-0.38,0.486 -0.573,1.093 -0.544,1.709l0.004,-0Zm14.3,-1.758c-0.36,-0.188 -0.763,-0.281 -1.169,-0.272c-0.552,-0.024 -1.081,0.224 -1.415,0.664c-0.365,0.529 -0.545,1.164 -0.51,1.806l-0,4.297l-2.777,-0l-0,-9l2.777,-0l-0,1.67l0.035,-0c0.266,-1.085 1.256,-1.848 2.373,-1.828c0.233,-0.01 0.466,0.026 0.686,0.105l-0,2.558Zm5.511,6.715c-1.3,0.073 -2.577,-0.382 -3.538,-1.261c-0.886,-0.912 -1.353,-2.153 -1.288,-3.423c-0.073,-1.301 0.413,-2.574 1.336,-3.494c0.992,-0.878 2.29,-1.331 3.612,-1.261c1.294,-0.074 2.564,0.382 3.516,1.261c0.868,0.887 1.329,2.095 1.274,3.335c0.069,1.311 -0.406,2.594 -1.314,3.542c-0.974,0.905 -2.275,1.375 -3.602,1.301l0.004,-0Zm0.07,-7.312c-0.588,-0.03 -1.156,0.221 -1.529,0.677c-0.396,0.557 -0.588,1.234 -0.545,1.916c-0,1.729 0.697,2.593 2.092,2.593c1.333,-0 2,-0.888 2,-2.663c-0.006,-1.683 -0.679,-2.524 -2.02,-2.524l0.002,0.001Zm15.447,7.092l-2.777,-0l-0,-1.239l-0.035,-0c-0.596,0.953 -1.663,1.512 -2.786,1.459c-1.039,0.038 -2.04,-0.401 -2.716,-1.191c-0.736,-0.947 -1.101,-2.13 -1.028,-3.327c-0.065,-1.29 0.338,-2.56 1.134,-3.577c0.728,-0.884 1.827,-1.381 2.971,-1.345c0.981,-0.094 1.932,0.395 2.426,1.248l0.035,-0l-0,-5.352l2.777,-0l-0.001,13.324Zm-2.725,-4.377l-0,-0.677c0.019,-0.533 -0.163,-1.054 -0.51,-1.459c-0.341,-0.37 -0.821,-0.581 -1.324,-0.581c-0.569,-0 -1.106,0.27 -1.445,0.726c-0.376,0.593 -0.558,1.29 -0.519,1.991c-0.042,0.648 0.134,1.292 0.5,1.828c0.338,0.406 0.84,0.641 1.368,0.641c0.544,0 1.059,-0.249 1.396,-0.676c0.377,-0.519 0.565,-1.152 0.534,-1.793Zm13.615,4.377l-2.769,-0l-0,-1.371l-0.044,-0c-0.561,0.988 -1.615,1.598 -2.751,1.591c-2.086,-0 -3.129,-1.263 -3.129,-3.788l-0,-5.432l2.769,-0l-0,5.186c-0,1.271 0.504,1.907 1.512,1.907c0.459,0.019 0.901,-0.174 1.2,-0.523c0.317,-0.403 0.476,-0.907 0.448,-1.419l-0,-5.151l2.769,-0l-0.005,9Zm9.158,-0.325c-0.844,0.411 -1.779,0.598 -2.716,0.545c-1.243,0.053 -2.455,-0.401 -3.357,-1.257c-0.862,-0.854 -1.327,-2.031 -1.283,-3.243c-0.072,-1.345 0.428,-2.659 1.375,-3.617c1,-0.913 2.325,-1.39 3.678,-1.323c0.79,-0.054 1.581,0.091 2.3,0.422l-0,2.355c-0.557,-0.426 -1.241,-0.654 -1.942,-0.65c-0.7,-0.036 -1.386,0.217 -1.894,0.7c-0.487,0.52 -0.74,1.218 -0.7,1.929c-0.039,0.689 0.202,1.366 0.668,1.876c0.491,0.472 1.157,0.719 1.837,0.681c0.726,-0.011 1.433,-0.237 2.03,-0.65l0.004,2.232Zm7.26,0.22c-0.584,0.25 -1.219,0.362 -1.854,0.325c-1.957,-0 -2.936,-1.017 -2.936,-3.05l-0,-4.122l-1.459,-0l-0,-2.048l1.459,-0l-0,-1.942l2.769,-0.791l-0,2.733l2.021,-0l-0,2.048l-2.021,-0l-0,3.639c-0,0.937 0.372,1.406 1.116,1.406c0.318,-0.007 0.63,-0.095 0.905,-0.255l-0,2.057Zm5.783,0.325c-1.3,0.073 -2.577,-0.382 -3.538,-1.261c-0.886,-0.912 -1.353,-2.153 -1.288,-3.423c-0.073,-1.301 0.413,-2.574 1.336,-3.494c0.992,-0.878 2.29,-1.331 3.612,-1.261c1.294,-0.074 2.564,0.382 3.516,1.261c0.868,0.887 1.329,2.095 1.274,3.335c0.069,1.311 -0.406,2.594 -1.314,3.542c-0.973,0.904 -2.272,1.374 -3.598,1.301Zm0.07,-7.312c-0.588,-0.03 -1.156,0.221 -1.529,0.677c-0.396,0.557 -0.588,1.234 -0.545,1.916c-0,1.729 0.697,2.593 2.092,2.593c1.333,-0 2,-0.888 2,-2.663c-0.003,-1.683 -0.676,-2.524 -2.018,-2.524l-0,0.001Z" style="fill:#00223d;fill-rule:nonzero;"/><path id="Trazado_17244" d="M633.674,231l-7.559,0l0,-12.6l7.269,0l0,2.308l-4.43,0l-0,2.8l4.122,0l0,2.3l-4.122,-0l-0,2.892l4.72,-0l-0,2.3Zm1.16,-0.237l0,-2.25c0.428,0.262 0.887,0.469 1.367,0.615c0.417,0.128 0.851,0.196 1.288,0.2c0.398,0.018 0.796,-0.05 1.165,-0.2c0.256,-0.095 0.427,-0.342 0.426,-0.615c0.003,-0.168 -0.067,-0.328 -0.193,-0.439c-0.149,-0.129 -0.318,-0.233 -0.5,-0.308c-0.216,-0.093 -0.438,-0.172 -0.664,-0.237c-0.24,-0.07 -0.471,-0.149 -0.694,-0.237c-0.326,-0.12 -0.642,-0.266 -0.945,-0.435c-0.256,-0.142 -0.488,-0.325 -0.686,-0.541c-0.186,-0.207 -0.329,-0.449 -0.422,-0.712c-0.103,-0.309 -0.152,-0.633 -0.145,-0.958c-0.012,-0.455 0.102,-0.906 0.33,-1.3c0.219,-0.362 0.52,-0.668 0.879,-0.892c0.387,-0.24 0.812,-0.413 1.257,-0.51c0.483,-0.11 0.977,-0.164 1.472,-0.163c0.406,0 0.812,0.031 1.213,0.092c0.41,0.061 0.815,0.151 1.213,0.268l0,2.145c-0.353,-0.206 -0.733,-0.361 -1.129,-0.461c-0.386,-0.101 -0.783,-0.152 -1.182,-0.154c-0.172,-0.001 -0.345,0.015 -0.514,0.048c-0.148,0.028 -0.291,0.075 -0.426,0.141c-0.114,0.054 -0.214,0.136 -0.29,0.237c-0.07,0.096 -0.107,0.212 -0.105,0.33c-0.003,0.156 0.053,0.307 0.158,0.422c0.118,0.125 0.258,0.227 0.413,0.3c0.183,0.09 0.373,0.167 0.567,0.229c0.208,0.067 0.415,0.136 0.62,0.207c0.342,0.118 0.677,0.259 1,0.422c0.281,0.14 0.54,0.321 0.769,0.536c0.213,0.203 0.38,0.449 0.492,0.721c0.279,0.773 0.215,1.629 -0.176,2.351c-0.23,0.377 -0.546,0.693 -0.923,0.923c-0.409,0.248 -0.858,0.423 -1.327,0.519c-0.513,0.11 -1.036,0.164 -1.56,0.163c-0.936,0.009 -1.866,-0.146 -2.748,-0.457Zm13.948,0.132c-0.584,0.25 -1.219,0.362 -1.854,0.325c-1.957,-0 -2.936,-1.017 -2.936,-3.05l0,-4.122l-1.459,-0l0,-2.048l1.459,-0l0,-1.942l2.769,-0.791l0,2.733l2.021,-0l0,2.048l-2.021,-0l0,3.639c0,0.937 0.372,1.406 1.116,1.406c0.318,-0.007 0.63,-0.095 0.905,-0.255l0,2.057Zm7.436,-6.39c-0.36,-0.188 -0.763,-0.281 -1.169,-0.272c-0.552,-0.024 -1.081,0.224 -1.415,0.664c-0.365,0.529 -0.545,1.164 -0.51,1.806l0,4.297l-2.777,-0l0,-9l2.777,-0l0,1.67l0.035,-0c0.266,-1.085 1.256,-1.848 2.373,-1.828c0.233,-0.01 0.466,0.026 0.686,0.105l0,2.558Zm8.782,6.495l-2.63,-0l0,-1.292l-0.035,-0c-0.535,0.969 -1.575,1.555 -2.681,1.512c-0.759,0.043 -1.504,-0.226 -2.061,-0.743c-0.514,-0.528 -0.786,-1.246 -0.751,-1.982c0,-1.746 1.033,-2.754 3.1,-3.023l2.443,-0.325c0,-0.985 -0.533,-1.477 -1.6,-1.477c-1.092,0.006 -2.158,0.34 -3.059,0.958l0,-2.092c0.505,-0.239 1.038,-0.416 1.586,-0.527c0.601,-0.144 1.215,-0.221 1.833,-0.229c2.567,-0 3.85,1.28 3.85,3.841l0.005,5.379Zm-2.61,-3.656l0,-0.606l-1.635,0.211c-0.903,0.117 -1.354,0.525 -1.354,1.222c-0.009,0.295 0.112,0.579 0.33,0.778c0.248,0.211 0.567,0.318 0.892,0.3c0.483,0.016 0.95,-0.182 1.274,-0.541c0.333,-0.375 0.508,-0.863 0.491,-1.364l0.002,-0Zm10.248,3.551c-0.584,0.25 -1.219,0.362 -1.854,0.325c-1.957,-0 -2.936,-1.017 -2.936,-3.05l0,-4.122l-1.459,-0l0,-2.048l1.459,-0l0,-1.942l2.769,-0.791l0,2.733l2.021,-0l0,2.048l-2.021,-0l0,3.639c0,0.937 0.372,1.406 1.116,1.406c0.318,-0.007 0.63,-0.095 0.905,-0.255l0,2.057Zm9.58,-3.6l-5.871,-0c0.094,1.307 0.917,1.96 2.47,1.96c0.919,0.02 1.825,-0.223 2.61,-0.7l0,2c-1.01,0.484 -2.124,0.714 -3.243,0.668c-1.245,0.077 -2.469,-0.36 -3.384,-1.208c-0.842,-0.913 -1.275,-2.131 -1.2,-3.371c-0.069,-1.311 0.401,-2.594 1.3,-3.551c0.838,-0.861 1.998,-1.336 3.2,-1.31c1.136,-0.069 2.247,0.357 3.045,1.169c0.754,0.879 1.14,2.017 1.077,3.173l-0.004,1.17Zm-2.575,-1.705c0,-1.289 -0.521,-1.934 -1.564,-1.934c-0.449,0.002 -0.874,0.205 -1.156,0.554c-0.334,0.389 -0.541,0.87 -0.593,1.38l3.313,-0Zm13.052,4.386c0.088,1.44 -0.439,2.851 -1.45,3.88c-1.167,0.987 -2.675,1.481 -4.2,1.375c-0.988,0.043 -1.972,-0.134 -2.883,-0.519l0,-2.341c0.844,0.516 1.811,0.795 2.8,0.809c0.796,0.05 1.58,-0.217 2.18,-0.743c0.531,-0.533 0.812,-1.266 0.773,-2.017l0,-0.712l-0.035,-0c-0.583,0.98 -1.661,1.562 -2.8,1.512c-1.05,0.044 -2.061,-0.405 -2.733,-1.213c-0.713,-0.929 -1.072,-2.082 -1.011,-3.252c-0.07,-1.305 0.329,-2.593 1.125,-3.63c0.724,-0.884 1.82,-1.382 2.962,-1.345c0.988,-0.055 1.931,0.43 2.461,1.266l0.035,-0l0,-1.046l2.777,-0l-0.001,7.976Zm-2.742,-3.3l0,-0.712c0.014,-0.53 -0.166,-1.047 -0.505,-1.455c-0.321,-0.393 -0.807,-0.615 -1.314,-0.6c-0.574,-0.02 -1.12,0.252 -1.45,0.721c-0.386,0.604 -0.57,1.315 -0.527,2.03c-0.035,0.632 0.141,1.258 0.5,1.78c0.321,0.43 0.835,0.676 1.371,0.655c0.543,0.014 1.062,-0.233 1.393,-0.664c0.374,-0.506 0.561,-1.127 0.529,-1.755l0.003,-0Zm6.469,-6.1c-0.423,0.017 -0.837,-0.133 -1.151,-0.417c-0.291,-0.26 -0.454,-0.634 -0.448,-1.024c-0.011,-0.39 0.153,-0.765 0.448,-1.02c0.676,-0.526 1.631,-0.526 2.307,-0c0.293,0.256 0.456,0.631 0.444,1.02c0.012,0.394 -0.151,0.774 -0.444,1.037c-0.32,0.279 -0.735,0.423 -1.159,0.404l0.003,-0Zm1.368,10.424l-2.777,-0l0,-9l2.777,-0l-0,9Zm9.826,-0l-2.628,-0l0,-1.292l-0.035,-0c-0.535,0.969 -1.575,1.555 -2.681,1.512c-0.759,0.043 -1.504,-0.226 -2.061,-0.743c-0.514,-0.528 -0.786,-1.246 -0.751,-1.982c0,-1.746 1.033,-2.754 3.1,-3.023l2.443,-0.325c-0,-0.985 -0.533,-1.477 -1.6,-1.477c-1.092,0.006 -2.158,0.34 -3.059,0.958l0,-2.092c0.505,-0.239 1.038,-0.416 1.586,-0.527c0.601,-0.144 1.215,-0.221 1.833,-0.229c2.567,-0 3.85,1.28 3.85,3.841l0.003,5.379Zm-2.61,-3.656l-0,-0.606l-1.635,0.211c-0.903,0.117 -1.354,0.525 -1.354,1.222c-0.009,0.295 0.112,0.579 0.33,0.778c0.248,0.211 0.567,0.318 0.892,0.3c0.483,0.016 0.95,-0.182 1.274,-0.541c0.333,-0.374 0.51,-0.863 0.493,-1.364Zm18.58,3.656l-2.777,-0l-0,-1.239l-0.035,-0c-0.596,0.953 -1.663,1.512 -2.786,1.459c-1.039,0.038 -2.04,-0.401 -2.716,-1.191c-0.736,-0.947 -1.101,-2.13 -1.028,-3.327c-0.065,-1.29 0.338,-2.56 1.134,-3.577c0.728,-0.884 1.827,-1.381 2.971,-1.345c0.981,-0.094 1.932,0.395 2.426,1.248l0.035,-0l-0,-5.352l2.777,-0l-0.001,13.324Zm-2.725,-4.377l-0,-0.677c0.019,-0.533 -0.163,-1.054 -0.51,-1.459c-0.341,-0.37 -0.821,-0.581 -1.324,-0.581c-0.569,-0 -1.106,0.27 -1.445,0.726c-0.376,0.593 -0.558,1.29 -0.519,1.991c-0.042,0.648 0.134,1.292 0.5,1.828c0.338,0.406 0.84,0.641 1.368,0.641c0.544,0 1.059,-0.249 1.396,-0.676c0.377,-0.519 0.565,-1.152 0.534,-1.793Zm13.148,0.668l-5.871,-0c0.094,1.307 0.917,1.96 2.47,1.96c0.919,0.02 1.825,-0.223 2.61,-0.7l-0,2c-1.01,0.484 -2.124,0.714 -3.243,0.668c-1.245,0.077 -2.469,-0.36 -3.384,-1.208c-0.842,-0.913 -1.275,-2.131 -1.2,-3.371c-0.069,-1.311 0.401,-2.594 1.3,-3.551c0.838,-0.861 1.998,-1.336 3.2,-1.31c1.136,-0.069 2.247,0.357 3.045,1.169c0.754,0.879 1.14,2.017 1.077,3.173l-0.004,1.17Zm-2.575,-1.705c-0,-1.289 -0.521,-1.934 -1.564,-1.934c-0.449,0.002 -0.874,0.205 -1.156,0.554c-0.334,0.389 -0.541,0.87 -0.593,1.38l3.313,-0Zm7,5.414l-2.777,-0l-0,-13.324l2.777,-0l-0,13.324Zm10.122,-1.046l-0.041,-0l-0,5.186l-2.777,-0l-0,-13.14l2.777,-0l-0,1.354l0.035,-0c0.655,-0.982 1.76,-1.574 2.941,-1.574c1.015,0 1.982,0.438 2.653,1.2c0.682,0.947 1.018,2.1 0.954,3.265c0.064,1.297 -0.329,2.576 -1.112,3.612c-0.715,0.896 -1.813,1.401 -2.958,1.362c-0.989,0.045 -1.931,-0.437 -2.472,-1.265Zm-0.085,-3.691l-0,0.721c-0.024,0.549 0.151,1.09 0.492,1.521c0.315,0.387 0.793,0.605 1.292,0.589c0.584,0.025 1.141,-0.253 1.472,-0.734c0.385,-0.622 0.568,-1.349 0.523,-2.079c-0,-1.582 -0.615,-2.373 -1.846,-2.373c-0.539,-0.013 -1.055,0.226 -1.393,0.646c-0.377,0.487 -0.566,1.094 -0.534,1.709l-0.006,-0Zm14.3,-1.758c-0.36,-0.188 -0.763,-0.281 -1.169,-0.272c-0.552,-0.024 -1.081,0.224 -1.415,0.664c-0.365,0.529 -0.545,1.164 -0.51,1.806l-0,4.297l-2.777,-0l-0,-9l2.777,-0l-0,1.67l0.035,-0c0.266,-1.085 1.256,-1.848 2.373,-1.828c0.233,-0.01 0.466,0.026 0.686,0.105l-0,2.558Zm9.308,2.786l-5.871,-0c0.094,1.307 0.917,1.96 2.47,1.96c0.919,0.02 1.825,-0.223 2.61,-0.7l-0,2c-1.01,0.484 -2.124,0.714 -3.243,0.668c-1.245,0.077 -2.469,-0.36 -3.384,-1.208c-0.842,-0.913 -1.275,-2.131 -1.2,-3.371c-0.069,-1.311 0.401,-2.594 1.3,-3.551c0.838,-0.861 1.998,-1.336 3.2,-1.31c1.136,-0.069 2.247,0.357 3.045,1.169c0.754,0.879 1.14,2.017 1.077,3.173l-0.004,1.17Zm-2.575,-1.705c-0,-1.289 -0.521,-1.934 -1.564,-1.934c-0.449,0.002 -0.874,0.205 -1.156,0.554c-0.334,0.389 -0.541,0.87 -0.593,1.38l3.313,-0Zm11.048,5.089c-0.844,0.411 -1.779,0.598 -2.716,0.545c-1.243,0.053 -2.455,-0.401 -3.357,-1.257c-0.86,-0.854 -1.324,-2.031 -1.279,-3.243c-0.072,-1.345 0.428,-2.659 1.375,-3.617c1,-0.913 2.325,-1.39 3.678,-1.323c0.79,-0.054 1.581,0.091 2.3,0.422l-0,2.355c-0.557,-0.426 -1.241,-0.654 -1.942,-0.65c-0.7,-0.036 -1.386,0.217 -1.894,0.7c-0.487,0.52 -0.74,1.218 -0.7,1.929c-0.039,0.689 0.202,1.366 0.668,1.876c0.491,0.472 1.157,0.719 1.837,0.681c0.726,-0.011 1.433,-0.237 2.03,-0.65l-0,2.232Zm3.226,-10.1c-0.423,0.017 -0.837,-0.133 -1.151,-0.417c-0.291,-0.26 -0.454,-0.634 -0.448,-1.024c-0.011,-0.39 0.153,-0.765 0.448,-1.02c0.676,-0.526 1.631,-0.526 2.307,-0c0.293,0.256 0.456,0.631 0.444,1.02c0.012,0.394 -0.151,0.774 -0.444,1.037c-0.318,0.277 -0.73,0.422 -1.152,0.405l-0.004,-0.001Zm1.375,10.425l-2.777,-0l-0,-9l2.777,-0l-0,9Zm6.627,0.22c-1.3,0.073 -2.577,-0.382 -3.538,-1.261c-0.886,-0.912 -1.353,-2.153 -1.288,-3.423c-0.073,-1.301 0.413,-2.574 1.336,-3.494c0.991,-0.878 2.288,-1.331 3.61,-1.262c1.294,-0.074 2.564,0.382 3.516,1.261c0.868,0.887 1.329,2.095 1.274,3.335c0.069,1.311 -0.406,2.594 -1.314,3.542c-0.972,0.904 -2.271,1.374 -3.596,1.302Zm0.07,-7.312c-0.588,-0.03 -1.156,0.221 -1.529,0.677c-0.396,0.557 -0.588,1.234 -0.545,1.916c-0,1.729 0.697,2.593 2.092,2.593c1.333,-0 2,-0.888 2,-2.663c-0.003,-1.683 -0.676,-2.524 -2.017,-2.524l-0.001,0.001Z" style="fill:#00223d;fill-rule:nonzero;"/><path id="Trazado_17245" d="M612,314l-7.563,0l0,-12.6l7.269,0l0,2.308l-4.43,0l0,2.8l4.124,0l-0,2.3l-4.124,0l-0,2.892l4.724,0l-0,2.3Zm1.16,-0.237l-0,-2.25c0.428,0.262 0.887,0.469 1.367,0.615c0.417,0.128 0.851,0.196 1.288,0.2c0.398,0.018 0.796,-0.05 1.165,-0.2c0.256,-0.095 0.427,-0.342 0.426,-0.615c0.003,-0.168 -0.067,-0.328 -0.193,-0.439c-0.149,-0.129 -0.318,-0.233 -0.5,-0.308c-0.216,-0.093 -0.438,-0.172 -0.664,-0.237c-0.24,-0.07 -0.471,-0.149 -0.694,-0.237c-0.326,-0.12 -0.642,-0.266 -0.945,-0.435c-0.256,-0.142 -0.488,-0.325 -0.686,-0.541c-0.187,-0.208 -0.331,-0.452 -0.424,-0.716c-0.103,-0.309 -0.152,-0.633 -0.145,-0.958c-0.012,-0.455 0.102,-0.906 0.33,-1.3c0.219,-0.362 0.52,-0.668 0.879,-0.892c0.387,-0.24 0.812,-0.413 1.257,-0.51c0.483,-0.11 0.977,-0.164 1.472,-0.163c0.406,0 0.812,0.031 1.213,0.092c0.41,0.061 0.815,0.151 1.213,0.268l0,2.145c-0.353,-0.206 -0.733,-0.361 -1.129,-0.461c-0.386,-0.101 -0.783,-0.152 -1.182,-0.154c-0.172,-0.001 -0.345,0.015 -0.514,0.048c-0.148,0.028 -0.291,0.075 -0.426,0.141c-0.114,0.054 -0.214,0.136 -0.29,0.237c-0.07,0.096 -0.107,0.212 -0.105,0.33c-0.003,0.156 0.053,0.307 0.158,0.422c0.118,0.125 0.258,0.227 0.413,0.3c0.183,0.09 0.373,0.167 0.567,0.229c0.208,0.067 0.415,0.136 0.62,0.207c0.342,0.118 0.677,0.259 1,0.422c0.281,0.14 0.54,0.321 0.769,0.536c0.213,0.203 0.38,0.449 0.492,0.721c0.279,0.773 0.215,1.629 -0.176,2.351c-0.23,0.377 -0.546,0.693 -0.923,0.923c-0.409,0.248 -0.858,0.423 -1.327,0.519c-0.513,0.11 -1.036,0.164 -1.56,0.163c-0.936,0.01 -1.867,-0.143 -2.75,-0.453l0.004,0Zm13.948,0.132c-0.584,0.25 -1.219,0.362 -1.854,0.325c-1.957,0 -2.936,-1.017 -2.936,-3.05l0,-4.122l-1.463,0l0,-2.048l1.459,0l0,-1.942l2.769,-0.791l0,2.733l2.017,0l0,2.048l-2.017,0l0,3.639c0,0.937 0.372,1.406 1.116,1.406c0.318,-0.007 0.63,-0.095 0.905,-0.255l0.004,2.057Zm7.436,-6.39c-0.36,-0.188 -0.763,-0.281 -1.169,-0.272c-0.552,-0.024 -1.081,0.224 -1.415,0.664c-0.365,0.529 -0.545,1.164 -0.51,1.806l0,4.297l-2.782,0l0,-9l2.777,0l0,1.67l0.035,0c0.266,-1.085 1.256,-1.848 2.373,-1.828c0.233,-0.01 0.466,0.026 0.686,0.105l0.005,2.558Zm8.78,6.5l-2.628,0l0,-1.297l-0.035,0c-0.535,0.969 -1.575,1.555 -2.681,1.512c-0.759,0.043 -1.504,-0.226 -2.061,-0.743c-0.514,-0.528 -0.786,-1.246 -0.751,-1.982c0,-1.746 1.033,-2.754 3.1,-3.023l2.443,-0.325c0,-0.985 -0.533,-1.477 -1.6,-1.477c-1.092,0.006 -2.158,0.34 -3.059,0.958l0,-2.092c0.505,-0.239 1.038,-0.416 1.586,-0.527c0.601,-0.144 1.215,-0.221 1.833,-0.229c2.567,-0 3.85,1.28 3.85,3.841l0.003,5.384Zm-2.61,-3.656l0,-0.606l-1.635,0.211c-0.903,0.117 -1.354,0.525 -1.354,1.222c-0.009,0.295 0.112,0.579 0.33,0.778c0.248,0.211 0.567,0.318 0.892,0.3c0.483,0.016 0.95,-0.182 1.274,-0.541c0.333,-0.376 0.508,-0.867 0.488,-1.369l0.005,0.005Zm10.248,3.551c-0.584,0.25 -1.219,0.362 -1.854,0.325c-1.957,0 -2.936,-1.017 -2.936,-3.05l0,-4.127l-1.459,0l-0,-2.048l1.459,0l0,-1.942l2.769,-0.791l0,2.733l2.021,0l0,2.048l-2.021,0l0,3.639c0,0.937 0.372,1.406 1.116,1.406c0.318,-0.007 0.63,-0.095 0.905,-0.255l0,2.062Zm9.58,-3.6l-5.871,0c0.094,1.307 0.917,1.96 2.47,1.96c0.919,0.02 1.825,-0.223 2.61,-0.7l-0,2c-1.01,0.484 -2.124,0.714 -3.243,0.668c-1.245,0.077 -2.469,-0.36 -3.384,-1.208c-0.842,-0.913 -1.275,-2.131 -1.2,-3.371c-0.069,-1.311 0.401,-2.594 1.3,-3.551c0.838,-0.861 1.998,-1.336 3.2,-1.31c1.136,-0.069 2.247,0.357 3.045,1.169c0.754,0.879 1.14,2.017 1.077,3.173l-0.004,1.17Zm-2.575,-1.705c0,-1.289 -0.521,-1.934 -1.564,-1.934c-0.449,0.002 -0.874,0.205 -1.156,0.554c-0.334,0.389 -0.541,0.87 -0.593,1.38l3.313,0Zm13.052,4.386c0.088,1.44 -0.439,2.851 -1.45,3.88c-1.167,0.987 -2.675,1.481 -4.2,1.375c-0.988,0.043 -1.972,-0.134 -2.883,-0.519l0,-2.346c0.844,0.516 1.811,0.795 2.8,0.809c0.796,0.05 1.58,-0.217 2.18,-0.743c0.531,-0.533 0.812,-1.266 0.773,-2.017l0,-0.712l-0.039,0c-0.583,0.98 -1.661,1.562 -2.8,1.512c-1.05,0.044 -2.061,-0.405 -2.733,-1.213c-0.713,-0.929 -1.072,-2.082 -1.011,-3.252c-0.07,-1.305 0.329,-2.593 1.125,-3.63c0.724,-0.884 1.82,-1.382 2.962,-1.345c0.988,-0.055 1.931,0.43 2.461,1.266l0.035,0l0,-1.046l2.777,0l0.003,7.981Zm-2.742,-3.3l0,-0.712c0.014,-0.53 -0.166,-1.047 -0.505,-1.455c-0.321,-0.393 -0.807,-0.615 -1.314,-0.6c-0.574,-0.02 -1.12,0.252 -1.45,0.721c-0.386,0.604 -0.57,1.315 -0.527,2.03c-0.035,0.632 0.141,1.258 0.5,1.78c0.321,0.43 0.835,0.676 1.371,0.655c0.543,0.014 1.062,-0.233 1.393,-0.664c0.374,-0.508 0.561,-1.13 0.527,-1.76l0.005,0.005Zm6.469,-6.1c-0.423,0.017 -0.837,-0.133 -1.151,-0.417c-0.291,-0.26 -0.454,-0.634 -0.448,-1.024c-0.011,-0.39 0.153,-0.765 0.448,-1.02c0.676,-0.526 1.631,-0.526 2.307,0c0.293,0.256 0.456,0.631 0.444,1.02c0.012,0.394 -0.151,0.774 -0.444,1.037c-0.321,0.277 -0.737,0.42 -1.161,0.399l0.005,0.005Zm1.366,10.419l-2.777,0l-0,-9l2.777,0l-0,9Zm9.826,0l-2.628,0l-0,-1.292l-0.035,0c-0.535,0.969 -1.575,1.555 -2.681,1.512c-0.759,0.043 -1.504,-0.226 -2.061,-0.743c-0.514,-0.528 -0.786,-1.246 -0.751,-1.982c-0,-1.746 1.033,-2.754 3.1,-3.023l2.443,-0.325c-0,-0.985 -0.533,-1.477 -1.6,-1.477c-1.092,0.006 -2.158,0.34 -3.059,0.958l-0,-2.092c0.505,-0.239 1.038,-0.416 1.586,-0.527c0.601,-0.144 1.215,-0.221 1.833,-0.229c2.567,0 3.85,1.28 3.85,3.841l0.003,5.379Zm-2.61,-3.656l-0,-0.606l-1.635,0.211c-0.903,0.117 -1.354,0.525 -1.354,1.222c-0.009,0.295 0.112,0.579 0.33,0.778c0.248,0.211 0.567,0.318 0.892,0.3c0.483,0.016 0.95,-0.182 1.274,-0.541c0.333,-0.374 0.51,-0.863 0.493,-1.364Zm18.58,3.656l-2.778,-0l-0,-1.239l-0.03,-0c-0.596,0.953 -1.663,1.512 -2.786,1.459c-1.039,0.038 -2.04,-0.401 -2.716,-1.191c-0.736,-0.947 -1.101,-2.13 -1.028,-3.327c-0.065,-1.29 0.338,-2.56 1.134,-3.577c0.728,-0.884 1.827,-1.381 2.971,-1.345c0.981,-0.094 1.932,0.395 2.426,1.248l0.035,-0l-0,-5.352l2.777,-0l-0.005,13.324Zm-2.725,-4.377l-0,-0.677c0.019,-0.533 -0.163,-1.054 -0.51,-1.459c-0.341,-0.37 -0.821,-0.581 -1.324,-0.581c-0.569,-0 -1.106,0.27 -1.445,0.726c-0.376,0.593 -0.558,1.29 -0.519,1.991c-0.042,0.648 0.134,1.292 0.5,1.828c0.338,0.406 0.84,0.641 1.368,0.641c0.544,0 1.059,-0.249 1.396,-0.676c0.377,-0.519 0.565,-1.152 0.534,-1.793Zm13.148,0.668l-5.871,-0c0.094,1.307 0.917,1.96 2.47,1.96c0.919,0.02 1.825,-0.223 2.61,-0.7l-0,2c-1.01,0.484 -2.124,0.714 -3.243,0.668c-1.245,0.077 -2.469,-0.36 -3.384,-1.208c-0.842,-0.913 -1.275,-2.131 -1.2,-3.371c-0.069,-1.311 0.401,-2.594 1.3,-3.551c0.838,-0.861 1.998,-1.336 3.2,-1.31c1.136,-0.069 2.247,0.357 3.045,1.169c0.754,0.879 1.14,2.017 1.077,3.173l-0.004,1.17Zm-2.575,-1.705c-0,-1.289 -0.521,-1.934 -1.564,-1.934c-0.449,0.002 -0.874,0.205 -1.156,0.554c-0.334,0.389 -0.541,0.87 -0.593,1.38l3.313,0Zm18,5.414l-2.777,0l-0,-1.239l-0.035,0c-0.596,0.953 -1.663,1.512 -2.786,1.459c-1.039,0.038 -2.04,-0.401 -2.716,-1.191c-0.736,-0.947 -1.101,-2.13 -1.028,-3.327c-0.065,-1.29 0.338,-2.56 1.134,-3.577c0.728,-0.884 1.827,-1.381 2.971,-1.345c0.981,-0.094 1.932,0.395 2.426,1.248l0.035,0l-0,-5.352l2.777,-0l-0.001,13.324Zm-2.725,-4.377l-0,-0.677c0.019,-0.533 -0.163,-1.054 -0.51,-1.459c-0.341,-0.37 -0.821,-0.581 -1.324,-0.581c-0.569,-0 -1.106,0.27 -1.445,0.726c-0.376,0.593 -0.558,1.29 -0.519,1.991c-0.042,0.648 0.134,1.292 0.5,1.828c0.338,0.406 0.84,0.641 1.368,0.641c0.544,0 1.059,-0.249 1.396,-0.676c0.377,-0.519 0.566,-1.152 0.535,-1.793l-0.001,0Zm6.469,-6.047c-0.423,0.017 -0.837,-0.133 -1.151,-0.417c-0.291,-0.26 -0.454,-0.634 -0.448,-1.024c-0.011,-0.39 0.153,-0.765 0.448,-1.02c0.676,-0.526 1.631,-0.526 2.307,0c0.293,0.256 0.456,0.631 0.444,1.02c0.012,0.394 -0.151,0.774 -0.444,1.037c-0.319,0.278 -0.733,0.423 -1.156,0.404Zm1.372,10.424l-2.777,0l-0,-9l2.777,0l-0,9Zm1.749,-0.237l-0,-2.25c0.428,0.262 0.887,0.469 1.367,0.615c0.417,0.128 0.851,0.196 1.288,0.2c0.398,0.018 0.796,-0.05 1.165,-0.2c0.256,-0.095 0.427,-0.342 0.426,-0.615c0.003,-0.168 -0.067,-0.328 -0.193,-0.439c-0.149,-0.129 -0.318,-0.233 -0.5,-0.308c-0.216,-0.093 -0.438,-0.172 -0.664,-0.237c-0.24,-0.07 -0.471,-0.149 -0.694,-0.237c-0.326,-0.12 -0.642,-0.266 -0.945,-0.435c-0.256,-0.142 -0.488,-0.325 -0.686,-0.541c-0.186,-0.207 -0.329,-0.449 -0.422,-0.712c-0.103,-0.309 -0.152,-0.633 -0.145,-0.958c-0.012,-0.455 0.102,-0.906 0.33,-1.3c0.219,-0.362 0.52,-0.668 0.879,-0.892c0.387,-0.24 0.812,-0.413 1.257,-0.51c0.483,-0.11 0.977,-0.164 1.472,-0.163c0.406,0 0.812,0.031 1.213,0.092c0.41,0.061 0.815,0.151 1.213,0.268l-0,2.145c-0.353,-0.206 -0.733,-0.361 -1.129,-0.461c-0.386,-0.101 -0.783,-0.152 -1.182,-0.154c-0.172,-0.001 -0.345,0.015 -0.514,0.048c-0.148,0.028 -0.291,0.075 -0.426,0.141c-0.114,0.054 -0.214,0.136 -0.29,0.237c-0.07,0.096 -0.107,0.212 -0.105,0.33c-0.003,0.156 0.053,0.307 0.158,0.422c0.118,0.125 0.258,0.227 0.413,0.3c0.183,0.09 0.373,0.167 0.567,0.229c0.208,0.067 0.415,0.136 0.62,0.207c0.342,0.118 0.677,0.259 1,0.422c0.281,0.14 0.54,0.321 0.769,0.536c0.213,0.203 0.38,0.449 0.492,0.721c0.279,0.773 0.215,1.629 -0.176,2.351c-0.23,0.377 -0.546,0.693 -0.923,0.923c-0.409,0.248 -0.858,0.423 -1.327,0.519c-0.513,0.11 -1.036,0.164 -1.56,0.163c-0.936,0.009 -1.866,-0.146 -2.748,-0.457Zm13.948,0.132c-0.584,0.25 -1.219,0.362 -1.854,0.325c-1.957,0 -2.936,-1.017 -2.936,-3.05l-0,-4.122l-1.459,0l-0,-2.048l1.459,0l-0,-1.942l2.769,-0.791l-0,2.733l2.021,0l-0,2.048l-2.021,0l-0,3.639c-0,0.937 0.372,1.406 1.116,1.406c0.318,-0.007 0.63,-0.095 0.905,-0.255l-0,2.057Zm7.431,-6.395c-0.36,-0.188 -0.763,-0.281 -1.169,-0.272c-0.552,-0.024 -1.081,0.224 -1.415,0.664c-0.365,0.529 -0.545,1.164 -0.51,1.806l-0,4.302l-2.777,0l-0,-9l2.777,0l-0,1.67l0.035,0c0.266,-1.085 1.256,-1.848 2.373,-1.828c0.233,-0.01 0.466,0.026 0.686,0.105l-0,2.553Zm2.769,-3.929c-0.423,0.017 -0.837,-0.133 -1.151,-0.417c-0.291,-0.26 -0.454,-0.634 -0.448,-1.024c-0.011,-0.39 0.153,-0.765 0.448,-1.02c0.676,-0.526 1.631,-0.526 2.307,0c0.293,0.256 0.456,0.631 0.444,1.02c0.012,0.394 -0.151,0.774 -0.444,1.037c-0.317,0.279 -0.73,0.425 -1.152,0.409l-0.004,-0.005Zm1.375,10.429l-2.777,0l-0,-9l2.777,0l-0,9Zm5.15,-1.046l-0.035,0l-0,1.046l-2.777,0l-0,-13.324l2.777,0l-0,5.678l0.035,0c0.62,-1.012 1.741,-1.614 2.927,-1.573c1.034,-0.056 2.034,0.391 2.681,1.2c0.674,0.952 1.006,2.105 0.94,3.27c0.064,1.295 -0.325,2.573 -1.1,3.612c-0.705,0.895 -1.797,1.402 -2.936,1.362c-1.002,0.051 -1.96,-0.433 -2.512,-1.271Zm-0.079,-3.8l-0,0.923c-0.019,0.526 0.159,1.04 0.5,1.441c0.319,0.374 0.791,0.584 1.283,0.571c0.584,0.025 1.141,-0.253 1.472,-0.734c0.385,-0.622 0.568,-1.349 0.523,-2.079c0.036,-0.618 -0.132,-1.232 -0.479,-1.745c-0.324,-0.421 -0.836,-0.656 -1.367,-0.628c-0.531,-0.011 -1.04,0.218 -1.384,0.624c-0.38,0.455 -0.576,1.037 -0.548,1.63l-0,-0.003Zm16.985,4.846l-2.769,0l-0,-1.371l-0.044,0c-0.561,0.988 -1.615,1.598 -2.751,1.591c-2.086,0 -3.129,-1.263 -3.129,-3.788l-0,-5.432l2.769,0l-0,5.186c-0,1.271 0.504,1.907 1.512,1.907c0.459,0.019 0.901,-0.174 1.2,-0.523c0.317,-0.403 0.476,-0.907 0.448,-1.419l-0,-5.151l2.764,0l-0,9Zm9.158,-0.325c-0.844,0.411 -1.779,0.598 -2.716,0.545c-1.243,0.053 -2.455,-0.401 -3.357,-1.257c-0.863,-0.853 -1.329,-2.03 -1.285,-3.243c-0.072,-1.345 0.428,-2.659 1.375,-3.617c1,-0.913 2.325,-1.39 3.678,-1.323c0.79,-0.054 1.581,0.091 2.3,0.422l-0,2.355c-0.557,-0.426 -1.241,-0.654 -1.942,-0.65c-0.7,-0.036 -1.386,0.217 -1.894,0.7c-0.487,0.52 -0.74,1.218 -0.7,1.929c-0.039,0.689 0.202,1.366 0.668,1.876c0.491,0.472 1.157,0.719 1.837,0.681c0.726,-0.011 1.433,-0.237 2.03,-0.65l0.006,2.232Zm3.226,-10.1c-0.423,0.017 -0.837,-0.133 -1.151,-0.417c-0.291,-0.26 -0.454,-0.634 -0.448,-1.024c-0.011,-0.39 0.153,-0.765 0.448,-1.02c0.676,-0.526 1.631,-0.526 2.307,-0c0.293,0.256 0.456,0.631 0.444,1.02c0.012,0.394 -0.151,0.774 -0.444,1.037c-0.32,0.279 -0.736,0.424 -1.16,0.405l0.004,-0.001Zm1.367,10.425l-2.777,0l-0,-9l2.777,0l-0,9Zm6.627,0.22c-1.3,0.073 -2.577,-0.382 -3.538,-1.261c-0.886,-0.912 -1.353,-2.153 -1.288,-3.423c-0.073,-1.301 0.413,-2.574 1.336,-3.494c0.991,-0.878 2.29,-1.332 3.612,-1.262c1.294,-0.074 2.564,0.382 3.516,1.261c0.868,0.887 1.329,2.095 1.274,3.335c0.069,1.311 -0.406,2.594 -1.314,3.542c-0.972,0.904 -2.272,1.374 -3.598,1.302Zm0.07,-7.312c-0.588,-0.03 -1.156,0.221 -1.529,0.677c-0.396,0.557 -0.588,1.234 -0.545,1.916c-0,1.729 0.697,2.593 2.092,2.593c1.333,0 2,-0.888 2,-2.663c-0.003,-1.683 -0.676,-2.524 -2.018,-2.524l-0,0.001Zm2.979,-6.17l-2.751,2.839l-2,0l2.285,-2.839l2.466,0Zm12.349,13.262l-2.769,0l-0,-5c-0,-1.395 -0.498,-2.092 -1.494,-2.092c-0.46,-0.01 -0.899,0.195 -1.187,0.554c-0.32,0.397 -0.486,0.897 -0.466,1.406l-0,5.132l-2.777,0l-0,-9l2.777,0l-0,1.424l0.035,0c0.577,-1.047 1.697,-1.683 2.892,-1.644c1.992,0 2.988,1.236 2.988,3.709l0.001,5.511Z" style="fill:#00223d;fill-rule:nonzero;"/><path id="Trazado_17246" d="M604.112,397l-7.559,0l0,-12.6l7.269,0l0,2.308l-4.43,0l0,2.8l4.122,0l0,2.3l-4.122,0l0,2.892l4.72,0l-0,2.3Zm1.16,-0.237l-0,-2.25c0.428,0.262 0.887,0.469 1.367,0.615c0.417,0.128 0.851,0.196 1.288,0.2c0.398,0.018 0.796,-0.05 1.165,-0.2c0.256,-0.095 0.427,-0.342 0.426,-0.615c0.003,-0.168 -0.067,-0.328 -0.193,-0.439c-0.149,-0.129 -0.318,-0.233 -0.5,-0.308c-0.216,-0.093 -0.438,-0.172 -0.664,-0.237c-0.24,-0.07 -0.471,-0.149 -0.694,-0.237c-0.326,-0.12 -0.642,-0.266 -0.945,-0.435c-0.256,-0.142 -0.488,-0.325 -0.686,-0.541c-0.186,-0.207 -0.329,-0.449 -0.422,-0.712c-0.103,-0.309 -0.152,-0.633 -0.145,-0.958c-0.012,-0.455 0.102,-0.906 0.33,-1.3c0.219,-0.362 0.52,-0.668 0.879,-0.892c0.387,-0.24 0.812,-0.413 1.257,-0.51c0.483,-0.11 0.977,-0.164 1.472,-0.163c0.406,0 0.812,0.031 1.213,0.092c0.41,0.061 0.815,0.151 1.213,0.268l0,2.145c-0.353,-0.206 -0.733,-0.361 -1.129,-0.461c-0.386,-0.101 -0.783,-0.152 -1.182,-0.154c-0.172,-0.001 -0.345,0.015 -0.514,0.048c-0.148,0.028 -0.291,0.075 -0.426,0.141c-0.114,0.054 -0.214,0.136 -0.29,0.237c-0.07,0.096 -0.107,0.212 -0.105,0.33c-0.003,0.156 0.053,0.307 0.158,0.422c0.118,0.125 0.258,0.227 0.413,0.3c0.183,0.09 0.373,0.167 0.567,0.229c0.208,0.067 0.415,0.136 0.62,0.207c0.342,0.118 0.677,0.259 1,0.422c0.281,0.14 0.54,0.321 0.769,0.536c0.213,0.203 0.38,0.449 0.492,0.721c0.279,0.773 0.215,1.629 -0.176,2.351c-0.23,0.377 -0.546,0.693 -0.923,0.923c-0.409,0.248 -0.858,0.423 -1.327,0.519c-0.513,0.11 -1.036,0.164 -1.56,0.163c-0.936,0.009 -1.866,-0.146 -2.748,-0.457Zm13.948,0.132c-0.584,0.25 -1.219,0.362 -1.854,0.325c-1.957,0 -2.936,-1.017 -2.936,-3.05l0,-4.122l-1.459,0l0,-2.048l1.459,0l0,-1.942l2.77,-0.791l0,2.733l2.02,0l0,2.048l-2.02,0l0,3.639c0,0.937 0.372,1.406 1.116,1.406c0.318,-0.007 0.63,-0.095 0.905,-0.255l-0.001,2.057Zm7.436,-6.39c-0.36,-0.188 -0.763,-0.281 -1.169,-0.272c-0.552,-0.024 -1.081,0.224 -1.415,0.664c-0.365,0.529 -0.545,1.164 -0.51,1.806l0,4.297l-2.777,0l0,-9l2.777,0l0,1.67l0.038,0c0.266,-1.084 1.254,-1.846 2.37,-1.828c0.233,-0.01 0.466,0.026 0.686,0.105l0,2.558Zm8.78,6.5l-2.628,0l0,-1.297l-0.035,0c-0.535,0.969 -1.575,1.555 -2.681,1.512c-0.759,0.043 -1.504,-0.226 -2.061,-0.743c-0.512,-0.527 -0.785,-1.243 -0.751,-1.977c0,-1.746 1.033,-2.754 3.1,-3.023l2.443,-0.325c0,-0.985 -0.533,-1.477 -1.6,-1.477c-1.092,0.006 -2.158,0.34 -3.059,0.958l0,-2.097c0.505,-0.239 1.038,-0.416 1.586,-0.527c0.601,-0.144 1.215,-0.221 1.833,-0.229c2.567,-0 3.85,1.28 3.85,3.841l0.003,5.384Zm-2.61,-3.656l0,-0.606l-1.635,0.211c-0.903,0.117 -1.354,0.525 -1.354,1.222c-0.009,0.295 0.112,0.579 0.33,0.778c0.248,0.211 0.567,0.318 0.892,0.3c0.483,0.016 0.95,-0.182 1.274,-0.541c0.335,-0.376 0.511,-0.866 0.493,-1.369l0,0.005Zm10.248,3.551c-0.584,0.25 -1.219,0.362 -1.854,0.325c-1.957,-0 -2.936,-1.017 -2.936,-3.05l0,-4.127l-1.459,-0l0,-2.048l1.459,-0l0,-1.942l2.769,-0.791l0,2.733l2.021,-0l0,2.048l-2.021,-0l0,3.639c0,0.937 0.372,1.406 1.116,1.406c0.318,-0.007 0.63,-0.095 0.905,-0.255l0,2.062Zm9.58,-3.6l-5.871,-0c0.094,1.307 0.917,1.96 2.47,1.96c0.919,0.02 1.825,-0.223 2.61,-0.7l0,2c-1.01,0.484 -2.124,0.714 -3.243,0.668c-1.245,0.077 -2.469,-0.36 -3.384,-1.208c-0.842,-0.913 -1.275,-2.131 -1.2,-3.371c-0.069,-1.311 0.401,-2.594 1.3,-3.551c0.838,-0.861 1.998,-1.336 3.2,-1.31c1.136,-0.069 2.247,0.357 3.045,1.169c0.754,0.879 1.14,2.017 1.077,3.173l-0.004,1.17Zm-2.575,-1.705c0,-1.289 -0.521,-1.934 -1.564,-1.934c-0.449,0.002 -0.874,0.205 -1.156,0.554c-0.334,0.389 -0.541,0.87 -0.593,1.38l3.313,0Zm13.052,4.386c0.088,1.44 -0.439,2.851 -1.45,3.88c-1.167,0.987 -2.675,1.481 -4.2,1.375c-0.988,0.043 -1.972,-0.134 -2.883,-0.519l0,-2.346c0.844,0.516 1.811,0.795 2.8,0.809c0.796,0.05 1.58,-0.217 2.18,-0.743c0.531,-0.533 0.812,-1.266 0.773,-2.017l0,-0.712l-0.035,-0c-0.583,0.98 -1.661,1.562 -2.8,1.512c-1.05,0.044 -2.061,-0.405 -2.733,-1.213c-0.713,-0.929 -1.072,-2.082 -1.011,-3.252c-0.07,-1.305 0.329,-2.593 1.125,-3.63c0.724,-0.884 1.82,-1.382 2.962,-1.345c0.988,-0.055 1.931,0.43 2.461,1.266l0.035,-0l0,-1.046l2.777,-0l-0.001,7.981Zm-2.742,-3.3l0,-0.712c0.014,-0.53 -0.166,-1.047 -0.505,-1.455c-0.321,-0.393 -0.807,-0.615 -1.314,-0.6c-0.574,-0.02 -1.12,0.252 -1.45,0.721c-0.386,0.604 -0.57,1.315 -0.527,2.03c-0.035,0.632 0.141,1.258 0.5,1.78c0.321,0.43 0.835,0.676 1.371,0.655c0.543,0.014 1.062,-0.233 1.393,-0.664c0.376,-0.507 0.564,-1.13 0.531,-1.76l0.001,0.005Zm6.469,-6.1c-0.423,0.017 -0.837,-0.133 -1.151,-0.417c-0.291,-0.26 -0.454,-0.634 -0.448,-1.024c-0.011,-0.39 0.153,-0.765 0.448,-1.02c0.676,-0.526 1.631,-0.526 2.307,0c0.293,0.256 0.456,0.631 0.444,1.02c0.012,0.394 -0.151,0.774 -0.444,1.037c-0.32,0.276 -0.735,0.419 -1.157,0.399l0.001,0.005Zm1.37,10.419l-2.777,0l0,-9l2.777,0l0,9Zm9.826,0l-2.628,0l0,-1.292l-0.035,0c-0.535,0.969 -1.575,1.555 -2.681,1.512c-0.759,0.043 -1.504,-0.226 -2.061,-0.743c-0.512,-0.527 -0.783,-1.243 -0.749,-1.977c0,-1.746 1.033,-2.754 3.1,-3.023l2.443,-0.325c0,-0.985 -0.533,-1.477 -1.6,-1.477c-1.092,0.006 -2.158,0.34 -3.059,0.958l0,-2.097c0.505,-0.239 1.038,-0.416 1.586,-0.527c0.6,-0.144 1.213,-0.221 1.83,-0.229c2.567,-0 3.85,1.28 3.85,3.841l0.004,5.379Zm-2.61,-3.656l0,-0.606l-1.635,0.211c-0.903,0.117 -1.354,0.525 -1.354,1.222c-0.009,0.295 0.112,0.579 0.33,0.778c0.248,0.211 0.567,0.318 0.892,0.3c0.483,0.016 0.95,-0.182 1.274,-0.541c0.333,-0.374 0.51,-0.863 0.493,-1.364Zm18.58,3.656l-2.777,-0l0,-1.239l-0.035,-0c-0.596,0.953 -1.663,1.512 -2.786,1.459c-1.039,0.038 -2.04,-0.401 -2.716,-1.191c-0.736,-0.947 -1.101,-2.13 -1.028,-3.327c-0.065,-1.29 0.338,-2.56 1.134,-3.577c0.728,-0.884 1.827,-1.381 2.971,-1.345c0.981,-0.094 1.932,0.395 2.426,1.248l0.035,-0l0,-5.352l2.777,-0l-0.001,13.324Zm-2.724,-4.377l-0,-0.677c0.019,-0.533 -0.163,-1.054 -0.51,-1.459c-0.341,-0.37 -0.821,-0.581 -1.324,-0.581c-0.569,-0 -1.106,0.27 -1.445,0.726c-0.376,0.593 -0.558,1.29 -0.519,1.991c-0.042,0.648 0.134,1.292 0.5,1.828c0.338,0.406 0.84,0.641 1.368,0.641c0.544,0 1.059,-0.249 1.396,-0.676c0.377,-0.519 0.565,-1.152 0.534,-1.793Zm13.148,0.668l-5.871,-0c0.094,1.307 0.917,1.96 2.47,1.96c0.919,0.02 1.825,-0.223 2.61,-0.7l-0,2c-1.01,0.484 -2.124,0.714 -3.243,0.668c-1.245,0.077 -2.469,-0.36 -3.384,-1.208c-0.842,-0.913 -1.275,-2.131 -1.2,-3.371c-0.069,-1.311 0.401,-2.594 1.3,-3.551c0.838,-0.861 1.998,-1.336 3.2,-1.31c1.136,-0.069 2.247,0.357 3.045,1.169c0.754,0.879 1.14,2.017 1.077,3.173l-0.004,1.17Zm-2.575,-1.705c0,-1.289 -0.521,-1.934 -1.564,-1.934c-0.449,0.002 -0.874,0.205 -1.156,0.554c-0.334,0.389 -0.541,0.87 -0.593,1.38l3.313,-0Zm16.014,5.089c-0.844,0.411 -1.779,0.598 -2.716,0.545c-1.243,0.053 -2.455,-0.401 -3.357,-1.257c-0.862,-0.854 -1.327,-2.031 -1.283,-3.243c-0.072,-1.345 0.428,-2.659 1.375,-3.617c1,-0.913 2.325,-1.39 3.678,-1.323c0.79,-0.054 1.581,0.091 2.3,0.422l0,2.355c-0.557,-0.426 -1.241,-0.654 -1.942,-0.65c-0.7,-0.036 -1.386,0.217 -1.894,0.7c-0.487,0.52 -0.74,1.218 -0.7,1.929c-0.039,0.689 0.202,1.366 0.668,1.876c0.491,0.472 1.157,0.719 1.837,0.681c0.726,-0.011 1.433,-0.237 2.03,-0.65l0.004,2.232Zm6.108,0.545c-1.3,0.073 -2.577,-0.382 -3.538,-1.261c-0.886,-0.912 -1.353,-2.153 -1.288,-3.423c-0.073,-1.301 0.413,-2.574 1.336,-3.494c0.992,-0.878 2.29,-1.331 3.612,-1.261c1.294,-0.074 2.564,0.382 3.516,1.261c0.868,0.887 1.329,2.095 1.274,3.335c0.069,1.311 -0.406,2.594 -1.314,3.542c-0.973,0.904 -2.272,1.374 -3.598,1.301Zm0.07,-7.312c-0.588,-0.03 -1.156,0.221 -1.529,0.677c-0.396,0.557 -0.588,1.234 -0.545,1.916c0,1.729 0.697,2.593 2.092,2.593c1.333,-0 2,-0.888 2,-2.663c-0.003,-1.683 -0.676,-2.524 -2.018,-2.524l0,0.001Zm20.935,7.092l-2.769,-0l0,-5.133c0,-1.307 -0.48,-1.96 -1.441,-1.96c-0.447,-0.005 -0.868,0.217 -1.116,0.589c-0.299,0.43 -0.45,0.945 -0.431,1.468l0,5.036l-2.777,-0l0,-5.186c0,-1.271 -0.472,-1.907 -1.415,-1.907c-0.449,-0.012 -0.876,0.199 -1.138,0.563c-0.306,0.449 -0.456,0.987 -0.426,1.53l0,5l-2.777,-0l0,-9l2.777,-0l0,1.406l0.035,-0c0.62,-1.01 1.724,-1.627 2.909,-1.626c1.143,-0.08 2.209,0.606 2.61,1.679c0.614,-1.079 1.783,-1.728 3.023,-1.679c1.957,-0 2.936,1.207 2.936,3.62l0,5.6Zm10.749,-0l-2.769,-0l0,-1.371l-0.044,-0c-0.561,0.988 -1.615,1.598 -2.751,1.591c-2.086,-0 -3.129,-1.263 -3.129,-3.788l0,-5.432l2.769,-0l0,5.186c0,1.271 0.504,1.907 1.512,1.907c0.459,0.019 0.901,-0.174 1.2,-0.523c0.317,-0.403 0.476,-0.907 0.448,-1.419l0,-5.151l2.769,-0l-0.005,9Zm11.03,-0l-2.769,-0l0,-5c0,-1.395 -0.498,-2.092 -1.494,-2.092c-0.46,-0.01 -0.899,0.195 -1.187,0.554c-0.32,0.397 -0.486,0.897 -0.466,1.406l0,5.132l-2.777,-0l0,-9l2.777,-0l0,1.424l0.035,-0c0.577,-1.047 1.697,-1.683 2.892,-1.644c1.992,-0 2.988,1.236 2.988,3.709l0.001,5.511Zm3.6,-10.424c-0.423,0.017 -0.837,-0.133 -1.151,-0.417c-0.291,-0.26 -0.454,-0.634 -0.448,-1.024c-0.011,-0.39 0.153,-0.765 0.448,-1.02c0.676,-0.526 1.631,-0.526 2.307,-0c0.293,0.256 0.456,0.631 0.444,1.02c0.012,0.394 -0.151,0.774 -0.444,1.037c-0.318,0.277 -0.731,0.422 -1.152,0.404l-0.004,-0Zm1.375,10.424l-2.777,-0l0,-9l2.777,-0l0,9Zm9.158,-0.325c-0.844,0.411 -1.779,0.598 -2.716,0.545c-1.243,0.053 -2.455,-0.401 -3.357,-1.257c-0.862,-0.854 -1.327,-2.031 -1.283,-3.243c-0.072,-1.345 0.428,-2.659 1.375,-3.617c1.001,-0.913 2.326,-1.39 3.679,-1.323c0.79,-0.054 1.581,0.091 2.3,0.422l0,2.355c-0.557,-0.426 -1.241,-0.654 -1.942,-0.65c-0.7,-0.036 -1.386,0.217 -1.894,0.7c-0.487,0.52 -0.74,1.218 -0.7,1.929c-0.039,0.689 0.202,1.366 0.668,1.876c0.491,0.472 1.157,0.719 1.837,0.681c0.726,-0.011 1.433,-0.237 2.03,-0.65l0.003,2.232Zm9.308,0.325l-2.628,-0l0,-1.292l-0.035,-0c-0.535,0.969 -1.575,1.555 -2.681,1.512c-0.759,0.043 -1.504,-0.226 -2.061,-0.743c-0.514,-0.528 -0.786,-1.246 -0.751,-1.982c0,-1.746 1.033,-2.754 3.1,-3.023l2.443,-0.325c0,-0.985 -0.533,-1.477 -1.6,-1.477c-1.092,0.006 -2.158,0.34 -3.059,0.958l0,-2.092c0.505,-0.239 1.038,-0.416 1.586,-0.527c0.601,-0.144 1.215,-0.221 1.833,-0.229c2.567,-0 3.85,1.28 3.85,3.841l0.003,5.379Zm-2.61,-3.656l0,-0.606l-1.635,0.211c-0.903,0.117 -1.354,0.525 -1.354,1.222c-0.009,0.295 0.112,0.579 0.33,0.778c0.248,0.211 0.567,0.318 0.892,0.3c0.483,0.016 0.95,-0.182 1.274,-0.541c0.333,-0.374 0.51,-0.863 0.493,-1.364Zm11.628,3.331c-0.844,0.411 -1.779,0.598 -2.716,0.545c-1.243,0.053 -2.455,-0.401 -3.357,-1.257c-0.862,-0.854 -1.327,-2.031 -1.283,-3.243c-0.072,-1.345 0.428,-2.659 1.375,-3.617c1,-0.913 2.325,-1.39 3.678,-1.323c0.79,-0.054 1.581,0.091 2.3,0.422l0,2.355c-0.557,-0.426 -1.241,-0.654 -1.942,-0.65c-0.7,-0.036 -1.386,0.217 -1.894,0.7c-0.487,0.52 -0.74,1.218 -0.7,1.929c-0.039,0.689 0.202,1.366 0.668,1.876c0.491,0.472 1.157,0.719 1.837,0.681c0.726,-0.011 1.433,-0.237 2.03,-0.65l0.004,2.232Zm3.226,-10.1c-0.423,0.017 -0.837,-0.133 -1.151,-0.417c-0.291,-0.26 -0.454,-0.634 -0.448,-1.024c-0.011,-0.39 0.153,-0.765 0.448,-1.02c0.676,-0.526 1.631,-0.526 2.307,-0c0.293,0.256 0.456,0.631 0.444,1.02c0.012,0.394 -0.151,0.774 -0.444,1.037c-0.319,0.278 -0.734,0.424 -1.157,0.405l0.001,-0.001Zm1.37,10.425l-2.777,-0l0,-9l2.777,-0l0,9Zm6.627,0.22c-1.3,0.073 -2.577,-0.382 -3.538,-1.261c-0.886,-0.912 -1.353,-2.153 -1.288,-3.423c-0.073,-1.301 0.413,-2.574 1.336,-3.494c0.992,-0.878 2.29,-1.331 3.612,-1.261c1.294,-0.074 2.564,0.382 3.516,1.261c0.868,0.887 1.329,2.095 1.274,3.335c0.069,1.311 -0.406,2.594 -1.314,3.542c-0.973,0.904 -2.272,1.374 -3.598,1.301Zm0.07,-7.312c-0.588,-0.03 -1.156,0.221 -1.529,0.677c-0.396,0.557 -0.588,1.234 -0.545,1.916c0,1.729 0.697,2.593 2.092,2.593c1.333,-0 2,-0.888 2,-2.663c-0.003,-1.683 -0.676,-2.524 -2.017,-2.524l-0.001,0.001Zm2.979,-6.17l-2.75,2.838l-2,-0l2.285,-2.839l2.465,0.001Zm12.35,13.262l-2.769,-0l0,-5c0,-1.395 -0.498,-2.092 -1.494,-2.092c-0.46,-0.01 -0.899,0.195 -1.187,0.554c-0.32,0.397 -0.486,0.897 -0.466,1.406l0,5.132l-2.777,-0l0,-9l2.777,-0l0,1.424l0.035,-0c0.577,-1.047 1.697,-1.683 2.892,-1.644c1.992,-0 2.988,1.236 2.988,3.709l0.001,5.511Z" style="fill:#00223d;fill-rule:nonzero;"/><g id="Grupo_12815"><path id="Línea_142-2" d="M505.5,66.5l0,325" style="fill:none;fill-rule:nonzero;stroke:#ff8f00;stroke-width:3px;"/><path id="Línea_143-2" d="M505.5,141.5l25,0" style="fill:none;fill-rule:nonzero;stroke:#ff8f00;stroke-width:3px;"/><path id="Línea_144-2" d="M505.5,224.5l25,0" style="fill:none;fill-rule:nonzero;stroke:#ff8f00;stroke-width:3px;"/><path id="Línea_145-2" d="M505.5,307.5l25,0" style="fill:none;fill-rule:nonzero;stroke:#ff8f00;stroke-width:3px;"/><path id="Línea_146" d="M505.5,390.5l25,0" style="fill:none;fill-rule:nonzero;stroke:#ff8f00;stroke-width:3px;"/></g></g></g></g></svg>